<svg id="Group_229" data-name="Group 229" xmlns="http://www.w3.org/2000/svg" width="268" height="130.202" viewBox="0 0 268 130.202">
  <path id="Path_2259" data-name="Path 2259" d="M195.8,145.923a.562.562,0,1,1,.563.562A.563.563,0,0,1,195.8,145.923Z" transform="translate(-141.926 -51.013)" fill="#f0c96e"/>
  <path id="Path_2261" data-name="Path 2261" d="M162.6,109.506a.562.562,0,1,1,.562.562A.562.562,0,0,1,162.6,109.506Z" transform="translate(-155.896 -61.081)" fill="#f0c96e"/>
  <path id="Path_2263" data-name="Path 2263" d="M183.947,169.845a.562.562,0,1,1,.562.562A.562.562,0,0,1,183.947,169.845Z" transform="translate(-146.495 -42.848)" fill="#f0c96e"/>
  <path id="Path_2266" data-name="Path 2266" d="M212.674,87.7a.562.562,0,1,1,.563.563A.563.563,0,0,1,212.674,87.7Z" transform="translate(-134.783 -69.682)" fill="#f0c96e"/>
  <path id="Path_2267" data-name="Path 2267" d="M328.347,84.126a.562.562,0,1,1,.562.563A.562.562,0,0,1,328.347,84.126Z" transform="translate(-86.123 -71.258)" fill="#f0c96e"/>
  <path id="Path_2269" data-name="Path 2269" d="M284.29,82.011a.562.562,0,1,1,.563.562A.562.562,0,0,1,284.29,82.011Z" transform="translate(-104.475 -72.189)" fill="#f0c96e"/>
  <path id="Path_2270" data-name="Path 2270" d="M293.881,140.9a.562.562,0,1,1,.562.562A.561.561,0,0,1,293.881,140.9Z" transform="translate(-100.416 -52.728)" fill="#f0c96e"/>
  <path id="Path_2271" data-name="Path 2271" d="M295.935,148.775a.562.562,0,1,1,.563.562A.563.563,0,0,1,295.935,148.775Z" transform="translate(-99.547 -50.04)" fill="#fff"/>
  <path id="Path_2272" data-name="Path 2272" d="M204.932,158.707a.562.562,0,1,1,.562.563A.562.562,0,0,1,204.932,158.707Z" transform="translate(-138.06 -46.65)" fill="#fff"/>
  <path id="Path_2273" data-name="Path 2273" d="M157.945,137.066a.562.562,0,1,1,.562.562A.562.562,0,0,1,157.945,137.066Z" transform="translate(-157.945 -54.036)" fill="#fff"/>
  <path id="Path_2276" data-name="Path 2276" d="M318.683,97.727a.562.562,0,1,1,.562.562A.562.562,0,0,1,318.683,97.727Z" transform="translate(-90.379 -65.268)" fill="#fff"/>
  <path id="Path_2277" data-name="Path 2277" d="M186.969,78.042a.562.562,0,1,1,.562.562A.563.563,0,0,1,186.969,78.042Z" transform="translate(-145.164 -73.937)" fill="#fff"/>
  <path id="Path_2282" data-name="Path 2282" d="M296.632,160.727a.562.562,0,1,1,.562.563A.562.562,0,0,1,296.632,160.727Z" transform="translate(-99.252 -45.96)" fill="#f47a63"/>
  <path id="Path_2283" data-name="Path 2283" d="M176.681,147.026a.562.562,0,1,1,.562.562A.562.562,0,0,1,176.681,147.026Z" transform="translate(-149.694 -50.636)" fill="#f47a63"/>
  <path id="Path_2285" data-name="Path 2285" d="M343.705,129.907a.562.562,0,1,1,.562.563A.562.562,0,0,1,343.705,129.907Z" transform="translate(-79.36 -56.479)" fill="#f47a63"/>
  <path id="Path_2286" data-name="Path 2286" d="M310.028,115.981a.562.562,0,1,1,.562.562A.562.562,0,0,1,310.028,115.981Z" transform="translate(-94.19 -57.23)" fill="#f47a63"/>
  <path id="Path_2287" data-name="Path 2287" d="M342.306,171.816a.562.562,0,1,1,.562.562A.562.562,0,0,1,342.306,171.816Z" transform="translate(-79.976 -42.175)" fill="#f47a63"/>
  <path id="Path_2288" data-name="Path 2288" d="M204.117,120.1a.562.562,0,1,1,.563.563A.563.563,0,0,1,204.117,120.1Z" transform="translate(-138.405 -59.827)" fill="#fff"/>
  <path id="Path_2289" data-name="Path 2289" d="M286.438,94.18a.562.562,0,1,1,.562.563A.562.562,0,0,1,286.438,94.18Z" transform="translate(-103.566 -66.83)" fill="#fff"/>
  <path id="Path_2290" data-name="Path 2290" d="M345.462,144.972a.562.562,0,1,1,.562.563A.562.562,0,0,1,345.462,144.972Z" transform="translate(-78.587 -51.337)" fill="#fff"/>
  <path id="Path_2293" data-name="Path 2293" d="M210.981,143.417h-.3a.865.865,0,0,1-.864-.864v-.565a.565.565,0,0,0-.565-.565h0a.566.566,0,0,0-.565.565v.565a.864.864,0,0,1-.864.864h-.3a.565.565,0,0,0-.565.565h0a.565.565,0,0,0,.565.565h.3a.863.863,0,0,1,.864.864v.565a.566.566,0,0,0,.565.565h0a.565.565,0,0,0,.565-.565v-.565a.864.864,0,0,1,.864-.864h.3a.565.565,0,0,0,.565-.565h0A.565.565,0,0,0,210.981,143.417Z" transform="translate(-137.212 -52.444)" fill="#fff"/>
  <path id="Path_2296" data-name="Path 2296" d="M284.788,193.763h-.3a.866.866,0,0,1-.866-.866v-.563a.563.563,0,0,0-.563-.565h0a.564.564,0,0,0-.565.565v.563a.865.865,0,0,1-.864.866h-.3a.564.564,0,0,0-.565.563h0a.565.565,0,0,0,.565.565h.3a.865.865,0,0,1,.864.864v.565a.565.565,0,0,0,.565.565h0a.564.564,0,0,0,.563-.565v-.565a.865.865,0,0,1,.866-.864h.3a.565.565,0,0,0,.565-.565h0A.564.564,0,0,0,284.788,193.763Z" transform="translate(-70.871 -80.769)" fill="#fff"/>
  <path id="Path_2297" data-name="Path 2297" d="M238.308,82.706h-.3a.865.865,0,0,1-.864-.864v-.565a.565.565,0,0,0-.565-.565h0a.566.566,0,0,0-.565.565v.565a.864.864,0,0,1-.864.864h-.3a.564.564,0,0,0-.565.565h0a.565.565,0,0,0,.565.565h.3a.863.863,0,0,1,.864.864v.565a.564.564,0,0,0,.565.563h0a.563.563,0,0,0,.565-.563V84.7a.864.864,0,0,1,.864-.864h.3a.564.564,0,0,0,.563-.565h0A.563.563,0,0,0,238.308,82.706Z" transform="translate(-125.654 -72.513)" fill="#fff"/>
  <path id="Path_2298" data-name="Path 2298" d="M179.95,88.485h-.3a.864.864,0,0,1-.864-.864v-.565a.566.566,0,0,0-.565-.565h0a.565.565,0,0,0-.565.565v.565a.865.865,0,0,1-.864.864h-.3a.563.563,0,0,0-.563.565h0a.564.564,0,0,0,.563.565h.3a.864.864,0,0,1,.864.864v.565a.563.563,0,0,0,.565.563h0a.564.564,0,0,0,.565-.563v-.565a.863.863,0,0,1,.864-.864h.3a.565.565,0,0,0,.565-.565h0A.564.564,0,0,0,179.95,88.485Z" transform="translate(-150.026 -69.968)" fill="#fff"/>
  <path id="Path_2300" data-name="Path 2300" d="M310.768,96.617h-.3a.865.865,0,0,1-.864-.864v-.565a.565.565,0,0,0-.565-.565h0a.566.566,0,0,0-.565.565v.565a.864.864,0,0,1-.864.864h-.3a.564.564,0,0,0-.565.565h0a.563.563,0,0,0,.565.563h.3a.864.864,0,0,1,.864.866v.563a.565.565,0,0,0,.565.565h0a.564.564,0,0,0,.565-.565v-.563a.865.865,0,0,1,.864-.866h.3a.563.563,0,0,0,.563-.563h0A.563.563,0,0,0,310.768,96.617Z" transform="translate(-95.005 -66.387)" fill="#fff"/>
  <path id="Path_2301" data-name="Path 2301" d="M164.7,165.047h-.3a.865.865,0,0,1-.866-.864v-.565a.564.564,0,0,0-.563-.565h0a.565.565,0,0,0-.565.565v.565a.865.865,0,0,1-.864.864h-.3a.565.565,0,0,0-.565.565h0a.564.564,0,0,0,.565.563h.3a.865.865,0,0,1,.864.866v.563a.564.564,0,0,0,.565.565h0a.563.563,0,0,0,.563-.565v-.563a.866.866,0,0,1,.866-.866h.3a.564.564,0,0,0,.565-.563h0A.565.565,0,0,0,164.7,165.047Z" transform="translate(-156.741 -45.09)" fill="#fff"/>
  <path id="Path_2302" data-name="Path 2302" d="M344.5,156.863h-.3a.865.865,0,0,1-.864-.864v-.565a.564.564,0,0,0-.565-.565h0a.565.565,0,0,0-.565.565V156a.864.864,0,0,1-.864.864h-.3a.564.564,0,0,0-.565.565h0a.563.563,0,0,0,.565.563h.3a.864.864,0,0,1,.864.864v.565a.565.565,0,0,0,.565.565h0a.564.564,0,0,0,.565-.565v-.565a.865.865,0,0,1,.864-.864h.3a.563.563,0,0,0,.563-.563h0A.563.563,0,0,0,344.5,156.863Z" transform="translate(-80.78 -47.873)" fill="#fff"/>
  <path id="Path_2303" data-name="Path 2303" d="M299.083,77.013h-.3a.865.865,0,0,1-.864-.864v-.565a.565.565,0,0,0-.565-.565h0a.564.564,0,0,0-.563.565v.565a.865.865,0,0,1-.866.864h-.3a.565.565,0,0,0-.565.565h0a.566.566,0,0,0,.565.565h.3a.864.864,0,0,1,.866.864v.565a.563.563,0,0,0,.563.563h0a.563.563,0,0,0,.565-.563v-.565a.864.864,0,0,1,.864-.864h.3a.566.566,0,0,0,.565-.565h0A.565.565,0,0,0,299.083,77.013Z" transform="translate(-99.948 -75.02)" fill="#fff"/>
  <path id="Path_2306" data-name="Path 2306" d="M184.271,134.328h-.3a.865.865,0,0,1-.864-.864V132.9a.565.565,0,0,0-.565-.565h0a.564.564,0,0,0-.563.565v.565a.865.865,0,0,1-.866.864h-.3a.565.565,0,0,0-.565.565h0a.564.564,0,0,0,.565.563h.3a.866.866,0,0,1,.866.866v.563a.563.563,0,0,0,.563.565h0a.564.564,0,0,0,.565-.565v-.563a.865.865,0,0,1,.864-.866h.3a.564.564,0,0,0,.565-.563h0A.565.565,0,0,0,184.271,134.328Z" transform="translate(-148.124 -55.534)" fill="#fff"/>
</svg>
