<svg xmlns="http://www.w3.org/2000/svg" xmlns:xlink="http://www.w3.org/1999/xlink" width="537.237" height="554.667" viewBox="0 0 537.237 554.667">
  <defs>
    <linearGradient id="linear-gradient" x1="1.055" y1="-0.239" x2="-0.302" y2="1.383" gradientUnits="objectBoundingBox">
      <stop offset="0" stop-color="#1a89b9"/>
      <stop offset="1" stop-color="#441ab9"/>
    </linearGradient>
    <radialGradient id="radial-gradient" cx="0.452" cy="-0.066" r="1.152" gradientTransform="matrix(-0.84, 0.542, -0.528, -0.819, 0.798, -0.365)" gradientUnits="objectBoundingBox">
      <stop offset="0" stop-color="#fff" stop-opacity="0"/>
      <stop offset="0.169" stop-color="#fff" stop-opacity="0"/>
      <stop offset="0.523" stop-color="#c9c8c9" stop-opacity="0.122"/>
      <stop offset="0.83" stop-color="#2b2829" stop-opacity="0.478"/>
      <stop offset="0.89" stop-color="#231f20" stop-opacity="0.502"/>
      <stop offset="1" stop-color="#231f20" stop-opacity="0.502"/>
    </radialGradient>
    <radialGradient id="radial-gradient-2" cx="0.828" cy="0.5" r="0.457" gradientTransform="translate(1.567 1.125) rotate(-170.909)" gradientUnits="objectBoundingBox">
      <stop offset="0" stop-color="#fff"/>
      <stop offset="0.125" stop-color="#fbfbfb" stop-opacity="0.984"/>
      <stop offset="0.25" stop-color="#f1f0f0" stop-opacity="0.937"/>
      <stop offset="0.376" stop-color="#dfdfdf" stop-opacity="0.859"/>
      <stop offset="0.502" stop-color="#c7c6c6" stop-opacity="0.745"/>
      <stop offset="0.629" stop-color="#a7a6a6" stop-opacity="0.604"/>
      <stop offset="0.756" stop-color="#817e7f" stop-opacity="0.427"/>
      <stop offset="0.88" stop-color="#545152" stop-opacity="0.224"/>
      <stop offset="1" stop-color="#231f20" stop-opacity="0"/>
    </radialGradient>
  </defs>
  <g id="Group_21" data-name="Group 21" transform="translate(-67.009 -55.067)">
    <ellipse id="Ellipse_3" data-name="Ellipse 3" cx="268.618" cy="277.33" rx="268.618" ry="277.33" transform="translate(67.009 55.074)" fill="url(#linear-gradient)"/>
    <g id="Group_20" data-name="Group 20" transform="translate(85.95 55.067)">
      <path id="Path_14" data-name="Path 14" d="M458.292,367.208c-2.045-7.47-4.713-10.027-6.309-11.554.97-8.661-2.353-12.106-3.95-13.763,1.246-6.262,1.814-9.121-6.861-33.533-2.942-8.276,1.491-4.747,1.552-4.668s6.109,9.621,5.855,15.609a11.645,11.645,0,0,1,2.794,4.956c1.007,3.013.213,6.249,1.07,9.28.1.355.5.687.716.979.661.9,2.931,4.412,4.433,11.761,1.078,5.271,1.083,6.588,1.146,22.713-.135-.533-.3-1.249-.446-1.779m-18.54-62.834c-2.052-5.457-5.158-12.641-8.3-15.875,3.961,3.577,7.812,14.395,8.543,16.527-.072-.2-.169-.456-.242-.652m-25.413-46.039.01,0-.025.006h.006l.009,0m89.9,68.066c0-118.82-72.369-220.2-174.075-259.683h0c7.143,2.937,7.143,2.937,15.614,6.7,1.615.74,3.758,1.746,5.356,2.523l-5.189-2.385c11.666,5.952,11.666,5.952,12.626,6.467-6.6-2.861-12.89-6.417-19.5-9.255.275.123,28.855,13.2,50.23,28.466-3.306-2.182-6.582-4.412-9.888-6.594,6.117,4.9,12.865,8.967,18.354,14.707-14.268-9.368-27.511-20.367-42.544-28.521-5.58-2.657-10.992-5.685-16.723-8.008,9.7,5.339,29.878,16.451,37.5,21.422-3.227-1.406-3.227-1.406-18.246-8.429,14.85,9.058,14.85,9.058,17.2,10.985-1.558-.856-3.613-2.044-5.1-3.017a13.225,13.225,0,0,0,2.746,4.051,34.01,34.01,0,0,1-4.228-2.575c-.4,2.511-.561,3.551,4.865,9.184-5.105-1.411-8-6.42-12.784-8.357,4.335,5.213,10.37,8.355,15.04,13.158l-2.269-.227c-.085,2.846-.085,2.846,6.833,9.649-2.868-.2-2.868-.2-7.112-2.9,1.5,2.392,3.871,3.934,5.6,6.1-.575-.068-.575-.068-22.945-16.886,12.061,4.227,12.061,4.227,12.593,4.3.1-.744.238-1.734.339-2.476-4.115-4.983-44.54-28.723-45.089-16.291l3,47.161c.213.867,5.307,21.2,12.9,17.556,2.476-1.188,2.617-4.366,4.7-5.888,11.741,16.609,14.53,20.554,15.565,20.661,1.982-4.4,1.982-4.4,4.576-5.273-1.49-3.887-3.476-9.071-4.965-12.956l1.936-1.541c-1.367-10.125-12.4-16.7-9.746-28.3-3.551-5.338-3.551-5.338-5.1-9.183l2-1.264c9.862,5.445,7.525,12.941,6.526,16.144,9.98,15.859,12.662,20.12,20.5,14.223a13.592,13.592,0,0,1,4.755,2.423c-2.677,2.705-6.443,1.826-9.558,3.093.665,5.841,7.055,7.373,8.771,12.424-.913,1.741-.915,1.741-.917,1.741h-.015a16.663,16.663,0,0,0-3.6-3.827l-2.358.49c.12,3.812,2.664,8.486,4.256,11.924a8.849,8.849,0,0,0-.936,4.651,24.761,24.761,0,0,1-4.633-2.194l-2.155.926c-2.65,7-16.372,3.589-18.23-1.165-1.883-4.816-2.629-10.009-4.584-14.8-1.74,1.928-1.74,1.928,2.929,19.229-9.97,5.827-8.586,22.333-21.994,24.928-2.479,4.239-8.225,1.917-10.891,5.782,4.159,8.378,20.4,12.149,14.412,23.886-7.356,1.513-15.154-2.258-22.28,1.987-.766,4.891.489,11.559,1.038,16.48a11.276,11.276,0,0,0-2.214,4.991l3.185,1.734q.229,3.085.44,6.2c4.669.152,7.061,7.979,12.486,4.735,4.394-2.629,10.22-1.453,14.029-5.632,5.5-6.026,5.333-15.024,10.475-21.236-.194-2.426-.527-4.663-.87-6.885,17.468-4.589,17.468-4.589,17.907-5.007,29.166,25.978,26.129,28.034,13.056,30.159l9.546,7c-.79-5.8,6.635-11.15,1.324-17.083l1.926-1.531,1.93,1.223c-.8-4.4-5.637-5.65-7.015-9.6l-2.128.8c-5.252-4.083-9.066-10.941-10.873-14.666a6.6,6.6,0,0,1,3.877-2.2c14.546,14.322,14.546,14.322,17.307,16.065,3.359,15.119,14.588,25.788,14.69,25.837a9.271,9.271,0,0,0,.741-4.719c3.207.75,3.207.75,5.154.333-1.858-1.413-4.668-3.546-8.333-9.975l2.221-.482a7.952,7.952,0,0,0-.01-4.7c11.133,3.3,7.525,19.143,18.214,22.824a11.913,11.913,0,0,0,2.572-4.515c4.156,5.718,5.28,4.924,9.461,1.969,7.707,3.978,1.9,24.185-2.014,25.082-11.846,2.719-20.183-10.633-32.126-7.47-.668,1.849-.668,1.849-.819,8.714l-2.221,1.517c-7.623-2-28.038-14.172-28.187-14.281-.009-18.632-.009-18.632-23.422-14.3-26.959,4.988-26.959,4.988-27.33,4.827-2.327,1.935-3.9,4.562-5.85,6.837l-.752.712h-.029l-34.913,54.85c4.746,10.062,4.746,10.062.05,28.038-3.514,13.45,24.225,36.594,24.509,36.817,2.447,1.926,5.91,4.909,8.981,5.118a9.95,9.95,0,0,0,2.836-.777c5.511-1.514,29.359-6.538,29.414-6.538,7.965,0,14.18,6.306,22.085,6.523-.371,10.2-5.867,20.154-1.4,30.593,4.01,9.369,3.394,15.187,2.057,23.906-1.537,10.024-9.674,16.7-12.411,26.12-1.919,6.6.959,13.45-1.016,20.045-2.882,9.627-2.805,20.023-7.161,29.267l.948,2.111c19.546-4.642,19.546-4.642,27.267-11.023,12.094-9.992,47.106-49.541,48.937-51.944,8.46-11.1,6.218-26,12.636-37.825,7.729-14.24,21.646-23.538,28.7-38.32,4.835-10.14,5.75-15.762,5.748-22.586-6.085,5.664-9.185,6.067-13.11,6.576-.2-1.681-.505-3.918-.794-5.585,25.338-24.771,42.078-41.136,24.592-52.479-.228-2.335-.53-5.451-.757-7.787-.411,4.56-.734,8.163-6.543,9.422-1.807-7.96-6.43-15.075-6.62-23.52.6-.524,1.4-1.221,2-1.746,3.821,4.548,4.14,11.059,8.157,15.5l2.379-1.15c.186-.709.436-1.656.622-2.367,2.253,5.909,2.253,5.909,12.7,8.57,1.146,4.037,1.279,8.37,3.344,12.138a12.535,12.535,0,0,0-.27,5.41l1.648-1.759c0,.289.128,29.6-3.272,53.474,2.795-6.041,4.237-18.147,6.418-36.471q.775-10.539.779-21.292" transform="translate(13.96 -49.061)" fill="#e5f6ff"/>
      <path id="Path_15" data-name="Path 15" d="M324.484,153.522c.028,2.467-.545,4.918-.184,7.394.115.784,1.1,1.461,1.566,2.088,1.016.941.393,1.5-1.848,1.669-11.084.814-14.486,1.634-19.158,4.613,3.994-6.568,4.426-6.937,4.882-7.328-1.176-1.611-3.354-2.36-3.745-4.645-.2-1.2,1.669-.3,2.369-.847.377-.3.156-.987-.006-1.491-.42-1.306-.816-2.54-.42-3.572.493-1.281,2.457-.267,2.741-1.828.1-.558-1.629-4.162-1.647-4.2-.307-.588-1.242-2.378-5.094-1.634a8.68,8.68,0,0,1-1.1-1.746c-1.055-1.99-.383-4.386-1.411-6.383-.358-.7-.467-.909-1.966-1.284-1.754-.438-1.93-1.147-2.18-3.134-.929-7.373-.465-8.57,3.827-9.857,1.663,2.063,1.132,4.359.587,5.9-.4,1.131-.366,1.384-.044,1.726,1.867,1.985,4.3-3.545,5.584-1.117.5.938.374,1.917-.09,4.872-.523,3.33-.934,5.959,2.538,4.585,3.574,6.156,3.574,6.156,4.869,7.134,2.262,1.707,4.258,3.555,5.778,8.9h4.141l0,.173" transform="translate(21.619 -20.9)" fill="#e5f6ff"/>
      <path id="Path_16" data-name="Path 16" d="M303.317,138.879c-.056,1.02-.505,1.8-1.4,3.365,1.75,5.089.844,7.5.734,7.76a4.341,4.341,0,0,1-.8,1.247c-.95.953-2.422.774-3.4,1.667-.832.759-.691,2.079-1.533,2.833a.623.623,0,0,1-.727.033c-.291-.13-2.4-1.547-2.773-2.508-.17-.435.107-.97.429-1.591a14.775,14.775,0,0,0,1.944-6.4c-.078-.365-.238-.362-.859.015-.821.5-2.739,1.669-3.674-2.155a1.614,1.614,0,0,1,1.345-2.029c1.433-.479,3.068.109,4.4-.9.079-1.75-1.685-2.852-1.527-4.631a1.93,1.93,0,0,1,2.09-1.682c2.422.124,5.864,2.767,5.745,4.977" transform="translate(18.955 -14.424)" fill="#e5f6ff"/>
      <path id="Path_17" data-name="Path 17" d="M282.382,99.535a9.675,9.675,0,0,1-.154,4.371c-.367.546-1.08.136-1.487.574-1.135,1.22-1.751,2.837-2.908,4.039a8.477,8.477,0,0,1-2.7,1.79,6.036,6.036,0,0,1-3.664.141c-2.206-.408-3.943-2.243-6.294-2.208-1.286.02-2.5.038-2.757-.277a.685.685,0,0,1-.072-.221c.511-1.038,2.572-1.27,1.979-2.775-.345-.878-1.851-1.854-4.129-2.679,3.953-.089,3.388-2.82,2.719-3.375a3.892,3.892,0,0,0-2.628-.309c-.947.089-2.021.191-2.384-.155-.583-.558.1-2.461,1.759-2.646a4.825,4.825,0,0,1,2.333.429c-1.167-1.5-2.93-3.766-.028-3.912,1.8,1.414,2.108,1.782,2.313,3.71a1.93,1.93,0,0,0,1.524,1.808,1.219,1.219,0,0,0,.733-.047c.907-.452,1.475-1.362,2.355-1.852,1-.555,2.124-.743,3.15-1.214.364-.167,8.91-3.978,10.339,4.809" transform="translate(3.28 -35.861)" fill="#e5f6ff"/>
      <path id="Path_18" data-name="Path 18" d="M428.606,282.012a35.515,35.515,0,0,1-1.076,4.128c-.245-.487,2.672-12.97,2.7-13.09-.461,3.74-1.339,7.67-1.628,8.961" transform="translate(82.743 57.312)" fill="#e5f6ff"/>
      <path id="Path_19" data-name="Path 19" d="M399.372,333.116c-2.7,5.088-23.472,37.247-29,36.12-.057-.574-.21-2.1,4.768-11.283,1.552-2.864,4.286-4.709,6-7.432,2.01-3.189,2.814-6.981,4.784-10.189.169-.273.4-.632.592-.891.937-1.291,2.2-1.582,3.661-1.919,2.184-.5,4.163-1.935,6.416-4.648,1.886-2.272,2.893-5.212,5.13-7.219a1.035,1.035,0,0,1,.371-.183c.493.737-.421,3.308-2.719,7.644" transform="translate(55.994 84.337)" fill="#e5f6ff"/>
      <path id="Path_21" data-name="Path 21" d="M308.631,441.383c-.379,3.266-16,43.588-16.143,43.834-4.57,8.038-22.28,5.808-19.129,17.965,2.475,9.545-6.879,22.894-6.976,23.018-2,2.584-2.981,3.287-6.946,1.707l.132,2.873,2.437.809c2.356,4.892,2.28,5.038.314,8.767a28.666,28.666,0,0,1-5.183.723l-1.34,2.229,1.158,2.642-2.148,1.391c.006.809.016,1.888.023,2.7,3.376.987,3.376.987,5.01,7.941l-2.394.788,28.042,25.247c-5,1.735-19.5,1.713-45.938-35.894a25.345,25.345,0,0,0,2.139,5.362c-2.484-1.722-3.074-2.131-12.749-18.152-11.786-19.517-6.56-46.667-26.349-62.592-17.841-14.358-40.047-32.226-37.9-46.77,4.755-32.276,1.339-38.085-2.616-44.811-1.882.656-1.882.656-5.417,5.1-10.035-10.642-23.694-17.047-32.25-29.418-6.813-9.654-20.972-8.2-27-19.034-.091-.164-10.935-35.791-12.408-51.772-8.982,13.1,4.728,23.717,3.69,35.949-4.263-6.165-3.936-14.081-7.368-20.563,9.163-20.092-5.492-40.086-.226-60.164a109.458,109.458,0,0,1,5.547-15.869l13.559-33.7c-1.709-6.5,18.722-40.106,29.094-53.217l-.229.208q5.108-5.911,10.537-11.515A272.671,272.671,0,0,1,170.9,99.45a268.262,268.262,0,0,1,23.7-16.031c-1.312.809-4.8,2.96-9.973,6.546,14.6-7.975,14.6-7.975,14.892-8.1-.774.626-.774.626-8.583,6.356,2.39-1.3,4.746-2.655,7.143-3.934-5.067,7.49-5.067,7.49-9.226,10.2,2.631.7,5.114,1.369,13.078-4.2-.57,1.008-1.33,2.351-1.9,3.358l1.559,1.994c6.559-2.078,10.659-8.111,16.682-11.051-.675,1.253-.675,1.253-7.445,8.211,10.345-5.189,17.234-15.539,28.049-20.026-7.006,5.918-13.094,12.9-20.252,18.644a48.666,48.666,0,0,0,5.329-3.237c-1.7,2.649-1.7,2.649-8.765,9.183,8.618-1.4,12.491-10.254,19.926-13.511,0,1,0,2.332-.006,3.333-3.072,3.145-3.072,3.145-32.278,22,.388.674.9,1.573,1.29,2.248-12.043,11.933-30.708,16.187-37.387,34.347l2.554.2c0,2.582,0,2.582-4.248,9.663a13.076,13.076,0,0,1,5.129.624c4.41,9.912,4.41,9.912,8.341,9.984-1.114,3.395-2.6,7.92-3.715,11.315.487,5.239.556,5.367,2.331,8.634,5.725-1.044,17.016-23.45,17.129-23.677a28.723,28.723,0,0,0,2.862-16.509c7.58-6.07,10.023-18.32,21.815-19.32,1.828,5.538,1.828,5.538,4.36,6.914l-4,11.679a30.835,30.835,0,0,0,4.376,2.8c3.868-1.969,5.22-6.433,8.435-9.049,5.3,8.969-2.641,24.082,10.7,28.95-2.748,9.149,1.142,19.347-4.172,28.091,1.791.847,1.791.847,7.522.288.427,1.02,1,2.382,1.421,3.4-2.289,5.5-2.289,5.5-19.295,6.585,3.119-5.608,7.159-13.159,10.425-18.678l-26.443,3.56c-.041.021-4.518,2.416-17.417,17.476,11.745-11.385,14.444-11.533,18.916-11.779.423.712.986,1.663,1.409,2.373a14.009,14.009,0,0,1-5.123,3.33c.876,2.41.876,2.41.371,8.937,2.6,1.175,4.7,3.2,7.234,4.484,2.325-1.487,4-3.78,6.243-5.367.248.931.58,2.17.828,3.1-3.259,5.088-7.081,7.459-18.6,11.535-.377-4.29-.377-4.29,2.406-9.221-1.763.847-3.4,1.957-5.239,2.643l-.04-.23c-.207.844-.483,1.969-.688,2.811-14.641,6.455-25.329,23.359-25.416,23.521-25.8,47.708-25.8,47.708-23.516,66.969l-3.636-.856c-3.14-6.688-.816-14.158-2.817-21.01-9.7,0-9.7,0-14.152-1.987a9.159,9.159,0,0,0-2.34,4.889c-1.8.743-1.8.743-11.453-1.106-19.186,35.2-1.323,52.183,4.508,49.437,5.27-2.482,6.174-16.14,12.488-11.342-.774,7.241-2.013,14.422-2.663,21.681,3.927,3.033,8.926,1.008,13.082,2.96,4.079,23.527,4.079,23.527,5.481,25.21,11.4-1.814,11.4-1.814,13.727.923,2.3-2.469,2.3-2.469,3.262-9.31,5.848.48,9.74-4.1,14.653-6.039,12.257,7.967,27.4,9.759,38.881,19.39,2.465,2.067,4.847,4.237,7.356,6.25,5.591,4.486,13.395,2.1,19,6.524,4.7,3.709,2.108,11.577,7.864,14.684l49.1,19.093c1.052,1.2,3.241,3.7,2.654,10.166" transform="translate(-79.912 -45.936)" fill="#e5f6ff"/>
      <path id="Path_22" data-name="Path 22" d="M275.237,59.173c.094.124.2.3.285.435-1.414.3-1.594.338-2.06,1.118,1.17,1.353,3.022,1.794,4.1,3.274,1.235,1.7,1.515,3.825,2.413,5.674-.276.282-.643.658-.917.941.035,1.112.778,2.163.266,3.321-1.259.476-1.952.737-.109,4.1.054.1,4.59,11.023,1.246,15.474-2.068,2.754-7.842,9.069-16.759,8.269-1.829-.165-2.4-.1-2.8.312-1.161,1.225-.487,3.067-1.387,4.378-.668.973-1.528,1.772-5.145,5.136-.418.388-.948.938-1.383,1.306a20.267,20.267,0,0,1-6.145,3.8c-7.73,3.551-9,5.323-8.9,8.845.069,2.392-.04,2.6-.44,3.39a7.387,7.387,0,0,1-2.769,2.119c-1.154.668-1.615,1.241-2.664,5.474-1.722,6.943-2.67,10.766-5.875,12.07-1.665.676-6.259-1.2-5.618-4.6.06-.327.1-.932-.184-1.091-2.052-1.158-4.109,1.009-6.161-.009a.967.967,0,0,1-.465-.468c-.062-.188-4.929-21.677-.25-32.961,3.533-8.522,5.944-9.158,7.538-9.578,2.134-.564,5.434-4.244,5.762-7.1-4.143-4.389-4.143-4.389-3.877-5.267,2.112-.252,3.158,2.484,5.34,2.035,1.342-2.592.376-5.556,1.251-8.222-2.236.086-2.739,2.44-4.258,3.466-.211-.717-.211-.717,15.368-21.29-1.56-1.969-3.5-1.046-5.056-.3,1-1.96,12.652-8.137,32.381-8.154h0c.04,0,6.868,3.636,7.269,4.106" transform="translate(-18.343 -55.067)" fill="#e5f6ff"/>
    </g>
    <ellipse id="Ellipse_4" data-name="Ellipse 4" cx="268.618" cy="277.33" rx="268.618" ry="277.33" transform="translate(67.009 55.074)" fill="url(#radial-gradient)" style="mix-blend-mode: multiply;isolation: isolate"/>
    <ellipse id="Ellipse_5" data-name="Ellipse 5" cx="277.33" cy="268.618" rx="277.33" ry="268.618" transform="translate(67.009 609.734) rotate(-90)" opacity="0.77" fill="url(#radial-gradient-2)" style="mix-blend-mode: overlay;isolation: isolate"/>
  </g>
</svg>
