<svg id="Waves" xmlns="http://www.w3.org/2000/svg" xmlns:xlink="http://www.w3.org/1999/xlink" width="290.917" height="33.347" viewBox="0 0 290.917 33.347">
  <defs>
    <linearGradient id="linear-gradient" x1="0.011" y1="0.185" x2="1" y2="0.143" gradientUnits="objectBoundingBox">
      <stop offset="0" stop-color="#1b5993"/>
      <stop offset="1" stop-color="#1292ca"/>
    </linearGradient>
  </defs>
  <path id="Path_23" data-name="Path 23" d="M0,0V14.034a64.462,64.462,0,0,0,38.3,8.489c17.057-1.628,33.051-10.1,50.135-11.369,17.9-1.322,35.768,5.118,52.9,10.69,16.793,5.457,33.528,7.543,50.765,3.966,8.764-1.819,16.934-5.409,25.322-8.9,22.459-9.335,52.4-21.247,73.493-1.007V0Z" opacity="0.25" fill="url(#linear-gradient)"/>
  <path id="Path_24" data-name="Path 24" d="M0,0V4.793c3.152,6.4,6.7,12.446,11.562,17.051C24.1,33.735,40,33.653,54.445,27.765,62,24.688,69.013,19.861,76.184,15.7,86.1,9.938,96.725,1.752,107.9.64c8.791-.864,17.188,2.856,23.9,9.568,7.7,7.7,15.108,18.8,25.123,22.132,9.8,3.271,19.722-2.028,28.881-7.361s18.221-11.824,28.345-13.052c14.48-1.774,27.463,6.937,40.947,11.776a23.422,23.422,0,0,0,21.113-2.274c5.438-3.3,11.637-8.165,14.7-14.929V0Z" opacity="0.5" fill="url(#linear-gradient)"/>
  <path id="Path_25" data-name="Path 25" d="M0,0V1.707c36.348,16.181,76.145,19.916,115.356,11.2,10.425-2.316,20.42-6.1,30.937-8.022C160.6,2.268,173.561,8.6,186.43,15.617c14.286,7.795,28.364,13.258,44.171,11.67,20.978-2.122,41.81-13.858,60.317-25.713V0Z" fill="url(#linear-gradient)"/>
</svg>
