<svg id="Layer_1" data-name="Layer 1" xmlns="http://www.w3.org/2000/svg" viewBox="0 0 704.9 574.19"><defs><style>.cls-1{fill:#1a89b9;}.cls-2{fill:#198ab9;}.cls-3{fill:none;stroke:#1a89b9;stroke-miterlimit:10;stroke-width:4px;}.cls-4{fill:#fff;}</style></defs><path class="cls-1" d="M0,12.86H38V146.23H0ZM57.93,146.23V12.86H162.42V38.72H95.93V66.24h61.16V92.1H95.93v28.26h66.49v25.87Zm125.77,0V12.86H288.16V38.72H221.69V66.24h61.15V92.1H221.69v28.26h66.47v25.87Zm125.74,0V12.86H413.92V38.72H347.45V66.24h61.16V92.1H347.45v28.26h66.47v25.87Z" transform="translate(0 -3.82)"/><path class="cls-2" d="M103.37,323.45v45.69q0,60.81,0,121.62c0,2.33-.66,2.78-2.85,2.77q-48.75-.11-97.48,0c-2.25,0-3-.38-3-2.87Q.11,334.85,0,179c0-2.32.51-3,2.92-3q49.1.14,98.19,0a5.09,5.09,0,0,1,4.07,1.7q46.11,48.14,92.31,96.19l55.33,57.63q36.66,38.22,73.34,76.4c1.19,1.24,1,1.8-.11,2.89q-35.24,34.68-70.39,69.46c-1,1-1.6,1.47-2.87.12Q228.46,454.62,204,428.89,154.86,377,105.72,325.12c-.63-.66-1.21-1.36-1.81-2.05Z" transform="translate(0 -3.82)"/><path class="cls-2" d="M418.29,267.33c0,25.31.2,50.62-.1,75.92-.12,10.43,2.93,19.68,8.24,28.31,8.78,14.28,21.82,22.06,38.28,24.48,9.63,1.41,19.16,1.2,28.49-1.68,15.41-4.77,25.32-15.48,31.43-30a69.5,69.5,0,0,0,5.74-28.45c-.19-11.87,0-23.74-.09-35.62,0-1.84.48-2.32,2.33-2.32q49.08.09,98.18,0c2,0,2.4.62,2.38,2.51a448.65,448.65,0,0,1-2.57,45.34c-2.85,25.75-8,51-18.7,74.76-12.7,28.13-32,50.08-60,63.73-14.29,7-29.43,11-45.1,13.36a189.45,189.45,0,0,1-31.27,2.14C443,499.22,412,492.69,384.13,475c-23-14.61-40-34.59-52.07-58.89a170.82,170.82,0,0,1-16.72-55.23,21.93,21.93,0,0,1-.08-2.81q-.13-46.76-.25-93.5-.13-39.48-.33-79c0-3.07,0-3.08,2.95-3.07q49.08,0,98.18,0c2.22,0,2.67.67,2.66,2.75q-.09,41,0,82Z" transform="translate(0 -3.82)"/><path class="cls-1" d="M.11,559.86l9.57-1q.87,5.24,3.51,7.69A10.09,10.09,0,0,0,20.32,569q4.75,0,7.17-2.18a6.73,6.73,0,0,0,2.41-5.11,5.05,5.05,0,0,0-1-3.19,7.94,7.94,0,0,0-3.54-2.29q-1.72-.65-7.88-2.31-7.91-2.13-11.1-5.23A14.75,14.75,0,0,1,4,530.48a13.55,13.55,0,0,1,6.08-5.36,22.68,22.68,0,0,1,9.6-1.84q9.18,0,13.81,4.37a16,16,0,0,1,4.87,11.65l-9.84.47q-.63-4.08-2.71-5.86c-1.38-1.2-3.46-1.79-6.23-1.79A10.64,10.64,0,0,0,12.84,534a4,4,0,0,0-1.56,3.28,4.21,4.21,0,0,0,1.46,3.22q1.86,1.69,9,3.53a45.58,45.58,0,0,1,10.62,3.81,14.16,14.16,0,0,1,5.38,5.37,16.74,16.74,0,0,1,2,8.43,16.56,16.56,0,0,1-2.33,8.51,14.25,14.25,0,0,1-6.58,5.9A25.8,25.8,0,0,1,20.22,578Q11,578,6,573.37T.11,559.86Z" transform="translate(0 -3.82)"/><path class="cls-1" d="M59,577.07V533.13H44.53v-9H83.26v9H68.83v43.94Z" transform="translate(0 -3.82)"/><path class="cls-1" d="M89.55,524.18h9.84v28.65a63.24,63.24,0,0,0,.37,8.84,8.69,8.69,0,0,0,3,5.21,9.93,9.93,0,0,0,6.5,2c2.8,0,4.9-.61,6.32-1.85a7.47,7.47,0,0,0,2.56-4.57,64.26,64.26,0,0,0,.43-9V524.18h9.85V552a77.51,77.51,0,0,1-.8,13.46,15.47,15.47,0,0,1-2.94,6.64,15,15,0,0,1-5.74,4.31,23.2,23.2,0,0,1-9.38,1.6q-7,0-10.59-1.75a15.32,15.32,0,0,1-5.7-4.54,15.14,15.14,0,0,1-2.76-5.87,69.82,69.82,0,0,1-1-13.42Z" transform="translate(0 -3.82)"/><path class="cls-1" d="M138.76,524.18h18a32.64,32.64,0,0,1,9.28,1,16.22,16.22,0,0,1,7.35,4.87,23.57,23.57,0,0,1,4.65,8.57,41.93,41.93,0,0,1,1.6,12.5,37.4,37.4,0,0,1-1.5,11.26,23.72,23.72,0,0,1-5.22,9.34A16.9,16.9,0,0,1,166,576a27.45,27.45,0,0,1-8.71,1.12H138.76Zm9.84,9v35H156a24.58,24.58,0,0,0,6-.51,8.78,8.78,0,0,0,4-2.2,11.51,11.51,0,0,0,2.58-5.1,37.52,37.52,0,0,0,1-9.69,34.27,34.27,0,0,0-1-9.41,12.52,12.52,0,0,0-2.79-5.13,9.26,9.26,0,0,0-4.56-2.49,41.86,41.86,0,0,0-8.08-.5Z" transform="translate(0 -3.82)"/><path class="cls-1" d="M188,577.07V524.18h36.14v9h-26.3v11.72h24.47v8.91H197.81v14.4H225v8.91Z" transform="translate(0 -3.82)"/><path class="cls-1" d="M233.48,577.07V524.18h9.58L263,559.5V524.18h9.14v52.89h-9.87l-19.65-34.49v34.49Z" transform="translate(0 -3.82)"/><path class="cls-1" d="M293.53,577.07V533.13H279.07v-9H317.8v9H303.37v43.94Z" transform="translate(0 -3.82)"/><path class="cls-1" d="M343.11,524.18h19.48a51.68,51.68,0,0,1,8.63.53,12,12,0,0,1,5.09,2.18,13.36,13.36,0,0,1,3.74,4.42,12.85,12.85,0,0,1,1.49,6.19,13.06,13.06,0,0,1-1.84,6.81,11.78,11.78,0,0,1-5,4.66,12.77,12.77,0,0,1,6.85,4.79,13.47,13.47,0,0,1,2.4,8,16.81,16.81,0,0,1-1.55,7,13.9,13.9,0,0,1-4.22,5.45,13.27,13.27,0,0,1-6.6,2.51q-2.46.28-11.87.36H343.11ZM353,533v12.22h6.45c3.83,0,6.22-.05,7.15-.18a6.22,6.22,0,0,0,4-1.89A5.88,5.88,0,0,0,372,539a6.16,6.16,0,0,0-1.25-4,5.46,5.46,0,0,0-3.71-1.85c-1-.12-3.78-.18-8.41-.18Zm0,21v14.14h9.11a40.54,40.54,0,0,0,6.75-.33,5.93,5.93,0,0,0,3.57-2.11,6.82,6.82,0,0,0,1.38-4.49,7.35,7.35,0,0,0-1.06-4,6.08,6.08,0,0,0-3.08-2.41q-2-.76-8.73-.76Z" transform="translate(0 -3.82)"/><path class="cls-1" d="M392.28,577.07V524.18H413q7.81,0,11.35,1.43a11.46,11.46,0,0,1,5.67,5.07,16.18,16.18,0,0,1,2.13,8.33,14.84,14.84,0,0,1-3.23,9.83q-3.23,3.88-9.64,4.89a23.29,23.29,0,0,1,5.27,4.44,60,60,0,0,1,5.6,8.58l6,10.32H424.34l-7.12-11.51a75.25,75.25,0,0,0-5.19-7.77,7.43,7.43,0,0,0-3-2.2,14.88,14.88,0,0,0-4.95-.6h-2v22.08Zm9.84-30.52h7.29q7.08,0,8.84-.65a5.31,5.31,0,0,0,2.76-2.24,7.25,7.25,0,0,0,1-4,6.71,6.71,0,0,0-1.32-4.32,5.9,5.9,0,0,0-3.7-2.07q-1.2-.18-7.18-.18h-7.69Z" transform="translate(0 -3.82)"/><path class="cls-1" d="M485.38,577.07H474.67l-4.25-12H450.93l-4,12H436.47l19-52.89h10.4Zm-18.12-20.92-6.72-19.63L454,556.15Z" transform="translate(0 -3.82)"/><path class="cls-1" d="M490.7,577.07V524.18h9.58l20,35.32V524.18h9.14v52.89h-9.88l-19.65-34.49v34.49Z" transform="translate(0 -3.82)"/><path class="cls-1" d="M571,557.62l9.55,3.29q-2.21,8.65-7.3,12.86t-13,4.2a20.22,20.22,0,0,1-16-7.19q-6.25-7.2-6.25-19.68,0-13.22,6.28-20.51t16.53-7.31q8.94,0,14.53,5.74a21.31,21.31,0,0,1,5,9.74l-9.74,2.52a11.37,11.37,0,0,0-3.61-6.49,9.78,9.78,0,0,0-6.66-2.38,10.74,10.74,0,0,0-8.8,4.22q-3.37,4.22-3.37,13.67,0,10,3.32,14.29a10.46,10.46,0,0,0,8.65,4.25,9.45,9.45,0,0,0,6.75-2.7C568.79,564.33,570.14,561.5,571,557.62Z" transform="translate(0 -3.82)"/><path class="cls-1" d="M589,577.07V524.18h9.84V545h19.28V524.18H628v52.89h-9.84V554H598.83v23.12Z" transform="translate(0 -3.82)"/><circle class="cls-3" cx="634.72" cy="246.57" r="12.77"/><path class="cls-1" d="M630.2,256.89V243.51h5.24a8.27,8.27,0,0,1,2.87.36,2.92,2.92,0,0,1,1.44,1.28,4.12,4.12,0,0,1,.54,2.11,3.74,3.74,0,0,1-.82,2.49A3.81,3.81,0,0,1,637,251a6.1,6.1,0,0,1,1.34,1.13,15.17,15.17,0,0,1,1.41,2.17l1.51,2.61h-3l-1.8-2.91a20.31,20.31,0,0,0-1.31-2,2,2,0,0,0-.75-.55,3.49,3.49,0,0,0-1.25-.16h-.51v5.59Zm2.49-7.72h1.84a8.67,8.67,0,0,0,2.24-.17,1.29,1.29,0,0,0,.7-.56,1.83,1.83,0,0,0,.25-1,1.72,1.72,0,0,0-.33-1.1,1.49,1.49,0,0,0-.94-.52c-.2,0-.81,0-1.81,0h-1.95Z" transform="translate(0 -3.82)"/><path class="cls-1" d="M592.42,21.37,582.83,6.72c-1.18-.77-2.64-2-3.94-2.42C576.06,3,573,4.58,570.7,6.46L553.35,30.81c-27.84,37.14-60.8,71.83-96.75,98.41-2.84,2.39-7.07,4.73-8,8.67-.94,3.55.77,6.47,2.82,8.68a484.83,484.83,0,0,1,80.82,75.65c4.34,4.92,7.87,9.81,12.13,14.44,7.16,10.27,15.58,20.62,22.17,31.64,2.06,2.33,2.42,6.15,5.65,7.29,2.53.94,5.65,1.58,8.06,0l2.4-2.6A500.6,500.6,0,0,1,692.49,153.74c4.22-4.07,12.29-5.58,12.41-13.12a12.19,12.19,0,0,0-5-8.82l-.69-.12a435.4,435.4,0,0,1-61-54.34L617.15,53.62c-8.54-10.19-16.84-21.48-24.73-32.25Z" transform="translate(0 -3.82)"/><path class="cls-4" d="M567.59,42.22c8.47-7.1,19.13-1.2,26.26,5.33a261.87,261.87,0,0,1,22.06,20.22l1.24.77A388.22,388.22,0,0,1,668,130.6c2.33,3.87,4.4,8.24,3.09,13.37-4.81,12.94-14.57,23.26-23.11,34.57-18.48,21.42-38,42.15-59.79,58.69-4.42,3.37-10.37,6.47-15.66,3.8-16.06-9.05-29.61-23.89-43.67-37.41-16.3-16.28-32.66-35.25-45-55.08-1.84-2.78-2.35-6.22-2.3-9.89,1.59-6.85,5.94-12.48,10.06-18.25,14.6-20.05,32.49-39.06,50.55-56.43A14.5,14.5,0,0,1,544,62.13c7.76-7.23,15.46-13.62,23.59-19.91Z" transform="translate(0 -3.82)"/><path class="cls-1" d="M570.7,47.81c8.66-6.36,16.44,2.53,23.15,7.61,25.94,22.49,50.42,48.24,69.08,77.32,2.35,3.76,3.41,9.58,1.31,13.83-4.84,8.69-11.37,16.62-17.55,24.68v.44c-15.43,17.68-31.72,35.87-49.32,50.85-8.59,5.63-16.48,17.93-27.54,10.31a412.46,412.46,0,0,1-69.75-70.95c-3.47-5.81-8.88-10.58-11.29-17.17-3.36-8.93,4-15.34,8.3-22.06C517.93,95,543.81,67.83,570.7,47.81Z" transform="translate(0 -3.82)"/><path class="cls-4" d="M569.59,164c-.7,14.59-.88,28.09-1.88,42.71,5.36.53,11.41,1,17.13.14L583.13,166l-.3-1.94A85.29,85.29,0,0,1,569.59,164Z" transform="translate(0 -3.82)"/><path class="cls-4" d="M536.11,123c-6.6,3.57-16.32,9-15.24,18.71,1.41,5.33,6.76,8.77,11,11,23.42,11.12,54.5,11.49,79.22,3.2,6.11-2.54,14.3-6.21,15.42-14.27-.06-6.65-6.6-10.84-11.3-13.39v-.32a19.9,19.9,0,0,1,5.22-1.51v-.18c-8.28-1.6-16.28-3.93-24.3-6.22,1.55,3.8,2.66,7.79,4,11.73a41.09,41.09,0,0,1,7.48-1.84c4.23,1.77,10.28,4.31,10.89,10,.47,5.32-5,7.92-8.37,10.08a90.29,90.29,0,0,1-57.45,2.4c-5.22-1.77-12.76-4.05-13.41-11.22,3.71-9.43,13.3-11.39,21.31-13.68-4.11-2.86-8.3-5.39-12.29-8.57-4.31.26-8.24,2.29-12.13,4.11Z" transform="translate(0 -3.82)"/><path class="cls-4" d="M576.17,66.06l-2.34,8.12L562.05,110.5c3,.32,6.6,0,9.5.32v.3l-1.72,41.09.29.43a46.15,46.15,0,0,0,12.31-.1v-.65L580.89,112l.23-1.35,10.36-.19c-5.17-14.7-10.18-29.55-15-44.44Z" transform="translate(0 -3.82)"/></svg>