<?xml version="1.0" standalone="no"?>
<!DOCTYPE svg PUBLIC "-//W3C//DTD SVG 20010904//EN"
 "http://www.w3.org/TR/2001/REC-SVG-20010904/DTD/svg10.dtd">
<svg version="1.0" xmlns="http://www.w3.org/2000/svg"
 width="705.000000pt" height="705.000000pt" viewBox="0 0 705.000000 705.000000"
 preserveAspectRatio="xMidYMid meet">
<metadata>
Created by potrace 1.14, written by Peter Selinger 2001-2017
</metadata>
<g transform="translate(0.000000,705.000000) scale(0.100000,-0.100000)"
fill="#000000" stroke="none">
<path d="M5719 6377 c-15 -12 -42 -44 -60 -72 -39 -56 -239 -327 -248 -335 -3
-3 -22 -25 -42 -50 -21 -25 -50 -59 -65 -77 -16 -17 -45 -50 -64 -74 -46 -57
-342 -352 -409 -409 -30 -25 -63 -53 -75 -63 -11 -10 -30 -26 -41 -35 -11 -10
-49 -40 -85 -67 -36 -27 -76 -60 -90 -72 -14 -13 -27 -23 -31 -23 -13 0 -27
-48 -22 -74 7 -32 23 -48 168 -163 61 -48 115 -92 121 -97 6 -6 45 -40 85 -76
97 -86 297 -286 379 -379 36 -41 70 -79 75 -85 6 -6 30 -36 55 -66 25 -30 47
-57 51 -60 3 -3 25 -32 50 -65 24 -33 49 -66 56 -73 6 -6 15 -21 18 -32 3 -11
10 -20 15 -20 5 0 17 -15 26 -32 9 -18 20 -35 23 -38 12 -9 81 -118 81 -128 0
-13 59 -41 79 -37 9 2 21 4 27 4 6 1 44 49 85 109 72 105 277 373 339 442 177
199 367 388 506 505 26 22 52 45 58 50 31 29 166 135 202 159 51 33 68 64 59
104 -8 39 -21 53 -135 139 -52 40 -108 84 -125 98 -16 14 -55 47 -85 72 -73
63 -327 318 -415 417 -38 44 -77 87 -85 96 -8 9 -33 38 -55 65 -21 28 -42 52
-45 55 -3 3 -17 21 -30 40 -12 19 -28 40 -34 45 -6 6 -27 33 -45 60 -19 28
-37 52 -40 55 -4 3 -32 44 -64 92 -81 123 -115 141 -168 95z"/>
<path d="M2 5643 l3 -666 175 -1 c96 -1 181 0 188 2 9 3 12 146 12 668 l0 664
-190 0 -190 0 2 -667z"/>
<path d="M580 5985 c-1 -415 -1 -788 0 -912 l0 -98 517 0 c285 0 520 3 523 7
3 4 5 62 5 130 l0 123 -333 0 -332 0 0 45 c0 25 0 79 -1 120 0 41 0 84 0 96 1
20 4 21 302 21 165 0 302 2 304 4 6 7 7 42 6 149 l-1 106 -300 0 c-165 0 -303
3 -306 6 -8 9 -10 188 -2 188 4 0 3 13 -2 29 -4 15 -4 34 0 41 6 9 87 12 336
14 l329 1 0 128 0 127 -522 0 -523 0 0 -325z"/>
<path d="M1839 6293 c0 -10 -1 -309 -2 -665 -2 -570 0 -648 13 -649 45 -3
1007 -4 1020 -1 12 2 15 24 14 122 -1 65 -4 122 -7 127 -3 4 -152 8 -331 8
-212 0 -326 3 -327 10 0 5 -1 67 -2 138 -2 106 1 128 13 131 8 3 139 4 290 4
151 0 283 1 293 1 15 1 17 14 17 129 l0 128 -305 -1 c-168 0 -305 2 -306 5 -4
28 -1 262 4 266 3 4 152 6 332 6 l325 0 1 29 c0 16 1 67 1 114 0 47 -1 92 -1
100 -1 13 -66 15 -521 15 -488 0 -520 -1 -521 -17z"/>
<path d="M3095 5645 c0 -439 3 -665 10 -666 34 -3 1012 -4 1023 -1 9 3 12 38
12 131 l0 126 -332 0 -333 0 0 141 -1 141 291 -1 c159 -1 297 2 306 6 13 6 16
27 15 130 l-1 123 -285 1 c-157 1 -294 2 -305 3 -19 1 -20 8 -20 136 l0 135
35 1 c19 0 169 1 333 1 l297 0 0 129 0 129 -522 0 -523 0 0 -665z"/>
<path d="M7 4673 c-4 -3 -7 -716 -7 -1584 0 -1252 3 -1578 13 -1581 6 -2 236
-4 511 -4 490 1 499 1 505 21 4 11 6 392 6 848 0 455 2 827 5 827 4 0 36 -31
71 -68 35 -37 134 -141 219 -231 85 -90 173 -183 195 -206 195 -207 305 -323
335 -354 57 -59 334 -352 380 -401 182 -194 295 -310 302 -310 4 0 77 69 162
153 85 83 248 244 361 355 113 112 205 208 203 212 -2 5 -86 95 -188 201 -102
105 -214 222 -250 260 -36 37 -142 148 -236 246 -95 98 -204 212 -244 253 -39
41 -153 160 -253 264 -100 103 -208 216 -240 250 -133 139 -581 605 -748 777
l-76 79 -510 0 c-280 0 -513 -3 -516 -7z"/>
<path d="M3153 4607 c-5 -8 -4 -1107 1 -1547 3 -235 7 -308 21 -360 9 -36 18
-72 20 -80 1 -8 11 -42 21 -75 10 -33 19 -62 19 -65 1 -3 7 -18 13 -33 7 -16
12 -30 12 -33 0 -2 11 -27 25 -56 14 -28 25 -55 25 -59 0 -4 23 -47 51 -96
177 -307 431 -525 757 -649 65 -25 223 -69 277 -78 17 -2 30 -5 30 -6 0 -1 11
-3 25 -4 14 -2 59 -7 100 -11 159 -18 427 -10 561 15 30 6 70 13 89 16 19 3
43 10 53 15 9 5 17 7 17 5 0 -9 169 53 245 89 202 96 378 254 507 455 55 88
150 293 174 380 33 116 67 259 79 333 22 126 23 134 29 200 3 31 9 82 12 112
10 102 18 287 15 368 -1 16 -30 17 -513 15 l-513 -3 -1 -225 c-1 -124 -4 -241
-7 -260 -15 -81 -19 -95 -42 -153 -59 -144 -133 -231 -253 -294 -77 -41 -263
-63 -362 -43 -25 5 -56 12 -70 14 -85 18 -222 113 -282 196 -26 37 -91 160
-84 160 2 0 -1 19 -8 43 -10 32 -12 243 -12 875 1 531 -2 836 -8 840 -15 9
-1017 8 -1023 -1z"/>
<path d="M6273 4060 c-120 -73 -77 -261 62 -269 86 -4 155 55 159 137 7 114
-124 192 -221 132z m158 -60 c38 -52 27 -120 -25 -154 -46 -30 -123 -15 -145
28 -22 44 -31 76 -20 76 6 0 8 4 5 9 -10 16 44 70 77 79 40 11 84 -5 108 -38z"/>
<path d="M6306 3990 c-2 -8 -4 -39 -4 -67 0 -40 4 -53 15 -53 10 0 13 8 11 25
-2 13 0 24 5 25 4 0 11 0 15 0 5 0 14 -11 20 -25 6 -14 18 -25 27 -25 19 0 19
9 0 30 -14 15 -14 20 0 46 13 25 13 31 0 43 -20 20 -84 21 -89 1z m74 -24 c0
-7 -11 -16 -25 -18 -19 -4 -25 -1 -25 13 0 14 7 19 25 19 15 0 25 -6 25 -14z"/>
<path d="M139 1200 c-95 -17 -145 -117 -102 -207 21 -45 57 -67 160 -98 107
-33 129 -66 77 -118 -21 -21 -33 -25 -74 -23 -56 2 -75 15 -92 62 -13 36 -9
35 -101 25 -19 -2 12 -89 46 -125 67 -72 225 -76 297 -6 87 85 41 247 -78 275
-105 25 -138 39 -152 65 -9 16 -8 25 1 38 8 9 14 18 15 20 0 1 19 5 42 8 48 7
75 -6 98 -45 14 -24 23 -28 53 -27 56 3 63 11 45 54 -20 50 -60 90 -97 98 -45
9 -97 11 -138 4z"/>
<path d="M5510 1183 c-43 -21 -100 -83 -106 -117 -2 -6 -7 -26 -13 -44 -17
-55 -7 -181 18 -233 82 -172 316 -171 383 0 l16 40 -39 15 c-53 21 -53 21 -72
-22 -9 -20 -29 -45 -44 -54 -25 -14 -38 -15 -89 -9 -20 2 -54 38 -67 72 -9 21
-13 66 -12 115 1 81 15 117 57 152 41 34 129 13 150 -35 7 -15 13 -29 14 -31
1 -2 23 2 49 9 42 11 46 14 40 36 -27 109 -172 162 -285 106z"/>
<path d="M449 1198 c-1 -2 -2 -22 -3 -45 l-1 -43 72 0 73 0 0 -220 0 -220 50
0 50 0 -1 163 c0 89 0 188 1 220 l0 57 69 0 c75 0 79 3 73 56 l-4 34 -189 0
c-104 0 -190 -1 -190 -2z"/>
<path d="M898 1188 c-3 -7 -4 -99 -3 -204 2 -214 10 -244 73 -292 26 -20 49
-27 96 -30 81 -5 135 10 174 51 40 41 44 70 46 307 l1 175 -47 3 c-27 2 -49
-1 -49 -5 -1 -4 -2 -91 -3 -193 -3 -247 -9 -258 -142 -241 -7 0 -20 13 -30 29
-16 23 -19 51 -20 207 -1 99 -2 186 -3 193 -1 7 -17 12 -45 12 -26 0 -46 -5
-48 -12z"/>
<path d="M1390 1183 c-1 -10 -2 -129 -3 -266 l-2 -247 25 -1 c231 -8 293 9
344 90 32 52 44 107 40 196 -4 100 -38 174 -96 212 -37 25 -49 27 -174 30
-123 4 -134 2 -134 -14z m257 -95 c59 -49 65 -250 9 -306 -17 -17 -154 -33
-163 -19 -7 12 -10 337 -3 344 9 9 143 -7 157 -19z"/>
<path d="M1881 1142 c1 -31 0 -61 -1 -67 -1 -5 -2 -13 -1 -17 1 -5 2 -51 2
-103 0 -52 -1 -98 -2 -102 -1 -5 0 -12 1 -18 1 -5 1 -45 1 -87 l-2 -78 43 0
c86 -1 284 -1 306 -1 19 1 22 6 22 45 l0 44 -134 -2 -134 -1 -4 45 c-2 25 -2
57 0 72 l3 27 122 3 122 3 0 40 0 40 -122 3 -123 3 0 58 0 59 98 0 c168 0 159
-1 164 30 9 62 14 61 -182 61 l-180 0 1 -57z"/>
<path d="M2335 935 l0 -265 46 0 45 0 0 170 c-1 93 0 170 0 170 1 0 20 -33 43
-72 23 -40 46 -80 51 -88 5 -8 30 -52 55 -96 l45 -82 46 -4 c25 -2 48 1 51 6
9 13 7 501 -1 515 -4 6 -25 11 -46 11 l-40 0 -2 -172 -3 -173 -47 84 c-27 46
-48 87 -48 92 0 5 -4 9 -10 9 -5 0 -10 5 -10 11 0 6 -19 42 -41 80 l-41 69
-47 0 -46 0 0 -265z"/>
<path d="M2790 1156 l0 -45 73 -3 72 -3 0 -217 0 -216 38 -4 c21 -2 43 0 50 4
8 5 11 69 12 220 l0 213 73 3 72 3 0 43 0 44 -195 1 -195 2 0 -45z"/>
<path d="M3432 935 l0 -265 52 -1 c189 -2 263 5 295 29 47 35 63 87 52 177 -2
19 -48 65 -65 65 -13 0 -10 9 16 41 53 66 40 151 -29 196 -22 15 -53 18 -175
20 l-147 3 1 -265z m270 158 c23 -21 23 -65 0 -87 -18 -15 -61 -20 -144 -17
-27 1 -28 2 -28 61 l0 60 77 0 c57 0 81 -4 95 -17z m9 -212 c30 -24 34 -72 9
-99 -18 -19 -31 -22 -105 -22 l-85 0 0 71 0 70 81 -2 c57 -1 86 -7 100 -18z"/>
<path d="M3925 938 l0 -263 48 -3 47 -3 1 38 c0 21 0 71 -1 111 l-1 74 41 -6
c23 -3 45 -8 50 -11 5 -3 37 -51 71 -105 l62 -100 59 0 c58 0 59 0 47 23 -37
67 -95 156 -122 185 -29 30 -30 32 -9 32 34 0 90 56 99 98 8 43 7 54 -12 107
-25 68 -55 79 -230 83 l-151 4 1 -264z m277 153 c30 -26 20 -96 -16 -107 -24
-8 -135 -13 -153 -6 -8 3 -12 25 -11 69 l2 64 80 -2 c55 -1 85 -7 98 -18z"/>
<path d="M4552 1183 c-5 -10 -40 -103 -76 -208 -37 -104 -72 -199 -77 -210
-14 -30 -29 -87 -24 -94 2 -4 25 -5 51 -2 47 6 47 6 64 61 l17 55 99 3 99 3
20 -58 20 -58 53 -3 c28 -2 52 1 52 6 0 5 -9 34 -21 63 -33 86 -35 90 -64 169
-15 41 -37 102 -50 135 -12 33 -30 81 -39 108 l-18 47 -48 0 c-37 0 -52 -4
-58 -17z m78 -180 c11 -38 25 -76 31 -85 17 -33 10 -38 -55 -38 l-64 0 31 95
c17 52 32 95 33 95 1 0 12 -30 24 -67z"/>
<path d="M4909 1133 c0 -38 0 -156 -1 -263 l-1 -195 46 -3 46 -3 -2 110 c-1
61 1 111 5 111 4 0 3 12 -1 28 -4 15 -4 41 -1 57 l6 30 14 -25 c24 -44 69
-123 122 -215 16 -27 34 -60 40 -72 9 -19 19 -23 62 -23 l51 0 0 263 0 262
-45 0 -45 0 0 -168 c0 -92 -2 -167 -5 -167 -6 0 -140 234 -140 244 0 4 -5 12
-11 19 -5 7 -19 27 -29 45 -18 29 -25 32 -65 32 l-45 0 -1 -67z"/>
<path d="M5897 1193 c-4 -3 -7 -123 -7 -265 l0 -258 50 0 50 0 0 115 0 115 95
0 c69 0 95 -3 96 -12 0 -7 1 -59 1 -115 l-1 -103 50 0 c47 0 49 1 50 28 0 27
0 395 -1 465 l0 37 -49 0 -48 0 -1 -77 c0 -43 0 -90 -1 -105 l-1 -28 -95 0
-95 0 0 105 0 105 -43 0 c-24 0 -47 -3 -50 -7z"/>
</g>
</svg>
