<svg id="Brainstorming-amico" xmlns="http://www.w3.org/2000/svg" width="119.829" height="115.47" viewBox="0 0 119.829 115.47">
  <g id="freepik--Floor--inject-1" transform="translate(0 49.918)">
    <ellipse id="freepik--floor--inject-1-2" data-name="freepik--floor--inject-1" cx="59.23" cy="32.776" rx="59.23" ry="32.776" transform="translate(0 0)" fill="#f5f5f5"/>
  </g>
  <g id="freepik--Shadow--inject-1" transform="translate(31.332 66.19)">
    <ellipse id="freepik--shadow--inject-1-2" data-name="freepik--shadow--inject-1" cx="11.15" cy="6.436" rx="11.15" ry="6.436" transform="translate(0 10.744)" fill="#e0e0e0"/>
    <path id="freepik--shadow--inject-1-3" data-name="freepik--shadow--inject-1" d="M347.1,322.173l12.162-7.02a1.468,1.468,0,0,1,1.206-.055l12.4,7.159c.341.157.354.438.029.627l-12.379,7.138a1.15,1.15,0,0,1-1.143-.06l-12.311-7.049a.409.409,0,0,1,.037-.739Z" transform="translate(-293.319 -306.669)" fill="#e0e0e0"/>
    <path id="freepik--shadow--inject-1-4" data-name="freepik--shadow--inject-1" d="M302.916,290.413l12.151-7.02a1.473,1.473,0,0,1,1.208-.055L328.7,290.5c.341.157.354.438.029.624l-12.4,7.138a1.138,1.138,0,0,1-1.14-.058l-12.311-7.049a.406.406,0,0,1,.037-.739Z" transform="translate(-260.716 -283.234)" fill="#e0e0e0"/>
    <path id="freepik--shadow--inject-1-5" data-name="freepik--shadow--inject-1" d="M255.405,342.523l-33.55-19.4a.377.377,0,0,1,0-.716l20.1-11.626a1.368,1.368,0,0,1,1.24,0l33.55,19.4a.377.377,0,0,1,0,.716l-20.1,11.626A1.36,1.36,0,0,1,255.405,342.523Z" transform="translate(-200.902 -303.451)" fill="#e0e0e0"/>
  </g>
  <g id="freepik--Plants--inject-1" transform="translate(108.839 67.087)">
    <g id="freepik--plants--inject-1-2" data-name="freepik--plants--inject-1">
      <path id="Path_292" data-name="Path 292" d="M439.88,295.943a13.829,13.829,0,0,1,3.316-6.638c1.793-1.919,4.474-3.193,6.243-2.425,1.649.716,1.287,2.926-.889,4.234s-5.413,2.91-6.521,5.384l-2.149,2.973Z" transform="translate(-439.477 -286.654)" fill="#441ab9"/>
      <path id="Path_293" data-name="Path 293" d="M439.88,295.943a13.829,13.829,0,0,1,3.316-6.638c1.793-1.919,4.474-3.193,6.243-2.425,1.649.716,1.287,2.926-.889,4.234s-5.413,2.91-6.521,5.384l-2.149,2.973Z" transform="translate(-439.477 -286.654)" opacity="0.2"/>
      <path id="Path_294" data-name="Path 294" d="M438.456,301.116a.113.113,0,0,0,.11-.084c1.484-5.274,6.167-9.283,8.841-10.038a.115.115,0,1,0-.063-.22c-2.723.768-7.494,4.842-9,10.195a.115.115,0,0,0,.079.144Z" transform="translate(-438.341 -289.688)" fill="#fff"/>
      <path id="Path_295" data-name="Path 295" d="M440.116,320.387a7.894,7.894,0,0,1,3.358-3.3c2.037-1.177,4.527-1.594,5.171-2.585.786-1.187-.178-2.448-2.178-2.359s-5.7,2.509-6.587,6.535Z" transform="translate(-439.477 -305.461)" fill="#441ab9"/>
      <path id="Path_296" data-name="Path 296" d="M439.276,322.575a.118.118,0,0,0,.1-.066c2.013-4.456,5.646-5.791,7.284-5.872a.115.115,0,0,0,.11-.121.113.113,0,0,0-.121-.107c-1.814.087-5.431,1.452-7.483,6a.118.118,0,0,0,.058.155A.149.149,0,0,0,439.276,322.575Z" transform="translate(-438.946 -308.609)" fill="#fff"/>
    </g>
  </g>
  <g id="freepik--characters-with-desk--inject-1" transform="translate(51.664 31.268)">
    <g id="freepik--Boy--inject-1" transform="translate(18.89 11.352)">
      <path id="Path_297" data-name="Path 297" d="M378.68,264.4v12.242a.341.341,0,0,0,.155.262l.417.241a.338.338,0,0,0,.309,0l.417-.241a.343.343,0,0,0,.157-.262V264.4a.181.181,0,0,0-.181-.178h-1.1A.178.178,0,0,0,378.68,264.4Z" transform="translate(-356.033 -245.634)" fill="#263238"/>
      <path id="Path_298" data-name="Path 298" d="M382,264.22h-.37a.181.181,0,0,0-.178.178V277.06c0,.1.071.139.155.089l.417-.241a.343.343,0,0,0,.157-.262V264.4A.181.181,0,0,0,382,264.22Z" transform="translate(-358.077 -245.634)" fill="#37474f"/>
      <path id="Path_299" data-name="Path 299" d="M351.88,279.808v12.24a.349.349,0,0,0,.155.262l.419.241a.338.338,0,0,0,.309,0l.417-.241a.341.341,0,0,0,.155-.262v-12.24a.178.178,0,0,0-.178-.178h-1.1a.181.181,0,0,0-.181.178Z" transform="translate(-336.258 -257.005)" fill="#263238"/>
      <path id="Path_300" data-name="Path 300" d="M355.208,279.63h-.37a.178.178,0,0,0-.178.178V292.47c0,.1.068.139.155.089l.417-.241a.341.341,0,0,0,.155-.262V279.808A.178.178,0,0,0,355.208,279.63Z" transform="translate(-338.309 -257.005)" fill="#37474f"/>
      <path id="Path_301" data-name="Path 301" d="M349.66,207.131a.663.663,0,0,1-.134.485.653.653,0,0,1-.438.246h-.079a.655.655,0,0,1-.653-.574,39.679,39.679,0,0,1,1.452-13.59.548.548,0,0,1,.87-.262h0c.262.157.469.4.367.695A37.619,37.619,0,0,0,349.66,207.131Z" transform="translate(-333.571 -193.322)" fill="#455a64"/>
      <path id="Path_302" data-name="Path 302" d="M357.762,235.474a.372.372,0,0,0,.131-.021.419.419,0,0,0,.262-.524c-.97-2.944-5.727-5.563-8.8-5.563a.419.419,0,1,0,0,.836c2.778,0,7.158,2.417,8,4.981A.414.414,0,0,0,357.762,235.474Z" transform="translate(-334.061 -219.916)" fill="#37474f"/>
      <path id="Path_303" data-name="Path 303" d="M359.219,221.815a.372.372,0,0,0,.131-.021.417.417,0,0,0,.262-.524c-1.007-3.059-5.908-5.534-8.967-5.217a.418.418,0,0,0,.086.831c2.71-.278,7.205,1.969,8.086,4.648a.414.414,0,0,0,.4.283Z" transform="translate(-335.07 -210.074)" fill="#37474f"/>
      <path id="Path_304" data-name="Path 304" d="M361.7,209.1a.43.43,0,0,0,.168-.037.417.417,0,0,0,.215-.551c-1.442-3.277-6.553-5.972-9.331-5.586a.419.419,0,1,0,.115.828c2.448-.341,7.163,2.165,8.45,5.094A.419.419,0,0,0,361.7,209.1Z" transform="translate(-336.61 -200.382)" fill="#37474f"/>
      <path id="Path_305" data-name="Path 305" d="M382.548,212.936a.655.655,0,0,1,.262.828,32.175,32.175,0,0,0-2.307,12.552v.634l-.05.052a.262.262,0,0,1-.2.081.786.786,0,0,1-.275-.068.813.813,0,0,1-.134-.042.658.658,0,0,1-.658-.658,33.439,33.439,0,0,1,2.417-13.071.655.655,0,0,1,.93-.312Z" transform="translate(-356.409 -207.728)" fill="#455a64"/>
      <path id="Path_306" data-name="Path 306" d="M332.378,250.891v.16a1.049,1.049,0,0,1-.388.758l-6.977,5.044a.8.8,0,0,1-.8.042l-9.84-5.681a.92.92,0,0,1-.414-.718v-.165a.81.81,0,0,1,.435-.676l8.828-4.079a1.033,1.033,0,0,1,.849.039l7.892,4.561A.912.912,0,0,1,332.378,250.891Z" transform="translate(-308.277 -231.823)" fill="#37474f"/>
      <path id="Path_307" data-name="Path 307" d="M332.664,250.175l-7.892-4.561a1.033,1.033,0,0,0-.849-.039l-8.828,4.079c-.241.11-.249.307-.021.438l9.84,5.683a.8.8,0,0,0,.8-.042l6.977-5.038a.286.286,0,0,0-.026-.519Z" transform="translate(-308.976 -231.823)" fill="#441ab9"/>
      <rect id="Rectangle_51" data-name="Rectangle 51" width="1.966" height="3.366" transform="translate(10.988 35.148)" fill="#ffa8a7"/>
      <path id="Path_308" data-name="Path 308" d="M314.173,314.25l-1.963.068-.1-3.56,1.966-.068Z" transform="translate(-306.912 -279.922)" fill="#ffa8a7"/>
      <path id="Path_309" data-name="Path 309" d="M323.455,335.825v-.349a28.628,28.628,0,0,1-1.982,2.829c-.674.613-1.858,1.455-1.835,2.037.037.752,1.109,1.085,2.034.87a5.043,5.043,0,0,0,2.252-1.143,9.821,9.821,0,0,0,.915-1.589c.259-.351.854-.739.993-1.146a2.557,2.557,0,0,0-.121-1.122c-.107-.412-.207-.786-.336-.758v.233a1.683,1.683,0,0,1-1.069.362C324,336.061,323.453,336.064,323.455,335.825Z" transform="translate(-312.467 -298.195)" fill="#263238"/>
      <path id="Path_310" data-name="Path 310" d="M297.554,321.9c-.1,0-.186.147-.412.391a5.294,5.294,0,0,1-1.311.823c-.737.367-2.663.862-3.31,1.153-.4.183-.3.81.262,1.164a4.979,4.979,0,0,0,3,.246c.658-.147,1.664-.606,2.155-.682a6.055,6.055,0,0,0,1.932-.467c.4-.278.241-.868.128-1.376-.126-.553-.3-1.4-.485-1.366v.176a2.111,2.111,0,0,1-1.958.241Z" transform="translate(-292.277 -288.109)" fill="#263238"/>
      <path id="Path_311" data-name="Path 311" d="M322.506,243.208c.43,3.036-.149,3.62-3.035,6.53-1.554,1.573-4.055,3.859-4.055,3.859s.037.97.055,3.146c.018,1.916-.786,8.15-.786,8.15a2.724,2.724,0,0,1-2.2-.021s-.4-4.637-.624-7.054c-.3-3.277-.451-4.918-.283-5.626.118-.5,2.922-5.177,2.922-5.177l1.033-.655-6.43,4.1a21.36,21.36,0,0,1,.181,2.773c-.068,2.6-.388,7.794-.388,7.794s-1.429.64-2.139.089c0,0-1.8-11.361-1.8-12.292,0-1.418,6.152-5.647,7.316-6.632.666-.561,1.408-1.161,1.408-1.161Z" transform="translate(-301.636 -228.524)" fill="#37474f"/>
      <path id="Path_312" data-name="Path 312" d="M327.183,255.044a4.723,4.723,0,0,1-1.777-2.244,4.485,4.485,0,0,0,.577,1.822c.375.585-5.242,4.512-5.242,4.512Z" transform="translate(-313.28 -237.208)" fill="#263238"/>
    </g>
    <g id="freepik--Girl--inject-1" transform="translate(36.908 19.968)">
      <path id="Path_313" data-name="Path 313" d="M435.32,297.228v12.24a.348.348,0,0,0,.155.262l.417.241a.362.362,0,0,0,.312,0l.417-.241a.341.341,0,0,0,.155-.262v-12.24a.178.178,0,0,0-.178-.178h-1.1A.178.178,0,0,0,435.32,297.228Z" transform="translate(-415.846 -278.474)" fill="#263238"/>
      <path id="Path_314" data-name="Path 314" d="M438.648,297.05h-.37a.176.176,0,0,0-.178.178v12.654c0,.1.068.139.155.092l.417-.241a.341.341,0,0,0,.155-.262V297.228A.178.178,0,0,0,438.648,297.05Z" transform="translate(-417.897 -278.474)" fill="#37474f"/>
      <path id="Path_315" data-name="Path 315" d="M408.53,312.638v12.24a.341.341,0,0,0,.155.262l.417.239a.338.338,0,0,0,.309,0l.419-.239a.349.349,0,0,0,.155-.262v-12.24a.178.178,0,0,0-.181-.178h-1.1a.176.176,0,0,0-.178.178Z" transform="translate(-396.078 -289.844)" fill="#263238"/>
      <path id="Path_316" data-name="Path 316" d="M411.855,312.46h-.364a.178.178,0,0,0-.181.178V325.3c0,.1.071.139.155.089l.419-.239a.349.349,0,0,0,.155-.262V312.638a.178.178,0,0,0-.184-.178Z" transform="translate(-398.129 -289.844)" fill="#37474f"/>
      <path id="Path_317" data-name="Path 317" d="M406.3,240a.658.658,0,0,1-.571.734h-.081a.658.658,0,0,1-.653-.577,39.669,39.669,0,0,1,1.455-13.587.544.544,0,0,1,.868-.262h0c.262.157.469.4.367.692A37.569,37.569,0,0,0,406.3,240Z" transform="translate(-393.384 -226.189)" fill="#455a64"/>
      <path id="Path_318" data-name="Path 318" d="M414.513,268.315a.473.473,0,0,0,.131-.021.42.42,0,0,0,.262-.524c-.967-2.941-5.727-5.56-8.8-5.56a.417.417,0,0,0,0,.834c2.778,0,7.161,2.42,8,4.981A.422.422,0,0,0,414.513,268.315Z" transform="translate(-393.982 -252.767)" fill="#37474f"/>
      <path id="Path_319" data-name="Path 319" d="M415.869,254.639a.472.472,0,0,0,.131-.021.417.417,0,0,0,.262-.524c-1-3.059-5.908-5.534-8.967-5.219a.418.418,0,0,0,.086.831c2.71-.275,7.205,1.969,8.089,4.648A.414.414,0,0,0,415.869,254.639Z" transform="translate(-394.891 -242.907)" fill="#37474f"/>
      <path id="Path_320" data-name="Path 320" d="M418.4,241.927a.427.427,0,0,0,.168-.034.417.417,0,0,0,.212-.551c-1.439-3.279-6.553-5.972-9.331-5.586a.417.417,0,0,0,.115.826c2.448-.338,7.163,2.165,8.45,5.1a.419.419,0,0,0,.385.249Z" transform="translate(-396.49 -233.221)" fill="#37474f"/>
      <path id="Path_321" data-name="Path 321" d="M439.215,245.754a.658.658,0,0,1,.262.831,32.167,32.167,0,0,0-2.3,12.552v.632l-.05.052a.262.262,0,0,1-.2.081.786.786,0,0,1-.275-.066.585.585,0,0,0-.134-.042.655.655,0,0,1-.655-.658,33.439,33.439,0,0,1,2.414-13.071.655.655,0,0,1,.93-.312Z" transform="translate(-416.244 -240.56)" fill="#455a64"/>
      <path id="Path_322" data-name="Path 322" d="M389.063,283.718v.16a1.048,1.048,0,0,1-.388.758l-6.975,5.044a.786.786,0,0,1-.786.039l-9.84-5.681a.912.912,0,0,1-.414-.716v-.165a.81.81,0,0,1,.432-.676l8.831-4.079a1.027,1.027,0,0,1,.847.037L388.662,283a.92.92,0,0,1,.4.718Z" transform="translate(-368.134 -264.66)" fill="#37474f"/>
      <path id="Path_323" data-name="Path 323" d="M389.31,283l-7.892-4.561a1.027,1.027,0,0,0-.847-.037l-8.83,4.079c-.239.11-.246.307-.018.438l9.84,5.681a.786.786,0,0,0,.786-.039l6.975-5.041a.286.286,0,0,0-.013-.519Z" transform="translate(-368.795 -264.66)" fill="#441ab9"/>
      <path id="Path_324" data-name="Path 324" d="M385.062,333.44c.178.121.38.262.4.459a1.974,1.974,0,0,1-.288,1.19,3.82,3.82,0,0,0-.359,1.974c.042.577.291,2.016-.3,2.729s-2.259,1.353-2.477.309,1-5.482,1-5.482Z" transform="translate(-376.509 -305.325)" fill="#263238"/>
      <path id="Path_325" data-name="Path 325" d="M385.894,336.76a15.809,15.809,0,0,0-.225,2.386,2.386,2.386,0,0,1-.506,1.835c-.38.32-1.025.406-.9-.212s.43-3.694.43-3.694Z" transform="translate(-378.157 -307.774)" fill="#9a4a4d"/>
      <path id="Path_326" data-name="Path 326" d="M373.517,275.34s-2.684,2.611-4.157,3.843-2.849,2.425-3.027,3.206c-.189.826.262,1.861,1.329,3.749l2.238,3.932,2.134-6.91,4.346-4.027Z" transform="translate(-364.909 -262.455)" fill="#37474f"/>
      <path id="Path_327" data-name="Path 327" d="M366.843,358.93c.157.063.212.414.249.668s.294.551,0,1.017-.9.632-1.29,1.269-.59,1.507-1.953,1.866a2.75,2.75,0,0,1-2.713-.443c-.278-.4-.066-.8.786-1.345.91-.579,1.166-.75,1.166-.75Z" transform="translate(-361.021 -324.133)" fill="#263238"/>
      <path id="Path_328" data-name="Path 328" d="M368.887,348.4s-.577,1.874-.941,2.737a7.031,7.031,0,0,1-1.274,2.2c-.147.17-.48.485-.6.624a.262.262,0,0,0,.029.409,2.333,2.333,0,0,0,2.286-.184,10.9,10.9,0,0,0,1.468-1.709c.212-.218.414-.422.558-.574a.577.577,0,0,0,.144-.551c-.016-.055-.031-.121-.05-.2a8.293,8.293,0,0,1,.44-2.1Z" transform="translate(-364.685 -316.363)" fill="#b16668"/>
      <path id="Path_329" data-name="Path 329" d="M390.732,275.318a6.3,6.3,0,0,1-.047,4.624c-.461,1.408-2.307,2.957-3.9,3.9s-4.052,2.1-4.529,2.312-.524.5-.459,1.418a8.5,8.5,0,0,1-1.256,4.289c-1.069,1.979-1.672,3.269-1.672,3.269a2.125,2.125,0,0,1-2.147-.524s1.706-9.057,2.1-10.253,4.891-5.073,4.891-5.073-2.149-2.6-2.508-3.974Z" transform="translate(-372.605 -262.433)" fill="#37474f"/>
      <path id="Path_330" data-name="Path 330" d="M380.329,292.084a6.01,6.01,0,0,1,1.979-2.968c.695-.661,2.474-2.26,3.093-2.815a7.6,7.6,0,0,1-.446-1.311s.354.634.663,1.114h0l.194.286.031.042h0v.013c-.262.225-4.49,3.9-4.88,5.059-.225.663-.849,3.749-1.363,6.365C379.631,297.479,380.1,293.234,380.329,292.084Z" transform="translate(-374.73 -269.576)" opacity="0.2"/>
    </g>
    <g id="freepik--Table--inject-1" transform="translate(0 22.631)">
      <path id="Path_331" data-name="Path 331" d="M349.28,359.438v17.391a.433.433,0,0,0,.2.341l.524.307a.438.438,0,0,0,.4,0l.524-.3a.443.443,0,0,0,.2-.343V359.438a.228.228,0,0,0-.228-.228H349.5A.228.228,0,0,0,349.28,359.438Z" transform="translate(-315.449 -327.002)" fill="#263238"/>
      <path id="Path_332" data-name="Path 332" d="M353.5,359.21h-.469a.225.225,0,0,0-.225.228v17.926c0,.126.086.176.2.113l.524-.3a.443.443,0,0,0,.2-.343V359.438A.228.228,0,0,0,353.5,359.21Z" transform="translate(-318.054 -327.002)" fill="#37474f"/>
      <path id="Path_333" data-name="Path 333" d="M418.19,319.678v17.391a.433.433,0,0,0,.2.341l.524.307a.432.432,0,0,0,.393,0l.524-.3a.443.443,0,0,0,.2-.343V319.678a.228.228,0,0,0-.228-.228H418.4a.228.228,0,0,0-.215.228Z" transform="translate(-366.297 -297.665)" fill="#263238"/>
      <path id="Path_334" data-name="Path 334" d="M422.414,319.45h-.469a.225.225,0,0,0-.225.228V337.6c0,.126.086.176.2.113l.524-.3a.443.443,0,0,0,.2-.343V319.678a.228.228,0,0,0-.223-.228Z" transform="translate(-368.902 -297.665)" fill="#37474f"/>
      <path id="Path_335" data-name="Path 335" d="M228.73,290.745v17.063a.438.438,0,0,0,.2.341l.524.307a.438.438,0,0,0,.4,0l.524-.307a.438.438,0,0,0,.2-.341V290.745a.225.225,0,0,0-.228-.225h-1.381a.225.225,0,0,0-.228.225Z" transform="translate(-226.497 -276.319)" fill="#263238"/>
      <path id="Path_336" data-name="Path 336" d="M232.947,290.52h-.469a.225.225,0,0,0-.228.225v17.6c0,.126.089.178.2.115l.524-.307a.438.438,0,0,0,.2-.341V290.745A.225.225,0,0,0,232.947,290.52Z" transform="translate(-229.094 -276.319)" fill="#37474f"/>
      <path id="Path_337" data-name="Path 337" d="M254.381,269.958l-33.55-19.4a1.374,1.374,0,0,1-.621-1.075v-.249a1.363,1.363,0,0,1,.621-1.072l20.1-11.629a1.381,1.381,0,0,1,1.242,0l33.55,19.4a1.368,1.368,0,0,1,.621,1.075v.249a1.374,1.374,0,0,1-.621,1.075l-20.1,11.626a1.376,1.376,0,0,1-1.24,0Z" transform="translate(-220.21 -236.377)" fill="#441ab9"/>
      <path id="Path_338" data-name="Path 338" d="M374.325,312.254v.249a1.363,1.363,0,0,1-.621,1.072l-20.1,11.629a1.259,1.259,0,0,1-.608.144v-1.68a1.258,1.258,0,0,0,.621-.149L373.707,311.9c.3-.173.338-.438.113-.637A1.387,1.387,0,0,1,374.325,312.254Z" transform="translate(-318.194 -291.622)" opacity="0.35"/>
      <path id="Path_339" data-name="Path 339" d="M255.007,303.456a1.272,1.272,0,0,1-.619-.149l-33.55-19.4a1.361,1.361,0,0,1-.619-1.075v-.246a1.4,1.4,0,0,1,.5-1c-.22.2-.186.467.115.637l33.55,19.4a1.355,1.355,0,0,0,.619.147Z" transform="translate(-220.217 -269.73)" opacity="0.45"/>
      <path id="Path_340" data-name="Path 340" d="M255.405,268.238l-33.55-19.4c-.343-.2-.343-.524,0-.716l20.1-11.629a1.376,1.376,0,0,1,1.24,0l33.55,19.4a.377.377,0,0,1,0,.716l-20.1,11.629a1.376,1.376,0,0,1-1.24,0Z" transform="translate(-221.234 -236.347)" fill="#441ab9"/>
      <path id="Path_341" data-name="Path 341" d="M255.405,268.238l-33.55-19.4c-.343-.2-.343-.524,0-.716l20.1-11.629a1.376,1.376,0,0,1,1.24,0l33.55,19.4a.377.377,0,0,1,0,.716l-20.1,11.629a1.376,1.376,0,0,1-1.24,0Z" transform="translate(-221.234 -236.347)" opacity="0.2"/>
    </g>
    <g id="freepik--Character--inject-1" transform="translate(18.988)">
      <path id="Path_342" data-name="Path 342" d="M306.718,192.73s-1.122-.346-2.058,1.127c-.412.65-1.486,2.475-2.194,3.67-.385.655-.658,1.127-.658,1.127s-4.32-2.291-4.561-2.59a2.555,2.555,0,0,1-.262-1.235,3.565,3.565,0,0,1,.168-1.214c.06-.419-.543-.322-.734-.155a1.775,1.775,0,0,0-.309.448c-.1.157-.262.666-.451.7s-.419-.173-.524-.262a7,7,0,0,1-1.13-1.311.638.638,0,0,0-.262-.225.626.626,0,0,0-.524.139,1.222,1.222,0,0,0-.385.346,1.091,1.091,0,0,0-.134.346,2.529,2.529,0,0,0,.731,2.15,7.568,7.568,0,0,0,1.767,1.573c.393.262.912.485,1.358.726s5.3,4.3,5.979,3.843a11.942,11.942,0,0,0,2.173-2.189,34.992,34.992,0,0,0,2.134-3.379A4.487,4.487,0,0,0,306.718,192.73Z" transform="translate(-292.654 -181.508)" fill="#ffa8a7"/>
      <path id="Path_343" data-name="Path 343" d="M336.6,191.721a6.077,6.077,0,0,0-2.037-.451,2.221,2.221,0,0,0-1.984,1.227c-.786,1.261-2.1,3.442-2.1,3.442a6.291,6.291,0,0,0,2.527,2.7l2.393-3.615Z" transform="translate(-320.565 -180.454)" fill="#441ab9"/>
      <g id="Group_47" data-name="Group 47" transform="translate(9.915 10.813)" opacity="0.1">
        <path id="Path_344" data-name="Path 344" d="M336.6,191.721a6.077,6.077,0,0,0-2.037-.451,2.221,2.221,0,0,0-1.984,1.227c-.786,1.261-2.1,3.442-2.1,3.442a6.291,6.291,0,0,0,2.527,2.7l2.393-3.615Z" transform="translate(-330.48 -191.267)"/>
      </g>
      <path id="Path_345" data-name="Path 345" d="M343.464,191.815c.231.055,2.147.506,2.991.786v6.472l-.039,8.279c-1.392,1.515-8.388.826-9.255-2.4v-9.7a3.329,3.329,0,0,1,3.234-3.544Z" transform="translate(-325.495 -180.781)" fill="#441ab9"/>
      <path id="Path_346" data-name="Path 346" d="M370.347,216.823l-.807-2.873.789,5.644Z" transform="translate(-349.387 -197.191)" opacity="0.1"/>
      <path id="Path_347" data-name="Path 347" d="M362.948,161.868a1.048,1.048,0,0,1,.875.307c.377.385.3,1.1,0,2.734l-1.164.134Z" transform="translate(-344.311 -158.756)" fill="#263238"/>
      <path id="Path_348" data-name="Path 348" d="M334.833,159.509a1.835,1.835,0,0,1-.729-.147c-.356-.207-.451.2-.262.553a1.664,1.664,0,0,0,1.35.9c0-.05.333-.907.333-.907Z" transform="translate(-322.976 -156.871)" fill="#263238"/>
      <path id="Path_349" data-name="Path 349" d="M344.368,161.294c.173.1.419-.228.632-.451a.751.751,0,0,1,1.255.2,1.578,1.578,0,0,1-.854,1.9c-.944.3-1.085-.309-1.085-.309l-.071,3.408a3.04,3.04,0,0,1-2.291,1.738c-1.672.225-1.329-1.153-.786-1.835V164.9a6.045,6.045,0,0,1-1.271.066,1.733,1.733,0,0,1-1.342-1.408,10.144,10.144,0,0,1-.178-4.551c.315-2.6,3.337-2.621,4.98-1.6S344.368,161.294,344.368,161.294Z" transform="translate(-326.276 -155.007)" fill="#ffa8a7"/>
      <path id="Path_350" data-name="Path 350" d="M342.539,156.6c.086,0,.417-.545.632-.742.3-.262-.087-2.724-.087-2.724a1.677,1.677,0,0,0-.288-1.549c-.59-.616-1.727-.524-2.563-.543a7.466,7.466,0,0,1-2.98-.6c-1.185-.524-1.274-.574-1.421-.055a2.907,2.907,0,0,0,.5,2.511l.59.215a2.834,2.834,0,0,0,1.421.417,16.25,16.25,0,0,0,3.061-.058c.322-.045.391.262.564,1.117C342.12,155.33,342.245,156.591,342.539,156.6Z" transform="translate(-324.447 -150.019)" fill="#263238"/>
      <path id="Path_351" data-name="Path 351" d="M363.57,160.117l1.048-.558a.577.577,0,0,0-.786-.262A.621.621,0,0,0,363.57,160.117Z" transform="translate(-344.935 -156.816)" fill="#263238"/>
      <path id="Path_352" data-name="Path 352" d="M349.51,184.042a12.022,12.022,0,0,0,2.1-.6,1.806,1.806,0,0,0,.75-.742,2.462,2.462,0,0,1-.425.876c-.4.506-2.414.878-2.414.878Z" transform="translate(-334.607 -174.133)" fill="#f28f8f"/>
      <path id="Path_353" data-name="Path 353" d="M348.62,171.562a.309.309,0,1,0,.309-.322A.317.317,0,0,0,348.62,171.562Z" transform="translate(-333.951 -165.677)" fill="#263238"/>
      <path id="Path_354" data-name="Path 354" d="M349.87,167.428l.663.367a.4.4,0,0,0-.155-.524.37.37,0,0,0-.508.157Z" transform="translate(-334.873 -162.714)" fill="#263238"/>
      <path id="Path_355" data-name="Path 355" d="M346.458,180.65l-.708.262a.372.372,0,0,0,.482.236A.4.4,0,0,0,346.458,180.65Z" transform="translate(-331.833 -172.62)" fill="#f28f8f"/>
      <path id="Path_356" data-name="Path 356" d="M338.9,167.245l.605-.467a.367.367,0,0,0-.524-.081A.4.4,0,0,0,338.9,167.245Z" transform="translate(-326.727 -162.269)" fill="#263238"/>
      <path id="Path_357" data-name="Path 357" d="M339.38,170.842a.31.31,0,1,0,.619,0,.312.312,0,0,0-.309-.32A.317.317,0,0,0,339.38,170.842Z" transform="translate(-327.132 -165.146)" fill="#263238"/>
      <path id="Path_358" data-name="Path 358" d="M342.167,171.01l-.1,1.866-.975-.333Z" transform="translate(-328.394 -165.507)" fill="#f28f8f"/>
      <path id="Path_359" data-name="Path 359" d="M369.352,213.942a59.191,59.191,0,0,0-1.6-7.762l-2.406,2.522,1.431,5.314a19.226,19.226,0,0,1-.786,3.835.993.993,0,0,1-.464.524,5.534,5.534,0,0,0-1.258,1.049c-.346.317-.626.383-.592.493a.524.524,0,0,0,.666.286,3.8,3.8,0,0,0,.8-.367,4.98,4.98,0,0,1-.888,1.311c-.831.889-.9,1.465.647,1.573.97.076,1.785-.472,2.66-2.564a22.387,22.387,0,0,0,.81-2.273A36.9,36.9,0,0,0,369.352,213.942Z" transform="translate(-345.056 -191.458)" fill="#ffa8a7"/>
      <path id="Path_360" data-name="Path 360" d="M367.11,198.022a3.694,3.694,0,0,1,.385-3.812c1.782.3,2.233,1.146,2.723,2.8.752,2.556,1.135,4.213,1.135,4.213a4.514,4.514,0,0,1-3.305,1.083Z" transform="translate(-347.343 -182.625)" fill="#441ab9"/>
      <path id="Path_361" data-name="Path 361" d="M367.11,198.022a3.694,3.694,0,0,1,.385-3.812c1.782.3,2.233,1.146,2.723,2.8.752,2.556,1.135,4.213,1.135,4.213a4.514,4.514,0,0,1-3.305,1.083Z" transform="translate(-347.343 -182.625)" opacity="0.1"/>
    </g>
    <path id="Path_362" data-name="Path 362" d="M338.365,282.82l4.886,2.574.1.157v.128a.183.183,0,0,1-.1.157l-6.44,3.717a.357.357,0,0,1-.336,0L331.7,286.8v-.126Z" transform="translate(-302.477 -248.007)" fill="#263238"/>
    <path id="Path_363" data-name="Path 363" d="M336.643,289.124a.346.346,0,0,0,.168-.042l6.44-3.72a.173.173,0,0,0,0-.315l-4.658-2.7-6.893,3.974,4.776,2.75A.346.346,0,0,0,336.643,289.124Z" transform="translate(-302.477 -247.66)" fill="#455a64"/>
    <path id="Path_364" data-name="Path 364" d="M339.184,280.93,343.8,283.6l.05.066v.5h0a.079.079,0,0,1-.05.066l-6.451,3.72a.262.262,0,0,1-.231,0l-4.618-2.666v-.5Z" transform="translate(-303.068 -246.612)" fill="#ebebeb"/>
    <path id="Path_365" data-name="Path 365" d="M332.5,284.8l.058.031.752.435.139.081,3.67,2.118a.262.262,0,0,0,.231,0l6.44-3.72a.068.068,0,0,0,0-.131l-.063-.037-4.555-2.621-6.613,3.817h-.013Z" transform="translate(-303.068 -246.634)" fill="#f0f0f0"/>
    <path id="Path_366" data-name="Path 366" d="M350.56,295.162v.5a.233.233,0,0,0,.115-.026l6.44-3.72a.081.081,0,0,0,.045-.066v-.5a.081.081,0,0,1-.045.066l-6.44,3.72A.233.233,0,0,1,350.56,295.162Z" transform="translate(-316.394 -254.301)" fill="#e0e0e0"/>
    <path id="Path_367" data-name="Path 367" d="M332.5,284.521l.833.48.128.076,3.656,2.1a.262.262,0,0,0,.231,0l5.766-3.329c.052-.029.1-.055.144-.084a1.371,1.371,0,0,0,.467-.406v-.016a.13.13,0,0,0,.016-.034.1.1,0,0,0-.081-.118,2.119,2.119,0,0,1-.435-.181h0l-4.042-2.336Z" transform="translate(-303.068 -246.42)" fill="#fafafa"/>
    <path id="Path_368" data-name="Path 368" d="M335.058,295.068c.058.034.058.089,0,.126a.238.238,0,0,1-.215,0c-.06-.037-.06-.092,0-.126a.238.238,0,0,1,.215,0Z" transform="translate(-304.763 -257.025)" opacity="0.1"/>
    <path id="Path_369" data-name="Path 369" d="M332.594,293.881a.718.718,0,0,0,0,.108l.073-.042a.522.522,0,0,1,0-.066.294.294,0,0,1,.107-.262.157.157,0,0,1,.079-.018.275.275,0,0,1,.131.039.786.786,0,0,1,.322.461.191.191,0,0,0,.079,0,.883.883,0,0,0-.362-.524.283.283,0,0,0-.288-.021A.367.367,0,0,0,332.594,293.881Z" transform="translate(-303.136 -255.906)" fill="#263238"/>
    <path id="Path_370" data-name="Path 370" d="M332.65,295.45v.018h.013Z" transform="translate(-303.178 -257.326)" fill="#263238"/>
    <path id="Path_371" data-name="Path 371" d="M337.523,293.648a.066.066,0,0,1,0,.123.239.239,0,0,1-.215,0,.066.066,0,0,1,0-.123A.239.239,0,0,1,337.523,293.648Z" transform="translate(-306.584 -255.977)" opacity="0.1"/>
    <path id="Path_372" data-name="Path 372" d="M335.054,292.468a.743.743,0,0,0,0,.107l.076-.042a.586.586,0,0,1,0-.065.288.288,0,0,1,.11-.262.144.144,0,0,1,.076-.021.283.283,0,0,1,.131.042.786.786,0,0,1,.322.461.192.192,0,0,0,.079,0,.9.9,0,0,0-.362-.524.288.288,0,0,0-.288-.018.367.367,0,0,0-.144.322Z" transform="translate(-304.951 -254.865)" fill="#263238"/>
    <path id="Path_373" data-name="Path 373" d="M339.983,292.228c.06.034.06.089,0,.123a.238.238,0,0,1-.215,0,.066.066,0,0,1,0-.123A.238.238,0,0,1,339.983,292.228Z" transform="translate(-308.399 -254.929)" opacity="0.1"/>
    <path id="Path_374" data-name="Path 374" d="M337.515,291a.77.77,0,0,0,0,.107l.076-.045a.515.515,0,0,1,0-.063.3.3,0,0,1,.11-.262.157.157,0,0,1,.076-.021.241.241,0,0,1,.131.042.786.786,0,0,1,.325.461.263.263,0,0,0,.079,0,.91.91,0,0,0-.362-.524.28.28,0,0,0-.288-.018A.364.364,0,0,0,337.515,291Z" transform="translate(-306.767 -253.784)" fill="#263238"/>
    <path id="Path_375" data-name="Path 375" d="M342.445,290.808c.06.034.06.089,0,.123a.233.233,0,0,1-.212,0c-.06-.034-.06-.089,0-.123A.233.233,0,0,1,342.445,290.808Z" transform="translate(-310.216 -253.882)" opacity="0.1"/>
    <path id="Path_376" data-name="Path 376" d="M339.995,289.624a.77.77,0,0,0,0,.107l.076-.045a.5.5,0,0,1,0-.063.294.294,0,0,1,.107-.262.157.157,0,0,1,.076-.021.278.278,0,0,1,.134.039.821.821,0,0,1,.322.464.261.261,0,0,0,.079,0,.91.91,0,0,0-.362-.524.281.281,0,0,0-.288-.018A.364.364,0,0,0,339.995,289.624Z" transform="translate(-308.596 -252.766)" fill="#263238"/>
    <path id="Path_377" data-name="Path 377" d="M344.908,289.382a.066.066,0,0,1,0,.123.238.238,0,0,1-.215,0c-.06-.034-.06-.089,0-.123A.223.223,0,0,1,344.908,289.382Z" transform="translate(-312.031 -252.828)" opacity="0.1"/>
    <path id="Path_378" data-name="Path 378" d="M342.432,288.194a.523.523,0,0,0,0,.107l.073-.045a.5.5,0,0,1,0-.063.294.294,0,0,1,.107-.262.159.159,0,0,1,.079-.021.275.275,0,0,1,.131.039.81.81,0,0,1,.322.461.2.2,0,0,0,.079,0,.889.889,0,0,0-.362-.524.283.283,0,0,0-.288-.021.372.372,0,0,0-.142.328Z" transform="translate(-310.395 -251.708)" fill="#263238"/>
    <path id="Path_379" data-name="Path 379" d="M347.362,287.928a.068.068,0,0,1,0,.126.238.238,0,0,1-.215,0,.066.066,0,0,1,0-.126A.238.238,0,0,1,347.362,287.928Z" transform="translate(-313.841 -251.757)" opacity="0.1"/>
    <path id="Path_380" data-name="Path 380" d="M344.9,286.781a.707.707,0,0,0,0,.1l.073-.042a.5.5,0,0,1,0-.063.3.3,0,0,1,.107-.262.157.157,0,0,1,.079-.018.276.276,0,0,1,.131.039.787.787,0,0,1,.322.461.192.192,0,0,0,.079,0,.889.889,0,0,0-.362-.524.283.283,0,0,0-.288-.021A.367.367,0,0,0,344.9,286.781Z" transform="translate(-312.219 -250.667)" fill="#263238"/>
    <path id="Path_381" data-name="Path 381" d="M349.837,286.538a.068.068,0,0,1,0,.126.239.239,0,0,1-.215,0,.068.068,0,0,1,0-.126A.238.238,0,0,1,349.837,286.538Z" transform="translate(-315.671 -250.731)" opacity="0.1"/>
    <path id="Path_382" data-name="Path 382" d="M347.365,285.361a.707.707,0,0,0,0,.1l.076-.042a.515.515,0,0,1,0-.063.291.291,0,0,1,.11-.262.15.15,0,0,1,.076-.018.263.263,0,0,1,.131.039.816.816,0,0,1,.325.461.2.2,0,0,0,.079,0,.9.9,0,0,0-.364-.524.278.278,0,0,0-.286-.021A.37.37,0,0,0,347.365,285.361Z" transform="translate(-314.035 -249.619)" fill="#263238"/>
    <path id="Path_383" data-name="Path 383" d="M352.275,285.118c.06.034.06.089,0,.123a.218.218,0,0,1-.212,0c-.06-.034-.06-.089,0-.123A.233.233,0,0,1,352.275,285.118Z" transform="translate(-317.469 -249.683)" opacity="0.1"/>
    <path id="Path_384" data-name="Path 384" d="M349.824,283.931a.726.726,0,0,0,0,.107L349.9,284a.539.539,0,0,1,0-.066.294.294,0,0,1,.107-.262.157.157,0,0,1,.076-.021.283.283,0,0,1,.134.042.823.823,0,0,1,.322.461.2.2,0,0,0,.079,0,.894.894,0,0,0-.362-.524.283.283,0,0,0-.288-.021A.367.367,0,0,0,349.824,283.931Z" transform="translate(-315.85 -248.565)" fill="#263238"/>
    <path id="Path_385" data-name="Path 385" d="M354.755,283.7c.06.034.06.089,0,.123a.233.233,0,0,1-.212,0c-.06-.034-.06-.089,0-.123A.233.233,0,0,1,354.755,283.7Z" transform="translate(-319.299 -248.636)" opacity="0.1"/>
    <path id="Path_386" data-name="Path 386" d="M352.284,282.518a.743.743,0,0,0,0,.107l.076-.045a.515.515,0,0,1,0-.063.294.294,0,0,1,.107-.262.16.16,0,0,1,.079-.021.283.283,0,0,1,.131.042.786.786,0,0,1,.322.461.263.263,0,0,0,.079,0,.909.909,0,0,0-.362-.524.288.288,0,0,0-.288-.018A.364.364,0,0,0,352.284,282.518Z" transform="translate(-317.665 -247.523)" fill="#263238"/>
    <path id="Path_387" data-name="Path 387" d="M357.268,282.278a.066.066,0,0,1,0,.123.238.238,0,0,1-.215,0c-.06-.034-.06-.089,0-.123A.238.238,0,0,1,357.268,282.278Z" transform="translate(-321.151 -247.588)" opacity="0.1"/>
    <path id="Path_388" data-name="Path 388" d="M354.755,281.094a.78.78,0,0,0,0,.107l.073-.045a.5.5,0,0,1,0-.063.294.294,0,0,1,.107-.262.16.16,0,0,1,.079-.021.276.276,0,0,1,.131.039.787.787,0,0,1,.322.464.261.261,0,0,0,.079,0,.9.9,0,0,0-.362-.524.28.28,0,0,0-.288-.018A.362.362,0,0,0,354.755,281.094Z" transform="translate(-319.488 -246.472)" fill="#263238"/>
    <path id="Path_389" data-name="Path 389" d="M342.788,296.833a.06.06,0,0,1-.037,0l-3.552-2.053a.073.073,0,0,1-.029-.1.076.076,0,0,1,.1-.026l3.554,2.053a.076.076,0,0,1-.039.139Z" transform="translate(-307.983 -256.73)" fill="#ebebeb"/>
    <path id="Path_390" data-name="Path 390" d="M344.473,295.865a.071.071,0,0,1-.037,0l-3.544-2.06a.075.075,0,0,1,.073-.131l3.554,2.053a.075.075,0,0,1-.047.139Z" transform="translate(-309.233 -256.008)" fill="#ebebeb"/>
    <path id="Path_391" data-name="Path 391" d="M346.119,294.958a.073.073,0,0,1-.039,0l-3.552-2.05a.076.076,0,0,1,.073-.131l3.554,2.053a.076.076,0,0,1,.026.1A.073.073,0,0,1,346.119,294.958Z" transform="translate(-310.446 -255.35)" fill="#ebebeb"/>
    <path id="Path_392" data-name="Path 392" d="M347.788,293.992h-.039l-3.552-2.053a.075.075,0,0,1,.076-.128l3.552,2.05a.073.073,0,0,1-.037.139Z" transform="translate(-311.672 -254.633)" fill="#ebebeb"/>
    <path id="Path_393" data-name="Path 393" d="M349.378,293.052a.088.088,0,0,1-.037,0L345.787,291a.075.075,0,0,1,.076-.128l3.552,2.053a.071.071,0,0,1,.026.1A.068.068,0,0,1,349.378,293.052Z" transform="translate(-312.845 -253.939)" fill="#ebebeb"/>
    <path id="Path_394" data-name="Path 394" d="M351.02,292.1a.06.06,0,0,1-.037,0l-3.554-2.053a.075.075,0,0,1,.076-.128l3.552,2.053a.073.073,0,0,1,.029.1A.079.079,0,0,1,351.02,292.1Z" transform="translate(-314.057 -253.239)" fill="#ebebeb"/>
    <path id="Path_395" data-name="Path 395" d="M352.669,291.16a.06.06,0,0,1-.037,0l-3.554-2.05a.076.076,0,0,1,.076-.131l3.549,2.042a.073.073,0,0,1-.037.139Z" transform="translate(-315.277 -252.546)" fill="#ebebeb"/>
    <path id="Path_396" data-name="Path 396" d="M354.3,290.211a.066.066,0,0,1-.037,0l-3.552-2.05a.074.074,0,0,1,.073-.128l3.554,2.05a.068.068,0,0,1-.039.128Z" transform="translate(-316.481 -251.846)" fill="#ebebeb"/>
    <path id="Path_397" data-name="Path 397" d="M355.946,289.264a.111.111,0,0,1-.039,0l-3.552-2.053a.074.074,0,1,1,.073-.128l3.554,2.05a.076.076,0,0,1-.037.142Z" transform="translate(-317.691 -251.145)" fill="#ebebeb"/>
    <path id="Path_398" data-name="Path 398" d="M357.587,288.314a.074.074,0,0,1-.039,0L354,286.261a.074.074,0,0,1,.073-.128l3.554,2.055a.066.066,0,0,1-.037.126Z" transform="translate(-318.902 -250.444)" fill="#ebebeb"/>
    <path id="Path_399" data-name="Path 399" d="M359.229,287.362a.06.06,0,0,1-.037,0l-3.554-2.05a.076.076,0,0,1-.026-.1.073.073,0,0,1,.1-.029l3.552,2.042a.073.073,0,0,1,.026.1A.071.071,0,0,1,359.229,287.362Z" transform="translate(-320.115 -249.741)" fill="#ebebeb"/>
    <path id="Path_400" data-name="Path 400" d="M360.879,286.42a.06.06,0,0,1-.037,0l-3.554-2.05a.076.076,0,0,1,.076-.131l3.552,2.053a.073.073,0,0,1,.029.1A.079.079,0,0,1,360.879,286.42Z" transform="translate(-321.335 -249.048)" fill="#ebebeb"/>
    <path id="Path_401" data-name="Path 401" d="M362.494,285.438a.085.085,0,0,1-.037,0l-3.559-2.06a.076.076,0,0,1-.026-.1.073.073,0,0,1,.1-.026l3.552,2.05a.073.073,0,0,1-.037.139Z" transform="translate(-322.52 -248.315)" fill="#ebebeb"/>
    <path id="Path_402" data-name="Path 402" d="M340.536,297.469a.109.109,0,0,1-.039,0L336.74,295.3a.076.076,0,1,1,.073-.131l3.759,2.173a.076.076,0,0,1-.037.142Z" transform="translate(-306.16 -257.103)" fill="#441ab9"/>
    <g id="Group_48" data-name="Group 48" transform="translate(31.731 35.878)" opacity="0.25">
      <path id="Path_403" data-name="Path 403" d="M344.129,292.816a.524.524,0,0,0,.181-.186.175.175,0,0,1,.079-.018c.1.013.018.055,0,.094a.018.018,0,0,0,.021.021c.073,0,.246-.055.2.063v.021s.121.021.11.047,0,.021.016.021a2.2,2.2,0,0,1,.228,0,1.043,1.043,0,0,1,.1.013c.024.029-.013.086-.024.1s0,.021,0,.026.068.042.042.084,0,.024,0,.026c.1.026.262-.055.3.063.018.073,0,.089.1.081.016,0,.026-.031,0-.031-.094,0-.024-.11-.076-.147s-.186.034-.244,0,0-.042-.024-.084-.034,0-.039-.016-.016-.016-.018-.016a.042.042,0,0,0,0-.026c0-.018.013-.018.016-.029.021-.11-.155-.084-.225-.089a1,1,0,0,1-.128,0v-.029s-.1-.039-.1-.045.021-.039,0-.063a.456.456,0,0,0-.2-.024h-.034a.039.039,0,0,0,.031-.031v-.042c0-.018-.034-.037-.066-.039a.2.2,0,0,0-.092.018.173.173,0,0,0,.013-.1c-.026-.107-.147-.029-.21,0-.016,0-.018.034,0,.029a.464.464,0,0,1,.136-.042c.034.005.016.1-.018.149l-.071.037a.31.31,0,0,0-.144.092C343.993,292.842,344.058,292.842,344.129,292.816Zm.037-.113a.286.286,0,0,0,.055-.029.234.234,0,0,1-.092.1s-.076.029-.055,0a.233.233,0,0,1,.092-.068Z" transform="translate(-343.277 -290.976)" fill="#455a64"/>
      <path id="Path_404" data-name="Path 404" d="M350.36,296.2v.013c.084.026.162-.071.191-.17.031,0,.1-.013.107.037a.365.365,0,0,0-.016.05v.016c.047,0,.194-.052.17.026a.016.016,0,0,0,0,.018c.037.026.121-.018.134.039s-.052.052-.021.092.065,0,.092,0,.034-.024.052-.016,0,.018,0,.026a.027.027,0,0,0,.021.029c.021.008.029,0,.042,0s.018-.016.029-.016a.134.134,0,0,1,.058.016s.081.037.073.021-.037.063,0,.094.149,0,.181,0,.031-.034,0-.034h-.086c-.073-.031-.055-.055-.039-.092s0-.024-.016-.021-.084-.047-.121-.045a.175.175,0,0,0-.06.021c-.06,0-.031-.018-.031-.058s-.013-.016-.021-.013-.121.081-.123,0c0,0,.037-.034.039-.05a.058.058,0,0,0-.047-.055.184.184,0,0,0-.073,0c-.092,0-.013,0-.045-.026a.089.089,0,0,0-.086-.026h-.06c-.013,0-.016,0-.018-.031s.018-.039,0-.066a.071.071,0,0,0-.081-.034.339.339,0,0,0-.081.029c0-.068,0-.123-.076-.123-.016,0-.031.031,0,.037s.047.06.034.113C350.441,296.065,350.365,296.133,350.36,296.2Zm.081-.063c0-.013.031-.037.058-.058a.1.1,0,0,1,0,.024c-.018.013-.073.084-.058.034Z" transform="translate(-347.977 -293.499)" fill="#455a64"/>
      <path id="Path_405" data-name="Path 405" d="M345.971,297.676a.524.524,0,0,0,.181-.186.186.186,0,0,1,.081-.021c.1.016.016.055,0,.094s0,.026.018.024c.073,0,.262-.055.2.063a.016.016,0,0,0,0,.021c.024,0,.123.021.11.045a.018.018,0,0,0,.016.024,2.254,2.254,0,0,1,.231,0,.441.441,0,0,1,.1.013c.024.026-.016.087-.026.1a.018.018,0,0,0,0,.026c.039.018.068.042.042.084a.018.018,0,0,0,0,.026c.1.026.275-.055.3.063.016.071,0,.089.094.081.016,0,.029-.031,0-.034-.094,0-.026-.108-.079-.144s-.184.034-.244,0,0-.042-.024-.084-.034,0-.039-.018-.013-.013-.016-.013,0,0,0-.026,0-.018.013-.031c.024-.107-.152-.081-.223-.089a.723.723,0,0,1-.131,0v-.031c0-.005-.1-.037-.1-.042s.024-.039,0-.063a.449.449,0,0,0-.194-.024h-.034a.028.028,0,0,0,.029-.029v-.042c0-.018-.037-.037-.066-.039a.2.2,0,0,0-.094.018.176.176,0,0,0,.016-.1c-.026-.107-.149-.029-.212,0,0,0-.018.037,0,.031a.419.419,0,0,1,.139-.042c.058,0,.013.1-.021.149l-.068.037a.32.32,0,0,0-.147.092C345.833,297.689,345.9,297.713,345.971,297.676Zm.039-.113.052-.029a.263.263,0,0,1-.089.1s-.079.026-.055,0A.181.181,0,0,1,346.011,297.563Z" transform="translate(-344.635 -294.562)" fill="#455a64"/>
      <path id="Path_406" data-name="Path 406" d="M341.27,294.748v.016c.084.026.162-.073.191-.17.031,0,.1-.013.107.034l-.018.052.016.016c.047,0,.191-.055.17.026a.013.013,0,0,0,0,.018c.037.026.121-.018.131.039s-.05.052-.021.092.068,0,.094,0,.034-.024.052-.018,0,.021,0,.029.013.021.024.026.026,0,.042,0,.018-.016.029-.018a.3.3,0,0,1,.058.016s.081.039.073.024-.037.06,0,.094.147,0,.181,0,.031-.037,0-.034h-.086c-.073-.031-.055-.055-.039-.092s0-.024-.016-.021-.084-.047-.121-.047a.486.486,0,0,0-.06.024c-.06,0-.031-.018-.031-.058a.018.018,0,0,0-.021-.013c-.034.013-.121.081-.123,0,0,0,.037-.034.039-.05a.06.06,0,0,0-.047-.058.237.237,0,0,0-.073,0c-.092.016,0,0-.045-.024a.089.089,0,0,0-.086-.026.523.523,0,0,1-.06,0c-.05-.013-.016,0-.018-.034s.018-.039,0-.063a.076.076,0,0,0-.081-.034.416.416,0,0,0-.081.026c0-.066,0-.123-.076-.121-.016,0-.034.031,0,.034s.047.063.034.115C341.351,294.617,341.275,294.685,341.27,294.748Zm.081-.06c0-.013.029-.037.058-.058a.076.076,0,0,1,0,.021C341.391,294.667,341.333,294.738,341.351,294.688Z" transform="translate(-341.27 -292.429)" fill="#455a64"/>
      <path id="Path_407" data-name="Path 407" d="M354.132,287.271a.559.559,0,0,0,.181-.186.185.185,0,0,1,.081-.021c.1.016.016.055,0,.094s0,.026.018.024c.073,0,.249-.055.2.063a.016.016,0,0,0,0,.021c.024,0,.123.021.11.045s0,.024.016.021q.115-.006.231,0a.442.442,0,0,1,.1.013c.021.026-.016.087-.026.1a.018.018,0,0,0,0,.026c.039.018.068.042.042.084a.016.016,0,0,0,0,.024c.1.029.275-.052.3.066.018.071,0,.089.1.081.016,0,.029-.034,0-.034-.094,0-.026-.107-.079-.144s-.183.034-.244,0,0-.042-.024-.084-.034,0-.039-.018-.016-.016-.018-.013a.06.06,0,0,0,0-.029c0-.018.013-.016.016-.029.024-.11-.152-.081-.225-.089a.7.7,0,0,1-.128,0v-.031l-.1-.042s.024-.042,0-.063a.543.543,0,0,0-.194-.026h-.034a.034.034,0,0,0,.029-.029v-.042c0-.018-.037-.037-.068-.039a.2.2,0,0,0-.092.018.154.154,0,0,0,.013-.1c-.024-.107-.147-.029-.21,0-.013,0-.018.037,0,.031a.407.407,0,0,1,.136-.042c.058,0,.016.1-.018.149l-.068.037a.3.3,0,0,0-.147.092C353.993,287.284,354.063,287.308,354.132,287.271Zm.039-.113.052-.029a.262.262,0,0,1-.092.1s-.076.026-.055,0A.2.2,0,0,1,354.171,287.158Z" transform="translate(-350.656 -286.881)" fill="#455a64"/>
      <path id="Path_408" data-name="Path 408" d="M360.365,290.651a.018.018,0,0,0,0,.016c.084.026.162-.073.191-.17.031,0,.1-.013.11.034a.4.4,0,0,0-.018.052.017.017,0,0,0,.016.016c.016,0,.191-.055.168.026a.018.018,0,0,0,0,.018c.039.024.121-.018.134.039s-.052.052-.021.092.066,0,.094,0,.031-.024.05-.018,0,.021,0,.029a.023.023,0,0,0,.021.026.11.11,0,0,0,.042,0c.013,0,.021-.018.031-.018a.368.368,0,0,1,.058.016s.081.037.073.024-.039.06,0,.094.149,0,.183,0,.029-.037,0-.037h-.086c-.073-.034-.052-.055-.039-.092s0-.024-.013-.024-.084-.045-.123-.045-.052.024-.06.024c-.058,0-.029-.018-.031-.058a.016.016,0,0,0-.021-.013c-.034,0-.121.081-.123,0,0-.013.037-.034.039-.052s0-.047-.047-.055a.219.219,0,0,0-.071,0c-.094.016-.016,0-.047-.024a.092.092,0,0,0-.086-.026.478.478,0,0,1-.058,0c-.052-.013-.018,0-.021-.034s.021-.039,0-.063a.076.076,0,0,0-.081-.034.32.32,0,0,0-.081.026c0-.068,0-.123-.076-.121-.016,0-.031.031,0,.034s.047.063.034.115C360.446,290.52,360.37,290.586,360.365,290.651Zm.081-.06a.212.212,0,0,1,.06-.058.139.139,0,0,1-.013.021C360.486,290.57,360.431,290.641,360.446,290.591Z" transform="translate(-355.359 -289.403)" fill="#455a64"/>
      <path id="Path_409" data-name="Path 409" d="M356,292.1a.576.576,0,0,0,.183-.189.162.162,0,0,1,.079-.018c.1.016.016.055,0,.094s0,.024.021.024c.071-.013.246-.055.2.063a.016.016,0,0,0,0,.021c.021,0,.121.018.11.045a.013.013,0,0,0,.013.021,2.236,2.236,0,0,1,.231,0,.614.614,0,0,1,.1,0c.024.029-.016.086-.026.107a.018.018,0,0,0,0,.026c.039.016.071.039.045.081s0,.024,0,.026c.1.029.275-.055.3.063.016.073,0,.089.094.081.016,0,.029-.031,0-.031-.094,0-.024-.107-.079-.144s-.184.031-.244,0,0-.039-.024-.084-.031,0-.039-.016-.013-.016-.016-.016v-.026c0-.018,0-.018.013-.029.024-.11-.152-.084-.223-.089a1.092,1.092,0,0,1-.131,0v-.031c0-.005-.1-.039-.1-.042s.024-.042,0-.066a.461.461,0,0,0-.2-.024h-.034a.037.037,0,0,0,.031-.031v-.042c0-.021-.037-.034-.066-.037a.246.246,0,0,0-.094.016.152.152,0,0,0,.016-.1c-.026-.107-.147-.029-.21,0-.016,0-.021.037,0,.029a.374.374,0,0,1,.139-.039c.034.008.013.1-.018.149l-.071.034a.3.3,0,0,0-.144.094C355.857,292.112,355.928,292.136,356,292.1Zm.039-.115.055-.026a.3.3,0,0,1-.092.1s-.076.026-.055,0A.218.218,0,0,1,356.035,291.986Z" transform="translate(-352.036 -290.437)" fill="#455a64"/>
      <path id="Path_410" data-name="Path 410" d="M351.275,289.255a.018.018,0,0,0,0,.016c.084.026.162-.073.191-.17.031,0,.1-.013.11.034a.34.34,0,0,0-.018.05.019.019,0,0,0,.016.018c.016,0,.191-.055.168.026v.016c.037.026.121-.018.134.042s-.052.052-.021.092.066,0,.092,0,.034-.026.052-.018,0,.018,0,.029,0,.021.021.026a.11.11,0,0,0,.042,0c.013,0,.021-.016.029-.016a.187.187,0,0,1,.058.016s.084.037.073.024-.037.06,0,.094.149,0,.183,0,.029-.037,0-.037a.8.8,0,0,1-.086,0c-.073-.031-.052-.052-.039-.089s0-.024-.016-.024-.084-.045-.121-.045-.052.024-.06.024c-.058,0-.031-.018-.031-.06s-.013-.016-.021,0-.121.081-.123,0c0,0,.037-.031.039-.05a.056.056,0,0,0-.047-.055.165.165,0,0,0-.071,0c-.094.016-.016,0-.047-.024a.089.089,0,0,0-.086-.029.264.264,0,0,1-.058,0c-.052-.013-.018,0-.021-.034s.018-.039,0-.066a.07.07,0,0,0-.081-.031.32.32,0,0,0-.081.026c0-.068,0-.123-.076-.121-.016,0-.031.031,0,.034s.047.063.034.113C351.356,289.124,351.28,289.2,351.275,289.255Zm.081-.06a.213.213,0,0,1,.06-.06l-.013.024c-.008.013-.063.084-.047.045Z" transform="translate(-348.651 -288.385)" fill="#455a64"/>
      <path id="Path_411" data-name="Path 411" d="M354.959,295.477a.59.59,0,0,0,.184-.186.141.141,0,0,1,.079-.021c.1.016.016.055,0,.094a.018.018,0,0,0,.021.024c.071-.013.246-.055.2.063a.016.016,0,0,0,0,.021c.021,0,.121.021.11.045s0,.024.013.021a2.237,2.237,0,0,1,.231,0,.425.425,0,0,1,.1.013c.024.026-.013.087-.026.1a.018.018,0,0,0,0,.026c.039.018.071.039.045.081s0,.024,0,.026c.1.029.262-.052.3.066.016.071,0,.089.094.081.018,0,.029-.034,0-.034-.094,0-.024-.108-.079-.144s-.183.034-.241,0,0-.039-.026-.081-.031,0-.039-.018-.013-.016-.016-.013,0,0,0-.029v-.029c.024-.11-.152-.084-.223-.089a1.091,1.091,0,0,1-.131,0v-.031l-.1-.042s.024-.042.013-.063-.152-.026-.2-.026h-.034a.034.034,0,0,0,.031-.029v-.042c0-.018-.037-.037-.066-.039a.247.247,0,0,0-.094.016.146.146,0,0,0,.016-.1c-.026-.108-.147-.031-.21,0-.016,0-.021.037,0,.029a.374.374,0,0,1,.139-.039c.034.008.013.1-.018.149l-.071.034a.3.3,0,0,0-.144.094C354.82,295.49,354.891,295.513,354.959,295.477Zm.039-.113.055-.029a.3.3,0,0,1-.092.1s-.076.026-.055,0A.2.2,0,0,1,355,295.364Z" transform="translate(-351.268 -292.937)" fill="#455a64"/>
      <path id="Path_412" data-name="Path 412" d="M351.12,292.824h0c.084.026.162-.071.191-.17.029,0,.1-.013.108.037l-.018.05a.016.016,0,0,0,.016.016c.047,0,.191-.052.168.026v.018s.123-.018.134.039-.05.055-.021.092.068,0,.094,0,.034-.026.052-.018,0,.018,0,.026a.026.026,0,0,0,.021.029.128.128,0,0,0,.045,0c.016,0,.018-.016.029-.016a.144.144,0,0,1,.058.016s.081.037.073.021-.037.063,0,.1.147,0,.181,0,.031-.037,0-.037h-.086c-.073-.031-.055-.055-.042-.092s0-.024,0-.021a.42.42,0,0,0-.121-.045.515.515,0,0,0-.06.021c-.06,0-.031-.018-.034-.058s0-.016-.021-.013-.118.081-.121,0c0,0,.037-.034.039-.05s0-.047-.047-.055a.178.178,0,0,0-.073,0c-.092.013-.013,0-.045-.026a.089.089,0,0,0-.086-.026h-.06c-.013,0-.016,0-.018-.031s.018-.039,0-.065a.075.075,0,0,0-.084-.034l-.079.029c0-.068,0-.123-.076-.123-.018,0-.034.034,0,.037s.047.063.034.113C351.2,292.691,351.125,292.759,351.12,292.824Zm.081-.063c0-.013.029-.037.058-.058a.1.1,0,0,1,0,.024S351.183,292.811,351.2,292.761Z" transform="translate(-348.538 -290.997)" fill="#455a64"/>
      <path id="Path_413" data-name="Path 413" d="M347.935,290.463a.223.223,0,0,1,0,.1.018.018,0,0,0,.016.018c.047,0,.194-.055.17.026v.016c.037.026.121-.018.131.042s-.05.052-.021.092.068,0,.094,0,.034-.026.052-.018,0,.018,0,.029.013.021.024.026.026,0,.042,0,.018-.016.029-.016a.184.184,0,0,1,.058.016s.081.037.073.024-.037.06,0,.094.147,0,.181,0,.031-.037,0-.037H348.7c-.073-.031-.055-.052-.039-.089s0-.024-.016-.024-.084-.045-.121-.045a.479.479,0,0,0-.06.024c-.06,0-.031-.018-.031-.06a.018.018,0,0,0-.021-.013c-.034.013-.121.081-.123,0,0,0,.037-.031.039-.05a.056.056,0,0,0-.047-.055.178.178,0,0,0-.073,0c-.092.016,0,0-.045-.024a.089.089,0,0,0-.086-.029.265.265,0,0,1-.06,0c-.05-.013-.016,0-.018-.034s.018-.039,0-.066-.068-.068-.081-.018a.029.029,0,0,0,0,.021A.076.076,0,0,0,347.935,290.463Z" transform="translate(-346.171 -289.456)" fill="#455a64"/>
    </g>
    <path id="Path_414" data-name="Path 414" d="M352.581,236.638c.021-.443.228-.4.585-.511l.679-.22q.933-.3,1.861-.616c.786-.262,1.586-.524,2.359-.826a4.314,4.314,0,0,0,1.311-.556c.564-.469,2.126-4.318,2.317-4.616.524-.8,1.638-6.6,1.638-6.6-1.048-.244-2.081.632-2.621,1.764s-2.852,6.887-2.852,6.887q-1.3.663-2.6,1.337c-.862.446-1.727.889-2.587,1.337a7.858,7.858,0,0,0-2.2,1.311,3.761,3.761,0,0,0-.865,1.237,2.019,2.019,0,0,0,.039,1.413,2.31,2.31,0,0,0,.923,1.083.6.6,0,0,0,.482.115.144.144,0,0,0,.084-.052.194.194,0,0,0,.034-.115c.024-.328,0-.658,0-.988,0-.286.031-1.049.446-.991" transform="translate(-315.608 -203.613)" fill="#b16668"/>
    <g id="freepik--Pencil--inject-1" transform="translate(33.601 28.453)">
      <path id="Path_415" data-name="Path 415" d="M356.49,286.909l.847,1.206a.047.047,0,0,0,.084-.024l.06-1.481Z" transform="translate(-354.37 -279.256)" fill="#ffa8a7"/>
      <path id="Path_416" data-name="Path 416" d="M358.694,288.121h0l.06-1.481-.524.157.052.176.359,1.14Z" transform="translate(-355.654 -279.278)" fill="#f28f8f"/>
      <path id="Path_417" data-name="Path 417" d="M359.3,291.367a.047.047,0,0,1-.084.024l-.165-.236h0a.244.244,0,0,0,.244-.084l.018-.021Z" transform="translate(-356.259 -282.532)" fill="#263238"/>
      <path id="Path_418" data-name="Path 418" d="M350.8,263.84l.037.131.047.157,1.664,5.681a.653.653,0,0,1-.362.317.684.684,0,0,1-.629-.018l-1.662-5.675-.089-.3C349.878,264.322,350.869,264.034,350.8,263.84Z" transform="translate(-349.441 -262.455)" fill="#455a64"/>
      <path id="Path_419" data-name="Path 419" d="M352.09,263.84l.037.131.047.157,1.664,5.681a.7.7,0,0,1-.467.354l-1.8-6h-.021C351.833,264.086,352.127,263.95,352.09,263.84Z" transform="translate(-350.728 -262.455)" fill="#37474f"/>
      <path id="Path_420" data-name="Path 420" d="M351.363,265.74l.086.294c.026.084-.139.191-.341.262-.262.108-.619.126-.655.016l-.063-.215-.021-.079c.037.11.385.092.653-.016.2-.076.356-.178.343-.262h0Z" transform="translate(-349.854 -263.857)" fill="#ebebeb"/>
      <path id="Path_421" data-name="Path 421" d="M351.2,265.174c.063.194-.93.48-.993.286l-.086-.294c.063.2,1.048-.089.993-.286Z" transform="translate(-349.67 -263.222)" fill="#37474f"/>
      <path id="Path_422" data-name="Path 422" d="M350.818,263.84l.084.288c.066.191-.891.474-.988.3h0l-.084-.294C349.893,264.322,350.884,264.034,350.818,263.84Z" transform="translate(-349.456 -262.455)" fill="#ebebeb"/>
      <path id="Path_423" data-name="Path 423" d="M359.92,292.321a.045.045,0,0,0,.029-.031.039.039,0,0,1-.029.031Z" transform="translate(-356.901 -283.447)" fill="#ffa8a7"/>
      <path id="Path_424" data-name="Path 424" d="M349.4,258.718l.362,1.224c.026.084-.136.191-.335.262-.262.107-.619.131-.658.018h0l-.362-1.229c-.071-.246.409-.451.734-.435A.262.262,0,0,1,349.4,258.718Z" transform="translate(-348.403 -258.557)" fill="#f28f8f"/>
      <path id="Path_425" data-name="Path 425" d="M349.216,259.032a.786.786,0,0,1-.705.081.171.171,0,0,1-.1-.131c-.013-.228.43-.412.739-.4a.262.262,0,0,1,.262.147C349.431,258.825,349.366,258.938,349.216,259.032Z" transform="translate(-348.407 -258.578)" opacity="0.1"/>
    </g>
    <path id="Path_426" data-name="Path 426" d="M393.436,230.316c-.131,1.222-.592,6.31-.592,6.31,2.634,2.123,8.505,1.657,9.575-.052a21.426,21.426,0,0,1-1.161-3.67l.786-3.421s-1.874-1.7,0-5.188l-2.477-.742-4.456-.752a25.771,25.771,0,0,0-2.134,3.612A3.385,3.385,0,0,0,393.436,230.316Z" transform="translate(-347.384 -203.721)" fill="#441ab9"/>
    <path id="Path_427" data-name="Path 427" d="M417.9,245.2c-.026-.094-.052-.184-.076-.262-.191-.689-.286-1.151-.286-1.151l.786-3.421h0a.95.95,0,0,1-.079-.084h0a3.478,3.478,0,0,1-.705-2.732h0s-.537,1.969.16,2.991l-.658,2.965-.957,1.389,1.159-.454a20.519,20.519,0,0,1,.438,2.139c.029.417-.957,1.8-3.061,2.325,1.882-.084,3.554-.621,4.078-1.458h0A20.046,20.046,0,0,1,417.9,245.2Z" transform="translate(-363.663 -214.604)" opacity="0.15"/>
    <path id="Path_428" data-name="Path 428" d="M425.935,228.14a2.708,2.708,0,0,1,1.806,1.334c.341.671,1.457,2.425,2.149,3.6l.645,1.1s4.228-2.244,4.456-2.535a2.714,2.714,0,0,0,.262-1.211,3.489,3.489,0,0,0-.165-1.188c-.058-.409.524-.315.718-.152a1.669,1.669,0,0,1,.3.44c.092.152.262.65.44.682s.411-.17.524-.262a6.708,6.708,0,0,0,1.109-1.282.655.655,0,0,1,.262-.223.611.611,0,0,1,.524.136,1.18,1.18,0,0,1,.38.338,1.031,1.031,0,0,1,.128.341,2.451,2.451,0,0,1-.716,2.1,7.311,7.311,0,0,1-1.73,1.531c-.385.262-.894.474-1.329.713s-5.192,4.215-5.855,3.764a16.091,16.091,0,0,1-2.128-2.147c-.936-1.14-1.491-1.835-1.491-1.835C424.394,231.792,425.935,228.14,425.935,228.14Z" transform="translate(-371.566 -207.661)" fill="#b16668"/>
    <path id="Path_429" data-name="Path 429" d="M419.784,215.63l-.076,3.041a2.857,2.857,0,0,0,2.857,2.928h.076v-3.114A2.855,2.855,0,0,0,419.784,215.63Z" transform="translate(-367.417 -198.43)" fill="#263238"/>
    <path id="Path_430" data-name="Path 430" d="M398.127,192.976l1.622.042a4.094,4.094,0,0,0,4.207-3.982h0a4.907,4.907,0,0,0-4.773-5.041h0a4.907,4.907,0,0,0-5.038,4.771h0A4.1,4.1,0,0,0,398.127,192.976Z" transform="translate(-348.554 -175.087)" fill="#263238"/>
    <path id="Path_431" data-name="Path 431" d="M428.44,191.666l1.219-.427a.626.626,0,0,0-.807-.417A.682.682,0,0,0,428.44,191.666Z" transform="translate(-373.838 -180.1)" fill="#263238"/>
    <path id="Path_432" data-name="Path 432" d="M427.28,189.359l.375-1.235a.624.624,0,0,0-.81.4A.679.679,0,0,0,427.28,189.359Z" transform="translate(-372.664 -178.107)" fill="#263238"/>
    <path id="Path_433" data-name="Path 433" d="M398.194,192.08c-.524.291-1.2,1.573-1.214,4.312,0,2.315.726,2.907,1.1,3.083a4.024,4.024,0,0,0,1.811,0v.959s-1.274,1.392-1.232,2.032,1.63.97,2.561.372a7.473,7.473,0,0,0,1.735-1.775l.071-3.211s.4.417,1.124-.181a1.319,1.319,0,0,0,.375-1.819,1.014,1.014,0,0,0-1.622.278,5.744,5.744,0,0,1-2.605-.855A4.221,4.221,0,0,1,398.194,192.08Z" transform="translate(-350.647 -181.054)" fill="#b16668"/>
    <path id="Path_434" data-name="Path 434" d="M405.793,205.308a.291.291,0,1,0,.579.042.291.291,0,1,0-.579-.042Z" transform="translate(-357.148 -190.606)" fill="#263238"/>
    <path id="Path_435" data-name="Path 435" d="M404.484,214.05l-.684.2a.351.351,0,0,0,.435.262.375.375,0,0,0,.249-.461Z" transform="translate(-355.679 -197.264)" fill="#9a4a4d"/>
    <path id="Path_436" data-name="Path 436" d="M397.74,200.605l.6-.391a.341.341,0,0,0-.485-.115A.375.375,0,0,0,397.74,200.605Z" transform="translate(-351.168 -186.929)" fill="#263238"/>
    <path id="Path_437" data-name="Path 437" d="M397.823,204.156a.291.291,0,1,0,.317-.278.3.3,0,0,0-.317.278Z" transform="translate(-351.267 -189.758)" fill="#263238"/>
    <path id="Path_438" data-name="Path 438" d="M400.259,204.82l-.034,1.9-.915-.312Z" transform="translate(-352.366 -190.454)" fill="#9a4a4d"/>
    <path id="Path_439" data-name="Path 439" d="M408.05,217.255c.747-.079,2.291-.477,2.548-1.075a1.573,1.573,0,0,1-.558.758,8.152,8.152,0,0,1-2,.786Z" transform="translate(-358.808 -198.836)" fill="#9a4a4d"/>
    <path id="Path_440" data-name="Path 440" d="M357.413,276.393c0,.228-.076.6-.066.828a.954.954,0,0,0,.233.632.341.341,0,0,0,.383.1.44.44,0,0,0,.178-.3,7.309,7.309,0,0,0,.233-1.636V276" transform="translate(-321.401 -242.974)" fill="#b16668"/>
  </g>
  <g id="freepik--Board--inject-1" transform="translate(6.047 20.544)">
    <path id="Path_441" data-name="Path 441" d="M98.828,308.574v-.524l-9.328,5.4.446.262Z" transform="translate(-77.574 -255.898)" fill="#37474f"/>
    <path id="Path_442" data-name="Path 442" d="M61.977,180.435a.126.126,0,0,1,.06.134L54.307,214.9l-.223.973a.587.587,0,0,1-.307-.06h0l-.524-.3a.131.131,0,0,1-.06-.136l7.937-35.232a.123.123,0,0,1,.183-.079Z" transform="translate(-50.782 -161.455)" fill="#37474f"/>
    <path id="Path_443" data-name="Path 443" d="M65.484,179.72l-7.971,35.4a.2.2,0,0,1-.1.134l-.524.3a.524.524,0,0,1-.262.066l.223-.973,7.737-34.412Z" transform="translate(-53.32 -161.209)" fill="#455a64"/>
    <path id="Path_444" data-name="Path 444" d="M85.316,269.618v1.025a.6.6,0,0,1-.288-.068h0l-.482-.278a.2.2,0,0,1-.115-.168V239.39l.891.524Z" transform="translate(-73.833 -205.237)" fill="#37474f"/>
    <path id="Path_445" data-name="Path 445" d="M88.7,239.4v30.747a.207.207,0,0,1-.121.155l-.477.278a.584.584,0,0,1-.291.071V239.911Z" transform="translate(-76.327 -205.244)" fill="#455a64"/>
    <path id="Path_446" data-name="Path 446" d="M114.374,253.851a.572.572,0,0,1-.275-.081l-.5-.286a.247.247,0,0,1-.123-.17l-5.3-27.654.889.524,5.116,26.681Z" transform="translate(-91.358 -195.106)" fill="#37474f"/>
    <path id="Path_447" data-name="Path 447" d="M117.764,253.31h0a.207.207,0,0,1-.123.168l-.451.262-.024.013a.618.618,0,0,1-.291.068l-.189-.994-5.116-26.673.894-.524,5.292,27.63h0Z" transform="translate(-93.859 -195.084)" fill="#455a64"/>
    <path id="Path_448" data-name="Path 448" d="M90.03,314.945l10.078-5.82V308.1L90.03,313.92Z" transform="translate(-77.965 -255.935)" fill="#455a64"/>
    <path id="Path_449" data-name="Path 449" d="M47.26,236.31v.37a.632.632,0,0,0,.286.493l2.985,1.72a.639.639,0,0,0,.569,0l19.857-11.453a.621.621,0,0,0,.283-.49v-.377a.621.621,0,0,0-.283-.49l-2.985-1.725a.621.621,0,0,0-.569,0L47.546,235.817A.632.632,0,0,0,47.26,236.31Z" transform="translate(-46.406 -194.093)" fill="#441ab9"/>
    <path id="Path_450" data-name="Path 450" d="M48.018,236.174,51,237.9a.621.621,0,0,0,.569,0L71.43,226.449c.157-.092.157-.239,0-.328L68.444,224.4a.621.621,0,0,0-.569,0L48.018,235.847C47.861,235.938,47.861,236.085,48.018,236.174Z" transform="translate(-46.878 -194.123)" fill="#fff" opacity="0.4"/>
    <path id="Path_451" data-name="Path 451" d="M50.814,270.509v1.028a.611.611,0,0,1-.283-.068l-2.985-1.725a.632.632,0,0,1-.286-.493v-.37a.626.626,0,0,1,.228-.451c-.1.089-.079.21.058.288l2.985,1.722A.579.579,0,0,0,50.814,270.509Z" transform="translate(-46.406 -226.664)" opacity="0.1"/>
    <path id="Path_452" data-name="Path 452" d="M47.046,152.262l-.828-.48a1.138,1.138,0,0,1-.506-.82L44,121.271a.978.978,0,0,1,.443-.821l19.477-11.23a1.048,1.048,0,0,1,.949,0l.831.48a1.125,1.125,0,0,1,.5.821l1.714,29.691a.975.975,0,0,1-.44.821l-19.483,11.23A1.048,1.048,0,0,1,47.046,152.262Z" transform="translate(-44 -109.107)" fill="#e0e0e0"/>
    <path id="Path_453" data-name="Path 453" d="M66.508,110.441a.3.3,0,0,0-.5-.191L46.535,121.482a.883.883,0,0,0-.328.357l-1.777-1.025a.92.92,0,0,1,.328-.357l19.48-11.233a1.048,1.048,0,0,1,.944,0l.836.482a1.135,1.135,0,0,1,.49.734Z" transform="translate(-44.317 -109.111)" fill="#fafafa"/>
    <path id="Path_454" data-name="Path 454" d="M50.77,125.336l1.714,29.693a.312.312,0,0,0,.506.262l19.48-11.233a.975.975,0,0,0,.44-.821L71.2,113.558a.309.309,0,0,0-.5-.262l-19.48,11.222A.965.965,0,0,0,50.77,125.336Z" transform="translate(-48.995 -112.147)" fill="#f0f0f0"/>
    <path id="Path_455" data-name="Path 455" d="M61.694,171.6c.294-.17.524-.034.524.307a1.169,1.169,0,0,1-.524.92c-.294.17-.524.034-.524-.307A1.177,1.177,0,0,1,61.694,171.6Z" transform="translate(-56.67 -155.166)" fill="#455a64"/>
    <path id="Path_456" data-name="Path 456" d="M69.819,149.585,80.4,143.479c.312-.181.566-.052.566.286a1.216,1.216,0,0,1-.569.944l-10.579,6.108c-.312.181-.566.052-.566-.288A1.235,1.235,0,0,1,69.819,149.585Z" transform="translate(-62.632 -134.408)" fill="#455a64"/>
    <path id="Path_457" data-name="Path 457" d="M62.374,182.464c.294-.17.524-.034.524.307a1.182,1.182,0,0,1-.524.923c-.294.168-.524.031-.524-.307a1.193,1.193,0,0,1,.524-.923Z" transform="translate(-57.171 -163.179)" fill="#455a64"/>
    <path id="Path_458" data-name="Path 458" d="M70.509,160.477l10.576-6.108c.315-.181.569-.052.569.286a1.216,1.216,0,0,1-.569.944l-10.579,6.108c-.315.181-.569.052-.566-.286A1.216,1.216,0,0,1,70.509,160.477Z" transform="translate(-63.141 -142.443)" fill="#455a64"/>
    <path id="Path_459" data-name="Path 459" d="M63.064,193.324c.294-.17.524-.034.524.307a1.177,1.177,0,0,1-.524.923c-.294.17-.524.031-.524-.307A1.177,1.177,0,0,1,63.064,193.324Z" transform="translate(-57.68 -171.192)" fill="#455a64"/>
    <path id="Path_460" data-name="Path 460" d="M71.189,171.337l10.579-6.108c.312-.181.566-.052.566.288a1.216,1.216,0,0,1-.569.941l-10.579,6.111c-.312.181-.566.05-.566-.288A1.229,1.229,0,0,1,71.189,171.337Z" transform="translate(-63.643 -150.457)" fill="#455a64"/>
    <path id="Path_461" data-name="Path 461" d="M63.744,204.185c.294-.17.524-.031.524.307a1.177,1.177,0,0,1-.524.923c-.294.17-.524.031-.524-.307A1.2,1.2,0,0,1,63.744,204.185Z" transform="translate(-58.182 -179.207)" fill="#455a64"/>
    <path id="Path_462" data-name="Path 462" d="M71.879,182.2l10.576-6.108c.315-.181.569-.052.569.288a1.216,1.216,0,0,1-.569.941l-10.579,6.111c-.315.181-.569.052-.566-.288A1.216,1.216,0,0,1,71.879,182.2Z" transform="translate(-64.152 -158.47)" fill="#455a64"/>
    <path id="Path_463" data-name="Path 463" d="M64.434,215.053c.294-.17.524-.034.524.3a1.174,1.174,0,0,1-.524.923c-.294.17-.524.034-.524-.307a1.172,1.172,0,0,1,.524-.92Z" transform="translate(-58.691 -187.226)" fill="#455a64"/>
    <path id="Path_464" data-name="Path 464" d="M72.559,193.065l10.579-6.105c.312-.181.566-.052.566.286a1.216,1.216,0,0,1-.569.944L72.556,194.3c-.312.181-.566.052-.566-.288A1.235,1.235,0,0,1,72.559,193.065Z" transform="translate(-64.654 -166.49)" fill="#455a64"/>
    <path id="Path_465" data-name="Path 465" d="M65.114,225.914c.294-.17.524-.034.524.307a1.172,1.172,0,0,1-.524.92c-.294.17-.524.034-.524-.3a1.193,1.193,0,0,1,.524-.923Z" transform="translate(-59.193 -195.239)" fill="#455a64"/>
    <path id="Path_466" data-name="Path 466" d="M73.249,203.927l10.576-6.108c.315-.181.569-.052.569.286a1.216,1.216,0,0,1-.569.944l-10.579,6.1c-.315.181-.569.052-.566-.288A1.216,1.216,0,0,1,73.249,203.927Z" transform="translate(-65.163 -174.503)" fill="#455a64"/>
    <path id="Path_467" data-name="Path 467" d="M71.514,116.853v1.594a.438.438,0,0,1-.2.343l-10.264,5.927a.438.438,0,0,1-.4,0l-.493-.262a.435.435,0,0,1-.2-.343v-.786l-1.78-1.025-.886.524V120.99a.443.443,0,0,1,.2-.346l10.264-5.927a.443.443,0,0,1,.4,0l3.145,1.835A.438.438,0,0,1,71.514,116.853Z" transform="translate(-53.814 -113.211)" fill="#263238"/>
    <path id="Path_468" data-name="Path 468" d="M81.52,122.129v1.594a.438.438,0,0,1-.2.343l-10.262,5.927a.422.422,0,0,1-.2.047V128a.446.446,0,0,0,.2-.047l10.262-5.93c.1-.055.107-.142.037-.2A.44.44,0,0,1,81.52,122.129Z" transform="translate(-63.82 -118.487)" fill="#37474f"/>
    <path id="Path_469" data-name="Path 469" d="M57.818,120.8l3.145,1.835a.443.443,0,0,0,.4,0l10.262-5.927a.121.121,0,0,0,0-.228l-3.145-1.835a.443.443,0,0,0-.4,0l-10.262,5.925C57.707,120.637,57.707,120.734,57.818,120.8Z" transform="translate(-54.135 -113.16)" fill="#455a64"/>
    <path id="Path_470" data-name="Path 470" d="M110.779,230.872h0l-.047-.071v-.024h0a.555.555,0,0,0-.05-.06l-.045-.047-.042-.037a.6.6,0,0,0-.262-.123l-5.119,2.965-.144.084-.118.068-1.1.64a.262.262,0,0,0-.087.288c.063.32.375.737.6.611l1.109-.645h0a.1.1,0,0,0,.026-.031.06.06,0,0,1-.026.031l.262-.157,5.119-2.962A.613.613,0,0,0,110.779,230.872Zm-5.793,2.734Z" transform="translate(-88.088 -198.685)" fill="#455a64"/>
    <path id="Path_471" data-name="Path 471" d="M104.16,244.873a.807.807,0,0,1,.246.666.191.191,0,0,1-.1.134c-.218.066-.5-.322-.561-.627a.262.262,0,0,1,.081-.283C103.908,244.716,104.034,244.75,104.16,244.873Z" transform="translate(-88.074 -209.186)" fill="#37474f"/>
  </g>
  <g id="freepik--character-1--inject-1" transform="translate(32.938 25.135)">
    <g id="freepik--character--inject-1-2" data-name="freepik--character--inject-1">
      <path id="Path_472" data-name="Path 472" d="M167.965,126.62h.773a4.336,4.336,0,0,1,4.335,4.336v5.416h-5.913a3.531,3.531,0,0,1-3.531-3.531v-1.885A4.336,4.336,0,0,1,167.965,126.62Z" transform="translate(-159.367 -126.62)" fill="#441ab9"/>
      <g id="Group_49" data-name="Group 49" transform="translate(4.263)" opacity="0.45">
        <path id="Path_473" data-name="Path 473" d="M167.965,126.62h.773a4.336,4.336,0,0,1,4.335,4.336v5.416h-5.913a3.531,3.531,0,0,1-3.531-3.531v-1.885A4.336,4.336,0,0,1,167.965,126.62Z" transform="translate(-163.63 -126.62)"/>
      </g>
      <path id="Path_474" data-name="Path 474" d="M163.548,338.9v-.3a7.259,7.259,0,0,0,1.518,2.658,6.683,6.683,0,0,1,1.816,1.995c.244.684-1.271.946-1.9.836a3.854,3.854,0,0,1-2.178-1.169c-.359-.443-.59-.967-.847-1.311s-.849-.737-.988-1.14a2.573,2.573,0,0,1,.123-1.114c.107-.409.2-.786.333-.752v.231a1.656,1.656,0,0,0,1.048.359C162.793,339.2,163.55,339.14,163.548,338.9Z" transform="translate(-157.384 -283.03)" fill="#263238"/>
      <path id="Path_475" data-name="Path 475" d="M167.054,336.926c-.207-.186-.417-.367-.605-.54a6.215,6.215,0,0,1-1.295-2.068,2.918,2.918,0,0,1-.223-1.117V332h-2.12v1.971h0v.052h0a14.346,14.346,0,0,0,1.628,2.378,3.047,3.047,0,0,0,1.919,1.279C167.161,337.783,167.578,337.531,167.054,336.926Z" transform="translate(-158.762 -278.16)" fill="#ffa8a7"/>
      <path id="Path_476" data-name="Path 476" d="M192.13,330.924v-.3a7.2,7.2,0,0,0,1.515,2.656,6.658,6.658,0,0,1,1.816,2c.244.687-1.271.946-1.9.836a3.87,3.87,0,0,1-2.178-1.169c-.359-.443-.59-.967-.847-1.311s-.849-.734-.988-1.138a2.573,2.573,0,0,1,.123-1.114c.107-.409.2-.786.333-.752v.231a1.68,1.68,0,0,0,1.048.359C191.378,331.223,192.133,331.16,192.13,330.924Z" transform="translate(-178.473 -277.142)" fill="#263238"/>
      <path id="Path_477" data-name="Path 477" d="M195.616,328.928c-.21-.183-.417-.364-.608-.537a6.164,6.164,0,0,1-1.292-2.068,2.884,2.884,0,0,1-.223-1.117V324H191.37v1.969h0v.052h0A14.5,14.5,0,0,0,193,328.4a3.033,3.033,0,0,0,1.916,1.279C195.729,329.786,196.135,329.534,195.616,328.928Z" transform="translate(-179.836 -272.258)" fill="#ffa8a7"/>
      <path id="Path_478" data-name="Path 478" d="M161.656,212.437c-1.646,3.594.058,16.253.058,16.253a24.15,24.15,0,0,0-.965,4.3c-.294,3.036.461,10.667.461,10.667a2.293,2.293,0,0,0,2.144.084s2.023-11.472,2.4-14.486c.333-2.621.97-8.42.97-8.42l1.025,8.4a15.468,15.468,0,0,0-.574,2.6c-.173,1.775,1.546,10.035,1.546,10.035a4.833,4.833,0,0,0,2.123.063s.608-10.96.768-13.107c.262-3.589.1-14.788-.556-16.911Z" transform="translate(-157.191 -189.552)" fill="#441ab9"/>
      <path id="Path_479" data-name="Path 479" d="M183.75,232.468l.524-3.337a8.462,8.462,0,0,0,3.284-1.431,5.84,5.84,0,0,1-2.673,1.775l-.6,2.572.409,8.268Z" transform="translate(-174.213 -201.202)" opacity="0.1"/>
      <path id="Path_480" data-name="Path 480" d="M188.142,165.577a3.043,3.043,0,0,1,2.7,1.208l4.1,5.343s4.791-2.4,5.027-2.682.1-.86.037-1.174-.17-1.02-.241-1.216c-.123-.346.385-.262.687.068s.432.954.585,1.062,1.29-1.2,1.835-1.835.813-1.077,1.182-.815c.262.189.1.564-.3,1.106a6.983,6.983,0,0,0-.524.718c-.047.1.1.173.157.225.107.1.3.262.312.4a1.538,1.538,0,0,0,0,.246c.052.181.275.262.338.44a2.048,2.048,0,0,1,.021.406c.018.084.066.163.081.249a.614.614,0,0,1-.178.467,4.513,4.513,0,0,1-1.428.92c-.425.233-.862.338-1.35.553s-6.149,4.142-7.043,3.646-5.523-5.875-5.523-5.875C187.317,166.832,188.142,165.577,188.142,165.577Z" transform="translate(-177.263 -155.277)" fill="#ffa8a7"/>
      <path id="Path_481" data-name="Path 481" d="M166.732,166.016h0c-2.11.147-2.257,1.164-2.786,2.278a3.621,3.621,0,0,0-.1,2.721l1.47,4.252s-.687,1.665-1.486,3.238c3.688,2.058,8.3.975,9.4-.524.047-.32-.239-2.81-.414-4.438a5.779,5.779,0,0,0,.548-3.741c-.509-2-2.485-3.951-3.36-3.877Z" transform="translate(-159.365 -155.619)" fill="#455a64"/>
      <path id="Path_482" data-name="Path 482" d="M162.463,132.41l.64,1.025a.587.587,0,0,1-.831-.17A.632.632,0,0,1,162.463,132.41Z" transform="translate(-158.297 -130.892)" fill="#441ab9"/>
      <path id="Path_483" data-name="Path 483" d="M160.59,136.4l1.2-.168a.585.585,0,0,1-.493.689A.634.634,0,0,1,160.59,136.4Z" transform="translate(-157.123 -133.711)" fill="#441ab9"/>
      <path id="Path_484" data-name="Path 484" d="M161.929,133.435l-.64-1.025a.632.632,0,0,0-.191.855.553.553,0,0,0,.231.21l-.739.1a.634.634,0,0,0,.705.524.582.582,0,0,0,.5-.6.574.574,0,0,0,.134-.068Z" transform="translate(-157.123 -130.892)" opacity="0.45"/>
      <path id="Path_485" data-name="Path 485" d="M175.524,133.91c.5.294,1.117,1.549,1.048,4.179-.05,2.228-.773,2.779-1.135,2.939a3.83,3.83,0,0,1-1.743-.052v1.347s.941,1.093.881,1.707-1.358.758-2.236.157a5.662,5.662,0,0,1-1.444-1.51v-3.238a.856.856,0,0,1-1.211.113,1.59,1.59,0,0,1-.341-2.176.97.97,0,0,1,1.552.309,5.374,5.374,0,0,0,2.529-.755A4.058,4.058,0,0,0,175.524,133.91Z" transform="translate(-163.369 -131.999)" fill="#ffa8a7"/>
      <path id="Path_486" data-name="Path 486" d="M185.741,146.928a.28.28,0,1,1-.294-.278A.291.291,0,0,1,185.741,146.928Z" transform="translate(-175.268 -141.399)" fill="#263238"/>
      <path id="Path_487" data-name="Path 487" d="M188.517,154.92l.65.207a.335.335,0,0,1-.425.233A.356.356,0,0,1,188.517,154.92Z" transform="translate(-177.719 -147.501)" fill="#f28f8f"/>
      <path id="Path_488" data-name="Path 488" d="M194.486,142.883l-.566-.393a.333.333,0,0,1,.472-.1.362.362,0,0,1,.094.49Z" transform="translate(-181.717 -138.214)" fill="#263238"/>
      <path id="Path_489" data-name="Path 489" d="M194.011,146.158a.28.28,0,1,1-.3-.278.288.288,0,0,1,.3.278Z" transform="translate(-181.371 -140.831)" fill="#263238"/>
      <path id="Path_490" data-name="Path 490" d="M190.36,146.33l.045,1.686.889-.275Z" transform="translate(-179.09 -141.163)" fill="#f28f8f"/>
      <path id="Path_491" data-name="Path 491" d="M179.962,157.761c-.716-.094-2.191-.524-2.422-1.1a1.523,1.523,0,0,0,.524.745,7.753,7.753,0,0,0,1.9.8Z" transform="translate(-169.631 -148.785)" fill="#f28f8f"/>
      <path id="Path_492" data-name="Path 492" d="M167.687,186.236a2.226,2.226,0,0,1-1.659-2.716.705.705,0,0,1,.037-.118.726.726,0,0,1,.747-.5h0a2.157,2.157,0,0,1-.923-1.374l-.448-2.666a3.125,3.125,0,0,1,.113-1.292l-1.481-1.714-.275.189a3.71,3.71,0,0,0,.06,2.3l1.47,4.252a24,24,0,0,0-1.486,3.238,9.548,9.548,0,0,0,7.882.524A10.745,10.745,0,0,1,167.687,186.236Z" transform="translate(-159.376 -162.952)" fill="#37474f"/>
      <path id="Path_493" data-name="Path 493" d="M148.055,177.369c1.916-7.83,3.331-10.441,5.659-10.41.679.81.49,3.264-.582,4.753a54.94,54.94,0,0,0-2.776,6.845,25.268,25.268,0,0,0-.692,4.918,1,1,0,0,0,.262.645,5.031,5.031,0,0,1,.721,1.379c.223.409.464.564.4.655a.524.524,0,0,1-.718.052,2.693,2.693,0,0,1-.545-.524,5.488,5.488,0,0,0,.432,1.452c.49,1.109.372,1.673-1.124,1.279-.936-.246-1.525-1.028-1.664-3.279a17.286,17.286,0,0,1-.026-2.493A43.751,43.751,0,0,1,148.055,177.369Z" transform="translate(-147.365 -156.384)" fill="#ffa8a7"/>
    </g>
  </g>
  <g id="freepik--speach-bubbles--inject-1" transform="translate(36.543)">
    <path id="Path_494" data-name="Path 494" d="M426.24,168.9l1.03-.6a.1.1,0,0,0,.05-.045l.189-.33-.611-.354.018.055Z" transform="translate(-357.116 -131.708)" fill="#441ab9"/>
    <path id="Path_495" data-name="Path 495" d="M426.24,168.9l1.03-.6a.1.1,0,0,0,.05-.045l.189-.33-.611-.354.018.055Z" transform="translate(-357.116 -131.708)" opacity="0.2"/>
    <path id="Path_496" data-name="Path 496" d="M424.429,165.077l-.713,1.237a.1.1,0,0,1-.191-.018l-.755-2.176Z" transform="translate(-354.556 -129.155)" fill="#441ab9"/>
    <path id="Path_497" data-name="Path 497" d="M396.8,132.65a1.1,1.1,0,0,1,.5-.865l.406-.233a1.093,1.093,0,0,1,1,0l9.585,5.534a1.1,1.1,0,0,1,.5.862v2.85a1.1,1.1,0,0,1-.5.862l-.406.236a1.116,1.116,0,0,1-1,0l-9.63-5.571a.786.786,0,0,1-.451-.831Z" transform="translate(-335.383 -105.036)" fill="#441ab9"/>
    <path id="Path_498" data-name="Path 498" d="M437.426,157.77a1.1,1.1,0,0,1-.5.862l-.406.236a1.127,1.127,0,0,1-.912.042c.233.087.414-.047.414-.33v-2.85a1.028,1.028,0,0,0-.147-.49l1.4-.81a.991.991,0,0,1,.147.49Z" transform="translate(-364.03 -122.005)" opacity="0.2"/>
    <path id="Path_499" data-name="Path 499" d="M396.88,132.515c.058-.212.262-.28.482-.147l9.585,5.537a1,1,0,0,1,.351.372l1.4-.81a1.025,1.025,0,0,0-.351-.372l-9.583-5.537a1.116,1.116,0,0,0-1,0l-.406.236A1.093,1.093,0,0,0,396.88,132.515Z" transform="translate(-335.452 -105.042)" fill="#fff" opacity="0.4"/>
    <path id="Path_500" data-name="Path 500" d="M417.258,149.952c0,.191-.142.262-.317.163l-4.634-2.682a.682.682,0,0,1-.317-.524c0-.191.142-.262.317-.16l4.634,2.679A.682.682,0,0,1,417.258,149.952Z" transform="translate(-346.601 -116.303)" fill="#fafafa"/>
    <path id="Path_501" data-name="Path 501" d="M410.189,151.683c0,.191-.142.262-.317.16l-7.145-4.139a.682.682,0,0,1-.317-.524c0-.189.142-.262.317-.16l7.145,4.139A.682.682,0,0,1,410.189,151.683Z" transform="translate(-339.532 -116.503)" fill="#fafafa"/>
    <path id="Path_502" data-name="Path 502" d="M426.24,132.894l1.03-.6a.1.1,0,0,0,.05-.045l.189-.33-.611-.354.018.055Z" transform="translate(-357.116 -105.138)" fill="#441ab9"/>
    <path id="Path_503" data-name="Path 503" d="M426.24,132.894l1.03-.6a.1.1,0,0,0,.05-.045l.189-.33-.611-.354.018.055Z" transform="translate(-357.116 -105.138)" opacity="0.2"/>
    <path id="Path_504" data-name="Path 504" d="M424.429,129.059l-.713,1.237a.1.1,0,0,1-.191-.018l-.755-2.178Z" transform="translate(-354.556 -102.578)" fill="#441ab9"/>
    <path id="Path_505" data-name="Path 505" d="M396.792,96.637a1.1,1.1,0,0,1,.5-.862l.406-.236a1.111,1.111,0,0,1,1,0l9.585,5.539a1.106,1.106,0,0,1,.5.865v2.847a1.1,1.1,0,0,1-.5.865l-.406.233a1.1,1.1,0,0,1-1,0l-9.63-5.571a.771.771,0,0,1-.451-.828Z" transform="translate(-335.38 -78.465)" fill="#441ab9"/>
    <path id="Path_506" data-name="Path 506" d="M437.426,121.75a1.1,1.1,0,0,1-.5.865l-.406.233a1.106,1.106,0,0,1-.912.042c.233.089.414-.045.414-.33v-2.847a1.049,1.049,0,0,0-.147-.493l1.4-.81a1.009,1.009,0,0,1,.147.493Z" transform="translate(-364.03 -95.428)" opacity="0.2"/>
    <path id="Path_507" data-name="Path 507" d="M396.88,96.5c.058-.21.262-.278.482-.147l9.585,5.539a.986.986,0,0,1,.351.372l1.4-.81a1,1,0,0,0-.351-.372l-9.583-5.537a1.1,1.1,0,0,0-1,0l-.406.233a1.106,1.106,0,0,0-.482.721Z" transform="translate(-335.452 -78.466)" fill="#fff" opacity="0.4"/>
    <path id="Path_508" data-name="Path 508" d="M417.258,113.936c0,.189-.142.262-.317.16l-4.634-2.682a.674.674,0,0,1-.317-.524c0-.189.142-.262.317-.16l4.634,2.682A.682.682,0,0,1,417.258,113.936Z" transform="translate(-346.601 -89.727)" fill="#fafafa"/>
    <path id="Path_509" data-name="Path 509" d="M410.189,115.672c0,.189-.142.262-.317.16l-7.145-4.139a.682.682,0,0,1-.317-.524c0-.191.142-.262.317-.16l7.145,4.139A.682.682,0,0,1,410.189,115.672Z" transform="translate(-339.532 -89.932)" fill="#fafafa"/>
    <path id="Path_510" data-name="Path 510" d="M175.241,109.761l-1.033-.6a.081.081,0,0,1-.047-.042l-.191-.33.613-.354-.018.052Z" transform="translate(-170.969 -88.071)" fill="#441ab9"/>
    <path id="Path_511" data-name="Path 511" d="M175.241,109.761l-1.033-.6a.081.081,0,0,1-.047-.042l-.191-.33.613-.354-.018.052Z" transform="translate(-170.969 -88.071)" fill="#263238"/>
    <path id="Path_512" data-name="Path 512" d="M176,105.929l.716,1.235a.1.1,0,0,0,.191-.018l.755-2.176Z" transform="translate(-172.467 -85.511)" fill="#37474f"/>
    <path id="Path_513" data-name="Path 513" d="M174.5,73.507a1.1,1.1,0,0,0-.5-.862l-.406-.236a1.117,1.117,0,0,0-1,0l-9.583,5.537a1.1,1.1,0,0,0-.5.865v2.842a1.1,1.1,0,0,0,.5.865l.406.233a1.093,1.093,0,0,0,1,0l9.63-5.555a.786.786,0,0,0,.453-.828Z" transform="translate(-162.52 -61.398)" fill="#37474f"/>
    <path id="Path_514" data-name="Path 514" d="M162.52,98.615a1.1,1.1,0,0,0,.5.865l.406.233a1.116,1.116,0,0,0,.912.042c-.236.089-.414-.045-.414-.33V96.583a1.01,1.01,0,0,1,.147-.493l-1.4-.81a1.033,1.033,0,0,0-.144.493Z" transform="translate(-162.52 -78.361)" fill="#263238"/>
    <path id="Path_515" data-name="Path 515" d="M174.9,73.365c-.058-.212-.249-.278-.48-.147l-9.585,5.55a1.025,1.025,0,0,0-.351.372l-1.4-.807a1,1,0,0,1,.351-.372l9.588-5.552a1.117,1.117,0,0,1,1,0l.406.236a1.1,1.1,0,0,1,.474.721Z" transform="translate(-162.933 -61.398)" fill="#455a64"/>
    <path id="Path_516" data-name="Path 516" d="M180.53,84.978c0,.163.121.223.262.136l5.376-3.109a.585.585,0,0,0,.262-.454c0-.163-.123-.225-.262-.136L180.8,84.525A.579.579,0,0,0,180.53,84.978Z" transform="translate(-175.809 -68.101)" fill="#f0f0f0"/>
    <path id="Path_517" data-name="Path 517" d="M172.28,92.327c0,.163.123.225.262.136L180.08,88.1a.585.585,0,0,0,.262-.454c0-.163-.123-.223-.262-.136l-7.538,4.365A.585.585,0,0,0,172.28,92.327Z" transform="translate(-169.722 -72.598)" fill="#f0f0f0"/>
    <path id="Path_518" data-name="Path 518" d="M175.263,74.391l-1.033-.6a.081.081,0,0,1-.047-.042l-.183-.33.613-.354-.018.052Z" transform="translate(-170.991 -61.973)" fill="#441ab9"/>
    <path id="Path_519" data-name="Path 519" d="M175.263,74.391l-1.033-.6a.081.081,0,0,1-.047-.042l-.183-.33.613-.354-.018.052Z" transform="translate(-170.991 -61.973)" fill="#263238"/>
    <path id="Path_520" data-name="Path 520" d="M176,70.582l.7,1.243a.1.1,0,0,0,.191-.018l.755-2.176Z" transform="translate(-172.467 -59.435)" fill="#37474f"/>
    <path id="Path_521" data-name="Path 521" d="M174.5,38.137a1.1,1.1,0,0,0-.5-.862l-.406-.236a1.116,1.116,0,0,0-1,0l-9.583,5.537a1.1,1.1,0,0,0-.5.865v2.847a1.1,1.1,0,0,0,.5.865l.406.233a1.093,1.093,0,0,0,1,0l9.63-5.571a.786.786,0,0,0,.453-.828Z" transform="translate(-162.52 -35.3)" fill="#37474f"/>
    <path id="Path_522" data-name="Path 522" d="M162.52,63.25a1.1,1.1,0,0,0,.5.865l.406.233a1.116,1.116,0,0,0,.912.042c-.236.089-.414-.045-.414-.33V61.213a1.01,1.01,0,0,1,.147-.493l-1.4-.81a1.033,1.033,0,0,0-.144.493Z" transform="translate(-162.52 -52.263)" fill="#263238"/>
    <path id="Path_523" data-name="Path 523" d="M174.9,37.99c-.06-.212-.262-.278-.482-.147l-9.585,5.542a1.025,1.025,0,0,0-.351.372l-1.4-.807a1,1,0,0,1,.351-.372l9.588-5.539a1.116,1.116,0,0,1,1,0l.406.236a1.109,1.109,0,0,1,.477.716Z" transform="translate(-162.933 -35.3)" fill="#455a64"/>
    <path id="Path_524" data-name="Path 524" d="M180.53,49.608c0,.163.123.223.262.136l5.376-3.109a.585.585,0,0,0,.262-.454c0-.163-.123-.225-.262-.136l-5.365,3.1A.579.579,0,0,0,180.53,49.608Z" transform="translate(-175.809 -42.003)" fill="#f0f0f0"/>
    <path id="Path_525" data-name="Path 525" d="M172.28,56.917c0,.163.123.225.262.136l7.538-4.365a.585.585,0,0,0,.262-.454c0-.163-.123-.223-.262-.136l-7.528,4.365a.585.585,0,0,0-.273.454Z" transform="translate(-169.722 -46.471)" fill="#f0f0f0"/>
    <path id="Path_526" data-name="Path 526" d="M355.58,138.111l1.03-.6a.081.081,0,0,0,.047-.042l.191-.33-.613-.354.018.052Z" transform="translate(-304.977 -108.989)" fill="#441ab9"/>
    <path id="Path_527" data-name="Path 527" d="M355.58,138.111l1.03-.6a.081.081,0,0,0,.047-.042l.191-.33-.613-.354.018.052Z" transform="translate(-304.977 -108.989)" fill="#e0e0e0"/>
    <path id="Path_528" data-name="Path 528" d="M353.762,134.3l-.713,1.235a.107.107,0,0,1-.194-.018l-.755-2.176Z" transform="translate(-302.409 -106.444)" fill="#ebebeb"/>
    <path id="Path_529" data-name="Path 529" d="M326.149,101.857a1.1,1.1,0,0,1,.5-.862l.4-.236a1.116,1.116,0,0,1,1,0l9.591,5.537a1.1,1.1,0,0,1,.5.865v2.847a1.106,1.106,0,0,1-.5.865l-.406.233a1.093,1.093,0,0,1-1,0l-9.63-5.571a.787.787,0,0,1-.453-.828Z" transform="translate(-283.26 -82.316)" fill="#e6e6e6"/>
    <path id="Path_530" data-name="Path 530" d="M337.25,113.328c0,.163-.121.223-.262.136l-5.376-3.109a.59.59,0,0,1-.262-.454c0-.163.123-.225.262-.136l5.376,3.109A.579.579,0,0,1,337.25,113.328Z" transform="translate(-287.098 -89.019)" fill="#fff"/>
    <path id="Path_531" data-name="Path 531" d="M339.412,120.634c0,.163-.123.225-.262.136l-7.538-4.365a.585.585,0,0,1-.262-.454c0-.163.123-.225.262-.136l7.538,4.365A.585.585,0,0,1,339.412,120.634Z" transform="translate(-287.098 -93.483)" fill="#fff"/>
    <path id="Path_532" data-name="Path 532" d="M366.764,126.97a1.106,1.106,0,0,1-.5.865l-.406.233a1.109,1.109,0,0,1-.91.042c.233.089.411-.045.411-.33v-2.847a1.033,1.033,0,0,0-.144-.493l1.4-.81a1.033,1.033,0,0,1,.144.493Z" transform="translate(-311.891 -99.279)" fill="#e0e0e0"/>
    <path id="Path_533" data-name="Path 533" d="M326.22,101.715c.058-.212.249-.278.48-.147l9.585,5.537a1.025,1.025,0,0,1,.351.372l1.4-.807a.965.965,0,0,0-.351-.372l-9.583-5.539a1.111,1.111,0,0,0-1,0l-.409.236A1.1,1.1,0,0,0,326.22,101.715Z" transform="translate(-283.313 -82.316)" fill="#f0f0f0"/>
    <path id="Path_534" data-name="Path 534" d="M355.58,103.164l1.03-.6a.081.081,0,0,0,.047-.042l.191-.33-.613-.354.018.052Z" transform="translate(-304.977 -83.201)" fill="#441ab9"/>
    <path id="Path_535" data-name="Path 535" d="M355.58,103.164l1.03-.6a.081.081,0,0,0,.047-.042l.191-.33-.613-.354.018.052Z" transform="translate(-304.977 -83.201)" fill="#e0e0e0"/>
    <path id="Path_536" data-name="Path 536" d="M353.762,99.3l-.713,1.235a.107.107,0,0,1-.194-.016L352.1,98.34Z" transform="translate(-302.409 -80.619)" fill="#ebebeb"/>
    <path id="Path_537" data-name="Path 537" d="M326.127,66.877a1.1,1.1,0,0,1,.5-.873l.4-.236a1.116,1.116,0,0,1,1,0l9.591,5.547a1.1,1.1,0,0,1,.5.865v2.847a1.1,1.1,0,0,1-.5.865l-.406.233a1.093,1.093,0,0,1-1,0l-9.638-5.571a.786.786,0,0,1-.453-.828Z" transform="translate(-283.238 -56.499)" fill="#e6e6e6"/>
    <path id="Path_538" data-name="Path 538" d="M337.221,78.378c0,.163-.121.225-.262.136l-5.386-3.109a.584.584,0,0,1-.262-.454c0-.163.123-.225.262-.136l5.376,3.109A.579.579,0,0,1,337.221,78.378Z" transform="translate(-287.068 -63.232)" fill="#fff"/>
    <path id="Path_539" data-name="Path 539" d="M339.383,85.687c0,.163-.123.225-.262.136l-7.549-4.365a.584.584,0,0,1-.262-.454c0-.163.123-.223.262-.136l7.538,4.365A.585.585,0,0,1,339.383,85.687Z" transform="translate(-287.068 -67.699)" fill="#fff"/>
    <path id="Path_540" data-name="Path 540" d="M366.764,92.02a1.1,1.1,0,0,1-.5.865l-.406.233a1.109,1.109,0,0,1-.91.042c.233.089.411-.045.411-.33V89.983a1.032,1.032,0,0,0-.144-.493l1.4-.81a1.033,1.033,0,0,1,.144.493Z" transform="translate(-311.891 -73.491)" fill="#e0e0e0"/>
    <path id="Path_541" data-name="Path 541" d="M326.22,66.765c.058-.212.249-.278.48-.147l9.585,5.537a1.025,1.025,0,0,1,.362.372l1.4-.807a.965.965,0,0,0-.354-.372L328.1,65.808a1.111,1.111,0,0,0-1,0l-.409.236a1.1,1.1,0,0,0-.48.721Z" transform="translate(-283.313 -56.528)" fill="#f0f0f0"/>
    <path id="Path_542" data-name="Path 542" d="M355.58,68.214l1.03-.6a.081.081,0,0,0,.047-.042l.191-.33-.613-.354.018.055Z" transform="translate(-304.977 -57.413)" fill="#441ab9"/>
    <path id="Path_543" data-name="Path 543" d="M355.58,68.214l1.03-.6a.081.081,0,0,0,.047-.042l.191-.33-.613-.354.018.055Z" transform="translate(-304.977 -57.413)" fill="#e0e0e0"/>
    <path id="Path_544" data-name="Path 544" d="M353.762,64.379l-.713,1.237a.107.107,0,0,1-.194-.018L352.1,63.42Z" transform="translate(-302.409 -54.853)" fill="#ebebeb"/>
    <path id="Path_545" data-name="Path 545" d="M326.127,31.957a1.106,1.106,0,0,1,.5-.862l.4-.236a1.116,1.116,0,0,1,1,0l9.591,5.537a1.106,1.106,0,0,1,.5.865v2.847a1.1,1.1,0,0,1-.5.865l-.406.233a1.093,1.093,0,0,1-1,0l-9.638-5.571a.786.786,0,0,1-.453-.828Z" transform="translate(-283.238 -30.74)" fill="#e6e6e6"/>
    <path id="Path_546" data-name="Path 546" d="M337.221,43.432c0,.163-.121.225-.262.136l-5.386-3.109a.584.584,0,0,1-.262-.454c0-.163.123-.223.262-.136l5.376,3.109A.579.579,0,0,1,337.221,43.432Z" transform="translate(-287.068 -37.447)" fill="#fff"/>
    <path id="Path_547" data-name="Path 547" d="M339.383,50.737c0,.163-.123.225-.262.139l-7.549-4.365a.593.593,0,0,1-.262-.454c0-.165.123-.225.262-.139l7.538,4.365A.59.59,0,0,1,339.383,50.737Z" transform="translate(-287.068 -41.911)" fill="#fff"/>
    <path id="Path_548" data-name="Path 548" d="M366.764,57.07a1.1,1.1,0,0,1-.5.865l-.406.233a1.109,1.109,0,0,1-.91.042c.233.089.411-.045.411-.33V55.033a1.032,1.032,0,0,0-.144-.493l1.4-.81a1.033,1.033,0,0,1,.144.493Z" transform="translate(-311.891 -47.703)" fill="#e0e0e0"/>
    <path id="Path_549" data-name="Path 549" d="M326.22,31.816c.058-.21.249-.278.48-.147l9.585,5.539a.986.986,0,0,1,.362.372l1.4-.81a.965.965,0,0,0-.354-.372L328.1,30.862a1.093,1.093,0,0,0-1,0l-.409.233a1.1,1.1,0,0,0-.48.721Z" transform="translate(-283.313 -30.742)" fill="#f0f0f0"/>
  </g>
</svg>
