<svg xmlns="http://www.w3.org/2000/svg" width="119.829" height="115.47"><ellipse data-name="freepik--floor--inject-1" cx="59.23" cy="32.776" rx="59.23" ry="32.776" transform="translate(0 49.918)" fill="#f5f5f5"/><g transform="translate(31.332 66.19)" fill="#e0e0e0"><ellipse data-name="freepik--shadow--inject-1" cx="11.15" cy="6.436" rx="11.15" ry="6.436" transform="translate(0 10.744)"/><path data-name="freepik--shadow--inject-1" d="m53.781 15.504 12.162-7.02a1.468 1.468 0 0 1 1.206-.055l12.4 7.159c.341.157.354.438.029.627l-12.379 7.138a1.15 1.15 0 0 1-1.143-.06l-12.311-7.049a.409.409 0 0 1 .037-.739Z"/><path data-name="freepik--shadow--inject-1" d="M42.2 7.179 54.351.159a1.473 1.473 0 0 1 1.208-.055l12.425 7.162c.341.157.354.438.029.624l-12.4 7.138a1.138 1.138 0 0 1-1.14-.058L42.162 7.921a.406.406 0 0 1 .037-.739Z"/><path data-name="freepik--shadow--inject-1" d="m54.503 39.072-33.55-19.4a.377.377 0 0 1 0-.716l20.1-11.626a1.368 1.368 0 0 1 1.24 0l33.55 19.4a.377.377 0 0 1 0 .716l-20.1 11.626a1.36 1.36 0 0 1-1.24 0Z"/></g><g data-name="freepik--plants--inject-1"><path data-name="Path 292" d="M109.242 76.376a13.829 13.829 0 0 1 3.316-6.638c1.793-1.919 4.474-3.193 6.243-2.425 1.649.716 1.287 2.926-.889 4.234s-5.413 2.91-6.521 5.384l-2.149 2.973Z" fill="#441ab9"/><path data-name="Path 293" d="M109.242 76.376a13.829 13.829 0 0 1 3.316-6.638c1.793-1.919 4.474-3.193 6.243-2.425 1.649.716 1.287 2.926-.889 4.234s-5.413 2.91-6.521 5.384l-2.149 2.973Z" opacity=".2"/><path data-name="Path 294" d="M108.954 78.515a.113.113 0 0 0 .11-.084c1.484-5.274 6.167-9.283 8.841-10.038a.115.115 0 1 0-.063-.22c-2.723.768-7.494 4.842-9 10.195a.115.115 0 0 0 .079.144Z" fill="#fff"/><path data-name="Path 295" d="M109.478 82.013a7.894 7.894 0 0 1 3.358-3.3c2.037-1.177 4.527-1.594 5.171-2.585.786-1.187-.178-2.448-2.178-2.359s-5.7 2.509-6.587 6.535Z" fill="#441ab9"/><path data-name="Path 296" d="M109.169 81.053a.118.118 0 0 0 .1-.066c2.013-4.456 5.646-5.791 7.284-5.872a.115.115 0 0 0 .11-.121.113.113 0 0 0-.121-.107c-1.814.087-5.431 1.452-7.483 6a.118.118 0 0 0 .058.155.149.149 0 0 0 .052.011Z" fill="#fff"/></g><path data-name="Path 297" d="M93.201 61.386v12.242a.341.341 0 0 0 .155.262l.417.241a.338.338 0 0 0 .309 0l.417-.241a.343.343 0 0 0 .157-.262V61.386a.181.181 0 0 0-.181-.178h-1.1a.178.178 0 0 0-.174.178Z" fill="#263238"/><path data-name="Path 298" d="M94.477 61.206h-.37a.181.181 0 0 0-.178.178v12.662c0 .1.071.139.155.089l.417-.241a.343.343 0 0 0 .157-.262V61.386a.181.181 0 0 0-.181-.18Z" fill="#37474f"/><path data-name="Path 299" d="M86.176 65.423v12.24a.349.349 0 0 0 .155.262l.419.241a.338.338 0 0 0 .309 0l.417-.241a.341.341 0 0 0 .155-.262v-12.24a.178.178 0 0 0-.178-.178h-1.1a.181.181 0 0 0-.181.178Z" fill="#263238"/><path data-name="Path 300" d="M87.453 65.245h-.37a.178.178 0 0 0-.178.178v12.662c0 .1.068.139.155.089l.417-.241a.341.341 0 0 0 .155-.262V65.423a.178.178 0 0 0-.179-.178Z" fill="#37474f"/><path data-name="Path 301" d="M86.643 56.429a.663.663 0 0 1-.134.485.653.653 0 0 1-.438.246h-.079a.655.655 0 0 1-.653-.574 39.679 39.679 0 0 1 1.452-13.59.548.548 0 0 1 .87-.262c.262.157.469.4.367.695a37.619 37.619 0 0 0-1.385 13Z" fill="#455a64"/><path data-name="Path 302" d="M94.255 58.178a.372.372 0 0 0 .131-.021.419.419 0 0 0 .262-.524c-.97-2.944-5.727-5.563-8.8-5.563a.419.419 0 1 0 0 .836c2.778 0 7.158 2.417 8 4.981a.414.414 0 0 0 .407.291Z" fill="#37474f"/><path data-name="Path 303" d="M94.703 54.361a.372.372 0 0 0 .131-.021.417.417 0 0 0 .262-.524c-1.007-3.059-5.908-5.534-8.967-5.217a.418.418 0 0 0 .086.831c2.71-.278 7.205 1.969 8.086 4.648a.414.414 0 0 0 .4.283Z" fill="#37474f"/><path data-name="Path 304" d="M95.644 51.338a.43.43 0 0 0 .168-.037.417.417 0 0 0 .215-.551c-1.442-3.277-6.553-5.972-9.331-5.586a.419.419 0 1 0 .115.828c2.448-.341 7.163 2.165 8.45 5.094a.419.419 0 0 0 .383.252Z" fill="#37474f"/><path data-name="Path 305" d="M96.693 47.828a.655.655 0 0 1 .262.828 32.175 32.175 0 0 0-2.307 12.552v.634l-.05.052a.262.262 0 0 1-.2.081.786.786 0 0 1-.275-.068.813.813 0 0 1-.134-.042.658.658 0 0 1-.658-.658 33.439 33.439 0 0 1 2.417-13.071.655.655 0 0 1 .93-.312Z" fill="#455a64"/><path data-name="Path 306" d="M94.655 61.688v.16a1.049 1.049 0 0 1-.388.758L87.29 67.65a.8.8 0 0 1-.8.042l-9.84-5.681a.92.92 0 0 1-.414-.718v-.165a.81.81 0 0 1 .435-.676l8.828-4.079a1.033 1.033 0 0 1 .849.039l7.892 4.561a.912.912 0 0 1 .415.715Z" fill="#37474f"/><path data-name="Path 307" d="m94.242 60.972-7.892-4.561a1.033 1.033 0 0 0-.849-.039l-8.828 4.079c-.241.11-.249.307-.021.438l9.84 5.683a.8.8 0 0 0 .8-.042l6.977-5.038a.286.286 0 0 0-.026-.519Z" fill="#441ab9"/><path data-name="Rectangle 51" fill="#ffa8a7" d="M81.542 77.768h1.966v3.366h-1.966z"/><path data-name="Path 308" d="m77.815 76.948-1.963.068-.1-3.56 1.966-.068Z" fill="#ffa8a7"/><path data-name="Path 309" d="M81.542 80.25v-.349a28.628 28.628 0 0 1-1.982 2.829c-.674.613-1.858 1.455-1.835 2.037.037.752 1.109 1.085 2.034.87a5.043 5.043 0 0 0 2.252-1.143 9.821 9.821 0 0 0 .915-1.589c.259-.351.854-.739.993-1.146a2.557 2.557 0 0 0-.121-1.122c-.107-.412-.207-.786-.336-.758v.233a1.683 1.683 0 0 1-1.069.362c-.306.012-.853.015-.851-.224Z" fill="#263238"/><path data-name="Path 310" d="M75.831 76.411c-.1 0-.186.147-.412.391a5.294 5.294 0 0 1-1.311.823c-.737.367-2.663.862-3.31 1.153-.4.183-.3.81.262 1.164a4.979 4.979 0 0 0 3 .246c.658-.147 1.664-.606 2.155-.682a6.055 6.055 0 0 0 1.932-.467c.4-.278.241-.868.128-1.376-.126-.553-.3-1.4-.485-1.366v.176a2.111 2.111 0 0 1-1.958.241Z" fill="#263238"/><path data-name="Path 311" d="M91.424 57.304c.43 3.036-.149 3.62-3.035 6.53-1.554 1.573-4.055 3.859-4.055 3.859s.037.97.055 3.146c.018 1.916-.786 8.15-.786 8.15a2.724 2.724 0 0 1-2.2-.021s-.4-4.637-.624-7.054c-.3-3.277-.451-4.918-.283-5.626.118-.5 2.922-5.177 2.922-5.177l1.033-.655-6.43 4.1a21.36 21.36 0 0 1 .181 2.773c-.068 2.6-.388 7.794-.388 7.794s-1.429.64-2.139.089c0 0-1.8-11.361-1.8-12.292 0-1.418 6.152-5.647 7.316-6.632.666-.561 1.408-1.161 1.408-1.161Z" fill="#37474f"/><path data-name="Path 312" d="M84.457 60.456a4.723 4.723 0 0 1-1.777-2.244 4.485 4.485 0 0 0 .577 1.822c.375.585-5.242 4.512-5.242 4.512Z" fill="#263238"/><path data-name="Path 313" d="M108.046 69.99v12.24a.348.348 0 0 0 .155.262l.417.241a.362.362 0 0 0 .312 0l.417-.241a.341.341 0 0 0 .155-.262V69.99a.178.178 0 0 0-.178-.178h-1.1a.178.178 0 0 0-.178.178Z" fill="#263238"/><path data-name="Path 314" d="M109.323 69.812h-.37a.176.176 0 0 0-.178.178v12.654c0 .1.068.139.155.092l.417-.241a.341.341 0 0 0 .155-.262V69.99a.178.178 0 0 0-.179-.178Z" fill="#37474f"/><path data-name="Path 315" d="M101.024 74.03v12.24a.341.341 0 0 0 .155.262l.417.239a.338.338 0 0 0 .309 0l.419-.239a.349.349 0 0 0 .155-.262V74.03a.178.178 0 0 0-.181-.178h-1.1a.176.176 0 0 0-.178.178Z" fill="#263238"/><path data-name="Path 316" d="M102.298 73.852h-.364a.178.178 0 0 0-.181.178v12.662c0 .1.071.139.155.089l.419-.239a.349.349 0 0 0 .155-.262V74.03a.178.178 0 0 0-.184-.178Z" fill="#37474f"/><path data-name="Path 317" d="M101.488 65.047a.658.658 0 0 1-.571.734h-.081a.658.658 0 0 1-.653-.577 39.669 39.669 0 0 1 1.455-13.587.544.544 0 0 1 .868-.262c.262.157.469.4.367.692a37.569 37.569 0 0 0-1.385 13Z" fill="#455a64"/><path data-name="Path 318" d="M109.103 66.784a.473.473 0 0 0 .131-.021.42.42 0 0 0 .262-.524c-.967-2.941-5.727-5.56-8.8-5.56a.417.417 0 0 0 0 .834c2.778 0 7.161 2.42 8 4.981a.422.422 0 0 0 .407.29Z" fill="#37474f"/><path data-name="Path 319" d="M109.55 62.968a.472.472 0 0 0 .131-.021.417.417 0 0 0 .262-.524c-1-3.059-5.908-5.534-8.967-5.219a.418.418 0 0 0 .086.831c2.71-.275 7.205 1.969 8.089 4.648a.414.414 0 0 0 .399.285Z" fill="#37474f"/><path data-name="Path 320" d="M110.482 59.942a.427.427 0 0 0 .168-.034.417.417 0 0 0 .212-.551c-1.439-3.279-6.553-5.972-9.331-5.586a.417.417 0 0 0 .115.826c2.448-.338 7.163 2.165 8.45 5.1a.419.419 0 0 0 .385.249Z" fill="#37474f"/><path data-name="Path 321" d="M111.543 56.43a.658.658 0 0 1 .262.831 32.167 32.167 0 0 0-2.3 12.552v.632l-.05.052a.262.262 0 0 1-.2.081.786.786 0 0 1-.275-.066.585.585 0 0 0-.134-.042.655.655 0 0 1-.655-.658 33.439 33.439 0 0 1 2.414-13.071.655.655 0 0 1 .93-.312Z" fill="#455a64"/><path data-name="Path 322" d="M109.501 70.294v.16a1.048 1.048 0 0 1-.388.758l-6.975 5.044a.786.786 0 0 1-.786.039l-9.84-5.681a.912.912 0 0 1-.414-.716v-.165a.81.81 0 0 1 .432-.676l8.831-4.079a1.027 1.027 0 0 1 .847.037l7.892 4.561a.92.92 0 0 1 .4.718Z" fill="#37474f"/><path data-name="Path 323" d="m109.087 69.576-7.892-4.561a1.027 1.027 0 0 0-.847-.037l-8.83 4.079c-.239.11-.246.307-.018.438l9.84 5.681a.786.786 0 0 0 .786-.039l6.975-5.041a.286.286 0 0 0-.013-.519Z" fill="#441ab9"/><path data-name="Path 324" d="M97.125 79.351c.178.121.38.262.4.459a1.974 1.974 0 0 1-.288 1.19 3.82 3.82 0 0 0-.359 1.974c.042.577.291 2.016-.3 2.729s-2.259 1.353-2.477.309 1-5.482 1-5.482Z" fill="#263238"/><path data-name="Path 325" d="M96.309 80.222a15.809 15.809 0 0 0-.225 2.386 2.386 2.386 0 0 1-.506 1.835c-.38.32-1.025.406-.9-.212s.43-3.694.43-3.694Z" fill="#9a4a4d"/><path data-name="Path 326" d="M97.18 64.121s-2.684 2.611-4.157 3.843-2.849 2.425-3.027 3.206c-.189.826.262 1.861 1.329 3.749l2.238 3.932 2.134-6.91 4.346-4.027Z" fill="#37474f"/><path data-name="Path 327" d="M94.394 86.033c.157.063.212.414.249.668s.294.551 0 1.017-.9.632-1.29 1.269-.59 1.507-1.953 1.866a2.75 2.75 0 0 1-2.713-.443c-.278-.4-.066-.8.786-1.345.91-.579 1.166-.75 1.166-.75Z" fill="#263238"/><path data-name="Path 328" d="M92.774 83.273s-.577 1.874-.941 2.737a7.031 7.031 0 0 1-1.274 2.2c-.147.17-.48.485-.6.624a.262.262 0 0 0 .029.409 2.333 2.333 0 0 0 2.286-.184 10.9 10.9 0 0 0 1.468-1.709c.212-.218.414-.422.558-.574a.577.577 0 0 0 .144-.551c-.016-.055-.031-.121-.05-.2a8.293 8.293 0 0 1 .44-2.1Z" fill="#b16668"/><path data-name="Path 329" d="M106.699 64.121a6.3 6.3 0 0 1-.047 4.624c-.461 1.408-2.307 2.957-3.9 3.9s-4.052 2.1-4.529 2.312-.524.5-.459 1.418a8.5 8.5 0 0 1-1.256 4.289 70.136 70.136 0 0 0-1.672 3.269 2.125 2.125 0 0 1-2.147-.524s1.706-9.057 2.1-10.253 4.891-5.073 4.891-5.073-2.149-2.6-2.508-3.974Z" fill="#37474f"/><path data-name="Path 330" d="M94.171 73.744a6.01 6.01 0 0 1 1.979-2.968c.695-.661 2.474-2.26 3.093-2.815a7.6 7.6 0 0 1-.446-1.311s.354.634.663 1.114l.194.286.031.042v.013c-.262.225-4.49 3.9-4.88 5.059-.225.663-.849 3.749-1.363 6.365.031-.39.5-4.635.729-5.785Z" opacity=".2"/><path data-name="Path 331" d="M85.495 86.335v17.391a.433.433 0 0 0 .2.341l.524.307a.438.438 0 0 0 .4 0l.524-.3a.443.443 0 0 0 .2-.343V86.335a.228.228 0 0 0-.228-.228h-1.4a.228.228 0 0 0-.22.228Z" fill="#263238"/><path data-name="Path 332" d="M87.11 86.107h-.469a.225.225 0 0 0-.225.228v17.926c0 .126.086.176.2.113l.524-.3a.443.443 0 0 0 .2-.343V86.335a.228.228 0 0 0-.23-.228Z" fill="#37474f"/><path data-name="Path 333" d="M103.557 75.912v17.391a.433.433 0 0 0 .2.341l.524.307a.432.432 0 0 0 .393 0l.524-.3a.443.443 0 0 0 .2-.343V75.912a.228.228 0 0 0-.228-.228h-1.403a.228.228 0 0 0-.215.228Z" fill="#263238"/><path data-name="Path 334" d="M105.176 75.684h-.469a.225.225 0 0 0-.225.228v17.922c0 .126.086.176.2.113l.524-.3a.443.443 0 0 0 .2-.343V75.912a.228.228 0 0 0-.223-.228Z" fill="#37474f"/><path data-name="Path 335" d="M53.897 68.325v17.063a.438.438 0 0 0 .2.341l.524.307a.438.438 0 0 0 .4 0l.524-.307a.438.438 0 0 0 .2-.341V68.325a.225.225 0 0 0-.228-.225h-1.381a.225.225 0 0 0-.228.225Z" fill="#263238"/><path data-name="Path 336" d="M55.517 68.1h-.469a.225.225 0 0 0-.228.225v17.6c0 .126.089.178.2.115l.524-.307a.438.438 0 0 0 .2-.341V68.325a.225.225 0 0 0-.227-.225Z" fill="#37474f"/><path data-name="Path 337" d="m85.835 87.48-33.55-19.4a1.374 1.374 0 0 1-.621-1.075v-.249a1.363 1.363 0 0 1 .621-1.072l20.1-11.629a1.381 1.381 0 0 1 1.242 0l33.55 19.4a1.368 1.368 0 0 1 .621 1.075v.249a1.374 1.374 0 0 1-.621 1.075l-20.1 11.626a1.376 1.376 0 0 1-1.24 0Z" fill="#441ab9"/><path data-name="Path 338" d="M107.795 74.531v.249a1.363 1.363 0 0 1-.621 1.072l-20.1 11.629a1.259 1.259 0 0 1-.608.144v-1.68a1.258 1.258 0 0 0 .621-.149l20.09-11.619c.3-.173.338-.438.113-.637a1.387 1.387 0 0 1 .505.991Z" opacity=".35"/><path data-name="Path 339" d="M86.454 87.625a1.272 1.272 0 0 1-.619-.149l-33.55-19.4a1.361 1.361 0 0 1-.619-1.075v-.246a1.4 1.4 0 0 1 .5-1c-.22.2-.186.467.115.637l33.55 19.4a1.355 1.355 0 0 0 .619.147Z" opacity=".45"/><path data-name="Path 340" d="m85.835 85.79-33.55-19.4c-.343-.2-.343-.524 0-.716l20.1-11.629a1.376 1.376 0 0 1 1.24 0l33.55 19.4a.377.377 0 0 1 0 .716l-20.1 11.629a1.376 1.376 0 0 1-1.24 0Z" fill="#441ab9"/><path data-name="Path 341" d="m85.835 85.79-33.55-19.4c-.343-.2-.343-.524 0-.716l20.1-11.629a1.376 1.376 0 0 1 1.24 0l33.55 19.4a.377.377 0 0 1 0 .716l-20.1 11.629a1.376 1.376 0 0 1-1.24 0Z" opacity=".2"/><path data-name="Path 342" d="M84.716 42.49s-1.122-.346-2.058 1.127c-.412.65-1.486 2.475-2.194 3.67-.385.655-.658 1.127-.658 1.127s-4.32-2.291-4.561-2.59a2.555 2.555 0 0 1-.262-1.235 3.565 3.565 0 0 1 .168-1.214c.06-.419-.543-.322-.734-.155a1.775 1.775 0 0 0-.309.448c-.1.157-.262.666-.451.7s-.419-.173-.524-.262a7 7 0 0 1-1.13-1.311.638.638 0 0 0-.262-.225.626.626 0 0 0-.524.139 1.222 1.222 0 0 0-.385.346 1.091 1.091 0 0 0-.134.346 2.529 2.529 0 0 0 .731 2.15 7.568 7.568 0 0 0 1.767 1.573c.393.262.912.485 1.358.726s5.3 4.3 5.979 3.843a11.942 11.942 0 0 0 2.173-2.189 34.992 34.992 0 0 0 2.134-3.379 4.487 4.487 0 0 0-.124-3.635Z" fill="#ffa8a7"/><path data-name="Path 343" d="M86.687 42.535a6.077 6.077 0 0 0-2.037-.451 2.221 2.221 0 0 0-1.984 1.227c-.786 1.261-2.1 3.442-2.1 3.442a6.291 6.291 0 0 0 2.527 2.7l2.393-3.615Z" fill="#441ab9"/><g data-name="Group 47" opacity=".1"><path data-name="Path 344" d="M86.687 42.535a6.077 6.077 0 0 0-2.037-.451 2.221 2.221 0 0 0-1.984 1.227c-.786 1.261-2.1 3.442-2.1 3.442a6.291 6.291 0 0 0 2.527 2.7l2.393-3.615Z"/></g><path data-name="Path 345" d="M88.621 42.302c.231.055 2.147.506 2.991.786v6.472l-.039 8.279c-1.392 1.515-8.388.826-9.255-2.4v-9.7a3.329 3.329 0 0 1 3.234-3.544Z" fill="#441ab9"/><path data-name="Path 346" d="m91.612 50.9-.807-2.873.789 5.644Z" opacity=".1"/><path data-name="Path 347" d="M89.289 34.38a1.048 1.048 0 0 1 .875.307c.377.385.3 1.1 0 2.734L89 37.555Z" fill="#263238"/><path data-name="Path 348" d="M82.509 33.906a1.835 1.835 0 0 1-.729-.147c-.356-.207-.451.2-.262.553a1.664 1.664 0 0 0 1.35.9c0-.05.333-.907.333-.907Z" fill="#263238"/><path data-name="Path 349" d="M88.744 37.555c.173.1.419-.228.632-.451a.751.751 0 0 1 1.255.2 1.578 1.578 0 0 1-.854 1.9c-.944.3-1.085-.309-1.085-.309l-.071 3.408a3.04 3.04 0 0 1-2.291 1.738c-1.672.225-1.329-1.153-.786-1.835v-1.045a6.045 6.045 0 0 1-1.271.066 1.733 1.733 0 0 1-1.342-1.408 10.144 10.144 0 0 1-.178-4.551c.315-2.6 3.337-2.621 4.98-1.6s1.011 3.887 1.011 3.887Z" fill="#ffa8a7"/><path data-name="Path 350" d="M88.744 37.849c.086 0 .417-.545.632-.742.3-.262-.087-2.724-.087-2.724a1.677 1.677 0 0 0-.288-1.549c-.59-.616-1.727-.524-2.563-.543a7.466 7.466 0 0 1-2.98-.6c-1.185-.524-1.274-.574-1.421-.055a2.907 2.907 0 0 0 .5 2.511l.59.215a2.834 2.834 0 0 0 1.421.417 16.25 16.25 0 0 0 3.061-.058c.322-.045.391.262.564 1.117.152.741.277 2.002.571 2.011Z" fill="#263238"/><path data-name="Path 351" d="m89.287 34.569 1.048-.558a.577.577 0 0 0-.786-.262.621.621 0 0 0-.262.82Z" fill="#263238"/><path data-name="Path 352" d="M85.555 41.177a12.022 12.022 0 0 0 2.1-.6 1.806 1.806 0 0 0 .75-.742 2.462 2.462 0 0 1-.425.876c-.4.506-2.414.878-2.414.878Z" fill="#f28f8f"/><path data-name="Path 353" d="M85.321 37.153a.309.309 0 1 0 .309-.322.317.317 0 0 0-.309.322Z" fill="#263238"/><path data-name="Path 354" d="m85.649 35.982.663.367a.4.4 0 0 0-.155-.524.37.37 0 0 0-.508.157Z" fill="#263238"/><path data-name="Path 355" d="m85.277 39.298-.708.262a.372.372 0 0 0 .482.236.4.4 0 0 0 .226-.498Z" fill="#f28f8f"/><path data-name="Path 356" d="m82.825 36.244.605-.467a.367.367 0 0 0-.524-.081.4.4 0 0 0-.081.548Z" fill="#263238"/><path data-name="Path 357" d="M82.9 36.964a.31.31 0 1 0 .619 0 .312.312 0 0 0-.309-.32.317.317 0 0 0-.31.32Z" fill="#263238"/><path data-name="Path 358" d="m84.425 36.771-.1 1.866-.975-.333Z" fill="#f28f8f"/><path data-name="Path 359" d="M94.948 53.752a59.191 59.191 0 0 0-1.6-7.762l-2.406 2.522 1.431 5.314a19.226 19.226 0 0 1-.786 3.835.993.993 0 0 1-.464.524 5.534 5.534 0 0 0-1.258 1.049c-.346.317-.626.383-.592.493a.524.524 0 0 0 .666.286 3.8 3.8 0 0 0 .8-.367 4.98 4.98 0 0 1-.888 1.311c-.831.889-.9 1.465.647 1.573.97.076 1.785-.472 2.66-2.564a22.387 22.387 0 0 0 .81-2.273 36.9 36.9 0 0 0 .98-3.941Z" fill="#ffa8a7"/><path data-name="Path 360" d="M90.419 46.665a3.694 3.694 0 0 1 .385-3.812c1.782.3 2.233 1.146 2.723 2.8a81.944 81.944 0 0 1 1.135 4.213 4.514 4.514 0 0 1-3.305 1.083Z" fill="#441ab9"/><path data-name="Path 361" d="M90.419 46.665a3.694 3.694 0 0 1 .385-3.812c1.782.3 2.233 1.146 2.723 2.8a81.944 81.944 0 0 1 1.135 4.213 4.514 4.514 0 0 1-3.305 1.083Z" opacity=".1"/><path data-name="Path 362" d="m87.552 66.081 4.886 2.574.1.157v.128a.183.183 0 0 1-.1.157l-6.44 3.717a.357.357 0 0 1-.336 0l-4.775-2.753v-.126Z" fill="#263238"/><path data-name="Path 363" d="M85.83 72.732a.346.346 0 0 0 .168-.042l6.44-3.72a.173.173 0 0 0 0-.315l-4.658-2.7-6.893 3.974 4.776 2.75a.346.346 0 0 0 .167.053Z" fill="#455a64"/><path data-name="Path 364" d="m87.78 65.586 4.616 2.67.05.066v.5a.079.079 0 0 1-.05.066l-6.451 3.72a.262.262 0 0 1-.231 0l-4.618-2.666v-.5Z" fill="#ebebeb"/><path data-name="Path 365" d="m81.096 69.434.058.031.752.435.139.081 3.67 2.118a.262.262 0 0 0 .231 0l6.44-3.72a.068.068 0 0 0 0-.131l-.063-.037-4.555-2.621-6.613 3.817h-.013Z" fill="#f0f0f0"/><path data-name="Path 366" d="M85.83 72.129v.5a.233.233 0 0 0 .115-.026l6.44-3.72a.081.081 0 0 0 .045-.066v-.5a.081.081 0 0 1-.045.066l-6.44 3.72a.233.233 0 0 1-.115.026Z" fill="#e0e0e0"/><path data-name="Path 367" d="m81.096 69.369.833.48.128.076 3.656 2.1a.262.262 0 0 0 .231 0l5.766-3.329c.052-.029.1-.055.144-.084a1.371 1.371 0 0 0 .467-.406v-.016a.13.13 0 0 0 .016-.034.1.1 0 0 0-.081-.118 2.119 2.119 0 0 1-.435-.181l-4.042-2.336Z" fill="#fafafa"/><path data-name="Path 368" d="M81.959 69.311c.058.034.058.089 0 .126a.238.238 0 0 1-.215 0c-.06-.037-.06-.092 0-.126a.238.238 0 0 1 .215 0Z" opacity=".1"/><path data-name="Path 369" d="M81.122 69.243a.718.718 0 0 0 0 .108l.073-.042a.522.522 0 0 1 0-.066.294.294 0 0 1 .107-.262.157.157 0 0 1 .079-.018.275.275 0 0 1 .131.039.786.786 0 0 1 .322.461.191.191 0 0 0 .079 0 .883.883 0 0 0-.362-.524.283.283 0 0 0-.288-.021.367.367 0 0 0-.141.325Z" fill="#263238"/><path data-name="Path 370" d="M81.136 69.392v.018h.013Z" fill="#263238"/><path data-name="Path 371" d="M82.603 68.939a.066.066 0 0 1 0 .123.239.239 0 0 1-.215 0 .066.066 0 0 1 0-.123.239.239 0 0 1 .215 0Z" opacity=".1"/><path data-name="Path 372" d="M81.767 68.871a.743.743 0 0 0 0 .107l.076-.042a.586.586 0 0 1 0-.065.288.288 0 0 1 .11-.262.144.144 0 0 1 .076-.021.283.283 0 0 1 .131.042.786.786 0 0 1 .322.461.192.192 0 0 0 .079 0 .9.9 0 0 0-.362-.524.288.288 0 0 0-.288-.018.367.367 0 0 0-.144.322Z" fill="#263238"/><path data-name="Path 373" d="M83.248 68.567c.06.034.06.089 0 .123a.238.238 0 0 1-.215 0 .066.066 0 0 1 0-.123.238.238 0 0 1 .215 0Z" opacity=".1"/><path data-name="Path 374" d="M82.412 68.484a.77.77 0 0 0 0 .107l.076-.045a.515.515 0 0 1 0-.063.3.3 0 0 1 .11-.262.157.157 0 0 1 .076-.021.241.241 0 0 1 .131.042.786.786 0 0 1 .325.461.263.263 0 0 0 .079 0 .91.91 0 0 0-.362-.524.28.28 0 0 0-.288-.018.364.364 0 0 0-.147.323Z" fill="#263238"/><path data-name="Path 375" d="M83.893 68.194c.06.034.06.089 0 .123a.233.233 0 0 1-.212 0c-.06-.034-.06-.089 0-.123a.233.233 0 0 1 .212 0Z" opacity=".1"/><path data-name="Path 376" d="M83.063 68.126a.77.77 0 0 0 0 .107l.076-.045a.5.5 0 0 1 0-.063.294.294 0 0 1 .107-.262.157.157 0 0 1 .076-.021.278.278 0 0 1 .134.039.821.821 0 0 1 .322.464.261.261 0 0 0 .079 0 .91.91 0 0 0-.362-.524.281.281 0 0 0-.288-.018.364.364 0 0 0-.144.323Z" fill="#263238"/><path data-name="Path 377" d="M84.541 67.822a.066.066 0 0 1 0 .123.238.238 0 0 1-.215 0c-.06-.034-.06-.089 0-.123a.223.223 0 0 1 .215 0Z" opacity=".1"/><path data-name="Path 378" d="M83.701 67.754a.523.523 0 0 0 0 .107l.073-.045a.5.5 0 0 1 0-.063.294.294 0 0 1 .107-.262.159.159 0 0 1 .079-.021.275.275 0 0 1 .131.039.81.81 0 0 1 .322.461.2.2 0 0 0 .079 0 .889.889 0 0 0-.362-.524.283.283 0 0 0-.288-.021.372.372 0 0 0-.142.328Z" fill="#263238"/><path data-name="Path 379" d="M85.185 67.439a.068.068 0 0 1 0 .126.238.238 0 0 1-.215 0 .066.066 0 0 1 0-.126.238.238 0 0 1 .215 0Z" opacity=".1"/><path data-name="Path 380" d="M84.345 67.382a.707.707 0 0 0 0 .1l.073-.042a.5.5 0 0 1 0-.063.3.3 0 0 1 .107-.262.157.157 0 0 1 .079-.018.276.276 0 0 1 .131.039.787.787 0 0 1 .322.461.192.192 0 0 0 .079 0 .889.889 0 0 0-.362-.524.283.283 0 0 0-.288-.021.367.367 0 0 0-.141.33Z" fill="#263238"/><path data-name="Path 381" d="M85.83 67.075a.068.068 0 0 1 0 .126.239.239 0 0 1-.215 0 .068.068 0 0 1 0-.126.238.238 0 0 1 .215 0Z" opacity=".1"/><path data-name="Path 382" d="M84.994 67.01a.707.707 0 0 0 0 .1l.076-.042a.515.515 0 0 1 0-.063.291.291 0 0 1 .11-.262.15.15 0 0 1 .076-.018.263.263 0 0 1 .131.039.816.816 0 0 1 .325.461.2.2 0 0 0 .079 0 .9.9 0 0 0-.364-.524.278.278 0 0 0-.286-.021.37.37 0 0 0-.147.33Z" fill="#263238"/><path data-name="Path 383" d="M86.47 66.703c.06.034.06.089 0 .123a.218.218 0 0 1-.212 0c-.06-.034-.06-.089 0-.123a.233.233 0 0 1 .212 0Z" opacity=".1"/><path data-name="Path 384" d="M85.638 66.634a.726.726 0 0 0 0 .107l.076-.038a.539.539 0 0 1 0-.066.294.294 0 0 1 .107-.262.157.157 0 0 1 .076-.021.283.283 0 0 1 .134.042.823.823 0 0 1 .322.461.2.2 0 0 0 .079 0 .894.894 0 0 0-.362-.524.283.283 0 0 0-.288-.021.367.367 0 0 0-.144.322Z" fill="#263238"/><path data-name="Path 385" d="M87.12 66.332c.06.034.06.089 0 .123a.233.233 0 0 1-.212 0c-.06-.034-.06-.089 0-.123a.233.233 0 0 1 .212 0Z" opacity=".1"/><path data-name="Path 386" d="M86.283 66.263a.743.743 0 0 0 0 .107l.076-.045a.515.515 0 0 1 0-.063.294.294 0 0 1 .107-.262.16.16 0 0 1 .079-.021.283.283 0 0 1 .131.042.786.786 0 0 1 .322.461.263.263 0 0 0 .079 0 .909.909 0 0 0-.362-.524.288.288 0 0 0-.288-.018.364.364 0 0 0-.144.323Z" fill="#263238"/><path data-name="Path 387" d="M87.781 65.958a.066.066 0 0 1 0 .123.238.238 0 0 1-.215 0c-.06-.034-.06-.089 0-.123a.238.238 0 0 1 .215 0Z" opacity=".1"/><path data-name="Path 388" d="M86.931 65.89a.78.78 0 0 0 0 .107l.073-.045a.5.5 0 0 1 0-.063.294.294 0 0 1 .107-.262.16.16 0 0 1 .079-.021.276.276 0 0 1 .131.039.787.787 0 0 1 .322.464.261.261 0 0 0 .079 0 .9.9 0 0 0-.362-.524.28.28 0 0 0-.288-.018.362.362 0 0 0-.141.323Z" fill="#263238"/><path data-name="Path 389" d="M86.469 71.371a.06.06 0 0 1-.037 0l-3.552-2.053a.073.073 0 0 1-.029-.1.076.076 0 0 1 .1-.026l3.554 2.053a.076.076 0 0 1-.039.139Z" fill="#ebebeb"/><path data-name="Path 390" d="M86.904 71.125a.071.071 0 0 1-.037 0l-3.544-2.06a.075.075 0 0 1 .073-.131l3.554 2.053a.075.075 0 0 1-.047.139Z" fill="#ebebeb"/><path data-name="Path 391" d="M87.337 70.876a.073.073 0 0 1-.039 0l-3.552-2.05a.076.076 0 0 1 .073-.131l3.554 2.053a.076.076 0 0 1 .026.1.073.073 0 0 1-.062.028Z" fill="#ebebeb"/><path data-name="Path 392" d="M87.78 70.627h-.039l-3.552-2.053a.075.075 0 0 1 .076-.128l3.552 2.05a.073.073 0 0 1-.037.139Z" fill="#ebebeb"/><path data-name="Path 393" d="M88.197 70.381a.088.088 0 0 1-.037 0l-3.554-2.052a.075.075 0 0 1 .076-.128l3.552 2.053a.071.071 0 0 1 .026.1.068.068 0 0 1-.063.027Z" fill="#ebebeb"/><path data-name="Path 394" d="M88.627 70.129a.06.06 0 0 1-.037 0l-3.554-2.053a.075.075 0 0 1 .076-.128l3.552 2.053a.073.073 0 0 1 .029.1.079.079 0 0 1-.066.028Z" fill="#ebebeb"/><path data-name="Path 395" d="M89.056 69.882a.06.06 0 0 1-.037 0l-3.554-2.05a.076.076 0 0 1 .076-.131l3.549 2.042a.073.073 0 0 1-.037.139Z" fill="#ebebeb"/><path data-name="Path 396" d="M89.483 69.633a.066.066 0 0 1-.037 0l-3.552-2.05a.074.074 0 0 1 .073-.128l3.554 2.05a.068.068 0 0 1-.039.128Z" fill="#ebebeb"/><path data-name="Path 397" d="M89.919 69.387a.111.111 0 0 1-.039 0l-3.552-2.053a.074.074 0 1 1 .073-.128l3.554 2.05a.076.076 0 0 1-.037.142Z" fill="#ebebeb"/><path data-name="Path 398" d="M90.349 69.138a.074.074 0 0 1-.039 0l-3.548-2.053a.074.074 0 0 1 .073-.128l3.554 2.055a.066.066 0 0 1-.037.126Z" fill="#ebebeb"/><path data-name="Path 399" d="M90.778 68.889a.06.06 0 0 1-.037 0l-3.554-2.05a.076.076 0 0 1-.026-.1.073.073 0 0 1 .1-.029l3.552 2.042a.073.073 0 0 1 .026.1.071.071 0 0 1-.061.037Z" fill="#ebebeb"/><path data-name="Path 400" d="M91.208 68.64a.06.06 0 0 1-.037 0l-3.554-2.05a.076.076 0 0 1 .076-.131l3.552 2.053a.073.073 0 0 1 .029.1.079.079 0 0 1-.066.028Z" fill="#ebebeb"/><path data-name="Path 401" d="M91.638 68.391a.085.085 0 0 1-.037 0l-3.559-2.06a.076.076 0 0 1-.026-.1.073.073 0 0 1 .1-.026l3.552 2.05a.073.073 0 0 1-.037.139Z" fill="#ebebeb"/><path data-name="Path 402" d="M86.04 71.634a.109.109 0 0 1-.039 0l-3.757-2.169a.076.076 0 1 1 .073-.131l3.759 2.173a.076.076 0 0 1-.037.142Z" fill="#441ab9"/><g data-name="Group 48" opacity=".25" fill="#455a64"><path data-name="Path 403" d="M84.247 68.986a.524.524 0 0 0 .181-.186.175.175 0 0 1 .079-.018c.1.013.018.055 0 .094a.018.018 0 0 0 .021.021c.073 0 .246-.055.2.063v.021s.121.021.11.047 0 .021.016.021a2.2 2.2 0 0 1 .228 0 1.043 1.043 0 0 1 .1.013c.024.029-.013.086-.024.1s0 .021 0 .026.068.042.042.084 0 .024 0 .026c.1.026.262-.055.3.063.018.073 0 .089.1.081.016 0 .026-.031 0-.031-.094 0-.024-.11-.076-.147s-.186.034-.244 0 0-.042-.024-.084-.034 0-.039-.016-.016-.016-.018-.016a.042.042 0 0 0 0-.026c0-.018.013-.018.016-.029.021-.11-.155-.084-.225-.089a1 1 0 0 1-.128 0v-.029s-.1-.039-.1-.045.021-.039 0-.063a.456.456 0 0 0-.2-.024h-.034a.039.039 0 0 0 .031-.031v-.042c0-.018-.034-.037-.066-.039a.2.2 0 0 0-.092.018.173.173 0 0 0 .013-.1c-.026-.107-.147-.029-.21 0-.016 0-.018.034 0 .029a.464.464 0 0 1 .136-.042c.034.005.016.1-.018.149l-.071.037a.31.31 0 0 0-.144.092c.004.098.069.098.14.072Zm.037-.113a.286.286 0 0 0 .055-.029.234.234 0 0 1-.092.1s-.076.029-.055 0a.233.233 0 0 1 .092-.068Z"/><path data-name="Path 404" d="M85.778 69.847v.013c.084.026.162-.071.191-.17.031 0 .1-.013.107.037a.365.365 0 0 0-.016.05v.016c.047 0 .194-.052.17.026a.016.016 0 0 0 0 .018c.037.026.121-.018.134.039s-.052.052-.021.092.065 0 .092 0 .034-.024.052-.016 0 .018 0 .026a.027.027 0 0 0 .021.029c.021.008.029 0 .042 0s.018-.016.029-.016a.134.134 0 0 1 .058.016s.081.037.073.021-.037.063 0 .094.149 0 .181 0 .031-.034 0-.034h-.086c-.073-.031-.055-.055-.039-.092s0-.024-.016-.021-.084-.047-.121-.045a.175.175 0 0 0-.06.021c-.06 0-.031-.018-.031-.058s-.013-.016-.021-.013-.121.081-.123 0c0 0 .037-.034.039-.05a.058.058 0 0 0-.047-.055.184.184 0 0 0-.073 0c-.092 0-.013 0-.045-.026a.089.089 0 0 0-.086-.026h-.06c-.013 0-.016 0-.018-.031s.018-.039 0-.066a.071.071 0 0 0-.081-.034.339.339 0 0 0-.081.029c0-.068 0-.123-.076-.123-.016 0-.031.031 0 .037s.047.06.034.113c-.041.064-.117.132-.122.199Zm.081-.063c0-.013.031-.037.058-.058a.1.1 0 0 1 0 .024c-.018.013-.073.084-.058.034Z"/><path data-name="Path 405" d="M84.731 70.26a.524.524 0 0 0 .181-.186.186.186 0 0 1 .081-.021c.1.016.016.055 0 .094s0 .026.018.024c.073 0 .262-.055.2.063a.016.016 0 0 0 0 .021c.024 0 .123.021.11.045a.018.018 0 0 0 .016.024 2.254 2.254 0 0 1 .231 0 .441.441 0 0 1 .1.013c.024.026-.016.087-.026.1a.018.018 0 0 0 0 .026c.039.018.068.042.042.084a.018.018 0 0 0 0 .026c.1.026.275-.055.3.063.016.071 0 .089.094.081.016 0 .029-.031 0-.034-.094 0-.026-.108-.079-.144s-.184.034-.244 0 0-.042-.024-.084-.034 0-.039-.018-.013-.013-.016-.013 0 0 0-.026 0-.018.013-.031c.024-.107-.152-.081-.223-.089a.723.723 0 0 1-.131 0v-.031c0-.005-.1-.037-.1-.042s.024-.039 0-.063a.449.449 0 0 0-.194-.024h-.034a.028.028 0 0 0 .029-.029v-.042c0-.018-.037-.037-.066-.039a.2.2 0 0 0-.094.018.176.176 0 0 0 .016-.1c-.026-.107-.149-.029-.212 0 0 0-.018.037 0 .031a.419.419 0 0 1 .139-.042c.058 0 .013.1-.021.149l-.068.037a.32.32 0 0 0-.147.092c.01.08.077.104.148.067Zm.039-.113.052-.029a.263.263 0 0 1-.089.1s-.079.026-.055 0a.181.181 0 0 1 .093-.071Z"/><path data-name="Path 406" d="M83.395 69.465v.016c.084.026.162-.073.191-.17.031 0 .1-.013.107.034l-.018.052.016.016c.047 0 .191-.055.17.026a.013.013 0 0 0 0 .018c.037.026.121-.018.131.039s-.05.052-.021.092.068 0 .094 0 .034-.024.052-.018 0 .021 0 .029.013.021.024.026.026 0 .042 0 .018-.016.029-.018a.3.3 0 0 1 .058.016s.081.039.073.024-.037.06 0 .094.147 0 .181 0 .031-.037 0-.034h-.086c-.073-.031-.055-.055-.039-.092s0-.024-.016-.021-.084-.047-.121-.047a.486.486 0 0 0-.06.024c-.06 0-.031-.018-.031-.058a.018.018 0 0 0-.021-.013c-.034.013-.121.081-.123 0 0 0 .037-.034.039-.05a.06.06 0 0 0-.047-.058.237.237 0 0 0-.073 0c-.092.016 0 0-.045-.024a.089.089 0 0 0-.086-.026.523.523 0 0 1-.06 0c-.05-.013-.016 0-.018-.034s.018-.039 0-.063a.076.076 0 0 0-.081-.034.416.416 0 0 0-.081.026c0-.066 0-.123-.076-.121-.016 0-.034.031 0 .034s.047.063.034.115c-.057.069-.133.137-.138.2Zm.081-.06c0-.013.029-.037.058-.058a.076.076 0 0 1 0 .021c-.018.016-.076.087-.058.037Z"/><path data-name="Path 407" d="M86.871 67.536a.559.559 0 0 0 .181-.186.185.185 0 0 1 .081-.021c.1.016.016.055 0 .094s0 .026.018.024c.073 0 .249-.055.2.063a.016.016 0 0 0 0 .021c.024 0 .123.021.11.045s0 .024.016.021q.115-.006.231 0a.442.442 0 0 1 .1.013c.021.026-.016.087-.026.1a.018.018 0 0 0 0 .026c.039.018.068.042.042.084a.016.016 0 0 0 0 .024c.1.029.275-.052.3.066.018.071 0 .089.1.081.016 0 .029-.034 0-.034-.094 0-.026-.107-.079-.144s-.183.034-.244 0 0-.042-.024-.084-.034 0-.039-.018-.016-.016-.018-.013a.06.06 0 0 0 0-.029c0-.018.013-.016.016-.029.024-.11-.152-.081-.225-.089a.7.7 0 0 1-.128 0v-.031l-.1-.042s.024-.042 0-.063a.543.543 0 0 0-.194-.026h-.034a.034.034 0 0 0 .029-.029v-.042c0-.018-.037-.037-.068-.039a.2.2 0 0 0-.092.018.154.154 0 0 0 .013-.1c-.024-.107-.147-.029-.21 0-.013 0-.018.037 0 .031a.407.407 0 0 1 .136-.042c.058 0 .016.1-.018.149l-.068.037a.3.3 0 0 0-.147.092c.002.085.072.109.141.072Zm.039-.113.052-.029a.262.262 0 0 1-.092.1s-.076.026-.055 0a.2.2 0 0 1 .095-.071Z"/><path data-name="Path 408" d="M88.401 68.394a.018.018 0 0 0 0 .016c.084.026.162-.073.191-.17.031 0 .1-.013.11.034a.4.4 0 0 0-.018.052.017.017 0 0 0 .016.016c.016 0 .191-.055.168.026a.018.018 0 0 0 0 .018c.039.024.121-.018.134.039s-.052.052-.021.092.066 0 .094 0 .031-.024.05-.018 0 .021 0 .029a.023.023 0 0 0 .021.026.11.11 0 0 0 .042 0c.013 0 .021-.018.031-.018a.368.368 0 0 1 .058.016s.081.037.073.024-.039.06 0 .094.149 0 .183 0 .029-.037 0-.037h-.086c-.073-.034-.052-.055-.039-.092s0-.024-.013-.024-.084-.045-.123-.045-.052.024-.06.024c-.058 0-.029-.018-.031-.058a.016.016 0 0 0-.021-.013c-.034 0-.121.081-.123 0 0-.013.037-.034.039-.052s0-.047-.047-.055a.219.219 0 0 0-.071 0c-.094.016-.016 0-.047-.024a.092.092 0 0 0-.086-.026.478.478 0 0 1-.058 0c-.052-.013-.018 0-.021-.034s.021-.039 0-.063a.076.076 0 0 0-.081-.034.32.32 0 0 0-.081.026c0-.068 0-.123-.076-.121-.016 0-.031.031 0 .034s.047.063.034.115c-.06.072-.136.138-.141.203Zm.081-.06a.212.212 0 0 1 .06-.058.139.139 0 0 1-.013.021c-.007.016-.062.087-.047.037Z"/><path data-name="Path 409" d="M87.359 68.809a.576.576 0 0 0 .183-.189.162.162 0 0 1 .079-.018c.1.016.016.055 0 .094s0 .024.021.024c.071-.013.246-.055.2.063a.016.016 0 0 0 0 .021c.021 0 .121.018.11.045a.013.013 0 0 0 .013.021 2.236 2.236 0 0 1 .231 0 .614.614 0 0 1 .1 0c.024.029-.016.086-.026.107a.018.018 0 0 0 0 .026c.039.016.071.039.045.081s0 .024 0 .026c.1.029.275-.055.3.063.016.073 0 .089.094.081.016 0 .029-.031 0-.031-.094 0-.024-.107-.079-.144s-.184.031-.244 0 0-.039-.024-.084-.031 0-.039-.016-.013-.016-.016-.016v-.026c0-.018 0-.018.013-.029.024-.11-.152-.084-.223-.089a1.092 1.092 0 0 1-.131 0v-.031c0-.005-.1-.039-.1-.042s.024-.042 0-.066a.461.461 0 0 0-.2-.024h-.034a.037.037 0 0 0 .031-.031v-.042c0-.021-.037-.034-.066-.037a.246.246 0 0 0-.094.016.152.152 0 0 0 .016-.1c-.026-.107-.147-.029-.21 0-.016 0-.021.037 0 .029a.374.374 0 0 1 .139-.039c.034.008.013.1-.018.149l-.071.034a.3.3 0 0 0-.144.094c.001.092.072.116.144.08Zm.039-.115.055-.026a.3.3 0 0 1-.092.1s-.076.026-.055 0a.218.218 0 0 1 .088-.073Z"/><path data-name="Path 410" d="M86.019 68.016a.018.018 0 0 0 0 .016c.084.026.162-.073.191-.17.031 0 .1-.013.11.034a.34.34 0 0 0-.018.05.019.019 0 0 0 .016.018c.016 0 .191-.055.168.026v.016c.037.026.121-.018.134.042s-.052.052-.021.092.066 0 .092 0 .034-.026.052-.018 0 .018 0 .029 0 .021.021.026a.11.11 0 0 0 .042 0c.013 0 .021-.016.029-.016a.187.187 0 0 1 .058.016s.084.037.073.024-.037.06 0 .094.149 0 .183 0 .029-.037 0-.037a.8.8 0 0 1-.086 0c-.073-.031-.052-.052-.039-.089s0-.024-.016-.024-.084-.045-.121-.045-.052.024-.06.024c-.058 0-.031-.018-.031-.06s-.013-.016-.021 0-.121.081-.123 0c0 0 .037-.031.039-.05a.056.056 0 0 0-.047-.055.165.165 0 0 0-.071 0c-.094.016-.016 0-.047-.024a.089.089 0 0 0-.086-.029.264.264 0 0 1-.058 0c-.052-.013-.018 0-.021-.034s.018-.039 0-.066a.07.07 0 0 0-.081-.031.32.32 0 0 0-.081.026c0-.068 0-.123-.076-.121-.016 0-.031.031 0 .034s.047.063.034.113c-.057.058-.133.134-.138.189Zm.081-.06a.213.213 0 0 1 .06-.06l-.013.024c-.008.013-.063.084-.047.045Z"/><path data-name="Path 411" d="M87.086 69.686a.59.59 0 0 0 .184-.186.141.141 0 0 1 .079-.021c.1.016.016.055 0 .094a.018.018 0 0 0 .021.024c.071-.013.246-.055.2.063a.016.016 0 0 0 0 .021c.021 0 .121.021.11.045s0 .024.013.021a2.237 2.237 0 0 1 .231 0 .425.425 0 0 1 .1.013c.024.026-.013.087-.026.1a.018.018 0 0 0 0 .026c.039.018.071.039.045.081s0 .024 0 .026c.1.029.262-.052.3.066.016.071 0 .089.094.081.018 0 .029-.034 0-.034-.094 0-.024-.108-.079-.144s-.183.034-.241 0 0-.039-.026-.081-.031 0-.039-.018-.013-.016-.016-.013 0 0 0-.029v-.029c.024-.11-.152-.084-.223-.089a1.091 1.091 0 0 1-.131 0v-.031l-.1-.042s.024-.042.013-.063-.152-.026-.2-.026h-.034a.034.034 0 0 0 .031-.029v-.042c0-.018-.037-.037-.066-.039a.247.247 0 0 0-.094.016.146.146 0 0 0 .016-.1c-.026-.108-.147-.031-.21 0-.016 0-.021.037 0 .029a.374.374 0 0 1 .139-.039c.034.008.013.1-.018.149l-.071.034a.3.3 0 0 0-.144.094c.003.085.074.108.142.072Zm.039-.113.055-.029a.3.3 0 0 1-.092.1s-.076.026-.055 0a.2.2 0 0 1 .094-.071Z"/><path data-name="Path 412" d="M85.977 68.973c.084.026.162-.071.191-.17.029 0 .1-.013.108.037l-.018.05a.016.016 0 0 0 .016.016c.047 0 .191-.052.168.026v.018s.123-.018.134.039-.05.055-.021.092.068 0 .094 0 .034-.026.052-.018 0 .018 0 .026a.026.026 0 0 0 .021.029.128.128 0 0 0 .045 0c.016 0 .018-.016.029-.016a.144.144 0 0 1 .058.016s.081.037.073.021-.037.063 0 .1.147 0 .181 0 .031-.037 0-.037h-.086c-.073-.031-.055-.055-.042-.092s0-.024 0-.021a.42.42 0 0 0-.121-.045.515.515 0 0 0-.06.021c-.06 0-.031-.018-.034-.058s0-.016-.021-.013-.118.081-.121 0c0 0 .037-.034.039-.05s0-.047-.047-.055a.178.178 0 0 0-.073 0c-.092.013-.013 0-.045-.026a.089.089 0 0 0-.086-.026h-.06c-.013 0-.016 0-.018-.031s.018-.039 0-.065a.075.075 0 0 0-.084-.034l-.079.029c0-.068 0-.123-.076-.123-.018 0-.034.034 0 .037s.047.063.034.113c-.071.077-.146.145-.151.21Zm.081-.063c0-.013.029-.037.058-.058a.1.1 0 0 1 0 .024s-.076.084-.059.034Z"/><path data-name="Path 413" d="M85.159 68.153a.223.223 0 0 1 0 .1.018.018 0 0 0 .016.018c.047 0 .194-.055.17.026v.016c.037.026.121-.018.131.042s-.05.052-.021.092.068 0 .094 0 .034-.026.052-.018 0 .018 0 .029.013.021.024.026.026 0 .042 0 .018-.016.029-.016a.184.184 0 0 1 .058.016s.081.037.073.024-.037.06 0 .094.147 0 .181 0 .031-.037 0-.037h-.084c-.073-.031-.055-.052-.039-.089s0-.024-.016-.024-.084-.045-.121-.045a.479.479 0 0 0-.06.024c-.06 0-.031-.018-.031-.06a.018.018 0 0 0-.021-.013c-.034.013-.121.081-.123 0 0 0 .037-.031.039-.05a.056.056 0 0 0-.047-.055.178.178 0 0 0-.073 0c-.092.016 0 0-.045-.024a.089.089 0 0 0-.086-.029.265.265 0 0 1-.06 0c-.05-.013-.016 0-.018-.034s.018-.039 0-.066-.068-.068-.081-.018a.029.029 0 0 0 0 .021.076.076 0 0 0 .017.05Z"/></g><path data-name="Path 414" d="M88.637 64.293c.021-.443.228-.4.585-.511l.679-.22q.933-.3 1.861-.616c.786-.262 1.586-.524 2.359-.826a4.314 4.314 0 0 0 1.311-.556c.564-.469 2.126-4.318 2.317-4.616.524-.8 1.638-6.6 1.638-6.6-1.048-.244-2.081.632-2.621 1.764s-2.852 6.887-2.852 6.887q-1.3.663-2.6 1.337c-.862.446-1.727.889-2.587 1.337a7.858 7.858 0 0 0-2.2 1.311 3.761 3.761 0 0 0-.865 1.237 2.019 2.019 0 0 0 .039 1.413 2.31 2.31 0 0 0 .923 1.083.6.6 0 0 0 .482.115.144.144 0 0 0 .084-.052.194.194 0 0 0 .034-.115c.024-.328 0-.658 0-.988 0-.286.031-1.049.446-.991" fill="#b16668"/><g><path data-name="Path 415" d="m87.385 67.374.847 1.206a.047.047 0 0 0 .084-.024l.06-1.481Z" fill="#ffa8a7"/><path data-name="Path 416" d="m88.305 68.564.06-1.481-.524.157.052.176.359 1.14Z" fill="#f28f8f"/><path data-name="Path 417" d="M88.306 68.556a.047.047 0 0 1-.084.024l-.165-.236a.244.244 0 0 0 .244-.084l.018-.021Z" fill="#263238"/><path data-name="Path 418" d="m86.624 61.106.037.131.047.157 1.664 5.681a.653.653 0 0 1-.362.317.684.684 0 0 1-.629-.018l-1.662-5.675-.089-.3c.072.189 1.063-.099.994-.293Z" fill="#455a64"/><path data-name="Path 419" d="m86.627 61.106.037.131.047.157 1.664 5.681a.7.7 0 0 1-.467.354l-1.8-6h-.021c.283-.077.577-.213.54-.323Z" fill="#37474f"/><path data-name="Path 420" d="m86.774 61.604.086.294c.026.084-.139.191-.341.262-.262.108-.619.126-.655.016l-.063-.215-.021-.079c.037.11.385.092.653-.016.2-.076.356-.178.343-.262Z" fill="#ebebeb"/><path data-name="Path 421" d="M86.795 61.673c.063.194-.93.48-.993.286l-.086-.294c.063.2 1.048-.089.993-.286Z" fill="#37474f"/><path data-name="Path 422" d="m86.627 61.106.084.288c.066.191-.891.474-.988.3l-.084-.294c.063.188 1.054-.1.988-.294Z" fill="#ebebeb"/><path data-name="Path 423" d="M88.284 68.595a.045.045 0 0 0 .029-.031.039.039 0 0 1-.029.031Z" fill="#ffa8a7"/><path data-name="Path 424" d="m86.262 59.882.362 1.224c.026.084-.136.191-.335.262-.262.107-.619.131-.658.018l-.362-1.229c-.071-.246.409-.451.734-.435a.262.262 0 0 1 .259.16Z" fill="#f28f8f"/><path data-name="Path 425" d="M86.074 60.175a.786.786 0 0 1-.705.081.171.171 0 0 1-.1-.131c-.013-.228.43-.412.739-.4a.262.262 0 0 1 .262.147c.019.096-.046.209-.196.303Z" opacity=".1"/></g><path data-name="Path 426" d="M97.716 57.863c-.131 1.222-.592 6.31-.592 6.31 2.634 2.123 8.505 1.657 9.575-.052a21.426 21.426 0 0 1-1.161-3.67l.786-3.421s-1.874-1.7 0-5.188l-2.477-.742-4.456-.752a25.771 25.771 0 0 0-2.134 3.612 3.385 3.385 0 0 0 .459 3.903Z" fill="#441ab9"/><path data-name="Path 427" d="M105.901 61.864a9.761 9.761 0 0 0-.076-.262c-.191-.689-.286-1.151-.286-1.151l.786-3.421a.95.95 0 0 1-.079-.084 3.478 3.478 0 0 1-.705-2.732s-.537 1.969.16 2.991l-.658 2.965-.957 1.389 1.159-.454a20.519 20.519 0 0 1 .438 2.139c.029.417-.957 1.8-3.061 2.325 1.882-.084 3.554-.621 4.078-1.458a20.046 20.046 0 0 1-.799-2.247Z" opacity=".15"/><path data-name="Path 428" d="M106.033 51.747a2.708 2.708 0 0 1 1.806 1.334c.341.671 1.457 2.425 2.149 3.6l.645 1.1s4.228-2.244 4.456-2.535a2.714 2.714 0 0 0 .262-1.211 3.489 3.489 0 0 0-.165-1.188c-.058-.409.524-.315.718-.152a1.669 1.669 0 0 1 .3.44c.092.152.262.65.44.682s.411-.17.524-.262a6.708 6.708 0 0 0 1.109-1.282.655.655 0 0 1 .262-.223.611.611 0 0 1 .524.136 1.18 1.18 0 0 1 .38.338 1.031 1.031 0 0 1 .128.341 2.451 2.451 0 0 1-.716 2.1 7.311 7.311 0 0 1-1.73 1.531c-.385.262-.894.474-1.329.713s-5.192 4.215-5.855 3.764a16.091 16.091 0 0 1-2.128-2.147c-.936-1.14-1.491-1.835-1.491-1.835-1.83-1.592-.289-5.244-.289-5.244Z" fill="#b16668"/><path data-name="Path 429" d="m104.031 48.468-.076 3.041a2.857 2.857 0 0 0 2.857 2.928h.076v-3.114a2.855 2.855 0 0 0-2.857-2.855Z" fill="#263238"/><path data-name="Path 430" d="m101.237 49.157 1.622.042a4.094 4.094 0 0 0 4.207-3.982 4.907 4.907 0 0 0-4.773-5.041 4.907 4.907 0 0 0-5.038 4.771 4.1 4.1 0 0 0 3.982 4.21Z" fill="#263238"/><path data-name="Path 431" d="m106.266 42.834 1.219-.427a.626.626 0 0 0-.807-.417.682.682 0 0 0-.412.844Z" fill="#263238"/><path data-name="Path 432" d="m106.28 42.52.375-1.235a.624.624 0 0 0-.81.4.679.679 0 0 0 .435.835Z" fill="#263238"/><path data-name="Path 433" d="M99.211 42.294c-.524.291-1.2 1.573-1.214 4.312 0 2.315.726 2.907 1.1 3.083a4.024 4.024 0 0 0 1.811 0v.959s-1.274 1.392-1.232 2.032 1.63.97 2.561.372a7.473 7.473 0 0 0 1.735-1.775l.071-3.211s.4.417 1.124-.181a1.319 1.319 0 0 0 .375-1.819 1.014 1.014 0 0 0-1.622.278 5.744 5.744 0 0 1-2.605-.855 4.221 4.221 0 0 1-2.104-3.195Z" fill="#b16668"/><path data-name="Path 434" d="M100.309 45.97a.291.291 0 1 0 .579.042.291.291 0 1 0-.579-.042Z" fill="#263238"/><path data-name="Path 435" d="m100.469 48.054-.684.2a.351.351 0 0 0 .435.262.375.375 0 0 0 .249-.461Z" fill="#9a4a4d"/><path data-name="Path 436" d="m98.236 44.944.6-.391a.341.341 0 0 0-.485-.115.375.375 0 0 0-.115.506Z" fill="#263238"/><path data-name="Path 437" d="M98.22 45.666a.291.291 0 1 0 .317-.278.3.3 0 0 0-.317.278Z" fill="#263238"/><path data-name="Path 438" d="m99.557 45.634-.034 1.9-.915-.312Z" fill="#9a4a4d"/><path data-name="Path 439" d="M100.906 49.687c.747-.079 2.291-.477 2.548-1.075a1.573 1.573 0 0 1-.558.758 8.152 8.152 0 0 1-2 .786Z" fill="#9a4a4d"/><path data-name="Path 440" d="M87.676 64.687c0 .228-.076.6-.066.828a.954.954 0 0 0 .233.632.341.341 0 0 0 .383.1.44.44 0 0 0 .178-.3 7.309 7.309 0 0 0 .233-1.636v-.017" fill="#b16668"/><g><path data-name="Path 441" d="M27.301 73.22v-.524l-9.328 5.4.446.262Z" fill="#37474f"/><path data-name="Path 442" d="M17.242 39.524a.126.126 0 0 1 .06.134l-7.73 34.331-.223.973a.587.587 0 0 1-.307-.06l-.524-.3a.131.131 0 0 1-.06-.136l7.937-35.232a.123.123 0 0 1 .183-.079Z" fill="#37474f"/><path data-name="Path 443" d="m18.211 39.055-7.971 35.4a.2.2 0 0 1-.1.134l-.524.3a.524.524 0 0 1-.262.066l.223-.973 7.737-34.412Z" fill="#455a64"/><path data-name="Path 444" d="M17.53 84.925v1.025a.6.6 0 0 1-.288-.068l-.482-.278a.2.2 0 0 1-.115-.168V54.697l.891.524Z" fill="#37474f"/><path data-name="Path 445" d="M18.42 54.7v30.747a.207.207 0 0 1-.121.155l-.477.278a.584.584 0 0 1-.291.071v-30.74Z" fill="#455a64"/><path data-name="Path 446" d="M29.063 79.289a.572.572 0 0 1-.275-.081l-.5-.286a.247.247 0 0 1-.123-.17l-5.3-27.654.889.524 5.116 26.681Z" fill="#37474f"/><path data-name="Path 447" d="M29.952 78.77a.207.207 0 0 1-.123.168l-.451.262-.024.013a.618.618 0 0 1-.291.068l-.189-.994-5.116-26.673.894-.524 5.292 27.63Z" fill="#455a64"/><path data-name="Path 448" d="m18.112 79.554 10.078-5.82v-1.025l-10.078 5.82Z" fill="#455a64"/><path data-name="Path 449" d="M6.901 62.761v.37a.632.632 0 0 0 .286.493l2.985 1.72a.639.639 0 0 0 .569 0l19.857-11.453a.621.621 0 0 0 .283-.49v-.377a.621.621 0 0 0-.283-.49l-2.985-1.725a.621.621 0 0 0-.569 0L7.187 62.268a.632.632 0 0 0-.286.493Z" fill="#441ab9"/><path data-name="Path 450" d="m7.187 62.595 2.982 1.726a.621.621 0 0 0 .569 0L30.599 52.87c.157-.092.157-.239 0-.328l-2.986-1.721a.621.621 0 0 0-.569 0L7.187 62.268c-.157.091-.157.238 0 .327Z" fill="#fff" opacity=".4"/><path data-name="Path 451" d="M10.455 64.389v1.028a.611.611 0 0 1-.283-.068l-2.985-1.725a.632.632 0 0 1-.286-.493v-.37a.626.626 0 0 1 .228-.451c-.1.089-.079.21.058.288l2.985 1.722a.579.579 0 0 0 .283.069Z" opacity=".1"/><path data-name="Path 452" d="m9.093 63.699-.828-.48a1.138 1.138 0 0 1-.506-.82L6.047 32.708a.978.978 0 0 1 .443-.821l19.477-11.23a1.048 1.048 0 0 1 .949 0l.831.48a1.125 1.125 0 0 1 .5.821l1.714 29.691a.975.975 0 0 1-.44.821L10.038 63.7a1.048 1.048 0 0 1-.945-.001Z" fill="#e0e0e0"/><path data-name="Path 453" d="M28.238 21.874a.3.3 0 0 0-.5-.191L8.265 32.915a.883.883 0 0 0-.328.357L6.16 32.247a.92.92 0 0 1 .328-.357l19.48-11.233a1.048 1.048 0 0 1 .944 0l.836.482a1.135 1.135 0 0 1 .49.734Z" fill="#fafafa"/><path data-name="Path 454" d="m7.822 33.733 1.714 29.693a.312.312 0 0 0 .506.262l19.48-11.233a.975.975 0 0 0 .44-.821l-1.71-29.679a.309.309 0 0 0-.5-.262L8.272 32.915a.965.965 0 0 0-.45.818Z" fill="#f0f0f0"/><path data-name="Path 455" d="M11.071 36.978c.294-.17.524-.034.524.307a1.169 1.169 0 0 1-.524.92c-.294.17-.524.034-.524-.307a1.177 1.177 0 0 1 .524-.92Z" fill="#455a64"/><path data-name="Path 456" d="m13.234 35.721 10.581-6.106c.312-.181.566-.052.566.286a1.216 1.216 0 0 1-.569.944l-10.579 6.108c-.312.181-.566.052-.566-.288a1.235 1.235 0 0 1 .567-.944Z" fill="#455a64"/><path data-name="Path 457" d="M11.25 39.829c.294-.17.524-.034.524.307a1.182 1.182 0 0 1-.524.923c-.294.168-.524.031-.524-.307a1.193 1.193 0 0 1 .524-.923Z" fill="#455a64"/><path data-name="Path 458" d="m13.415 38.578 10.576-6.108c.315-.181.569-.052.569.286a1.216 1.216 0 0 1-.569.944l-10.579 6.108c-.315.181-.569.052-.566-.286a1.216 1.216 0 0 1 .569-.944Z" fill="#455a64"/><path data-name="Path 459" d="M11.431 42.676c.294-.17.524-.034.524.307a1.177 1.177 0 0 1-.524.923c-.294.17-.524.031-.524-.307a1.177 1.177 0 0 1 .524-.923Z" fill="#455a64"/><path data-name="Path 460" d="m13.593 41.424 10.579-6.108c.312-.181.566-.052.566.288a1.216 1.216 0 0 1-.569.941L13.59 42.656c-.312.181-.566.05-.566-.288a1.229 1.229 0 0 1 .569-.944Z" fill="#455a64"/><path data-name="Path 461" d="M11.609 45.522c.294-.17.524-.031.524.307a1.177 1.177 0 0 1-.524.923c-.294.17-.524.031-.524-.307a1.2 1.2 0 0 1 .524-.923Z" fill="#455a64"/><path data-name="Path 462" d="m13.774 44.274 10.576-6.108c.315-.181.569-.052.569.288a1.216 1.216 0 0 1-.569.941l-10.579 6.111c-.315.181-.569.052-.566-.288a1.216 1.216 0 0 1 .569-.944Z" fill="#455a64"/><path data-name="Path 463" d="M11.79 48.371c.294-.17.524-.034.524.3a1.174 1.174 0 0 1-.524.923c-.294.17-.524.034-.524-.307a1.172 1.172 0 0 1 .524-.92Z" fill="#455a64"/><path data-name="Path 464" d="m13.952 47.119 10.579-6.105c.312-.181.566-.052.566.286a1.216 1.216 0 0 1-.569.944l-10.579 6.11c-.312.181-.566.052-.566-.288a1.235 1.235 0 0 1 .569-.947Z" fill="#455a64"/><path data-name="Path 465" d="M11.968 51.219c.294-.17.524-.034.524.307a1.172 1.172 0 0 1-.524.92c-.294.17-.524.034-.524-.3a1.193 1.193 0 0 1 .524-.923Z" fill="#455a64"/><path data-name="Path 466" d="m14.133 49.968 10.576-6.108c.315-.181.569-.052.569.286a1.216 1.216 0 0 1-.569.944l-10.579 6.1c-.315.181-.569.052-.566-.288a1.216 1.216 0 0 1 .569-.934Z" fill="#455a64"/><path data-name="Path 467" d="M23.747 24.186v1.594a.438.438 0 0 1-.2.343L13.283 32.05a.438.438 0 0 1-.4 0l-.493-.262a.435.435 0 0 1-.2-.343v-.786l-1.78-1.025-.886.524v-1.835a.443.443 0 0 1 .2-.346l10.264-5.927a.443.443 0 0 1 .4 0l3.145 1.835a.438.438 0 0 1 .214.301Z" fill="#263238"/><path data-name="Path 468" d="M23.747 24.186v1.594a.438.438 0 0 1-.2.343L13.285 32.05a.422.422 0 0 1-.2.047v-2.04a.446.446 0 0 0 .2-.047l10.262-5.93c.1-.055.107-.142.037-.2a.44.44 0 0 1 .163.306Z" fill="#37474f"/><path data-name="Path 469" d="m9.73 28.184 3.145 1.835a.443.443 0 0 0 .4 0l10.262-5.927a.121.121 0 0 0 0-.228l-3.145-1.835a.443.443 0 0 0-.4 0L9.73 27.954c-.111.067-.111.164 0 .23Z" fill="#455a64"/><path data-name="Path 470" d="m28.738 52.731-.047-.071v-.024a.555.555 0 0 0-.05-.06l-.045-.047-.042-.037a.6.6 0 0 0-.262-.123l-5.119 2.965-.144.084-.118.068-1.1.64a.262.262 0 0 0-.087.288c.063.32.375.737.6.611l1.109-.645a.1.1 0 0 0 .026-.031.06.06 0 0 1-.026.031l.262-.157 5.119-2.962a.613.613 0 0 0-.076-.53Zm-5.793 2.734Z" fill="#455a64"/><path data-name="Path 471" d="M22.133 56.231a.807.807 0 0 1 .246.666.191.191 0 0 1-.1.134c-.218.066-.5-.322-.561-.627a.262.262 0 0 1 .081-.283c.082-.047.208-.013.334.11Z" fill="#37474f"/></g><g><g data-name="freepik--character--inject-1"><path data-name="Path 472" d="M41.536 25.135h.773a4.336 4.336 0 0 1 4.335 4.336v5.416h-5.913a3.531 3.531 0 0 1-3.531-3.531v-1.885a4.336 4.336 0 0 1 4.336-4.336Z" fill="#441ab9"/><g data-name="Group 49" opacity=".45"><path data-name="Path 473" d="M41.536 25.135h.773a4.336 4.336 0 0 1 4.335 4.336v5.416h-5.913a3.531 3.531 0 0 1-3.531-3.531v-1.885a4.336 4.336 0 0 1 4.336-4.336Z"/></g><path data-name="Path 474" d="M39.102 81.005v-.3a7.259 7.259 0 0 0 1.518 2.658 6.683 6.683 0 0 1 1.816 1.995c.244.684-1.271.946-1.9.836a3.854 3.854 0 0 1-2.178-1.169c-.359-.443-.59-.967-.847-1.311s-.849-.737-.988-1.14a2.573 2.573 0 0 1 .123-1.114c.107-.409.2-.786.333-.752v.231a1.656 1.656 0 0 0 1.048.359c.32.007 1.077-.053 1.075-.293Z" fill="#263238"/><path data-name="Path 475" d="M41.23 83.901c-.207-.186-.417-.367-.605-.54a6.215 6.215 0 0 1-1.295-2.068 2.918 2.918 0 0 1-.223-1.117v-1.201h-2.12v2.023a14.346 14.346 0 0 0 1.628 2.378 3.047 3.047 0 0 0 1.919 1.279c.803.103 1.22-.149.696-.754Z" fill="#ffa8a7"/><path data-name="Path 476" d="M46.595 78.917v-.3a7.2 7.2 0 0 0 1.515 2.656 6.658 6.658 0 0 1 1.816 2c.244.687-1.271.946-1.9.836a3.87 3.87 0 0 1-2.178-1.169c-.359-.443-.59-.967-.847-1.311s-.849-.734-.988-1.138a2.573 2.573 0 0 1 .123-1.114c.107-.409.2-.786.333-.752v.231a1.68 1.68 0 0 0 1.048.359c.326.001 1.081-.062 1.078-.298Z" fill="#263238"/><path data-name="Path 477" d="M48.718 81.805a43.14 43.14 0 0 1-.608-.537 6.164 6.164 0 0 1-1.292-2.068 2.884 2.884 0 0 1-.223-1.117v-1.206h-2.123v2.021a14.5 14.5 0 0 0 1.63 2.379 3.033 3.033 0 0 0 1.916 1.279c.813.107 1.219-.145.7-.751Z" fill="#ffa8a7"/><path data-name="Path 478" d="M37.403 48.02c-1.646 3.594.058 16.253.058 16.253a24.15 24.15 0 0 0-.965 4.3c-.294 3.036.461 10.667.461 10.667a2.293 2.293 0 0 0 2.144.084s2.023-11.472 2.4-14.486c.333-2.621.97-8.42.97-8.42l1.025 8.4a15.468 15.468 0 0 0-.574 2.6c-.173 1.775 1.546 10.035 1.546 10.035a4.833 4.833 0 0 0 2.123.063s.608-10.96.768-13.107c.262-3.589.1-14.788-.556-16.911Z" fill="#441ab9"/><path data-name="Path 479" d="m42.475 56.401.524-3.337a8.462 8.462 0 0 0 3.284-1.431 5.84 5.84 0 0 1-2.673 1.775l-.6 2.572.409 8.268Z" opacity=".1"/><path data-name="Path 480" d="M43.817 35.435a3.043 3.043 0 0 1 2.7 1.208l4.1 5.343s4.791-2.4 5.027-2.682.1-.86.037-1.174-.17-1.02-.241-1.216c-.123-.346.385-.262.687.068s.432.954.585 1.062 1.29-1.2 1.835-1.835.813-1.077 1.182-.815c.262.189.1.564-.3 1.106a6.983 6.983 0 0 0-.524.718c-.047.1.1.173.157.225.107.1.3.262.312.4a1.538 1.538 0 0 0 0 .246c.052.181.275.262.338.44a2.048 2.048 0 0 1 .021.406c.018.084.066.163.081.249a.614.614 0 0 1-.178.467 4.513 4.513 0 0 1-1.428.92c-.425.233-.862.338-1.35.553s-6.149 4.142-7.043 3.646-5.523-5.875-5.523-5.875c-1.3-2.205-.475-3.46-.475-3.46Z" fill="#ffa8a7"/><path data-name="Path 481" d="M40.305 35.532c-2.11.147-2.257 1.164-2.786 2.278a3.621 3.621 0 0 0-.1 2.721l1.47 4.252s-.687 1.665-1.486 3.238c3.688 2.058 8.3.975 9.4-.524.047-.32-.239-2.81-.414-4.438a5.779 5.779 0 0 0 .548-3.741c-.509-2-2.485-3.951-3.36-3.877Z" fill="#455a64"/><path data-name="Path 482" d="m37.104 26.653.64 1.025a.587.587 0 0 1-.831-.17.632.632 0 0 1 .191-.855Z" fill="#441ab9"/><path data-name="Path 483" d="m36.405 27.824 1.2-.168a.585.585 0 0 1-.493.689.634.634 0 0 1-.707-.521Z" fill="#441ab9"/><path data-name="Path 484" d="m37.744 27.678-.64-1.025a.632.632 0 0 0-.191.855.553.553 0 0 0 .231.21l-.739.1a.634.634 0 0 0 .705.524.582.582 0 0 0 .5-.6.574.574 0 0 0 .134-.068Z" opacity=".45"/><path data-name="Path 485" d="M45.093 27.046c.5.294 1.117 1.549 1.048 4.179-.05 2.228-.773 2.779-1.135 2.939a3.83 3.83 0 0 1-1.743-.052v1.347s.941 1.093.881 1.707-1.358.758-2.236.157a5.662 5.662 0 0 1-1.444-1.51v-3.238a.856.856 0 0 1-1.211.113 1.59 1.59 0 0 1-.341-2.176.97.97 0 0 1 1.552.309 5.374 5.374 0 0 0 2.529-.755 4.058 4.058 0 0 0 2.1-3.02Z" fill="#ffa8a7"/><path data-name="Path 486" d="M43.411 30.664a.28.28 0 1 1-.294-.278.291.291 0 0 1 .294.278Z" fill="#263238"/><path data-name="Path 487" d="m43.736 32.554.65.207a.335.335 0 0 1-.425.233.356.356 0 0 1-.225-.44Z" fill="#f28f8f"/><path data-name="Path 488" d="m45.707 29.804-.566-.393a.333.333 0 0 1 .472-.1.362.362 0 0 1 .094.49Z" fill="#263238"/><path data-name="Path 489" d="M45.578 30.462a.28.28 0 1 1-.3-.278.288.288 0 0 1 .3.278Z" fill="#263238"/><path data-name="Path 490" d="m44.208 30.302.045 1.686.889-.275Z" fill="#f28f8f"/><path data-name="Path 491" d="M43.269 34.111c-.716-.094-2.191-.524-2.422-1.1a1.523 1.523 0 0 0 .524.745 7.753 7.753 0 0 0 1.9.8Z" fill="#f28f8f"/><path data-name="Path 492" d="M41.249 48.419a2.226 2.226 0 0 1-1.659-2.716.705.705 0 0 1 .037-.118.726.726 0 0 1 .747-.5 2.157 2.157 0 0 1-.923-1.374l-.448-2.666a3.125 3.125 0 0 1 .113-1.292l-1.481-1.714-.275.189a3.71 3.71 0 0 0 .06 2.3l1.47 4.252a24 24 0 0 0-1.486 3.238 9.548 9.548 0 0 0 7.882.524 10.745 10.745 0 0 1-4.037-.123Z" fill="#37474f"/><path data-name="Path 493" d="M33.628 46.12c1.916-7.83 3.331-10.441 5.659-10.41.679.81.49 3.264-.582 4.753a54.94 54.94 0 0 0-2.776 6.845 25.268 25.268 0 0 0-.692 4.918 1 1 0 0 0 .262.645 5.031 5.031 0 0 1 .721 1.379c.223.409.464.564.4.655a.524.524 0 0 1-.718.052 2.693 2.693 0 0 1-.545-.524 5.488 5.488 0 0 0 .432 1.452c.49 1.109.372 1.673-1.124 1.279-.936-.246-1.525-1.028-1.664-3.279a17.286 17.286 0 0 1-.026-2.493 43.751 43.751 0 0 1 .653-5.272Z" fill="#ffa8a7"/></g></g><g><path data-name="Path 494" d="m105.667 37.192 1.03-.6a.1.1 0 0 0 .05-.045l.189-.33-.611-.354.018.055Z" fill="#441ab9"/><path data-name="Path 495" d="m105.667 37.192 1.03-.6a.1.1 0 0 0 .05-.045l.189-.33-.611-.354.018.055Z" opacity=".2"/><path data-name="Path 496" d="m106.416 35.922-.713 1.237a.1.1 0 0 1-.191-.018l-.755-2.176Z" fill="#441ab9"/><path data-name="Path 497" d="M97.96 27.614a1.1 1.1 0 0 1 .5-.865l.406-.233a1.093 1.093 0 0 1 1 0l9.585 5.534a1.1 1.1 0 0 1 .5.862v2.85a1.1 1.1 0 0 1-.5.862l-.406.236a1.116 1.116 0 0 1-1 0l-9.63-5.571a.786.786 0 0 1-.451-.831Z" fill="#441ab9"/><path data-name="Path 498" d="M109.939 35.765a1.1 1.1 0 0 1-.5.862l-.406.236a1.127 1.127 0 0 1-.912.042c.233.087.414-.047.414-.33v-2.85a1.028 1.028 0 0 0-.147-.49l1.4-.81a.991.991 0 0 1 .147.49Z" opacity=".2"/><path data-name="Path 499" d="M97.971 27.473c.058-.212.262-.28.482-.147l9.585 5.537a1 1 0 0 1 .351.372l1.4-.81a1.025 1.025 0 0 0-.351-.372l-9.583-5.537a1.116 1.116 0 0 0-1 0l-.406.236a1.093 1.093 0 0 0-.478.721Z" fill="#fff" opacity=".4"/><path data-name="Path 500" d="M107.2 33.649c0 .191-.142.262-.317.163l-4.634-2.682a.682.682 0 0 1-.317-.524c0-.191.142-.262.317-.16l4.634 2.679a.682.682 0 0 1 .317.524Z" fill="#fafafa"/><path data-name="Path 501" d="M107.2 35.18c0 .191-.142.262-.317.16l-7.145-4.139a.682.682 0 0 1-.317-.524c0-.189.142-.262.317-.16l7.145 4.139a.682.682 0 0 1 .317.524Z" fill="#fafafa"/><path data-name="Path 502" d="m105.667 27.756 1.03-.6a.1.1 0 0 0 .05-.045l.189-.33-.611-.354.018.055Z" fill="#441ab9"/><path data-name="Path 503" d="m105.667 27.756 1.03-.6a.1.1 0 0 0 .05-.045l.189-.33-.611-.354.018.055Z" opacity=".2"/><path data-name="Path 504" d="m106.416 26.481-.713 1.237a.1.1 0 0 1-.191-.018l-.755-2.178Z" fill="#441ab9"/><path data-name="Path 505" d="M97.955 18.172a1.1 1.1 0 0 1 .5-.862l.406-.236a1.111 1.111 0 0 1 1 0l9.585 5.539a1.106 1.106 0 0 1 .5.865v2.847a1.1 1.1 0 0 1-.5.865l-.406.233a1.1 1.1 0 0 1-1 0l-9.63-5.571a.771.771 0 0 1-.451-.828Z" fill="#441ab9"/><path data-name="Path 506" d="M109.939 26.322a1.1 1.1 0 0 1-.5.865l-.406.233a1.106 1.106 0 0 1-.912.042c.233.089.414-.045.414-.33v-2.847a1.049 1.049 0 0 0-.147-.493l1.4-.81a1.009 1.009 0 0 1 .147.493Z" opacity=".2"/><path data-name="Path 507" d="M97.971 18.034c.058-.21.262-.278.482-.147l9.585 5.539a.986.986 0 0 1 .351.372l1.4-.81a1 1 0 0 0-.351-.372l-9.583-5.537a1.1 1.1 0 0 0-1 0l-.406.233a1.106 1.106 0 0 0-.482.721Z" fill="#fff" opacity=".4"/><path data-name="Path 508" d="M107.2 24.209c0 .189-.142.262-.317.16l-4.634-2.682a.674.674 0 0 1-.317-.524c0-.189.142-.262.317-.16l4.634 2.682a.682.682 0 0 1 .317.524Z" fill="#fafafa"/><path data-name="Path 509" d="M107.2 25.74c0 .189-.142.262-.317.16l-7.145-4.139a.682.682 0 0 1-.317-.524c0-.191.142-.262.317-.16l7.145 4.139a.682.682 0 0 1 .317.524Z" fill="#fafafa"/><path data-name="Path 510" d="m40.815 21.69-1.033-.6a.081.081 0 0 1-.047-.042l-.191-.33.613-.354-.018.052Z" fill="#441ab9"/><path data-name="Path 511" d="m40.815 21.69-1.033-.6a.081.081 0 0 1-.047-.042l-.191-.33.613-.354-.018.052Z" fill="#263238"/><path data-name="Path 512" d="m40.076 20.418.716 1.235a.1.1 0 0 0 .191-.018l.755-2.176Z" fill="#37474f"/><path data-name="Path 513" d="M48.523 12.109a1.1 1.1 0 0 0-.5-.862l-.406-.236a1.117 1.117 0 0 0-1 0l-9.583 5.537a1.1 1.1 0 0 0-.5.865v2.842a1.1 1.1 0 0 0 .5.865l.406.233a1.093 1.093 0 0 0 1 0l9.63-5.555a.786.786 0 0 0 .453-.828Z" fill="#37474f"/><path data-name="Path 514" d="M36.543 20.254a1.1 1.1 0 0 0 .5.865l.406.233a1.116 1.116 0 0 0 .912.042c-.236.089-.414-.045-.414-.33v-2.842a1.01 1.01 0 0 1 .147-.493l-1.4-.81a1.033 1.033 0 0 0-.144.493Z" fill="#263238"/><path data-name="Path 515" d="M48.51 11.967c-.058-.212-.249-.278-.48-.147l-9.585 5.55a1.025 1.025 0 0 0-.351.372l-1.4-.807a1 1 0 0 1 .351-.372l9.588-5.552a1.117 1.117 0 0 1 1 0l.406.236a1.1 1.1 0 0 1 .474.721Z" fill="#455a64"/><path data-name="Path 516" d="M41.264 16.877c0 .163.121.223.262.136l5.376-3.109a.585.585 0 0 0 .262-.454c0-.163-.123-.225-.262-.136l-5.368 3.11a.579.579 0 0 0-.27.453Z" fill="#f0f0f0"/><path data-name="Path 517" d="M39.101 19.729c0 .163.123.225.262.136l7.538-4.363a.585.585 0 0 0 .262-.454c0-.163-.123-.223-.262-.136l-7.538 4.365a.585.585 0 0 0-.262.452Z" fill="#f0f0f0"/><path data-name="Path 518" d="m40.815 12.418-1.033-.6a.081.081 0 0 1-.047-.042l-.183-.33.613-.354-.018.052Z" fill="#441ab9"/><path data-name="Path 519" d="m40.815 12.418-1.033-.6a.081.081 0 0 1-.047-.042l-.183-.33.613-.354-.018.052Z" fill="#263238"/><path data-name="Path 520" d="m40.076 11.147.7 1.243a.1.1 0 0 0 .191-.018l.755-2.176Z" fill="#37474f"/><path data-name="Path 521" d="M48.523 2.837a1.1 1.1 0 0 0-.5-.862l-.406-.236a1.116 1.116 0 0 0-1 0l-9.583 5.537a1.1 1.1 0 0 0-.5.865v2.847a1.1 1.1 0 0 0 .5.865l.406.233a1.093 1.093 0 0 0 1 0l9.63-5.571a.786.786 0 0 0 .453-.828Z" fill="#37474f"/><path data-name="Path 522" d="M36.543 10.987a1.1 1.1 0 0 0 .5.865l.406.233a1.116 1.116 0 0 0 .912.042c-.236.089-.414-.045-.414-.33V8.95a1.01 1.01 0 0 1 .147-.493l-1.4-.81a1.033 1.033 0 0 0-.144.493Z" fill="#263238"/><path data-name="Path 523" d="M48.51 2.69c-.06-.212-.262-.278-.482-.147l-9.585 5.542a1.025 1.025 0 0 0-.351.372l-1.4-.807a1 1 0 0 1 .351-.372l9.588-5.539a1.116 1.116 0 0 1 1 0l.406.236a1.109 1.109 0 0 1 .477.716Z" fill="#455a64"/><path data-name="Path 524" d="M41.264 7.605c0 .163.123.223.262.136l5.376-3.109a.585.585 0 0 0 .262-.454c0-.163-.123-.225-.262-.136l-5.365 3.1a.579.579 0 0 0-.273.463Z" fill="#f0f0f0"/><path data-name="Path 525" d="M39.101 10.446c0 .163.123.225.262.136l7.538-4.365a.585.585 0 0 0 .262-.454c0-.163-.123-.223-.262-.136l-7.528 4.365a.585.585 0 0 0-.273.454Z" fill="#f0f0f0"/><path data-name="Path 526" d="m87.146 29.122 1.03-.6a.081.081 0 0 0 .047-.042l.191-.33-.613-.354.018.052Z" fill="#441ab9"/><path data-name="Path 527" d="m87.146 29.122 1.03-.6a.081.081 0 0 0 .047-.042l.191-.33-.613-.354.018.052Z" fill="#e0e0e0"/><path data-name="Path 528" d="m87.896 27.856-.713 1.235a.107.107 0 0 1-.194-.018l-.755-2.176Z" fill="#ebebeb"/><path data-name="Path 529" d="M79.432 19.541a1.1 1.1 0 0 1 .5-.862l.4-.236a1.116 1.116 0 0 1 1 0l9.591 5.537a1.1 1.1 0 0 1 .5.865v2.847a1.106 1.106 0 0 1-.5.865l-.406.233a1.093 1.093 0 0 1-1 0l-9.63-5.571a.787.787 0 0 1-.453-.828Z" fill="#e6e6e6"/><path data-name="Path 530" d="M86.695 24.309c0 .163-.121.223-.262.136l-5.376-3.109a.59.59 0 0 1-.262-.454c0-.163.123-.225.262-.136l5.376 3.109a.579.579 0 0 1 .262.454Z" fill="#fff"/><path data-name="Path 531" d="M88.857 27.151c0 .163-.123.225-.262.136l-7.538-4.365a.585.585 0 0 1-.262-.454c0-.163.123-.225.262-.136l7.538 4.365a.585.585 0 0 1 .262.454Z" fill="#fff"/><path data-name="Path 532" d="M91.416 27.691a1.106 1.106 0 0 1-.5.865l-.406.233a1.109 1.109 0 0 1-.91.042c.233.089.411-.045.411-.33v-2.847a1.033 1.033 0 0 0-.144-.493l1.4-.81a1.033 1.033 0 0 1 .144.493Z" fill="#e0e0e0"/><path data-name="Path 533" d="M79.45 19.399c.058-.212.249-.278.48-.147l9.585 5.537a1.025 1.025 0 0 1 .351.372l1.4-.807a.965.965 0 0 0-.351-.372l-9.583-5.539a1.111 1.111 0 0 0-1 0l-.409.236a1.1 1.1 0 0 0-.473.72Z" fill="#f0f0f0"/><path data-name="Path 534" d="m87.146 19.963 1.03-.6a.081.081 0 0 0 .047-.042l.191-.33-.613-.354.018.052Z" fill="#441ab9"/><path data-name="Path 535" d="m87.146 19.963 1.03-.6a.081.081 0 0 0 .047-.042l.191-.33-.613-.354.018.052Z" fill="#e0e0e0"/><path data-name="Path 536" d="m87.896 18.681-.713 1.235a.107.107 0 0 1-.194-.016l-.755-2.179Z" fill="#ebebeb"/><path data-name="Path 537" d="M79.432 10.378a1.1 1.1 0 0 1 .5-.873l.4-.236a1.116 1.116 0 0 1 1 0l9.591 5.547a1.1 1.1 0 0 1 .5.865v2.847a1.1 1.1 0 0 1-.5.865l-.406.233a1.093 1.093 0 0 1-1 0l-9.638-5.571a.786.786 0 0 1-.453-.828Z" fill="#e6e6e6"/><path data-name="Path 538" d="M86.696 15.146c0 .163-.121.225-.262.136l-5.386-3.109a.584.584 0 0 1-.262-.454c0-.163.123-.225.262-.136l5.376 3.109a.579.579 0 0 1 .272.454Z" fill="#fff"/><path data-name="Path 539" d="M88.858 17.988c0 .163-.123.225-.262.136l-7.549-4.365a.584.584 0 0 1-.262-.454c0-.163.123-.223.262-.136l7.538 4.365a.585.585 0 0 1 .273.454Z" fill="#fff"/><path data-name="Path 540" d="M91.416 18.529a1.1 1.1 0 0 1-.5.865l-.406.233a1.109 1.109 0 0 1-.91.042c.233.089.411-.045.411-.33v-2.847a1.032 1.032 0 0 0-.144-.493l1.4-.81a1.033 1.033 0 0 1 .144.493Z" fill="#e0e0e0"/><path data-name="Path 541" d="M79.45 10.237c.058-.212.249-.278.48-.147l9.585 5.537a1.025 1.025 0 0 1 .362.372l1.4-.807a.965.965 0 0 0-.354-.372L81.33 9.28a1.111 1.111 0 0 0-1 0l-.409.236a1.1 1.1 0 0 0-.48.721Z" fill="#f0f0f0"/><path data-name="Path 542" d="m87.146 10.801 1.03-.6a.081.081 0 0 0 .047-.042l.191-.33-.613-.354.018.055Z" fill="#441ab9"/><path data-name="Path 543" d="m87.146 10.801 1.03-.6a.081.081 0 0 0 .047-.042l.191-.33-.613-.354.018.055Z" fill="#e0e0e0"/><path data-name="Path 544" d="m87.896 9.526-.713 1.237a.107.107 0 0 1-.194-.018l-.755-2.178Z" fill="#ebebeb"/><path data-name="Path 545" d="M79.432 1.217a1.106 1.106 0 0 1 .5-.862l.4-.236a1.116 1.116 0 0 1 1 0l9.591 5.537a1.106 1.106 0 0 1 .5.865v2.847a1.1 1.1 0 0 1-.5.865l-.406.233a1.093 1.093 0 0 1-1 0l-9.638-5.571a.786.786 0 0 1-.453-.828Z" fill="#e6e6e6"/><path data-name="Path 546" d="M86.696 5.985c0 .163-.121.225-.262.136l-5.386-3.109a.584.584 0 0 1-.262-.454c0-.163.123-.223.262-.136l5.376 3.109a.579.579 0 0 1 .272.454Z" fill="#fff"/><path data-name="Path 547" d="M88.858 8.826c0 .163-.123.225-.262.139L81.047 4.6a.593.593 0 0 1-.262-.454c0-.165.123-.225.262-.139l7.538 4.365a.59.59 0 0 1 .273.454Z" fill="#fff"/><path data-name="Path 548" d="M91.416 9.367a1.1 1.1 0 0 1-.5.865l-.406.233a1.109 1.109 0 0 1-.91.042c.233.089.411-.045.411-.33V7.33a1.032 1.032 0 0 0-.144-.493l1.4-.81a1.033 1.033 0 0 1 .144.493Z" fill="#e0e0e0"/><path data-name="Path 549" d="M79.45 1.074c.058-.21.249-.278.48-.147l9.585 5.539a.986.986 0 0 1 .362.372l1.4-.81a.965.965 0 0 0-.354-.372L81.33.12a1.093 1.093 0 0 0-1 0l-.409.233a1.1 1.1 0 0 0-.48.721Z" fill="#f0f0f0"/></g></svg>