<svg id="Discount-cuate_1_" data-name="Discount-cuate (1)" xmlns="http://www.w3.org/2000/svg" width="114.666" height="122.446" viewBox="0 0 114.666 122.446">
  <g id="freepik--background-complete--inject-78" transform="translate(0.374)">
    <path id="Path_3585" data-name="Path 3585" d="M73.183,309.436l-3.61.074-1.831.033c-.61,0-1.226,0-1.839.014H65.78V306.22h.14l3.64.017c1.212,0,2.425.03,3.64.044h.063v.074c0,.52-.025,1.039-.036,1.553Zm0,0-.041-1.556c0-.511-.03-1.017-.036-1.52l.077.074c-1.215.014-2.427.044-3.64.044l-3.64.017.137-.135-.016,3.074-.121-.121h1.8l1.809.033Z" transform="translate(-59.465 -222.036)" fill="#ebebeb"/>
    <path id="Path_3586" data-name="Path 3586" d="M58.4,323.538l-3.607.077-1.831.033c-.613,0-1.226,0-1.842.014H51V320.33h.137l3.64.016c1.215,0,2.427.03,3.64.044h.077v.074c0,.52-.025,1.039-.036,1.553Zm0,0-.038-1.553c0-.511-.03-1.017-.036-1.52l.074.074c-1.212.014-2.425.044-3.64.044l-3.64.017.137-.135-.014,3.073-.124-.121c.6,0,1.2,0,1.8.014l1.809.033Z" transform="translate(-48.748 -232.267)" fill="#ebebeb"/>
    <path id="Path_3587" data-name="Path 3587" d="M88.568,323.524l-3.618.082-1.831.033c-.613,0-1.226,0-1.842.014h-.121v-.129l-.017-3.074v-.14h.137l3.64.017c1.215,0,2.427.03,3.64.044h.077v.074c0,.52-.025,1.039-.036,1.553Zm0,0-.038-1.553c0-.511-.03-1.017-.036-1.52l.074.074c-1.212.014-2.425.044-3.64.044l-3.64.016.137-.135-.014,3.074-.124-.121c.6,0,1.2,0,1.8.014l1.809.033Z" transform="translate(-70.603 -232.253)" fill="#ebebeb"/>
    <path id="Path_3588" data-name="Path 3588" d="M352.787,218.36l-3.607.077-1.831.03h-1.963v-.124l-.017-3.076v-.137h.137l3.64.017c1.212,0,2.427.03,3.64.047h.077v.074c0,.522-.022,1.042-.036,1.553Zm0,0-.039-1.553c0-.514-.03-1.02-.036-1.523l.074.074c-1.212,0-2.427.044-3.64.047l-3.64.017.137-.137-.014,3.076-.124-.124c.6,0,1.2,0,1.8.016l1.809.03Z" transform="translate(-262.192 -155.988)" fill="#ebebeb"/>
    <path id="Path_3589" data-name="Path 3589" d="M429.207,323.524l-3.607.077-1.831.033c-.613,0-1.229,0-1.842.014h-.121v-.124l-.017-3.074v-.14h.137l3.64.017c1.215,0,2.427.03,3.64.044h.077v.074c0,.52-.022,1.039-.036,1.553Zm0,0-.039-1.553c-.014-.511-.03-1.017-.036-1.52l.074.074c-1.212.014-2.425.044-3.64.044l-3.64.016.137-.135-.014,3.074-.124-.121c.6,0,1.2,0,1.8.014l1.809.033Z" transform="translate(-317.604 -232.253)" fill="#ebebeb"/>
    <path id="Path_3590" data-name="Path 3590" d="M414.423,55.716l-3.607.077-1.834.03c-.61,0-1.226,0-1.839.016h-.121v-.124L407,52.637V52.5h.137l3.64.016c1.212,0,2.427.033,3.64.047h.077v.074c0,.522-.022,1.042-.036,1.553Zm0,0-.039-1.553c-.014-.514-.03-1.02-.036-1.523l.074.074c-1.212,0-2.427.044-3.64.047l-3.64.016.137-.137v3.076l-.124-.124c.6,0,1.2,0,1.8.016l1.806.03Z" transform="translate(-306.88 -38.067)" fill="#ebebeb"/>
    <path id="Path_3591" data-name="Path 3591" d="M429.214,69.834l-3.607.077-1.828.03c-.613,0-1.229,0-1.842.016h-.121v-.124l-.017-3.076V66.62h.137l3.64.016c1.215,0,2.427.033,3.64.047h.077v.074c0,.522-.022,1.042-.036,1.553Zm0,0-.039-1.553c-.014-.514-.03-1.02-.036-1.523l.074.074c-1.212,0-2.425.044-3.64.047l-3.64.016.137-.137-.014,3.076-.124-.124c.6,0,1.2,0,1.8.016l1.809.03Z" transform="translate(-317.611 -48.305)" fill="#ebebeb"/>
    <path id="Path_3592" data-name="Path 3592" d="M173.207,141.844l-3.607.077-1.831.03c-.613,0-1.226,0-1.842.016h-.121v-.124l-.016-3.076v-.137h.137l3.64.019c1.215,0,2.427.03,3.64.044h.077v.074c0,.522-.025,1.042-.036,1.556Zm0,0-.038-1.553c0-.511-.03-1.017-.036-1.523l.074.077c-1.212.014-2.425.044-3.64.044l-3.64.017.137-.137v3.076l-.124-.121c.6,0,1.2,0,1.8.014l1.809.03Z" transform="translate(-131.981 -100.519)" fill="#ebebeb"/>
    <path id="Path_3593" data-name="Path 3593" d="M187.987,155.954l-3.61.077-1.831.03c-.613.014-1.226,0-1.839.016h-.124v-.124l-.014-3.076v-.137h.14l3.64.019c1.212,0,2.425.03,3.64.044h.074v.074c0,.522-.025,1.042-.036,1.556Zm0,0-.041-1.553c0-.511-.03-1.02-.036-1.523l.077.077c-1.215,0-2.427.044-3.64.044l-3.64.016.137-.137-.016,3.076-.121-.121h1.8l1.809.03Z" transform="translate(-142.698 -110.75)" fill="#ebebeb"/>
    <path id="Path_3594" data-name="Path 3594" d="M58.4,55.716l-3.607.077-1.831.03c-.613,0-1.226,0-1.842.016H51V52.5h.137l3.64.016c1.215,0,2.427.033,3.64.047h.077v.074c0,.522-.025,1.042-.036,1.553Zm0,0-.038-1.553c0-.514-.03-1.02-.036-1.523l.074.074c-1.212,0-2.425.044-3.64.047l-3.64.016.151-.14-.027,3.079-.124-.124c.6,0,1.2,0,1.8.016l1.809.03Z" transform="translate(-48.748 -38.067)" fill="#ebebeb"/>
    <rect id="Rectangle_242" data-name="Rectangle 242" width="0.22" height="25.781" transform="translate(11.326)" fill="#c7c7c7"/>
    <path id="Path_3595" data-name="Path 3595" d="M69.577,112.6l-.729,1.6H52.186l-.726-1.6,7.093-4.91h3.931Z" transform="translate(-49.082 -78.085)" fill="#ebebeb"/>
    <path id="Path_3596" data-name="Path 3596" d="M80.385,90.48l-.492,4.731H75.962L75.47,90.48Z" transform="translate(-66.491 -65.606)" fill="#dbdbdb"/>
    <path id="Path_3597" data-name="Path 3597" d="M69.569,125.55l-.729,1.6H52.179l-.729-1.6Z" transform="translate(-49.075 -91.035)" fill="#dbdbdb"/>
    <rect id="Rectangle_243" data-name="Rectangle 243" width="0.22" height="20.616" transform="translate(30.779)" fill="#c7c7c7"/>
    <path id="Path_3598" data-name="Path 3598" d="M140.329,93.8l-.729,1.6H122.939l-.729-1.6,7.1-4.91h3.929Z" transform="translate(-100.382 -64.453)" fill="#ebebeb"/>
    <path id="Path_3599" data-name="Path 3599" d="M151.143,71.68l-.492,4.731h-3.929l-.492-4.731Z" transform="translate(-117.799 -51.974)" fill="#dbdbdb"/>
    <path id="Path_3600" data-name="Path 3600" d="M140.327,106.75l-.729,1.6H122.936l-.726-1.6Z" transform="translate(-100.382 -77.403)" fill="#dbdbdb"/>
    <path id="Path_3601" data-name="Path 3601" d="M64.948,191.59c-10.669,0-10.686,15.17,0,15.17A7.6,7.6,0,1,0,64.948,191.59Z" transform="translate(-53.055 -138.92)" fill="#ebebeb"/>
    <path id="Path_3602" data-name="Path 3602" d="M75.026,204a6.2,6.2,0,0,1-6.491,4.874,6.3,6.3,0,1,1,0-12.591h.176a6.044,6.044,0,1,0,.162,12.077A5.955,5.955,0,0,0,75.026,204Z" transform="translate(-56.646 -142.32)" fill="#dbdbdb"/>
    <path id="Path_3603" data-name="Path 3603" d="M78.375,202.32a.275.275,0,0,1,.275.253v.421a3.984,3.984,0,0,1,2.054.74c.1.074.162.137.162.245a.275.275,0,0,1-.3.275.3.3,0,0,1-.209-.074,3.447,3.447,0,0,0-1.732-.687v2.947c1.757.338,2.493.94,2.493,1.974,0,1.119-1.025,1.924-2.474,1.955v.825a.275.275,0,1,1-.55,0v-.825a4.539,4.539,0,0,1-2.6-1.025.275.275,0,0,1-.129-.22.291.291,0,0,1,.289-.275.3.3,0,0,1,.209.074,3.9,3.9,0,0,0,2.252.959v-3.01c-1.732-.346-2.447-.929-2.447-1.985s1.014-1.88,2.422-1.924v-.4a.275.275,0,0,1,.28-.239Zm-.253,4.011V203.45c-1.122.019-1.858.632-1.858,1.394,0,.718.379,1.16,1.858,1.487Zm.506.646v2.914c1.155-.022,1.905-.635,1.905-1.435C80.533,207.73,80.129,207.282,78.628,206.977Z" transform="translate(-66.419 -146.699)" fill="#dbdbdb"/>
    <path id="Path_3604" data-name="Path 3604" d="M393.681,59.448c-9.605,1.724-7.068,15.945,2.554,14.227S403.3,57.721,393.681,59.448Z" transform="translate(-292.83 -43)" fill="#dbdbdb"/>
    <path id="Path_3605" data-name="Path 3605" d="M397.837,58.891c-9.155,1.649-6.617,15.873,2.554,14.227S407.008,57.244,397.837,58.891Z" transform="translate(-296.084 -42.605)" fill="#ebebeb"/>
    <path id="Path_3606" data-name="Path 3606" d="M408.064,69.813a5.523,5.523,0,0,1-4.748,5.57c-7.61,1.375-9.718-10.447-2.12-11.807l.148-.025c-7.123,1.427-5.08,12.6,2.175,11.3A5.282,5.282,0,0,0,408.064,69.813Z" transform="translate(-299.226 -46.079)" fill="#dbdbdb"/>
    <path id="Path_3607" data-name="Path 3607" d="M410.774,69.239a.247.247,0,0,1,.212.275l-.047.4a3.3,3.3,0,0,1,1.7.91.275.275,0,0,1,.113.247.258.258,0,0,1-.275.217.239.239,0,0,1-.173-.091,2.843,2.843,0,0,0-1.421-.825l-.33,2.8c1.482.5,2.054,1.141,1.941,2.122a1.982,1.982,0,0,1-2.356,1.6l-.094.778a.242.242,0,0,1-.478-.055l.091-.789a3.8,3.8,0,0,1-2.133-1.234.253.253,0,0,1,.2-.443.25.25,0,0,1,.148.074A3.258,3.258,0,0,0,409.7,76.36l.357-2.837c-1.46-.506-2.015-1.13-1.9-2.128a1.97,1.97,0,0,1,2.309-1.562l.047-.382A.245.245,0,0,1,410.774,69.239Zm-.665,3.783.319-2.749a1.462,1.462,0,0,0-1.762,1.13C408.585,72.093,408.855,72.552,410.108,73.022Zm.366.663-.324,2.749a1.485,1.485,0,0,0,1.809-1.163c.082-.693-.217-1.149-1.485-1.6Z" transform="translate(-307.192 -50.204)" fill="#dbdbdb"/>
    <path id="Path_3608" data-name="Path 3608" d="M422.307,299.41a1.7,1.7,0,0,1-.275.844.831.831,0,0,0-.036-.176q-.021-.091-.049-.181a3.483,3.483,0,0,0-.657-1.133l-.1-.113-.025-.03h0a.424.424,0,0,1-.047-.052c-2.658-3.368-5.19,2.089-5.243,2.216h0s-.146-5.443,2.749-5.594C420.91,295.075,422.442,297.728,422.307,299.41Z" transform="translate(-313.315 -214.036)" fill="#ebebeb"/>
    <path id="Path_3609" data-name="Path 3609" d="M422.084,309.291a1.145,1.145,0,0,1-.239.25c-1.375,1.061-5.641.33-5.905.275h0c4,.385,5.1-1.072,5.289-2.166l.025.03.1.113a3.574,3.574,0,0,1,.657,1.133c.019.06.036.124.049.181S422.076,309.234,422.084,309.291Z" transform="translate(-313.362 -223.073)" fill="#ebebeb"/>
    <path id="Path_3610" data-name="Path 3610" d="M422.084,309.291a1.145,1.145,0,0,1-.239.25c-1.375,1.061-5.641.33-5.905.275h0c4,.385,5.1-1.072,5.289-2.166l.025.03.1.113a3.574,3.574,0,0,1,.657,1.133c.019.06.036.124.049.181S422.076,309.234,422.084,309.291Z" transform="translate(-313.362 -223.073)" opacity="0.2"/>
    <path id="Path_3611" data-name="Path 3611" d="M392.039,300.823a1.7,1.7,0,0,0,.349.825.575.575,0,0,1,.019-.179,1.538,1.538,0,0,1,.033-.184,3.423,3.423,0,0,1,.55-1.19l.085-.124a.206.206,0,0,1,.022-.03h0l.041-.055c2.326-3.607,5.366,1.583,5.43,1.7h0s-.374-5.432-3.277-5.306C393.018,296.375,391.745,299.163,392.039,300.823Z" transform="translate(-296.002 -214.83)" fill="#ebebeb"/>
    <path id="Path_3612" data-name="Path 3612" d="M393.417,311.279a1.081,1.081,0,0,0,.261.225c1.479.924,5.647-.206,5.905-.275h0c-3.948.764-5.177-.58-5.474-1.649a.211.211,0,0,0-.022.03l-.085.124a3.474,3.474,0,0,0-.55,1.19c-.014.063-.025.124-.033.184S393.42,311.221,393.417,311.279Z" transform="translate(-297.03 -224.473)" fill="#ebebeb"/>
    <path id="Path_3613" data-name="Path 3613" d="M393.417,311.279a1.081,1.081,0,0,0,.261.225c1.479.924,5.647-.206,5.905-.275h0c-3.948.764-5.177-.58-5.474-1.649a.211.211,0,0,0-.022.03l-.085.124a3.474,3.474,0,0,0-.55,1.19c-.014.063-.025.124-.033.184S393.42,311.221,393.417,311.279Z" transform="translate(-297.03 -224.473)" opacity="0.2"/>
    <path id="Path_3614" data-name="Path 3614" d="M403.4,335.349H387.93l1.278-17.449,12.646.542Z" transform="translate(-293.052 -230.505)" fill="#dbdbdb"/>
    <path id="Path_3615" data-name="Path 3615" d="M442.746,336.777h-4.8l-.674-16.907,4.619.4Z" transform="translate(-328.828 -231.934)" fill="#a6a6a6"/>
    <path id="Path_3616" data-name="Path 3616" d="M387.17,315.485v3.406l13.773-.421v-3.9Z" transform="translate(-292.501 -228.091)" fill="#c7c7c7"/>
    <path id="Path_3617" data-name="Path 3617" d="M442.452,318.892l-5.182-.421v-3.9l5.476.915Z" transform="translate(-328.828 -228.091)" fill="#dbdbdb"/>
    <path id="Path_3618" data-name="Path 3618" d="M410.8,333.71h-3.236L407.24,315.9l3.824-.256Z" transform="translate(-307.054 -228.867)" fill="#ebebeb"/>
    <path id="Path_3619" data-name="Path 3619" d="M445.526,333.87h1.1l-.1-17.751-1.537-.258Z" transform="translate(-334.426 -229.026)" fill="#ebebeb"/>
    <path id="Path_3620" data-name="Path 3620" d="M379.133,327.623a1.58,1.58,0,0,1-.349.756v-.168a1.01,1.01,0,0,0-.028-.176,3.238,3.238,0,0,0-.484-1.13l-.077-.115-.022-.03h0l-.039-.052c-2.095-3.439-5.069,1.358-5.135,1.468h0s.478-5.086,3.2-4.9C378.32,323.425,379.447,326.073,379.133,327.623Z" transform="translate(-282.227 -234.4)" fill="#dbdbdb"/>
    <path id="Path_3621" data-name="Path 3621" d="M378.744,337.594a1.065,1.065,0,0,1-.25.206c-1.41.825-5.292-.33-5.534-.4h0c3.684.811,4.871-.421,5.174-1.419l.022.03.077.115a3.345,3.345,0,0,1,.484,1.13,1.236,1.236,0,0,0,.028.176A1.066,1.066,0,0,1,378.744,337.594Z" transform="translate(-282.198 -243.615)" fill="#a6a6a6"/>
    <path id="Path_3622" data-name="Path 3622" d="M351.131,325.627a1.628,1.628,0,0,0,.234.8.6.6,0,0,1,.038-.165,1.462,1.462,0,0,1,.052-.168,3.2,3.2,0,0,1,.643-1.047l.093-.1.025-.027h0l.047-.047c2.573-3.1,4.816,2.084,4.863,2.2h0s.275-5.1-2.452-5.314C352.547,321.591,351.046,324.043,351.131,325.627Z" transform="translate(-266.367 -233.292)" fill="#dbdbdb"/>
    <path id="Path_3623" data-name="Path 3623" d="M352,334.789a1.124,1.124,0,0,0,.217.239c1.276,1.028,5.287.445,5.534.41h0c-3.764.275-4.759-1.127-4.913-2.158l-.025.028-.093.1a3.28,3.28,0,0,0-.643,1.047,1.459,1.459,0,0,0-.052.168A1.53,1.53,0,0,0,352,334.789Z" transform="translate(-267 -241.657)" fill="#a6a6a6"/>
    <path id="Path_3624" data-name="Path 3624" d="M347.36,353.292h14.334l-.525-10.15-12.377-.443Z" transform="translate(-263.635 -248.487)" fill="#ebebeb"/>
    <path id="Path_3625" data-name="Path 3625" d="M347.36,353.292h14.334l-.525-10.15-12.377-.443Z" transform="translate(-263.635 -248.487)" fill="#fff" opacity="0.6"/>
    <path id="Path_3626" data-name="Path 3626" d="M336.7,353.292h4.074L341.4,342.7l-4.2.784Z" transform="translate(-255.906 -248.487)" fill="#ebebeb"/>
    <path id="Path_3627" data-name="Path 3627" d="M366.551,340.338v3.544l-12.761-.44V339.39Z" transform="translate(-268.298 -246.087)" fill="#ebebeb"/>
    <path id="Path_3628" data-name="Path 3628" d="M366.551,340.338v3.544l-12.761-.44V339.39Z" transform="translate(-268.298 -246.087)" fill="#fff" opacity="0.4"/>
    <path id="Path_3629" data-name="Path 3629" d="M335.6,343.882l4.8-.44V339.39l-5.075.948Z" transform="translate(-254.913 -246.087)" fill="#ebebeb"/>
    <path id="Path_3630" data-name="Path 3630" d="M335.6,343.882l4.8-.44V339.39l-5.075.948Z" transform="translate(-254.913 -246.087)" opacity="0.1"/>
    <path id="Path_3631" data-name="Path 3631" d="M375.853,341.034l-.124,10.859h-3.384l-.055-11.123Z" transform="translate(-281.712 -247.088)" fill="#dbdbdb"/>
    <path id="Path_3632" data-name="Path 3632" d="M343.073,340.77l-1.273.236v10.887h1.064Z" transform="translate(-259.604 -247.088)" fill="#dbdbdb"/>
    <path id="Path_3633" data-name="Path 3633" d="M86.618,327.623a1.606,1.606,0,0,1-.346.756c0-.055,0-.11,0-.168a1.374,1.374,0,0,0-.027-.176,3.238,3.238,0,0,0-.484-1.13c-.025-.038-.049-.077-.077-.115a.21.21,0,0,0-.022-.03h0c0-.019-.025-.036-.036-.052-2.1-3.439-5.072,1.358-5.135,1.468h0s.481-5.086,3.2-4.9C85.807,323.425,86.934,326.073,86.618,327.623Z" transform="translate(-70.131 -234.4)" fill="#dbdbdb"/>
    <path id="Path_3634" data-name="Path 3634" d="M86.264,337.594a1.125,1.125,0,0,1-.25.206c-1.41.825-5.295-.33-5.534-.4h0c3.684.811,4.871-.421,5.174-1.419a.209.209,0,0,1,.022.03c.027.038.052.077.077.115a3.238,3.238,0,0,1,.484,1.13,1.374,1.374,0,0,1,.027.176A1.064,1.064,0,0,0,86.264,337.594Z" transform="translate(-70.124 -243.615)" fill="#a6a6a6"/>
    <path id="Path_3635" data-name="Path 3635" d="M58.611,325.627a1.628,1.628,0,0,0,.234.8.709.709,0,0,1,.036-.165c.014-.055.033-.11.052-.168a3.216,3.216,0,0,1,.646-1.047l.093-.1.025-.027h0l.044-.047c2.576-3.1,4.819,2.084,4.866,2.2h0s.275-5.1-2.449-5.314C60.027,321.591,58.526,324.043,58.611,325.627Z" transform="translate(-54.265 -233.292)" fill="#dbdbdb"/>
    <path id="Path_3636" data-name="Path 3636" d="M59.47,334.789a1.059,1.059,0,0,0,.217.239c1.276,1.028,5.284.445,5.534.41h0c-3.761.275-4.756-1.127-4.91-2.158l-.025.028-.093.1a3.3,3.3,0,0,0-.646,1.047c-.019.058-.036.113-.052.168A1.1,1.1,0,0,0,59.47,334.789Z" transform="translate(-54.89 -241.657)" fill="#a6a6a6"/>
    <path id="Path_3637" data-name="Path 3637" d="M54.84,353.292H69.174l-.525-10.15L56.272,342.7Z" transform="translate(-51.533 -248.487)" fill="#ebebeb"/>
    <path id="Path_3638" data-name="Path 3638" d="M54.84,353.292H69.174l-.525-10.15L56.272,342.7Z" transform="translate(-51.533 -248.487)" fill="#fff" opacity="0.6"/>
    <path id="Path_3639" data-name="Path 3639" d="M44.18,353.292h4.071l.624-10.592-4.2.784Z" transform="translate(-43.803 -248.487)" fill="#ebebeb"/>
    <path id="Path_3640" data-name="Path 3640" d="M74.024,340.338v3.544l-12.764-.44V339.39Z" transform="translate(-56.188 -246.087)" fill="#ebebeb"/>
    <path id="Path_3641" data-name="Path 3641" d="M74.024,340.338v3.544l-12.764-.44V339.39Z" transform="translate(-56.188 -246.087)" fill="#fff" opacity="0.4"/>
    <path id="Path_3642" data-name="Path 3642" d="M43.082,343.882l4.8-.44V339.39l-5.072.948Z" transform="translate(-42.81 -246.087)" fill="#ebebeb"/>
    <path id="Path_3643" data-name="Path 3643" d="M43.082,343.882l4.8-.44V339.39l-5.072.948Z" transform="translate(-42.81 -246.087)" opacity="0.1"/>
    <path id="Path_3644" data-name="Path 3644" d="M83.333,341.034l-.126,10.859H79.825L79.77,340.77Z" transform="translate(-69.609 -247.088)" fill="#dbdbdb"/>
    <path id="Path_3645" data-name="Path 3645" d="M50.553,340.77l-1.273.236v10.887h1.064Z" transform="translate(-47.501 -247.088)" fill="#dbdbdb"/>
  </g>
  <g id="freepik--Floor--inject-78" transform="translate(0 104.695)">
    <path id="Path_3646" data-name="Path 3646" d="M41.45,380.965l14.334-.066,14.334-.025,28.665-.044,28.665.044,14.334.025,14.334.066-14.334.069-14.334.025-28.665.044-28.665-.044-14.334-.025Z" transform="translate(-41.45 -380.83)" fill="#263238"/>
  </g>
  <g id="freepik--Shadow--inject-78" transform="translate(9.971 113.731)">
    <ellipse id="Ellipse_1876" data-name="Ellipse 1876" cx="47.362" cy="4.357" rx="47.362" ry="4.357" transform="translate(0)" fill="#ebebeb"/>
  </g>
  <g id="freepik--Plant--inject-78" transform="translate(0.074 71.149)">
    <path id="Path_3647" data-name="Path 3647" d="M79.707,269.427a20.474,20.474,0,0,1,.476-3.346,7.406,7.406,0,0,1,1.2-2.821,3.574,3.574,0,0,1,2.342-1.46,3.3,3.3,0,0,1,2.474.874,11.818,11.818,0,0,1,2.111,2.584,31.087,31.087,0,0,1,1.825,3.194.031.031,0,1,1-.055.03,19.7,19.7,0,0,0-1.633-2.675,16.9,16.9,0,0,0-1.878-2.274,3.705,3.705,0,0,0-2.345-1.221,2.881,2.881,0,0,0-2.293,1.182,7.078,7.078,0,0,0-1.155,2.711,20.382,20.382,0,0,0-.47,3.186c-.179,2.2-.228,4.421-.275,6.631-.027,1.251-.044,2.5-.058,3.753v1.9a11.653,11.653,0,0,1-.074,1.834c-.019.124-.223.113-.242,0a10.777,10.777,0,0,1-.085-1.737c0-.6,0-1.2-.019-1.8q-.016-1.751-.014-3.505C79.517,274.119,79.547,271.766,79.707,269.427Z" transform="translate(-69.137 -260.963)" fill="#263238"/>
    <path id="Path_3648" data-name="Path 3648" d="M90.379,265.607a5.218,5.218,0,0,1,.682-1.924c.641-.869,1.328-.489.69.47a5.754,5.754,0,0,0-.893,2.37,9.071,9.071,0,0,0,2.367,2.285,10.171,10.171,0,0,1-.107-2.367c.247-1.894,1.394-1.787,1.1-.275a13.057,13.057,0,0,0-.275,3.041,6.447,6.447,0,0,0,1.375.676c-.074-.217-.154-.481-.242-.8-.459-1.7.674-2.227.709-1.273a13.491,13.491,0,0,0,.44,2.408c.621.209,1.135.352,1.452.462a5.317,5.317,0,0,1,2.122,1.449,6.768,6.768,0,0,0,1.446-1.869c-.4-.341-1.023-.847-1.889-1.46-1.627-1.149-1.061-2.6.228-1.7a7.436,7.436,0,0,1,1.979,2.474,10.07,10.07,0,0,0,.74-3.387c-1.278-1.2-4.44-2.87-3.486-2.87.858,0,2.774,1.256,3.478,1.74a8.623,8.623,0,0,0-.107-.984c-1.2-.789-5.113-2.015-4.492-2.37.685-.388,3.414.877,4.239,1.276a4.985,4.985,0,0,0-.723-1.5c-1.663-2.227-4.674-2.994-5.971-2.57-.924.3-.654,2.65-.852,2.57C90.7,259.985,89.012,261.058,90.379,265.607Zm9.116-.258c.275-.319,1.485.619,1.133,1.133S99.157,265.759,99.495,265.349Zm-6.375-2c.319.206-.154,1.391-.649,1.034-.423-.3.324-1.24.649-1.034Z" transform="translate(-76.661 -258.805)" fill="#2777ff"/>
    <path id="Path_3649" data-name="Path 3649" d="M90.379,265.607a5.218,5.218,0,0,1,.682-1.924c.641-.869,1.328-.489.69.47a5.754,5.754,0,0,0-.893,2.37,9.071,9.071,0,0,0,2.367,2.285,10.171,10.171,0,0,1-.107-2.367c.247-1.894,1.394-1.787,1.1-.275a13.057,13.057,0,0,0-.275,3.041,6.447,6.447,0,0,0,1.375.676c-.074-.217-.154-.481-.242-.8-.459-1.7.674-2.227.709-1.273a13.491,13.491,0,0,0,.44,2.408c.621.209,1.135.352,1.452.462a5.317,5.317,0,0,1,2.122,1.449,6.768,6.768,0,0,0,1.446-1.869c-.4-.341-1.023-.847-1.889-1.46-1.627-1.149-1.061-2.6.228-1.7a7.436,7.436,0,0,1,1.979,2.474,10.07,10.07,0,0,0,.74-3.387c-1.278-1.2-4.44-2.87-3.486-2.87.858,0,2.774,1.256,3.478,1.74a8.623,8.623,0,0,0-.107-.984c-1.2-.789-5.113-2.015-4.492-2.37.685-.388,3.414.877,4.239,1.276a4.985,4.985,0,0,0-.723-1.5c-1.663-2.227-4.674-2.994-5.971-2.57-.924.3-.654,2.65-.852,2.57C90.7,259.985,89.012,261.058,90.379,265.607Zm9.116-.258c.275-.319,1.485.619,1.133,1.133S99.157,265.759,99.495,265.349Zm-6.375-2c.319.206-.154,1.391-.649,1.034-.423-.3.324-1.24.649-1.034Z" transform="translate(-76.661 -258.805)" opacity="0.1"/>
    <path id="Path_3650" data-name="Path 3650" d="M100.925,271.055c.168-.333.341-.663.533-.981a5.522,5.522,0,0,1,.616-.891c-.055-.066-.1-.132-.159-.2s.017-.063.038-.038c.063.071.121.143.181.217a.06.06,0,0,1,.027.03c.228.275.445.55.652.847a9.893,9.893,0,0,1,1.08.313c.366.124.726.25,1.08.4.038.017.019.077-.016.06-.352-.154-.709-.305-1.072-.429s-.7-.206-1.045-.305c.113.162.225.322.333.487a12.784,12.784,0,0,1,1.911.781c.643.305,1.265.663,1.883,1.02.036.019,0,.074-.033.052a20.847,20.847,0,0,0-1.875-.97c-.6-.275-1.218-.509-1.82-.775,1.518,2.37,2.43,5.105,3.648,7.637.016.036-.041.066-.055.03-.374-.888-.8-1.754-1.207-2.628-.363-.784-.718-1.573-1.08-2.356-.107-.228-.217-.459-.327-.687a34.4,34.4,0,0,0,.245,3.8.03.03,0,0,1-.06,0c-.088-1.355-.327-2.686-.316-4.047v-.017c-.258-.517-.533-1.028-.825-1.523a17.855,17.855,0,0,0-1.267,3.659c0,.039-.071.022-.06-.019a18.159,18.159,0,0,1,1.273-3.731,14.148,14.148,0,0,0-1.069-1.542c-.168.316-.385.613-.575.913s-.374.591-.55.893a13.1,13.1,0,0,0-.948,2.007c0,.039-.077.019-.06-.016C100.3,272.389,100.592,271.7,100.925,271.055Z" transform="translate(-83.979 -266.149)" fill="#263238"/>
    <path id="Path_3651" data-name="Path 3651" d="M59.788,281.177c.973-.979,2.109-2.26,3.612-2.257a3.794,3.794,0,0,1,3.14,2.381,12.451,12.451,0,0,1,1.056,4.082,49.442,49.442,0,0,1,.385,5.02c.027.932.022,1.867,0,2.8a18.616,18.616,0,0,1-.215,2.825c-.027.147-.274.153-.274,0-.044-.784,0-1.573,0-2.359s0-1.548-.036-2.32c-.058-1.564-.17-3.126-.355-4.673a22.63,22.63,0,0,0-.7-4.063,4.71,4.71,0,0,0-2.252-3.057c-1.649-.709-3.236.586-4.305,1.68C59.808,281.246,59.761,281.2,59.788,281.177Z" transform="translate(-54.815 -273.39)" fill="#263238"/>
    <path id="Path_3652" data-name="Path 3652" d="M41.72,277.381h0c0,.2.019.4.033.591a3.543,3.543,0,0,1,1.6-.663c1.375-.146,1.295.9.371.948a5.248,5.248,0,0,0-1.9.382,11.312,11.312,0,0,0,.8,3.3,26.115,26.115,0,0,0,3.654-.454c-.344-.731-1.127-1.707-.729-1.784s.838.789,1.058,1.718a17.665,17.665,0,0,0,2.658-.731c-.608-.528-1.551-1.182-1.19-1.463s1.1.643,1.553,1.314a5.309,5.309,0,0,0,1.149-.641c-.825-1.2-2.818-1.449-2.557-2.318s2.131.335,2.969,1.946a4.76,4.76,0,0,0,1.171-3.7c-.858-.1-2.51.08-2.392-.536s1.314-.5,2.29-.14a3.448,3.448,0,0,0-.569-1.361c-.907-1.16-3.667.316-3.667.316s.3-2.774-.759-3.255a3.135,3.135,0,0,0-2.749.36,2.313,2.313,0,0,1,1.625.657c.374.533-.217.825-.591.577a3.051,3.051,0,0,0-1.649-.794,5.465,5.465,0,0,0-1,1.1,5.261,5.261,0,0,0-.283.473,3.8,3.8,0,0,1,3.233.058c1.2.6.528,1.839-.5,1.355a4.613,4.613,0,0,0-3.1-.685,7.728,7.728,0,0,0-.525,3.1A5.355,5.355,0,0,1,43.5,276.2c1.19-.313,1.551.4.242.531a5.223,5.223,0,0,0-2.021.654Zm1.452-1.911c-.082-.385.762-.495.9-.181C44.189,275.555,43.249,275.858,43.172,275.47Zm7.222,2.136c.08-.209.643.03.591.291-.071.349-.665-.08-.594-.291Zm-3.986,1.353c.41-.165,1.053.86.6,1.1s-.946-.965-.608-1.1Z" transform="translate(-41.72 -267.411)" fill="#2777ff"/>
    <path id="Path_3653" data-name="Path 3653" d="M45.6,291.122c.619-1.039,1.232-2.081,1.883-3.1.3-.476.621-.94.951-1.4a.96.96,0,0,1-.148-.033l-.247-.049c-.19-.033-.382-.06-.575-.08s-.363-.027-.55-.03a2.718,2.718,0,0,0-.58.03.016.016,0,1,1,0-.03c.192,0,.39-.017.586-.019s.377,0,.566.014a4.907,4.907,0,0,1,.528.055l.275.049a1.762,1.762,0,0,1,.173.036c.335-.462.685-.913,1.045-1.358a12.485,12.485,0,0,0-3.4-1.083c-.019,0,0-.033,0-.03a11.517,11.517,0,0,1,3.445,1.045c.2-.242.4-.487.6-.726s.462-.533.665-.825c0-.017.041,0,.025.019a12.144,12.144,0,0,0-.786.965h0a11.777,11.777,0,0,1,1.262,1.014c.412.366.825.745,1.207,1.133.016.014,0,.036-.022.022q-.577-.577-1.207-1.1c-.418-.349-.86-.668-1.281-1.012l-.289.382-.146.19h0c-.162.209-.322.421-.481.632a5.075,5.075,0,0,1,.478.863,7.205,7.205,0,0,1,.371.9,12.818,12.818,0,0,1,.517,1.944.016.016,0,1,1-.03,0,11.193,11.193,0,0,0-.55-1.9c-.121-.319-.258-.627-.4-.935s-.275-.55-.407-.825c-.137.187-.275.371-.412.55l-.118.165a.017.017,0,0,1-.014.028h0c-.426.6-.825,1.2-1.226,1.82a.633.633,0,0,1,.055.135c.025.077.049.151.071.228a4.335,4.335,0,0,1,.107.462c.027.146.047.291.06.44a4.38,4.38,0,0,0,.038.5c0,.025-.036.025-.03,0a1.573,1.573,0,0,0-.036-.467c-.022-.162-.052-.319-.088-.478s-.071-.275-.115-.423c-.019-.071-.044-.14-.066-.209l-.044-.115c-.184.289-.368.58-.55.871-.357.58-.712,1.163-1.067,1.743C45.626,291.163,45.579,291.136,45.6,291.122Z" transform="translate(-44.529 -276.773)" fill="#263238"/>
    <path id="Path_3654" data-name="Path 3654" d="M80.4,313.242c.017-.588.11-1.182.173-1.765s.129-1.174.192-1.762a27.183,27.183,0,0,1,.454-3.4,4.979,4.979,0,0,1,1.375-2.543,2.268,2.268,0,0,1,1.358-.646,2.329,2.329,0,0,1,1.438.445,5,5,0,0,1,1.212,1.276,12.308,12.308,0,0,1,.943,1.531c0,.022-.022.033-.033.014a7.777,7.777,0,0,0-2.043-2.287,2.375,2.375,0,0,0-1.287-.536,1.735,1.735,0,0,0-1.248.5,4.673,4.673,0,0,0-1.32,2.331,24.17,24.17,0,0,0-.5,3.139c-.082.621-.162,1.245-.245,1.867s-.135,1.254-.275,1.864a.1.1,0,0,1-.2-.027Z" transform="translate(-69.766 -290.942)" fill="#263238"/>
    <path id="Path_3655" data-name="Path 3655" d="M88.928,307.918a3.249,3.249,0,0,0,.638.654,4.019,4.019,0,0,1,.077-2.136c.451-.841.981-.423.715.311a5.949,5.949,0,0,0-.434,2.076,8.98,8.98,0,0,0,1.952.921,3.3,3.3,0,0,1-.063-1c.091-.9.781-.885.6.052a5.944,5.944,0,0,0-.093,1.1,20.129,20.129,0,0,0,3.043.687,8.935,8.935,0,0,0,1.259-2.241c-.734-.184-2.219-.225-2.2-.751.041-.7,1.479-.162,2.32.349a5.663,5.663,0,0,0,.256-1.9,9.494,9.494,0,0,0-2.023-.335c-1.509-.129-1.435-.987-.341-.965a6.011,6.011,0,0,1,2.312.764,3.841,3.841,0,0,0-3.137-3.42c-2.111-.085-1.353,2.543-1.353,2.543a5.582,5.582,0,0,0-2.782-.979C88.32,303.676,87.485,305.909,88.928,307.918Zm5.638-3.8c-.047-.3.9-.368.946,0C95.567,304.559,94.616,304.421,94.566,304.122ZM96.1,307.2c-.019-.192.388-.228.478.016C96.625,307.377,96.1,307.393,96.1,307.2Zm-5.072.179c.319.047.5,1.185-.047,1.16-.432-.016-.236-1.2.033-1.16Z" transform="translate(-75.402 -290.185)" fill="#2777ff"/>
    <path id="Path_3656" data-name="Path 3656" d="M88.928,307.918a3.249,3.249,0,0,0,.638.654,4.019,4.019,0,0,1,.077-2.136c.451-.841.981-.423.715.311a5.949,5.949,0,0,0-.434,2.076,8.98,8.98,0,0,0,1.952.921,3.3,3.3,0,0,1-.063-1c.091-.9.781-.885.6.052a5.944,5.944,0,0,0-.093,1.1,20.129,20.129,0,0,0,3.043.687,8.935,8.935,0,0,0,1.259-2.241c-.734-.184-2.219-.225-2.2-.751.041-.7,1.479-.162,2.32.349a5.663,5.663,0,0,0,.256-1.9,9.494,9.494,0,0,0-2.023-.335c-1.509-.129-1.435-.987-.341-.965a6.011,6.011,0,0,1,2.312.764,3.841,3.841,0,0,0-3.137-3.42c-2.111-.085-1.353,2.543-1.353,2.543a5.582,5.582,0,0,0-2.782-.979C88.32,303.676,87.485,305.909,88.928,307.918Zm5.638-3.8c-.047-.3.9-.368.946,0C95.567,304.559,94.616,304.421,94.566,304.122ZM96.1,307.2c-.019-.192.388-.228.478.016C96.625,307.377,96.1,307.393,96.1,307.2Zm-5.072.179c.319.047.5,1.185-.047,1.16-.432-.016-.236-1.2.033-1.16Z" transform="translate(-75.402 -290.185)" opacity="0.1"/>
    <path id="Path_3657" data-name="Path 3657" d="M100.105,324.862c.052-.143.1-.275.143-.432-.041.148-.077.294-.1.443C100.138,324.889,100.094,324.878,100.105,324.862Z" transform="translate(-84.053 -306.389)" fill="#263238"/>
    <path id="Path_3658" data-name="Path 3658" d="M101.122,313.824c.1-.291.212-.58.324-.866.06-.154.124-.305.19-.456a1.882,1.882,0,0,1,.19-.379,2.6,2.6,0,0,1-.17-.368s0-.022.019,0a4.572,4.572,0,0,1,.41.638c.06.1.115.2.173.3a3.071,3.071,0,0,1,.355.055l.379.077.374.088c.126.03.25.071.377.091.027,0,.017.049,0,.038a2.472,2.472,0,0,0-.4-.1c-.121-.027-.242-.049-.366-.066s-.245-.033-.368-.044l-.275-.025c.052.091.1.176.154.275a.3.3,0,0,0,.022.041,1.246,1.246,0,0,1,.3.036l.327.066c.22.049.44.1.657.162.456.126.907.275,1.358.421.025,0,0,.044-.016.036a13.208,13.208,0,0,0-1.375-.377l-.649-.146-.327-.069a1.925,1.925,0,0,1-.25-.055c.231.429.451.866.652,1.311.437.968.805,1.966,1.182,2.961,0,.025-.03.041-.038.016a27.3,27.3,0,0,0-1.262-2.922c-.085-.173-.173-.344-.258-.514a.507.507,0,0,1-.022.1c-.022.115-.041.234-.063.352-.038.236-.08.47-.113.707a8.289,8.289,0,0,0-.17,1.468c0,.03-.047.03-.041,0a6.885,6.885,0,0,0,.052-.715c.017-.247.033-.495.063-.74s.058-.476.1-.709c.019-.118.041-.236.063-.355a.676.676,0,0,1,.066-.256l-.371-.742c-.118-.234-.236-.465-.357-.7l-.162-.294a2.781,2.781,0,0,1-.137.355l-.165.4c-.121.294-.234.591-.346.888-.159.423-.335.855-.467,1.295C100.869,314.688,100.979,314.25,101.122,313.824Z" transform="translate(-84.515 -297.191)" fill="#263238"/>
    <path id="Path_3659" data-name="Path 3659" d="M100.63,324.122a.386.386,0,0,1,.03-.1C100.652,324.056,100.641,324.089,100.63,324.122Z" transform="translate(-84.435 -306.091)" fill="#263238"/>
    <path id="Path_3660" data-name="Path 3660" d="M67.56,335.76l.148,3.142.382,8.1h8.357l.382-8.1.148-3.142Z" transform="translate(-60.456 -314.604)" fill="#37474f"/>
    <path id="Path_3661" data-name="Path 3661" d="M67.56,335.76l.148,3.142H76.83l.148-3.142Z" transform="translate(-60.456 -314.604)" fill="#263238"/>
    <rect id="Rectangle_244" data-name="Rectangle 244" width="10.609" height="2.54" transform="translate(17.116 22.423) rotate(180)" fill="#37474f"/>
    <rect id="Rectangle_245" data-name="Rectangle 245" width="1.468" height="1.331" transform="translate(13.847 32.4)" fill="#37474f"/>
    <rect id="Rectangle_246" data-name="Rectangle 246" width="1.468" height="0.665" transform="translate(13.847 32.4)" fill="#263238"/>
    <rect id="Rectangle_247" data-name="Rectangle 247" width="1.465" height="1.331" transform="translate(8.311 32.4)" fill="#37474f"/>
    <rect id="Rectangle_248" data-name="Rectangle 248" width="1.465" height="0.665" transform="translate(8.311 32.4)" fill="#263238"/>
  </g>
  <g id="freepik--label-2--inject-78" transform="translate(57.374 20.639)">
    <path id="Path_3662" data-name="Path 3662" d="M255.636,133.63l-.082.113c-.113.148-2.763,3.648-4.52,3.266-.55-.121-.874-.418-.885-.825-.027-.8,1.053-1.8,2.356-2.166a11.6,11.6,0,0,1,2.991-.385Zm-5.133,1.924a1.16,1.16,0,0,0-.212.632c0,.346.275.586.772.7,1.5.324,3.8-2.474,4.283-3.1a11.307,11.307,0,0,0-2.8.379,3.643,3.643,0,0,0-2.04,1.375Z" transform="translate(-250.148 -117.533)" fill="#263238"/>
    <path id="Path_3663" data-name="Path 3663" d="M273.985,75.233a.465.465,0,0,0-.657-.028L261.974,85.592a.47.47,0,0,0-.148.385l.368,4.566v.066l.014.118v.052l.14,1.729a.462.462,0,0,0,.385.423l1.726.294.157.025,4.58.778a.454.454,0,0,0,.4-.115l11.351-10.386a.467.467,0,0,0,.027-.663Z" transform="translate(-258.614 -75.081)" fill="#fff"/>
    <path id="Path_3664" data-name="Path 3664" d="M273.91,75.228a.456.456,0,0,0-.4-.146.462.462,0,0,0-.206.08c-.06.044-.11.1-.168.148l-.657.6-1.314,1.207-2.631,2.419-5.259,4.838-1.314,1.207a.445.445,0,0,0-.168.36l.036.443.074.891.3,3.56.074.891.036.445.019.223v.11a.358.358,0,0,0,.022.093.4.4,0,0,0,.275.256c.132.027.275.049.434.074l.88.148,3.524.591.88.151.44.074.22.038.11.019a.291.291,0,0,0,.1,0,.385.385,0,0,0,.181-.052.377.377,0,0,0,.08-.055l.082-.077.33-.3.66-.6,2.642-2.405,5.281-4.811,1.322-1.2.66-.6.33-.3a.651.651,0,0,0,.146-.157.462.462,0,0,0,.06-.2.413.413,0,0,0-.039-.206.621.621,0,0,0-.126-.173l-.3-.33-.6-.66-1.2-1.32Zm0,0,4.838,5.259,1.21,1.314.6.657.3.33a.659.659,0,0,1,.137.184.508.508,0,0,1,.044.231.492.492,0,0,1-.069.223.668.668,0,0,1-.154.173l-.327.3-.66.6-1.314,1.21-5.256,4.836-2.631,2.419-.657.6-.327.3-.082.077a.553.553,0,0,1-.346.146.592.592,0,0,1-.124,0l-.113-.019-.22-.036-.44-.074-.88-.148-3.522-.624-.88-.151c-.148-.027-.289-.047-.445-.08a.525.525,0,0,1-.355-.333.592.592,0,0,1-.025-.121V92.4l-.019-.223-.033-.445-.069-.891-.275-3.56-.069-.891-.036-.448a.533.533,0,0,1,.2-.421l1.322-1.2,5.281-4.811,2.623-2.4,1.322-1.2.66-.6c.058-.047.107-.1.168-.146a.487.487,0,0,1,.209-.08A.467.467,0,0,1,273.91,75.228Z" transform="translate(-258.539 -75.075)" fill="#ebebeb"/>
    <path id="Path_3665" data-name="Path 3665" d="M268.674,131.565a.715.715,0,0,1,.1-.126h0a.619.619,0,0,1,.825.913h0a.551.551,0,0,1-.091.069l-.06.03a.616.616,0,0,1-.783-.88Z" transform="translate(-263.508 -115.857)" fill="#fff"/>
    <path id="Path_3666" data-name="Path 3666" d="M268.675,131.4a.645.645,0,0,1,.1-.129h0a.671.671,0,0,1,.448-.179.643.643,0,0,1,.462.187.66.66,0,0,1-.027.957h0l-.055.041-.058.038h0a.624.624,0,0,1-.434.074.649.649,0,0,1-.371-.206A.657.657,0,0,1,268.675,131.4Zm0,0a.6.6,0,0,0-.074.393.58.58,0,0,0,.533.487.6.6,0,0,0,.346-.088h0l.044-.036.047-.036h0a.569.569,0,0,0,.179-.379.588.588,0,0,0-.126-.41.575.575,0,0,0-.4-.212.588.588,0,0,0-.443.143h0A.55.55,0,0,0,268.675,131.4Z" transform="translate(-263.509 -115.691)" fill="#ebebeb"/>
    <path id="Path_3667" data-name="Path 3667" d="M275.282,78.74,264.835,88.3a.478.478,0,0,0-.157.379l.253,4.385V93.2l.077,1.322a.437.437,0,0,0,.39.412l5.8.855a.467.467,0,0,0,.39-.121l10.447-9.556a.465.465,0,0,0,.044-.654l-6.144-6.708a.459.459,0,0,0-.652-.014Zm.591.071,6.139,6.7a.379.379,0,0,1-.038.55L271.526,95.62a.4.4,0,0,1-.324.1l-5.8-.855a.355.355,0,0,1-.212-.113.349.349,0,0,1-.093-.223l-.077-1.317v-.146l-.253-4.4a.4.4,0,0,1,.129-.313L275.345,78.8A.377.377,0,0,1,275.873,78.812Z" transform="translate(-260.683 -77.639)" fill="#263238"/>
  </g>
  <g id="freepik--label-1--inject-78" transform="translate(14.334 52.994)">
    <path id="Path_3668" data-name="Path 3668" d="M170.536,265.32a14.361,14.361,0,0,1,3.709.476c1.614.459,2.95,1.688,2.92,2.683-.017.514-.407.88-1.1,1.031-2.177.473-5.463-3.862-5.6-4.047l-.1-.14Zm3.659.649a14,14,0,0,0-3.48-.462c.6.756,3.456,4.239,5.309,3.835.613-.132.943-.432.957-.86a1.454,1.454,0,0,0-.261-.784,4.528,4.528,0,0,0-2.529-1.729Z" transform="translate(-149.255 -245.374)" fill="#263238"/>
    <path id="Path_3669" data-name="Path 3669" d="M102.565,192.961a.575.575,0,0,1,.825-.036L117.457,205.8a.583.583,0,0,1,.184.476l-.451,5.658v.08l-.014.148v.066l-.17,2.142a.575.575,0,0,1-.478.522l-2.139.366-.192.03-5.671.965a.566.566,0,0,1-.489-.143L93.947,203.234a.58.58,0,0,1-.036-.825Z" transform="translate(-93.71 -192.768)" fill="#fff"/>
    <path id="Path_3670" data-name="Path 3670" d="M96.484,199.514l-1.493,1.636-.745.825-.371.407a.729.729,0,0,0-.157.214.549.549,0,0,0,.027.5.809.809,0,0,0,.181.2l.407.374.825.745,1.649,1.49,6.515,5.955,3.3,2.977.825.745.407.374.1.093a.623.623,0,0,0,.1.071.484.484,0,0,0,.223.063.619.619,0,0,0,.121,0l.137-.022.275-.049.55-.093,1.1-.187,4.366-.731,1.1-.184c.179-.03.371-.058.55-.091a.514.514,0,0,0,.341-.316.563.563,0,0,0,.025-.118v-.137l.022-.275.047-.55.091-1.1.368-4.4.091-1.1.047-.55a.55.55,0,0,0-.209-.445l-1.63-1.5-6.57-6.021-3.247-3-1.63-1.5-.825-.751a2.2,2.2,0,0,0-.209-.181.55.55,0,0,0-.253-.1.569.569,0,0,0-.5.181Zm6.46-6.73a.6.6,0,0,1,.256.1,2.7,2.7,0,0,1,.209.184l.825.745,1.649,1.49,3.274,2.98,6.537,5.96,1.649,1.49a.646.646,0,0,1,.242.522l-.041.55-.085,1.1-.346,4.412-.085,1.1-.044.55-.022.275v.14a.571.571,0,0,1-.033.151.646.646,0,0,1-.437.41c-.2.041-.366.066-.55.1l-1.1.19-4.363.753-1.1.184-.55.091-.275.044-.135.025a.739.739,0,0,1-.157,0,.663.663,0,0,1-.3-.088.585.585,0,0,1-.124-.093l-.1-.093-.407-.374-.825-.751-3.258-3-6.521-5.968-1.627-1.5-.825-.751-.41-.374a.941.941,0,0,1-.19-.212.668.668,0,0,1-.085-.275.64.64,0,0,1,.055-.275.846.846,0,0,1,.168-.231l.377-.407.748-.825,1.5-1.627,5.993-6.515A.58.58,0,0,1,102.945,192.785Z" transform="translate(-93.589 -192.776)" fill="#ebebeb"/>
    <path id="Path_3671" data-name="Path 3671" d="M168.1,262.593a.856.856,0,0,0-.126-.157v-.014h0a.765.765,0,0,0-1.031,1.13h0a.81.81,0,0,0,.115.082.276.276,0,0,0,.074.038.764.764,0,0,0,.973-1.1Z" transform="translate(-146.596 -243.129)" fill="#fff"/>
    <path id="Path_3672" data-name="Path 3672" d="M167.707,263.49a.806.806,0,0,1-.462.256.8.8,0,0,1-.55-.091h0l-.071-.049-.069-.049h0a.806.806,0,0,1-.033-1.182.794.794,0,0,1,.572-.234.825.825,0,0,1,.55.22h0l.014.014h0a.882.882,0,0,1,.124.159A.825.825,0,0,1,167.707,263.49Zm-.036-1.113h0l-.014-.014h0a.723.723,0,0,0-.55-.179.731.731,0,0,0-.489.275.748.748,0,0,0-.157.509.729.729,0,0,0,.223.47h0l.06.047.055.041h0a.72.72,0,0,0,1.091-.495.753.753,0,0,0-.091-.487A.784.784,0,0,0,167.671,262.376Z" transform="translate(-146.296 -243.069)" fill="#ebebeb"/>
    <path id="Path_3673" data-name="Path 3673" d="M105.92,197.323l-7.6,8.3a.575.575,0,0,0,.052.808l12.937,11.838a.591.591,0,0,0,.484.151l7.183-1.058a.55.55,0,0,0,.467-.509l.1-1.649v-.176l.313-5.432a.591.591,0,0,0-.192-.47l-12.937-11.84A.575.575,0,0,0,105.92,197.323Zm.729.055,12.937,11.84a.484.484,0,0,1,.159.39l-.313,5.435v.179l-.093,1.636a.451.451,0,0,1-.115.275.465.465,0,0,1-.275.137l-7.183,1.058a.5.5,0,0,1-.4-.126L98.437,206.365a.473.473,0,0,1-.047-.665l7.6-8.305A.473.473,0,0,1,106.649,197.378Z" transform="translate(-96.914 -195.94)" fill="#263238"/>
  </g>
  <g id="freepik--label-text-2--inject-78" transform="translate(64.525 26.099)">
    <path id="Path_3674" data-name="Path 3674" d="M279.074,118.724a1.358,1.358,0,0,1-1.9,1.924h0c-.077-.074-.151-.148-.223-.228a3.254,3.254,0,0,1-.63-.976,1.982,1.982,0,0,1-.115-1.193,1.619,1.619,0,0,1,.443-.762.311.311,0,0,1,.44,0,.324.324,0,0,1,0,.443,1.047,1.047,0,0,0-.275.47,1.178,1.178,0,0,0,0,.528,1.126,1.126,0,0,0,.047.157,1.282,1.282,0,0,1,.319-.445A1.355,1.355,0,0,1,279.074,118.724Zm-.459.421a.735.735,0,1,0-.045,1.038A.735.735,0,0,0,278.615,119.144Z" transform="translate(-276.161 -111.223)" fill="#455a64"/>
    <path id="Path_3675" data-name="Path 3675" d="M285.887,111.312a2.4,2.4,0,0,1-.621-1.243,1.179,1.179,0,0,1,1.531-1.4,2.582,2.582,0,0,1,1.8,1.971,1.177,1.177,0,0,1-1.531,1.4A2.433,2.433,0,0,1,285.887,111.312Zm1.63-1.493a1.858,1.858,0,0,0-.871-.55.649.649,0,0,0-.613.1.676.676,0,0,0-.162.61,1.856,1.856,0,0,0,.476.915,1.826,1.826,0,0,0,.866.55.685.685,0,0,0,.627-.1.665.665,0,0,0,.148-.608,1.861,1.861,0,0,0-.47-.921Z" transform="translate(-282.737 -104.845)" fill="#455a64"/>
    <path id="Path_3676" data-name="Path 3676" d="M294.906,98.03h0a.943.943,0,0,1,0-1.375.932.932,0,0,1,1.344.113h0a.926.926,0,1,1-1.355,1.254Zm1-.91h0a.5.5,0,0,0-.7-.129c-.2.176-.137.473.066.7h0a.506.506,0,0,0,.7.129A.489.489,0,0,0,295.9,97.12Zm1.243,2.4-.473-4.319a.212.212,0,0,1,.071-.2.223.223,0,0,1,.313,0,.275.275,0,0,1,.06.14l.473,4.319a.223.223,0,0,1-.074.206.214.214,0,0,1-.308-.014.25.25,0,0,1-.063-.129Zm.86-1.614h0a.924.924,0,1,1,1.353-1.254h0a.946.946,0,0,1,0,1.375.935.935,0,0,1-1.342-.121ZM299,97h0a.5.5,0,0,0-.7-.129c-.2.176-.137.473.069.7h0a.506.506,0,0,0,.7.129C299.26,97.518,299.2,97.221,299,97Z" transform="translate(-289.537 -94.936)" fill="#455a64"/>
  </g>
  <g id="freepik--label-text-1--inject-78" transform="translate(20.381 59.457)">
    <path id="Path_3677" data-name="Path 3677" d="M119.071,219.152a1.732,1.732,0,0,1-.462,1.262,1.757,1.757,0,0,1-1.215.55,1.718,1.718,0,0,1-1.256-.456h0a1.716,1.716,0,0,1-.55-1.21.388.388,0,0,1,.382-.415.4.4,0,0,1,.415.382.943.943,0,0,0,.992.91.959.959,0,0,0,.66-.3.915.915,0,0,0,.25-.69.9.9,0,0,0-.305-.654.94.94,0,0,0-.685-.256.4.4,0,0,1-.418-.382v-.14a.066.066,0,0,0,0-.036c0-.016.016-.03.027-.041s0,0,0-.016a.362.362,0,0,1,.082-.088l1.391-1.2a.423.423,0,0,1,.322-.088.072.072,0,0,0,.03,0h.025a.368.368,0,0,1,.162.091l1.534,1.408a.4.4,0,0,1-.55.588l-1.278-1.174-.536.456a1.888,1.888,0,0,1,.393.275A1.735,1.735,0,0,1,119.071,219.152Z" transform="translate(-115.586 -216.275)" fill="#37474f"/>
    <path id="Path_3678" data-name="Path 3678" d="M129.257,229.639a3.008,3.008,0,0,1,1.5-.915,1.485,1.485,0,0,1,1.924,1.77,3.008,3.008,0,0,1-.794,1.559,3.052,3.052,0,0,1-1.487.924,1.487,1.487,0,0,1-1.924-1.77,3.024,3.024,0,0,1,.786-1.567Zm2.054,1.886a2.345,2.345,0,0,0,.6-1.155.825.825,0,0,0-.192-.761.855.855,0,0,0-.783-.135,2.474,2.474,0,0,0-1.7,1.845.866.866,0,0,0,.2.775.839.839,0,0,0,.781.121A2.331,2.331,0,0,0,131.311,231.525Z" transform="translate(-124.896 -225.242)" fill="#37474f"/>
    <path id="Path_3679" data-name="Path 3679" d="M141.135,242.9l5.377-1.072a.283.283,0,0,1,.283.462.318.318,0,0,1-.17.093l-5.377,1.067a.294.294,0,0,1-.275-.074.275.275,0,0,1-.016-.39A.346.346,0,0,1,141.135,242.9Zm1.633-2.975h0a1.19,1.19,0,0,1,1.715-.137,1.171,1.171,0,0,1,0,1.7h0a1.193,1.193,0,0,1-1.718.137,1.179,1.179,0,0,1,0-1.7Zm.487,3.879h0a1.168,1.168,0,1,1,1.724,1.564h0a1.166,1.166,0,1,1-1.724-1.564Zm.764-2.727h0a.635.635,0,0,0,.088-.9.623.623,0,0,0-.866.162h0a.631.631,0,0,0-.085.9.62.62,0,0,0,.863-.159Zm.489,3.876h0a.558.558,0,1,0-.781-.734h0a.635.635,0,0,0-.088.9A.628.628,0,0,0,144.508,244.95Z" transform="translate(-133.929 -233.102)" fill="#37474f"/>
  </g>
  <g id="freepik--Coupon--inject-78" transform="translate(17.952 76.629)">
    <path id="Path_3680" data-name="Path 3680" d="M178.571,302.924a6.955,6.955,0,0,0,6.942,6.953v8.918H106.75v-8.918a6.955,6.955,0,1,0,0-13.909V278.74h78.762v17.229A6.955,6.955,0,0,0,178.571,302.924Z" transform="translate(-106.75 -278.74)" fill="#2777ff"/>
    <path id="Path_3681" data-name="Path 3681" d="M185.512,373.663v8.918H106.75v-8.918a6.955,6.955,0,0,0,6.955-6.953h64.866A6.955,6.955,0,0,0,185.512,373.663Z" transform="translate(-106.75 -342.526)" fill="#fff" opacity="0.3"/>
    <g id="Group_267" data-name="Group 267" transform="translate(6.68 23.906)" opacity="0.2">
      <path id="Path_3682" data-name="Path 3682" d="M131.875,366.25h-.55a.275.275,0,1,1,0-.55h.55a.275.275,0,0,1,0,.55Z" transform="translate(-131.05 -365.7)"/>
      <path id="Path_3683" data-name="Path 3683" d="M201.189,366.25h-1.1a.275.275,0,0,1,0-.55h1.1a.275.275,0,1,1,0,.55Zm-3.6,0h-1.1a.275.275,0,1,1,0-.55h1.1a.275.275,0,0,1,0,.55Zm-3.6,0h-1.1a.275.275,0,0,1,0-.55h1.1a.275.275,0,0,1,0,.55Zm-3.6,0h-1.1a.275.275,0,1,1,0-.55h1.1a.275.275,0,1,1,0,.55Zm-3.6,0h-1.1a.275.275,0,0,1,0-.55h1.1a.275.275,0,1,1,0,.55Zm-3.6,0h-1.1a.275.275,0,1,1,0-.55h1.1a.275.275,0,1,1,0,.55Zm-3.6,0h-1.1a.275.275,0,0,1,0-.55h1.1a.275.275,0,1,1,0,.55Zm-3.6,0h-1.1a.275.275,0,0,1,0-.55h1.1a.275.275,0,1,1,0,.55Zm-3.6,0h-1.1a.275.275,0,1,1,0-.55h1.1a.275.275,0,0,1,0,.55Zm-3.6,0h-1.1a.275.275,0,1,1,0-.55h1.1a.275.275,0,1,1,0,.55Zm-3.6,0h-1.1a.275.275,0,0,1,0-.55h1.1a.275.275,0,1,1,0,.55Zm-3.6,0h-1.1a.275.275,0,1,1,0-.55h1.1a.275.275,0,1,1,0,.55Zm-3.6,0h-1.1a.275.275,0,0,1,0-.55h1.1a.275.275,0,1,1,0,.55Zm-3.6,0h-1.1a.275.275,0,1,1,0-.55h1.1a.275.275,0,0,1,0,.55Zm-3.6,0h-1.1a.275.275,0,0,1,0-.55h1.1a.275.275,0,1,1,0,.55Zm-3.6,0h-1.1a.275.275,0,1,1,0-.55h1.1a.275.275,0,1,1,0,.55Zm-3.6,0h-1.1a.275.275,0,1,1,0-.55h1.1a.275.275,0,1,1,0,.55Z" transform="translate(-139.106 -365.7)"/>
      <path id="Path_3684" data-name="Path 3684" d="M365.825,366.25h-.55a.275.275,0,1,1,0-.55h.55a.275.275,0,0,1,0,.55Z" transform="translate(-300.684 -365.7)"/>
    </g>
  </g>
  <g id="freepik--Symbol--inject-78" transform="translate(48.39 88.016)">
    <path id="Path_3685" data-name="Path 3685" d="M217.47,324.74v-.052a4.273,4.273,0,0,1,4.2-4.528,4.217,4.217,0,0,1,4.151,4.478v.049a4.188,4.188,0,1,1-8.352.052Zm6.1,0v-.052c0-1.416-.808-2.579-1.946-2.579-1.19,0-1.9,1.163-1.9,2.529v.049c0,1.443.825,2.581,1.949,2.581C222.861,327.264,223.568,326.106,223.568,324.74Zm-3.186,11.821L231.994,320.7a.968.968,0,0,1,.86-.454.992.992,0,0,1,1.012.987,1.147,1.147,0,0,1-.225.657l-11.626,15.86a1.039,1.039,0,0,1-.885.454.97.97,0,0,1-.987-.987,1.141,1.141,0,0,1,.239-.657Zm7.794-2.749v-.052a4.271,4.271,0,0,1,4.2-4.528,4.216,4.216,0,0,1,4.151,4.478v.049a4.286,4.286,0,0,1-4.2,4.531,4.228,4.228,0,0,1-4.148-4.492Zm6.1,0v-.052c0-1.416-.811-2.579-1.949-2.579-1.19,0-1.9,1.163-1.9,2.529v.049c0,1.443.808,2.581,1.946,2.581,1.188-.005,1.9-1.177,1.9-2.543Z" transform="translate(-217.47 -320.16)" fill="#263238"/>
  </g>
  <g id="freepik--Character--inject-78" transform="translate(36.896 33.963)">
    <path id="Path_3686" data-name="Path 3686" d="M340.336,249.277c-.181-.55-9.9-13.38-10.557-13.627-.074-.033-4.418,3.057-4.418,3.057-.179.239-8.429-1.507-8.429-1.507l-.082,9.955,15.032-.319s2.029,1.193,3.887,2.166h0a22.3,22.3,0,0,0,2.444,1.185C338.969,250.379,340.534,249.821,340.336,249.277Z" transform="translate(-278.035 -204.83)" fill="#f7a9a0"/>
    <path id="Path_3687" data-name="Path 3687" d="M355.244,250.187A21.528,21.528,0,0,1,352.8,249h0c-1.856-.973-3.887-2.166-3.887-2.166l-3.346.071-5.237-8.451a8.167,8.167,0,0,0,2.065.247s4.338-3.087,4.415-3.054c.663.247,10.375,13.078,10.557,13.625S355.995,250.382,355.244,250.187Z" transform="translate(-295.06 -204.83)" fill="#fff"/>
    <path id="Path_3688" data-name="Path 3688" d="M362.872,249.288c-.19-.55-9.946-13.385-10.628-13.641-.256-.1-2.381,1.215-4.434,3.054l6.3,8.247s5.812,3.079,6.6,3.277S363.065,249.849,362.872,249.288Z" transform="translate(-300.484 -204.824)" fill="#a6a6a6"/>
    <path id="Path_3689" data-name="Path 3689" d="M374.351,251.688c-1.688-2.111-8.3-10.779-9.806-12.992-.014-.016,0-.027.014,0,1.718,2.054,8.247,10.774,9.828,12.973C374.42,251.716,374.387,251.74,374.351,251.688Z" transform="translate(-312.614 -207.027)" fill="#263238"/>
    <path id="Path_3690" data-name="Path 3690" d="M389.47,278.988a2.183,2.183,0,0,1-.454-1.685,2.108,2.108,0,0,1,.784-1.353c.014,0,.03.014.019.025a2.51,2.51,0,0,0-.322,2.994.017.017,0,1,1-.027.019Z" transform="translate(-330.345 -234.051)" fill="#263238"/>
    <path id="Path_3691" data-name="Path 3691" d="M370.96,270.294a3.761,3.761,0,0,1-.825-3.15c0-.041.069-.025.077,0a14.936,14.936,0,0,0,.863,3.074.069.069,0,0,1-.115.077Z" transform="translate(-316.604 -227.648)" fill="#263238"/>
    <path id="Path_3692" data-name="Path 3692" d="M373.74,271.994a3.762,3.762,0,0,1-.825-3.15c0-.041.069-.025.077,0a14.936,14.936,0,0,0,.863,3.074.069.069,0,0,1-.115.077Z" transform="translate(-318.62 -228.881)" fill="#263238"/>
    <path id="Path_3693" data-name="Path 3693" d="M376.52,273.694a3.762,3.762,0,0,1-.825-3.15c0-.041.069-.025.077,0a14.94,14.94,0,0,0,.863,3.074.069.069,0,0,1-.115.077Z" transform="translate(-320.636 -230.113)" fill="#263238"/>
    <path id="Path_3694" data-name="Path 3694" d="M379.3,275.394a3.762,3.762,0,0,1-.825-3.15c0-.041.069-.025.077,0a14.935,14.935,0,0,0,.863,3.073.069.069,0,1,1-.115.077Z" transform="translate(-322.652 -231.346)" fill="#263238"/>
    <path id="Path_3695" data-name="Path 3695" d="M358.131,242.441a.943.943,0,0,1,1.5-1.135A.943.943,0,0,1,358.131,242.441Z" transform="translate(-307.825 -208.664)" fill="#263238"/>
    <path id="Path_3696" data-name="Path 3696" d="M367.055,276.854A9.44,9.44,0,0,0,367.1,274c0-.1-.11-.129-.187-.1a.027.027,0,0,0-.044,0,5.652,5.652,0,0,0-1.605,2.455c-.17.55-.107,1.375.586,1.534S366.912,277.39,367.055,276.854Zm-.685.58c-1,.627-.924-.764-.781-1.168a5.808,5.808,0,0,1,.341-.753,16.967,16.967,0,0,1,.907-1.457c0,.462.025.918.033,1.375C366.882,275.982,366.923,277.09,366.371,277.434Z" transform="translate(-313.079 -232.558)" fill="#263238"/>
    <path id="Path_3697" data-name="Path 3697" d="M360.2,263.706c-.511.495-.146,1.226.275,1.614a5.653,5.653,0,0,0,2.642,1.276c.022,0,.033,0,.036-.03a.132.132,0,0,0,.11-.2,9.505,9.505,0,0,0-1.507-2.419C361.367,263.577,360.682,263.236,360.2,263.706Zm2.139,1.567c.228.4.437.808.682,1.2a16.955,16.955,0,0,1-1.526-.781,6.118,6.118,0,0,1-.682-.47c-.33-.275-1.1-1.427.066-1.4.652.011,1.188.981,1.46,1.454Z" transform="translate(-309.287 -225.008)" fill="#263238"/>
    <path id="Path_3698" data-name="Path 3698" d="M249.359,223.991h-6.733s-7.057-3.392-12.742-2.026c-6.515,1.567-7.348,9.754-2.474,12.646,6.172,3.667,33.636,2.958,33.636,2.958l-5.955-10.056a84.957,84.957,0,0,0-17.416-1.649l11.684,1.592Z" transform="translate(-210.918 -194.672)" fill="#37474f"/>
    <path id="Path_3699" data-name="Path 3699" d="M280,237.683a.185.185,0,0,1,0-.052.227.227,0,0,0,0-.041l-.025-.1c-.019-.066-.044-.132-.069-.2s-.055-.129-.085-.192a1.486,1.486,0,0,0-.11-.179h-.044c-1.006-.187-7.829-1.163-8.844-1.278s-2.051-.212-3.076-.3a61.369,61.369,0,0,0-6.158-.22c-.193,0-.385,0-.577.016-.041-.014-.085-.019-.126-.03-.1-.025-.2-.049-.3-.069-.184-.036-.371-.06-.55-.091-.39-.058-.778-.1-1.166-.173a.019.019,0,0,0,0,.039c.388.085.77.2,1.16.275l.335.071c-.753.038-1.5.1-2.257.165-.022,0-.025.038,0,.038,1.023-.06,2.054-.069,3.079-.052s2.034.041,3.049.1c2.056.118,4.11.3,6.155.517,1.149.118,8.107,1.135,9.262,1.182h.014a.68.68,0,0,0,.03.08c.033.063.063.124.1.187s.066.115.1.173l.058.082.027.041c0,.014.027.03.03.044A.285.285,0,0,0,280,237.683Z" transform="translate(-235.434 -204.199)" fill="#263238"/>
    <path id="Path_3700" data-name="Path 3700" d="M335.87,253.008c-.366-.586-.679-1.215-1.017-1.82s-.674-1.218-1.012-1.825c-.676-1.212-3.1-5.289-3.34-5.572a.022.022,0,0,0-.039.022c.113.316,1.628,3.024,1.974,3.618.7,1.2,1.43,2.383,2.153,3.574.206.341.418.674.627,1.012s.432.671.624,1.017C335.851,253.05,335.884,253.03,335.87,253.008Z" transform="translate(-287.903 -210.725)" fill="#263238"/>
    <path id="Path_3701" data-name="Path 3701" d="M280.247,240.477c-.608-.146-1.229-.242-1.839-.357l-1.834-.333q-1.845-.344-3.692-.654c-2.458-.415-4.924-.759-7.406-1-1.4-.135-2.8-.223-4.206-.327a.023.023,0,0,0,0,.047c2.5.113,5,.451,7.469.808s4.893.737,7.335,1.149q1.036.173,2.067.355c.7.121,1.4.275,2.1.36C280.261,240.521,280.272,240.482,280.247,240.477Z" transform="translate(-237.718 -206.396)" fill="#263238"/>
    <path id="Path_3702" data-name="Path 3702" d="M314.278,346.371c-.591-.058-15.3-6.669-15.706-7.277-.154-.231.685-2.427,1.77-5.056.236-.569.481-1.155.737-1.746,1.649-3.849,3.467-7.893,3.467-7.893l9.856,4.4-3.739,7.772-.825,1.7s4.5,5.053,4.871,5.773S314.869,346.432,314.278,346.371Z" transform="translate(-264.769 -269.182)" fill="#f7a9a0"/>
    <path id="Path_3703" data-name="Path 3703" d="M314.278,367.188c-.591-.058-15.3-6.669-15.706-7.277-.187-.275,1.1-3.469,2.507-6.8l9.583,4.275-.825,1.7s4.5,5.053,4.871,5.773S314.869,367.249,314.278,367.188Z" transform="translate(-264.769 -289.999)" fill="#fff"/>
    <path id="Path_3704" data-name="Path 3704" d="M314.278,371.793c-.591-.058-15.3-6.669-15.706-7.277-.154-.231.685-2.427,1.77-5.056l9.5,4.234s4.5,5.053,4.871,5.773S314.869,371.853,314.278,371.793Z" transform="translate(-264.769 -294.603)" fill="#a6a6a6"/>
    <path id="Path_3705" data-name="Path 3705" d="M316.63,384.365c-2.438-1.168-12.388-5.655-14.887-6.625-.019,0-.027,0,0,.017,2.395,1.212,12.371,5.616,14.878,6.65C316.666,384.429,316.682,384.39,316.63,384.365Z" transform="translate(-267.069 -307.858)" fill="#263238"/>
    <path id="Path_3706" data-name="Path 3706" d="M347.129,391.793a2.169,2.169,0,0,0-1.746-.06,2.1,2.1,0,0,0-1.144,1.069c0,.014.022.027.03,0a2.513,2.513,0,0,1,2.845-.99C347.135,391.831,347.149,391.8,347.129,391.793Z" transform="translate(-297.895 -317.892)" fill="#263238"/>
    <path id="Path_3707" data-name="Path 3707" d="M334.055,376.205a3.765,3.765,0,0,0-3.258-.091c-.038.019,0,.074.027.071a14.8,14.8,0,0,1,3.194.148.069.069,0,0,0,.036-.129Z" transform="translate(-288.136 -306.439)" fill="#263238"/>
    <path id="Path_3708" data-name="Path 3708" d="M336.365,378.531a3.765,3.765,0,0,0-3.258-.093c-.038.022,0,.074.028.074a14.774,14.774,0,0,1,3.192.148.069.069,0,0,0,.038-.129Z" transform="translate(-289.811 -308.124)" fill="#263238"/>
    <path id="Path_3709" data-name="Path 3709" d="M338.631,380.888a3.78,3.78,0,0,0-3.26-.091c-.036.019,0,.074.03.072a15.138,15.138,0,0,1,3.192.148.069.069,0,0,0,.039-.129Z" transform="translate(-291.453 -309.835)" fill="#263238"/>
    <path id="Path_3710" data-name="Path 3710" d="M340.915,383.185a3.764,3.764,0,0,0-3.258-.091c-.038.019,0,.074.027.071a14.764,14.764,0,0,1,3.192.148.069.069,0,0,0,.038-.129Z" transform="translate(-293.11 -311.5)" fill="#263238"/>
    <path id="Path_3711" data-name="Path 3711" d="M304.454,370.017a.944.944,0,0,0-.767,1.724A.944.944,0,0,0,304.454,370.017Z" transform="translate(-268.1 -302.194)" fill="#263238"/>
    <path id="Path_3712" data-name="Path 3712" d="M341.219,368.261c-.313-.638-1.124-.517-1.628-.225a5.7,5.7,0,0,0-2.032,2.122.028.028,0,0,0,.019.041c0,.08.047.179.143.159a9.466,9.466,0,0,0,2.768-.685C340.977,369.413,341.527,368.866,341.219,368.261Zm-2.166,1.553c-.451.1-.9.168-1.35.275.4-.412.775-.841,1.212-1.215a6.532,6.532,0,0,1,.66-.5c.363-.228,1.7-.619,1.317.5C340.7,369.5,339.6,369.7,339.052,369.814Z" transform="translate(-293.049 -300.65)" fill="#263238"/>
    <path id="Path_3713" data-name="Path 3713" d="M326.094,368.777a9.381,9.381,0,0,0,2.7.921c.093.025.157-.066.154-.146a.03.03,0,0,0,.022-.041,5.685,5.685,0,0,0-1.842-2.287c-.476-.335-1.273-.525-1.649.085S325.629,368.475,326.094,368.777Zm-.341-.825c-.289-1.146,1.012-.643,1.353-.385a6.263,6.263,0,0,1,.616.55,16.145,16.145,0,0,1,1.1,1.311c-.437-.148-.882-.261-1.325-.393-.52-.154-1.586-.451-1.743-1.089Z" transform="translate(-284.2 -300.006)" fill="#263238"/>
    <path id="Path_3714" data-name="Path 3714" d="M308.55,257.42l11.084,5.012s13.2-25.319,13.537-33.069c.294-6.6-4.3-9.144-19.142-4.877l-3.637.047v2.51c1.594.209,5.853.88,5.853.88,3.1,1.168,4.1,1.649,4.047,1.751A238.316,238.316,0,0,0,308.55,257.42Z" transform="translate(-272.017 -195.214)" fill="#37474f"/>
    <path id="Path_3715" data-name="Path 3715" d="M328.773,237.885c-.448.6-.863,1.215-1.259,1.85a26.584,26.584,0,0,0-7.552-1.99c-.729-.091-1.463-.154-2.2-.2-.03,0-.027.044,0,.047a32.991,32.991,0,0,1,7.7,1.463c.69.212,1.375.459,2.048.7-.476.762-.924,1.542-1.355,2.326a46.777,46.777,0,0,0-2.169,4.525c-.355.855-.7,1.718-1.006,2.592,0,.025.03.041.041.016q2.032-4.528,4.434-8.863c.454-.825.924-1.622,1.375-2.444C328.825,237.891,328.79,237.861,328.773,237.885Z" transform="translate(-278.681 -206.208)" fill="#263238"/>
    <path id="Path_3716" data-name="Path 3716" d="M323.781,347.281c-.646-.253-1.273-.566-1.905-.852l-1.905-.855c-1.265-.566-5.647-2.384-6.01-2.474a.025.025,0,0,0-.017.044c.275.184,3.107,1.441,3.747,1.715,1.278.55,2.57,1.053,3.849,1.575.368.148.74.289,1.1.434s.745.275,1.1.44C323.789,347.325,323.8,347.29,323.781,347.281Z" transform="translate(-275.921 -282.741)" fill="#263238"/>
    <path id="Path_3717" data-name="Path 3717" d="M329.885,242.871c-.874,1.65-1.619,3.4-2.378,5.116s-1.493,3.431-2.2,5.157q-2.131,5.163-3.975,10.447c-.7,1.99-1.347,3.994-1.982,6,0,.027.039.038.047,0,1.174-3.552,2.447-7.076,3.775-10.573s2.733-6.95,4.223-10.372q.627-1.443,1.273-2.876c.432-.957.882-1.905,1.287-2.873a.038.038,0,0,0-.069-.03Z" transform="translate(-279.848 -210.05)" fill="#263238"/>
    <path id="Path_3718" data-name="Path 3718" d="M318.7,163.576c2.678,4.962,6.007,10.282,8.3,10.722,1.781.349,9.089-.932,12.019-3.863.646-.646-4.717-5-5.259-4.649-1.594,1.028-5.814,1.886-6.048,1.68-.319-.275-4.019-3.8-6.581-6.048C317.684,158.415,317.31,161.011,318.7,163.576Z" transform="translate(-278.828 -150.029)" fill="#f7a9a0"/>
    <path id="Path_3719" data-name="Path 3719" d="M380.809,175.638a12.239,12.239,0,0,1-4.97,2.29c-.847.019-3.131-5.078-2.719-5.847s4.33-3.953,5.845-4.085S381.931,174.568,380.809,175.638Z" transform="translate(-318.8 -155.773)" fill="#f7a9a0"/>
    <path id="Path_3720" data-name="Path 3720" d="M375.33,162.026a12.389,12.389,0,0,0,1.009-3.461c.148-1.432.2-3.574.976-3.527,1.589.1,1.449,5.449,1.449,5.449s-.44,2.351-2.023,2.389A1.572,1.572,0,0,1,375.33,162.026Z" transform="translate(-320.438 -146.379)" fill="#f7a9a0"/>
    <path id="Path_3721" data-name="Path 3721" d="M386.069,162.774a.654.654,0,0,0,.825.572l4.341-.762s3.115-1.443,2.832-2.3c-.489-1.485-6.98,1.5-7.6,1.666a.671.671,0,0,0-.4.827Z" transform="translate(-328.202 -149.882)" fill="#f7a9a0"/>
    <path id="Path_3722" data-name="Path 3722" d="M395.9,142.64s.3-1.567.445-1.924a58.43,58.43,0,0,1,5.66-6.823c.415-.371.621-.525.825-.481,0,0-5.069,7.06-5.589,7.744a6.741,6.741,0,0,0-.61,1.608Z" transform="translate(-335.353 -130.693)" fill="#c7c7c7"/>
    <path id="Path_3723" data-name="Path 3723" d="M373.028,159.831h0a6.922,6.922,0,0,0-2.507.434,1.476,1.476,0,0,0-.577,1.627,1.019,1.019,0,0,0,.074.187,1.3,1.3,0,0,0,.55.55l.113.055a2.144,2.144,0,0,0,.682.2c.228.022.448.03.649.055a1.549,1.549,0,0,1,.374.093l.327-.162a2.863,2.863,0,0,1,.509-.913,10.292,10.292,0,0,1,2.546-1.237,1.05,1.05,0,0,0,.209-.1.132.132,0,0,0,.016-.077v-.025a.157.157,0,0,0,0-.033h0v-.115a2.671,2.671,0,0,0-.069-.275v-.033c-.027-.1-.06-.19-.088-.258a.784.784,0,0,0-.049-.1h0A17.985,17.985,0,0,0,373.028,159.831Zm-.148.885a.574.574,0,0,1,.148.275c.055.275-.192.794-1.113,1.155l-.06.022-.063.022h-.039l-.066.019-.121.027h-.077a1.184,1.184,0,0,1-.239,0h-.039l-.1-.019h-.085l-.033-.014-.055-.025-.038-.019h0l-.033-.019h0l-.033-.022-.033-.025h0l-.025-.022a.77.77,0,0,1-.129-.146h0a.941.941,0,0,1-.066-.118.876.876,0,0,1,.377-1.064,1.649,1.649,0,0,1,.66-.223C372.341,160.389,372.707,160.53,372.88,160.716Z" transform="translate(-316.49 -149.737)" fill="#2777ff"/>
    <path id="Path_3724" data-name="Path 3724" d="M374.381,163.48a.781.781,0,0,1,.242.913,1.991,1.991,0,0,1-2.114.825.718.718,0,0,1-.55-.775,1.048,1.048,0,0,1,.03-.234.861.861,0,0,0,.055.352.942.942,0,0,0,.066.118h0a.77.77,0,0,0,.129.146l.025.022h0l.033.025.033.022h0l.033.019h0l.038.019.055.025.033.014h.085l.1.019h.039a1.184,1.184,0,0,0,.239,0h.077l.121-.027.066-.019h.038l.063-.022.06-.022c.921-.36,1.168-.891,1.113-1.155A.575.575,0,0,0,374.381,163.48Z" transform="translate(-317.991 -152.501)" opacity="0.1"/>
    <path id="Path_3725" data-name="Path 3725" d="M384.031,159.617c.069.058.322.849.236.943a1.049,1.049,0,0,1-.209.1.849.849,0,0,0-.344-.63,7.766,7.766,0,0,0-2.394-.245A24.825,24.825,0,0,1,384.031,159.617Z" transform="translate(-324.781 -149.69)" opacity="0.1"/>
    <path id="Path_3726" data-name="Path 3726" d="M388.157,167h-.181c-.143.173-1.039,1.311-1.375,1.792-.088.121-.22.291-.363.489h0a4.935,4.935,0,0,0-1.014,1.944.892.892,0,0,0,1.163.99c1-.187,1.784-1.779,2.1-2.573a10.452,10.452,0,0,0,.465-1.891,2.432,2.432,0,0,0,.058-.588.55.55,0,0,0-.14-.047A6.049,6.049,0,0,0,388.157,167Zm-.063,1.54c.173.113.275.228.129.723a5.907,5.907,0,0,1-1,1.8l-.214.275a1.123,1.123,0,0,1-.1.124c-.39.415-.954.55-1.152.066-.242-.572,1.119-2.422,1.446-2.749a.756.756,0,0,1,.9-.242Z" transform="translate(-327.61 -155.053)" fill="#2777ff"/>
    <path id="Path_3727" data-name="Path 3727" d="M391.669,167.13a2.432,2.432,0,0,1-.058.588c-.055-.322-.506-.451-.8-.363a14.843,14.843,0,0,0-1.924,1.894c.143-.2.275-.368.363-.489.349-.481,1.243-1.619,1.375-1.792A3.258,3.258,0,0,1,391.669,167.13Z" transform="translate(-330.27 -155.018)" opacity="0.1"/>
    <path id="Path_3728" data-name="Path 3728" d="M401.711,143.81s.074.181-.234.432-4.058,2.529-6.34,3.766l-.132.069-.214.115-.225.118c-.179.091-.322.165-.47.225h0a4.675,4.675,0,0,1-1.245.289c-.143.019-.3.041-.484.06h0c-.223.027-.478.058-.77.088l-.187-.69.613-.1c.2-.036.418-.074.608-.115a3.178,3.178,0,0,0,.484-.124c.038-.022.327-.159.775-.374l.712-.344.2-.093.107-.052Z" transform="translate(-332.098 -138.238)" fill="#dbdbdb"/>
    <path id="Path_3729" data-name="Path 3729" d="M399.17,158.987a.194.194,0,1,1-.234.146A.2.2,0,0,1,399.17,158.987Z" transform="translate(-337.551 -149.239)" fill="#c7c7c7"/>
    <path id="Path_3730" data-name="Path 3730" d="M399.307,159.2a.141.141,0,0,1-.06.275.137.137,0,0,1-.1-.162.14.14,0,0,1,.165-.113Z" transform="translate(-337.702 -149.398)" fill="#ebebeb"/>
    <path id="Path_3731" data-name="Path 3731" d="M385.631,170.279s-1.4.63-1.311,1.5,1.314.564,1.4.55c-.074.036-1.347.646-1.166,1.512s1.375.412,1.443.382c-.058.052-.825.781-.55,1.408.495,1.075,2.532-.729,3.486-.63,0,0,.016,1.636.027,1.682,0,0,1.974-1.677,2.034-2.972a.825.825,0,0,0-.6-.844,1.3,1.3,0,0,0,.575-1.157c-.063-.352-.682-.564-.682-.564a1.037,1.037,0,0,0,.4-1.012.847.847,0,0,0-.718-.652C388.564,169.174,385.631,170.279,385.631,170.279Z" transform="translate(-326.954 -156.815)" fill="#f7a9a0"/>
    <path id="Path_3732" data-name="Path 3732" d="M392.916,169.43c.016,0,.016-.022,0-.025a7.357,7.357,0,0,0-4.305.825c-.041.022-.14.22-.093.2A12.079,12.079,0,0,1,392.916,169.43Z" transform="translate(-329.992 -156.763)" fill="#263238"/>
    <path id="Path_3733" data-name="Path 3733" d="M393.793,175.44a.014.014,0,0,0,0-.027,6.9,6.9,0,0,0-4.641,1.19c-.047.036-.052.113,0,.077A12.674,12.674,0,0,1,393.793,175.44Z" transform="translate(-330.434 -161.127)" fill="#263238"/>
    <path id="Path_3734" data-name="Path 3734" d="M390.074,183.159a9.471,9.471,0,0,1,4.4-1.468c.022,0,.017-.033,0-.036a6.23,6.23,0,0,0-2.565.33,4.253,4.253,0,0,0-1.875,1.127C390.021,183.134,390.043,183.178,390.074,183.159Z" transform="translate(-331.097 -165.653)" fill="#263238"/>
    <path id="Path_3735" data-name="Path 3735" d="M385.108,172.48c-.049.027.115.093.066.124-.525.327-1.435.959-1.267,1.449.137.39.759.476,1.009.418l.632-.151-.55.36a2.676,2.676,0,0,0-.635.583.951.951,0,0,0-.228.742.55.55,0,0,0,.495.47,1.649,1.649,0,0,0,.808-.159l.7-.311-.55.522a2.475,2.475,0,0,0-.41.487,1.042,1.042,0,0,0-.184.566.492.492,0,0,0,.275.432,1.1,1.1,0,0,0,.6,0,8.379,8.379,0,0,0,1.265-.44c.209-.082.418-.168.632-.242a1.581,1.581,0,0,1,.665-.121,1.7,1.7,0,0,0-.643.179c-.206.091-.407.19-.608.275a7.076,7.076,0,0,1-1.262.52,1.27,1.27,0,0,1-.726.019.7.7,0,0,1-.44-.624,1.276,1.276,0,0,1,.209-.7,2.7,2.7,0,0,1,.448-.55l.143.212a1.894,1.894,0,0,1-.951.2.781.781,0,0,1-.484-.223.863.863,0,0,1-.236-.47,1.2,1.2,0,0,1,.289-.94,2.924,2.924,0,0,1,.709-.63l.091.212a1.2,1.2,0,0,1-1.314-.536C383.4,173.346,384.833,172.6,385.108,172.48Z" transform="translate(-326.458 -159.027)" fill="#263238"/>
    <path id="Path_3736" data-name="Path 3736" d="M332.639,165.747l3.211,7.458s-7.337,1.878-9.663.94-6.455-7.214-8.148-11.271c-1.732-4.148.9-3.574,2.678-1.867s6.565,5.988,6.724,6.029S332.639,165.747,332.639,165.747Z" transform="translate(-278.487 -149.773)" fill="#2777ff"/>
    <path id="Path_3737" data-name="Path 3737" d="M324.3,171.63a.437.437,0,0,0-.228-.231l.253.465a.4.4,0,0,0-.025-.234Zm3.6-1.5a.434.434,0,1,0-.236.55A.434.434,0,0,0,327.9,170.127Zm-.289.44a.3.3,0,1,1,.161-.389.3.3,0,0,1-.161.389Zm-2.639-2.4a.434.434,0,1,0-.234.568A.437.437,0,0,0,324.972,168.166Zm-.289.443a.12.12,0,1,1,0,.005Zm5.5,6.988a.544.544,0,1,1-.008.005Zm-.275.44a.3.3,0,1,1-.228-.55.3.3,0,1,1,.209.555Zm3.887-1.924a.3.3,0,1,1-.019-.006Zm-.275.437a.135.135,0,1,0-.027-.005Zm3.887-1.924a.223.223,0,1,1-.027-.025Zm-.289.44a.209.209,0,1,0-.028-.016Zm-9.842.594a.191.191,0,1,1-.027-.017Zm-.289.44a.114.114,0,1,0-.027-.016Zm3.893-1.924a.434.434,0,1,0-.237.566A.437.437,0,0,0,330.88,172.175Zm-.289.44a.3.3,0,0,1-.388-.159.3.3,0,0,1,.162-.388.291.291,0,0,1,.385.159.3.3,0,0,1-.187.374Zm5.484,6.991a.433.433,0,1,0-.8.33.412.412,0,0,0,.239.231h0l.423-.06a.423.423,0,0,0,.11-.528Zm-.275.437a.3.3,0,1,1,.162-.388A.3.3,0,0,1,335.8,180.043Zm3.89-1.924a.228.228,0,1,1-.039-.038Zm-.289.44a.217.217,0,1,0-.039-.038Zm-6.279-.94a.432.432,0,1,0,0,.331A.432.432,0,0,0,333.123,177.618Zm-.275.44a.3.3,0,1,1,.162-.388A.3.3,0,0,1,332.848,178.058Zm3.887-1.924a.325.325,0,1,1-.011-.011Zm-.275.437a.208.208,0,1,0-.019-.011Z" transform="translate(-283.27 -155.705)" opacity="0.2"/>
    <path id="Path_3738" data-name="Path 3738" d="M368.468,187.964c-.209-.511-.421-1.025-.635-1.534s-.41-1.034-.66-1.526c0-.022-.049,0-.044,0,.151.511.36,1.012.55,1.509s.4,1.058.6,1.586c.4,1.045.849,2.07,1.311,3.09,0,.025.044,0,.036-.016C369.254,190.037,368.875,188.995,368.468,187.964Z" transform="translate(-314.491 -168.028)" fill="#263238"/>
    <path id="Path_3739" data-name="Path 3739" d="M318.051,162.9c1.693,4.052,5.825,10.331,8.148,11.271a6.049,6.049,0,0,0,2.287.253L318.7,159.8C317.63,159.547,316.951,160.267,318.051,162.9Z" transform="translate(-278.499 -149.799)" opacity="0.1"/>
    <path id="Path_3740" data-name="Path 3740" d="M280.652,178.177c.033.047,15.884.382,16.044.231.225-.214-1.243-15.12-3.538-18.815-.575-.924-3.274-1.608-4.484-.355C284,164.082,280.534,178.015,280.652,178.177Z" transform="translate(-251.786 -148.93)" fill="#2777ff"/>
    <path id="Path_3741" data-name="Path 3741" d="M300.325,175.287a.434.434,0,1,0-.236.564A.434.434,0,0,0,300.325,175.287Zm-.289.44a.294.294,0,1,1,.16-.159A.3.3,0,0,1,300.036,175.727Zm-3.315,1.058a.434.434,0,1,0-.236.55.434.434,0,0,0,.236-.55Zm-.289.44a.3.3,0,1,1,.159-.388.291.291,0,0,1-.159.388Zm-3.313,1.05a.434.434,0,1,0-.236.55A.434.434,0,0,0,293.119,178.276Zm-.275.44a.3.3,0,1,1,.161-.389A.3.3,0,0,1,292.844,178.716Zm-3.882.825a.409.409,0,0,0-.192.159h.181a.275.275,0,0,1,.063-.036.3.3,0,0,1,.294.044h.187a.429.429,0,0,0-.544-.165Zm13.49-2.268a.4.4,0,0,0,0,.305.14.14,0,0,0,.025.044c-.014-.11-.025-.225-.036-.346Zm-2.8,1.468a.379.379,0,1,1-.011,0Zm-.275.443a.189.189,0,1,0-.022,0Zm1.924-10.405a.294.294,0,0,1-.137-.564h.03l-.025-.135a.228.228,0,0,0-.058.017.434.434,0,0,0-.231.566.429.429,0,0,0,.443.258.3.3,0,0,1-.055-.14Zm-3.222,1.036a.336.336,0,1,1-.033,0Zm-.275.44a.18.18,0,1,0-.044,0Zm-3.318,1.058a.325.325,0,1,1-.044,0Zm-.289.44a.182.182,0,1,0-.044,0Zm-3.3,1.056a.321.321,0,1,1-.055,0Zm-.289.44a.3.3,0,1,1,.161-.389A.3.3,0,0,1,290.615,173.248Zm10.414-1.471a.319.319,0,1,1-.055,0Zm-.275.437a.3.3,0,1,1,.183-.275A.3.3,0,0,1,300.753,172.214Zm-3.315,1.058a.432.432,0,1,0-.236.564.437.437,0,0,0,.173-.561Zm-.289.44a.181.181,0,1,0-.069,0Zm-3.368,1.058a.434.434,0,1,0-.234.564A.434.434,0,0,0,293.782,174.771Zm-.275.44a.162.162,0,1,0-.019,0Zm-3.318,1.056a.327.327,0,1,1-.019,0Zm-.275.44a.163.163,0,1,0-.03,0Zm9.5-13.856a.434.434,0,1,0-.234.568A.437.437,0,0,0,299.409,162.85Zm-.289.443a.168.168,0,1,0-.03,0Zm-3.3,1.053a.434.434,0,1,0-.234.568A.437.437,0,0,0,295.822,164.346Zm-.275.443a.168.168,0,1,0-.055,0Zm-3.315,1.056a.321.321,0,1,1-.055,0Zm-.289.44a.3.3,0,1,1,.161-.389A.3.3,0,0,1,291.943,166.284Zm6.815.025a.314.314,0,1,1-.055,0Zm-.275.437a.3.3,0,1,1,.161-.386.3.3,0,0,1-.161.386Zm-3.318,1.058a.32.32,0,1,1-.063,0Zm-.289.44a.17.17,0,1,0-.063,0ZM291.56,169.3a.318.318,0,1,1-.063,0Zm-.275.44a.3.3,0,0,1-.388-.159.3.3,0,1,1,.388.159Zm5.223-8.9a.309.309,0,1,1-.08,0Zm-.275.437a.3.3,0,1,1,.161-.386.3.3,0,0,1-.161.386Z" transform="translate(-257.675 -150.384)" opacity="0.2"/>
    <path id="Path_3742" data-name="Path 3742" d="M260.578,155.526C256.27,159,249.9,161.478,248.21,161.06c-2.276-.55-6.469-4.187-8.47-6.271-.588-.61,4.267-5.091,4.9-4.44.759.789,4.63,4.948,4.729,4.99.206.115,8.506-1.875,10.01-2.246C261.829,152.489,262.547,153.94,260.578,155.526Z" transform="translate(-222.088 -142.933)" fill="#f7a9a0"/>
    <path id="Path_3743" data-name="Path 3743" d="M229.342,138.668a11.529,11.529,0,0,0,3.546,3.758c.737.313,4.533-3.343,4.445-4.159s-2.392-4.99-3.678-5.641S228.737,137.338,229.342,138.668Z" transform="translate(-214.536 -130.089)" fill="#f7a9a0"/>
    <path id="Path_3744" data-name="Path 3744" d="M175.66,154.572l12.346,7.568,5.908-13.68-8.742-5.361Z" transform="translate(-175.66 -137.723)" fill="#2777ff"/>
    <path id="Path_3745" data-name="Path 3745" d="M185.172,143.1l-6.339,13.416-3.173-1.944Z" transform="translate(-175.66 -137.723)" fill="#2777ff"/>
    <path id="Path_3746" data-name="Path 3746" d="M185.172,143.1l-6.339,13.416-3.173-1.944Z" transform="translate(-175.66 -137.723)" opacity="0.1"/>
    <path id="Path_3747" data-name="Path 3747" d="M221.773,146.051l.437.154s.429-1.207.844-2.419a2.4,2.4,0,0,0-1.4-2.964,1.865,1.865,0,0,0-2.51,1.006c-.649,1.342-.918,2-.932,2.023l.429.176s.275-.671.918-2a1.42,1.42,0,0,1,1.924-.781,1.941,1.941,0,0,1,1.138,2.389C222.2,144.847,221.778,146.037,221.773,146.051Z" transform="translate(-206.512 -135.954)" fill="#263238"/>
    <path id="Path_3748" data-name="Path 3748" d="M179.233,185.909c-.143-.335-.305-.663-.467-.99s-.333-.646-.509-.965l-.025-.044h-.047c-.305.03-.61.058-.915.1s-.608.08-.91.135c.308,0,.616,0,.921-.025s.61-.033.915-.058l-.071-.038c.17.322.349.638.531.954S179.029,185.606,179.233,185.909Z" transform="translate(-176.168 -167.314)" fill="#fff"/>
    <path id="Path_3749" data-name="Path 3749" d="M183,159.322c.55-.77,1.078-1.548,1.608-2.326s1.047-1.564,1.572-2.348,1.036-1.575,1.545-2.367l.762-1.193c.247-.4.5-.8.748-1.2-.275.382-.55.772-.811,1.157l-.8,1.168c-.531.778-1.05,1.564-1.575,2.348s-1.034,1.575-1.542,2.367S183.5,158.52,183,159.322Z" transform="translate(-180.982 -142.647)" fill="#fff"/>
    <path id="Path_3750" data-name="Path 3750" d="M229.821,158.6a.616.616,0,1,0,.847-.2A.616.616,0,0,0,229.821,158.6Z" transform="translate(-214.865 -148.752)" fill="#263238"/>
    <path id="Path_3751" data-name="Path 3751" d="M216.987,150.742a.616.616,0,1,0,.847-.2A.616.616,0,0,0,216.987,150.742Z" transform="translate(-205.559 -143.054)" fill="#263238"/>
    <path id="Path_3752" data-name="Path 3752" d="M233.447,129.765c-.088.745-.913.217-.913.217s1.006,1.045.619,1.776-1.347.03-1.419-.016c.052.055.951,1.042.487,1.735s-1.344-.121-1.4-.176c.033.069.456.979-.014,1.427-.825.77-1.96-1.529-2.832-1.781,0,0-.591,1.427-.619,1.465s-1.135-2.166-.731-3.321a.781.781,0,0,1,.825-.531,1.219,1.219,0,0,1-.1-1.215c.179-.275.794-.253.794-.253a.981.981,0,0,1,0-1.02.938.938,0,0,1,.847-.289,1.176,1.176,0,0,1,.324-.97C230.137,126.205,233.634,128.176,233.447,129.765Z" transform="translate(-212.551 -125.832)" fill="#f7a9a0"/>
    <path id="Path_3753" data-name="Path 3753" d="M235.84,130.587v-.019a6.947,6.947,0,0,1,3.478,2.241c.03.036-.017.1-.055.063A14.169,14.169,0,0,0,235.84,130.587Z" transform="translate(-219.296 -128.636)" fill="#263238"/>
    <path id="Path_3754" data-name="Path 3754" d="M232.331,135.267c-.016,0,0-.03,0-.027a6.532,6.532,0,0,1,3.656,2.683c.027.047,0,.115-.03.066A11.7,11.7,0,0,0,232.331,135.267Z" transform="translate(-216.746 -132.024)" fill="#263238"/>
    <path id="Path_3755" data-name="Path 3755" d="M233.374,143.552a8.923,8.923,0,0,0-3.343-2.843c-.016,0,0-.033,0-.03a5.88,5.88,0,0,1,2.131,1.193,4.027,4.027,0,0,1,1.245,1.649A.022.022,0,1,1,233.374,143.552Z" transform="translate(-215.078 -135.968)" fill="#263238"/>
    <path id="Path_3756" data-name="Path 3756" d="M236.3,138.64a4.5,4.5,0,0,1,.459.7,1.52,1.52,0,0,1,.212.77.5.5,0,0,1-.148.33.759.759,0,0,1-.322.184.9.9,0,0,1-.707-.173l-.5-.355.346.506a2.5,2.5,0,0,1,.349.734.893.893,0,0,1-.06.731.509.509,0,0,1-.6.236,1.539,1.539,0,0,1-.652-.423l-.509-.522.308.657a2.285,2.285,0,0,1,.187.572.973.973,0,0,1-.038.55.462.462,0,0,1-.4.275,1.023,1.023,0,0,1-.531-.209,8.143,8.143,0,0,1-.946-.825c-.154-.148-.308-.3-.47-.437a1.536,1.536,0,0,0-.55-.341,1.625,1.625,0,0,1,.5.385c.148.151.275.308.432.467a6.975,6.975,0,0,0,.921.9,1.182,1.182,0,0,0,.63.275.657.657,0,0,0,.6-.388,1.187,1.187,0,0,0,.063-.693,2.5,2.5,0,0,0-.2-.641l-.2.135a1.809,1.809,0,0,0,.764.509.756.756,0,0,0,.5-.022.825.825,0,0,0,.371-.33,1.124,1.124,0,0,0,.077-.926,2.719,2.719,0,0,0-.4-.8l-.154.154a1.078,1.078,0,0,0,.885.168.93.93,0,0,0,.388-.247.665.665,0,0,0,.17-.429,1.581,1.581,0,0,0-.275-.825A3.817,3.817,0,0,0,236.3,138.64Z" transform="translate(-216.316 -134.49)" fill="#263238"/>
    <path id="Path_3757" data-name="Path 3757" d="M244.058,137.406s-.135-5.988-2.449-4.786c-.687.355-3.087,2.639-2.636,3.131.58.632,1.759-.135,2.422-.731,0,0-.239,2.043,1.133,2.634A1.485,1.485,0,0,0,244.058,137.406Z" transform="translate(-221.526 -130.009)" fill="#f7a9a0"/>
    <path id="Path_3758" data-name="Path 3758" d="M241.476,132.72a3.106,3.106,0,0,0-.8.443,6.822,6.822,0,0,0-.707.586,10.561,10.561,0,0,0-1.234,1.358,1.674,1.674,0,0,0-.236.426.6.6,0,0,0-.038.275.4.4,0,0,0,.036.148.484.484,0,0,0,.085.126.773.773,0,0,0,.478.236,1.358,1.358,0,0,0,.5-.044,2.779,2.779,0,0,0,.852-.41,6.185,6.185,0,0,0,.723-.58l-.176-.093a3.757,3.757,0,0,0,0,.7,3.618,3.618,0,0,0,.14.682,2.367,2.367,0,0,0,.311.624,1.8,1.8,0,0,0,.489.478,2.052,2.052,0,0,1-.429-.52,2.494,2.494,0,0,1-.242-.619,3.35,3.35,0,0,1-.1-.66,3.5,3.5,0,0,1,.027-.66l.041-.275-.217.176a6.322,6.322,0,0,1-.712.533,2.7,2.7,0,0,1-.781.368.759.759,0,0,1-.729-.115c-.148-.143,0-.437.165-.671a8.873,8.873,0,0,1,.55-.707c.2-.231.39-.459.6-.676A5.905,5.905,0,0,1,241.476,132.72Z" transform="translate(-221.196 -130.197)" fill="#263238"/>
    <path id="Path_3759" data-name="Path 3759" d="M246.075,153l-6.515,4.847s5.4,5.3,7.887,5.655,9.2-3.008,12.7-5.669c3.574-2.722,1.006-3.541-1.375-2.958s-8.682,1.894-8.841,1.847S246.075,153,246.075,153Z" transform="translate(-221.993 -144.902)" fill="#2777ff"/>
    <path id="Path_3760" data-name="Path 3760" d="M256.332,163.051a.429.429,0,0,0-.245.522l.124-.066h0a.294.294,0,0,1,.489-.275l.124-.071A.429.429,0,0,0,256.332,163.051Zm-3,1.886a.39.39,0,0,0-.033-.157.434.434,0,1,0-.8.333.4.4,0,0,0,.1.143l.143-.06a.275.275,0,0,1-.113-.135.295.295,0,1,1,.561-.06Zm-4.2,1.1a.434.434,0,0,0-.275.355,1.37,1.37,0,0,0,.143-.019.293.293,0,0,1,.531-.1l.14-.033a.429.429,0,0,0-.539-.2Zm1.779-6.491a.294.294,0,0,1-.533.085.094.094,0,0,1-.047,0,.981.981,0,0,1-.135-.1.4.4,0,0,0,.027.11.432.432,0,0,0,.566.228.421.421,0,0,0,.275-.346Zm-3.489,1.256a.763.763,0,1,0,0,.005Zm-.275.437a.617.617,0,1,0-.008.006Zm-3.321,1.058a.532.532,0,1,1-.008.006Zm-.275.44a.3.3,0,0,1-.388-.159.295.295,0,1,1,.371.165Zm17.619-4.465a.389.389,0,1,1-.017.005Zm-.275.437a.3.3,0,1,1,.161-.386.3.3,0,0,1-.161.386Zm-3.34,1.061a.433.433,0,1,0-.236.564A.437.437,0,0,0,257.555,159.771Zm-.289.44a.3.3,0,0,1-.228-.547.294.294,0,0,1,.388.159.3.3,0,0,1-.159.39Zm-3.318,1.056a.432.432,0,1,0-.231.564.432.432,0,0,0,.231-.564Zm-.275.44a.269.269,0,1,0-.008,0Zm-3.315,1.056a.4.4,0,1,1-.008,0Zm-.289.44a.294.294,0,1,1,.159-.384A.294.294,0,0,1,250.069,163.2Zm-3.315,1.058a.394.394,0,1,1-.008,0Zm-.275.437a.2.2,0,1,0-.017,0Zm1.5-7.324a.294.294,0,0,1-.168.36.3.3,0,0,1-.388-.162.294.294,0,0,1,.159-.385.275.275,0,0,1,.19-.014l-.143-.143a.443.443,0,0,0-.1.027.433.433,0,0,0,.33.8.445.445,0,0,0,.275-.338h0Zm-3.489,1.419a.432.432,0,1,0-.231.564A.432.432,0,0,0,244.486,158.792Zm-.275.44a.21.21,0,1,0-.022-.011Zm-3.315,1.056a.41.41,0,0,0-.088-.132l-.113.082a.3.3,0,1,1-.467.346l-.107.082a.432.432,0,1,0,.775-.379Z" transform="translate(-222.399 -147.824)" opacity="0.2"/>
    <path id="Path_3761" data-name="Path 3761" d="M249.811,159.715l1.32-1.012c.44-.333.874-.687,1.336-.987.022-.014.049,0,.03.033-.388.366-.825.693-1.232,1.031s-.877.715-1.32,1.069c-.871.7-1.77,1.375-2.68,2.018-.022.016-.044-.016-.025-.033C248.082,161.111,248.931,160.4,249.811,159.715Z" transform="translate(-227.557 -148.318)" fill="#263238"/>
    <path id="Path_3762" data-name="Path 3762" d="M299.185,175.839c-.275.066-.55.137-.825.217l-.148.049.324-.2a12.267,12.267,0,0,0,1.124-.709c.017,0,0-.036-.019-.03a12.509,12.509,0,0,0-1.229.652,17.934,17.934,0,0,0-1.8,1.1c-.019.016,0,.044.025.036a9.39,9.39,0,0,0,1.226-.624l.143-.041c.129-.036.275-.08.39-.124.275-.093.525-.2.786-.3C299.207,175.85,299.2,175.837,299.185,175.839Z" transform="translate(-263.353 -160.976)" fill="#263238"/>
    <path id="Path_3763" data-name="Path 3763" d="M315.634,155.954c-.674.082-2.177-1.072-2.807-2.095-.041-.071.03-.839.071-1.773a16.638,16.638,0,0,0,0-1.776l3.67.693a9.249,9.249,0,0,0-.236,2.238,1.527,1.527,0,0,0,.036.236v.038C316.481,153.961,316.687,155.825,315.634,155.954Z" transform="translate(-275.109 -142.951)" fill="#f7a9a0"/>
    <path id="Path_3764" data-name="Path 3764" d="M317.134,153.586a.279.279,0,0,0,0,.038,2.235,2.235,0,0,1-.374.038c-2.1.063-2.749-2.5-2.9-3.2l3.464.652a9.249,9.249,0,0,0-.236,2.238A1.947,1.947,0,0,0,317.134,153.586Z" transform="translate(-275.867 -143.06)" fill="#263238"/>
    <path id="Path_3765" data-name="Path 3765" d="M311.758,129.586c-.432,1.273.129,5.012,1.02,5.867a2.959,2.959,0,0,0,4.528-.137c1.036-1.512.217-6.37-.784-7.148A3.206,3.206,0,0,0,311.758,129.586Z" transform="translate(-274.236 -126.486)" fill="#f7a9a0"/>
    <path id="Path_3766" data-name="Path 3766" d="M322.645,143.08s-.016.017,0,.025c.055.25.077.55-.135.671h0C322.76,143.7,322.727,143.305,322.645,143.08Z" transform="translate(-282.139 -137.709)" fill="#263238"/>
    <path id="Path_3767" data-name="Path 3767" d="M321.337,142.286c-.41.044-.275.858.091.825S321.67,142.245,321.337,142.286Z" transform="translate(-281.106 -137.132)" fill="#263238"/>
    <path id="Path_3768" data-name="Path 3768" d="M328.073,142.14s.022,0,.022.019c.03.253.107.536.349.586v.017C328.158,142.764,328.051,142.376,328.073,142.14Z" transform="translate(-286.171 -137.027)" fill="#263238"/>
    <path id="Path_3769" data-name="Path 3769" d="M328.266,141.041c.4-.091.55.715.181.8S327.931,141.118,328.266,141.041Z" transform="translate(-286.177 -136.226)" fill="#263238"/>
    <path id="Path_3770" data-name="Path 3770" d="M319.926,139.446a2.789,2.789,0,0,0,.3-.159.55.55,0,0,0,.275-.217.176.176,0,0,0-.06-.206.432.432,0,0,0-.434.022.627.627,0,0,0-.322.324.187.187,0,0,0,.245.236Z" transform="translate(-280.08 -134.616)" fill="#263238"/>
    <path id="Path_3771" data-name="Path 3771" d="M327.832,136.791a2.818,2.818,0,0,1-.338-.036.531.531,0,0,1-.333-.1.168.168,0,0,1-.022-.209.432.432,0,0,1,.412-.146.646.646,0,0,1,.418.181.187.187,0,0,1-.137.311Z" transform="translate(-285.477 -132.787)" fill="#263238"/>
    <path id="Path_3772" data-name="Path 3772" d="M323.342,151.762c.069.049.143.121.234.115a.654.654,0,0,0,.261-.1h.014a.344.344,0,0,1-.3.184.275.275,0,0,1-.231-.192A.017.017,0,0,1,323.342,151.762Z" transform="translate(-282.726 -144.002)" fill="#263238"/>
    <path id="Path_3773" data-name="Path 3773" d="M323.964,141.254a.855.855,0,0,0,.63.294,1.075,1.075,0,0,0,.311-.03.2.2,0,0,0,.058-.017l.055-.016a.063.063,0,0,0,.041-.063h0V141.4h0v-.022c-.025-.2-.088-.487-.088-.487.077.025.462.135.443.033a13.134,13.134,0,0,0-.723-2.543c0-.027-.052-.014-.044,0,.137.805.415,1.581.566,2.389a1.521,1.521,0,0,0-.423-.063c-.027,0,.132.55.135.652h0a1.2,1.2,0,0,1-.929-.14C323.964,141.215,323.931,141.237,323.964,141.254Z" transform="translate(-283.183 -134.288)" fill="#263238"/>
    <path id="Path_3774" data-name="Path 3774" d="M324.616,149.047a1.025,1.025,0,0,1-.36.377.467.467,0,0,1-.275.06c-.209-.022-.242-.206-.228-.371a1.151,1.151,0,0,1,.052-.253A1.347,1.347,0,0,0,324.616,149.047Z" transform="translate(-283.038 -141.9)" fill="#263238"/>
    <path id="Path_3775" data-name="Path 3775" d="M324.256,150.083a.467.467,0,0,1-.275.06c-.209-.022-.242-.206-.228-.371A.481.481,0,0,1,324.256,150.083Z" transform="translate(-283.038 -142.56)" fill="#ff9bbc"/>
    <path id="Path_3776" data-name="Path 3776" d="M310.294,131.523c.706-.225.987-2.631.987-2.631s.03,1.014.217.984a4.541,4.541,0,0,0,.976-2.425,7.763,7.763,0,0,0,1.836.825c.913.239,1.911.146,1.905,0a3.156,3.156,0,0,0-1.1-2.04,3.236,3.236,0,0,0-3.225-.275,3.131,3.131,0,0,0-2.023,2.29C309.686,128.994,310.035,131.6,310.294,131.523Z" transform="translate(-272.936 -125.075)" fill="#263238"/>
    <path id="Path_3777" data-name="Path 3777" d="M310.512,143.384s-.825-1.21-1.375-.915.063,2.043.7,2.287a.652.652,0,0,0,.877-.341Z" transform="translate(-272.288 -137.232)" fill="#f7a9a0"/>
    <path id="Path_3778" data-name="Path 3778" d="M310.37,144.39v.019a1.65,1.65,0,0,1,.839,1.039.357.357,0,0,0-.55-.1v.025a.4.4,0,0,1,.44.143,2.046,2.046,0,0,1,.209.36c.019.038.093.019.077-.027h0A1.418,1.418,0,0,0,310.37,144.39Z" transform="translate(-273.337 -138.659)" fill="#263238"/>
    <path id="Path_3779" data-name="Path 3779" d="M312.715,124.218a5.581,5.581,0,0,0-1.493-.591,6.323,6.323,0,0,0-2.953.19c-.478.335-.756,2.087-.789,2.345s-.058,1.825.473,2.252.825-2.219,1.79-3.024A8.009,8.009,0,0,1,312.715,124.218Z" transform="translate(-271.231 -123.543)" fill="#2777ff"/>
    <path id="Path_3780" data-name="Path 3780" d="M312.95,124.847a8.156,8.156,0,0,0-2.972,1.174c-.968.8-1.256,3.445-1.79,3.024a1.245,1.245,0,0,1-.4-.869,6.542,6.542,0,0,1,1.325-2.711,3.984,3.984,0,0,1,2.87-1.056A6.184,6.184,0,0,1,312.95,124.847Z" transform="translate(-271.466 -124.172)" opacity="0.1"/>
    <path id="Path_3781" data-name="Path 3781" d="M307.738,131.209a10.463,10.463,0,0,1,1.845-3.544,5.871,5.871,0,0,1,3.425-1.41c.748.11.852.5.976.445s-.467-.825-.668-.979a2.731,2.731,0,0,0-1.069-.514c-.327-.022-2.359,0-3.167.8s-2.054,3.109-1.924,3.742c.033.151.22.275.275.478.058.275.088.608.154.808S307.727,131.269,307.738,131.209Z" transform="translate(-270.999 -124.746)" fill="#2777ff"/>
    <path id="Path_3782" data-name="Path 3782" d="M314.536,130.112a3.334,3.334,0,0,1-.456-.4,2.563,2.563,0,0,1-.379-.481h-.022a2.053,2.053,0,0,0,.338.55,1.679,1.679,0,0,0,.5.374C314.536,130.159,314.552,130.126,314.536,130.112Z" transform="translate(-275.735 -127.667)" fill="#263238"/>
    <path id="Path_3783" data-name="Path 3783" d="M308.354,141.2c-.014-.052-.044-.1-.063-.151a.807.807,0,0,1-.052-.181,1.671,1.671,0,0,0-.049-.349,1.265,1.265,0,0,0-.146-.25.473.473,0,0,1-.1-.3c0-.017-.022-.019-.022,0a1.174,1.174,0,0,0,.187.566,2.477,2.477,0,0,1,.066.374.55.55,0,0,0,.159.313C308.335,141.226,308.36,141.215,308.354,141.2Z" transform="translate(-271.56 -135.44)" fill="#263238"/>
    <path id="Path_3784" data-name="Path 3784" d="M309.156,138.781a2.677,2.677,0,0,1-.176-.258,1.964,1.964,0,0,1-.129-.275c-.036-.093-.066-.19-.1-.275s-.1-.22-.132-.333H308.6c.036.115.052.239.085.36a3.029,3.029,0,0,0,.11.3,1.563,1.563,0,0,0,.146.275.7.7,0,0,0,.209.223S309.162,138.786,309.156,138.781Z" transform="translate(-272.051 -133.764)" fill="#263238"/>
    <path id="Path_3785" data-name="Path 3785" d="M310.173,136.764a1.982,1.982,0,0,1-.346-.467c-.088-.168-.168-.344-.245-.517h-.022a2.364,2.364,0,0,0,.2.55,1.4,1.4,0,0,0,.159.239,1.374,1.374,0,0,0,.239.2S310.181,136.775,310.173,136.764Z" transform="translate(-272.749 -132.416)" fill="#263238"/>
    <path id="Path_3786" data-name="Path 3786" d="M311.427,134.37a.679.679,0,0,1-.17-.2c-.052-.085-.1-.17-.154-.258s-.1-.168-.146-.25a.7.7,0,0,1-.1-.275c0-.014-.025-.014-.025,0a.726.726,0,0,0,.058.275,1.619,1.619,0,0,0,.135.289,2.314,2.314,0,0,0,.176.275.461.461,0,0,0,.214.176.016.016,0,0,0,.014-.027Z" transform="translate(-273.67 -130.67)" fill="#263238"/>
    <path id="Path_3787" data-name="Path 3787" d="M312.678,132.231a2.581,2.581,0,0,1-.173-.214c-.055-.074-.1-.151-.154-.228s-.1-.162-.151-.245c0-.014-.027,0-.022,0a2.034,2.034,0,0,0,.107.275,2.523,2.523,0,0,0,.151.242,2.281,2.281,0,0,0,.176.22.753.753,0,0,0,.214.181c.014,0,.03,0,.022-.022a1.4,1.4,0,0,0-.17-.209Z" transform="translate(-274.647 -129.34)" fill="#263238"/>
    <path id="Path_3788" data-name="Path 3788" d="M316.372,128.673c-.063-.093-.124-.184-.2-.275a3.281,3.281,0,0,0-.228-.25,3.155,3.155,0,0,0-.517-.418s-.025,0-.016.016c.311.316.632.619.937.937C316.364,128.7,316.38,128.684,316.372,128.673Z" transform="translate(-276.994 -126.579)" fill="#263238"/>
    <path id="Path_3789" data-name="Path 3789" d="M318.5,127.418a1.466,1.466,0,0,0-.22-.25,3.142,3.142,0,0,0-.575-.388c-.014,0-.025,0-.014.017.173.14.346.275.511.421a3.079,3.079,0,0,1,.234.231c.074.08.126.176.2.258h.016A.8.8,0,0,0,318.5,127.418Z" transform="translate(-278.64 -125.89)" fill="#263238"/>
    <path id="Path_3790" data-name="Path 3790" d="M321.014,126.714a1.579,1.579,0,0,0-.2-.247,1.8,1.8,0,0,0-.489-.346c-.014,0-.022,0,0,.019a3.446,3.446,0,0,1,.454.4c.071.071.137.148.2.223a2.687,2.687,0,0,0,.2.234h0A1.68,1.68,0,0,0,321.014,126.714Z" transform="translate(-280.544 -125.411)" fill="#263238"/>
    <path id="Path_3791" data-name="Path 3791" d="M323.326,126.2c-.069-.069-.143-.132-.214-.2a.975.975,0,0,0-.234-.159s-.019.014,0,.022c.135.126.275.258.4.388a2.437,2.437,0,0,1,.294.418h.014A.891.891,0,0,0,323.326,126.2Z" transform="translate(-282.399 -125.216)" fill="#263238"/>
    <path id="Path_3792" data-name="Path 3792" d="M325.29,126.005a1.521,1.521,0,0,0-.445-.335s-.022,0,0,.022a1.649,1.649,0,0,1,.4.36,2.372,2.372,0,0,1,.3.448h.017a1.243,1.243,0,0,0-.272-.495Z" transform="translate(-283.825 -125.085)" fill="#263238"/>
    <path id="Path_3793" data-name="Path 3793" d="M327.377,126.513a1,1,0,0,0-.049-.113,1.435,1.435,0,0,0-.14-.206,2.77,2.77,0,0,0-.374-.344s-.027,0-.014.019a2.1,2.1,0,0,1,.346.352,1.709,1.709,0,0,1,.135.2c.019.033.036.069.055.1a.457.457,0,0,0,.049.1h.019A.275.275,0,0,0,327.377,126.513Z" transform="translate(-285.247 -125.216)" fill="#263238"/>
    <path id="Path_3794" data-name="Path 3794" d="M329.343,127.293a1.409,1.409,0,0,0-.113-.17c-.044-.055-.088-.1-.135-.154l-.148-.148s-.03,0-.017.016a1.252,1.252,0,0,1,.135.159l.121.159c.039.055.08.107.118.159a1.479,1.479,0,0,0,.118.165h.016A.748.748,0,0,0,329.343,127.293Z" transform="translate(-286.792 -125.919)" fill="#263238"/>
  </g>
</svg>
