<svg id="Ebook-rafiki" xmlns="http://www.w3.org/2000/svg" width="147.998" height="110.277" viewBox="0 0 147.998 110.277">
  <g id="freepik--background-complete--inject-8">
    <rect id="Rectangle_256" data-name="Rectangle 256" width="147.998" height="0.074" transform="translate(0 96.909)" fill="#ebebeb"/>
    <rect id="Rectangle_257" data-name="Rectangle 257" width="9.803" height="0.074" transform="translate(123.366 101.672)" fill="#ebebeb"/>
    <rect id="Rectangle_258" data-name="Rectangle 258" width="2.572" height="0.074" transform="translate(95.468 102.477)" fill="#ebebeb"/>
    <rect id="Rectangle_259" data-name="Rectangle 259" width="5.68" height="0.074" transform="translate(117.389 98.925)" fill="#ebebeb"/>
    <rect id="Rectangle_260" data-name="Rectangle 260" width="12.784" height="0.074" transform="translate(15.528 99.422)" fill="#ebebeb"/>
    <rect id="Rectangle_261" data-name="Rectangle 261" width="1.874" height="0.074" transform="translate(30.949 99.422)" fill="#ebebeb"/>
    <rect id="Rectangle_262" data-name="Rectangle 262" width="27.729" height="0.074" transform="translate(38.915 100.671)" fill="#ebebeb"/>
    <path id="Path_4005" data-name="Path 4005" d="M97.051,138.708H39.9a1.69,1.69,0,0,1-1.687-1.69V56.675A1.69,1.69,0,0,1,39.9,55H97.051a1.69,1.69,0,0,1,1.69,1.69v80.328A1.69,1.69,0,0,1,97.051,138.708ZM39.9,55.059a1.616,1.616,0,0,0-1.613,1.616v80.342a1.616,1.616,0,0,0,1.613,1.616H97.051a1.619,1.619,0,0,0,1.616-1.616V56.675a1.619,1.619,0,0,0-1.616-1.616Z" transform="translate(-26.9 -55)" fill="#ebebeb"/>
    <path id="Path_4006" data-name="Path 4006" d="M313.347,138.708H256.19a1.693,1.693,0,0,1-1.69-1.69V56.675A1.693,1.693,0,0,1,256.19,55h57.157a1.69,1.69,0,0,1,1.684,1.675v80.342A1.69,1.69,0,0,1,313.347,138.708ZM256.19,55.059a1.619,1.619,0,0,0-1.616,1.616v80.342a1.619,1.619,0,0,0,1.616,1.616h57.157a1.619,1.619,0,0,0,1.616-1.616V56.675a1.619,1.619,0,0,0-1.616-1.616Z" transform="translate(-179.169 -55)" fill="#ebebeb"/>
    <path id="Path_4007" data-name="Path 4007" d="M96.506,117.438a4.467,4.467,0,0,1,1.32-3.753c1.669-1.468,1.521-2.338,1.045-2.451s-.918,1.353-1.649,1.755c0,0-.024-2.09.719-2.859s1.137-2.753.429-2.788-.784,1.184-.929,2.036a7.329,7.329,0,0,1-.935,2.072,8.176,8.176,0,0,0-.636-2.64c-.48-.77.8-2.531.3-3.3s-1.376.7-1.3,2.347,1.184,3.41.915,5.133c0,0-.482-1.211-.921-1.32s-.888-.909-1.166-1.208-.66.731,0,1.684,2.344,3.5,2.087,5.565Z" transform="translate(-65.701 -90.411)" fill="#e6e6e6"/>
    <path id="Path_4008" data-name="Path 4008" d="M99.079,142.8l.548,3.428a1.743,1.743,0,0,1-1.723,2.016h-.592a1.743,1.743,0,0,1-1.723-2.016l.548-3.428Z" transform="translate(-67.28 -116.811)" fill="#e6e6e6"/>
    <rect id="Rectangle_263" data-name="Rectangle 263" width="1.702" height="7.311" transform="translate(66.291 30.76) rotate(180)" fill="#ebebeb"/>
    <rect id="Rectangle_264" data-name="Rectangle 264" width="1.702" height="7.311" transform="translate(58.069 30.76) rotate(180)" fill="#ebebeb"/>
    <rect id="Rectangle_265" data-name="Rectangle 265" width="1.702" height="7.311" transform="matrix(-0.985, -0.17, 0.17, -0.985, 47.464, 30.757)" fill="#ebebeb"/>
    <rect id="Rectangle_266" data-name="Rectangle 266" width="1.702" height="6.349" transform="translate(64.184 30.76) rotate(180)" fill="#ebebeb"/>
    <rect id="Rectangle_267" data-name="Rectangle 267" width="1.702" height="6.349" transform="translate(60.274 30.76) rotate(180)" fill="#ebebeb"/>
    <rect id="Rectangle_268" data-name="Rectangle 268" width="1.702" height="6.349" transform="translate(50.405 30.76) rotate(180)" fill="#ebebeb"/>
    <rect id="Rectangle_269" data-name="Rectangle 269" width="1.702" height="6.349" transform="translate(54.417 30.757) rotate(-167.47)" fill="#ebebeb"/>
    <rect id="Rectangle_270" data-name="Rectangle 270" width="0.85" height="7.675" transform="translate(61.863 30.757) rotate(180)" fill="#ebebeb"/>
    <rect id="Rectangle_271" data-name="Rectangle 271" width="0.85" height="7.675" transform="translate(51.746 30.757) rotate(180)" fill="#ebebeb"/>
    <rect id="Rectangle_272" data-name="Rectangle 272" width="8.288" height="5.722" transform="translate(36.541 24.955)" fill="#ebebeb"/>
    <rect id="Rectangle_273" data-name="Rectangle 273" width="6.944" height="4.271" transform="translate(66.312 27.3)" fill="#ebebeb"/>
    <rect id="Rectangle_274" data-name="Rectangle 274" width="3.472" height="4.271" transform="translate(68.162 23.544)" fill="#ebebeb"/>
    <rect id="Rectangle_275" data-name="Rectangle 275" width="44.462" height="65.187" transform="translate(30.239 30.283)" fill="#f0f0f0"/>
    <rect id="Rectangle_276" data-name="Rectangle 276" width="41.318" height="12.038" transform="translate(31.811 32.338)" fill="#e0e0e0"/>
    <rect id="Rectangle_277" data-name="Rectangle 277" width="2.347" height="10.091" transform="translate(31.811 34.285)" fill="#ebebeb"/>
    <rect id="Rectangle_278" data-name="Rectangle 278" width="2.347" height="10.091" transform="translate(43.159 34.285)" fill="#ebebeb"/>
    <rect id="Rectangle_279" data-name="Rectangle 279" width="2.347" height="10.091" transform="matrix(0.985, -0.17, 0.17, 0.985, 56.077, 34.43)" fill="#ebebeb"/>
    <rect id="Rectangle_280" data-name="Rectangle 280" width="2.347" height="8.762" transform="translate(34.717 35.614)" fill="#ebebeb"/>
    <rect id="Rectangle_281" data-name="Rectangle 281" width="2.347" height="8.762" transform="translate(40.113 35.614)" fill="#ebebeb"/>
    <rect id="Rectangle_282" data-name="Rectangle 282" width="2.347" height="8.762" transform="translate(53.729 35.614)" fill="#ebebeb"/>
    <rect id="Rectangle_283" data-name="Rectangle 283" width="2.347" height="8.762" transform="translate(46.299 35.823) rotate(-12.53)" fill="#ebebeb"/>
    <rect id="Rectangle_284" data-name="Rectangle 284" width="1.172" height="10.591" transform="translate(37.92 33.785)" fill="#ebebeb"/>
    <rect id="Rectangle_285" data-name="Rectangle 285" width="1.172" height="10.591" transform="translate(51.882 33.785)" fill="#ebebeb"/>
    <rect id="Rectangle_286" data-name="Rectangle 286" width="41.318" height="12.038" transform="translate(73.126 58.32) rotate(180)" fill="#e0e0e0"/>
    <rect id="Rectangle_287" data-name="Rectangle 287" width="2.347" height="10.091" transform="translate(73.126 58.323) rotate(180)" fill="#ebebeb"/>
    <rect id="Rectangle_288" data-name="Rectangle 288" width="2.347" height="10.091" transform="translate(61.78 58.323) rotate(180)" fill="#ebebeb"/>
    <rect id="Rectangle_289" data-name="Rectangle 289" width="2.347" height="10.091" transform="matrix(-0.985, -0.17, 0.17, -0.985, 47.15, 58.32)" fill="#ebebeb"/>
    <rect id="Rectangle_290" data-name="Rectangle 290" width="2.347" height="8.762" transform="translate(70.219 58.32) rotate(180)" fill="#ebebeb"/>
    <rect id="Rectangle_291" data-name="Rectangle 291" width="2.347" height="8.762" transform="translate(64.823 58.32) rotate(180)" fill="#ebebeb"/>
    <rect id="Rectangle_292" data-name="Rectangle 292" width="2.347" height="8.762" transform="translate(51.207 58.32) rotate(180)" fill="#ebebeb"/>
    <rect id="Rectangle_293" data-name="Rectangle 293" width="2.347" height="8.762" transform="translate(56.747 58.318) rotate(-167.47)" fill="#ebebeb"/>
    <rect id="Rectangle_294" data-name="Rectangle 294" width="1.172" height="10.591" transform="translate(67.017 58.323) rotate(180)" fill="#ebebeb"/>
    <rect id="Rectangle_295" data-name="Rectangle 295" width="1.172" height="10.591" transform="translate(53.054 58.323) rotate(180)" fill="#ebebeb"/>
    <rect id="Rectangle_296" data-name="Rectangle 296" width="2.347" height="10.091" transform="translate(31.811 48.23)" fill="#ebebeb"/>
    <rect id="Rectangle_297" data-name="Rectangle 297" width="2.347" height="8.762" transform="translate(34.717 49.562)" fill="#ebebeb"/>
    <rect id="Rectangle_298" data-name="Rectangle 298" width="2.347" height="8.762" transform="translate(40.113 49.562)" fill="#ebebeb"/>
    <rect id="Rectangle_299" data-name="Rectangle 299" width="1.172" height="10.591" transform="translate(37.92 47.729)" fill="#ebebeb"/>
    <rect id="Rectangle_300" data-name="Rectangle 300" width="41.318" height="12.038" transform="translate(31.811 60.226)" fill="#e0e0e0"/>
    <rect id="Rectangle_301" data-name="Rectangle 301" width="2.347" height="10.091" transform="translate(55.526 62.177)" fill="#ebebeb"/>
    <rect id="Rectangle_302" data-name="Rectangle 302" width="2.347" height="10.091" transform="matrix(0.985, -0.17, 0.17, 0.985, 68.447, 62.32)" fill="#ebebeb"/>
    <rect id="Rectangle_303" data-name="Rectangle 303" width="2.347" height="8.762" transform="translate(47.084 63.506)" fill="#ebebeb"/>
    <rect id="Rectangle_304" data-name="Rectangle 304" width="2.347" height="8.762" transform="translate(52.48 63.506)" fill="#ebebeb"/>
    <rect id="Rectangle_305" data-name="Rectangle 305" width="2.347" height="8.762" transform="translate(66.096 63.506)" fill="#ebebeb"/>
    <rect id="Rectangle_306" data-name="Rectangle 306" width="2.347" height="8.762" transform="translate(58.667 63.71) rotate(-12.53)" fill="#ebebeb"/>
    <rect id="Rectangle_307" data-name="Rectangle 307" width="1.172" height="10.591" transform="translate(50.287 61.677)" fill="#ebebeb"/>
    <rect id="Rectangle_308" data-name="Rectangle 308" width="1.172" height="10.591" transform="translate(64.249 61.677)" fill="#ebebeb"/>
    <rect id="Rectangle_309" data-name="Rectangle 309" width="2.347" height="10.091" transform="matrix(0.985, -0.17, 0.17, 0.985, 41.442, 62.322)" fill="#ebebeb"/>
    <rect id="Rectangle_310" data-name="Rectangle 310" width="2.347" height="8.762" transform="translate(39.092 63.506)" fill="#ebebeb"/>
    <rect id="Rectangle_311" data-name="Rectangle 311" width="2.347" height="8.762" transform="translate(31.665 63.71) rotate(-12.53)" fill="#ebebeb"/>
    <rect id="Rectangle_312" data-name="Rectangle 312" width="1.172" height="10.591" transform="translate(37.245 61.677)" fill="#ebebeb"/>
    <rect id="Rectangle_313" data-name="Rectangle 313" width="7.669" height="65.356" transform="translate(30.239 95.642) rotate(180)" fill="#e0e0e0"/>
    <path id="Path_4009" data-name="Path 4009" d="M354.222,116.9l-9.836-5.722h-7.577l-10,5.452v37.085h27.412Z" transform="translate(-230.075 -94.551)" fill="#e0e0e0"/>
    <path id="Path_4010" data-name="Path 4010" d="M325.86,116.9l.281-.272a19.477,19.477,0,0,1,13.566-5.452h0a19.477,19.477,0,0,1,13.566,5.452l.281.272v36.813H325.86Zm25.858.787a17.76,17.76,0,0,0-24.023,0v34.188h24.023Z" transform="translate(-229.406 -94.551)" fill="#fafafa"/>
    <path id="Path_4011" data-name="Path 4011" d="M343.938,155.91h-1.379V143.6H330.89v-1.379h11.668V129.638H330.89v-1.379h11.668V116.59h1.379v11.668h11.668v1.379H343.938v12.586h11.668V143.6H343.938Z" transform="translate(-232.948 -98.36)" fill="#f0f0f0"/>
    <path id="Path_4012" data-name="Path 4012" d="M322.75,114.333l.269-.269a20.524,20.524,0,0,1,29.008,0l.269.269v38.11H322.75Zm27.7.767a18.686,18.686,0,0,0-25.858,0v35.5h25.858Z" transform="translate(-227.217 -92.355)" fill="#f0f0f0"/>
  </g>
  <g id="freepik--Shadow--inject-8" transform="translate(16.608 103.575)">
    <ellipse id="freepik--path--inject-8" cx="57.391" cy="3.351" rx="57.391" ry="3.351" fill="#f5f5f5"/>
  </g>
  <g id="freepik--Device--inject-8" transform="translate(67.12 23.911)">
    <rect id="Rectangle_314" data-name="Rectangle 314" width="0.918" height="4.739" rx="0.459" transform="translate(51.32) rotate(90)" fill="#263238"/>
    <rect id="Rectangle_315" data-name="Rectangle 315" width="80.529" height="57.364" rx="6.63" transform="translate(57.364 0.376) rotate(90)" fill="#263238"/>
    <rect id="Rectangle_316" data-name="Rectangle 316" width="80.529" height="55.884" rx="6.63" transform="translate(55.884 0.376) rotate(90)" fill="#fff" opacity="0.2"/>
    <circle id="Ellipse_1878" data-name="Ellipse 1878" cx="0.527" cy="0.527" r="0.527" transform="translate(26.379 1.341)" fill="#fff" opacity="0.6"/>
    <circle id="Ellipse_1879" data-name="Ellipse 1879" cx="0.263" cy="0.263" r="0.263" transform="translate(28.975 1.604)" fill="#fff" opacity="0.6"/>
    <circle id="Ellipse_1880" data-name="Ellipse 1880" cx="1.616" cy="1.616" r="1.616" transform="translate(26.323 76.409)" fill="#fff"/>
    <rect id="Rectangle_317" data-name="Rectangle 317" width="71.88" height="52.658" transform="translate(54.268 3.49) rotate(90)" fill="#407bff"/>
    <rect id="Rectangle_318" data-name="Rectangle 318" width="69.642" height="52.658" transform="translate(54.268 5.725) rotate(90)" fill="#fff" opacity="0.8"/>
    <circle id="Ellipse_1881" data-name="Ellipse 1881" cx="0.497" cy="0.497" r="0.497" transform="translate(49.008 4.103)" fill="#fff" opacity="0.6"/>
    <circle id="Ellipse_1882" data-name="Ellipse 1882" cx="0.497" cy="0.497" r="0.497" transform="translate(50.725 4.103)" fill="#fff" opacity="0.6"/>
    <circle id="Ellipse_1883" data-name="Ellipse 1883" cx="0.497" cy="0.497" r="0.497" transform="translate(52.442 4.103)" fill="#fff" opacity="0.6"/>
    <rect id="Rectangle_319" data-name="Rectangle 319" width="52.658" height="3.185" transform="translate(1.61 5.728)" opacity="0.2"/>
    <path id="Path_4013" data-name="Path 4013" d="M364.148,159.461h-16.3a.761.761,0,0,1-.761-.761h0a.761.761,0,0,1,.761-.761h16.3a.761.761,0,0,1,.761.761h0A.761.761,0,0,1,364.148,159.461Z" transform="translate(-311.473 -151.381)" fill="#fff" opacity="0.6"/>
    <path id="Path_4014" data-name="Path 4014" d="M296.17,178.709a1.368,1.368,0,0,1,1.433-1.382,1.335,1.335,0,0,1,1.027.423l-.249.243a1.039,1.039,0,1,0,0,1.433l.249.243a1.338,1.338,0,0,1-1.03.426,1.367,1.367,0,0,1-1.43-1.385Z" transform="translate(-275.625 -165.028)" fill="#263238"/>
    <path id="Path_4015" data-name="Path 4015" d="M308.677,177.48v2.7h-.388v-1.2h-1.551v1.2h-.388v-2.7h.388v1.163h1.551V177.48Z" transform="translate(-282.792 -165.137)" fill="#263238"/>
    <path id="Path_4016" data-name="Path 4016" d="M317.708,179.508h-1.436l-.3.675h-.4l1.225-2.7h.379l1.228,2.7h-.406Zm-.133-.311-.592-1.323-.592,1.323Z" transform="translate(-289.29 -165.137)" fill="#263238"/>
    <path id="Path_4017" data-name="Path 4017" d="M328.691,178.421c0,.592-.426.944-1.128.944h-.669v.817h-.385v-2.7h1.054C328.265,177.48,328.691,177.835,328.691,178.421Zm-.388,0c0-.385-.258-.592-.752-.592h-.657v1.214h.648C328.046,179.028,328.3,178.818,328.3,178.421Z" transform="translate(-296.984 -165.137)" fill="#263238"/>
    <path id="Path_4018" data-name="Path 4018" d="M335.126,177.814H334.2v-.334h2.235v.334h-.926v2.368h-.382Z" transform="translate(-302.398 -165.137)" fill="#263238"/>
    <path id="Path_4019" data-name="Path 4019" d="M345.139,179.848v.334h-1.96v-2.7h1.906v.334h-1.521v.832h1.356v.329h-1.356v.873Z" transform="translate(-308.72 -165.137)" fill="#263238"/>
    <path id="Path_4020" data-name="Path 4020" d="M353.677,180.168l-.592-.829h-.838v.823h-.388v-2.7h1.054c.7,0,1.128.355,1.128.941a.855.855,0,0,1-.592.855l.642.906Zm0-1.776c0-.385-.26-.592-.755-.592h-.654v1.217h.654c.491,0,.755-.213.755-.61Z" transform="translate(-314.831 -165.123)" fill="#263238"/>
    <path id="Path_4021" data-name="Path 4021" d="M363.12,165.89v13.921l4.268-4.265,4.049,4.049v-13.7Z" transform="translate(-322.758 -156.978)" fill="#407bff"/>
    <path id="Path_4022" data-name="Path 4022" d="M374.561,179.892c0,.722-.533,1.308-1.619,1.308a2.433,2.433,0,0,1-1.572-.518l.281-.485a1.924,1.924,0,0,0,1.29.459c.642,0,1.009-.3,1.009-.758s-.326-.746-1.06-.746h-.343v-.429l1.077-1.32h-2.072v-.533h2.824v.417l-1.107,1.4C374.126,178.75,374.561,179.232,374.561,179.892Z" transform="translate(-328.566 -164.707)" fill="#fff"/>
    <path id="Path_4023" data-name="Path 4023" d="M251.651,234.521c0,.947-.684,1.518-1.814,1.518h-1.074v1.317h-.622V233h1.7C250.967,233,251.651,233.592,251.651,234.521Zm-.622,0c0-.622-.414-.974-1.211-.974h-1.057V235.5h1.057C250.615,235.5,251.029,235.143,251.029,234.521Z" transform="translate(-241.812 -204.223)" fill="#263238"/>
    <path id="Path_4024" data-name="Path 4024" d="M301.242,233.566H263.058a.148.148,0,1,1,0-.3h38.184a.148.148,0,1,1,0,.3Z" transform="translate(-252.21 -204.413)"/>
    <path id="Path_4025" data-name="Path 4025" d="M301.242,238.756H263.058a.148.148,0,1,1,0-.3h38.184a.151.151,0,0,1,.148.148A.148.148,0,0,1,301.242,238.756Z" transform="translate(-252.21 -208.067)"/>
    <path id="Path_4026" data-name="Path 4026" d="M301.242,243.946H263.058a.148.148,0,1,1,0-.3h38.184a.151.151,0,0,1,.148.148A.148.148,0,0,1,301.242,243.946Z" transform="translate(-252.21 -211.721)"/>
    <path id="Path_4027" data-name="Path 4027" d="M301.242,249.136H263.058a.148.148,0,1,1,0-.3h38.184a.151.151,0,0,1,.148.148A.148.148,0,0,1,301.242,249.136Z" transform="translate(-252.21 -215.375)"/>
    <path id="Path_4028" data-name="Path 4028" d="M290.682,254.3H248.058a.148.148,0,0,1,0-.3h42.624a.148.148,0,0,1,.148.148A.151.151,0,0,1,290.682,254.3Z" transform="translate(-241.65 -219.007)"/>
    <path id="Path_4029" data-name="Path 4029" d="M290.682,259.526H248.058a.148.148,0,0,1,0-.3h42.624a.148.148,0,0,1,.148.148A.151.151,0,0,1,290.682,259.526Z" transform="translate(-241.65 -222.689)"/>
    <path id="Path_4030" data-name="Path 4030" d="M290.682,264.716H248.058a.148.148,0,0,1,0-.3h42.624a.148.148,0,0,1,.148.148A.151.151,0,0,1,290.682,264.716Z" transform="translate(-241.65 -226.343)"/>
    <path id="Path_4031" data-name="Path 4031" d="M290.682,269.906H248.058a.148.148,0,0,1,0-.3h42.624a.148.148,0,0,1,0,.3Z" transform="translate(-241.65 -229.997)"/>
    <path id="Path_4032" data-name="Path 4032" d="M267.027,275.1H248.1a.148.148,0,0,1,0-.3h18.929a.148.148,0,1,1,0,.3Z" transform="translate(-241.678 -233.651)"/>
    <path id="Path_4033" data-name="Path 4033" d="M301.946,286.566H264.058a.148.148,0,1,1,0-.3h37.888a.151.151,0,0,1,.148.148A.148.148,0,0,1,301.946,286.566Z" transform="translate(-252.914 -241.725)"/>
    <path id="Path_4034" data-name="Path 4034" d="M290.682,291.756H248.058a.148.148,0,0,1,0-.3h42.624a.151.151,0,0,1,.148.148A.148.148,0,0,1,290.682,291.756Z" transform="translate(-241.65 -245.379)"/>
    <path id="Path_4035" data-name="Path 4035" d="M290.682,296.956H248.058a.148.148,0,1,1,0-.3h42.624a.148.148,0,0,1,.148.148A.151.151,0,0,1,290.682,296.956Z" transform="translate(-241.65 -249.04)"/>
    <path id="Path_4036" data-name="Path 4036" d="M290.682,302.146H248.058a.148.148,0,0,1,0-.3h42.624a.148.148,0,0,1,.148.148A.151.151,0,0,1,290.682,302.146Z" transform="translate(-241.65 -252.694)"/>
    <path id="Path_4037" data-name="Path 4037" d="M290.682,307.3H248.058a.148.148,0,0,1,0-.3h42.624a.148.148,0,0,1,0,.3Z" transform="translate(-241.65 -256.319)"/>
    <path id="Path_4038" data-name="Path 4038" d="M290.682,312.526H248.058a.148.148,0,0,1,0-.3h42.624a.148.148,0,0,1,0,.3Z" transform="translate(-241.65 -260.001)"/>
    <path id="Path_4039" data-name="Path 4039" d="M290.682,317.716H248.058a.148.148,0,0,1,0-.3h42.624a.148.148,0,0,1,0,.3Z" transform="translate(-241.65 -263.655)"/>
    <path id="Path_4040" data-name="Path 4040" d="M290.682,322.906H248.058a.148.148,0,0,1,0-.3h42.624a.151.151,0,0,1,.148.148.148.148,0,0,1-.148.148Z" transform="translate(-241.65 -267.309)"/>
    <path id="Path_4041" data-name="Path 4041" d="M281.827,328.1H248.1a.148.148,0,0,1,0-.3h33.744a.148.148,0,1,1-.015.3Z" transform="translate(-241.678 -270.963)"/>
    <path id="Path_4042" data-name="Path 4042" d="M301.946,340.576H264.058a.148.148,0,1,1,0-.3h37.888a.148.148,0,0,1,.148.148A.151.151,0,0,1,301.946,340.576Z" transform="translate(-252.914 -279.749)"/>
    <path id="Path_4043" data-name="Path 4043" d="M290.682,345.766H248.058a.148.148,0,0,1,0-.3h42.624a.148.148,0,0,1,0,.3Z" transform="translate(-241.65 -283.402)"/>
    <path id="Path_4044" data-name="Path 4044" d="M290.682,350.956H248.058a.148.148,0,0,1,0-.3h42.624a.148.148,0,0,1,0,.3Z" transform="translate(-241.65 -287.056)"/>
    <path id="Path_4045" data-name="Path 4045" d="M278.867,356.146H248.1a.148.148,0,0,1,0-.3h30.784a.148.148,0,1,1,0,.3Z" transform="translate(-241.678 -290.71)"/>
    <path id="Path_4046" data-name="Path 4046" d="M384.728,372.05v.181l-.752,1.684h-.3l.737-1.634h-.852v.346h-.255v-.562Z" transform="translate(-336.972 -302.115)" fill="#263238"/>
    <path id="Path_4047" data-name="Path 4047" d="M389.821,373.364c0,.317-.231.571-.7.571a1.066,1.066,0,0,1-.687-.228l.124-.21a.832.832,0,0,0,.562.2c.278,0,.438-.127.438-.332s-.139-.326-.459-.326h-.151v-.186l.471-.574h-.888v-.231h1.231v.181l-.488.592C389.632,372.867,389.821,373.077,389.821,373.364Z" transform="translate(-340.576 -302.115)" fill="#263238"/>
    <rect id="Rectangle_320" data-name="Rectangle 320" width="1.332" height="66.457" transform="translate(52.939 8.912)" opacity="0.4"/>
    <rect id="Rectangle_321" data-name="Rectangle 321" width="1.332" height="7.962" rx="0.666" transform="translate(52.939 20.172)" fill="#fff" opacity="0.3"/>
    <rect id="Rectangle_322" data-name="Rectangle 322" width="1.015" height="7.885" rx="0.508" transform="translate(56.577 17.26)" fill="#263238"/>
    <rect id="Rectangle_323" data-name="Rectangle 323" width="1.015" height="7.885" rx="0.508" transform="translate(56.577 8.38)" fill="#263238"/>
    <rect id="Rectangle_324" data-name="Rectangle 324" width="1.015" height="7.885" rx="0.508" transform="translate(56.577 17.26)" fill="#fff" opacity="0.2"/>
    <rect id="Rectangle_325" data-name="Rectangle 325" width="1.015" height="7.885" rx="0.508" transform="translate(56.577 8.38)" fill="#fff" opacity="0.2"/>
  </g>
  <g id="freepik--Character--inject-8" transform="translate(24.855 52.657)">
    <path id="Path_4048" data-name="Path 4048" d="M119.893,289.831H88.787l-4.736-24.479a4.336,4.336,0,0,1,4.256-5.162h22.271a4.336,4.336,0,0,1,4.256,3.514Z" transform="translate(-83.972 -252.112)" fill="#407bff"/>
    <path id="Path_4049" data-name="Path 4049" d="M97.623,289.831H88.787l-4.736-24.479a4.336,4.336,0,0,1,4.256-5.162h0a4.339,4.339,0,0,1,4.256,3.514Z" transform="translate(-83.972 -252.112)" fill="#407bff"/>
    <g id="Group_269" data-name="Group 269" transform="translate(0 8.078)" opacity="0.2">
      <path id="Path_4050" data-name="Path 4050" d="M119.893,289.831H88.787l-4.736-24.479a4.336,4.336,0,0,1,4.256-5.162h22.271a4.336,4.336,0,0,1,4.256,3.514Z" transform="translate(-83.972 -260.19)" fill="#fff"/>
    </g>
    <path id="Path_4051" data-name="Path 4051" d="M130.2,289.791H107.928l-5.059-26.1A4.316,4.316,0,0,0,98.61,260.2h22.271a4.313,4.313,0,0,1,4.256,3.493Z" transform="translate(-94.277 -252.119)" fill="#fff" opacity="0.2"/>
    <path id="Path_4052" data-name="Path 4052" d="M145.367,238.218s-1.169,4.582-4.5,3.866S137.434,237,137.434,237a5.676,5.676,0,0,0-.394,2.1,2.2,2.2,0,0,1-.018-2.1s-.888.471-.888,1.217a1.237,1.237,0,0,1,.548-1.51s-1.983.45-1.184-2.285,3.36-1.27,3.09.349a3.673,3.673,0,0,1,2.368-1.012C142.413,233.683,146.8,235.456,145.367,238.218Z" transform="translate(-120.113 -232.898)" fill="#263238"/>
    <path id="Path_4053" data-name="Path 4053" d="M172.213,271c1.459.471,3.188,6.651,3.638,6.864S178.1,274,178.1,274l.21-1.726.607-1.077a5.224,5.224,0,0,1,.932,1.921c0,.651-1.137,1.513-1.137,1.513s-1.776,6.18-3.025,5.941-3.5-5-3.5-5Z" transform="translate(-146.071 -259.722)" fill="#e4897b"/>
    <path id="Path_4054" data-name="Path 4054" d="M169.348,325.846c-.027.044-.053.062-.086.056-.888-.16-3.256,1.134-6.115,2.625l-.805.414c-.092.05-.184.095-.275.139-1.45.743-2.99,1.48-4.514,2.1a17.637,17.637,0,0,1-5.115,1.382c-.213.018-.417.024-.622.024-6.986,0-4.709-11.529-4.709-11.529l8.344-.639.986,1.7.533.918,1.2-.323c.592-.163,1.5-.373,2.54-.592l.24-.053c.346-.074.707-.145,1.077-.219a54.3,54.3,0,0,1,7.006-1.092C169.866,320.749,169.721,325.3,169.348,325.846Z" transform="translate(-128.17 -294.514)" fill="#e4897b"/>
    <path id="Path_4055" data-name="Path 4055" d="M165.321,317.9l1.619,8.024s-5.574,4.529-10.36,2.762-3.288-9.928-3.288-9.928l5.87-3.7,2.341,3.274Z" transform="translate(-132.617 -290.74)" fill="#263238"/>
    <path id="Path_4056" data-name="Path 4056" d="M193.53,323.729l1.684,8.685,1.012-.8-1.35-8.054Z" transform="translate(-161.101 -296.724)" fill="#263238"/>
    <path id="Path_4057" data-name="Path 4057" d="M196.22,331.614l-1.012.8-.056-.3-.16-.82-.687-3.531-.666-3.431-.074-.388-.044-.213,1.353-.169.083.5.63,3.777.485,2.9Z" transform="translate(-161.094 -296.724)" fill="#fff" opacity="0.4"/>
    <path id="Path_4058" data-name="Path 4058" d="M190.643,332.667c-.027.044-.053.062-.086.056-.888-.16-3.256,1.134-6.115,2.626l.148.888-1.012.8-.056-.332a23.151,23.151,0,0,1-3.4,1.933h0l-1.276-.651L177,337.01l.758-6.9,1.1,1.518s2.554.619,3.818.74l.3.027c.346.03.687.047,1,.05.225,0,.432,0,.633-.018A18.861,18.861,0,0,1,190.643,332.667Z" transform="translate(-149.464 -301.336)" opacity="0.2"/>
    <path id="Path_4059" data-name="Path 4059" d="M198.479,342.811l-.077,1.669h-.2l-1.35.068c-3.582.163-12.467.477-16.256-.281l-17.411.337,3.827-6.7,23.94,3.738,7.367,1.145Z" transform="translate(-139.742 -306.82)" fill="#e4897b"/>
    <path id="Path_4060" data-name="Path 4060" d="M284.639,343.744c-.033.654-.056,1.243-.083,1.776-.036.746-.062,1.406-.092,2.039-.05,1.1-.953.37-2.907.234-.047,0-.065-.157-.068-.385,0-.488.071-1.314.11-1.708l.024-.225a8.969,8.969,0,0,0,.678-.7,5.731,5.731,0,0,0,1.222-2.025C283.911,341.388,284.707,342.2,284.639,343.744Z" transform="translate(-223.025 -309.745)" fill="#263238"/>
    <path id="Path_4061" data-name="Path 4061" d="M158.057,322.339l-1.959,6.846-3.848-.37s-11.079,2.927-7.992-12.956l8.323-.8,2.427,6.331Z" transform="translate(-126.031 -290.74)" fill="#263238"/>
    <path id="Path_4062" data-name="Path 4062" d="M185.484,338.39l-2.214,7.329h1.308l1.939-6.956Z" transform="translate(-153.878 -307.165)" fill="#263238"/>
    <path id="Path_4063" data-name="Path 4063" d="M185.484,338.39l-2.214,7.329h1.308l1.939-6.956Z" transform="translate(-153.878 -307.165)" fill="#fff" opacity="0.4"/>
    <path id="Path_4064" data-name="Path 4064" d="M267.266,351.495c-.036.746-.062,1.406-.092,2.039-.05,1.1-.953.37-2.907.234-.047,0-.065-.157-.068-.385l-1.35.068c-1.844-1.039-4.44-2.25-5.92-2.922l7.367,1.146.024-.225a8.957,8.957,0,0,0,.678-.7Z" transform="translate(-205.735 -315.711)" opacity="0.2"/>
    <path id="Path_4065" data-name="Path 4065" d="M221.7,321.55c-.3,0-.1,5.091.222,5.147,1.359.246,19.891,5.716,19.891,5.716l.539-1.625S224.742,321.532,221.7,321.55Z" transform="translate(-180.834 -295.309)" fill="#e4897b"/>
    <path id="Path_4066" data-name="Path 4066" d="M289.2,347.737c-.178-.065.693-2.217.693-2.217a7.226,7.226,0,0,0,2.572-2.1c.746-1.217,1.291-.216.8,1.252l-1.208,3.635C291.716,349.344,291.044,348.4,289.2,347.737Z" transform="translate(-228.439 -310.319)" fill="#263238"/>
    <path id="Path_4067" data-name="Path 4067" d="M144.863,312.967l-.083,1.264,8.614-1.826-.373-1.394Z" transform="translate(-126.781 -287.889)"/>
    <rect id="Rectangle_326" data-name="Rectangle 326" width="0.414" height="2.11" transform="translate(20.38 24.277) rotate(-10.51)" fill="#263238"/>
    <rect id="Rectangle_327" data-name="Rectangle 327" width="1.832" height="1.388" transform="matrix(0.976, -0.22, 0.22, 0.976, 22.581, 24.074)" fill="#fff"/>
    <rect id="Rectangle_328" data-name="Rectangle 328" width="0.414" height="2.11" transform="translate(25.37 23.039) rotate(-10.51)" fill="#263238"/>
    <path id="Path_4068" data-name="Path 4068" d="M147.592,282.692l-8.232,1.752a36.84,36.84,0,0,0-.619-7.071c-.21-.817-.474-1.732-.808-2.794-.142-.45-.3-.923-.465-1.433s-.323-.977-.509-1.507a24.638,24.638,0,0,1,3.386-.817,26.162,26.162,0,0,1,3.661-.385c1.587-.015,3.41.166,3.41.166s.258.062.42,1.743A84.643,84.643,0,0,1,147.592,282.692Z" transform="translate(-121.276 -259.326)" fill="#263238"/>
    <path id="Path_4069" data-name="Path 4069" d="M147.613,282.694l-8.232,1.752v-.278c-.015-.406-.027-1.184-.068-2.1a25.2,25.2,0,0,0-.545-4.7c-.148-.592-.326-1.217-.539-1.918l-.11-.361c-.05-.166-.1-.337-.157-.512-.142-.45-.3-.926-.468-1.436s-.323-.977-.506-1.5a24.068,24.068,0,0,1,3.383-.817,26.164,26.164,0,0,1,3.661-.388c1.587,0,3.41.166,3.41.166s.258.065.423,1.743A87.482,87.482,0,0,1,147.613,282.694Z" transform="translate(-121.297 -259.328)" fill="#fff" opacity="0.8"/>
    <path id="Path_4070" data-name="Path 4070" d="M152.277,266.047a3.756,3.756,0,0,1-2.617-1.119,2.537,2.537,0,0,0,.462-2.628,4.068,4.068,0,0,0-.246-.66l2.418.453a7.16,7.16,0,0,0-.092,1.021,2.93,2.93,0,0,0,.068.749c.163.722.592.731.592.731C153.271,265.39,152.277,266.047,152.277,266.047Z" transform="translate(-130.216 -253.132)" fill="#e4897b"/>
    <path id="Path_4071" data-name="Path 4071" d="M152.717,263.114a2.931,2.931,0,0,0,.068.749,3.322,3.322,0,0,1-2.149-1.563,4.071,4.071,0,0,0-.246-.66l2.418.453a7.165,7.165,0,0,0-.092,1.021Z" transform="translate(-130.73 -253.132)" opacity="0.2"/>
    <path id="Path_4072" data-name="Path 4072" d="M151.565,240.093c2.226.456,2.7,1.794,2.395,4.123-.382,2.91-1.433,4.816-4.094,3.635C146.255,246.241,147.865,239.339,151.565,240.093Z" transform="translate(-128.933 -237.923)" fill="#e4897b"/>
    <path id="Path_4073" data-name="Path 4073" d="M163.318,252.74a4.807,4.807,0,0,0,.459,1.057.625.625,0,0,1-.636.133Z" transform="translate(-139.706 -246.867)" fill="#de5753"/>
    <path id="Path_4074" data-name="Path 4074" d="M156.494,245.821a.1.1,0,0,1-.083-.038.107.107,0,0,1,.015-.151,1.285,1.285,0,0,1,1.137-.16.11.11,0,0,1,.068.136.107.107,0,0,1-.136.068,1.071,1.071,0,0,0-.932.121A.118.118,0,0,1,156.494,245.821Z" transform="translate(-134.952 -241.703)" fill="#263238"/>
    <path id="Path_4075" data-name="Path 4075" d="M166.356,246.992a.107.107,0,0,1-.074-.033.974.974,0,0,0-.761-.334.107.107,0,1,1-.033-.21,1.166,1.166,0,0,1,.944.394.107.107,0,0,1,0,.151.113.113,0,0,1-.077.033Z" transform="translate(-141.292 -242.413)" fill="#263238"/>
    <path id="Path_4076" data-name="Path 4076" d="M147.315,241.032a6.841,6.841,0,0,0,1.545-3.061s4.78-.888,4.085,3.62c0,0,1.243-3.889-2.569-4.757s-4.937,4.736-3.3,6.808A2.821,2.821,0,0,1,147.315,241.032Z" transform="translate(-127.883 -235.606)" fill="#263238"/>
    <path id="Path_4077" data-name="Path 4077" d="M146.731,250.432a1,1,0,0,0-.87-1.107c-.7-.065-1.323,1.285.326,1.977C146.42,251.4,146.609,251.186,146.731,250.432Z" transform="translate(-127.033 -244.461)" fill="#e4897b"/>
    <path id="Path_4078" data-name="Path 4078" d="M159.477,256.811a5.9,5.9,0,0,0-.524.648l-.133-.062c-.592-.3-.776-.628-.793-.909a.826.826,0,0,1,.077-.4.869.869,0,0,1,.118-.2,3.09,3.09,0,0,0,1.054.817A1.759,1.759,0,0,0,159.477,256.811Z" transform="translate(-136.106 -249.084)" fill="#263238"/>
    <path id="Path_4079" data-name="Path 4079" d="M159.462,256.717l-.16.189c-.562-.278-.921-.548-1.012-.805a.869.869,0,0,1,.118-.2A3.091,3.091,0,0,0,159.462,256.717Z" transform="translate(-136.292 -249.091)" fill="#fff"/>
    <path id="Path_4080" data-name="Path 4080" d="M158.823,258.839c-.592-.3-.776-.628-.793-.909a2.2,2.2,0,0,1,.592.459A.79.79,0,0,1,158.823,258.839Z" transform="translate(-136.109 -250.521)" fill="#de5753"/>
    <path id="Path_4081" data-name="Path 4081" d="M149.219,237.056s-1.643,3.481-3.943,2.96,2.211-4.44,2.211-4.44,4.055-.651,5.506,1.726-1.261,3.4-1.261,3.4A3.007,3.007,0,0,0,149.219,237.056Z" transform="translate(-126.67 -234.726)" fill="#263238"/>
    <path id="Path_4082" data-name="Path 4082" d="M152.511,242.831a.074.074,0,0,1-.018-.145c1.93-.488,2.184-2.96,2.187-3a.074.074,0,0,1,.08-.068.077.077,0,0,1,.068.083c0,.024-.266,2.614-2.3,3.126Z" transform="translate(-132.173 -237.63)" fill="#263238"/>
    <path id="Path_4083" data-name="Path 4083" d="M158.326,250.849c0,.175-.107.314-.225.311s-.207-.154-.2-.329.109-.317.225-.3A.277.277,0,0,1,158.326,250.849Z" transform="translate(-136.017 -245.313)" fill="#263238"/>
    <path id="Path_4084" data-name="Path 4084" d="M158.5,250.186l.391-.136S158.686,250.367,158.5,250.186Z" transform="translate(-136.44 -244.973)" fill="#263238"/>
    <path id="Path_4085" data-name="Path 4085" d="M165.755,250.953c0,.178-.11.317-.228.3a.29.29,0,0,1-.2-.329c.009-.178.107-.317.225-.311S165.761,250.775,165.755,250.953Z" transform="translate(-141.247 -245.367)" fill="#263238"/>
    <path id="Path_4086" data-name="Path 4086" d="M165.92,250.356l.391-.136S166.106,250.537,165.92,250.356Z" transform="translate(-141.664 -245.093)" fill="#263238"/>
    <path id="Path_4087" data-name="Path 4087" d="M168.3,269.219h6a.385.385,0,0,0,.358-.3l2.116-9.368a.225.225,0,0,0-.228-.3h-6a.391.391,0,0,0-.358.3l-2.116,9.368a.225.225,0,0,0,.228.3Z" transform="translate(-143.171 -251.456)" fill="#263238"/>
    <path id="Path_4088" data-name="Path 4088" d="M168.3,269.219h6a.385.385,0,0,0,.358-.3l2.116-9.368a.225.225,0,0,0-.228-.3h-6a.391.391,0,0,0-.358.3l-2.116,9.368a.225.225,0,0,0,.228.3Z" transform="translate(-143.171 -251.456)" fill="#fff" opacity="0.2"/>
    <path id="Path_4089" data-name="Path 4089" d="M182.552,272.44c.37,0,.592.379.477.847a1.036,1.036,0,0,1-.858.844c-.367,0-.592-.379-.48-.844A1.04,1.04,0,0,0,182.552,272.44Z" transform="translate(-152.746 -260.736)" fill="#fff" opacity="0.8"/>
    <path id="Path_4090" data-name="Path 4090" d="M177.451,262.079h.636a.145.145,0,0,0,.136-.11l.175-.77a.089.089,0,0,0-.089-.109h-.636a.148.148,0,0,0-.136.109l-.175.77a.086.086,0,0,0,.089.11Z" transform="translate(-149.716 -252.745)" opacity="0.2"/>
    <path id="Path_4091" data-name="Path 4091" d="M179.46,261.732c-.018.077.024.142.089.142a.178.178,0,0,0,.151-.142c.018-.077-.021-.142-.086-.142A.178.178,0,0,0,179.46,261.732Z" transform="translate(-151.193 -253.097)" fill="#263238"/>
    <path id="Path_4092" data-name="Path 4092" d="M178.26,261.732c-.018.077.021.142.089.142a.178.178,0,0,0,.151-.142c.018-.077-.021-.142-.089-.142A.178.178,0,0,0,178.26,261.732Z" transform="translate(-150.348 -253.097)" fill="#263238"/>
    <path id="Path_4093" data-name="Path 4093" d="M179.15,263.119c-.018.08.021.142.089.142a.175.175,0,0,0,.151-.142c.018-.077-.021-.139-.089-.139A.175.175,0,0,0,179.15,263.119Z" transform="translate(-150.974 -254.076)" fill="#263238"/>
    <path id="Path_4094" data-name="Path 4094" d="M177.99,263.119c-.018.08.021.142.086.142a.175.175,0,0,0,.154-.142c.018-.077-.024-.139-.089-.139A.175.175,0,0,0,177.99,263.119Z" transform="translate(-150.158 -254.076)" fill="#263238"/>
    <path id="Path_4095" data-name="Path 4095" d="M170.192,259.576l-2.119,9.368a.225.225,0,0,0,.228.3h.249a.225.225,0,0,1-.225-.3l2.116-9.368a.388.388,0,0,1,.358-.3h-.252A.385.385,0,0,0,170.192,259.576Z" transform="translate(-143.171 -251.471)" opacity="0.2"/>
    <path id="Path_4096" data-name="Path 4096" d="M145.525,287.621a13.479,13.479,0,0,1-3.552,3.848,25.2,25.2,0,0,0-.545-4.7c-.148-.592-.326-1.217-.539-1.918l-.11-.361a2.19,2.19,0,0,1,.989-.693,14.886,14.886,0,0,1,.477,4.381Z" transform="translate(-123.965 -268.733)" opacity="0.2"/>
    <path id="Path_4097" data-name="Path 4097" d="M136.262,274.458c-.607.145-.3,7.524.69,9.274s7.909-5.281,7.909-5.281l-.42-1.273s-6.071,3.937-6.2,3.875a37.365,37.365,0,0,1,.133-3.848,5.45,5.45,0,0,0-.888-2.161C136.833,274.263,136.262,274.458,136.262,274.458Z" transform="translate(-120.566 -262.141)" fill="#e4897b"/>
    <path id="Path_4098" data-name="Path 4098" d="M164.63,279.861l1.151-1.631.888,2.327s-1.279,1.258-1.874.545Z" transform="translate(-140.755 -264.812)" fill="#e4897b"/>
    <path id="Path_4099" data-name="Path 4099" d="M170.263,276.2l.482,1.844-1.335,1.083-.891-2.327Z" transform="translate(-143.494 -263.383)" fill="#e4897b"/>
    <path id="Path_4100" data-name="Path 4100" d="M263.672,404.226h1.5l-.506-5h-2Z" transform="translate(-209.769 -349.996)" fill="#263238"/>
    <path id="Path_4101" data-name="Path 4101" d="M211.552,404.226h1.5l-.506-5h-2Z" transform="translate(-173.076 -349.996)" fill="#263238"/>
    <path id="Path_4102" data-name="Path 4102" d="M177.858,404.226h-1.5l.506-5h2Z" transform="translate(-149.013 -349.996)" fill="#263238"/>
    <path id="Path_4103" data-name="Path 4103" d="M229.985,404.226H228.49l.5-5h2Z" transform="translate(-185.713 -349.996)" fill="#263238"/>
    <path id="Path_4104" data-name="Path 4104" d="M104.378,404.226h-1.5l.506-5h2Z" transform="translate(-97.283 -349.996)" fill="#263238"/>
    <path id="Path_4105" data-name="Path 4105" d="M156.5,404.226H155l.506-5h2Z" transform="translate(-133.976 -349.996)" fill="#263238"/>
    <path id="Path_4106" data-name="Path 4106" d="M177.858,404.226h-1.5l.506-5h2Z" transform="translate(-149.013 -349.996)" fill="#fff" opacity="0.1"/>
    <path id="Path_4107" data-name="Path 4107" d="M229.985,404.226H228.49l.5-5h2Z" transform="translate(-185.713 -349.996)" fill="#fff" opacity="0.1"/>
    <path id="Path_4108" data-name="Path 4108" d="M104.378,404.226h-1.5l.506-5h2Z" transform="translate(-97.283 -349.996)" fill="#fff" opacity="0.1"/>
    <path id="Path_4109" data-name="Path 4109" d="M156.5,404.226H155l.506-5h2Z" transform="translate(-133.976 -349.996)" fill="#fff" opacity="0.1"/>
    <path id="Path_4110" data-name="Path 4110" d="M332.032,404.226h1.495l-.5-5h-2Z" transform="translate(-257.895 -349.996)" fill="#263238"/>
    <path id="Path_4111" data-name="Path 4111" d="M279.909,404.226h1.5l-.506-5h-2Z" transform="translate(-221.202 -349.996)" fill="#263238"/>
    <rect id="Rectangle_329" data-name="Rectangle 329" width="52.859" height="12.9" rx="6.45" transform="translate(3.637 37.418)" fill="#407bff"/>
    <rect id="Rectangle_330" data-name="Rectangle 330" width="52.859" height="12.9" rx="6.45" transform="translate(3.637 37.418)" fill="#fff" opacity="0.2"/>
    <rect id="Rectangle_331" data-name="Rectangle 331" width="32.625" height="12.9" rx="6.45" transform="translate(23.872 37.418)" fill="#fff" opacity="0.2"/>
    <rect id="Rectangle_332" data-name="Rectangle 332" width="52.859" height="12.9" rx="6.45" transform="translate(24.881 37.418)" fill="#407bff"/>
    <rect id="Rectangle_333" data-name="Rectangle 333" width="52.859" height="12.9" rx="6.45" transform="translate(24.881 37.418)" fill="#fff" opacity="0.2"/>
    <rect id="Rectangle_334" data-name="Rectangle 334" width="32.625" height="12.9" rx="6.45" transform="translate(45.115 37.418)" fill="#fff" opacity="0.2"/>
  </g>
  <g id="freepik--Plant--inject-8" transform="translate(16.924 50.592)">
    <path id="Path_4112" data-name="Path 4112" d="M74.646,278.938h-.021a.148.148,0,0,1-.127-.166c0-.027.021-.317.044-.82.038-.749.1-2.318.08-4.419a.837.837,0,0,0,0-.092c-.027-2.347-.154-4.656-.373-6.87-.2-2.072-.494-4.067-.864-5.955a47.014,47.014,0,0,0-1.2-4.813h0c-.074-.234-.148-.468-.225-.7s-.127-.382-.2-.571c-.172-.491-.329-.965-.465-1.4-.3-.962-.568-1.924-.79-2.856-.136-.562-.258-1.113-.358-1.64a35.654,35.654,0,0,1-.687-6.062c-.021-.8,0-1.6.036-2.368a23.507,23.507,0,0,1,.26-2.43.9.9,0,0,1,.027-.16v-.077a.169.169,0,0,1,.041-.1.148.148,0,0,1,.21,0,.166.166,0,0,1,.044.148h0v.077a.368.368,0,0,1-.027.166,22.794,22.794,0,0,0-.258,2.4c-.041.767-.053,1.56-.033,2.353a35.691,35.691,0,0,0,.678,6.015c.1.524.222,1.069.358,1.625.219.926.485,1.883.784,2.839.136.435.3.888.462,1.394.068.189.133.382.2.574s.151.468.222.7h0a48.3,48.3,0,0,1,1.214,4.848c.37,1.9.663,3.91.867,5.982.222,2.223.346,4.541.376,6.891v.107c.024,2.1-.038,3.676-.08,4.44-.021.509-.041.814-.044.841A.151.151,0,0,1,74.646,278.938Z" transform="translate(-65.819 -233.997)" fill="#407bff"/>
    <path id="Path_4113" data-name="Path 4113" d="M71.05,235.451h0a4.36,4.36,0,0,1,1.856-1.072" transform="translate(-66.944 -231.876)" fill="#407bff"/>
    <path id="Path_4114" data-name="Path 4114" d="M70.7,235.222a.193.193,0,0,1-.059,0,.151.151,0,0,1-.077-.2.16.16,0,0,1,.03-.047.035.035,0,0,0,0-.015h0a4.634,4.634,0,0,1,.85-.648,4.55,4.55,0,0,1,1.072-.459.153.153,0,0,1,.08.3,4.2,4.2,0,0,0-1,.429,4.484,4.484,0,0,0-.793.592h0A.145.145,0,0,1,70.7,235.222Z" transform="translate(-66.592 -231.505)" fill="#407bff"/>
    <path id="Path_4115" data-name="Path 4115" d="M67.33,244.666a.151.151,0,0,1-.095-.035l-1-.829a.154.154,0,0,1-.021-.21.151.151,0,0,1,.21-.021l1,.832a.148.148,0,0,1,.021.21A.157.157,0,0,1,67.33,244.666Z" transform="translate(-63.516 -238.324)" fill="#407bff"/>
    <path id="Path_4116" data-name="Path 4116" d="M75.771,284.542a.16.16,0,0,1-.151-.154h0a3.7,3.7,0,0,1,.2-.811,3.965,3.965,0,0,1,.551-1.036,3.872,3.872,0,0,1,.592-.648.149.149,0,1,1,.2.225,3.674,3.674,0,0,0-.556.592,3.606,3.606,0,0,0-.5.965,3.778,3.778,0,0,0-.186.725.136.136,0,0,1-.142.142Z" transform="translate(-70.161 -265.3)" fill="#407bff"/>
    <path id="Path_4117" data-name="Path 4117" d="M75.031,295.849a.151.151,0,0,1-.136-.089,2.513,2.513,0,0,0-1.48-1.341.148.148,0,1,1,.092-.281,2.8,2.8,0,0,1,1.661,1.5.145.145,0,0,1-.074.2.158.158,0,0,1-.062.015Z" transform="translate(-68.533 -273.94)" fill="#407bff"/>
    <path id="Path_4118" data-name="Path 4118" d="M84.6,337.279a8.72,8.72,0,0,1-.814-2.631c-.041-.189-.074-.349-.1-.468" transform="translate(-75.842 -302.136)" fill="#407bff"/>
    <path id="Path_4119" data-name="Path 4119" d="M84.25,337.072a.154.154,0,0,1-.112-.05,8.138,8.138,0,0,1-.85-2.7c-.038-.187-.071-.346-.1-.462a.152.152,0,1,1,.3-.068c.03.115.062.278.1.471a9.039,9.039,0,0,0,.778,2.563.151.151,0,0,1-.11.249Z" transform="translate(-75.488 -301.778)" fill="#407bff"/>
    <path id="Path_4120" data-name="Path 4120" d="M73.057,261.241a.148.148,0,0,1-.151-.139c-.018-.243-.4-5.973,2.765-8.267a.148.148,0,0,1,.207.036.145.145,0,0,1-.033.207c-3.028,2.193-2.646,7.945-2.64,7.992a.148.148,0,0,1-.139.16Z" transform="translate(-68.234 -244.849)" fill="#407bff"/>
    <path id="Path_4121" data-name="Path 4121" d="M74.28,317.771c-.361,1.388,2.7,3.866,2.7,3.866s3.886-.66,4.248-2.048a3.606,3.606,0,0,0-6.95-1.817Z" transform="translate(-69.197 -288.912)" fill="#407bff"/>
    <path id="Path_4122" data-name="Path 4122" d="M60.456,258.086c.438,1.439,3.277,2.347,3.277,2.347s1.85-2.338,1.412-3.777-2.054-2.96-3.348-2.578S60.017,256.647,60.456,258.086Z" transform="translate(-59.374 -245.702)" fill="#407bff"/>
    <path id="Path_4123" data-name="Path 4123" d="M79.843,273.733a3.667,3.667,0,0,1-1.184.731,1.27,1.27,0,0,1-1.291-.246,1.55,1.55,0,0,1-.11-1.622c.423-1.054,2.072-2.883,3.425-2.439C82.649,270.8,80.671,273.062,79.843,273.733Z" transform="translate(-71.193 -257.016)" fill="#407bff"/>
    <path id="Path_4124" data-name="Path 4124" d="M66.525,288.261c.263.3.548.681.426,1.066a.8.8,0,0,1-.864.471,2.339,2.339,0,0,1-.968-.423c-.7-.438-2.128-1.365-1.285-2.327S65.966,287.628,66.525,288.261Z" transform="translate(-61.682 -268.738)" fill="#407bff"/>
    <path id="Path_4125" data-name="Path 4125" d="M83.64,246.692a.69.69,0,0,1,.654.485c.074.332-.192.636-.453.858-.648.548-2.608,2.034-3.117.7C80.242,247.486,82.743,246.63,83.64,246.692Z" transform="translate(-73.712 -240.542)" fill="#407bff"/>
    <path id="Path_4126" data-name="Path 4126" d="M74.41,231.928c.417.021.826-.148,1.246-.139s.888.323.823.737-.533.527-.921.568a7.474,7.474,0,0,1-1.974-.059.61.61,0,0,1-.408-.184c-.181-.243.074-.592.358-.687a3.677,3.677,0,0,0,.864-.249Z" transform="translate(-68.398 -230.052)" fill="#407bff"/>
    <path id="Path_4127" data-name="Path 4127" d="M59.241,242.279c-.417.033-.832-.13-1.249-.112s-.888.343-.805.755.542.515.929.548a7.487,7.487,0,0,0,1.974-.092.592.592,0,0,0,.4-.192c.175-.246-.086-.592-.37-.681a3.874,3.874,0,0,1-.87-.225Z" transform="translate(-57.178 -237.357)" fill="#407bff"/>
    <g id="Group_270" data-name="Group 270" transform="translate(0 1.737)" opacity="0.2">
      <path id="Path_4128" data-name="Path 4128" d="M74.28,317.771c-.361,1.388,2.7,3.866,2.7,3.866s3.886-.66,4.248-2.048a3.606,3.606,0,0,0-6.95-1.817Z" transform="translate(-69.197 -290.649)"/>
      <path id="Path_4129" data-name="Path 4129" d="M60.456,258.086c.438,1.439,3.277,2.347,3.277,2.347s1.85-2.338,1.412-3.777-2.054-2.96-3.348-2.578S60.017,256.647,60.456,258.086Z" transform="translate(-59.374 -247.439)"/>
      <path id="Path_4130" data-name="Path 4130" d="M79.843,273.733a3.667,3.667,0,0,1-1.184.731,1.27,1.27,0,0,1-1.291-.246,1.55,1.55,0,0,1-.11-1.622c.423-1.054,2.072-2.883,3.425-2.439C82.649,270.8,80.671,273.062,79.843,273.733Z" transform="translate(-71.193 -258.753)"/>
      <path id="Path_4131" data-name="Path 4131" d="M66.525,288.261c.263.3.548.681.426,1.066a.8.8,0,0,1-.864.471,2.339,2.339,0,0,1-.968-.423c-.7-.438-2.128-1.365-1.285-2.327S65.966,287.628,66.525,288.261Z" transform="translate(-61.682 -270.474)"/>
      <path id="Path_4132" data-name="Path 4132" d="M83.64,246.692a.69.69,0,0,1,.654.485c.074.332-.192.636-.453.858-.648.548-2.608,2.034-3.117.7C80.242,247.486,82.743,246.63,83.64,246.692Z" transform="translate(-73.712 -242.279)"/>
      <path id="Path_4133" data-name="Path 4133" d="M74.41,231.928c.417.021.826-.148,1.246-.139s.888.323.823.737-.533.527-.921.568a7.474,7.474,0,0,1-1.974-.059.61.61,0,0,1-.408-.184c-.181-.243.074-.592.358-.687a3.677,3.677,0,0,0,.864-.249Z" transform="translate(-68.398 -231.789)"/>
      <path id="Path_4134" data-name="Path 4134" d="M59.241,242.279c-.417.033-.832-.13-1.249-.112s-.888.343-.805.755.542.515.929.548a7.487,7.487,0,0,0,1.974-.092.592.592,0,0,0,.4-.192c.175-.246-.086-.592-.37-.681a3.874,3.874,0,0,1-.87-.225Z" transform="translate(-57.178 -239.094)"/>
    </g>
    <path id="Path_4135" data-name="Path 4135" d="M69.641,234.882h0a.148.148,0,0,1-.136-.16c.056-.814-.033-1.6-.184-1.64a.154.154,0,0,1-.1-.186.151.151,0,0,1,.186-.1c.471.139.435,1.409.4,1.948a.148.148,0,0,1-.16.139Z" transform="translate(-65.65 -230.757)" fill="#407bff"/>
    <path id="Path_4136" data-name="Path 4136" d="M66.215,228.636a3.6,3.6,0,0,0-.041-1.844,1.1,1.1,0,1,0-1.88.965,3.586,3.586,0,0,0,1.666,1.2l.181-.249Z" transform="translate(-62.043 -225.922)" fill="#407bff"/>
    <g id="Group_271" data-name="Group 271" transform="translate(2.046 0)" opacity="0.2">
      <path id="Path_4137" data-name="Path 4137" d="M66.215,228.636a3.6,3.6,0,0,0-.041-1.844,1.1,1.1,0,1,0-1.88.965,3.586,3.586,0,0,0,1.666,1.2l.181-.249Z" transform="translate(-64.089 -225.922)"/>
    </g>
    <path id="Path_4138" data-name="Path 4138" d="M87.717,362.868c0,.024-.11.136.317.166,1.048.065,2.9.047,3.567-.844.956-1.27-1.332-1.208-1.131-1.918s2.664-.062,3.132-1.069-1.335-.855-1.267-1.376,1.965.2,2.551-.861-1.036-.53-.784-.971,2.282-2.253,1.427-2.691-2.756,1.459-3.4,1.652-.844-1.72-1.675-1.1-.186,3.516-1.166,3.848c-.728.249-.358-.776-1.264-.758C86.793,356.966,86.506,361,87.717,362.868Z" transform="translate(-78.132 -315.554)" fill="#407bff"/>
    <g id="Group_272" data-name="Group 272" transform="translate(8.81 37.685)" opacity="0.3">
      <path id="Path_4139" data-name="Path 4139" d="M87.717,362.868c0,.024-.11.136.317.166,1.048.065,2.9.047,3.567-.844.956-1.27-1.332-1.208-1.131-1.918s2.664-.062,3.132-1.069-1.335-.855-1.267-1.376,1.965.2,2.551-.861-1.036-.53-.784-.971,2.282-2.253,1.427-2.691-2.756,1.459-3.4,1.652-.844-1.72-1.675-1.1-.186,3.516-1.166,3.848c-.728.249-.358-.776-1.264-.758C86.793,356.966,86.506,361,87.717,362.868Z" transform="translate(-86.942 -353.239)"/>
    </g>
    <path id="Path_4140" data-name="Path 4140" d="M92.789,361.351a3.871,3.871,0,0,0-1.08-.042,5.279,5.279,0,0,1,.527-.482.151.151,0,1,0-.181-.24,7.811,7.811,0,0,0-.858.838.121.121,0,0,0-.053.062c-.124.139-.255.3-.391.465a6.429,6.429,0,0,1,.968-3.075.148.148,0,0,0-.038-.207.151.151,0,0,0-.207.038,6.527,6.527,0,0,0-1.018,3.638,13.255,13.255,0,0,0-1.018,1.664h0a.139.139,0,0,0-.036.068c-.133.263-.263.545-.391.838a4.979,4.979,0,0,1-.166-2.016.148.148,0,0,0-.13-.163.145.145,0,0,0-.166.127,5.005,5.005,0,0,0,.3,2.469,16.021,16.021,0,0,0-.852,2.916.151.151,0,0,0,.118.175h.03a.148.148,0,0,0,.145-.121,15.036,15.036,0,0,1,1.379-4.108,1.811,1.811,0,0,1,1.729-.4.155.155,0,0,0,.089-.3,1.992,1.992,0,0,0-1.518.127,11.605,11.605,0,0,1,1.4-1.965,3.14,3.14,0,0,1,1.365-.03.15.15,0,1,0,.05-.3Z" transform="translate(-78.871 -319.359)" opacity="0.2"/>
    <path id="Path_4141" data-name="Path 4141" d="M72.822,369.6a4.245,4.245,0,0,1-2.8-1.35c-.574-.707.986-.326.8-.888s-2.072-.062-2.466-.888,1-.687.924-1.11-1.5-.275-2-1.143.781-.426.568-.784S66,361.6,66.645,361.246s2.19,1.184,2.694,1.356.568-.962,1.234-.459.3,2.853,1.06,3.129c.574.2.3-.852.947-.61C73.749,365.076,73.157,369.578,72.822,369.6Z" transform="translate(-63.738 -321.154)" fill="#407bff"/>
    <g id="Group_273" data-name="Group 273" transform="translate(2.758 40.04)" opacity="0.2">
      <path id="Path_4142" data-name="Path 4142" d="M72.822,369.6a4.245,4.245,0,0,1-2.8-1.35c-.574-.707.986-.326.8-.888s-2.072-.062-2.466-.888,1-.687.924-1.11-1.5-.275-2-1.143.781-.426.568-.784S66,361.6,66.645,361.246s2.19,1.184,2.694,1.356.568-.962,1.234-.459.3,2.853,1.06,3.129c.574.2.3-.852.947-.61C73.749,365.076,73.157,369.578,72.822,369.6Z" transform="translate(-66.496 -361.193)"/>
    </g>
    <path id="Path_4143" data-name="Path 4143" d="M77.64,373.072a15.179,15.179,0,0,0-.592-1.776v-.018a4.36,4.36,0,0,0,.275-2.238.149.149,0,0,0-.3.036,4.319,4.319,0,0,1-.163,1.829q-.3-.669-.619-1.267a.145.145,0,0,0-.041-.142.32.32,0,0,0-.065-.053c-.169-.3-.337-.592-.509-.852a5.7,5.7,0,0,0-.915-3.2.145.145,0,0,0-.2-.036.148.148,0,0,0-.038.207,5.624,5.624,0,0,1,.852,2.566A14.991,14.991,0,0,0,73.31,365.7a.148.148,0,1,0-.21.207,14.147,14.147,0,0,1,1.539,1.758,4.328,4.328,0,0,0-1.48-.178.154.154,0,0,0-.139.157.151.151,0,0,0,.16.139,4.059,4.059,0,0,1,1.622.246h.08a.044.044,0,0,0,.021,0c.237.334.482.707.725,1.11a1.886,1.886,0,0,0-1.255-.036.149.149,0,0,0,.089.284,1.622,1.622,0,0,1,1.447.237,15.249,15.249,0,0,1,1.427,3.5.148.148,0,0,0,.142.109h.038A.151.151,0,0,0,77.64,373.072Z" transform="translate(-68.331 -324.064)" opacity="0.2"/>
    <path id="Path_4144" data-name="Path 4144" d="M80.663,387.937c0,3.075,1.359,5.568-5.568,5.568-6.157,0-5.571-2.492-5.571-5.568S72.023,384,75.095,384,80.663,384.858,80.663,387.937Z" transform="translate(-65.859 -337.21)" fill="#263238"/>
    <rect id="Rectangle_335" data-name="Rectangle 335" width="12.331" height="3.052" transform="translate(3.079 46.719)" fill="#263238"/>
    <rect id="Rectangle_336" data-name="Rectangle 336" width="12.331" height="3.052" transform="translate(3.079 46.719)" fill="#fff" opacity="0.2"/>
  </g>
</svg>
