<svg xmlns="http://www.w3.org/2000/svg" width="143.63" height="143.63" viewBox="0 0 143.63 143.63">
  <g id="Destination-bro" transform="translate(0.714 0.714)">
    <g id="freepik--background-simple--inject-1--inject-3" transform="translate(9.879 12.649)">
      <path id="Path_3557" data-name="Path 3557" d="M171.9,95.085q-2.751-1.272-5.567-2.342c-13.076-4.93-28.71-2.125-40.17,6.036-6.061,4.317-10.282,10.1-13.428,17.115-3.2,7.138-5.421,14.836-10,21.156-4.477,6.19-10.75,11.084-13.274,18.7-5.487,16.645,3.9,39.373,21.478,40.949,12.4,1.114,17,8.714,29.994,12.549s25.813,3.381,40.66-8.074c6-4.621,11.248-10.712,13.534-18.411,2.059-6.928.157-14.165.446-21.239.366-8.729,6.01-15.271,9.031-22.981,4.484-11.435-1.781-21.492-9.982-28.594A98.3,98.3,0,0,0,171.9,95.085Z" transform="translate(-87.897 -90.303)" fill="#92e3a9"/>
      <path id="Path_3558" data-name="Path 3558" d="M171.9,95.085q-2.751-1.272-5.567-2.342c-13.076-4.93-28.71-2.125-40.17,6.036-6.061,4.317-10.282,10.1-13.428,17.115-3.2,7.138-5.421,14.836-10,21.156-4.477,6.19-10.75,11.084-13.274,18.7-5.487,16.645,3.9,39.373,21.478,40.949,12.4,1.114,17,8.714,29.994,12.549s25.813,3.381,40.66-8.074c6-4.621,11.248-10.712,13.534-18.411,2.059-6.928.157-14.165.446-21.239.366-8.729,6.01-15.271,9.031-22.981,4.484-11.435-1.781-21.492-9.982-28.594A98.3,98.3,0,0,0,171.9,95.085Z" transform="translate(-87.897 -90.303)" fill="#fff" opacity="0.7"/>
    </g>
    <g id="freepik--Shadow--inject-1--inject-3" transform="translate(49.274 128.927)">
      <ellipse id="Ellipse_1874" data-name="Ellipse 1874" cx="21.826" cy="4.878" rx="21.826" ry="4.878" fill="#263238"/>
    </g>
    <g id="freepik--Globe--inject-1--inject-3">
      <path id="Path_4511" data-name="Path 4511" d="M52.205.038C79.951-1.028,101.579,20.6,100.513,48.346s-24.422,51.1-52.167,52.167S-1.028,79.951.038,52.205,24.46,1.1,52.205.038Z" transform="translate(0 71.101) rotate(-45)" fill="#fff" stroke="#263238" stroke-width="1"/>
      <path id="Path_3559" data-name="Path 3559" d="M171.5,280.682c-25.683,0-46.878-21.7-48.242-49.4-.044.915-.07,1.839-.07,2.763,0,28.813,21.628,52.171,48.31,52.171s48.312-23.358,48.312-52.171q0-1.394-.068-2.765C218.381,258.978,197.187,280.682,171.5,280.682Z" transform="translate(-100.402 -162.946)" fill="#263238" stroke="#263238" stroke-miterlimit="10" stroke-width="1"/>
      <path id="Path_3560" data-name="Path 3560" d="M248.01,177.887l1.375,1.979,3.1,1.24.688,2.6-1.95.865v.5l3.438,1.485,1.606-.371.8-1.363-.227-2.354-2.067-.865-1.258-2.228-4.587-2.232Z" transform="translate(-179.565 -130.191)" fill="#92e3a9" stroke="#263238" stroke-miterlimit="10" stroke-width="1"/>
      <path id="Path_3561" data-name="Path 3561" d="M233.691,221.848l-3.658-1.608-4.473-1.734h-3.552l-3.325-.743-3.658.865-2.067.126H211.7l-2.41,1.485-2.293.987-3.12-2.117.8-3.468-1.946-.869h-2.293l-.344-1.114.227-2.228-.8-1.236-1.606.245-.457,1.24-1.95.122-1.719-2.228-.688-2.97,1.719-3.468,3.325.249.918.865h1.375l1.719-1.114,1.489.494,2.059,3.839.8-.122-.23-2.848-.688-1.485.23-2.37,4.243-1.975.571-4.578,1.829-1.612,1.492-2.848,1.145-.245,2.637-1.86.113-.987-1.829.122-.344-.991h-1.262l-1.95.5.918-1.612,4.023-1.236.918-1.118,1.6,2.725,1.035,1.114,1.6-.494-.684-1.619-2.407-1.856-2.751-3.342-2.868-2.105-2.751-.494-1.375-1.473-1.829-.494-.23.494-.227,3.591.457,1.24-1.031,3.95-2.293-1.975.344-1.73-2.407-1.24-1.031-1.363.567-3.077,3.325-2.6.227-2.97-1.262.122-.8-1.114-.344-1.856-.8-.122-.461,1.975-1.262.249-.571-4.345-.918-.62-1.606-.743-1.829.991,2.29,2.37.461,2.105-4.13-3.357-2.864-3.342-.23-3.346-2.981-.988L186,158.068a17.386,17.386,0,0,1-1.719.991,17.686,17.686,0,0,1-2.751.494l-.461,2.105-2.637.122.23,1.363,4.243.743,2.176,2.6v4.345l-1.258,3.835.227,4.088-3.215,6.055-.688,9.038,1.053,5.2,1.489,3.95,1.719.245-.571-1.975-.918-1.485-.574-2.725,1.031-.249,1.606,4.46,1.145,3.95v3.219l2.195,2.848,3.852,3.113,5.962,1.734,1.829,1.856,1.375,1.975,2.067,1.363,2.52.743,2.524-.126s-.113,1.24-.113,1.86-1.606,2.722-1.606,2.722l-1.262,2.477.918,2.725,2.52,1.114,3.555,3.95,1.606.743v1.856l.2.865a46.666,46.666,0,0,0,24.046-12.245l.059-.9,3.1-6.067-1.492-1.114Z" transform="translate(-135.436 -117.679)" fill="#92e3a9" stroke="#263238" stroke-miterlimit="10" stroke-width="1"/>
      <path id="Path_3562" data-name="Path 3562" d="M254.958,142.509l-1.262-2.37-1.606-2.725-.457-3.713,2.063.371.113-1.236-1.489-.126,1.262-.616,1.375-.869v-1.236l-1.375-1.975-.3-2.662c-13.692-18.093-36.852-24.154-56.7-14.836l2.645,2.022-1.606,2.228-2.195.494-.227,3.346-.918.371-1.13,1.355.113,2.228,1.95.249-.8,2.1h1.95l3.318-4.578.344-1.975,3.212-.249.8-1.485,3.325-.371.344-2.105,2.41-.122a11.632,11.632,0,0,1,2.063-.991,13.206,13.206,0,0,1,1.95.62l1.719,1.485h2.407l2.067-1.363,2.634.249a2.727,2.727,0,0,0,1.262.494,9.655,9.655,0,0,0,2.293-.865l3.325,2.228,1.375,1.114v1.86l1.723.245.571-1.114,1.492.743-.117.991-3.438.991,1.95,2.722,4.126,2.477,1.723,2.477,2.52.249.574-1.24.918-.245-2.97-2.473-1.829-.249,1.492-.494-1.379-2.105,1.95-.126,2.524,1.489.574,2.97,1.262,1.608,1.031,3.591,2.52,1.975v4.084l2.637,1.86-.113,1.359-.344,1.612.688,2.228.23,1.114,1.946.371.918-2.105Z" transform="translate(-144.778 -87.261)" fill="#92e3a9" stroke="#263238" stroke-miterlimit="10" stroke-width="1"/>
      <path id="Path_3563" data-name="Path 3563" d="M362.6,166.57v.711l-.571,1.975.344,1.734,1.258.49v2.37l-1.379-.62-.344,6.687-1.375,2.725.918,3.464,1.489,1.485v6.679l1.492,5.2,1.606,3.95,2.637.743.918-2.477.366-.316a57.441,57.441,0,0,0,.366-6.486A54.945,54.945,0,0,0,362.6,166.57Z" transform="translate(-250.928 -123.796)" fill="#92e3a9" stroke="#263238" stroke-miterlimit="10" stroke-width="1"/>
      <path id="Path_3564" data-name="Path 3564" d="M266.343,159.1l-7.568-3.594-3.325.126-.8,2.35-1.375-1.608-2.52.62-.23,4.084,2.063,1.612,1.492-2.354,1.719,1.856,3.552,3.346.691,3.591,2.981,4.084,4.814-.865-.113-1.86-1.031-2.1-.23-4.953,1.145-2.105Z" transform="translate(-181.157 -117.105)" fill="#92e3a9" stroke="#263238" stroke-miterlimit="10" stroke-width="1"/>
      <path id="Path_3565" data-name="Path 3565" d="M305.138,170.744l-1.719-.494-1.489,1.363.8,3.591h1.489Z" transform="translate(-213.763 -126.022)" fill="#92e3a9" stroke="#263238" stroke-miterlimit="10" stroke-width="1"/>
      <path id="Path_3566" data-name="Path 3566" d="M330.108,171.767l-3.9-2.232-.8-1.485-.918.371.8,2.477.688,3.219,1.719.743.344-.494-1.031-1.856,2.981,1.236Z" transform="translate(-228.071 -124.691)" fill="#92e3a9" stroke="#263238" stroke-miterlimit="10" stroke-width="1"/>
      <path id="Path_3567" data-name="Path 3567" d="M247.527,290.62l-.457.494,3.438,1.114,1.379,1.734,2.176.249.8-1.363-2.637-.5Z" transform="translate(-178.969 -198.847)" fill="#92e3a9" stroke="#263238" stroke-miterlimit="10" stroke-width="1"/>
      <path id="Path_3568" data-name="Path 3568" d="M272.047,296.57l-2.407.743.344.991h2.981l.574-.991-1.031.126Z" transform="translate(-193.284 -202.446)" fill="#92e3a9" stroke="#263238" stroke-miterlimit="10" stroke-width="1"/>
    </g>
    <g id="freepik--airplane-1--inject-1--inject-3" transform="translate(24.39 19.896)">
      <path id="Path_3569" data-name="Path 3569" d="M158.131,180.678c-16.877,0-30.561-16.124-30.561-36.012s13.684-36.016,30.561-36.016a25.968,25.968,0,0,1,4.711.427" transform="translate(-127.57 -108.65)" fill="none" stroke="#263238" stroke-miterlimit="10" stroke-width="1" stroke-dasharray="2"/>
      <path id="Path_3570" data-name="Path 3570" d="M192.333,279.441a.708.708,0,0,0,.779-.62h0a.916.916,0,0,0-.655-1.047l-3.621-.833h-.08l-1.181-2.508.578.067a.367.367,0,0,0,.388-.28.4.4,0,0,0-.05-.3.342.342,0,0,0-.236-.159l-1.072-.162-.885-1.888.8.095a.346.346,0,0,0,.366-.3h0a.231.231,0,0,0,.076-.229.212.212,0,0,0-.164-.166l-1.485-.225-.593-1.252a1.644,1.644,0,0,0-1.1-.912l-.366-.091,1.035,4.171s.7,2.674-.337,3.555l-4.148-.557h-.055l-1.258-2.65-.958-.3.337,2.9h-.468a.045.045,0,0,0,0,.083l.476.233-1.309,2.643,1.1.15,1.829-2.022.088.043,3.742.916a1.331,1.331,0,0,1,.691,1.758,63.654,63.654,0,0,1-3.446,5.376h.655a1.636,1.636,0,0,0,1.16-.466l.907-.885,1.233.146a.367.367,0,0,0,.388-.28.4.4,0,0,0-.05-.3.342.342,0,0,0-.236-.159l-.625-.095,1.335-1.3,1.233.146a.367.367,0,0,0,.388-.28.4.4,0,0,0-.05-.3.342.342,0,0,0-.236-.159l-.625-.095,2.03-1.975Z" transform="translate(-159.015 -205.438)" fill="#263238"/>
    </g>
    <g id="freepik--airplane-2--inject-1--inject-3" transform="translate(14.21 43.016)">
      <path id="Path_3571" data-name="Path 3571" d="M110.952,212.239a23.037,23.037,0,0,1-9.166-10.665c-5.179-12.024-.2-26.378,11.116-32.07s24.694-.557,29.877,11.455q.366.853.666,1.718" transform="translate(-99.736 -167.182)" fill="none" stroke="#263238" stroke-miterlimit="10" stroke-width="1" stroke-dasharray="2"/>
      <path id="Path_3572" data-name="Path 3572" d="M209.994,214.579a.7.7,0,0,0,.863.482h0a.928.928,0,0,0,.578-1.1l-.925-3.875-.026-.079,1.555-2.259.2.589a.363.363,0,0,0,.406.249.344.344,0,0,0,.224-.179.394.394,0,0,0,.025-.3l-.34-1.106,1.167-1.7.282.818a.339.339,0,0,0,.421.229h0a.193.193,0,0,0,.23-.024.233.233,0,0,0,.063-.24l-.475-1.54.775-1.126a1.854,1.854,0,0,0,.271-1.462l-.091-.395-3,2.86s-1.906,1.868-3.109,1.264l-1.379-4.266-.022-.055,1.635-2.394-.179-1.059-2.253,1.616-.2-.454a.043.043,0,0,0-.047-.021.046.046,0,0,0-.034.04l.022.561-2.773-.087.366,1.118,2.487.861v.107l.907,4.029c-.022.565-.208,1.45-1.149,1.45a55.46,55.46,0,0,1-5.991-.94l.282.64a1.742,1.742,0,0,0,.9.909l1.138.49.428,1.256a.363.363,0,0,0,.406.249.348.348,0,0,0,.222-.18.4.4,0,0,0,.027-.3l-.2-.648,1.672.715.435,1.264a.363.363,0,0,0,.406.249.344.344,0,0,0,.224-.179.393.393,0,0,0,.025-.3l-.2-.648,2.535,1.086Z" transform="translate(-163.63 -185.773)" fill="#263238"/>
    </g>
    <g id="freepik--airplane-3--inject-1--inject-3" transform="translate(72.341 72.418)">
      <path id="Path_3573" data-name="Path 3573" d="M273,258a35.16,35.16,0,0,1,3.592,7.572c2.454,7.256,2.48,14.615.534,20.394" transform="translate(-267.755 -251.529)" fill="none" stroke="#263238" stroke-miterlimit="10" stroke-width="1" stroke-dasharray="2"/>
      <path id="Path_3574" data-name="Path 3574" d="M261.711,241.986a.674.674,0,0,0-.936-.276h0a.957.957,0,0,0-.366,1.2l1.642,3.587.04.071-1.1,2.556-.311-.529a.352.352,0,0,0-.443-.154.359.359,0,0,0-.185.224.393.393,0,0,0,.031.3l.545,1.007-.823,1.924-.428-.743a.33.33,0,0,0-.454-.13h0a.2.2,0,0,0-.222.074.236.236,0,0,0-.016.25l.757,1.4-.545,1.264a1.859,1.859,0,0,0,0,1.493l.165.375,2.392-3.464s1.511-2.248,2.8-1.924l2.162,3.871.033.047-1.149,2.71.366,1,1.9-2.078.282.395a.04.04,0,0,0,.055.02.046.046,0,0,0,.018-.059l-.128-.545,2.732-.525-.563-1.015-2.6-.292-.026-.107-1.65-3.741c-.084-.561-.07-1.465.852-1.675a55.253,55.253,0,0,1,6.043-.395l-.4-.565a1.693,1.693,0,0,0-1.057-.691l-1.2-.225-.658-1.134a.352.352,0,0,0-.446-.154.36.36,0,0,0-.182.225.393.393,0,0,0,.033.3l.318.593-1.77-.332-.658-1.138a.352.352,0,0,0-.446-.154.411.411,0,0,0-.154.525l.318.592-2.688-.506Z" transform="translate(-258.661 -241.618)" fill="#263238"/>
    </g>
    <g id="freepik--airplane-4--inject-1--inject-3" transform="translate(104.613 40.131)">
      <path id="Path_3575" data-name="Path 3575" d="M393.28,290.872c.077-.1.15-.205.223-.312" transform="translate(-376.312 -238.942)" fill="none" stroke="#263238" stroke-miterlimit="10" stroke-width="1"/>
      <path id="Path_3576" data-name="Path 3576" d="M365.78,211.16c7.166-10.519,8.5-24.549,2.319-35.945A29.555,29.555,0,0,0,348.87,160.34" transform="translate(-348.146 -160.158)" fill="none" stroke="#263238" stroke-miterlimit="10" stroke-width="1" stroke-dasharray="2.002 2.002"/>
      <path id="Path_3577" data-name="Path 3577" d="M347.256,159.959l-.366-.079" transform="translate(-346.89 -159.88)" fill="none" stroke="#263238" stroke-miterlimit="10" stroke-width="1"/>
      <path id="Path_3578" data-name="Path 3578" d="M385.395,273.053a.788.788,0,0,0,.256,1.007h0a.812.812,0,0,0,1.141-.284l2.015-3.357.037-.075,2.59-.292-.263.557a.416.416,0,0,0,.1.49.35.35,0,0,0,.5-.126l.523-1.019,1.946-.221-.366.79a.388.388,0,0,0,.132.486h0a.21.21,0,0,0,.167.152.2.2,0,0,0,.2-.1l.732-1.418,1.291-.146a1.61,1.61,0,0,0,1.181-.79l.216-.348-3.98-.442s-2.56-.253-2.966-1.62l1.975-3.982.022-.055,2.74-.32.6-.861-2.623-.711.179-.466a.046.046,0,0,0-.015-.053.038.038,0,0,0-.051.006l-.366.4L391.478,258l-.519,1.043,1.1,2.56-.07.075-2.132,3.448c-.4.363-1.13.814-1.767.067-.94-1.1-3.416-5.4-3.416-5.4l-.245.656a1.969,1.969,0,0,0,0,1.335l.435,1.232-.567,1.185a.415.415,0,0,0,.106.49.32.32,0,0,0,.273.056.345.345,0,0,0,.221-.183l.307-.6.644,1.813-.567,1.185a.416.416,0,0,0,.106.49.323.323,0,0,0,.273.054.348.348,0,0,0,.221-.181l.307-.6.977,2.765Z" transform="translate(-370.588 -219.243)" fill="#263238"/>
    </g>
    <g id="freepik--airplane-5--inject-1--inject-3" transform="translate(55.727 16.388)">
      <path id="Path_3579" data-name="Path 3579" d="M213.24,104.372a27.458,27.458,0,0,1,15-4.6c20.074,0,36.347,23.186,36.347,51.792,0,16.408-5.355,31.031-13.706,40.523" transform="translate(-213.24 -99.77)" fill="none" stroke="#263238" stroke-miterlimit="10" stroke-width="1" stroke-dasharray="2"/>
      <path id="Path_3580" data-name="Path 3580" d="M293.764,337.378a.8.8,0,0,0,.124,1.039h0a.805.805,0,0,0,1.167-.115l2.425-3.03.044-.067,2.6.095-.333.51a.419.419,0,0,0,.04.506.328.328,0,0,0,.269.093.34.34,0,0,0,.243-.156l.651-.932,1.957.071-.465.715a.388.388,0,0,0,.066.5h0a.217.217,0,0,0,.148.189.2.2,0,0,0,.217-.078l.9-1.3,1.28.039a1.574,1.574,0,0,0,1.269-.589l.252-.312-3.885-1.031s-2.506-.632-2.732-2.042l2.465-3.654.026-.051,2.758.091.7-.762-2.513-1.082.238-.438a.046.046,0,0,0-.005-.061.038.038,0,0,0-.057.006l-.413.34-1.514-2.516-.647.956.761,2.7-.077.063-2.56,3.1a1.137,1.137,0,0,1-1.759-.194c-.79-1.232-2.7-5.854-2.7-5.854l-.326.612a1.948,1.948,0,0,0-.179,1.323l.274,1.284-.713,1.1a.419.419,0,0,0,.044.5.325.325,0,0,0,.263.1.335.335,0,0,0,.242-.148l.366-.545.406,1.888-.713,1.1a.419.419,0,0,0,.044.5.328.328,0,0,0,.263.094.339.339,0,0,0,.242-.146l.366-.549.618,2.876Z" transform="translate(-264.223 -235.043)" fill="#263238"/>
    </g>
    <g id="freepik--Locations--inject-1--inject-3" transform="translate(59.121 11.771)">
      <path id="Path_3581" data-name="Path 3581" d="M226.754,88.08A2.879,2.879,0,0,0,224,91.062c0,1.647,2.762,5.352,2.762,5.352s2.762-3.705,2.762-5.352a3.107,3.107,0,0,0-.811-2.112,2.661,2.661,0,0,0-1.957-.871Zm-.037,4.167a1.228,1.228,0,1,1,1.134-1.224,1.182,1.182,0,0,1-1.134,1.224Z" transform="translate(-223.459 -88.08)" fill="#263238"/>
      <path id="Path_3582" data-name="Path 3582" d="M331.982,123.33a2.878,2.878,0,0,0-2.762,2.982c0,1.647,2.762,5.352,2.762,5.352s2.762-3.705,2.762-5.352a2.878,2.878,0,0,0-2.762-2.982Zm-.037,4.167a1.228,1.228,0,1,1,1.134-1.225,1.182,1.182,0,0,1-1.134,1.225Z" transform="translate(-290.192 -109.406)" fill="#263238"/>
      <path id="Path_3583" data-name="Path 3583" d="M278.982,338.47a2.878,2.878,0,0,0-2.762,2.982c0,1.647,2.762,5.352,2.762,5.352s2.762-3.705,2.762-5.352A2.878,2.878,0,0,0,278.982,338.47Zm-.04,4.159a1.228,1.228,0,1,1,1.138-1.224,1.276,1.276,0,0,1-.333.867A1.093,1.093,0,0,1,278.941,342.629Z" transform="translate(-256.578 -239.567)" fill="#263238"/>
      <path id="Path_3584" data-name="Path 3584" d="M225.282,246.64a2.878,2.878,0,0,0-2.762,2.982c0,1.647,2.762,5.348,2.762,5.348s2.762-3.7,2.762-5.348a2.878,2.878,0,0,0-2.762-2.982Zm-.026,4.167a1.232,1.232,0,1,1,1.138-1.228,1.276,1.276,0,0,1-.332.87A1.093,1.093,0,0,1,225.256,250.807Z" transform="translate(-222.52 -184.009)" fill="#263238"/>
    </g>
  </g>
</svg>
