<svg id="Knowledge-rafiki" xmlns="http://www.w3.org/2000/svg" width="140.324" height="105.729" viewBox="0 0 140.324 105.729">
  <g id="freepik--background-complete--inject-3">
    <rect id="Rectangle_337" data-name="Rectangle 337" width="9.295" height="0.07" transform="translate(116.969 96.4)" fill="#ebebeb"/>
    <rect id="Rectangle_338" data-name="Rectangle 338" width="2.439" height="0.07" transform="translate(90.518 97.163)" fill="#ebebeb"/>
    <rect id="Rectangle_339" data-name="Rectangle 339" width="5.386" height="0.07" transform="translate(111.302 93.796)" fill="#ebebeb"/>
    <rect id="Rectangle_340" data-name="Rectangle 340" width="12.121" height="0.07" transform="translate(14.723 94.267)" fill="#ebebeb"/>
    <rect id="Rectangle_341" data-name="Rectangle 341" width="1.777" height="0.07" transform="translate(29.345 94.267)" fill="#ebebeb"/>
    <rect id="Rectangle_342" data-name="Rectangle 342" width="26.291" height="0.07" transform="translate(36.897 95.451)" fill="#ebebeb"/>
    <path id="Path_4145" data-name="Path 4145" d="M94,134.367H39.81a1.6,1.6,0,0,1-1.6-1.6V56.588A1.6,1.6,0,0,1,39.81,55H94a1.6,1.6,0,0,1,1.6,1.6v76.162A1.6,1.6,0,0,1,94,134.367ZM39.81,55.056a1.532,1.532,0,0,0-1.53,1.532v76.176a1.532,1.532,0,0,0,1.53,1.532H94a1.535,1.535,0,0,0,1.532-1.532V56.588A1.535,1.535,0,0,0,94,55.056Z" transform="translate(-27.486 -55)" fill="#ebebeb"/>
    <path id="Path_4146" data-name="Path 4146" d="M310.3,134.367H256.1a1.605,1.605,0,0,1-1.6-1.6V56.588A1.605,1.605,0,0,1,256.1,55H310.3a1.6,1.6,0,0,1,1.6,1.588v76.176A1.6,1.6,0,0,1,310.3,134.367ZM256.1,55.056a1.535,1.535,0,0,0-1.532,1.532v76.176A1.535,1.535,0,0,0,256.1,134.3H310.3a1.535,1.535,0,0,0,1.532-1.532V56.588a1.535,1.535,0,0,0-1.532-1.532Z" transform="translate(-183.075 -55)" fill="#ebebeb"/>
    <rect id="Rectangle_343" data-name="Rectangle 343" width="140.324" height="0.07" transform="translate(0 91.884)" fill="#ebebeb"/>
    <rect id="Rectangle_344" data-name="Rectangle 344" width="36.176" height="79.99" transform="translate(85.977 11.175)" fill="#e0e0e0"/>
    <path id="Path_4147" data-name="Path 4147" d="M435.25,92.32v81.388h6.665V92.32Z" transform="translate(-313.098 -81.846)" fill="#e6e6e6"/>
    <path id="Path_4148" data-name="Path 4148" d="M283.75,92.32v81.388h6.663V92.32Z" transform="translate(-204.116 -81.846)" fill="#e6e6e6"/>
    <path id="Path_4149" data-name="Path 4149" d="M279.71,92.32v81.388h44.452V92.32Zm42.852,1.4v14.594H281.307V93.723Zm-41.255,46.588V125.717h41.255v14.594Zm41.255,1.4v14.594H281.307V141.714Zm-41.255-17.4V109.72h41.255v14.594Zm0,47.991V157.711h41.255V172.3Z" transform="translate(-201.21 -81.846)" fill="#f5f5f5"/>
    <rect id="Rectangle_345" data-name="Rectangle 345" width="1.538" height="11.324" transform="translate(108.479 26.605) rotate(180)" fill="#e6e6e6"/>
    <rect id="Rectangle_346" data-name="Rectangle 346" width="1.538" height="11.324" transform="translate(110.017 26.605) rotate(180)" fill="#e0e0e0"/>
    <rect id="Rectangle_347" data-name="Rectangle 347" width="3.076" height="10.53" transform="translate(106.941 26.605) rotate(180)" fill="#e6e6e6"/>
    <rect id="Rectangle_348" data-name="Rectangle 348" width="1.987" height="11.324" transform="translate(102.33 26.605) rotate(180)" fill="#f0f0f0"/>
    <rect id="Rectangle_349" data-name="Rectangle 349" width="1.538" height="11.324" transform="translate(103.868 26.605) rotate(180)" fill="#ebebeb"/>
    <rect id="Rectangle_350" data-name="Rectangle 350" width="1.987" height="11.324" transform="translate(90.666 26.605) rotate(180)" fill="#e6e6e6"/>
    <rect id="Rectangle_351" data-name="Rectangle 351" width="1.538" height="11.324" transform="translate(92.204 26.605) rotate(180)" fill="#ebebeb"/>
    <rect id="Rectangle_352" data-name="Rectangle 352" width="1.987" height="11.324" transform="translate(97.264 26.605) rotate(180)" fill="#e6e6e6"/>
    <rect id="Rectangle_353" data-name="Rectangle 353" width="1.538" height="11.324" transform="translate(98.802 26.605) rotate(180)" fill="#e0e0e0"/>
    <rect id="Rectangle_354" data-name="Rectangle 354" width="3.076" height="11.058" transform="translate(88.679 26.605) rotate(180)" fill="#ebebeb"/>
    <rect id="Rectangle_355" data-name="Rectangle 355" width="1.538" height="11.058" transform="translate(85.606 26.605) rotate(180)" fill="#e0e0e0"/>
    <rect id="Rectangle_356" data-name="Rectangle 356" width="2.049" height="11.058" transform="translate(95.28 26.605) rotate(180)" fill="#e0e0e0"/>
    <rect id="Rectangle_357" data-name="Rectangle 357" width="1.024" height="11.058" transform="translate(93.229 26.605) rotate(180)" fill="#f0f0f0"/>
    <rect id="Rectangle_358" data-name="Rectangle 358" width="3.076" height="10.53" transform="translate(100.34 26.605) rotate(180)" fill="#f5f5f5"/>
    <rect id="Rectangle_359" data-name="Rectangle 359" width="1.987" height="11.324" transform="translate(116.618 26.605) rotate(180)" fill="#ebebeb"/>
    <rect id="Rectangle_360" data-name="Rectangle 360" width="1.538" height="11.324" transform="translate(118.156 26.605) rotate(180)" fill="#e6e6e6"/>
    <rect id="Rectangle_361" data-name="Rectangle 361" width="3.076" height="11.058" transform="translate(114.628 26.605) rotate(180)" fill="#e0e0e0"/>
    <rect id="Rectangle_362" data-name="Rectangle 362" width="1.538" height="11.058" transform="translate(111.552 26.605) rotate(180)" fill="#ebebeb"/>
    <rect id="Rectangle_363" data-name="Rectangle 363" width="2.049" height="11.058" transform="translate(121.229 26.605) rotate(180)" fill="#ebebeb"/>
    <rect id="Rectangle_364" data-name="Rectangle 364" width="1.024" height="11.058" transform="translate(119.18 26.605) rotate(180)" fill="#fafafa"/>
    <rect id="Rectangle_365" data-name="Rectangle 365" width="1.538" height="11.324" transform="translate(96.815 31.138)" fill="#e6e6e6"/>
    <rect id="Rectangle_366" data-name="Rectangle 366" width="1.538" height="11.324" transform="translate(95.28 31.138)" fill="#e0e0e0"/>
    <rect id="Rectangle_367" data-name="Rectangle 367" width="3.076" height="10.53" transform="translate(98.353 31.935)" fill="#e6e6e6"/>
    <rect id="Rectangle_368" data-name="Rectangle 368" width="1.987" height="11.324" transform="translate(102.967 31.138)" fill="#f0f0f0"/>
    <rect id="Rectangle_369" data-name="Rectangle 369" width="1.538" height="11.324" transform="translate(101.429 31.138)" fill="#ebebeb"/>
    <rect id="Rectangle_370" data-name="Rectangle 370" width="1.987" height="11.324" transform="translate(114.628 31.138)" fill="#e6e6e6"/>
    <rect id="Rectangle_371" data-name="Rectangle 371" width="1.538" height="11.324" transform="translate(113.09 31.138)" fill="#ebebeb"/>
    <rect id="Rectangle_372" data-name="Rectangle 372" width="1.987" height="11.324" transform="translate(108.03 31.138)" fill="#e6e6e6"/>
    <rect id="Rectangle_373" data-name="Rectangle 373" width="1.538" height="11.324" transform="translate(106.492 31.138)" fill="#e0e0e0"/>
    <rect id="Rectangle_374" data-name="Rectangle 374" width="3.076" height="11.058" transform="translate(116.615 31.407)" fill="#ebebeb"/>
    <rect id="Rectangle_375" data-name="Rectangle 375" width="1.538" height="11.058" transform="translate(119.691 31.407)" fill="#e0e0e0"/>
    <rect id="Rectangle_376" data-name="Rectangle 376" width="2.049" height="11.058" transform="translate(110.017 31.407)" fill="#e0e0e0"/>
    <rect id="Rectangle_377" data-name="Rectangle 377" width="1.024" height="11.058" transform="translate(112.066 31.407)" fill="#f0f0f0"/>
    <rect id="Rectangle_378" data-name="Rectangle 378" width="3.076" height="10.53" transform="translate(104.954 31.935)" fill="#f5f5f5"/>
    <rect id="Rectangle_379" data-name="Rectangle 379" width="1.987" height="11.324" transform="translate(88.679 31.138)" fill="#ebebeb"/>
    <rect id="Rectangle_380" data-name="Rectangle 380" width="1.538" height="11.324" transform="translate(87.141 31.138)" fill="#e6e6e6"/>
    <rect id="Rectangle_381" data-name="Rectangle 381" width="3.076" height="11.058" transform="translate(90.666 31.407)" fill="#e0e0e0"/>
    <rect id="Rectangle_382" data-name="Rectangle 382" width="1.538" height="11.058" transform="translate(93.742 31.407)" fill="#ebebeb"/>
    <rect id="Rectangle_383" data-name="Rectangle 383" width="2.049" height="11.058" transform="translate(84.065 31.407)" fill="#ebebeb"/>
    <rect id="Rectangle_384" data-name="Rectangle 384" width="1.024" height="11.058" transform="translate(86.117 31.407)" fill="#fafafa"/>
    <rect id="Rectangle_385" data-name="Rectangle 385" width="1.538" height="11.324" transform="translate(96.815 47.278)" fill="#e6e6e6"/>
    <rect id="Rectangle_386" data-name="Rectangle 386" width="1.538" height="11.324" transform="translate(95.28 47.278)" fill="#e0e0e0"/>
    <rect id="Rectangle_387" data-name="Rectangle 387" width="3.076" height="10.53" transform="translate(98.353 48.072)" fill="#e6e6e6"/>
    <rect id="Rectangle_388" data-name="Rectangle 388" width="1.987" height="11.324" transform="translate(102.967 47.278)" fill="#f0f0f0"/>
    <rect id="Rectangle_389" data-name="Rectangle 389" width="1.538" height="11.324" transform="translate(101.429 47.278)" fill="#ebebeb"/>
    <rect id="Rectangle_390" data-name="Rectangle 390" width="1.987" height="11.324" transform="translate(114.628 47.278)" fill="#e6e6e6"/>
    <rect id="Rectangle_391" data-name="Rectangle 391" width="1.538" height="11.324" transform="translate(113.09 47.278)" fill="#ebebeb"/>
    <rect id="Rectangle_392" data-name="Rectangle 392" width="1.987" height="11.324" transform="translate(108.03 47.278)" fill="#e6e6e6"/>
    <rect id="Rectangle_393" data-name="Rectangle 393" width="1.538" height="11.324" transform="translate(106.492 47.278)" fill="#e0e0e0"/>
    <rect id="Rectangle_394" data-name="Rectangle 394" width="3.076" height="11.058" transform="translate(116.615 47.545)" fill="#ebebeb"/>
    <rect id="Rectangle_395" data-name="Rectangle 395" width="1.538" height="11.058" transform="translate(119.691 47.545)" fill="#e0e0e0"/>
    <rect id="Rectangle_396" data-name="Rectangle 396" width="2.049" height="11.058" transform="translate(110.017 47.545)" fill="#e0e0e0"/>
    <rect id="Rectangle_397" data-name="Rectangle 397" width="1.024" height="11.058" transform="translate(112.066 47.545)" fill="#f0f0f0"/>
    <rect id="Rectangle_398" data-name="Rectangle 398" width="3.076" height="10.53" transform="translate(104.954 48.072)" fill="#f5f5f5"/>
    <rect id="Rectangle_399" data-name="Rectangle 399" width="1.987" height="11.324" transform="translate(88.679 47.278)" fill="#ebebeb"/>
    <rect id="Rectangle_400" data-name="Rectangle 400" width="1.538" height="11.324" transform="translate(87.141 47.278)" fill="#e6e6e6"/>
    <rect id="Rectangle_401" data-name="Rectangle 401" width="3.076" height="11.058" transform="translate(90.666 47.545)" fill="#e0e0e0"/>
    <rect id="Rectangle_402" data-name="Rectangle 402" width="1.538" height="11.058" transform="translate(93.742 47.545)" fill="#ebebeb"/>
    <rect id="Rectangle_403" data-name="Rectangle 403" width="2.049" height="11.058" transform="translate(84.065 47.545)" fill="#ebebeb"/>
    <rect id="Rectangle_404" data-name="Rectangle 404" width="1.024" height="11.058" transform="translate(86.117 47.545)" fill="#fafafa"/>
    <rect id="Rectangle_405" data-name="Rectangle 405" width="1.538" height="11.324" transform="translate(108.479 74.742) rotate(180)" fill="#e6e6e6"/>
    <rect id="Rectangle_406" data-name="Rectangle 406" width="1.538" height="11.324" transform="translate(110.017 74.742) rotate(180)" fill="#e0e0e0"/>
    <rect id="Rectangle_407" data-name="Rectangle 407" width="3.076" height="10.53" transform="translate(106.941 73.945) rotate(180)" fill="#e6e6e6"/>
    <rect id="Rectangle_408" data-name="Rectangle 408" width="1.987" height="11.324" transform="translate(102.33 74.742) rotate(180)" fill="#f0f0f0"/>
    <rect id="Rectangle_409" data-name="Rectangle 409" width="1.538" height="11.324" transform="translate(103.868 74.742) rotate(180)" fill="#ebebeb"/>
    <rect id="Rectangle_410" data-name="Rectangle 410" width="1.987" height="11.324" transform="translate(90.666 74.742) rotate(180)" fill="#e6e6e6"/>
    <rect id="Rectangle_411" data-name="Rectangle 411" width="1.538" height="11.324" transform="translate(92.204 74.742) rotate(180)" fill="#ebebeb"/>
    <rect id="Rectangle_412" data-name="Rectangle 412" width="1.987" height="11.324" transform="translate(97.264 74.742) rotate(180)" fill="#e6e6e6"/>
    <rect id="Rectangle_413" data-name="Rectangle 413" width="1.538" height="11.324" transform="translate(98.802 74.742) rotate(180)" fill="#e0e0e0"/>
    <rect id="Rectangle_414" data-name="Rectangle 414" width="3.076" height="11.058" transform="translate(88.679 74.473) rotate(180)" fill="#ebebeb"/>
    <rect id="Rectangle_415" data-name="Rectangle 415" width="1.538" height="11.058" transform="translate(85.606 74.473) rotate(180)" fill="#e0e0e0"/>
    <rect id="Rectangle_416" data-name="Rectangle 416" width="2.049" height="11.058" transform="translate(95.28 74.473) rotate(180)" fill="#e0e0e0"/>
    <rect id="Rectangle_417" data-name="Rectangle 417" width="1.024" height="11.058" transform="translate(93.229 74.473) rotate(180)" fill="#f0f0f0"/>
    <rect id="Rectangle_418" data-name="Rectangle 418" width="3.076" height="10.53" transform="translate(100.34 73.945) rotate(180)" fill="#f5f5f5"/>
    <rect id="Rectangle_419" data-name="Rectangle 419" width="1.987" height="11.324" transform="translate(116.618 74.742) rotate(180)" fill="#ebebeb"/>
    <rect id="Rectangle_420" data-name="Rectangle 420" width="1.538" height="11.324" transform="translate(118.156 74.742) rotate(180)" fill="#e6e6e6"/>
    <rect id="Rectangle_421" data-name="Rectangle 421" width="3.076" height="11.058" transform="translate(114.628 74.473) rotate(180)" fill="#e0e0e0"/>
    <rect id="Rectangle_422" data-name="Rectangle 422" width="1.538" height="11.058" transform="translate(111.552 74.473) rotate(180)" fill="#ebebeb"/>
    <rect id="Rectangle_423" data-name="Rectangle 423" width="2.049" height="11.058" transform="translate(121.229 74.473) rotate(180)" fill="#ebebeb"/>
    <rect id="Rectangle_424" data-name="Rectangle 424" width="1.024" height="11.058" transform="translate(119.18 74.473) rotate(180)" fill="#fafafa"/>
    <rect id="Rectangle_425" data-name="Rectangle 425" width="1.538" height="11.324" transform="translate(96.815 79.555)" fill="#e6e6e6"/>
    <rect id="Rectangle_426" data-name="Rectangle 426" width="1.538" height="11.324" transform="translate(95.28 79.555)" fill="#e0e0e0"/>
    <rect id="Rectangle_427" data-name="Rectangle 427" width="3.076" height="10.53" transform="translate(98.353 79.555)" fill="#e6e6e6"/>
    <rect id="Rectangle_428" data-name="Rectangle 428" width="1.987" height="11.324" transform="translate(102.967 79.555)" fill="#f0f0f0"/>
    <rect id="Rectangle_429" data-name="Rectangle 429" width="1.538" height="11.324" transform="translate(101.429 79.555)" fill="#ebebeb"/>
    <rect id="Rectangle_430" data-name="Rectangle 430" width="1.987" height="11.324" transform="translate(114.628 79.555)" fill="#e6e6e6"/>
    <rect id="Rectangle_431" data-name="Rectangle 431" width="1.538" height="11.324" transform="translate(113.09 79.555)" fill="#ebebeb"/>
    <rect id="Rectangle_432" data-name="Rectangle 432" width="1.987" height="11.324" transform="translate(108.03 79.555)" fill="#e6e6e6"/>
    <rect id="Rectangle_433" data-name="Rectangle 433" width="1.538" height="11.324" transform="translate(106.492 79.555)" fill="#e0e0e0"/>
    <rect id="Rectangle_434" data-name="Rectangle 434" width="3.076" height="11.058" transform="translate(116.615 79.555)" fill="#ebebeb"/>
    <rect id="Rectangle_435" data-name="Rectangle 435" width="1.538" height="11.058" transform="translate(119.691 79.555)" fill="#e0e0e0"/>
    <rect id="Rectangle_436" data-name="Rectangle 436" width="2.049" height="11.058" transform="translate(110.017 79.555)" fill="#e0e0e0"/>
    <rect id="Rectangle_437" data-name="Rectangle 437" width="1.024" height="11.058" transform="translate(112.066 79.555)" fill="#f0f0f0"/>
    <rect id="Rectangle_438" data-name="Rectangle 438" width="3.076" height="10.53" transform="translate(104.954 79.555)" fill="#f5f5f5"/>
    <rect id="Rectangle_439" data-name="Rectangle 439" width="1.987" height="11.324" transform="translate(88.679 79.555)" fill="#ebebeb"/>
    <rect id="Rectangle_440" data-name="Rectangle 440" width="1.538" height="11.324" transform="translate(87.141 79.555)" fill="#e6e6e6"/>
    <rect id="Rectangle_441" data-name="Rectangle 441" width="3.076" height="11.058" transform="translate(90.666 79.555)" fill="#e0e0e0"/>
    <rect id="Rectangle_442" data-name="Rectangle 442" width="1.538" height="11.058" transform="translate(93.742 79.555)" fill="#ebebeb"/>
    <rect id="Rectangle_443" data-name="Rectangle 443" width="2.049" height="11.058" transform="translate(84.065 79.555)" fill="#ebebeb"/>
    <rect id="Rectangle_444" data-name="Rectangle 444" width="1.024" height="11.058" transform="translate(86.117 79.555)" fill="#fafafa"/>
    <path id="Path_4150" data-name="Path 4150" d="M86.76,95.149a42.3,42.3,0,0,1,.415,6.685,42.3,42.3,0,0,1-.415,6.685,1.055,1.055,0,0,1,.368.244,1.11,1.11,0,0,1-1.569,1.572c-.093-.093-.1-.258-.216-.312-.929-.46-2.7.359-4.617.359s-3.688-.82-4.617-.359c-.373.182-.561.637-1,.637s-.626-.455-1-.637c-.929-.457-2.7.359-4.617.359s-3.688-.817-4.619-.359c-.109.053-.121.219-.213.312a1.111,1.111,0,1,1-1.572-1.572c.109-.109.3-.118.37-.244.651-1.19-.418-3.825-.418-6.685s1.069-5.5.418-6.685c-.07-.129-.261-.138-.37-.244a1.111,1.111,0,1,1,1.572-1.572c.093.093.1.255.213.312.932.46,2.705-.356,4.619-.356s3.688.817,4.617.359c.373-.185.561-.637,1-.637s.629.452,1,.637c.929.457,2.7-.359,4.617-.359s3.688.817,4.617.359c.112-.056.123-.219.216-.312a1.11,1.11,0,1,1,1.569,1.572A1.137,1.137,0,0,1,86.76,95.149Z" transform="translate(-45.187 -82.343)" fill="#e0e0e0"/>
    <path id="Path_4151" data-name="Path 4151" d="M84.954,93.339a42.253,42.253,0,0,1,.418,6.685,42.294,42.294,0,0,1-.418,6.688,1.092,1.092,0,0,1,.37.244,1.11,1.11,0,0,1-1.572,1.569c-.093-.093-.1-.255-.213-.309-.929-.46-2.7.356-4.617.356s-3.688-.817-4.617-.356c-.373.182-.561.634-1,.634s-.629-.452-1-.634c-.932-.46-2.705.356-4.619.356s-3.688-.817-4.617-.356c-.112.053-.121.216-.213.309a1.11,1.11,0,0,1-1.572-1.569c.109-.109.3-.118.37-.244.651-1.19-.418-3.828-.418-6.688s1.069-5.5.418-6.685c-.07-.126-.261-.135-.37-.244a1.11,1.11,0,0,1,1.572-1.569c.093.093.1.255.213.309.929.46,2.7-.356,4.617-.356s3.688.817,4.619.356c.37-.182.561-.634,1-.634s.629.452,1,.634c.929.46,2.7-.356,4.617-.356s3.7.817,4.617.356c.112-.053.121-.216.213-.309a1.11,1.11,0,0,1,1.572,1.569A1.092,1.092,0,0,1,84.954,93.339Z" transform="translate(-43.89 -81.041)" fill="#fafafa"/>
    <rect id="Rectangle_445" data-name="Rectangle 445" width="13.381" height="19.943" transform="translate(39.386 12.292) rotate(90)" fill="#ebebeb"/>
    <rect id="Rectangle_446" data-name="Rectangle 446" width="11.535" height="17.193" transform="translate(38.008 13.216) rotate(90)" fill="#f5f5f5"/>
    <circle id="Ellipse_1884" data-name="Ellipse 1884" cx="2.315" cy="2.315" r="2.315" transform="translate(23.766 17.772) rotate(-13.28)" fill="#e0e0e0"/>
    <path id="Path_4152" data-name="Path 4152" d="M116.28,116.2l-4.05,3.385,4.05,1.243Z" transform="translate(-80.733 -99.024)" fill="#ebebeb"/>
    <path id="Path_4153" data-name="Path 4153" d="M83.95,108.431c2.638-1.619,5.91-.449,8.06,1.389.331.281-.146.758-.477.477-1.92-1.642-4.878-2.736-7.244-1.285-.37.227-.71-.356-.34-.581Z" transform="translate(-60.274 -92.883)" fill="#ebebeb"/>
    <path id="Path_4154" data-name="Path 4154" d="M78.08,131.5l1.266-1.238L80.4,131.5l-1.162,1.125Z" transform="translate(-56.167 -109.138)" fill="#ebebeb"/>
    <path id="Path_4155" data-name="Path 4155" d="M73.783,221.22a41.669,41.669,0,0,1,.814,11.465,71.617,71.617,0,0,1-1.457,8.835s6.056-.7,13.19-.937a82.457,82.457,0,0,1,17.47,1.294l4.858.486s-3-12.966-.519-20.852Z" transform="translate(-52.613 -174.571)" fill="#fafafa"/>
    <path id="Path_4156" data-name="Path 4156" d="M106.292,219.078,68.8,218.954v-3.129l37.349-.595Z" transform="translate(-49.491 -170.262)" fill="#ebebeb"/>
    <path id="Path_4157" data-name="Path 4157" d="M97.742,185.746l-.2-.18,10.513-11.756a.94.94,0,0,1,1.386-.014l10.541,11.321-.2.185-10.55-11.321a.685.685,0,0,0-.5-.213.676.676,0,0,0-.491.222Z" transform="translate(-70.166 -140.242)" fill="#f5f5f5"/>
    <path id="Path_4158" data-name="Path 4158" d="M137,174.308a.328.328,0,1,1-.1-.233A.331.331,0,0,1,137,174.308Z" transform="translate(-98.076 -140.588)" fill="#e0e0e0"/>
    <path id="Path_4159" data-name="Path 4159" d="M151.372,238.362a4.538,4.538,0,0,0-1.269,1.327l1.1.974a2.956,2.956,0,0,1,.309-.8.994.994,0,0,1,.679-.483,1.052,1.052,0,0,1,.483.065,3.583,3.583,0,0,1,1.2.842.745.745,0,0,0,.46-1.052,1.583,1.583,0,0,0-1.055-.749,14.692,14.692,0,0,1,1.308-1.336,1.033,1.033,0,0,0-1.353-.393,3.02,3.02,0,0,0-1.123,1.075c.149-.2-.929-1.4-1.151-1.465-.606-.2-1.05.421-1.35.859A6.011,6.011,0,0,1,151.372,238.362Z" transform="translate(-107.622 -185.44)" fill="#ebebeb"/>
    <path id="Path_4160" data-name="Path 4160" d="M94.5,281.075l-.129-.036Zm-.123-.034-.138-.034v-.028Z" transform="translate(-67.792 -217.559)" fill="#e0e0e0"/>
    <path id="Path_4161" data-name="Path 4161" d="M95.3,275.22l-.247-.109c.152-.345.32-.7.5-1.05h0c.084-.163.177-.334.281-.511l.236.132q-.149.261-.281.505l-.121-.062.121.062C95.611,274.518,95.446,274.877,95.3,275.22Z" transform="translate(-68.374 -212.214)" fill="#e0e0e0"/>
    <path id="Path_4162" data-name="Path 4162" d="M100.167,258.708l-.227-.146h0Zm.32-.474-.222-.154c.233-.328.474-.64.716-.923l.1.09-.1-.09c.126-.146.255-.281.393-.432l.194.188c-.132.138-.258.281-.382.421h0C100.95,257.611,100.715,257.914,100.487,258.234Zm13.126-1.965h-.093c-.21,0-.429,0-.657-.022v-.281c.227,0,.443.017.651.02h.087a3.244,3.244,0,0,0,.4-.017h0c.185-.014.373-.039.561-.07l.045.267c-.194.034-.39.059-.584.073v0a1.455,1.455,0,0,1-.41.042Zm-1.336-.056v-.281h.028Zm-9.879-.076-.171-.21h.02Zm8.731-.025c-.188-.022-.382-.045-.575-.073l.017-.132-.017.132c-.384-.05-.769-.112-1.145-.18l.048-.281c.373.07.755.129,1.123.182h0l.561.07Zm4.614-.253-.1-.253h.025Zm-12.882-.059-.149-.227a5.561,5.561,0,0,1,1.044-.547h0a4.9,4.9,0,0,1,.561-.18l.065.261a4.893,4.893,0,0,0-.533.171h0a5.372,5.372,0,0,0-.988.533Zm5.972-.056.048-.264h.022Zm7.454-.157-.14-.233a1.965,1.965,0,0,0,.752-.755h0a1.367,1.367,0,0,0,.146-.5l.281.025a1.684,1.684,0,0,1-.177.6l-.056-.028.056.028a2.245,2.245,0,0,1-.862.876Zm-8.579-.1-.561-.152.036-.132-.036.132-.491-.146a4.793,4.793,0,0,0-.609-.146l.045-.267a4.859,4.859,0,0,1,.643.154l.486.143.561.152Zm-2.226-.5v-.281h.025Z" transform="translate(-71.892 -198.223)" fill="#e0e0e0"/>
    <path id="Path_4163" data-name="Path 4163" d="M160.091,250.134l-.011-.025.258-.079Z" transform="translate(-115.154 -195.295)" fill="#e0e0e0"/>
  </g>
  <g id="freepik--Shadow--inject-3" transform="translate(15.747 98.05)">
    <ellipse id="freepik--path--inject-3" cx="54.415" cy="3.177" rx="54.415" ry="3.177" fill="#f5f5f5"/>
  </g>
  <g id="freepik--Knowledges--inject-3" transform="translate(51.002 0.06)">
    <path id="Path_4164" data-name="Path 4164" d="M218.513,91.529a28.115,28.115,0,0,1-4.064,3.25,6.793,6.793,0,0,0-2.835,4.37c-.216,1.945.822,3.786,1,5.734a7.225,7.225,0,0,1-5.812,7.476c-3.264.544-6.584-1.263-8.784-3.954a9.94,9.94,0,0,1-2.3-5.024c-.379-3.222,1.313-6.393,1.047-9.629-.3-3.648-2.992-6.5-5.739-8.613s-5.823-3.954-7.65-7.033a13.919,13.919,0,0,1-.255-12.652,17.359,17.359,0,0,1,9.042-8.389,28.041,28.041,0,0,1,11.919-1.824,19.749,19.749,0,0,1,7.252,1.4,10.359,10.359,0,0,1,5.414,5.24c1.243,2.893.887,6.174.16,9.354a5.54,5.54,0,0,0,.718,4.238,21.33,21.33,0,0,1,2.346,4.7C221.263,83.957,221.064,88.624,218.513,91.529Z" transform="translate(-181.728 -55.214)" fill="#407bff"/>
    <g id="Group_274" data-name="Group 274" opacity="0.7">
      <path id="Path_4165" data-name="Path 4165" d="M218.513,91.529a28.115,28.115,0,0,1-4.064,3.25,6.793,6.793,0,0,0-2.835,4.37c-.216,1.945.822,3.786,1,5.734a7.225,7.225,0,0,1-5.812,7.476c-3.264.544-6.584-1.263-8.784-3.954a9.94,9.94,0,0,1-2.3-5.024c-.379-3.222,1.313-6.393,1.047-9.629-.3-3.648-2.992-6.5-5.739-8.613s-5.823-3.954-7.65-7.033a13.919,13.919,0,0,1-.255-12.652,17.359,17.359,0,0,1,9.042-8.389,28.041,28.041,0,0,1,11.919-1.824,19.749,19.749,0,0,1,7.252,1.4,10.359,10.359,0,0,1,5.414,5.24c1.243,2.893.887,6.174.16,9.354a5.54,5.54,0,0,0,.718,4.238,21.33,21.33,0,0,1,2.346,4.7C221.263,83.957,221.064,88.624,218.513,91.529Z" transform="translate(-181.728 -55.214)" fill="#fff"/>
    </g>
    <circle id="Ellipse_1885" data-name="Ellipse 1885" cx="7.622" cy="7.622" r="7.622" transform="translate(1.177 6.406)" fill="#407bff"/>
    <g id="Group_275" data-name="Group 275" transform="translate(4.415 6.916)" opacity="0.9">
      <path id="Path_4166" data-name="Path 4166" d="M214.9,79.9l.96.561v.918s-.73-.1-.96-.5c0,0,.2-.084-.365-.421S214.107,79.728,214.9,79.9Z" transform="translate(-209.498 -79.856)" fill="#fff"/>
      <path id="Path_4167" data-name="Path 4167" d="M211.579,106l-.561.281s-.166.32-.132.309-.123.662-.09.674-.32.3-.32.3l-.166.41v.474l.8,1.083.584.331-.508,2.784.21.076,2.649-1.942.177-.477.786-.309.418-1.092.477-.561a2.33,2.33,0,0,0,0-.542,1.655,1.655,0,0,0-.255.087l-.4-.3a5.287,5.287,0,0,0-.884-.109c-.042.045-.174-.514-.174-.514l-.775-.216-.805-.53-.587.109Z" transform="translate(-206.704 -98.663)" fill="#fff"/>
      <path id="Path_4168" data-name="Path 4168" d="M209.053,101.11h.429l.606.32,1.123.281.053.09-1.123-.017.208-.132-.166-.1h-.455l.056-.056-.469-.239s-.295-.07-.3-.036l-.123.014Z" transform="translate(-205.682 -95.145)" fill="#fff"/>
      <path id="Path_4169" data-name="Path 4169" d="M211.9,103.321l-.1-.1-.171.008.07.093Z" transform="translate(-207.646 -96.663)" fill="#fff"/>
      <path id="Path_4170" data-name="Path 4170" d="M221.812,80h-.132l.932.561.149.163.929.533.182.233.149.514.5.4-.233.166.53.662H225l.067-.281-.4-.828.561.309A6.407,6.407,0,0,0,221.812,80Z" transform="translate(-214.883 -79.96)" fill="#fff"/>
      <path id="Path_4171" data-name="Path 4171" d="M234.367,90.064h-.143l-.239-.314-.255.7s.157.811.171.862-.073.166-.073.166l.073.9.182.314.14.761.626.862.505-.724.081.177A7.078,7.078,0,0,0,234.367,90.064Z" transform="translate(-223.551 -86.973)" fill="#fff"/>
      <path id="Path_4172" data-name="Path 4172" d="M222.316,82.59h-.166v.2l.166.1h.149v-.152Z" transform="translate(-215.221 -81.823)" fill="#fff"/>
      <path id="Path_4173" data-name="Path 4173" d="M226.34,84.02l.247.267.067.222.25.241.1-.149.182.149v-.166l-.132-.2Z" transform="translate(-218.235 -82.852)" fill="#fff"/>
      <path id="Path_4174" data-name="Path 4174" d="M203.825,82.82a13.5,13.5,0,0,0-1.591.7.907.907,0,0,0-.362.842l-.7.4.166.761-.166.1-.264-.629a6.408,6.408,0,0,0-1.316-.065c-.387.065-.474.842-.474.842l.233.629.53.034.065-.365.561.034-.365.7.662.1.067.491.662.505s.132.166,0,.23a16.865,16.865,0,0,1-3.578-2.284,3.722,3.722,0,0,1-.382-2.635c.244-.727.693-1.4.842-1.838h0a.187.187,0,0,0,0-.036.261.261,0,0,0-.2-.312c-.115-.034-.331.1-.331.1h-.421l.438-.25.182-.194.118-.1.429-.182-.006-.163a2.4,2.4,0,0,1,.811-.306l-.314.239h.331l.067.376h.662s-.166-.045.233-.264a6.849,6.849,0,0,1,1.69-.326l-.4.561.862.486-.1.365-.595-.166v-.2l-.368-.2-.031.387-.135.166-.166-.132-.474.463.842.8.132-1.041,1.2.264Z" transform="translate(-197.46 -79.895)" fill="#fff"/>
    </g>
    <path id="Path_4175" data-name="Path 4175" d="M294.821,149.174a1.3,1.3,0,0,0-1.336-.149,1.656,1.656,0,0,0-.488,1.384,1.563,1.563,0,0,0-2.054.682,2.113,2.113,0,0,0,.314,2.259,3.348,3.348,0,0,0,2.1,1.095,1.63,1.63,0,0,0,1.8-.707c.317-.474.755-.7,1.092-1.123C297.078,151.563,295.717,149.722,294.821,149.174Z" transform="translate(-260.152 -122.604)" fill="#407bff"/>
    <path id="Path_4176" data-name="Path 4176" d="M295.47,149.751a.538.538,0,0,0,.14-.281c.267.525.6,1,.912,1.5C296.416,150.868,295.394,149.826,295.47,149.751Z" transform="translate(-263.545 -123.017)" fill="#407bff"/>
    <path id="Path_4177" data-name="Path 4177" d="M296.808,147.416a3.583,3.583,0,0,1,.16-.786,1.934,1.934,0,0,1,.441.732.968.968,0,0,1-.163.805C296.932,148.586,296.8,147.6,296.808,147.416Z" transform="translate(-264.511 -120.974)" fill="#407bff"/>
    <path id="Path_4178" data-name="Path 4178" d="M293.176,157.148a.23.23,0,1,0,.261.314.247.247,0,0,0-.233-.323Z" transform="translate(-261.768 -128.535)" fill="#fff"/>
    <path id="Path_4179" data-name="Path 4179" d="M295.268,162.33a.179.179,0,0,0,.115-.02c.059-.039.042-.14-.014-.191a.452.452,0,0,0-.2-.076,1.485,1.485,0,0,1-1.061-.9,2.14,2.14,0,0,0-.14-.342c-.146-.25-.5-.281-.561.031-.056.233.23.561.368.718A2.273,2.273,0,0,0,295.268,162.33Z" transform="translate(-262.055 -131.027)" fill="#fff"/>
    <path id="Path_4180" data-name="Path 4180" d="M275.85,68.286A3.281,3.281,0,1,0,279.131,65,3.281,3.281,0,0,0,275.85,68.286Zm2.734-2.428a.466.466,0,0,1-.334,0c.051.23-.174.432-.387.561-.281.152-.584.213-.643-.034-.036-.146.076-.356.356-.561a.682.682,0,0,1,.544-.121c-.022-.138.1-.281.281-.354a.358.358,0,0,1,.455.135C278.9,65.62,278.786,65.791,278.584,65.859Zm1.594,1.123a.457.457,0,1,1,.03-.467A.457.457,0,0,1,280.178,66.981Zm-1.535,3.747a.351.351,0,1,1,.351.351A.351.351,0,0,1,278.642,70.728Zm-.093-1.2a.4.4,0,0,1,.4-.4h.028a1.482,1.482,0,0,1,1.917-1.684.595.595,0,1,1,.862.738,1.485,1.485,0,0,1-.912,2.1.306.306,0,1,1-.547.051,1.468,1.468,0,0,1-.648-.222,1.489,1.489,0,0,1-.39-.331.393.393,0,0,1-.311.149A.4.4,0,0,1,278.55,69.524Zm-.881-2.338a.3.3,0,0,1,.466-.281.457.457,0,1,1,.124.334.306.306,0,0,1-.264.216A.3.3,0,0,1,277.669,67.186Zm-.435,2.756a.227.227,0,1,1,.227.227A.227.227,0,0,1,277.234,69.942Zm-.443-2.565a.3.3,0,1,1,.326.281A.306.306,0,0,1,276.79,67.377Z" transform="translate(-249.435 -62.253)" fill="#407bff"/>
    <path id="Path_4181" data-name="Path 4181" d="M275.85,68.286A3.281,3.281,0,1,0,279.131,65,3.281,3.281,0,0,0,275.85,68.286Zm2.734-2.428a.466.466,0,0,1-.334,0c.051.23-.174.432-.387.561-.281.152-.584.213-.643-.034-.036-.146.076-.356.356-.561a.682.682,0,0,1,.544-.121c-.022-.138.1-.281.281-.354a.358.358,0,0,1,.455.135C278.9,65.62,278.786,65.791,278.584,65.859Zm1.594,1.123a.457.457,0,1,1,.03-.467A.457.457,0,0,1,280.178,66.981Zm-1.535,3.747a.351.351,0,1,1,.351.351A.351.351,0,0,1,278.642,70.728Zm-.093-1.2a.4.4,0,0,1,.4-.4h.028a1.482,1.482,0,0,1,1.917-1.684.595.595,0,1,1,.862.738,1.485,1.485,0,0,1-.912,2.1.306.306,0,1,1-.547.051,1.468,1.468,0,0,1-.648-.222,1.489,1.489,0,0,1-.39-.331.393.393,0,0,1-.311.149A.4.4,0,0,1,278.55,69.524Zm-.881-2.338a.3.3,0,0,1,.466-.281.457.457,0,1,1,.124.334.306.306,0,0,1-.264.216A.3.3,0,0,1,277.669,67.186Zm-.435,2.756a.227.227,0,1,1,.227.227A.227.227,0,0,1,277.234,69.942Zm-.443-2.565a.3.3,0,1,1,.326.281A.306.306,0,0,1,276.79,67.377Z" transform="translate(-249.435 -62.253)" fill="#407bff"/>
    <path id="Path_4182" data-name="Path 4182" d="M280.78,82.027a.227.227,0,1,0,.227-.227A.227.227,0,0,0,280.78,82.027Z" transform="translate(-252.981 -74.339)" fill="#e6e6e6"/>
    <path id="Path_4183" data-name="Path 4183" d="M280.67,81.941a.261.261,0,1,1,.258.261.258.258,0,0,1-.258-.261Z" transform="translate(-252.902 -74.252)" fill="#407bff"/>
    <path id="Path_4184" data-name="Path 4184" d="M285.68,84.417a.384.384,0,1,1,.384.382A.384.384,0,0,1,285.68,84.417Z" transform="translate(-256.506 -75.943)" fill="#407bff"/>
    <path id="Path_4185" data-name="Path 4185" d="M288.416,70.361a.491.491,0,0,1-.216-.306.5.5,0,0,1,.062-.37.52.52,0,1,1,.415.738A.511.511,0,0,1,288.416,70.361Z" transform="translate(-258.31 -65.456)" fill="#407bff"/>
    <path id="Path_4186" data-name="Path 4186" d="M282.324,71.1a.334.334,0,0,1-.118-.227.32.32,0,0,1,.079-.241.326.326,0,0,1,.225-.121.376.376,0,0,1,.168.031.49.49,0,1,1,.528.561.48.48,0,0,1-.365-.118.331.331,0,0,1-.281.191h-.031A.334.334,0,0,1,282.324,71.1Z" transform="translate(-254.006 -65.934)" fill="#407bff"/>
    <path id="Path_4187" data-name="Path 4187" d="M279.088,72.569h0a.334.334,0,1,1,.359.3h-.028A.334.334,0,0,1,279.088,72.569ZM279.119,72.569Z" transform="translate(-251.764 -67.443)" fill="#407bff"/>
    <g id="Group_276" data-name="Group 276" transform="translate(27.793 5.516)" opacity="0.1">
      <path id="Path_4188" data-name="Path 4188" d="M280.9,76.569h0a.034.034,0,0,0,.02-.042,4.9,4.9,0,0,1-.039-1.622.028.028,0,0,0-.028-.036.031.031,0,0,0-.036.028,4.963,4.963,0,0,0,.042,1.653.031.031,0,0,0,.042.02Z" transform="translate(-280.758 -74.868)" fill="#fff"/>
    </g>
    <path id="Path_4189" data-name="Path 4189" d="M278.477,79.758a.034.034,0,0,0,.025,0,.031.031,0,0,0,0-.045,1.524,1.524,0,0,1-.525-.8.034.034,0,1,0-.062.02,1.579,1.579,0,0,0,.542.822A.025.025,0,0,0,278.477,79.758Z" transform="translate(-250.917 -72.241)" fill="#fff" opacity="0.1"/>
    <path id="Path_4190" data-name="Path 4190" d="M283.687,83.262a.034.034,0,0,0,0-.067,1.768,1.768,0,0,1-.469-.079.034.034,0,1,0-.02.065,2.031,2.031,0,0,0,.486.081Z" transform="translate(-254.704 -75.284)" fill="#fff" opacity="0.1"/>
    <path id="Path_4191" data-name="Path 4191" d="M280.657,84.445a.031.031,0,0,0,.031-.022l.112-.413a.032.032,0,1,0-.062-.017l-.112.41a.034.034,0,0,0,.022.042Z" transform="translate(-252.869 -75.898)" fill="#fff" opacity="0.1"/>
    <path id="Path_4192" data-name="Path 4192" d="M278.137,83.166h0a1.226,1.226,0,0,0,.483-.129.034.034,0,0,0-.028-.059,1.2,1.2,0,0,1-.46.123.034.034,0,0,0-.031.034A.036.036,0,0,0,278.137,83.166Z" transform="translate(-251.053 -75.186)" fill="#fff" opacity="0.1"/>
    <path id="Path_4193" data-name="Path 4193" d="M282.613,78.067a.036.036,0,0,0,.031-.017c.129-.281.609-1.226.612-1.235a.034.034,0,0,0-.014-.045.036.036,0,0,0-.045,0s-.486.957-.615,1.238a.031.031,0,0,0,.017.042Z" transform="translate(-254.275 -70.715)" fill="#fff" opacity="0.1"/>
    <path id="Path_4194" data-name="Path 4194" d="M283.016,84.7a.031.031,0,0,0,.028-.017.034.034,0,0,0,0-.045,2.015,2.015,0,0,1-.718-.724.034.034,0,0,0-.045,0,.037.037,0,0,0,0,.045,2.071,2.071,0,0,0,.741.752Z" transform="translate(-254.055 -75.856)" fill="#fff" opacity="0.1"/>
    <path id="Path_4195" data-name="Path 4195" d="M280.723,67.278a.224.224,0,0,1-.132-.166h0c-.042-.174.1-.4.37-.584a.78.78,0,0,1,.53-.138.421.421,0,0,1,.314-.34.522.522,0,0,1,.306,0,.281.281,0,0,1,.191.168c.053.157-.084.348-.306.421a.511.511,0,0,1-.3,0c0,.281-.306.469-.41.528a1.032,1.032,0,0,1-.432.135A.28.28,0,0,1,280.723,67.278ZM280.625,67.1Z" transform="translate(-252.84 -62.993)" fill="#407bff"/>
    <path id="Path_4196" data-name="Path 4196" d="M287.056,75.659a.317.317,0,0,1,0-.073,1.485,1.485,0,0,1-.626-.222,1.453,1.453,0,0,1-.351-.312.435.435,0,1,1-.334-.735,1.679,1.679,0,0,1-.017-.236,1.51,1.51,0,0,1,1.965-1.448.629.629,0,1,1,.912.789,1.518,1.518,0,0,1-.906,2.1.357.357,0,0,1,.025.132.337.337,0,1,1-.671,0Z" transform="translate(-256.254 -67.479)" fill="#407bff"/>
    <g id="Group_277" data-name="Group 277" transform="translate(29.076 4.785)" opacity="0.1">
      <path id="Path_4197" data-name="Path 4197" d="M287.056,75.659a.317.317,0,0,1,0-.073,1.485,1.485,0,0,1-.626-.222,1.453,1.453,0,0,1-.351-.312.435.435,0,1,1-.334-.735,1.679,1.679,0,0,1-.017-.236,1.51,1.51,0,0,1,1.965-1.448.629.629,0,1,1,.912.789,1.518,1.518,0,0,1-.906,2.1.357.357,0,0,1,.025.132.337.337,0,1,1-.671,0Z" transform="translate(-285.33 -72.265)"/>
    </g>
    <path id="Path_4198" data-name="Path 4198" d="M291.54,78.1a.182.182,0,0,1-.081-.121.191.191,0,0,1,.149-.227.2.2,0,0,1,.227.149.207.207,0,0,1-.028.146.2.2,0,0,1-.121.081h-.042A.174.174,0,0,1,291.54,78.1Z" transform="translate(-260.66 -71.422)" fill="#fff" opacity="0.1"/>
    <g id="Group_278" data-name="Group 278" transform="translate(27.323 3.012)" opacity="0.1">
      <path id="Path_4199" data-name="Path 4199" d="M280.78,81.957a.227.227,0,1,0,.227-.227A.227.227,0,0,0,280.78,81.957Z" transform="translate(-280.304 -77.3)"/>
      <path id="Path_4200" data-name="Path 4200" d="M280.67,81.871a.261.261,0,1,1,.258.261.258.258,0,0,1-.258-.261Z" transform="translate(-280.225 -77.214)"/>
      <path id="Path_4201" data-name="Path 4201" d="M285.68,84.357a.384.384,0,1,1,.384.382.384.384,0,0,1-.384-.382Z" transform="translate(-283.829 -78.911)"/>
      <path id="Path_4202" data-name="Path 4202" d="M288.416,70.293a.48.48,0,0,1-.216-.3.5.5,0,0,1,.062-.37.5.5,0,0,1,.842.522.489.489,0,0,1-.676.152Z" transform="translate(-285.633 -68.42)"/>
      <path id="Path_4203" data-name="Path 4203" d="M282.324,71.058a.342.342,0,0,1-.118-.227.323.323,0,0,1,.079-.244.334.334,0,0,1,.224-.118.339.339,0,0,1,.168.031.488.488,0,1,1,.163.443.337.337,0,0,1-.281.191h-.031A.331.331,0,0,1,282.324,71.058Z" transform="translate(-281.329 -68.923)"/>
      <path id="Path_4204" data-name="Path 4204" d="M279.087,72.486h0a.332.332,0,1,1,.359.3h-.028A.334.334,0,0,1,279.087,72.486ZM279.118,72.486Z" transform="translate(-279.085 -70.391)"/>
      <path id="Path_4205" data-name="Path 4205" d="M280.723,67.2a.236.236,0,0,1-.132-.166h0c-.042-.177.1-.4.37-.584a.783.783,0,0,1,.53-.14.418.418,0,0,1,.314-.337.522.522,0,0,1,.3-.014.264.264,0,0,1,.191.166c.053.16-.084.348-.306.424a.536.536,0,0,1-.3,0c0,.281-.306.469-.41.525a.993.993,0,0,1-.432.138A.331.331,0,0,1,280.723,67.2ZM280.625,67.027Z" transform="translate(-280.164 -65.946)"/>
    </g>
    <path id="Path_4206" data-name="Path 4206" d="M260.8,139.079l-.581-2.478.328-.079.359,1.532,1.479-3.174,5.75.805-.048.334-5.5-.772Z" transform="translate(-238.191 -112.522)" fill="#407bff"/>
    <path id="Path_4207" data-name="Path 4207" d="M222.533,141.572l-.449.348.9.786-.373.281-.9-.789-.48.37,1.052.923-.387.281-1.493-1.311,2.077-1.591,1.457,1.28-.387.281Z" transform="translate(-209.547 -116.831)" fill="#fff"/>
    <path id="Path_4208" data-name="Path 4208" d="M231.7,150.881l1.311,1.151-.359.281-1.313-1.151Zm.735-.561,1.311,1.151-.362.281-1.311-1.151Z" transform="translate(-217.416 -123.629)" fill="#fff"/>
    <path id="Path_4209" data-name="Path 4209" d="M241.891,160.554a1.03,1.03,0,0,1-.18.166l-.884.679-.429-.376.842-.654a.8.8,0,0,0,.112-.1.281.281,0,0,0-.034-.435.519.519,0,0,0-.716.034l-.819.626-.429-.376.842-.654a.78.78,0,0,0,.109-.1.281.281,0,0,0-.031-.435.522.522,0,0,0-.724.034l-.811.623-.429-.376,1.6-1.224.407.356-.168.126a.89.89,0,0,1,.62.233.645.645,0,0,1,.241.64.991.991,0,0,1,.777.253.631.631,0,0,1,.107.965Z" transform="translate(-222.43 -129.139)" fill="#fff"/>
    <path id="Path_4210" data-name="Path 4210" d="M250.266,168.2a1.123,1.123,0,0,1,1.659-.07.912.912,0,0,1,.351.96l-.525-.138a.449.449,0,0,0-.154-.491.592.592,0,0,0-.864.1.415.415,0,0,0,.053.634.561.561,0,0,0,.539.121l.143.474a1.086,1.086,0,0,1-1.019-.264A.883.883,0,0,1,250.266,168.2Z" transform="translate(-230.87 -136.2)" fill="#fff"/>
    <path id="Path_4211" data-name="Path 4211" d="M258.382,171.642l.505.446-.247.191-.96-.842.2-.154.912.1c.219.02.309,0,.368-.07s.045-.174-.079-.281a.488.488,0,0,0-.373-.123l-.065-.3a.842.842,0,0,1,.7.236c.281.239.326.519.154.713-.109.126-.23.182-.643.143Z" transform="translate(-236.364 -138.212)" fill="#fff"/>
    <path id="Path_4212" data-name="Path 4212" d="M265.043,181.724l-3.6-2.287,7.578-3.957ZM262,179.46l2.964,1.878,3.253-5.122Z" transform="translate(-239.069 -141.727)" fill="#407bff"/>
    <path id="Path_4213" data-name="Path 4213" d="M270.187,192.69l-1.6-1.013.07-.118a1.709,1.709,0,0,1,1.92-.775,1.735,1.735,0,0,1,.508.233l.112.079Zm-1.2-1.1,1.123.713.716-1.123a1.551,1.551,0,0,0-.309-.126A1.431,1.431,0,0,0,268.986,191.59Z" transform="translate(-244.212 -152.693)" fill="#407bff"/>
    <path id="Path_4214" data-name="Path 4214" d="M250.375,220.389a1.684,1.684,0,0,1-1.246-.362,3.267,3.267,0,0,1-.842-1.03,3.07,3.07,0,0,1-.415-1.257,1.56,1.56,0,0,1,.421-1.224,1.622,1.622,0,0,1,1.2-.4,2.262,2.262,0,0,1,2.021,3.042C251.312,219.73,251.037,220.291,250.375,220.389Z" transform="translate(-229.303 -170.957)" fill="#407bff"/>
    <path id="Path_4215" data-name="Path 4215" d="M250.836,207.57a3.505,3.505,0,0,1,3.233,3.438,5.927,5.927,0,0,0,0,1.782c.118.365.373.7.331,1.083-.056.5-.587.78-1.05.977a3.85,3.85,0,0,1-1.361.384,1.3,1.3,0,0,1-1.2-.612c-.107-.21-.5-1.1-.732-1.095s-1,.519-1.28.084c-.171-.267-.334-.233-.067-.4-.4.036.042.9-.342.674a4.128,4.128,0,0,1-1.544-2.787,2.81,2.81,0,0,1,1.153-2.475A4.889,4.889,0,0,1,250.836,207.57Z" transform="translate(-228.543 -164.811)" fill="#407bff"/>
    <g id="Group_279" data-name="Group 279" transform="translate(18.265 42.759)" opacity="0.9">
      <path id="Path_4216" data-name="Path 4216" d="M250.836,207.57a3.505,3.505,0,0,1,3.233,3.438,5.927,5.927,0,0,0,0,1.782c.118.365.373.7.331,1.083-.056.5-.587.78-1.05.977a3.85,3.85,0,0,1-1.361.384,1.3,1.3,0,0,1-1.2-.612c-.107-.21-.5-1.1-.732-1.095s-1,.519-1.28.084c-.171-.267-.334-.233-.067-.4-.4.036.042.9-.342.674a4.128,4.128,0,0,1-1.544-2.787,2.81,2.81,0,0,1,1.153-2.475A4.889,4.889,0,0,1,250.836,207.57Z" transform="translate(-246.808 -207.57)" fill="#fff"/>
    </g>
    <path id="Path_4217" data-name="Path 4217" d="M256.73,215.853a1.372,1.372,0,0,1-.149,1.106,1.151,1.151,0,0,1-.9.629A.954.954,0,0,1,254.8,217a1.238,1.238,0,0,1,.1-1.078,1.563,1.563,0,0,1,.923-.738A1.015,1.015,0,0,1,256.73,215.853Z" transform="translate(-234.238 -170.285)" fill="#407bff"/>
    <path id="Path_4218" data-name="Path 4218" d="M264.076,214.115a1.24,1.24,0,0,0,.528.842,1.036,1.036,0,0,0,.965.177.842.842,0,0,0,.494-.8,1.1,1.1,0,0,0-.474-.842,1.358,1.358,0,0,0-1.024-.261A.873.873,0,0,0,264.076,214.115Z" transform="translate(-240.961 -168.873)" fill="#407bff"/>
    <path id="Path_4219" data-name="Path 4219" d="M264.241,220.76a.528.528,0,0,1,.255.225.314.314,0,0,1-.239.4.469.469,0,0,1-.457-.208.455.455,0,0,1-.129.317.253.253,0,0,1-.32.034.281.281,0,0,1-.084-.258.842.842,0,0,1,.112-.261c.065-.115.208-.5.34-.525S264.137,220.7,264.241,220.76Z" transform="translate(-240.38 -174.101)" fill="#407bff"/>
    <path id="Path_4220" data-name="Path 4220" d="M263.756,225.244c0,.093.093.225.079.317a1.9,1.9,0,0,1-.356.244,10.8,10.8,0,0,1-2.228.758,1.027,1.027,0,0,0-.5-.539.561.561,0,0,1,.561.4,8.175,8.175,0,0,0,2.408-.9c-.031-.168-.115-.471.16-.516C263.871,225.006,263.8,225.006,263.756,225.244Z" transform="translate(-238.573 -177.356)" fill="#407bff"/>
    <path id="Path_4221" data-name="Path 4221" d="M260.176,121.487l-1.148-.354-.188-.514,1.782.55Z" transform="translate(-237.199 -102.264)" fill="#f0f0f0"/>
    <path id="Path_4222" data-name="Path 4222" d="M262.946,100.273a2.453,2.453,0,0,1-1.319,1.5,1.594,1.594,0,0,0-.884.977l-.056.177-2.037-.626.056-.18a1.608,1.608,0,0,0-.18-1.305,2.443,2.443,0,1,1,4.42-.542Z" transform="translate(-236.716 -85.346)" fill="#407bff"/>
    <path id="Path_4223" data-name="Path 4223" d="M262.946,100.273a2.453,2.453,0,0,1-1.319,1.5,1.594,1.594,0,0,0-.884.977l-.056.177-2.037-.626.056-.18a1.608,1.608,0,0,0-.18-1.305,2.443,2.443,0,1,1,4.42-.542Z" transform="translate(-236.716 -85.346)" fill="#fff" opacity="0.9"/>
    <rect id="Rectangle_447" data-name="Rectangle 447" width="2.565" height="0.146" transform="translate(22.497 17.073) rotate(-84.4)" fill="#407bff"/>
    <rect id="Rectangle_448" data-name="Rectangle 448" width="2.565" height="0.146" transform="translate(23.312 17.296) rotate(-61.37)" fill="#407bff"/>
    <path id="Path_4224" data-name="Path 4224" d="M263.749,109.408l-.126-.6-.441.424-.342-.775.135-.059.258.581.48-.463.138.654.539-.337.079.126Z" transform="translate(-240.076 -93.473)" fill="#407bff"/>
    <path id="Path_4225" data-name="Path 4225" d="M260.988,116.04l-.387,1.26-2.04-.62.387-1.26Z" transform="translate(-236.997 -98.523)" fill="#407bff"/>
    <rect id="Rectangle_449" data-name="Rectangle 449" width="0.146" height="2.133" transform="translate(21.519 18.31) rotate(-73.2)" fill="#407bff"/>
    <rect id="Rectangle_450" data-name="Rectangle 450" width="0.146" height="2.139" transform="translate(22.091 16.808) rotate(-73.191)" fill="#407bff"/>
    <g id="Group_280" data-name="Group 280" transform="translate(22.091 16.668)" opacity="0.2">
      <rect id="Rectangle_451" data-name="Rectangle 451" width="0.146" height="2.139" transform="translate(0 0.14) rotate(-73.191)"/>
    </g>
    <g id="Group_281" data-name="Group 281" transform="translate(21.519 18.171)" opacity="0.2">
      <rect id="Rectangle_452" data-name="Rectangle 452" width="0.146" height="2.133" transform="translate(0 0.14) rotate(-73.2)"/>
    </g>
  </g>
  <g id="freepik--Sheets--inject-3" transform="translate(31.938 74.021)">
    <rect id="Rectangle_453" data-name="Rectangle 453" width="13.727" height="3.413" transform="translate(13.727 19.16) rotate(180)" fill="#407bff"/>
    <rect id="Rectangle_454" data-name="Rectangle 454" width="13.727" height="3.413" transform="translate(13.771 19.177) rotate(180)" fill="#fff" opacity="0.6"/>
    <rect id="Rectangle_455" data-name="Rectangle 455" width="10.536" height="3.413" transform="translate(10.536 19.177) rotate(180)" fill="#fff" opacity="0.6"/>
    <path id="Path_4226" data-name="Path 4226" d="M114.028,385.221l13.659.424-.017-.345-13.651-.18Z" transform="translate(-113.958 -366.493)" fill="#407bff"/>
    <path id="Path_4227" data-name="Path 4227" d="M127.76,377.889l-13.64-.769v.115l13.64.912Z" transform="translate(-114.03 -360.739)" fill="#407bff"/>
    <path id="Path_4228" data-name="Path 4228" d="M127.76,376.18l-13.64.314v.109l13.64-.163Z" transform="translate(-114.03 -360.062)" fill="#407bff"/>
    <path id="Path_4229" data-name="Path 4229" d="M127.89,381.657l-13.64.665v-.1l13.64-.791Z" transform="translate(-114.124 -363.839)" fill="#407bff"/>
    <path id="Path_4230" data-name="Path 4230" d="M113.93,375.02l13.637.011v.112H113.93Z" transform="translate(-113.894 -359.228)" fill="#407bff"/>
    <rect id="Rectangle_456" data-name="Rectangle 456" width="13.727" height="3.413" transform="translate(14.714 8.995) rotate(180)" fill="#407bff"/>
    <rect id="Rectangle_457" data-name="Rectangle 457" width="13.727" height="3.413" transform="translate(14.756 9.012) rotate(180)" fill="#fff" opacity="0.6"/>
    <rect id="Rectangle_458" data-name="Rectangle 458" width="10.536" height="3.413" transform="translate(11.523 9.012) rotate(180)" fill="#fff" opacity="0.6"/>
    <path id="Path_4231" data-name="Path 4231" d="M117.536,349l13.659.424-.014-.345-13.651-.18Z" transform="translate(-116.483 -340.438)" fill="#407bff"/>
    <path id="Path_4232" data-name="Path 4232" d="M131.267,341.669,117.63,340.9v.115l13.637.912Z" transform="translate(-116.555 -334.684)" fill="#407bff"/>
    <path id="Path_4233" data-name="Path 4233" d="M131.267,339.96l-13.637.314v.112l13.637-.166Z" transform="translate(-116.555 -334.007)" fill="#407bff"/>
    <path id="Path_4234" data-name="Path 4234" d="M131.4,345.437l-13.64.665V346l13.64-.794Z" transform="translate(-116.649 -337.784)" fill="#407bff"/>
    <rect id="Rectangle_459" data-name="Rectangle 459" width="13.727" height="3.413" transform="translate(14.54 15.699) rotate(180)" fill="#407bff"/>
    <rect id="Rectangle_460" data-name="Rectangle 460" width="13.727" height="3.413" transform="translate(14.585 15.716) rotate(180)" fill="#fff" opacity="0.6"/>
    <rect id="Rectangle_461" data-name="Rectangle 461" width="10.536" height="3.413" transform="translate(0.845 12.304)" fill="#fff" opacity="0.6"/>
    <path id="Path_4235" data-name="Path 4235" d="M130.378,372.79l-13.654.18-.014.345,13.659-.424Z" transform="translate(-115.893 -357.624)" fill="#407bff"/>
    <path id="Path_4236" data-name="Path 4236" d="M117.02,362.69l13.64.014v.112H117.02Z" transform="translate(-116.116 -350.358)" fill="#407bff"/>
    <path id="Path_4237" data-name="Path 4237" d="M116.71,365.817l13.637-.912v-.115l-13.637.769Z" transform="translate(-115.893 -351.869)" fill="#407bff"/>
    <path id="Path_4238" data-name="Path 4238" d="M130.66,363.85l-13.64.314v.112l13.64-.166Z" transform="translate(-116.116 -351.193)" fill="#407bff"/>
    <path id="Path_4239" data-name="Path 4239" d="M130.79,369.337,117.15,370v-.1l13.639-.791Z" transform="translate(-116.21 -354.977)" fill="#407bff"/>
    <path id="Path_4240" data-name="Path 4240" d="M128.7,351.07l-13.721.07-.02,3.343H128.7Z" transform="translate(-114.634 -341.999)" fill="#407bff"/>
    <rect id="Rectangle_462" data-name="Rectangle 462" width="13.727" height="3.413" transform="translate(14.069 12.483) rotate(180)" fill="#fff" opacity="0.6"/>
    <rect id="Rectangle_463" data-name="Rectangle 463" width="10.536" height="3.413" transform="translate(0.326 9.071)" fill="#fff" opacity="0.6"/>
    <path id="Path_4241" data-name="Path 4241" d="M125.958,351.32H115.03v.348h10.7Z" transform="translate(-114.685 -342.179)" fill="#407bff"/>
    <path id="Path_4242" data-name="Path 4242" d="M128.672,356.3l-13.642.126v.1h13.642Z" transform="translate(-114.685 -345.762)" fill="#407bff"/>
    <path id="Path_4243" data-name="Path 4243" d="M115.03,360.225l13.642-.665v.1l-13.642.791Z" transform="translate(-114.685 -348.107)" fill="#407bff"/>
    <path id="Path_4244" data-name="Path 4244" d="M115.03,357.35l13.642.272v.1l-13.642-.143Z" transform="translate(-114.685 -346.517)" fill="#407bff"/>
    <rect id="Rectangle_464" data-name="Rectangle 464" width="13.64" height="1.718" transform="translate(3.932 1.647)" fill="#407bff"/>
    <rect id="Rectangle_465" data-name="Rectangle 465" width="13.64" height="1.718" transform="translate(3.932 1.647)" fill="#fff" opacity="0.6"/>
    <rect id="Rectangle_466" data-name="Rectangle 466" width="10.87" height="1.718" transform="translate(3.932 1.647)" fill="#fff" opacity="0.6"/>
    <path id="Path_4245" data-name="Path 4245" d="M141.48,328.96l-13.64.067v.051h13.64Z" transform="translate(-123.9 -326.095)" fill="#407bff"/>
    <path id="Path_4246" data-name="Path 4246" d="M127.84,325.785l13.64-.345v.051l-13.64.413Z" transform="translate(-123.9 -323.562)" fill="#407bff"/>
    <path id="Path_4247" data-name="Path 4247" d="M127.68,326.34l13.64.14v.051l-13.64-.073Z" transform="translate(-123.785 -324.21)" fill="#407bff"/>
    <rect id="Rectangle_467" data-name="Rectangle 467" width="13.64" height="0.828" transform="translate(2.023 0.89)" fill="#407bff"/>
    <rect id="Rectangle_468" data-name="Rectangle 468" width="13.64" height="0.822" transform="translate(2.023 0.898)" fill="#fff" opacity="0.6"/>
    <rect id="Rectangle_469" data-name="Rectangle 469" width="10.87" height="0.873" transform="translate(2.023 0.845)" fill="#fff" opacity="0.6"/>
    <path id="Path_4248" data-name="Path 4248" d="M121.04,323.278l13.637-.348v.053l-13.637.413Z" transform="translate(-119.008 -321.757)" fill="#407bff"/>
    <path id="Path_4249" data-name="Path 4249" d="M121.04,322.69l13.637.14v.053l-13.637-.076Z" transform="translate(-119.008 -321.584)" fill="#407bff"/>
    <rect id="Rectangle_470" data-name="Rectangle 470" width="13.64" height="0.828" transform="translate(3.295 0.045)" fill="#407bff"/>
    <rect id="Rectangle_471" data-name="Rectangle 471" width="13.64" height="0.822" transform="translate(3.295 0.051)" fill="#fff" opacity="0.6"/>
    <rect id="Rectangle_472" data-name="Rectangle 472" width="10.87" height="0.873" transform="translate(3.295)" fill="#fff" opacity="0.6"/>
    <path id="Path_4250" data-name="Path 4250" d="M125.556,320.24l13.642.166,0,.053-13.645-.1Z" transform="translate(-122.252 -319.822)" fill="#407bff"/>
    <path id="Path_4251" data-name="Path 4251" d="M125.56,319.68l13.64.138v.053l-13.64-.076Z" transform="translate(-122.26 -319.419)" fill="#407bff"/>
    <rect id="Rectangle_473" data-name="Rectangle 473" width="13.64" height="2.214" transform="translate(3.009 3.365)" fill="#407bff"/>
    <rect id="Rectangle_474" data-name="Rectangle 474" width="13.64" height="2.214" transform="translate(3.009 3.365)" fill="#fff" opacity="0.6"/>
    <rect id="Rectangle_475" data-name="Rectangle 475" width="10.524" height="2.214" transform="translate(3.009 3.365)" fill="#fff" opacity="0.6"/>
    <path id="Path_4252" data-name="Path 4252" d="M137.857,332.837l-13.637-.076V332.7h13.637Z" transform="translate(-121.296 -328.785)" fill="#407bff"/>
    <path id="Path_4253" data-name="Path 4253" d="M124.55,333.995l13.64.4v-.059l-13.64-.474Z" transform="translate(-121.533 -329.619)" fill="#407bff"/>
    <path id="Path_4254" data-name="Path 4254" d="M140.175,330.75H127.31l.283.272h12.581Z" transform="translate(-123.518 -327.382)" fill="#407bff"/>
    <path id="Path_4255" data-name="Path 4255" d="M124.72,336.842l13.637-.166v-.056l-13.637.084Z" transform="translate(-121.655 -331.605)" fill="#407bff"/>
  </g>
  <g id="freepik--Character--inject-3" transform="translate(46.964 51.475)">
    <g id="freepik--group--inject-3" transform="translate(7.122 0)">
      <path id="Path_4256" data-name="Path 4256" d="M221.244,305.5c.025.935,0,1.807-.045,2.708s-.107,1.791-.194,2.689a31.184,31.184,0,0,1-.988,5.422l-.224.69-.056.171-.014.045-.022.065-.07.185a2.912,2.912,0,0,1-.342.6,3.369,3.369,0,0,1-.791.783,4.994,4.994,0,0,1-.78.469,10.632,10.632,0,0,1-2.868.876,24.643,24.643,0,0,1-5.453.281l-.1-1.791,1.243-.255c.418-.084.842-.188,1.24-.281.822-.2,1.633-.407,2.4-.66a9.309,9.309,0,0,0,2.038-.884,1.165,1.165,0,0,0,.427-.39c0-.045-.07.143,0-.152l.138-.561a35.948,35.948,0,0,0,.623-4.9c.062-.842.1-1.684.14-2.526s.051-1.709.062-2.526Z" transform="translate(-204.646 -286.673)" fill="#ffc3bd"/>
      <path id="Path_4257" data-name="Path 4257" d="M205.447,349.247l-1.965-1.417-.592,2.989s1.936.842,2.492-.14Z" transform="translate(-200.035 -317.123)" fill="#ffc3bd"/>
      <path id="Path_4258" data-name="Path 4258" d="M196.943,347.895l-.373,2.495,1.774.429.589-2.989Z" transform="translate(-195.488 -317.123)" fill="#ffc3bd"/>
      <path id="Path_4259" data-name="Path 4259" d="M239,292.647c.429,2.245-1.316,7.519-1.316,7.519L232,299.45c.873-2,1.184-4.883,2.284-6.769C235.3,290.989,238.528,290.211,239,292.647Z" transform="translate(-220.975 -276.315)" fill="#407bff"/>
      <path id="Path_4260" data-name="Path 4260" d="M239,292.647c.429,2.245-1.316,7.519-1.316,7.519L232,299.45c.873-2,1.184-4.883,2.284-6.769C235.3,290.989,238.528,290.211,239,292.647Z" transform="translate(-220.975 -276.315)" opacity="0.5"/>
      <path id="Path_4261" data-name="Path 4261" d="M252.661,290.15a1.361,1.361,0,0,1,1.173,1.527v.036a56.477,56.477,0,0,0-.587,6.612c-.059,1.861-.036,3.629.025,5.228.135,3.749.471,6.587.449,7.563L241.2,312.164c-2.192-9.969-1.476-17.344-.862-20.033a2.273,2.273,0,0,1,1.715-1.715c.48-.107,1.055-.222,1.667-.311.213-.02.432-.059.651-.084a47.282,47.282,0,0,1,5.425-.123c.342,0,.688.031,1.027.053C251.479,290.007,252.125,290.08,252.661,290.15Z" transform="translate(-226.523 -275.429)" fill="#407bff"/>
      <path id="Path_4262" data-name="Path 4262" d="M252.661,290.15a1.361,1.361,0,0,1,1.173,1.527v.036a56.477,56.477,0,0,0-.587,6.612c-.059,1.861-.036,3.629.025,5.228.135,3.749.471,6.587.449,7.563L241.2,312.164c-2.192-9.969-1.476-17.344-.862-20.033a2.273,2.273,0,0,1,1.715-1.715c.48-.107,1.055-.222,1.667-.311.213-.02.432-.059.651-.084a47.282,47.282,0,0,1,5.425-.123c.342,0,.688.031,1.027.053C251.479,290.007,252.125,290.08,252.661,290.15Z" transform="translate(-226.523 -275.429)" opacity="0.5"/>
      <path id="Path_4263" data-name="Path 4263" d="M260.749,268.3c-.309,1.748-.589,4.951.654,6.09-2.759,2.245-4.384,5.189-4.979,4.634a10.516,10.516,0,0,1-.441-4.527c1.936-.5,1.858-1.942,1.493-3.292Z" transform="translate(-238.148 -259.913)" fill="#ffc3bd"/>
      <path id="Path_4264" data-name="Path 4264" d="M263.546,272.52l-1.936,1.718a5.333,5.333,0,0,1,.185.96,2.39,2.39,0,0,0,1.81-1.74A2.639,2.639,0,0,0,263.546,272.52Z" transform="translate(-242.275 -262.949)" opacity="0.2"/>
      <path id="Path_4265" data-name="Path 4265" d="M247.2,252.586c-1.153.152-1.614,2.206-.281,3.758S248.748,252.381,247.2,252.586Z" transform="translate(-231.122 -248.605)" fill="#263238"/>
      <path id="Path_4266" data-name="Path 4266" d="M254.2,249.85c.345,2.341.668,3.693-.244,5.125a3.149,3.149,0,0,1-5.5-.486c-.935-1.965-1.35-5.467.721-6.865a3.23,3.23,0,0,1,5.024,2.226Z" transform="translate(-232.26 -244.634)" fill="#ffc3bd"/>
      <path id="Path_4267" data-name="Path 4267" d="M262.719,251.454a1.283,1.283,0,0,0,1.075.878,2.181,2.181,0,0,1,.171,1.625l.864.112a1.364,1.364,0,0,1,1.257-1.384q-.354,1.4-.842,2.781a7.162,7.162,0,0,0,2.091-2.933,4.131,4.131,0,0,0,.312-1.72,2.245,2.245,0,0,0-.73-1.555,2.428,2.428,0,0,0-2.181-.356C263.435,249.262,262.133,249.938,262.719,251.454Z" transform="translate(-242.969 -245.876)" fill="#263238"/>
      <path id="Path_4268" data-name="Path 4268" d="M271.12,260.537a2.245,2.245,0,0,1-.783,1.527c-.6.508-1.229.048-1.333-.693-.1-.665.107-1.732.842-1.965A1.016,1.016,0,0,1,271.12,260.537Z" transform="translate(-247.578 -253.48)" fill="#ffc3bd"/>
      <path id="Path_4269" data-name="Path 4269" d="M257.718,261.244c.039.188-.028.365-.152.39s-.255-.107-.3-.295.028-.362.152-.387S257.678,261.053,257.718,261.244Z" transform="translate(-239.143 -254.625)" fill="#263238"/>
      <path id="Path_4270" data-name="Path 4270" d="M250.167,262.834c.039.188-.028.362-.152.39s-.255-.107-.295-.295.028-.362.149-.387S250.123,262.646,250.167,262.834Z" transform="translate(-233.715 -255.769)" fill="#263238"/>
      <path id="Path_4271" data-name="Path 4271" d="M252.361,263.42a6.973,6.973,0,0,1-.561,1.8,1.123,1.123,0,0,0,.935-.022Z" transform="translate(-235.218 -256.403)" fill="#ed847e"/>
      <path id="Path_4272" data-name="Path 4272" d="M258.034,257.8a.107.107,0,0,1-.115-.017.9.9,0,0,0-.789-.216.115.115,0,0,1-.143-.048V257.5a.109.109,0,0,1,.073-.138h0a1.123,1.123,0,0,1,.993.264.112.112,0,0,1,.017.157h0A.137.137,0,0,1,258.034,257.8Z" transform="translate(-238.946 -252.027)" fill="#263238"/>
      <path id="Path_4273" data-name="Path 4273" d="M258.757,269.071h0a1.737,1.737,0,0,0,1.139-1.123.059.059,0,0,0-.042-.073.064.064,0,0,0-.076.042,1.636,1.636,0,0,1-1.055,1.036.062.062,0,0,0,.034.118Z" transform="translate(-240.171 -259.607)" fill="#263238"/>
      <path id="Path_4274" data-name="Path 4274" d="M247.114,259.279a.082.082,0,0,1-.067,0,.112.112,0,0,1-.084-.135,1.123,1.123,0,0,1,.662-.791.112.112,0,0,1,.143.067h0a.112.112,0,0,1-.065.14h0a.9.9,0,0,0-.519.62A.1.1,0,0,1,247.114,259.279Z" transform="translate(-231.736 -252.753)" fill="#263238"/>
      <path id="Path_4275" data-name="Path 4275" d="M194.72,321.207l2.919,9.4s2.885-.909,4.148-.121a13.4,13.4,0,0,1,2.172,1.72l-2.015-10.235S199.264,318.824,194.72,321.207Z" transform="translate(-194.157 -297.331)" fill="#407bff"/>
      <path id="Path_4276" data-name="Path 4276" d="M220.46,321.111l2.015,10.235s3.132-3.388,6-1.965l.974.5-1.179-10.244S224.541,317.749,220.46,321.111Z" transform="translate(-212.674 -296.464)" fill="#407bff"/>
      <path id="Path_4277" data-name="Path 4277" d="M220.46,321.111l2.015,10.235s3.132-3.388,6-1.965l.974.5-1.179-10.244S224.541,317.749,220.46,321.111Z" transform="translate(-212.674 -296.464)" fill="#fff" opacity="0.8"/>
      <path id="Path_4278" data-name="Path 4278" d="M194.72,321.207l2.919,9.4s2.885-.909,4.148-.121a13.4,13.4,0,0,1,2.172,1.72l-2.015-10.235S199.264,318.824,194.72,321.207Z" transform="translate(-194.157 -297.331)" fill="#fff" opacity="0.8"/>
      <path id="Path_4279" data-name="Path 4279" d="M202.511,334.182c-2.436-.789-4.807-1.617-6.752.112-.721-2.781-1.793-5.433-2.6-8.186-.651-2.209-.654-1.821.511-2.464,1.008-.561,5.714-1.061,6.71,1.521C200.738,326.108,202.338,333.963,202.511,334.182Z" transform="translate(-192.716 -299.4)" fill="#263238"/>
      <path id="Path_4280" data-name="Path 4280" d="M232.314,332.888a4.135,4.135,0,0,0-5.2,0,4.158,4.158,0,0,1-1.53.794h0l-2.08-9.565-.084.062c.427-1.443,2.638-2.144,4.039-2.189a6.384,6.384,0,0,1,3.48,1.123S232,330.115,232.314,332.888Z" transform="translate(-214.803 -298.535)" fill="#263238"/>
      <path id="Path_4281" data-name="Path 4281" d="M222.872,338.976s-.842.261-1.17-.427l-2.052-9.2s.345.6,1.055.109l.084-.062,2.08,9.565A.052.052,0,0,1,222.872,338.976Z" transform="translate(-212.091 -303.829)" fill="#263238"/>
      <path id="Path_4282" data-name="Path 4282" d="M222.872,338.976s-.842.261-1.17-.427l-2.052-9.2s.345.6,1.055.109l.084-.062,2.08,9.565A.052.052,0,0,1,222.872,338.976Z" transform="translate(-212.091 -303.829)" fill="#fff" opacity="0.1"/>
      <path id="Path_4283" data-name="Path 4283" d="M275.043,295.287c-1.052-.154-1.487.222-2.217,1.659a22.341,22.341,0,0,0-1.044,5.153c-.129,2.094-.4,1.858,1.586,2.009,1.269.1,2.874.365,2.874.365S278.189,295.745,275.043,295.287Z" transform="translate(-249.528 -279.303)" opacity="0.1"/>
      <path id="Path_4284" data-name="Path 4284" d="M263.483,302.43c.022.935,0,1.807-.045,2.711s-.107,1.788-.2,2.686a31.479,31.479,0,0,1-.985,5.428l-.227.688-.056.174v.042l-.025.067-.067.182a2.931,2.931,0,0,1-.342.606,3.55,3.55,0,0,1-.791.783,5.02,5.02,0,0,1-.783.469,10.773,10.773,0,0,1-2.868.876,24.628,24.628,0,0,1-5.453.281l-.093-1.788,1.243-.255c.415-.087.842-.191,1.24-.281.819-.2,1.631-.407,2.4-.662a9.362,9.362,0,0,0,2.038-.881,1.17,1.17,0,0,0,.427-.393c0-.042-.07.146,0-.149l.14-.561a36.406,36.406,0,0,0,.623-4.9c.062-.842.1-1.684.14-2.526s.051-1.706.062-2.526Z" transform="translate(-235.038 -284.464)" fill="#ffc3bd"/>
      <path id="Path_4285" data-name="Path 4285" d="M247.63,346.187l-1.965-1.417-.595,2.986s1.939.842,2.495-.14Z" transform="translate(-230.377 -314.922)" fill="#ffc3bd"/>
      <path id="Path_4286" data-name="Path 4286" d="M239.153,344.832l-.373,2.495,1.771.429.592-2.986Z" transform="translate(-225.852 -314.922)" fill="#ffc3bd"/>
      <path id="Path_4287" data-name="Path 4287" d="M280.116,292.579c1.336,1.844.9,8.063.9,8.063l-6.2-.595a14.8,14.8,0,0,1,.281-6.278C276.089,290.733,278.5,290.34,280.116,292.579Z" transform="translate(-251.615 -276.351)" fill="#407bff"/>
      <path id="Path_4288" data-name="Path 4288" d="M280.116,292.579c1.336,1.844.9,8.063.9,8.063l-6.2-.595a14.8,14.8,0,0,1,.281-6.278C276.089,290.733,278.5,290.34,280.116,292.579Z" transform="translate(-251.615 -276.351)" opacity="0.5"/>
      <path id="Path_4289" data-name="Path 4289" d="M244.787,243.219a7.9,7.9,0,0,1-.657-1c.817.163.9-.258,1.235-1.4a3.646,3.646,0,0,1,2.624-2.245c5.394-.873,5.7,2.189,5.753,2.689a.929.929,0,0,1-.561.87,2.742,2.742,0,0,1-1.078.2,10.7,10.7,0,0,1-2.7.112C246.339,241.636,245.16,243.261,244.787,243.219Z" transform="translate(-229.701 -238.416)" fill="#263238"/>
    </g>
    <path id="Path_4290" data-name="Path 4290" d="M228.582,398.66l3.657,1.908,1.757.918-.758,1.956-1.737-.631-4.241-1.544Z" transform="translate(-210.444 -353.688)" fill="#ffc3bd"/>
    <path id="Path_4291" data-name="Path 4291" d="M228.582,398.66l3.657,1.908-.738,2.242-4.241-1.544Z" transform="translate(-210.444 -353.688)" opacity="0.2"/>
    <path id="Path_4292" data-name="Path 4292" d="M192.884,410.06l-3.923,1.274-1.883.615-.867-1.911,1.667-.8,4.069-1.951Z" transform="translate(-180.914 -359.896)" fill="#ffc3bd"/>
    <path id="Path_4293" data-name="Path 4293" d="M197.157,410.06l-3.923,1.274-1.083-2.094,4.069-1.951Z" transform="translate(-185.187 -359.896)" opacity="0.2"/>
    <path id="Path_4294" data-name="Path 4294" d="M233.628,369.252a1.807,1.807,0,0,0-.3-.525c-1.277-1.521-5.964-1.49-8.812-1.19a15.284,15.284,0,0,0-4.816,1.715,3.368,3.368,0,0,0-1.033-1.019,17.457,17.457,0,0,0-8.787-1.841c4.622-.149,9.842.281,9.842.281l12.464-1.033A9.912,9.912,0,0,1,233.628,369.252Z" transform="translate(-197.941 -329.935)" fill="#407bff"/>
    <path id="Path_4295" data-name="Path 4295" d="M233.628,369.252a1.807,1.807,0,0,0-.3-.525c-1.277-1.521-5.964-1.49-8.812-1.19a15.284,15.284,0,0,0-4.816,1.715,3.368,3.368,0,0,0-1.033-1.019,17.457,17.457,0,0,0-8.787-1.841c4.622-.149,9.842.281,9.842.281l12.464-1.033A9.912,9.912,0,0,1,233.628,369.252Z" transform="translate(-197.941 -329.935)" opacity="0.1"/>
    <path id="Path_4296" data-name="Path 4296" d="M192.012,376.319a4.44,4.44,0,0,1-3.261,1.838,13.075,13.075,0,0,1-3.845-.3l-3.314-.584-5.4-.957a9.442,9.442,0,0,1-2.961-.873c-2.91-1.617-3.5-3.438-1.99-4.771a5.37,5.37,0,0,1,1.706-.963l.073-.031a24.635,24.635,0,0,1,5.355-1.221h.065a28.859,28.859,0,0,1,3.067-.208,17.438,17.438,0,0,1,8.787,1.841,3.369,3.369,0,0,1,1.033,1.019C192.348,372.625,192.811,375.067,192.012,376.319Z" transform="translate(-169.565 -331.812)" fill="#407bff"/>
    <path id="Path_4297" data-name="Path 4297" d="M192.012,376.319a4.44,4.44,0,0,1-3.261,1.838,13.075,13.075,0,0,1-3.845-.3l-3.314-.584-5.4-.957a9.442,9.442,0,0,1-2.961-.873c-2.91-1.617-3.5-3.438-1.99-4.771a5.37,5.37,0,0,1,1.706-.963l.073-.031a24.635,24.635,0,0,1,5.355-1.221h.065a28.859,28.859,0,0,1,3.067-.208,17.438,17.438,0,0,1,8.787,1.841,3.369,3.369,0,0,1,1.033,1.019C192.348,372.625,192.811,375.067,192.012,376.319Z" transform="translate(-169.565 -331.812)" opacity="0.1"/>
    <path id="Path_4298" data-name="Path 4298" d="M169.871,373.894s-3.126,1.572-2.43,4.678c0,0,.505,1.981,6.407,3.157s13.387,2.526,13.387,2.526l.755-2.414s-7.763-6.7-13.637-8.139A7.8,7.8,0,0,0,169.871,373.894Z" transform="translate(-167.34 -335.562)" fill="#407bff"/>
    <path id="Path_4299" data-name="Path 4299" d="M234.523,403.2l-1.9-.036,1.664-4.681,1.5.881Z" transform="translate(-214.299 -353.558)" fill="#407bff"/>
    <g id="Group_282" data-name="Group 282" transform="translate(18.321 44.922)" opacity="0.6">
      <path id="Path_4300" data-name="Path 4300" d="M234.523,403.2l-1.9-.036,1.664-4.681,1.5.881Z" transform="translate(-232.62 -398.48)" fill="#fff"/>
    </g>
    <path id="Path_4301" data-name="Path 4301" d="M247.219,396.6c.036.16,5.686,1.684,7.791.935C261.6,395.2,245.678,389.88,247.219,396.6Z" transform="translate(-224.725 -349.847)" fill="#407bff"/>
    <path id="Path_4302" data-name="Path 4302" d="M247.219,396.6c.036.16,5.686,1.684,7.791.935C261.6,395.2,245.678,389.88,247.219,396.6Z" transform="translate(-224.725 -349.847)" opacity="0.1"/>
    <path id="Path_4303" data-name="Path 4303" d="M222.531,377.477a8.491,8.491,0,0,1-.561,1.353h0c-.042.073-.079.149-.121.219a5.984,5.984,0,0,1-.337.536l-.022.036c-.056.079-.109.152-.168.227-1.684,2.169-6.09,3.023-7.134,1.619a7.577,7.577,0,0,1-.979-2.139,76.916,76.916,0,0,1-11.044,4.662c-1.965.651-4.039,1.269-6.143,1.774L194.75,383.1l.5-.393c.7-.561,2.094-1.622,3.839-2.879a79.592,79.592,0,0,1,9.733-6.157,15.286,15.286,0,0,1,4.816-1.715c2.849-.3,7.535-.331,8.812,1.19a1.807,1.807,0,0,1,.3.525A6.223,6.223,0,0,1,222.531,377.477Z" transform="translate(-187.057 -334.357)" fill="#407bff"/>
    <path id="Path_4304" data-name="Path 4304" d="M193.89,407.051l1.417-1.271,1.973,4.558-1.7.382Z" transform="translate(-186.439 -358.809)" fill="#407bff"/>
    <g id="Group_283" data-name="Group 283" transform="translate(7.451 46.971)" opacity="0.6">
      <path id="Path_4305" data-name="Path 4305" d="M193.89,407.051l1.417-1.271,1.973,4.558-1.7.382Z" transform="translate(-193.89 -405.78)" fill="#fff"/>
    </g>
    <path id="Path_4306" data-name="Path 4306" d="M239.291,418.487a.452.452,0,0,0,.356.079,1.263,1.263,0,0,0,.18-.07,1.022,1.022,0,0,0,.4-.314l.1-.118a4.185,4.185,0,0,0,.37-.561.048.048,0,0,0-.02-.062.073.073,0,0,0-.079,0,1.128,1.128,0,0,0-.188.079l-.042.017h0l-.281.124c-.384.188-.842.452-.884.657A.18.18,0,0,0,239.291,418.487Zm.056-.152a.193.193,0,0,1,.056-.1,3.837,3.837,0,0,1,.89-.539l.076-.034.107-.042c-.045.073-.09.14-.135.2a2.45,2.45,0,0,1-.331.393.811.811,0,0,1-.384.236.281.281,0,0,1-.241-.053A.067.067,0,0,1,239.347,418.336Z" transform="translate(-219.031 -367.189)" fill="#407bff"/>
    <path id="Path_4307" data-name="Path 4307" d="M237.814,416.333c.129.2.811.3,1.26.281a1.759,1.759,0,0,0,.23-.017h0a.059.059,0,0,0,.028,0,.086.086,0,0,0,.022-.028.048.048,0,0,0,0-.056h0a2.024,2.024,0,0,0-1.044-.528.592.592,0,0,0-.387.107C237.761,416.185,237.775,416.269,237.814,416.333Zm.126-.05s-.034-.051.065-.121l.034-.022a.437.437,0,0,1,.255-.053,1.787,1.787,0,0,1,.862.418A2.022,2.022,0,0,1,237.941,416.283Z" transform="translate(-218.018 -366.149)" fill="#407bff"/>
    <path id="Path_4308" data-name="Path 4308" d="M241.087,409.351l1.875-1.951a.281.281,0,0,1,.309-.059l2.383,1.027a.351.351,0,0,1,.174.53l-.028.034a23.291,23.291,0,0,1-4.274,4.754c-1.01.988-1.844.219-1.625-.174.988-1.762.991-2.4.921-3.241A1.684,1.684,0,0,1,241.087,409.351Z" transform="translate(-219.511 -359.916)" fill="#263238"/>
    <path id="Path_4309" data-name="Path 4309" d="M180.6,409.031a.471.471,0,0,0-.182.32,1.068,1.068,0,0,0,.014.191,1.013,1.013,0,0,0,.18.477c.025.042.053.081.084.123a3.822,3.822,0,0,0,.418.522.045.045,0,0,0,.065,0,.079.079,0,0,0,.028-.076,1.018,1.018,0,0,0-.02-.2v-.048h0a1.75,1.75,0,0,0-.036-.281c-.062-.424-.171-.949-.356-1.041a.185.185,0,0,0-.194.014Zm.129.1a.186.186,0,0,1,.076.084,3.743,3.743,0,0,1,.244,1.013.356.356,0,0,1,0,.079v.115c-.059-.062-.109-.129-.157-.188a2.789,2.789,0,0,1-.281-.435.825.825,0,0,1-.107-.438.294.294,0,0,1,.123-.216.07.07,0,0,1,.1-.014Z" transform="translate(-176.749 -361.123)" fill="#407bff"/>
    <path id="Path_4310" data-name="Path 4310" d="M183.535,408.743c-.236.062-.533.682-.66,1.123a1.844,1.844,0,0,0-.051.222v.014a.048.048,0,0,0,0,.028.073.073,0,0,0,.02.031.051.051,0,0,0,.059,0h0a2.024,2.024,0,0,0,.819-.842.592.592,0,0,0,.017-.4C183.692,408.737,183.6,408.723,183.535,408.743Zm0,.135c.014,0,.059-.014.1.1v.039a.43.43,0,0,1-.025.258,1.788,1.788,0,0,1-.662.7c.123-.418.429-1.047.6-1.092Z" transform="translate(-178.477 -360.936)" fill="#407bff"/>
    <path id="Path_4311" data-name="Path 4311" d="M173.094,407.881l1.013,1.965a.281.281,0,0,1-.039.312l-2.021,1.516a.348.348,0,0,1-.561,0l-.025-.036a27.537,27.537,0,0,1-3.343-5.436c-.631-1.263.351-1.824.66-1.5,1.381,1.473,2.442,2.31,3.261,2.5C173.173,407.6,173.015,407.74,173.094,407.881Z" transform="translate(-167.75 -357.969)" fill="#263238"/>
    <path id="Path_4312" data-name="Path 4312" d="M246.131,261.851h-.017A1.17,1.17,0,1,1,247.3,260.7h0A1.17,1.17,0,0,1,246.131,261.851Zm0-2.077a.907.907,0,0,0-.014,1.813h0a.907.907,0,1,0,.017-1.813Z" transform="translate(-223.176 -253.59)" fill="#263238"/>
    <path id="Path_4313" data-name="Path 4313" d="M255.744,259.561h-.02a1.17,1.17,0,1,1,1.187-1.151h0A1.167,1.167,0,0,1,255.744,259.561Zm0-2.074a.9.9,0,1,0,.017,0Z" transform="translate(-230.089 -251.943)" fill="#263238"/>
    <path id="Path_4314" data-name="Path 4314" d="M252.264,260.718l-.264-.053c0-.042.09-.429.373-.514a.578.578,0,0,1,.561.233l-.185.185c-.129-.129-.239-.188-.309-.166S252.281,260.634,252.264,260.718Z" transform="translate(-228.24 -254.046)" fill="#263238"/>
    <path id="Path_4315" data-name="Path 4315" d="M262.339,258.92l-.059-.258,2.663-.631.514.112-.056.258-.458-.1Z" transform="translate(-235.635 -252.525)" fill="#263238"/>
  </g>
  <g id="freepik--Books--inject-3" transform="translate(25.735 86.504)">
    <path id="Path_4316" data-name="Path 4316" d="M307.487,390.174v1.8a.174.174,0,0,0,0,.345h2.063v-2.5h-2.063a.177.177,0,1,0,0,.354Z" transform="translate(-246.799 -382.358)" fill="#407bff"/>
    <path id="Path_4317" data-name="Path 4317" d="M307.487,390.174v1.8a.174.174,0,0,0,0,.345h2.063v-2.5h-2.063a.177.177,0,1,0,0,.354Z" transform="translate(-246.799 -382.358)" fill="#fff" opacity="0.3"/>
    <rect id="Rectangle_476" data-name="Rectangle 476" width="1.6" height="1.799" transform="translate(60.687 7.819)" fill="#407bff"/>
    <rect id="Rectangle_477" data-name="Rectangle 477" width="1.6" height="1.799" transform="translate(60.687 7.819)" fill="#fff" opacity="0.6"/>
    <path id="Path_4318" data-name="Path 4318" d="M312.45,390.46h8.838c.382,0,.69.48.69,1.075s-.309,1.072-.69,1.072H312.45Z" transform="translate(-250.497 -382.818)" fill="#407bff"/>
    <path id="Path_4319" data-name="Path 4319" d="M312.45,390.46h8.838c.382,0,.69.48.69,1.075s-.309,1.072-.69,1.072H312.45Z" transform="translate(-250.497 -382.818)" fill="#fff" opacity="0.9"/>
    <path id="Path_4320" data-name="Path 4320" d="M312.061,392.275c1.816,0,6.924.031,8.742,0,1.243-.022,1.311-2.408.09-2.492-.842-.059-1.726,0-2.579,0h-6.253a.174.174,0,0,0,0,.345h8.453c.4,0,.685,0,.842.474.132.407.09,1.238-.455,1.328a1.4,1.4,0,0,1-.188,0h-8.652a.174.174,0,0,0,0,.345Z" transform="translate(-250.107 -382.312)" fill="#407bff"/>
    <g id="Group_284" data-name="Group 284" transform="translate(61.801 7.445)" opacity="0.2">
      <path id="Path_4321" data-name="Path 4321" d="M312.061,392.275c1.816,0,6.924.031,8.742,0,1.243-.022,1.311-2.408.09-2.492-.842-.059-1.726,0-2.579,0h-6.253a.174.174,0,0,0,0,.345h8.453c.4,0,.685,0,.842.474.132.407.09,1.238-.455,1.328a1.4,1.4,0,0,1-.188,0h-8.652a.174.174,0,0,0,0,.345Z" transform="translate(-311.909 -389.757)" fill="#fff"/>
    </g>
    <path id="Path_4322" data-name="Path 4322" d="M308.59,398.92v1.67a.16.16,0,0,0,0,.317H310.5V398.6H308.59a.16.16,0,0,0,0,.32Z" transform="translate(-247.605 -388.674)" fill="#407bff"/>
    <path id="Path_4323" data-name="Path 4323" d="M308.59,398.92v1.67a.16.16,0,0,0,0,.317H310.5V398.6H308.59a.16.16,0,0,0,0,.32Z" transform="translate(-247.605 -388.674)" fill="#fff" opacity="0.3"/>
    <rect id="Rectangle_478" data-name="Rectangle 478" width="1.482" height="1.667" transform="translate(60.996 10.249)" fill="#407bff"/>
    <rect id="Rectangle_479" data-name="Rectangle 479" width="1.482" height="1.667" transform="translate(60.996 10.249)" fill="#fff" opacity="0.6"/>
    <path id="Path_4324" data-name="Path 4324" d="M313.21,399.17h8.184c.354,0,.64.446.64.993s-.281.994-.64.994H313.21Z" transform="translate(-251.044 -389.084)" fill="#407bff"/>
    <path id="Path_4325" data-name="Path 4325" d="M313.21,399.17h8.184c.354,0,.64.446.64.993s-.281.994-.64.994H313.21Z" transform="translate(-251.044 -389.084)" fill="#fff" opacity="0.9"/>
    <path id="Path_4326" data-name="Path 4326" d="M312.8,400.846c1.684,0,6.413.031,8.1,0,1.151-.02,1.212-2.228.084-2.307-.789-.053-1.6,0-2.388,0H312.8a.16.16,0,1,0,0,.32h7.83c.368,0,.631,0,.775.441.123.376.084,1.145-.421,1.229a1.162,1.162,0,0,1-.171,0H312.8a.16.16,0,0,0,0,.317Z" transform="translate(-250.634 -388.613)" fill="#407bff"/>
    <path id="Path_4327" data-name="Path 4327" d="M305.15,407.07v1.987a.191.191,0,0,0,0,.379h2.27V406.68h-2.27a.2.2,0,1,0,0,.39Z" transform="translate(-245.105 -394.486)" fill="#407bff"/>
    <path id="Path_4328" data-name="Path 4328" d="M305.15,407.07v1.987a.191.191,0,0,0,0,.379h2.27V406.68h-2.27a.2.2,0,1,0,0,.39Z" transform="translate(-245.105 -394.486)" fill="#fff" opacity="0.3"/>
    <rect id="Rectangle_480" data-name="Rectangle 480" width="1.765" height="1.984" transform="translate(60.045 12.587)" fill="#407bff"/>
    <rect id="Rectangle_481" data-name="Rectangle 481" width="1.765" height="1.984" transform="translate(60.045 12.587)" fill="#fff" opacity="0.6"/>
    <path id="Path_4329" data-name="Path 4329" d="M310.61,407.4h9.741c.421,0,.761.528.761,1.182s-.34,1.184-.761,1.184H310.61Z" transform="translate(-249.173 -395.004)" fill="#407bff"/>
    <path id="Path_4330" data-name="Path 4330" d="M310.61,407.4h9.741c.421,0,.761.528.761,1.182s-.34,1.184-.761,1.184H310.61Z" transform="translate(-249.173 -395.004)" fill="#fff" opacity="0.9"/>
    <path id="Path_4331" data-name="Path 4331" d="M310.166,409.391c2,0,7.634.036,9.635,0,1.372-.022,1.445-2.652.1-2.745-.937-.065-1.9,0-2.843,0h-6.893a.191.191,0,0,0,0,.379h9.318c.441,0,.755,0,.923.525.149.449.1,1.364-.5,1.462a1.248,1.248,0,0,1-.2,0H310.16a.191.191,0,0,0,0,.379Z" transform="translate(-248.729 -394.441)" fill="#407bff"/>
    <g id="Group_285" data-name="Group 285" transform="translate(61.263 12.177)" opacity="0.2">
      <path id="Path_4332" data-name="Path 4332" d="M310.166,409.391c2,0,7.634.036,9.635,0,1.372-.022,1.445-2.652.1-2.745-.937-.065-1.9,0-2.843,0h-6.893a.191.191,0,0,0,0,.379h9.318c.441,0,.755,0,.923.525.149.449.1,1.364-.5,1.462a1.248,1.248,0,0,1-.2,0H310.16a.191.191,0,0,0,0,.379Z" transform="translate(-309.992 -406.618)"/>
    </g>
    <path id="Path_4333" data-name="Path 4333" d="M92.3,400.35l2.666-4.182,4.636-1.5,6.514,1.019.39,3.893-3.23.612-2.776-.421-1.544-.6L97.178,400.7l-2.473.429-1.645-.208Z" transform="translate(-92.132 -385.847)" fill="#407bff"/>
    <path id="Path_4334" data-name="Path 4334" d="M92.3,400.35l2.666-4.182,4.636-1.5,6.514,1.019.39,3.893-3.23.612-2.776-.421-1.544-.6L97.178,400.7l-2.473.429-1.645-.208Z" transform="translate(-92.132 -385.847)" opacity="0.1"/>
    <path id="Path_4335" data-name="Path 4335" d="M114.416,394.81l-.474,4.779-1.072-.418-1.229,1.052,1.047-5.285.828-.269Z" transform="translate(-106.044 -385.847)" opacity="0.2"/>
    <path id="Path_4336" data-name="Path 4336" d="M91.7,411.377s4.611,1.917,6.968-1.4c0,0,4.83,2.369,7.406-.028l-.446-.73s-1.252,2.049-7.154-.146a5.718,5.718,0,0,1-6.606,1.645Z" transform="translate(-91.7 -396.205)" fill="#407bff"/>
    <path id="Path_4337" data-name="Path 4337" d="M91.7,411.377s4.611,1.917,6.968-1.4c0,0,4.83,2.369,7.406-.028l-.446-.73s-1.252,2.049-7.154-.146a5.718,5.718,0,0,1-6.606,1.645Z" transform="translate(-91.7 -396.205)" fill="#fff" opacity="0.8"/>
    <path id="Path_4338" data-name="Path 4338" d="M104.05,395l3.343-2.683,4.718-.261,6.034,2.018-.37,3.045-3.2-.152L112,396.124l-1.361-.752-1.99.822-2.447-.14-1.53-.474Z" transform="translate(-100.584 -383.969)" fill="#407bff"/>
    <path id="Path_4339" data-name="Path 4339" d="M104.05,395l3.343-2.683,4.718-.261,6.034,2.018-.37,3.045-3.2-.152L112,396.124l-1.361-.752-1.99.822-2.447-.14-1.53-.474Z" transform="translate(-100.584 -383.969)" opacity="0.1"/>
    <path id="Path_4340" data-name="Path 4340" d="M126.3,392.338l-1.364,3.556-.946-.522-1.375.567,2.007-3.834.842-.045Z" transform="translate(-113.942 -383.969)" opacity="0.2"/>
    <path id="Path_4341" data-name="Path 4341" d="M103,403.032s4.044,2.343,6.929.255c0,0,4.168,2.728,7.084,1.386l-.281-.64s-1.586,1.325-6.811-1.473a6.559,6.559,0,0,1-6.626,0Z" transform="translate(-99.829 -391.522)" fill="#407bff"/>
    <path id="Path_4342" data-name="Path 4342" d="M103,403.032s4.044,2.343,6.929.255c0,0,4.168,2.728,7.084,1.386l-.281-.64s-1.586,1.325-6.811-1.473a6.559,6.559,0,0,1-6.626,0Z" transform="translate(-99.829 -391.522)" fill="#fff" opacity="0.8"/>
    <path id="Path_4343" data-name="Path 4343" d="M243.51,366.141l14.785.629s-.267-1.81-.46-1.858-2.621-2.141-5.453-1.145c-.617.213-1.066.379-1.386.5-.309-.146-.741-.345-1.339-.615-2.739-1.232-5.332.648-5.534.679S243.51,366.141,243.51,366.141Z" transform="translate(-200.905 -363.23)" fill="#407bff"/>
    <path id="Path_4344" data-name="Path 4344" d="M243.51,366.162l14.785.629v-.045c-.045-.281-.281-1.768-.455-1.813l-.034-.017c-.345-.188-2.694-2.088-5.417-1.123-.62.216-1.069.379-1.389.5-.309-.149-.741-.348-1.339-.617-2.739-1.232-5.332.648-5.532.679S243.51,366.162,243.51,366.162Z" transform="translate(-200.905 -363.252)" fill="#fff" opacity="0.6"/>
    <path id="Path_4345" data-name="Path 4345" d="M237.49,366.385l14.964.634a7.453,7.453,0,0,0-.466-1.88c-.185-.048-2.663-1.892-5.529-.884a4.822,4.822,0,0,0-1.431,1.137,4.781,4.781,0,0,0-1.33-1.255c-2.77-1.246-5.386.379-5.588.413S237.49,366.385,237.49,366.385Z" transform="translate(-196.574 -363.545)" fill="#407bff"/>
    <path id="Path_4346" data-name="Path 4346" d="M237.49,366.385l14.964.634a7.453,7.453,0,0,0-.466-1.88c-.185-.048-2.663-1.892-5.529-.884a4.822,4.822,0,0,0-1.431,1.137,4.781,4.781,0,0,0-1.33-1.255c-2.77-1.246-5.386.379-5.588.413S237.49,366.385,237.49,366.385Z" transform="translate(-196.574 -363.545)" fill="#fff" opacity="0.8"/>
    <path id="Path_4347" data-name="Path 4347" d="M262.278,371.58l.438.881-1.125-.048Z" transform="translate(-213.911 -369.237)" fill="#407bff"/>
    <g id="Group_286" data-name="Group 286" transform="translate(47.679 2.343)" opacity="0.3">
      <path id="Path_4348" data-name="Path 4348" d="M262.278,371.58l.438.881-1.125-.048Z" transform="translate(-261.59 -371.58)"/>
    </g>
    <path id="Path_4349" data-name="Path 4349" d="M289.22,368.94a3.533,3.533,0,0,1,.213.651c.115.561.233,1.221.233,1.221l1.51.065v-.045c-.045-.281-.281-1.768-.455-1.813l-.034-.017Z" transform="translate(-233.786 -367.338)" opacity="0.1"/>
    <path id="Path_4350" data-name="Path 4350" d="M235.37,373.744l7.331.494h.017a.822.822,0,0,1,1.092.045l.014.014,7.561.222,1.908.059-.115-.66-9.32-.4a.822.822,0,0,0-1.123-.048l-7.151-.314Z" transform="translate(-195.049 -370.373)" fill="#263238"/>
    <g id="Group_287" data-name="Group 287" transform="translate(56.217 3.438)" opacity="0.3">
      <path id="Path_4351" data-name="Path 4351" d="M292.01,375.48l.121.682,1.908.059-.118-.66Z" transform="translate(-292.01 -375.48)"/>
    </g>
    <path id="Path_4352" data-name="Path 4352" d="M255.371,366.969a3.139,3.139,0,0,0-2.5-1.184A3.934,3.934,0,0,1,255.371,366.969Z" transform="translate(-207.638 -365.055)" fill="#407bff"/>
    <path id="Path_4353" data-name="Path 4353" d="M255.371,366.969a3.139,3.139,0,0,0-2.5-1.184A3.934,3.934,0,0,1,255.371,366.969Z" transform="translate(-207.638 -365.055)" fill="#fff" opacity="0.4"/>
    <path id="Path_4354" data-name="Path 4354" d="M271.46,371.751a3.138,3.138,0,0,1,2.767,0A3.9,3.9,0,0,0,271.46,371.751Z" transform="translate(-221.011 -369.113)" fill="#407bff"/>
    <path id="Path_4355" data-name="Path 4355" d="M271.46,371.751a3.138,3.138,0,0,1,2.767,0A3.9,3.9,0,0,0,271.46,371.751Z" transform="translate(-221.011 -369.113)" fill="#fff" opacity="0.4"/>
    <path id="Path_4356" data-name="Path 4356" d="M266.34,368.535a3.142,3.142,0,0,1,2.647-.805A3.931,3.931,0,0,0,266.34,368.535Z" transform="translate(-217.328 -366.41)" fill="#407bff"/>
    <path id="Path_4357" data-name="Path 4357" d="M266.34,368.535a3.142,3.142,0,0,1,2.647-.805A3.931,3.931,0,0,0,266.34,368.535Z" transform="translate(-217.328 -366.41)" fill="#fff" opacity="0.4"/>
    <path id="Path_4358" data-name="Path 4358" d="M248.186,368.439a3.14,3.14,0,0,0-2.756-.253A3.926,3.926,0,0,1,248.186,368.439Z" transform="translate(-202.286 -366.623)" fill="#407bff"/>
    <path id="Path_4359" data-name="Path 4359" d="M248.186,368.439a3.14,3.14,0,0,0-2.756-.253A3.926,3.926,0,0,1,248.186,368.439Z" transform="translate(-202.286 -366.623)" fill="#fff" opacity="0.4"/>
  </g>
  <g id="freepik--Globe--inject-3" transform="translate(83.984 75.16)">
    <path id="Path_4360" data-name="Path 4360" d="M306.255,363.756a7.608,7.608,0,0,1-1.457.146,7.488,7.488,0,0,1-5.332-2.192l-.216.219a7.8,7.8,0,0,0,5.543,2.268,7.955,7.955,0,0,0,1.535-.154.362.362,0,0,1-.09-.241A.439.439,0,0,1,306.255,363.756Z" transform="translate(-299.25 -350.793)" fill="#407bff"/>
    <rect id="Rectangle_482" data-name="Rectangle 482" width="1.49" height="4.308" transform="matrix(1, -0.003, 0.003, 1, 6.426, 12.722)" fill="#407bff"/>
    <g id="Group_288" data-name="Group 288" transform="translate(6.426 12.718)" opacity="0.2">
      <rect id="Rectangle_483" data-name="Rectangle 483" width="1.49" height="4.308" transform="matrix(1, -0.003, 0.003, 1, 0, 0.004)"/>
    </g>
    <path id="Path_4361" data-name="Path 4361" d="M308.69,384.546c0-1.123,2.021-2.038,4.521-2.046s4.53.9,4.533,2.021h0a16.931,16.931,0,0,1-8.941.056Z" transform="translate(-306.041 -365.748)" fill="#407bff"/>
    <rect id="Rectangle_484" data-name="Rectangle 484" width="15.335" height="0.309" transform="matrix(0.703, -0.712, 0.712, 0.703, 0.517, 11.292)" fill="#407bff"/>
    <path id="Path_4362" data-name="Path 4362" d="M330.57,328.35a7.785,7.785,0,0,0-2.313-5.54l-.216.219a7.535,7.535,0,0,1-3.834,12.744.432.432,0,0,0,0,.059.362.362,0,0,0,.09.241,7.858,7.858,0,0,0,6.284-7.709Z" transform="translate(-317.202 -322.81)" fill="#407bff"/>
    <path id="Path_4363" data-name="Path 4363" d="M310.6,333.554a5.582,5.582,0,1,1-.14-7.895,5.582,5.582,0,0,1,.14,7.895Z" transform="translate(-300.509 -323.734)" fill="#407bff"/>
    <path id="Path_4364" data-name="Path 4364" d="M327.94,335.68l-.18-.174a6.873,6.873,0,0,0,1.838-5.84l.244-.056A7.14,7.14,0,0,1,327.94,335.68Z" transform="translate(-319.759 -327.702)" fill="#407bff"/>
    <path id="Path_4365" data-name="Path 4365" d="M307.44,352.467l.051-.247a6.864,6.864,0,0,0,5.77-2.04l.182.174A7.141,7.141,0,0,1,307.44,352.467Z" transform="translate(-305.142 -342.499)" fill="#407bff"/>
    <path id="Path_4366" data-name="Path 4366" d="M313.632,331.318l-.182-.174a7.133,7.133,0,0,1,6-2.113l-.051.244A6.872,6.872,0,0,0,313.632,331.318Z" transform="translate(-309.465 -327.218)" fill="#407bff"/>
    <path id="Path_4367" data-name="Path 4367" d="M306.767,342.44a7.114,7.114,0,0,1,1.9-6.07l.18.174a6.87,6.87,0,0,0-1.838,5.84Z" transform="translate(-304.564 -332.564)" fill="#407bff"/>
    <rect id="Rectangle_485" data-name="Rectangle 485" width="11.164" height="0.253" transform="matrix(0.695, -0.719, 0.719, 0.695, 2.117, 9.891)" fill="#407bff"/>
    <rect id="Rectangle_486" data-name="Rectangle 486" width="0.253" height="9.452" transform="matrix(0.695, -0.719, 0.719, 0.695, 4.664, 0.631)" fill="#407bff"/>
    <rect id="Rectangle_487" data-name="Rectangle 487" width="0.253" height="11.161" transform="matrix(0.695, -0.719, 0.719, 0.695, 1.918, 2.244)" fill="#407bff"/>
    <rect id="Rectangle_488" data-name="Rectangle 488" width="0.253" height="9.202" transform="matrix(0.695, -0.719, 0.719, 0.695, 0.493, 5.13)" fill="#407bff"/>
    <g id="Group_289" data-name="Group 289" transform="translate(0.493 0.449)" opacity="0.2">
      <path id="Path_4368" data-name="Path 4368" d="M327.94,335.68l-.18-.174a6.873,6.873,0,0,0,1.838-5.84l.244-.056A7.14,7.14,0,0,1,327.94,335.68Z" transform="translate(-320.252 -328.151)"/>
      <path id="Path_4369" data-name="Path 4369" d="M307.44,352.467l.051-.247a6.864,6.864,0,0,0,5.77-2.04l.182.174A7.141,7.141,0,0,1,307.44,352.467Z" transform="translate(-305.634 -342.948)"/>
      <path id="Path_4370" data-name="Path 4370" d="M313.632,331.318l-.182-.174a7.133,7.133,0,0,1,6-2.113l-.051.244A6.872,6.872,0,0,0,313.632,331.318Z" transform="translate(-309.958 -327.667)"/>
      <path id="Path_4371" data-name="Path 4371" d="M306.767,342.44a7.114,7.114,0,0,1,1.9-6.07l.18.174a6.87,6.87,0,0,0-1.838,5.84Z" transform="translate(-305.057 -333.013)"/>
      <rect id="Rectangle_489" data-name="Rectangle 489" width="11.164" height="0.253" transform="matrix(0.695, -0.719, 0.719, 0.695, 1.624, 9.442)"/>
      <rect id="Rectangle_490" data-name="Rectangle 490" width="0.253" height="9.452" transform="matrix(0.695, -0.719, 0.719, 0.695, 4.171, 0.182)"/>
      <rect id="Rectangle_491" data-name="Rectangle 491" width="0.253" height="11.161" transform="matrix(0.695, -0.719, 0.719, 0.695, 1.425, 1.795)"/>
      <rect id="Rectangle_492" data-name="Rectangle 492" width="0.253" height="9.202" transform="matrix(0.695, -0.719, 0.719, 0.695, 0, 4.681)"/>
    </g>
  </g>
</svg>
