<svg id="Media_player-amico" data-name="Media player-amico" xmlns="http://www.w3.org/2000/svg" width="120.453" height="125.947" viewBox="0 0 120.453 125.947">
  <g id="freepik--Floor--inject-40" transform="translate(0 56.404)">
    <ellipse id="Ellipse_1886" data-name="Ellipse 1886" cx="60.227" cy="34.772" rx="60.227" ry="34.772" fill="#f5f5f5"/>
  </g>
  <g id="freepik--Shadows--inject-40" transform="translate(19.798 69.929)">
    <path id="Path_4372" data-name="Path 4372" d="M119.54,394.6l14.126-8.157a.77.77,0,0,0,0-1.33l-14.126-8.157a2.141,2.141,0,0,0-2.133,0l-14.126,8.157a.77.77,0,0,0,0,1.33l14.126,8.157A2.141,2.141,0,0,0,119.54,394.6Z" transform="translate(-102.898 -350.5)" fill="#e0e0e0"/>
    <path id="Path_4373" data-name="Path 4373" d="M165.388,314.176l29.305-16.921a1.053,1.053,0,0,0,0-1.822l-23.429-13.665a2.454,2.454,0,0,0-2.473,0l-29.3,16.916a1.053,1.053,0,0,0,0,1.822l23.432,13.665A2.454,2.454,0,0,0,165.388,314.176Z" transform="translate(-129.055 -281.433)" fill="#e0e0e0"/>
    <ellipse id="Ellipse_1887" data-name="Ellipse 1887" cx="13.151" cy="7.591" rx="13.151" ry="7.591" transform="translate(46.675 24.891)" fill="#e0e0e0"/>
  </g>
  <g id="freepik--Pictures--inject-40" transform="translate(11.133 14.044)">
    <path id="Path_4374" data-name="Path 4374" d="M84.882,138.14v13.027L73.6,157.683v-13.03l11.282-6.514Z" transform="translate(-72.987 -121.636)" fill="#fafafa"/>
    <path id="Path_4375" data-name="Path 4375" d="M82.044,137.908v11.625l-10.062,5.8V143.718l10.062-5.81m.61-1.058L71.37,143.366V156.4l.613.352,11.282-6.514V137.216l-.61-.355Z" transform="translate(-71.37 -120.701)" fill="#e0e0e0"/>
    <path id="Path_4376" data-name="Path 4376" d="M84.272,139.2v11.617L74.21,156.625v-11.62l10.062-5.8m.61-1.058L73.6,144.654v13.027l11.282-6.514V138.14Z" transform="translate(-72.987 -121.636)" fill="#ebebeb"/>
    <path id="Path_4377" data-name="Path 4377" d="M86.106,169.152,77.57,174.08l2.52-6.563,1.748,2.075,1.784-2.542Z" transform="translate(-75.866 -142.601)" fill="#e0e0e0"/>
    <ellipse id="Ellipse_1888" data-name="Ellipse 1888" cx="1.102" cy="0.635" rx="1.102" ry="0.635" transform="translate(5.399 23.544) rotate(-60)" fill="#e0e0e0"/>
    <path id="Path_4378" data-name="Path 4378" d="M104.63,79.11V89.49l-8.99,5.189V84.3l8.99-5.192Z" transform="translate(-88.97 -78.83)" fill="#fafafa"/>
    <path id="Path_4379" data-name="Path 4379" d="M102.373,78.934V88.19l-8.017,4.625V83.562l8.017-4.628m.486-.844-8.99,5.2V93.665l.486.275,8.99-5.189V78.373l-.486-.275Z" transform="translate(-87.686 -78.09)" fill="#e0e0e0"/>
    <path id="Path_4380" data-name="Path 4380" d="M104.143,79.946V89.2l-8.017,4.628V84.569l8.017-4.628m.486-.841-8.99,5.194V94.672l8.99-5.189V79.105Z" transform="translate(-88.97 -78.822)" fill="#ebebeb"/>
    <path id="Path_4381" data-name="Path 4381" d="M105.609,103.824l-6.8,3.927,2.006-5.227,1.393,1.652,1.421-2.026Z" transform="translate(-91.269 -95.538)" fill="#e0e0e0"/>
    <path id="Path_4382" data-name="Path 4382" d="M111.722,95.207a1.374,1.374,0,0,1-.621,1.075c-.344.2-.621.036-.621-.36a1.374,1.374,0,0,1,.621-1.075C111.447,94.649,111.722,94.812,111.722,95.207Z" transform="translate(-99.731 -90.181)" fill="#e0e0e0"/>
  </g>
  <g id="freepik--Character--inject-40" transform="translate(34.406 36.852)">
    <path id="Path_4383" data-name="Path 4383" d="M226.71,388.33V390.3a.55.55,0,0,0,.327.456,1.734,1.734,0,0,0,1.578,0,.55.55,0,0,0,.327-.456V388.33Z" transform="translate(-207.29 -325.875)" fill="#ebebeb"/>
    <path id="Path_4384" data-name="Path 4384" d="M326.05,331v1.965a.55.55,0,0,0,.327.456,1.753,1.753,0,0,0,1.578,0,.55.55,0,0,0,.327-.456V331Z" transform="translate(-279.329 -284.301)" fill="#ebebeb"/>
    <path id="Path_4385" data-name="Path 4385" d="M166.49,353.41v1.968a.55.55,0,0,0,.327.456,1.753,1.753,0,0,0,1.578,0,.55.55,0,0,0,.327-.456V353.41Z" transform="translate(-163.621 -300.552)" fill="#ebebeb"/>
    <path id="Path_4386" data-name="Path 4386" d="M189.458,202.85l-22.558,12.3v21.4l27.978-15Z" transform="translate(-163.918 -191.37)" fill="#455a64"/>
    <path id="Path_4387" data-name="Path 4387" d="M263.988,213.129h0l-1.41-.811L248.9,204.5a.778.778,0,0,1-.049-1.322l.885-.594-1.1-7.561a3.479,3.479,0,0,0-1.649-2.474l-2.015-1.209a.64.64,0,0,0-.967.55v27.541a2.671,2.671,0,0,0,1.374,2.331l19.021,10.622a1.042,1.042,0,0,0,1.011,0h0l.074-.041a1.055,1.055,0,0,0,.5-.9V216.586A3.993,3.993,0,0,0,263.988,213.129Z" transform="translate(-219.836 -182.961)" fill="#455a64"/>
    <path id="Path_4388" data-name="Path 4388" d="M156.05,204.833v-.19a2.578,2.578,0,0,1,1.283-2.229l21.789-12.659a1.558,1.558,0,0,1,1.589,0l2.358,1.421a1.028,1.028,0,0,1,0,1.767l-22.935,13.563Z" transform="translate(-156.05 -181.717)" fill="#37474f"/>
    <path id="Path_4389" data-name="Path 4389" d="M260.35,236.8v21.613l15.193,6.951a2.18,2.18,0,0,0,1.976-.082l2.292-1.294V245.8Z" transform="translate(-231.685 -215.99)" fill="#263238"/>
    <path id="Path_4390" data-name="Path 4390" d="M209.707,321.99l12.018-6.739a3.812,3.812,0,0,0,.11-6.6l-11.961-7.239a.214.214,0,0,0-.212,0l-18.59,10.276a.212.212,0,0,0,0,.366l16.49,9.894A2.163,2.163,0,0,0,209.707,321.99Z" transform="translate(-181.372 -262.827)" fill="#263238"/>
    <path id="Path_4391" data-name="Path 4391" d="M254.57,343.08a.951.951,0,0,0,1.418.824l14.841-8.272a2.787,2.787,0,0,0,1.426-2.432V331.74l-17.018,10.24a1.275,1.275,0,0,0-.66,1.116Z" transform="translate(-227.494 -284.837)" fill="#455a64"/>
    <path id="Path_4392" data-name="Path 4392" d="M210.186,312.771l15.723-8.646a1.605,1.605,0,0,0,.08-2.765l-15.171-9.52L191.8,302.35l17.32,10.422a1.058,1.058,0,0,0,1.066,0Z" transform="translate(-181.975 -255.903)" fill="#37474f"/>
    <path id="Path_4393" data-name="Path 4393" d="M208.368,309.875l15.877-9.006L209.2,288.82,190.18,299.332l17.54,10.534A.646.646,0,0,0,208.368,309.875Z" transform="translate(-180.8 -253.713)" fill="#263238"/>
    <path id="Path_4394" data-name="Path 4394" d="M254.57,314.846v4.109a.951.951,0,0,0,1.418.824l14.951-8.49a2.616,2.616,0,0,0,1.327-2.281V303.19L255.6,313.032a2.1,2.1,0,0,0-1.031,1.814Z" transform="translate(-227.494 -264.134)" fill="#455a64"/>
    <path id="Path_4395" data-name="Path 4395" d="M209.028,285.8l15.88-8.9a1.3,1.3,0,0,0,.036-2.254L209.2,265.12,190.18,275.632l16.894,10.144A1.94,1.94,0,0,0,209.028,285.8Z" transform="translate(-180.8 -236.527)" fill="#37474f"/>
    <path id="Path_4396" data-name="Path 4396" d="M264.938,229.26a2.377,2.377,0,0,0-2.517.08l-.844.566-.885.594a.778.778,0,0,0,.049,1.322l13.673,7.816,1.374.781c.022,0,.041.03.066.041a4.065,4.065,0,0,1,1.987,3.587v14.739a1.055,1.055,0,0,1-.5.9l3.378-1.907a2.553,2.553,0,0,0,1.3-2.223V241.265a3.589,3.589,0,0,0-1.781-3.1Z" transform="translate(-231.683 -210.288)" fill="#455a64"/>
    <path id="Path_4397" data-name="Path 4397" d="M280.224,238.17l-15.286-8.91a2.377,2.377,0,0,0-2.517.08l-.844.566-.885.594a.778.778,0,0,0,.049,1.322l13.673,7.816,1.374.781c.022,0,.041.03.066.041a3.724,3.724,0,0,1,1.534,1.649l4.136-2.647A3.614,3.614,0,0,0,280.224,238.17Z" transform="translate(-231.684 -210.288)" fill="#37474f"/>
    <path id="Path_4398" data-name="Path 4398" d="M204.09,165.656s-.6-4.576,6.931-4.576c6.277,0,6.046,6.769,2.034,8.715Z" transform="translate(-190.879 -161.08)" fill="#263238"/>
    <circle id="Ellipse_1889" data-name="Ellipse 1889" cx="2.63" cy="2.63" r="2.63" transform="translate(11.202 3.658)" fill="#263238"/>
    <path id="Path_4399" data-name="Path 4399" d="M237.192,178.363a2.116,2.116,0,1,1-2.113-2.113A2.116,2.116,0,0,1,237.192,178.363Z" transform="translate(-211.823 -172.081)" fill="#263238"/>
    <circle id="Ellipse_1890" data-name="Ellipse 1890" cx="2.63" cy="2.63" r="2.63" transform="translate(11.683 7.209)" fill="#263238"/>
    <circle id="Ellipse_1891" data-name="Ellipse 1891" cx="2.63" cy="2.63" r="2.63" transform="translate(14.61 8.85)" fill="#263238"/>
    <path id="Path_4400" data-name="Path 4400" d="M291.77,352.9l5.323,7.071-1.479,1.168a4.229,4.229,0,0,1-2.883-3.265,33.62,33.62,0,0,1-.962-4.974Z" transform="translate(-254.47 -300.182)" fill="#ffa8a7"/>
    <path id="Path_4401" data-name="Path 4401" d="M287.387,351.15s-1.476,1.338-.824,2.539,1.786,2.163,1.822,3.743.825,4.4,2.575,4.842,3.466-.165,3.433-.786a13.988,13.988,0,0,0-1.2-2.787s-1.611,1-2.8.036-1.462-5.013-1.462-5.013Z" transform="translate(-250.573 -298.913)" fill="#ba68c8"/>
    <path id="Path_4402" data-name="Path 4402" d="M287.387,351.15s-1.476,1.338-.824,2.539,1.786,2.163,1.822,3.743.825,4.4,2.575,4.842,3.466-.165,3.433-.786a13.988,13.988,0,0,0-1.2-2.787s-1.611,1-2.8.036-1.462-5.013-1.462-5.013Z" transform="translate(-250.573 -298.913)" opacity="0.2"/>
    <path id="Path_4403" data-name="Path 4403" d="M232.91,271.48s11.853,5.016,12.815,5.5,2.644,1.374,2.473,5.222-1.135,13.436-1.135,13.436l-6.5-12.5-16.784-7.987Z" transform="translate(-205.166 -241.139)" fill="#ba68c8"/>
    <path id="Path_4404" data-name="Path 4404" d="M232.91,271.48s11.853,5.016,12.815,5.5,2.644,1.374,2.473,5.222-1.135,13.436-1.135,13.436l-6.5-12.5-16.784-7.987Z" transform="translate(-205.166 -241.139)" opacity="0.5"/>
    <path id="Path_4405" data-name="Path 4405" d="M260.251,300.826c-.253,2.732-.475,4.947-.475,4.947l-6.5-12.5-11.966-5.686,2.718-2.127c3.826,1.924,9.38,4.708,11.037,5.557,2.113,1.08,2.765,4.142,4.584,8.393C259.842,299.861,260.045,300.337,260.251,300.826Z" transform="translate(-217.878 -251.276)" fill="#ba68c8"/>
    <path id="Path_4406" data-name="Path 4406" d="M260.251,300.826c-.253,2.732-.475,4.947-.475,4.947l-6.5-12.5-11.966-5.686,2.718-2.127c3.826,1.924,9.38,4.708,11.037,5.557,2.113,1.08,2.765,4.142,4.584,8.393C259.842,299.861,260.045,300.337,260.251,300.826Z" transform="translate(-217.878 -251.276)" opacity="0.7"/>
    <path id="Path_4407" data-name="Path 4407" d="M250.2,280.78l-1.223,1.85.956.146Z" transform="translate(-223.44 -247.883)" fill="#ba68c8"/>
    <path id="Path_4408" data-name="Path 4408" d="M250.2,280.78l-1.223,1.85.956.146Z" transform="translate(-223.44 -247.883)" opacity="0.7"/>
    <path id="Path_4409" data-name="Path 4409" d="M310.43,388.77a4.309,4.309,0,0,0-.17,1.715c0,1.44.55,1.712,1.278,1.971a13.97,13.97,0,0,1,3.389,2.446c.58.668,2.9,1.374,5.186.954s2.779-1.924,1.674-2.883a39.783,39.783,0,0,0-4.243-2.748Z" transform="translate(-267.878 -326.194)" fill="#ba68c8"/>
    <path id="Path_4410" data-name="Path 4410" d="M210.308,279.168l5.1-1.168s14.162,7.1,16.273,8.184,2.765,4.142,4.584,8.393c1.374,3.2,3.155,7.588,4.334,10.224a2.928,2.928,0,0,1-3.5,1.668h0c-.9-1.965-2.493-3.724-4.8-6.843a17.069,17.069,0,0,1-3.089-6.525,2.292,2.292,0,0,0-1.7-1.756c-2.339-.569-7.1-1.8-12.131-3.534C208.3,285.36,210.308,279.168,210.308,279.168Z" transform="translate(-195.206 -245.867)" fill="#ba68c8"/>
    <path id="Path_4411" data-name="Path 4411" d="M210.308,279.168l5.1-1.168s14.162,7.1,16.273,8.184,2.765,4.142,4.584,8.393c1.374,3.2,3.155,7.588,4.334,10.224a2.928,2.928,0,0,1-3.5,1.668h0c-.9-1.965-2.493-3.724-4.8-6.843a17.069,17.069,0,0,1-3.089-6.525,2.292,2.292,0,0,0-1.7-1.756c-2.339-.569-7.1-1.8-12.131-3.534C208.3,285.36,210.308,279.168,210.308,279.168Z" transform="translate(-195.206 -245.867)" opacity="0.5"/>
    <path id="Path_4412" data-name="Path 4412" d="M311.989,375.48c.388.868.712,1.547.932,1.924.888,1.545,3.482,3.218,4.4,4.007s1.1,1.1.236,1.759c-2.2,1.693-4.122-.154-5.359-1.338a15.412,15.412,0,0,0-2.713-1.984.55.55,0,0,1-.275-.388,9.179,9.179,0,0,0-.717-2.32h0A2.92,2.92,0,0,0,311.989,375.48Z" transform="translate(-266.595 -316.556)" fill="#ffa8a7"/>
    <path id="Path_4413" data-name="Path 4413" d="M230.68,276.976l8.918,5.148,14.824-8.572-8.916-5.252Z" transform="translate(-210.169 -238.833)" fill="#ebebeb"/>
    <path id="Path_4414" data-name="Path 4414" d="M254.107,286.251l3.345-1.932-2.1-1.209-3.345,1.932Z" transform="translate(-225.637 -249.572)" fill="#e0e0e0"/>
    <path id="Path_4415" data-name="Path 4415" d="M252.617,292.861l-4.507-2.652,8.806-5.329Z" transform="translate(-222.809 -250.856)" fill="#e0e0e0"/>
    <path id="Path_4416" data-name="Path 4416" d="M258.687,256.05l3.573,1.671a31.768,31.768,0,0,1,3.147.973s2.473,1.017,2.594,1.682-1.863,2.267-3.6,1.487a5.733,5.733,0,0,0-1.448-.525,5.135,5.135,0,0,1-2.85-1.22l-2.888-.783S255.732,256.462,258.687,256.05Z" transform="translate(-229.142 -229.949)" fill="#ffa8a7"/>
    <path id="Path_4417" data-name="Path 4417" d="M269.571,270.821c.415.442,1.591,1.558,1.85,1.883s.863-.508-.2-1.745a9.971,9.971,0,0,1-2.57-1.4,10.352,10.352,0,0,0,.921,1.261Z" transform="translate(-237.704 -239.746)" fill="#ffa8a7"/>
    <path id="Path_4418" data-name="Path 4418" d="M237,210.8h0a3.507,3.507,0,0,1,3.875,2.35,15.44,15.44,0,0,1,.723,3.5c.311,3.674.4,5.51.4,5.51l3.691,1.674s-1.993.1-1.858,2.91l-4.6-1.16Z" transform="translate(-214.752 -197.107)" fill="#ffa8a7"/>
    <path id="Path_4419" data-name="Path 4419" d="M241.705,217.953q-.049-.6-.107-1.294a15.44,15.44,0,0,0-.723-3.5A3.507,3.507,0,0,0,237,210.8l1.349,8.962Z" transform="translate(-214.752 -197.107)" fill="#ba68c8"/>
    <path id="Path_4420" data-name="Path 4420" d="M241.705,217.953q-.049-.6-.107-1.294a15.44,15.44,0,0,0-.723-3.5A3.507,3.507,0,0,0,237,210.8l1.349,8.962Z" transform="translate(-214.752 -197.107)" opacity="0.2"/>
    <path id="Path_4421" data-name="Path 4421" d="M252.269,251.139a2.561,2.561,0,0,0-1.1.671,2.691,2.691,0,0,1,1.069-1.1Z" transform="translate(-225.028 -226.077)" fill="#f28f8f"/>
    <path id="Path_4422" data-name="Path 4422" d="M208.972,212.372l-2.592,1.1v7.594a16.82,16.82,0,0,1,1.3,6.129v3.76s5.293,1.885,9.4-.154a8.734,8.734,0,0,0,3.218-3.246s-2.2-1.286-2.2-2.858a21.849,21.849,0,0,1,.437-3.655,4.4,4.4,0,0,0,1.261-3.683c-.291-2.506-5.01-6.448-5.01-6.448l-1.759.242Z" transform="translate(-192.548 -197.215)" fill="#ba68c8"/>
    <path id="Path_4423" data-name="Path 4423" d="M215.81,200.037l4.065-1.217V193.9H215.81Z" transform="translate(-199.386 -184.88)" fill="#ffa8a7"/>
    <path id="Path_4424" data-name="Path 4424" d="M220.738,198.8A6.544,6.544,0,0,1,217,195.244V193.87h3.738Z" transform="translate(-200.249 -184.858)" fill="#f28f8f"/>
    <path id="Path_4425" data-name="Path 4425" d="M218.524,169.425s3.718.217,3.257,6.574c-.212,2.941-.9,4.463-3.163,4.351-2.564-.126-6.206-1.888-5.967-6.918S218.524,169.425,218.524,169.425Z" transform="translate(-197.087 -167.069)" fill="#ffa8a7"/>
    <path id="Path_4426" data-name="Path 4426" d="M212.3,174.531s1.02.275,1.02-1.193a6.262,6.262,0,0,0,5.53-4.8s-.448-1.347-3.276-1.347a4.657,4.657,0,0,0-4.466,5.939Z" transform="translate(-195.879 -165.511)" fill="#263238"/>
    <path id="Path_4427" data-name="Path 4427" d="M235.99,188.93v2.185l1.278-.393Z" transform="translate(-214.02 -181.276)" fill="#f28f8f"/>
    <path id="Path_4428" data-name="Path 4428" d="M229,188.6a.445.445,0,1,0,.445-.445A.445.445,0,0,0,229,188.6Z" transform="translate(-208.951 -180.71)" fill="#263238"/>
    <path id="Path_4429" data-name="Path 4429" d="M239.64,187.475a.445.445,0,1,0,.445-.445A.445.445,0,0,0,239.64,187.475Z" transform="translate(-216.667 -179.898)" fill="#263238"/>
    <path id="Path_4430" data-name="Path 4430" d="M240.931,183.367l-.871-.517s.335-.346.668-.137A.6.6,0,0,1,240.931,183.367Z" transform="translate(-216.971 -176.719)" fill="#263238"/>
    <path id="Path_4431" data-name="Path 4431" d="M231.787,198.5a2.265,2.265,0,0,1-1.432-.385s-.1.756.533.9A.82.82,0,0,0,231.787,198.5Z" transform="translate(-209.93 -187.94)" fill="#f28f8f"/>
    <path id="Path_4432" data-name="Path 4432" d="M210.6,189.61a2.473,2.473,0,0,0-.2-1.08,1.141,1.141,0,0,0-.989-.772,1.285,1.285,0,0,0-1.281,1.459,2.34,2.34,0,0,0,2.421,2.179Z" transform="translate(-193.814 -180.426)" fill="#ffa8a7"/>
    <path id="Path_4433" data-name="Path 4433" d="M219.875,211.8l1.2,1.558a1.514,1.514,0,0,1-.5,2.267h0a2.589,2.589,0,0,1-3.221-.676l-1.545-1.924Z" transform="translate(-199.386 -197.861)" fill="#ffa8a7"/>
    <path id="Path_4434" data-name="Path 4434" d="M225.486,280l3.4,1.85a10.087,10.087,0,0,1,1.564,0c.6.071,2.2.363,2.608.382s.016.789-1.064.72c0,0,2.438,1.116,2.523,1.786s-1.954,2.2-3.658,1.338a5.517,5.517,0,0,0-1.424-.585,5.074,5.074,0,0,1-2.8-1.338l-2.85-.91S222.518,280.294,225.486,280Z" transform="translate(-204.976 -247.317)" fill="#ffa8a7"/>
    <path id="Path_4435" data-name="Path 4435" d="M198.048,220.24s2.064,1.426,1.72,5.81a51.576,51.576,0,0,0,0,7.989l4.958,2.625a3.787,3.787,0,0,0-1.7,3.243s-7.129-1.468-7.555-3.128-.583-9.6-.583-10.993S195.47,221.345,198.048,220.24Z" transform="translate(-184.216 -203.981)" fill="#ffa8a7"/>
    <path id="Path_4436" data-name="Path 4436" d="M194.89,225.8c0,.585.03,2.347.093,4.309a6.635,6.635,0,0,0,4.631.137h0c0-1.223.033-2.663.154-4.2.344-4.384-1.72-5.81-1.72-5.81C195.47,221.345,194.89,224.417,194.89,225.8Z" transform="translate(-184.216 -203.981)" fill="#ba68c8"/>
    <path id="Path_4437" data-name="Path 4437" d="M194.89,225.8c0,.585.03,2.347.093,4.309a6.635,6.635,0,0,0,4.631.137h0c0-1.223.033-2.663.154-4.2.344-4.384-1.72-5.81-1.72-5.81C195.47,221.345,194.89,224.417,194.89,225.8Z" transform="translate(-184.216 -203.981)" opacity="0.2"/>
    <path id="Path_4438" data-name="Path 4438" d="M208.414,269.406a3.988,3.988,0,0,0-1.594.291,3.425,3.425,0,0,1,1.564-.687Z" transform="translate(-192.867 -239.347)" fill="#f28f8f"/>
    <path id="Path_4439" data-name="Path 4439" d="M279.832,250.285,278.3,260.432v.016l-15.391,8.929a.025.025,0,0,1-.036-.025l1.5-9.839a1.47,1.47,0,0,1,.682-1.022l14.091-8.665a.456.456,0,0,1,.687.459Z" transform="translate(-233.512 -225.388)" fill="#fafafa"/>
    <path id="Path_4440" data-name="Path 4440" d="M239.566,305.716l-8.212-4.763a1.259,1.259,0,0,1-.624-1.083h0l8.918,5.148Z" transform="translate(-210.206 -261.726)" fill="#e0e0e0"/>
    <path id="Path_4441" data-name="Path 4441" d="M292.16,281.644c0,.723.511,1.017,1.138.654a2.512,2.512,0,0,0,1.135-1.968c0-.726-.508-1.017-1.135-.657a2.52,2.52,0,0,0-1.138,1.971Z" transform="translate(-254.753 -246.968)" fill="#e0e0e0"/>
    <path id="Path_4442" data-name="Path 4442" d="M224.447,245.83s-3.108.846-4.757-1.49C219.69,244.34,220.756,247.355,224.447,245.83Z" transform="translate(-202.2 -221.458)" opacity="0.2"/>
    <path id="Path_4443" data-name="Path 4443" d="M199.241,169.268s-.756-1.924-1.209-1.69.467,1.454.467,1.454-1.545-.6-1.674-.247,1.973,1.163,1.973,1.163Z" transform="translate(-185.615 -165.778)" fill="#263238"/>
    <path id="Path_4444" data-name="Path 4444" d="M224.975,320.349c-.022,0-.038-.027-.06-.038l-1.374-.781,1.41.824Z" transform="translate(-204.992 -275.983)" fill="none"/>
    <path id="Path_4445" data-name="Path 4445" d="M176.047,264.762h0l-1.41-.824-13.673-7.816a.778.778,0,0,1-.047-1.322l.882-.594-1.1-7.558a3.468,3.468,0,0,0-1.649-2.473l-2.015-1.206a.638.638,0,0,0-.967.55v27.549a2.674,2.674,0,0,0,1.374,2.331l19.021,10.622a1.044,1.044,0,0,0,1.009.014h0l.074-.041a1.053,1.053,0,0,0,.489-.9V268.219A4,4,0,0,0,176.047,264.762Z" transform="translate(-156.064 -220.396)" fill="#263238"/>
    <path id="Path_4446" data-name="Path 4446" d="M176.995,280.924a2.372,2.372,0,0,0-2.517.077l-.846.566-.882.594a.778.778,0,0,0,.047,1.322l13.673,7.816,1.374.781.066.044a4.057,4.057,0,0,1,1.984,3.573v14.75a1.052,1.052,0,0,1-.5.9l3.38-1.9a2.553,2.553,0,0,0,1.3-2.226V292.926a3.573,3.573,0,0,0-1.778-3.1Z" transform="translate(-167.909 -247.752)" fill="#455a64"/>
    <path id="Path_4447" data-name="Path 4447" d="M192.281,289.834l-15.286-8.91a2.372,2.372,0,0,0-2.517.077l-.846.566-.882.594a.778.778,0,0,0,.047,1.322l13.673,7.816,1.374.781.066.044a3.738,3.738,0,0,1,1.536,1.649l4.122-2.644a3.572,3.572,0,0,0-1.286-1.294Z" transform="translate(-167.909 -247.752)" fill="#37474f"/>
  </g>
  <g id="freepik--side-table--inject-40" transform="translate(23.146 80.094)">
    <path id="Path_4448" data-name="Path 4448" d="M171.862,328.036v17.9L158.81,338.4V320.5Z" transform="translate(-146.792 -319.928)" fill="#ba68c8"/>
    <path id="Path_4449" data-name="Path 4449" d="M171.862,328.036v17.9L158.81,338.4V320.5Z" transform="translate(-146.792 -319.928)" opacity="0.4"/>
    <path id="Path_4450" data-name="Path 4450" d="M207.331,345.83v17.905l-1.031.572V346.4Z" transform="translate(-181.23 -338.297)" fill="#ba68c8"/>
    <path id="Path_4451" data-name="Path 4451" d="M128.129,353.366v17.9l-13.049-7.533V345.83Z" transform="translate(-115.08 -338.297)" fill="#ba68c8"/>
    <path id="Path_4452" data-name="Path 4452" d="M128.129,353.366v17.9l-13.049-7.533V345.83Z" transform="translate(-115.08 -338.297)" opacity="0.4"/>
    <path id="Path_4453" data-name="Path 4453" d="M163.593,371.17v17.9l-1.033.572v-17.9Z" transform="translate(-149.511 -356.673)" fill="#ba68c8"/>
    <path id="Path_4454" data-name="Path 4454" d="M162.56,354.792l13.052-7.533V345.83l-13.052,7.536Z" transform="translate(-149.511 -338.297)" fill="#ba68c8"/>
    <path id="Path_4455" data-name="Path 4455" d="M162.56,391.377l13.052-7.533V373.56L162.56,381.1Z" transform="translate(-149.511 -358.406)" fill="#ba68c8"/>
    <path id="Path_4456" data-name="Path 4456" d="M128.129,333.489l13.052-7.536-13.052-7.533-13.049,7.533Z" transform="translate(-115.08 -318.42)" fill="#ba68c8"/>
    <path id="Path_4457" data-name="Path 4457" d="M128.129,333.489l13.052-7.536-13.052-7.533-13.049,7.533Z" transform="translate(-115.08 -318.42)" opacity="0.2"/>
    <path id="Path_4458" data-name="Path 4458" d="M166.32,365.987l10.988-6.343V353.18l-10.988,6.343Z" transform="translate(-152.238 -343.627)" fill="#ba68c8"/>
    <path id="Path_4459" data-name="Path 4459" d="M166.32,365.987l10.988-6.343V353.18l-10.988,6.343Z" transform="translate(-152.238 -343.627)" fill="#fff" opacity="0.6"/>
    <path id="Path_4460" data-name="Path 4460" d="M185.9,372.42a.8.8,0,1,0,.8-.8A.8.8,0,0,0,185.9,372.42Z" transform="translate(-166.436 -356.999)" fill="#fff"/>
    <path id="Path_4461" data-name="Path 4461" d="M166.32,395.257l10.988-6.343V382.45l-10.988,6.343Z" transform="translate(-152.238 -364.853)" fill="#ba68c8"/>
    <path id="Path_4462" data-name="Path 4462" d="M166.32,395.257l10.988-6.343V382.45l-10.988,6.343Z" transform="translate(-152.238 -364.853)" fill="#fff" opacity="0.6"/>
    <path id="Path_4463" data-name="Path 4463" d="M185.9,401.69a.8.8,0,1,0,.8-.8A.8.8,0,0,0,185.9,401.69Z" transform="translate(-166.436 -378.225)" fill="#fff"/>
  </g>
  <g id="freepik--Lamp--inject-40" transform="translate(29.596 68.492)">
    <path id="Path_4464" data-name="Path 4464" d="M149.75,337.97a1.984,1.984,0,0,1,.792-.764,4.966,4.966,0,0,1,4.488,0,1.984,1.984,0,0,1,.792.764h.137v.533h0a1.57,1.57,0,0,1-.929,1.294,4.949,4.949,0,0,1-4.488,0,1.574,1.574,0,0,1-.932-1.294h0v-.533Z" transform="translate(-146.57 -320.053)" fill="#263238"/>
    <path id="Path_4465" data-name="Path 4465" d="M150.547,337.855a4.949,4.949,0,0,0,4.488,0,1.368,1.368,0,0,0,0-2.592,4.957,4.957,0,0,0-4.488,0A1.368,1.368,0,0,0,150.547,337.855Z" transform="translate(-146.575 -318.643)" fill="#37474f"/>
    <path id="Path_4466" data-name="Path 4466" d="M.618,0H.753a.621.621,0,0,1,.621.621V15.187H0V.621A.621.621,0,0,1,.621,0Z" transform="translate(6.901 17.917) rotate(180)" fill="#263238"/>
    <path id="Path_4467" data-name="Path 4467" d="M138.612,290.155h0c.019-.074.044-.151.071-.225l1.946-6.189h8.27l1.946,6.189c.027.074.052.151.071.225h0c.275,1.083-.316,2.223-1.756,3.056a9.74,9.74,0,0,1-8.795,0C138.928,292.378,138.343,291.232,138.612,290.155Z" transform="translate(-138.548 -281.669)" fill="#ba68c8"/>
    <path id="Path_4468" data-name="Path 4468" d="M138.612,290.155h0c.019-.074.044-.151.071-.225l1.946-6.189h8.27l1.946,6.189c.027.074.052.151.071.225h0c.275,1.083-.316,2.223-1.756,3.056a9.74,9.74,0,0,1-8.795,0C138.928,292.378,138.343,291.232,138.612,290.155Z" transform="translate(-138.548 -281.669)" fill="#fff" opacity="0.4"/>
    <ellipse id="Ellipse_1892" data-name="Ellipse 1892" cx="4.177" cy="2.41" rx="4.177" ry="2.41" transform="translate(2.037 0.007)" fill="#ba68c8"/>
    <path id="Path_4469" data-name="Path 4469" d="M150.141,276.21v.489a5.519,5.519,0,0,1,2.71.64,1.327,1.327,0,0,1,0,2.561,6.046,6.046,0,0,1-5.417,0,1.327,1.327,0,0,1,0-2.561,5.513,5.513,0,0,1,2.707-.64v-.492m0,0a6.046,6.046,0,0,0-2.952.706c-1.632.943-1.632,2.473,0,3.411a6.527,6.527,0,0,0,5.906,0c1.632-.94,1.632-2.473,0-3.411A6.046,6.046,0,0,0,150.141,276.207Z" transform="translate(-143.927 -276.206)" fill="#ba68c8"/>
    <path id="Path_4470" data-name="Path 4470" d="M150.141,276.21v.489a5.519,5.519,0,0,1,2.71.64,1.327,1.327,0,0,1,0,2.561,6.046,6.046,0,0,1-5.417,0,1.327,1.327,0,0,1,0-2.561,5.513,5.513,0,0,1,2.707-.64v-.492m0,0a6.046,6.046,0,0,0-2.952.706c-1.632.943-1.632,2.473,0,3.411a6.527,6.527,0,0,0,5.906,0c1.632-.94,1.632-2.473,0-3.411A6.046,6.046,0,0,0,150.141,276.207Z" transform="translate(-143.927 -276.206)" fill="#fff" opacity="0.2"/>
  </g>
  <g id="freepik--Screens--inject-40" transform="translate(62.373)">
    <path id="Path_4471" data-name="Path 4471" d="M351.114,81.711,314.333,60.475a.891.891,0,0,0-1.069,0L312,61.352l.857,1.064V92.1a3.544,3.544,0,0,0,1.476,2.82l36.418,21.016.069,1.154,1.341-.918a1.391,1.391,0,0,0,.431-1.141V84.523A3.534,3.534,0,0,0,351.114,81.711Z" transform="translate(-297.107 -51.144)" fill="#ba68c8"/>
    <path id="Path_4472" data-name="Path 4472" d="M351.114,81.711,314.333,60.475a.891.891,0,0,0-1.069,0L312,61.352l.857,1.064V92.1a3.544,3.544,0,0,0,1.476,2.82l36.418,21.016.069,1.154,1.341-.918a1.391,1.391,0,0,0,.431-1.141V84.523A3.534,3.534,0,0,0,351.114,81.711Z" transform="translate(-297.107 -51.144)" opacity="0.3"/>
    <path id="Path_4473" data-name="Path 4473" d="M348.819,119.27,312.036,98.034a3.505,3.505,0,0,1-1.476-2.82V64.708c0-1.086.662-1.586,1.476-1.1l36.783,21.233a3.511,3.511,0,0,1,1.473,2.82v30.506C350.292,119.242,349.633,119.74,348.819,119.27Z" transform="translate(-296.063 -53.409)" fill="#ba68c8"/>
    <path id="Path_4474" data-name="Path 4474" d="M375.814,133.084l2.564,1.481L360.135,89.6h0l-2.875-1.66Z" transform="translate(-329.928 -71.189)" fill="#ba68c8"/>
    <path id="Path_4475" data-name="Path 4475" d="M375.814,133.084l2.564,1.481L360.135,89.6h0l-2.875-1.66Z" transform="translate(-329.928 -71.189)" fill="#fff" opacity="0.2"/>
    <path id="Path_4476" data-name="Path 4476" d="M396.831,145.234l.893.492-18.246-44.965h0l-1.2-.671Z" transform="translate(-345.171 -80)" fill="#ba68c8"/>
    <path id="Path_4477" data-name="Path 4477" d="M396.831,145.234l.893.492-18.246-44.965h0l-1.2-.671Z" transform="translate(-345.171 -80)" fill="#fff" opacity="0.2"/>
    <path id="Path_4478" data-name="Path 4478" d="M323.57,82.267c0,.624-.44.877-.981.566a2.171,2.171,0,0,1-.978-1.682c0-.627.44-.879.978-.566A2.163,2.163,0,0,1,323.57,82.267Z" transform="translate(-304.076 -65.758)" fill="#455a64"/>
    <path id="Path_4479" data-name="Path 4479" d="M337.581,91.2a.253.253,0,0,1-.124-.033l-4.694-2.713a.247.247,0,1,1,.247-.429l4.694,2.718a.247.247,0,0,1,.091.338.245.245,0,0,1-.214.118Z" transform="translate(-312.074 -71.225)" fill="#455a64"/>
    <path id="Path_4480" data-name="Path 4480" d="M354.335,188.4a.338.338,0,0,1-.176-.047L320.53,168.93a.355.355,0,0,1,.354-.616l33.634,19.422a.355.355,0,0,1-.179.662Z" transform="translate(-303.164 -129.44)" fill="#455a64"/>
    <path id="Path_4481" data-name="Path 4481" d="M441.133,147.633a.182.182,0,0,1-.091-.025l-.9-.525a.184.184,0,0,1-.066-.253.181.181,0,0,1,.253-.069l.9.519a.184.184,0,0,1-.091.352Z" transform="translate(-389.962 -113.826)" fill="#455a64"/>
    <path id="Path_4482" data-name="Path 4482" d="M441.141,150.047a.181.181,0,0,1-.091-.025l-.9-.519a.184.184,0,0,1-.066-.253.181.181,0,0,1,.253-.069l.9.519a.184.184,0,0,1-.093.346Z" transform="translate(-389.97 -115.581)" fill="#455a64"/>
    <path id="Path_4483" data-name="Path 4483" d="M441.141,152.457a.181.181,0,0,1-.091-.025l-.9-.519a.184.184,0,0,1-.066-.253.181.181,0,0,1,.253-.069l.9.519a.184.184,0,0,1-.093.346Z" transform="translate(-389.97 -117.328)" fill="#455a64"/>
    <path id="Path_4484" data-name="Path 4484" d="M370.12,141.984v5.1a.344.344,0,0,0,.382.341l4.636-.55a.344.344,0,0,0,.2-.585l-4.636-4.559a.341.341,0,0,0-.583.25Z" transform="translate(-339.253 -110.125)" fill="#fafafa"/>
    <path id="Path_4485" data-name="Path 4485" d="M334.987,176.475l-14.132-8.16a.355.355,0,1,0-.355.616l14.486,8.366Z" transform="translate(-303.142 -129.44)" fill="#ebebeb"/>
    <path id="Path_4486" data-name="Path 4486" d="M372.077,196.564c0,.624-.437.877-.978.566a2.166,2.166,0,0,1-.978-1.7c0-.624.437-.877.978-.55A2.16,2.16,0,0,1,372.077,196.564Z" transform="translate(-339.254 -148.636)" fill="#fafafa"/>
    <path id="Path_4487" data-name="Path 4487" d="M331.79,183.758V185.1a.091.091,0,0,0,.1.088l1.218-.14a.091.091,0,0,0,.052-.154l-1.217-1.2a.091.091,0,0,0-.154.066Z" transform="translate(-311.458 -140.607)" fill="#fafafa"/>
    <path id="Path_4488" data-name="Path 4488" d="M342.71,190.428v1.341a.091.091,0,0,0,.1.088l1.22-.14a.091.091,0,0,0,.052-.154l-1.217-1.2a.091.091,0,0,0-.154.066Z" transform="translate(-319.377 -145.444)" fill="#fafafa"/>
    <path id="Path_4489" data-name="Path 4489" d="M347.51,194.142a.107.107,0,0,1-.11-.107v-1.5a.11.11,0,0,1,.22,0v1.5a.107.107,0,0,1-.11.107Z" transform="translate(-322.778 -146.962)" fill="#fafafa"/>
    <path id="Path_4490" data-name="Path 4490" d="M322.114,180.86v-1.341a.091.091,0,0,0-.1-.091l-1.22.157a.091.091,0,0,0-.052.154l1.218,1.2a.091.091,0,0,0,.157-.077Z" transform="translate(-303.426 -137.533)" fill="#fafafa"/>
    <path id="Path_4491" data-name="Path 4491" d="M320.43,178.326a.11.11,0,0,1-.11-.11V176.71a.11.11,0,0,1,.22,0v1.5a.11.11,0,0,1-.11.121Z" transform="translate(-303.14 -135.482)" fill="#fafafa"/>
    <path id="Path_4492" data-name="Path 4492" d="M438.874,244.48a.124.124,0,0,1-.124-.124v-.55a.126.126,0,0,1,.187-.107l.459.275a.124.124,0,0,1,.047.168.126.126,0,0,1-.17.047l-.275-.159v.33a.124.124,0,0,1-.124.121Z" transform="translate(-389.022 -184.13)" fill="#fafafa"/>
    <path id="Path_4493" data-name="Path 4493" d="M439.335,248.917a.135.135,0,0,1-.063-.017l-.459-.275a.124.124,0,0,1-.063-.107v-.495a.124.124,0,0,1,.247,0v.423l.4.231a.124.124,0,0,1,.047.168A.118.118,0,0,1,439.335,248.917Z" transform="translate(-389.022 -187.187)" fill="#fafafa"/>
    <path id="Path_4494" data-name="Path 4494" d="M442.849,251.7a.131.131,0,0,1-.063-.019l-.475-.275a.126.126,0,0,1-.044-.17.124.124,0,0,1,.168-.044l.291.168v-.275a.124.124,0,0,1,.247,0v.484a.121.121,0,0,1-.063.1.129.129,0,0,1-.06.027Z" transform="translate(-391.56 -189.406)" fill="#fafafa"/>
    <path id="Path_4495" data-name="Path 4495" d="M443.215,246.976a.124.124,0,0,1-.124-.124v-.467l-.275-.165a.124.124,0,0,1,.124-.214l.346.2a.121.121,0,0,1,.063.107v.55a.124.124,0,0,1-.135.113Z" transform="translate(-391.926 -185.802)" fill="#fafafa"/>
    <path id="Path_4496" data-name="Path 4496" d="M427.929,239.335a.126.126,0,0,1-.063-.017l-1.745-1.009a.129.129,0,0,1-.06-.107v-1.649a.129.129,0,0,1,.06-.107.124.124,0,0,1,.124,0l1.745,1.009a.124.124,0,0,1,.063.107v1.649A.126.126,0,0,1,427.929,239.335Zm-1.621-1.2,1.5.866v-1.374l-1.487-.871Z" transform="translate(-379.82 -178.869)" fill="#fafafa"/>
    <path id="Path_4497" data-name="Path 4497" d="M270.477,33.242l-10.746-6.162a.462.462,0,0,0-.55,0l-.651.462.442.55v7.943a1.8,1.8,0,0,0,.756,1.44l10.559,6.046.036.594.684-.47a.712.712,0,0,0,.223-.585V34.688a1.8,1.8,0,0,0-.753-1.446Z" transform="translate(-258.332 -26.99)" fill="#ba68c8"/>
    <path id="Path_4498" data-name="Path 4498" d="M270.477,33.242l-10.746-6.162a.462.462,0,0,0-.55,0l-.651.462.442.55v7.943a1.8,1.8,0,0,0,.756,1.44l10.559,6.046.036.594.684-.47a.712.712,0,0,0,.223-.585V34.688a1.8,1.8,0,0,0-.753-1.446Z" transform="translate(-258.332 -26.99)" opacity="0.3"/>
    <path id="Path_4499" data-name="Path 4499" d="M269.312,45.231l-10.746-6.162a1.8,1.8,0,0,1-.756-1.44V29.26c0-.55.338-.811.756-.569l10.746,6.159a1.811,1.811,0,0,1,.756,1.443v8.358C270.068,45.217,269.729,45.475,269.312,45.231Z" transform="translate(-257.81 -28.158)" fill="#ba68c8"/>
    <path id="Path_4500" data-name="Path 4500" d="M264.46,38.185c0,.319-.223.448-.5.275a1.1,1.1,0,0,1-.5-.868c0-.319.223-.448.5-.275A1.1,1.1,0,0,1,264.46,38.185Z" transform="translate(-261.907 -34.422)" fill="#455a64"/>
    <path id="Path_4501" data-name="Path 4501" d="M271.593,42.768a.126.126,0,0,1-.063-.016l-2.4-1.391a.126.126,0,1,1,.126-.217l2.4,1.374a.129.129,0,0,1,.047.173.132.132,0,0,1-.11.077Z" transform="translate(-265.965 -37.236)" fill="#455a64"/>
    <path id="Path_4502" data-name="Path 4502" d="M275.16,53.81V56.42a.176.176,0,0,0,.2.173l2.369-.275a.176.176,0,0,0,.1-.3l-2.369-2.333a.176.176,0,0,0-.3.124Z" transform="translate(-270.392 -46.312)" fill="#fafafa"/>
    <path id="Path_4503" data-name="Path 4503" d="M270.484,80.556l-10.746-6.162a.467.467,0,0,0-.55,0l-.649.451.442.55v7.94a1.8,1.8,0,0,0,.756,1.44L270.3,90.821l.036.591.684-.47a.712.712,0,0,0,.223-.585V82A1.806,1.806,0,0,0,270.484,80.556Z" transform="translate(-258.339 -61.301)" fill="#ba68c8"/>
    <path id="Path_4504" data-name="Path 4504" d="M270.484,80.556l-10.746-6.162a.467.467,0,0,0-.55,0l-.649.451.442.55v7.94a1.8,1.8,0,0,0,.756,1.44L270.3,90.821l.036.591.684-.47a.712.712,0,0,0,.223-.585V82A1.806,1.806,0,0,0,270.484,80.556Z" transform="translate(-258.339 -61.301)" opacity="0.3"/>
    <path id="Path_4505" data-name="Path 4505" d="M269.312,92.525l-10.746-6.162a1.811,1.811,0,0,1-.756-1.443V76.555c0-.55.338-.824.756-.569l10.746,6.162a1.8,1.8,0,0,1,.756,1.44v8.369C270.068,92.512,269.729,92.767,269.312,92.525Z" transform="translate(-257.81 -62.45)" fill="#ba68c8"/>
    <path id="Path_4506" data-name="Path 4506" d="M264.46,85.541c0,.319-.223.448-.5.289a1.1,1.1,0,0,1-.5-.868c0-.319.223-.448.5-.275A1.1,1.1,0,0,1,264.46,85.541Z" transform="translate(-261.907 -68.773)" fill="#455a64"/>
    <path id="Path_4507" data-name="Path 4507" d="M271.593,90.086a.127.127,0,0,1-.063-.016l-2.4-1.388a.126.126,0,1,1,.126-.217l2.4,1.374a.129.129,0,0,1,.047.173A.126.126,0,0,1,271.593,90.086Z" transform="translate(-265.965 -71.551)" fill="#455a64"/>
    <path id="Path_4508" data-name="Path 4508" d="M275.718,102l-2.27.459-.082,2.009a.462.462,0,1,0,.258.412h0l.132-1.839,1.649-.39.017,1.762a.459.459,0,1,0,.03.824.465.465,0,0,0,.245-.388h0Z" transform="translate(-268.608 -81.385)" fill="#fafafa"/>
  </g>
</svg>
