<svg id="Project_Stages-rafiki_1_" data-name="Project Stages-rafiki (1)" xmlns="http://www.w3.org/2000/svg" width="142" height="114.645" viewBox="0 0 142 114.645">
  <g id="freepik--background-complete--inject-23">
    <path id="Path_710" data-name="Path 710" d="M37.76,323.484l20.312-21.524a5.112,5.112,0,0,1,7.523,0l20.312,21.524Z" transform="translate(-27.036 -220.71)" fill="#f5f5f5"/>
    <path id="Path_711" data-name="Path 711" d="M122.252,301.963a5.112,5.112,0,0,0-4.771-1.548c-.758,3.056-1.247,7.512,1.531,9.593,4.45,3.337-1.059,6.765-1.059,10.122a8.571,8.571,0,0,0,.852,3.357h23.762Z" transform="translate(-83.693 -220.714)" fill="#ebebeb"/>
    <path id="Path_712" data-name="Path 712" d="M77.843,310.011H69.53V285.1l8.313-3.979Z" transform="translate(-49.784 -206.971)" fill="#f0f0f0"/>
    <rect id="Rectangle_103" data-name="Rectangle 103" width="1.551" height="1.551" transform="translate(21.195 76.837)" fill="#fff"/>
    <rect id="Rectangle_104" data-name="Rectangle 104" width="1.551" height="1.551" transform="translate(24.532 79.947)" fill="#fff"/>
    <rect id="Rectangle_105" data-name="Rectangle 105" width="1.551" height="1.551" transform="translate(21.195 83.059)" fill="#fff"/>
    <rect id="Rectangle_106" data-name="Rectangle 106" width="1.551" height="1.551" transform="translate(24.532 86.168)" fill="#fff"/>
    <rect id="Rectangle_107" data-name="Rectangle 107" width="1.551" height="1.551" transform="translate(24.532 90.908)" fill="#fff"/>
    <rect id="Rectangle_108" data-name="Rectangle 108" width="1.551" height="1.551" transform="translate(21.195 93.728)" fill="#fff"/>
    <rect id="Rectangle_109" data-name="Rectangle 109" width="1.551" height="1.551" transform="translate(24.532 99.371)" fill="#fff"/>
    <path id="Path_713" data-name="Path 713" d="M61.295,184.321s30.36,4.382,32.887-2.814c2.4-6.842-2.158-1.792-7.753-2.133-2.229-.136-.307-6.663-5.992-6.634-5.558.026-4.155,6.333-6.424,6.421-1.159.043-.568-2.658-3.959-2.423-3.675.256-2.752,4.175-4.087,5.129C64.9,182.634,61.065,180.641,61.295,184.321Z" transform="translate(-43.88 -135.417)" fill="#f0f0f0"/>
    <path id="Path_714" data-name="Path 714" d="M42.055,201.131s18.693,2.7,20.246-1.732c1.48-4.212-1.326-1.1-4.771-1.315-1.375-.082-.19-4.1-3.692-4.084-3.408.017-2.556,3.9-3.956,3.953-.713.028-.349-1.636-2.437-1.491-2.272.159-1.7,2.57-2.516,3.158C44.27,200.092,41.916,198.865,42.055,201.131Z" transform="translate(-30.107 -150.19)" fill="#fafafa"/>
    <path id="Path_715" data-name="Path 715" d="M415.72,342.828h4.834v-8.509l-4.834-1.829Z" transform="translate(-297.656 -243.752)" fill="#ebebeb"/>
    <rect id="Rectangle_110" data-name="Rectangle 110" width="0.713" height="0.713" transform="translate(120.839 91.215) rotate(180)" fill="#fff"/>
    <rect id="Rectangle_111" data-name="Rectangle 111" width="0.713" height="0.713" transform="translate(119.303 91.215) rotate(180)" fill="#fff"/>
    <rect id="Rectangle_112" data-name="Rectangle 112" width="0.713" height="0.713" transform="translate(122.37 92.513) rotate(180)" fill="#fff"/>
    <rect id="Rectangle_113" data-name="Rectangle 113" width="0.713" height="0.713" transform="translate(120.839 93.81) rotate(180)" fill="#fff"/>
    <rect id="Rectangle_114" data-name="Rectangle 114" width="0.713" height="0.713" transform="translate(119.303 93.81) rotate(180)" fill="#fff"/>
    <rect id="Rectangle_115" data-name="Rectangle 115" width="0.713" height="0.713" transform="translate(122.37 95.105) rotate(180)" fill="#fff"/>
    <rect id="Rectangle_116" data-name="Rectangle 116" width="0.713" height="0.713" transform="translate(120.123 95.98)" fill="#fff"/>
    <rect id="Rectangle_117" data-name="Rectangle 117" width="0.713" height="0.713" transform="translate(121.657 95.98)" fill="#fff"/>
    <rect id="Rectangle_118" data-name="Rectangle 118" width="0.713" height="0.713" transform="translate(118.593 97.275)" fill="#fff"/>
    <path id="Path_716" data-name="Path 716" d="M395.545,276.707v-2.664h-.639v-2.976h-.537V269.72l-1.079-1.59-1.079,1.59v1.346h-.537v2.976h-.639v2.664h-.645v15.586h5.8V276.707Z" transform="translate(-279.519 -197.67)" fill="#ebebeb"/>
    <rect id="Rectangle_119" data-name="Rectangle 119" width="0.804" height="0.804" transform="translate(113.367 77.055)" fill="#fefefe"/>
    <rect id="Rectangle_120" data-name="Rectangle 120" width="0.804" height="0.804" transform="translate(115.099 77.055)" fill="#fefefe"/>
    <rect id="Rectangle_121" data-name="Rectangle 121" width="0.804" height="0.804" transform="translate(111.637 80.281)" fill="#fefefe"/>
    <rect id="Rectangle_122" data-name="Rectangle 122" width="0.804" height="0.804" transform="translate(115.099 80.281)" fill="#fefefe"/>
    <rect id="Rectangle_123" data-name="Rectangle 123" width="0.804" height="0.804" transform="translate(113.367 81.895)" fill="#fefefe"/>
    <rect id="Rectangle_124" data-name="Rectangle 124" width="0.804" height="0.804" transform="translate(111.637 83.507)" fill="#fefefe"/>
    <rect id="Rectangle_125" data-name="Rectangle 125" width="0.804" height="0.804" transform="translate(113.367 83.507)" fill="#fefefe"/>
    <rect id="Rectangle_126" data-name="Rectangle 126" width="0.804" height="0.804" transform="translate(115.099 85.121)" fill="#fefefe"/>
    <rect id="Rectangle_127" data-name="Rectangle 127" width="0.804" height="0.804" transform="translate(111.637 88.656)" fill="#fefefe"/>
    <rect id="Rectangle_128" data-name="Rectangle 128" width="0.804" height="0.804" transform="translate(113.367 90.118)" fill="#fefefe"/>
    <rect id="Rectangle_129" data-name="Rectangle 129" width="0.804" height="0.804" transform="translate(115.099 90.118)" fill="#fefefe"/>
    <rect id="Rectangle_130" data-name="Rectangle 130" width="9.406" height="0.071" transform="translate(118.365 107.482)" fill="#ebebeb"/>
    <rect id="Rectangle_131" data-name="Rectangle 131" width="2.468" height="0.071" transform="translate(91.598 108.255)" fill="#ebebeb"/>
    <rect id="Rectangle_132" data-name="Rectangle 132" width="5.45" height="0.071" transform="translate(112.631 104.847)" fill="#ebebeb"/>
    <rect id="Rectangle_133" data-name="Rectangle 133" width="12.266" height="0.071" transform="translate(14.899 105.324)" fill="#ebebeb"/>
    <rect id="Rectangle_134" data-name="Rectangle 134" width="1.798" height="0.071" transform="translate(29.695 105.324)" fill="#ebebeb"/>
    <rect id="Rectangle_135" data-name="Rectangle 135" width="26.605" height="0.071" transform="translate(37.337 106.522)" fill="#ebebeb"/>
    <path id="Path_717" data-name="Path 717" d="M96.052,135.315H41.212a1.622,1.622,0,0,1-1.622-1.622V56.607A1.622,1.622,0,0,1,41.212,55h54.84a1.622,1.622,0,0,1,1.622,1.622v77.072A1.622,1.622,0,0,1,96.052,135.315ZM41.212,55.057a1.553,1.553,0,0,0-1.551,1.551v77.086a1.553,1.553,0,0,0,1.551,1.551h54.84a1.554,1.554,0,0,0,1.551-1.551V56.607a1.553,1.553,0,0,0-1.551-1.551Z" transform="translate(-28.346 -55)" fill="#ebebeb"/>
    <path id="Path_718" data-name="Path 718" d="M312.352,135.315h-54.84a1.622,1.622,0,0,1-1.622-1.622V56.607A1.622,1.622,0,0,1,257.512,55h54.84a1.622,1.622,0,0,1,1.622,1.622v77.072A1.622,1.622,0,0,1,312.352,135.315Zm-54.84-80.258a1.554,1.554,0,0,0-1.551,1.551v77.086a1.554,1.554,0,0,0,1.551,1.551h54.84a1.554,1.554,0,0,0,1.551-1.551V56.607a1.553,1.553,0,0,0-1.551-1.551Z" transform="translate(-183.217 -55)" fill="#ebebeb"/>
    <rect id="Rectangle_136" data-name="Rectangle 136" width="142" height="0.071" transform="translate(0 102.913)" fill="#ebebeb"/>
    <path id="Path_719" data-name="Path 719" d="M293.65,345.627,313.4,332.262a7.03,7.03,0,0,1,7.316,0l19.747,13.365Z" transform="translate(-210.254 -242.853)" fill="#f5f5f5"/>
    <path id="Path_720" data-name="Path 720" d="M375.8,332.266a6.921,6.921,0,0,0-4.641-.963c-.736,1.9-1.21,4.666,1.491,5.964,4.325,2.07-1.034,4.2-1.034,6.285a3.88,3.88,0,0,0,.829,2.085h23.1Z" transform="translate(-265.338 -242.857)" fill="#ebebeb"/>
    <path id="Path_721" data-name="Path 721" d="M153.307,184.592l6.671-10.551c.148-.236.04-.656-.17-.656h-6.086l6.248-9.895c.148-.236.04-.656-.17-.656h-6.078q3.124-4.944,6.248-9.895c.148-.236.04-.656-.17-.656h-6.078l6.248-9.895c.148-.236.04-.656-.17-.656h-6.078l6.248-9.895c.148-.233.04-.653-.17-.653h-6.078l6.248-9.9c.148-.233.04-.653-.17-.653h-6.078l6.248-9.895c.222-.352-.122-.895-.344-.545l-6.671,10.551h0a.508.508,0,0,0-.04.409c.028.128.1.227.207.233h6.095l-6.248,9.895h0a.508.508,0,0,0-.04.409c.028.128.1.227.207.233h6.095q-3.124,4.944-6.248,9.895h0a.508.508,0,0,0-.04.409c.028.128.1.227.207.233h6.095q-3.124,4.944-6.248,9.895h0a.508.508,0,0,0-.04.409c.028.128.1.227.207.233h6.095l-6.248,9.895h0a.508.508,0,0,0-.04.409c.028.125.1.227.207.233h6.095l-6.248,9.895h0a.508.508,0,0,0-.04.409c.028.125.1.227.207.233h6.095l-6.248,9.895C152.742,184.4,153.086,184.942,153.307,184.592Z" transform="translate(-109.469 -84.508)" fill="#e0e0e0"/>
    <path id="Path_722" data-name="Path 722" d="M159.513,184.486c.2,0,.364-.264.364-.568v-73.84c0-.312-.168-.568-.364-.568h-6.671c-.2,0-.364.264-.364.568v73.84a.7.7,0,0,0,.1.389.12.12,0,0,0,0,.02h0a.284.284,0,0,0,.25.156Zm-6.319-25.546V110.635h5.964v72.7h-5.964Z" transform="translate(-109.174 -84.098)" fill="#e0e0e0"/>
    <path id="Path_723" data-name="Path 723" d="M159.651,184.592l-6.671-10.551c-.148-.236-.037-.656.173-.656h6.083l-6.248-9.895c-.148-.236-.037-.656.173-.656h6.083L153,152.941c-.148-.236-.037-.656.173-.656h6.083l-6.248-9.895c-.148-.236-.037-.656.173-.656h6.083l-6.248-9.895c-.148-.233-.037-.653.173-.653h6.083l-6.248-9.9c-.148-.233-.037-.653.173-.653h6.083q-3.124-4.95-6.248-9.895c-.222-.352.122-.895.344-.545l6.671,10.551h0a.508.508,0,0,1,.04.409c-.028.128-.1.227-.2.233h-6.143l6.248,9.895h0a.508.508,0,0,1,.04.409c-.028.128-.1.227-.2.233h-6.083q3.124,4.944,6.248,9.895h0a.508.508,0,0,1,.04.409c-.028.128-.1.227-.2.233h-6.083q3.124,4.944,6.248,9.895h0a.508.508,0,0,1,.04.409c-.028.128-.1.227-.2.233h-6.083l6.248,9.895h0a.508.508,0,0,1,.04.409c-.028.125-.1.227-.2.233h-6.083q3.124,4.944,6.248,9.895h0a.509.509,0,0,1,.04.409c-.028.125-.1.227-.2.233h-6.083l6.248,9.895C160.216,184.4,159.872,184.942,159.651,184.592Z" transform="translate(-109.485 -84.508)" fill="#f0f0f0"/>
    <path id="Path_724" data-name="Path 724" d="M159.515,184.493a.284.284,0,0,0,.247-.156h0v-.02a.724.724,0,0,0,.1-.389v-73.84c0-.312-.168-.568-.364-.568h-6.651c-.2,0-.364.264-.364.568v73.84c0,.312.165.568.364.568Zm-.355-1.153H153.2v-72.7h5.964Z" transform="translate(-109.176 -84.105)" fill="#f0f0f0"/>
    <rect id="Rectangle_137" data-name="Rectangle 137" width="38.615" height="2.229" transform="translate(80.042 102.913) rotate(180)" fill="#e0e0e0"/>
    <rect id="Rectangle_138" data-name="Rectangle 138" width="40.234" height="1.315" transform="translate(81.664 100.945) rotate(180)" fill="#ebebeb"/>
    <path id="Path_725" data-name="Path 725" d="M153.934,148.824l4.413,2.789c.1.063.284.017.284-.071v-2.556l4.138,2.616c.1.063.284.017.284-.071v-2.556l4.138,2.616c.1.063.284.017.284-.071v-2.556l4.138,2.616c.1.062.284.017.284-.071v-2.556l4.138,2.616c.1.062.284.017.284-.071V148.94l4.138,2.616c.1.063.284.017.284-.071v-2.556l4.138,2.616c.145.091.372-.051.227-.145l-4.413-2.789h0a.219.219,0,0,0-.173-.017c-.051.014-.094.043-.1.088h0v2.556l-4.138-2.616h0a.213.213,0,0,0-.17-.017c-.054.014-.094.043-.1.088h0v2.556l-4.206-2.57h0a.219.219,0,0,0-.173-.017c-.051.014-.094.043-.1.088h0v2.556L167.4,148.69h0a.213.213,0,0,0-.17-.017c-.054.014-.094.043-.1.088h0v2.556L163,148.7h0a.219.219,0,0,0-.173-.017c-.051.014-.094.043-.1.088h0v2.556l-4.138-2.616h0a.213.213,0,0,0-.17-.017c-.054.014-.094.043-.1.088h0v2.556l-4.138-2.616C154.016,148.585,153.789,148.73,153.934,148.824Z" transform="translate(-110.183 -119.237)" fill="#e0e0e0"/>
    <path id="Path_726" data-name="Path 726" d="M153.6,151.581c0,.082.111.151.241.151h30.885c.131,0,.241-.068.241-.151v-2.792c0-.082-.111-.151-.241-.151H153.841a.284.284,0,0,0-.162.04h0a.122.122,0,0,0-.065.1Zm10.684-2.638h20.2v2.485H154.1v-2.485Z" transform="translate(-109.978 -119.274)" fill="#e0e0e0"/>
    <path id="Path_727" data-name="Path 727" d="M153.934,151.636l4.413-2.789c.1-.062.284-.017.284.071v2.556l4.138-2.616c.1-.062.284-.017.284.071v2.556l4.138-2.616c.1-.062.284-.017.284.071V151.5l4.138-2.616c.1-.062.284-.017.284.071v2.556l4.138-2.616c.1-.062.284-.017.284.071v2.556l4.138-2.616c.1-.062.284-.017.284.071v2.556l4.138-2.616c.145-.094.372.051.227.145l-4.413,2.789h0a.233.233,0,0,1-.173.017.1.1,0,0,1-.1-.088h0v-2.556l-4.138,2.616h0a.224.224,0,0,1-.17.017.1.1,0,0,1-.1-.088h0V149.21l-4.206,2.57h0a.233.233,0,0,1-.173.017.1.1,0,0,1-.1-.088h0v-2.556l-4.138,2.616h0a.224.224,0,0,1-.17.017.1.1,0,0,1-.1-.088h0v-2.556L163,151.758h0a.233.233,0,0,1-.173.017.1.1,0,0,1-.1-.088h0v-2.556l-4.138,2.616h0a.224.224,0,0,1-.17.017.1.1,0,0,1-.1-.088h0V149.12l-4.138,2.616C154.016,151.872,153.789,151.73,153.934,151.636Z" transform="translate(-110.183 -119.398)" fill="#f0f0f0"/>
    <path id="Path_728" data-name="Path 728" d="M153.6,151.561a.125.125,0,0,0,.065.1h0a.306.306,0,0,0,.162.04h30.9c.131,0,.241-.068.241-.151v-2.792c0-.082-.111-.151-.241-.151H153.841c-.131,0-.241.068-.241.151Zm.483-.153v-2.485h30.4v2.485H154.1Z" transform="translate(-109.978 -119.254)" fill="#f0f0f0"/>
    <rect id="Rectangle_139" data-name="Rectangle 139" width="7.858" height="3.55" rx="1.775" transform="translate(50.93 32.677) rotate(180)" fill="#f5f5f5"/>
    <path id="Path_729" data-name="Path 729" d="M153.934,224.4l4.413,2.792c.1.06.284.014.284-.074v-2.556q2.07,1.306,4.138,2.618c.1.06.284.014.284-.074v-2.556l4.138,2.618c.1.06.284.014.284-.074V224.54q2.07,1.306,4.138,2.618c.1.06.284.014.284-.074v-2.556l4.138,2.618c.1.06.284.014.284-.074v-2.556q2.07,1.306,4.138,2.618c.1.06.284.014.284-.074v-2.556l4.138,2.618c.145.091.372-.051.227-.145l-4.413-2.789h0a.219.219,0,0,0-.173-.017.1.1,0,0,0-.1.085h0v2.556l-4.138-2.616h0a.213.213,0,0,0-.17-.017.094.094,0,0,0-.1.085h0v2.556l-4.206-2.567h0a.219.219,0,0,0-.173-.017.1.1,0,0,0-.1.085h0v2.556l-4.138-2.616h0a.213.213,0,0,0-.17-.017.094.094,0,0,0-.1.085h0v2.556L163,224.273h0a.219.219,0,0,0-.173-.017.1.1,0,0,0-.1.085h0V226.9l-4.138-2.616h0a.213.213,0,0,0-.17-.017.1.1,0,0,0-.1.085h0v2.556l-4.138-2.616C154.016,224.162,153.789,224.307,153.934,224.4Z" transform="translate(-110.183 -171.116)" fill="#e0e0e0"/>
    <path id="Path_730" data-name="Path 730" d="M153.6,227.142c0,.082.111.153.241.153h30.885c.131,0,.241-.071.241-.153v-2.789c0-.082-.111-.153-.241-.153H153.841a.284.284,0,0,0-.162.043h0a.131.131,0,0,0-.065.105Zm10.684-2.636h20.2v2.476H154.1V224.5Z" transform="translate(-109.978 -171.139)" fill="#e0e0e0"/>
    <path id="Path_731" data-name="Path 731" d="M153.934,227.206l4.413-2.789c.1-.062.284-.017.284.071v2.556l4.138-2.616c.1-.062.284-.017.284.071v2.556l4.138-2.616c.1-.062.284-.017.284.071v2.556l4.138-2.616c.1-.062.284-.017.284.071v2.556l4.138-2.616c.1-.062.284-.017.284.071v2.556l4.138-2.616c.1-.062.284-.017.284.071V227.1l4.138-2.616c.145-.094.372.051.227.142l-4.413,2.792h0a.207.207,0,0,1-.173.017.1.1,0,0,1-.1-.085h0v-2.556q-2.07,1.306-4.138,2.618h0a.2.2,0,0,1-.17.017.094.094,0,0,1-.1-.085h0v-2.556l-4.206,2.562h0a.207.207,0,0,1-.173.017.1.1,0,0,1-.1-.085h0v-2.556q-2.07,1.306-4.138,2.618h0a.2.2,0,0,1-.17.017.094.094,0,0,1-.1-.085h0v-2.556L163,227.339h0a.207.207,0,0,1-.173.017.1.1,0,0,1-.1-.085h0v-2.556q-2.07,1.306-4.138,2.618h0a.2.2,0,0,1-.17.017.1.1,0,0,1-.1-.085h0v-2.556l-4.138,2.618C154.016,227.442,153.789,227.3,153.934,227.206Z" transform="translate(-110.183 -171.271)" fill="#f0f0f0"/>
    <path id="Path_732" data-name="Path 732" d="M153.6,227.121a.131.131,0,0,0,.065.105h0a.307.307,0,0,0,.162.04h30.9c.131,0,.241-.071.241-.153v-2.789c0-.082-.111-.153-.241-.153H153.841c-.131,0-.241.071-.241.153Zm.483-.151v-2.485h30.4v2.476H154.1Z" transform="translate(-109.978 -171.119)" fill="#f0f0f0"/>
    <rect id="Rectangle_140" data-name="Rectangle 140" width="7.858" height="3.55" rx="1.775" transform="translate(50.93 56.383) rotate(180)" fill="#f5f5f5"/>
    <path id="Path_733" data-name="Path 733" d="M153.934,299.951l4.413,2.789c.1.062.284.017.284-.071v-2.556l4.138,2.616c.1.062.284.017.284-.071V300.1l4.138,2.616c.1.063.284.017.284-.071V300.09l4.138,2.616c.1.063.284.017.284-.071v-2.556l4.138,2.616c.1.062.284.017.284-.071v-2.556l4.138,2.616c.1.062.284.017.284-.071v-2.556l4.138,2.616c.145.094.372-.051.227-.142l-4.413-2.792h0a.207.207,0,0,0-.173-.017.1.1,0,0,0-.1.085h0v2.556l-4.138-2.619h0a.2.2,0,0,0-.17-.017.094.094,0,0,0-.1.085h0v2.556l-4.206-2.562h0a.207.207,0,0,0-.173-.017.1.1,0,0,0-.1.085h0v2.556l-4.138-2.618h0a.2.2,0,0,0-.17-.017.094.094,0,0,0-.1.085h0v2.556q-2.068-1.312-4.138-2.618h0a.207.207,0,0,0-.173-.017.1.1,0,0,0-.1.085h0v2.556l-4.138-2.618h0a.2.2,0,0,0-.17-.017.1.1,0,0,0-.1.085h0v2.556q-2.068-1.312-4.138-2.618C154.016,299.715,153.789,299.857,153.934,299.951Z" transform="translate(-110.183 -222.972)" fill="#e0e0e0"/>
    <path id="Path_734" data-name="Path 734" d="M153.6,302.712c0,.082.111.153.241.153h30.885c.131,0,.241-.071.241-.153v-2.789c0-.082-.111-.153-.241-.153H153.841a.307.307,0,0,0-.162.04h0a.131.131,0,0,0-.065.105Zm10.684-2.638h20.2v2.485H154.1v-2.485Z" transform="translate(-109.978 -223.011)" fill="#e0e0e0"/>
    <path id="Path_735" data-name="Path 735" d="M153.934,302.77l4.413-2.792c.1-.062.284-.014.284.074v2.556l4.138-2.618c.1-.062.284-.014.284.074v2.556L167.191,300c.1-.062.284-.014.284.074v2.556l4.138-2.618c.1-.062.284-.014.284.074v2.556l4.138-2.618c.1-.062.284-.014.284.074v2.556l4.138-2.618c.1-.062.284-.014.284.074v2.556l4.138-2.618c.145-.091.372.051.227.145l-4.413,2.789h0a.219.219,0,0,1-.173.017.1.1,0,0,1-.1-.085h0v-2.556l-4.138,2.616h0a.213.213,0,0,1-.17.017.1.1,0,0,1-.1-.085h0v-2.556l-4.206,2.565h0a.219.219,0,0,1-.173.017.1.1,0,0,1-.1-.085h0v-2.556L167.4,302.9h0a.213.213,0,0,1-.17.017.1.1,0,0,1-.1-.085h0V300.28L163,302.9h0a.219.219,0,0,1-.173.017.1.1,0,0,1-.1-.085h0v-2.556l-4.138,2.616h0a.213.213,0,0,1-.17.017.114.114,0,0,1-.1-.085h0v-2.556l-4.138,2.616C154.016,303.006,153.789,302.861,153.934,302.77Z" transform="translate(-110.183 -223.138)" fill="#f0f0f0"/>
    <path id="Path_736" data-name="Path 736" d="M153.6,302.691a.122.122,0,0,0,.065.1h0a.284.284,0,0,0,.162.043h30.9c.131,0,.241-.071.241-.153v-2.789c0-.082-.111-.153-.241-.153H153.841c-.131,0-.241.071-.241.153Zm.483-.153v-2.485h30.4v2.485H154.1Z" transform="translate(-109.978 -222.991)" fill="#f0f0f0"/>
    <rect id="Rectangle_141" data-name="Rectangle 141" width="7.858" height="3.55" rx="1.775" transform="translate(50.93 80.092) rotate(180)" fill="#f5f5f5"/>
    <path id="Path_737" data-name="Path 737" d="M289.329,120.967s33.322,3.76,30.007-5.64c-2.556-7.222-7.307-.483-9.6-1.267-2.011-.684-1.233-5.74-6.7-5.172s-3.453,5.936-5.2,7.358C295.946,117.769,289.124,114.06,289.329,120.967Z" transform="translate(-207.156 -91.776)" fill="#f0f0f0"/>
    <path id="Path_738" data-name="Path 738" d="M351.5,137.125s20.136,2.272,18.131-3.408c-1.545-4.365-4.419-.284-5.8-.764-1.21-.415-.738-3.476-4.044-3.124s-2.087,3.587-3.144,4.445C355.5,135.194,351.381,132.953,351.5,137.125Z" transform="translate(-251.675 -106.229)" fill="#fafafa"/>
  </g>
  <g id="freepik--Shadow--inject-23" transform="translate(14.566 108.215)">
    <ellipse id="freepik--path--inject-23" cx="55.065" cy="3.215" rx="55.065" ry="3.215" fill="#f5f5f5"/>
  </g>
  <g id="freepik--Character--inject-23" transform="translate(55.939 40.605)">
    <rect id="Rectangle_142" data-name="Rectangle 142" width="5.683" height="7.591" rx="2.62" transform="translate(27.446 7.321) rotate(-9.02)" fill="#008472"/>
    <path id="Path_739" data-name="Path 739" d="M303.195,186.953a.713.713,0,0,0-.307-.483L299,194.465a.7.7,0,0,0,.383.045l4.161-.665a.724.724,0,0,0,.6-.829Z" transform="translate(-270.023 -179.806)" fill="#fff" opacity="0.2"/>
    <path id="Path_740" data-name="Path 740" d="M299.92,193.522a.724.724,0,0,0,.6-.829l-.963-6.063a.724.724,0,0,0-.829-.6l-4.18.665a.724.724,0,0,0-.6.829l.96,6.063a.73.73,0,0,0,.832.6Zm-4.737.017-.943-6.061a.44.44,0,0,1,.08-.335.457.457,0,0,1,.284-.179l4.18-.667h.071a.451.451,0,0,1,.443.381l.963,6.061a.466.466,0,0,1-.08.335.454.454,0,0,1-.284.179l-4.178.665a.452.452,0,0,1-.525-.378Z" transform="translate(-266.399 -179.483)" fill="#263238"/>
    <rect id="Rectangle_143" data-name="Rectangle 143" width="4.266" height="1.199" rx="0.6" transform="matrix(0.987, -0.16, 0.16, 0.987, 29.085, 10.129)" fill="#fff" opacity="0.9"/>
    <path id="Path_741" data-name="Path 741" d="M300.848,200.424a.284.284,0,0,1-.111-.034l.023-.094a.341.341,0,0,0,.1.031.307.307,0,0,0,.114,0,.221.221,0,0,0,.1-.037.062.062,0,0,0,.023-.062.046.046,0,0,0-.023-.04.1.1,0,0,0-.054-.02h-.08a.918.918,0,0,1-.119-.017.176.176,0,0,1-.08-.04.128.128,0,0,1-.045-.088.162.162,0,0,1,0-.1.188.188,0,0,1,.071-.08.391.391,0,0,1,.131-.045.507.507,0,0,1,.114,0,.284.284,0,0,1,.1.026l-.023.094A.335.335,0,0,0,301,199.9h-.088a.17.17,0,0,0-.094.04.065.065,0,0,0-.023.065.051.051,0,0,0,.026.037.1.1,0,0,0,.051.02h.08a.566.566,0,0,1,.116.017.2.2,0,0,1,.082.037.139.139,0,0,1,.045.091.173.173,0,0,1,0,.094.2.2,0,0,1-.074.08.369.369,0,0,1-.131.045A.458.458,0,0,1,300.848,200.424Z" transform="translate(-271.229 -189.35)" fill="#263238"/>
    <path id="Path_742" data-name="Path 742" d="M302.636,199.515l-.2.031-.014-.1.514-.08v.094l-.2.031.08.511-.114.02Z" transform="translate(-272.472 -189.043)" fill="#263238"/>
    <path id="Path_743" data-name="Path 743" d="M304.977,199.612l-.3.048-.037.148-.116.02.176-.65.111-.017.369.568-.116.02Zm-.051-.082-.156-.247-.074.284Z" transform="translate(-273.976 -188.893)" fill="#263238"/>
    <path id="Path_744" data-name="Path 744" d="M307.321,199.364l-.151-.159h-.023l-.139.02.028.179-.111.017-.1-.608.25-.04a.371.371,0,0,1,.139,0,.2.2,0,0,1,.1.06.225.225,0,0,1,.051.111.216.216,0,0,1-.017.122.2.2,0,0,1-.082.091l.17.176Zm-.116-.474a.187.187,0,0,0-.116,0l-.131.023.037.241.133-.023a.159.159,0,0,0,.105-.048.114.114,0,0,0,.026-.1A.122.122,0,0,0,307.2,198.89Z" transform="translate(-275.63 -188.611)" fill="#263238"/>
    <path id="Path_745" data-name="Path 745" d="M309.026,198.495l-.2.031-.017-.094.517-.082.014.1-.2.031.082.511-.114.017Z" transform="translate(-277.047 -188.313)" fill="#263238"/>
    <path id="Path_746" data-name="Path 746" d="M345.285,175a.255.255,0,0,0,.1.324c.1.04.23-.074.27-.222s0-.284-.1-.324S345.331,174.85,345.285,175Z" transform="translate(-303.151 -171.43)" fill="#263238"/>
    <path id="Path_747" data-name="Path 747" d="M344.135,177.68l-1.275.713a1.11,1.11,0,0,0,.832.534Z" transform="translate(-301.427 -173.513)" fill="#ba4d3c"/>
    <path id="Path_748" data-name="Path 748" d="M346.512,172.668a.091.091,0,0,1-.068-.04.642.642,0,0,0-.494-.324.085.085,0,0,1-.08-.085.088.088,0,0,1,.088-.08.8.8,0,0,1,.63.4.085.085,0,0,1-.031.114h0A.134.134,0,0,1,346.512,172.668Z" transform="translate(-303.582 -169.546)" fill="#263238"/>
    <path id="Path_749" data-name="Path 749" d="M350.521,170.219c-.511,2.022-.684,2.888-1.94,3.754-1.815.784-4.32.256-4.433-1.874-.105-1.914.747-4.89,2.954-5.356a2.894,2.894,0,0,1,3.451,2.173A2.772,2.772,0,0,1,350.521,170.219Z" transform="translate(-302.344 -165.632)" fill="#ce7a63"/>
    <path id="Path_750" data-name="Path 750" d="M345.621,174.356l-2.292-1.446s-.682,1.514-.4,1.607.724-1.1.724-1.1l1.639.9Z" transform="translate(-301.428 -170.098)" fill="#008472"/>
    <path id="Path_751" data-name="Path 751" d="M343.885,174.546l-.173-.116s-.548,1.068-.42,1.17S343.885,174.546,343.885,174.546Z" transform="translate(-301.722 -171.186)" fill="#fff" opacity="0.7"/>
    <path id="Path_752" data-name="Path 752" d="M350.024,190.833c.193.616-.594,2.093-.594,2.093l2.888,1.42.537-4.07S349.794,190.106,350.024,190.833Z" transform="translate(-306.131 -182.519)" fill="#ce7a63"/>
    <path id="Path_753" data-name="Path 753" d="M348.4,168.486a2.556,2.556,0,0,1,.346-2.133c.3-.412-.264-1.576-.613-.531-.227.676-1.528-.636-.812-1.769,0,0,1.744-2.068,3.073-.389,0,0,3.167.409,2.971,2.587,0,0,1.045,2.7-2.411,5.439l-1.037-.193c-.531-.116-.94-.906-1.085-1.42Z" transform="translate(-304.471 -163.007)" fill="#263238"/>
    <path id="Path_754" data-name="Path 754" d="M349.5,177.779a1.61,1.61,0,0,0-.747.991c-.134.548.375.8.895.636.469-.153,1.1-.622,1-1.167a.744.744,0,0,0-1.15-.46Z" transform="translate(-305.633 -173.49)" fill="#ce7a63"/>
    <path id="Path_755" data-name="Path 755" d="M364.227,168.991s-.98-.523-.914.435.761,2.272,1.588,2.187S364.227,168.991,364.227,168.991Z" transform="translate(-316.069 -167.19)" fill="#008472"/>
    <path id="Path_756" data-name="Path 756" d="M366.45,165.716a1.179,1.179,0,0,0-1.136.835,1.61,1.61,0,0,0,.284,1.42,4.258,4.258,0,0,1,.568,2.235c-.236.31-.136.733-.244,1.108a1.724,1.724,0,0,0,1.377,2.238,1.167,1.167,0,0,0,.906.125c.185-.057.906-.21.568-1.156,0,.173-.284.338-.463.318a.537.537,0,0,1-.423-.315c-.074-.17.449.435,1.034-.227a1.682,1.682,0,0,0,.122-1.38,4.072,4.072,0,0,0,.707-1.837,1.988,1.988,0,0,0-.568-1.5,1.454,1.454,0,0,0-.318-1.747,2.1,2.1,0,0,0-1.8-.474c-.284.054-.619.207-.667.5" transform="translate(-317.463 -164.661)" fill="#263238"/>
    <path id="Path_757" data-name="Path 757" d="M318.1,205.572s-1.269-1.639-1.7-2.167a9.8,9.8,0,0,0-1.267-1.4,4.352,4.352,0,0,0-1.965-.721c-.082,0-.182.031-.182.114,0,.239.653.514,1.085.667a.315.315,0,0,1,.162.457,2.493,2.493,0,0,0-.329,1.181c.088.256.611.537.832.693s.812.5.812.5l1.525,2.408Z" transform="translate(-280.033 -190.409)" fill="#ce7a63"/>
    <path id="Path_758" data-name="Path 758" d="M318.1,205.572s-1.269-1.639-1.7-2.167a9.8,9.8,0,0,0-1.267-1.4,4.352,4.352,0,0,0-1.965-.721c-.082,0-.182.031-.182.114,0,.239.653.514,1.085.667a.315.315,0,0,1,.162.457,2.493,2.493,0,0,0-.329,1.181c.088.256.611.537.832.693s.812.5.812.5l1.525,2.408Z" transform="translate(-280.033 -190.409)" opacity="0.1"/>
    <path id="Path_759" data-name="Path 759" d="M325.84,209.033s1.886,4.07,3.976,4.984,2.366.895,6.345-2.962,3.272-6.109,1.852-6.532-2.5,1.136-3.772,2.925a27.164,27.164,0,0,1-3.124,3.5l-3.959-3.391A1.639,1.639,0,0,0,325.84,209.033Z" transform="translate(-289.241 -192.683)" fill="#263238"/>
    <path id="Path_760" data-name="Path 760" d="M314.613,395.4l-.273,4.016,1.857.278.968-3.9Z" transform="translate(-281.007 -329.4)" fill="#ce7a63"/>
    <path id="Path_761" data-name="Path 761" d="M304.532,406.226l1.937.148a.2.2,0,0,1,.19.162l.395,2.025a.332.332,0,0,1-.258.392h-.071c-.892-.04-1.684-.108-2.795-.136-1.312-.034-.983.133-2.525.114-.929,0-1.071-1.071-.676-1.113a5.017,5.017,0,0,0,3.26-1.42A.792.792,0,0,1,304.532,406.226Z" transform="translate(-271.113 -337.151)" fill="#263238"/>
    <path id="Path_762" data-name="Path 762" d="M316.742,398.371l-2.1-.2.187-2.772,2.553.392Z" transform="translate(-281.222 -329.4)" opacity="0.1"/>
    <path id="Path_763" data-name="Path 763" d="M363,391.81l.983,5.027,1.784-.151-.2-4.876Z" transform="translate(-315.848 -326.83)" fill="#ce7a63"/>
    <path id="Path_764" data-name="Path 764" d="M358.1,407.184l2.215-.034a.182.182,0,0,1,.176.136l.426,1.795a.284.284,0,0,1-.216.361h-.062c-.8,0-1.508-.037-2.5-.02-1.173.017-.875.153-2.252.193-.829.023-1-.917-.645-.968a3.146,3.146,0,0,0,2.383-1.3A.7.7,0,0,1,358.1,407.184Z" transform="translate(-310.168 -337.813)" fill="#263238"/>
    <path id="Path_765" data-name="Path 765" d="M365.832,395.871l-1.951.187-.721-3.692c.852-.043,2.249-.105,2.525-.116Z" transform="translate(-315.962 -327.145)" opacity="0.1"/>
    <path id="Path_766" data-name="Path 766" d="M345.837,300.294l-2.405.17-4.675-21.257-.951-4.7-1.267-6.248L335,259.81h7.98a16.519,16.519,0,0,1,.8,7.793,58.09,58.09,0,0,0-.307,8.892c0,.809.02,1.517.031,2.059a6.2,6.2,0,0,0,.378,2.019c.162.452.364,1.071.568,1.835a20.767,20.767,0,0,1,.79,4.189C345.616,291.269,345.837,300.294,345.837,300.294Z" transform="translate(-295.799 -232.318)" fill="#008472"/>
    <path id="Path_767" data-name="Path 767" d="M345.837,300.294l-2.405.17-4.675-21.257-.951-4.7-1.267-6.248L335,259.81h7.98a16.519,16.519,0,0,1,.8,7.793,58.09,58.09,0,0,0-.307,8.892c0,.809.02,1.517.031,2.059a6.2,6.2,0,0,0,.378,2.019c.162.452.364,1.071.568,1.835a20.767,20.767,0,0,1,.79,4.189C345.616,291.269,345.837,300.294,345.837,300.294Z" transform="translate(-295.799 -232.318)" opacity="0.1"/>
    <path id="Path_768" data-name="Path 768" d="M344.51,282.42a22.275,22.275,0,0,0-2.823,8.142l-1.267-6.248.031-.162,2.15-1.622.71-.3Z" transform="translate(-299.68 -248.371)" opacity="0.1"/>
    <path id="Path_769" data-name="Path 769" d="M318.406,259.81l-3.976,40.2,2.442.361s3.147-10.278,3.632-16.245a14.445,14.445,0,0,0,.051-1.906,7.233,7.233,0,0,1,.3-2.4l.332-1.119,1.854-6.833a10.55,10.55,0,0,1,1.863-3.635,11.666,11.666,0,0,0,1.781-8.335l-6.066-.085Z" transform="translate(-281.071 -232.318)" fill="#008472"/>
    <path id="Path_770" data-name="Path 770" d="M316.456,399.276l-.366,1.005-2.88-.406.065-1.065Z" transform="translate(-280.198 -331.842)" fill="#008472"/>
    <path id="Path_771" data-name="Path 771" d="M316.456,399.276l-.366,1.005-2.88-.406.065-1.065Z" transform="translate(-280.198 -331.842)" opacity="0.2"/>
    <path id="Path_772" data-name="Path 772" d="M366.449,399.82l-.014,1.054-2.9.224-.165-1.056Z" transform="translate(-316.112 -332.565)" fill="#008472"/>
    <path id="Path_773" data-name="Path 773" d="M366.449,399.82l-.014,1.054-2.9.224-.165-1.056Z" transform="translate(-316.112 -332.565)" opacity="0.2"/>
    <path id="Path_774" data-name="Path 774" d="M340.36,200.8c.031,3.209-2.17,4.7-2.252,13.158,0,0-.321,1.468-9.7-.08a44.224,44.224,0,0,0,0-5.68l-.017-.332c-.085-1.945-.133-3.757-.085-4.871,0-.173.017-.329.028-.463a3.363,3.363,0,0,1,.045-.378c.4-2.184.63-3.064,1.42-3.576C332.658,196.727,340.338,198.763,340.36,200.8Z" transform="translate(-290.99 -187.956)" fill="#263238"/>
    <path id="Path_775" data-name="Path 775" d="M328.337,212.611c-.085-1.945-.133-3.757-.085-4.871,0-.173.017-.329.028-.463l2.139-2.8.892.386S332.12,208.28,328.337,212.611Z" transform="translate(-290.954 -192.702)" opacity="0.4"/>
    <path id="Path_776" data-name="Path 776" d="M298.088,204.036,296.1,202.5a4.544,4.544,0,0,0-.381-1.9c-.332-.625-1.846-1.747-1.82-.258s.105,1.389.358,1.917c.159.338.435.449.954,1.008s1.491,1.948,1.491,1.948Z" transform="translate(-266.371 -189.21)" fill="#ce7a63"/>
    <path id="Path_777" data-name="Path 777" d="M302,205.609a42.06,42.06,0,0,0,3.246,3.928c1.321,1.136,3.394.764,5.336-2.451,2.866-4.743,2.655-6.4,1.2-6.677s-2.158,1.553-3.246,3.448-1.829,3.093-1.829,3.093l-3.223-2.968A1.859,1.859,0,0,0,302,205.609Z" transform="translate(-272.172 -189.767)" fill="#263238"/>
    <path id="Path_778" data-name="Path 778" d="M348,196.429s1.031-1.815,3.9-.6c1.664.7,0,1.664,0,1.664Z" transform="translate(-305.108 -186.207)" fill="#263238"/>
    <path id="Path_779" data-name="Path 779" d="M350.29,198.185s2.445-.491,3.658.829Z" transform="translate(-306.747 -188.13)" opacity="0.4"/>
    <path id="Path_780" data-name="Path 780" d="M328.51,254.28l9.7.08.062,1.491H328.43Z" transform="translate(-291.095 -228.358)" fill="#008472"/>
    <path id="Path_781" data-name="Path 781" d="M328.51,254.28l9.7.08.062,1.491H328.43Z" transform="translate(-291.095 -228.358)" opacity="0.2"/>
    <path id="Path_782" data-name="Path 782" d="M200.651,200.19c-.474.04-1.042-.051-1.517,0a34.81,34.81,0,0,0-2.164-12.8C199.77,191.119,200.466,195.515,200.651,200.19Z" transform="translate(-196.97 -180.465)" fill="#fff"/>
  </g>
  <g id="freepik--Rocket--inject-23" transform="translate(44.212 9.437)">
    <path id="Path_783" data-name="Path 783" d="M203.133,325.841l-.9,7.571s1.7-1.088,2.181,1.323c0,0,.017-1.7,1.386-1.843,1.465-.142,1.7,1.536,1.7,1.536s.054-2.1,1.914-2.351l-.832-6.248Z" transform="translate(-189.009 -248.421)" fill="#008472"/>
    <path id="Path_784" data-name="Path 784" d="M160.3,355.622s-4.768.3-4.615-.386,3.672-.778,3.672-.778-2.212-.951-1.247-2.3,2.772.341,2.772.341-1.136-1.6.026-2.536c1.471-1.181,2.721,1.156,2.721,1.156s-.332-1.8.994-1.766.949,1.749.949,1.749,1.852-1.531,2.817-.525c.9.934-.335,2.252-.335,2.252s1.928-1.21,2.5-.091-1.494,2.1-1.494,2.1,4-.2,4.135.423S163.383,355.273,160.3,355.622Z" transform="translate(-155.677 -265.26)" fill="#008472"/>
    <path id="Path_785" data-name="Path 785" d="M160.3,355.622s-4.768.3-4.615-.386,3.672-.778,3.672-.778-2.212-.951-1.247-2.3,2.772.341,2.772.341-1.136-1.6.026-2.536c1.471-1.181,2.721,1.156,2.721,1.156s-.332-1.8.994-1.766.949,1.749.949,1.749,1.852-1.531,2.817-.525c.9.934-.335,2.252-.335,2.252s1.928-1.21,2.5-.091-1.494,2.1-1.494,2.1,4-.2,4.135.423S163.383,355.273,160.3,355.622Z" transform="translate(-155.677 -265.26)" fill="#fff" opacity="0.7"/>
    <path id="Path_786" data-name="Path 786" d="M216.829,354.609s-4.771.3-4.618-.386,3.672-.778,3.672-.778-2.212-.951-1.247-2.3,2.772.338,2.772.338-1.136-1.6.026-2.533c1.471-1.181,2.721,1.153,2.721,1.153s-.329-1.8.994-1.764.949,1.747.949,1.747,1.852-1.531,2.817-.523c.9.934-.335,2.249-.335,2.249s1.928-1.21,2.508-.088-1.5,2.1-1.5,2.1,4.007-.2,4.135.423S219.913,354.26,216.829,354.609Z" transform="translate(-196.153 -264.536)" fill="#008472"/>
    <path id="Path_787" data-name="Path 787" d="M216.829,354.609s-4.771.3-4.618-.386,3.672-.778,3.672-.778-2.212-.951-1.247-2.3,2.772.338,2.772.338-1.136-1.6.026-2.533c1.471-1.181,2.721,1.153,2.721,1.153s-.329-1.8.994-1.764.949,1.747.949,1.747,1.852-1.531,2.817-.523c.9.934-.335,2.249-.335,2.249s1.928-1.21,2.508-.088-1.5,2.1-1.5,2.1,4.007-.2,4.135.423S219.913,354.26,216.829,354.609Z" transform="translate(-196.153 -264.536)" fill="#fff" opacity="0.7"/>
    <path id="Path_788" data-name="Path 788" d="M191.763,334.362s-2.493-1.071-1.406-2.593,3.124.383,3.124.383-1.284-1.806.026-2.86c1.661-1.329,3.067,1.3,3.067,1.3s-.372-2.028,1.136-1.988,1.068,1.971,1.068,1.971,2.087-1.727,3.175-.591c1.011,1.054-.378,2.536-.378,2.536s2.173-1.363,2.84-.1-1.687,2.363-1.687,2.363Z" transform="translate(-180.312 -250.41)" fill="#008472"/>
    <path id="Path_789" data-name="Path 789" d="M191.763,334.362s-2.493-1.071-1.406-2.593,3.124.383,3.124.383-1.284-1.806.026-2.86c1.661-1.329,3.067,1.3,3.067,1.3s-.372-2.028,1.136-1.988,1.068,1.971,1.068,1.971,2.087-1.727,3.175-.591c1.011,1.054-.378,2.536-.378,2.536s2.173-1.363,2.84-.1-1.687,2.363-1.687,2.363Z" transform="translate(-180.312 -250.41)" fill="#fff" opacity="0.6"/>
    <path id="Path_790" data-name="Path 790" d="M174.56,348.371s-7.018.443-6.793-.568,5.4-1.136,5.4-1.136-3.252-1.4-1.832-3.385c1.451-2.033,4.078.5,4.078.5s-1.673-2.357.037-3.729c2.164-1.738,4,1.7,4,1.7s-.486-2.647,1.465-2.6,1.392,2.573,1.392,2.573,2.726-2.252,4.146-.772c1.321,1.377-.494,3.311-.494,3.311s2.84-1.778,3.692-.131-2.2,3.084-2.2,3.084,5.893-.284,6.086.622S179.1,347.86,174.56,348.371Z" transform="translate(-164.33 -257.963)" fill="#008472"/>
    <path id="Path_791" data-name="Path 791" d="M174.56,348.371s-7.018.443-6.793-.568,5.4-1.136,5.4-1.136-3.252-1.4-1.832-3.385c1.451-2.033,4.078.5,4.078.5s-1.673-2.357.037-3.729c2.164-1.738,4,1.7,4,1.7s-.486-2.647,1.465-2.6,1.392,2.573,1.392,2.573,2.726-2.252,4.146-.772c1.321,1.377-.494,3.311-.494,3.311s2.84-1.778,3.692-.131-2.2,3.084-2.2,3.084,5.893-.284,6.086.622S179.1,347.86,174.56,348.371Z" transform="translate(-164.33 -257.963)" fill="#fff" opacity="0.8"/>
    <path id="Path_792" data-name="Path 792" d="M203.133,327.7l-.9,7.557s1.7-1.056,2.181,1.363c0,0,.017-1.7,1.386-1.82,1.465-.116,1.7,1.568,1.7,1.568s.054-2.1,1.914-2.32l-.832-6.248Z" transform="translate(-189.009 -249.759)" fill="#fff" opacity="0.9"/>
    <path id="Path_793" data-name="Path 793" d="M209.2,338.8a8.921,8.921,0,0,0-.148,3.155A9.266,9.266,0,0,0,209.2,338.8Z" transform="translate(-193.842 -257.707)" opacity="0.1"/>
    <path id="Path_794" data-name="Path 794" d="M219.929,342.52a8.13,8.13,0,0,0,.062,2.84A8.292,8.292,0,0,0,219.929,342.52Z" transform="translate(-201.613 -260.371)" opacity="0.1"/>
    <path id="Path_795" data-name="Path 795" d="M195.47,101.473v1.9a19.948,19.948,0,0,0,10.971,0v-1.9a18.676,18.676,0,0,0-5.484-13.243A18.667,18.667,0,0,0,195.47,101.473Z" transform="translate(-184.169 -88.23)" fill="#008472"/>
    <g id="Group_59" data-name="Group 59" transform="translate(11.301)" opacity="0.3">
      <path id="Path_796" data-name="Path 796" d="M195.47,101.473v1.9a19.948,19.948,0,0,0,10.971,0v-1.9a18.676,18.676,0,0,0-5.484-13.243A18.667,18.667,0,0,0,195.47,101.473Z" transform="translate(-195.47 -88.23)"/>
    </g>
    <path id="Path_797" data-name="Path 797" d="M213.179,122.28v3.062h-.719v-2.494h-.611v-.568Z" transform="translate(-195.897 -112.61)" fill="#263238"/>
    <path id="Path_798" data-name="Path 798" d="M206.441,159.437V145.061a19.948,19.948,0,0,0-10.971,0v14.385a19.948,19.948,0,0,1,10.971-.008Z" transform="translate(-184.169 -125.954)" fill="#263238"/>
    <path id="Path_799" data-name="Path 799" d="M195.47,147.05v14.385a19.948,19.948,0,0,0,10.971,0V147.05a19.948,19.948,0,0,1-10.971,0Z" transform="translate(-184.169 -127.809)" fill="#008472"/>
    <path id="Path_800" data-name="Path 800" d="M195.47,147.05v14.385a19.948,19.948,0,0,0,10.971,0V147.05a19.948,19.948,0,0,1-10.971,0Z" transform="translate(-184.169 -127.809)" fill="#fff" opacity="0.3"/>
    <path id="Path_801" data-name="Path 801" d="M224.191,151.157V164.02s1.309.21,1.772-.46V150.74l-.08.034a4.294,4.294,0,0,1-1.7.383Z" transform="translate(-204.725 -130.366)" fill="#fff" opacity="0.4"/>
    <circle id="Ellipse_44" data-name="Ellipse 44" cx="4.297" cy="4.297" r="4.297" transform="translate(10.738 26.907) rotate(-45)" fill="#008472"/>
    <path id="Path_802" data-name="Path 802" d="M204.043,178.775a4.291,4.291,0,0,1-4.28-3.976c0,.108-.017.213-.017.324a4.3,4.3,0,1,0,8.591.017,2.454,2.454,0,0,0-.014-.324A4.294,4.294,0,0,1,204.043,178.775Z" transform="translate(-187.229 -146.994)" fill="#008472"/>
    <path id="Path_803" data-name="Path 803" d="M204.043,178.775a4.291,4.291,0,0,1-4.28-3.976c0,.108-.017.213-.017.324a4.3,4.3,0,1,0,8.591.017,2.454,2.454,0,0,0-.014-.324A4.294,4.294,0,0,1,204.043,178.775Z" transform="translate(-187.229 -146.994)" opacity="0.3"/>
    <circle id="Ellipse_45" data-name="Ellipse 45" cx="3.039" cy="3.039" r="3.039" transform="translate(12.517 27.022) rotate(-45)" fill="#fff" opacity="0.6"/>
    <path id="Path_804" data-name="Path 804" d="M211.785,169.062l1.244-5.853a3.064,3.064,0,0,0-1.011-.2l-1.238,5.833A3.014,3.014,0,0,0,211.785,169.062Z" transform="translate(-195.131 -138.942)" fill="#008472"/>
    <path id="Path_805" data-name="Path 805" d="M216.914,170.056l1.079-5.089a3.174,3.174,0,0,0-.452-.346l-1.181,5.566A3.022,3.022,0,0,0,216.914,170.056Z" transform="translate(-199.126 -140.053)" fill="#008472"/>
    <g id="Group_60" data-name="Group 60" transform="translate(15.649 24.068)" opacity="0.7">
      <path id="Path_806" data-name="Path 806" d="M211.785,169.062l1.244-5.853a3.064,3.064,0,0,0-1.011-.2l-1.238,5.833A3.014,3.014,0,0,0,211.785,169.062Z" transform="translate(-210.78 -163.01)" fill="#fff"/>
      <path id="Path_807" data-name="Path 807" d="M216.914,170.056l1.079-5.089a3.174,3.174,0,0,0-.452-.346l-1.181,5.566A3.022,3.022,0,0,0,216.914,170.056Z" transform="translate(-214.775 -164.163)" fill="#fff"/>
    </g>
    <path id="Path_808" data-name="Path 808" d="M212.714,170.366v.568H210.4v-.46l1.181-1.116a1.238,1.238,0,0,0,.253-.307.551.551,0,0,0,.065-.256.338.338,0,0,0-.125-.284.568.568,0,0,0-.364-.1.852.852,0,0,0-.363.077.7.7,0,0,0-.27.227l-.517-.332a1.232,1.232,0,0,1,.494-.417,1.67,1.67,0,0,1,.721-.151,1.443,1.443,0,0,1,.6.114.92.92,0,0,1,.4.312.8.8,0,0,1,.142.48,1.057,1.057,0,0,1-.105.469,1.738,1.738,0,0,1-.406.5l-.7.665Z" transform="translate(-194.759 -142.317)" fill="#263238"/>
    <path id="Path_809" data-name="Path 809" d="M206.441,215.566V201.181a19.948,19.948,0,0,0-10.971,0v14.385a19.948,19.948,0,0,1,10.971,0Z" transform="translate(-184.169 -163.716)" fill="#263238"/>
    <path id="Path_810" data-name="Path 810" d="M191.306,209.63h-8.773l-6.612,11.749a.429.429,0,0,0,.372.639h21.252a.429.429,0,0,0,.372-.639Z" transform="translate(-170.133 -170.131)" fill="#008472"/>
    <path id="Path_811" data-name="Path 811" d="M206.441,203.2a19.948,19.948,0,0,1-10.971,0v14.811a19.92,19.92,0,0,0,10.971,0Z" transform="translate(-184.169 -165.559)" fill="#008472"/>
    <path id="Path_812" data-name="Path 812" d="M206.441,203.2a19.948,19.948,0,0,1-10.971,0v14.811a19.92,19.92,0,0,0,10.971,0Z" transform="translate(-184.169 -165.559)" fill="#fff" opacity="0.5"/>
    <path id="Path_813" data-name="Path 813" d="M224.191,208.227v12.865s1.309.207,1.772-.463V207.81l-.08.037a4.243,4.243,0,0,1-1.7.381Z" transform="translate(-204.725 -168.835)" fill="#fff" opacity="0.4"/>
    <path id="Path_814" data-name="Path 814" d="M212.394,227.3a.829.829,0,0,1,.213.568.906.906,0,0,1-.139.491.98.98,0,0,1-.426.361,1.639,1.639,0,0,1-.7.136,2.418,2.418,0,0,1-.636-.085,1.661,1.661,0,0,1-.531-.241l.284-.542a1.4,1.4,0,0,0,.406.2,1.553,1.553,0,0,0,.469.074.724.724,0,0,0,.42-.105.329.329,0,0,0,.153-.284c0-.25-.19-.375-.568-.375h-.324v-.469l.63-.713h-1.3v-.568h2.144v.457l-.693.787A1.048,1.048,0,0,1,212.394,227.3Z" transform="translate(-194.694 -181.687)" fill="#263238"/>
    <path id="Path_815" data-name="Path 815" d="M171.081,268.53h-.528l-9.071,16.117a.588.588,0,0,0,.514.875h9.088Z" transform="translate(-159.78 -209.327)" fill="#008472"/>
    <path id="Path_816" data-name="Path 816" d="M243.7,284.647l-9.06-16.117h-.54v16.992h9.088a.585.585,0,0,0,.511-.875Z" transform="translate(-211.828 -209.327)" fill="#008472"/>
    <g id="Group_61" data-name="Group 61" transform="translate(1.627 59.203)" opacity="0.2">
      <path id="Path_817" data-name="Path 817" d="M171.081,268.53h-.528l-9.071,16.117a.588.588,0,0,0,.514.875h9.088Z" transform="translate(-161.407 -268.53)"/>
      <path id="Path_818" data-name="Path 818" d="M243.7,284.647l-9.06-16.117h-.54v16.992h9.088a.585.585,0,0,0,.511-.875Z" transform="translate(-213.455 -268.53)"/>
    </g>
    <path id="Path_819" data-name="Path 819" d="M206.441,271.007V259.121a19.948,19.948,0,0,0-10.971,0v11.885A19.948,19.948,0,0,1,206.441,271.007Z" transform="translate(-184.169 -202.973)" fill="#263238"/>
    <path id="Path_820" data-name="Path 820" d="M208.644,314.243l-1.44-5.913H202.01l-1.44,5.913a10.508,10.508,0,0,0,8.074,0Z" transform="translate(-187.82 -235.891)" fill="#263238"/>
    <path id="Path_821" data-name="Path 821" d="M204.788,308.33l-.338,1.383a10.508,10.508,0,0,0,5.87,0l-.338-1.383Z" transform="translate(-190.599 -237.941)" fill="#fff" opacity="0.2"/>
    <path id="Path_822" data-name="Path 822" d="M202.464,318.43c-.091.375-.185.753-.284,1.113a12.027,12.027,0,0,0,7.134,0l-.284-1.11A16.991,16.991,0,0,1,202.464,318.43Z" transform="translate(-188.973 -243.122)" fill="#fff" opacity="0.4"/>
    <path id="Path_823" data-name="Path 823" d="M206.441,260.86a19.919,19.919,0,0,1-10.971,0v10.312a16.756,16.756,0,0,0,10.971,0V260.863Z" transform="translate(-184.169 -204.811)" fill="#008472"/>
    <path id="Path_824" data-name="Path 824" d="M206.441,260.86a19.919,19.919,0,0,1-10.971,0v10.312a16.756,16.756,0,0,0,10.971,0V260.863Z" transform="translate(-184.169 -204.811)" fill="#fff" opacity="0.7"/>
    <path id="Path_825" data-name="Path 825" d="M195.47,297.146h0v2.511a14.3,14.3,0,0,0,10.971,0V297.14A16.756,16.756,0,0,1,195.47,297.146Z" transform="translate(-184.169 -230.154)" fill="#008472"/>
    <path id="Path_826" data-name="Path 826" d="M195.47,297.146h0v2.511a14.3,14.3,0,0,0,10.971,0V297.14A16.756,16.756,0,0,1,195.47,297.146Z" transform="translate(-184.169 -230.154)" opacity="0.2"/>
    <path id="Path_827" data-name="Path 827" d="M186.87,266.749v.852a8.853,8.853,0,0,0,4.888,0v-.852a8.316,8.316,0,0,0-2.445-5.9A8.324,8.324,0,0,0,186.87,266.749Z" transform="translate(-178.011 -205.2)" fill="#008472"/>
    <path id="Path_828" data-name="Path 828" d="M186.87,266.749v.852a8.853,8.853,0,0,0,4.888,0v-.852a8.316,8.316,0,0,0-2.445-5.9A8.324,8.324,0,0,0,186.87,266.749Z" transform="translate(-178.011 -205.2)" fill="#fff" opacity="0.2"/>
    <path id="Path_829" data-name="Path 829" d="M186.87,284.6v6.407a8.878,8.878,0,0,0,4.888,0V284.6A8.852,8.852,0,0,1,186.87,284.6Z" transform="translate(-178.011 -221.329)" fill="#008472"/>
    <path id="Path_830" data-name="Path 830" d="M186.87,284.6v6.407a8.878,8.878,0,0,0,4.888,0V284.6A8.852,8.852,0,0,1,186.87,284.6Z" transform="translate(-178.011 -221.329)" fill="#fff" opacity="0.4"/>
    <path id="Path_831" data-name="Path 831" d="M191.758,307.17a8.878,8.878,0,0,1-4.888,0v6.6a8.9,8.9,0,0,0,4.888,0v-6.6Z" transform="translate(-178.011 -235.06)" fill="#008472"/>
    <path id="Path_832" data-name="Path 832" d="M191.758,307.17a8.878,8.878,0,0,1-4.888,0v6.6a8.9,8.9,0,0,0,4.888,0v-6.6Z" transform="translate(-178.011 -235.06)" fill="#fff" opacity="0.6"/>
    <path id="Path_833" data-name="Path 833" d="M186.87,330h0v1.122a6.376,6.376,0,0,0,4.888,0V330A7.469,7.469,0,0,1,186.87,330Z" transform="translate(-178.011 -251.406)" fill="#008472"/>
    <path id="Path_834" data-name="Path 834" d="M195.47,263.82a12.981,12.981,0,0,1,.875,4.064v14.305l.744-.15v-15A4.924,4.924,0,0,0,195.47,263.82Z" transform="translate(-184.169 -205.991)" fill="#fff" opacity="0.4"/>
    <path id="Path_835" data-name="Path 835" d="M225.5,266.749v.852a8.84,8.84,0,0,0,4.885,0v-.852a8.324,8.324,0,0,0-2.442-5.9A8.313,8.313,0,0,0,225.5,266.749Z" transform="translate(-205.67 -205.2)" fill="#008472"/>
    <path id="Path_836" data-name="Path 836" d="M225.5,266.749v.852a8.84,8.84,0,0,0,4.885,0v-.852a8.324,8.324,0,0,0-2.442-5.9A8.313,8.313,0,0,0,225.5,266.749Z" transform="translate(-205.67 -205.2)" fill="#fff" opacity="0.2"/>
    <path id="Path_837" data-name="Path 837" d="M225.5,284.6v6.407a8.867,8.867,0,0,0,4.885,0V284.6A8.841,8.841,0,0,1,225.5,284.6Z" transform="translate(-205.67 -221.329)" fill="#008472"/>
    <path id="Path_838" data-name="Path 838" d="M225.5,284.6v6.407a8.867,8.867,0,0,0,4.885,0V284.6A8.841,8.841,0,0,1,225.5,284.6Z" transform="translate(-205.67 -221.329)" fill="#fff" opacity="0.4"/>
    <path id="Path_839" data-name="Path 839" d="M230.385,307.17a8.866,8.866,0,0,1-4.885,0v6.6a8.9,8.9,0,0,0,4.885,0Z" transform="translate(-205.67 -235.06)" fill="#008472"/>
    <path id="Path_840" data-name="Path 840" d="M230.385,307.17a8.866,8.866,0,0,1-4.885,0v6.6a8.9,8.9,0,0,0,4.885,0Z" transform="translate(-205.67 -235.06)" fill="#fff" opacity="0.6"/>
    <path id="Path_841" data-name="Path 841" d="M225.5,330h0v1.122a6.37,6.37,0,0,0,4.885,0V330A7.461,7.461,0,0,1,225.5,330Z" transform="translate(-205.67 -251.406)" fill="#008472"/>
    <path id="Path_842" data-name="Path 842" d="M234.25,264.42a12.98,12.98,0,0,1,.875,4.064v14.305l.741-.151v-15A4.913,4.913,0,0,0,234.25,264.42Z" transform="translate(-211.935 -206.393)" fill="#fff" opacity="0.4"/>
    <path id="Path_843" data-name="Path 843" d="M212.84,283.568h-.511v.642h-.693v-.642H210V283.1l1.443-1.943h.744l-1.335,1.832h.821v-.568h.67v.568h.5Z" transform="translate(-194.572 -219.349)" fill="#263238"/>
    <path id="Path_844" data-name="Path 844" d="M222.538,112.94a27.907,27.907,0,0,1,1.21,7.8,1.494,1.494,0,0,1-1.517.261A32.09,32.09,0,0,0,221.47,113Z" transform="translate(-202.785 -105.922)" fill="#fff" opacity="0.4"/>
    <path id="Path_845" data-name="Path 845" d="M217.828,99.023a30.593,30.593,0,0,0-1.258-4.183,16.445,16.445,0,0,1,2.272,4.2Z" transform="translate(-199.277 -92.963)" fill="#fff" opacity="0.4"/>
  </g>
  <g id="freepik--Audience--inject-23" transform="translate(67.285 60.316)">
    <path id="Path_846" data-name="Path 846" d="M239.186,272.641l-.256-.125,2.758-5.606h7.571v.284h-7.393Z" transform="translate(-238.359 -261.202)" fill="#008472"/>
    <circle id="Ellipse_46" data-name="Ellipse 46" cx="0.906" cy="0.906" r="0.906" transform="translate(0 10.295)" fill="#263238"/>
    <rect id="Rectangle_144" data-name="Rectangle 144" width="11.053" height="11.053" rx="5.01" transform="translate(10.664)" fill="#008472"/>
    <rect id="Rectangle_145" data-name="Rectangle 145" width="11.053" height="11.053" rx="5.01" transform="translate(10.664)" opacity="0.4"/>
    <path id="Path_847" data-name="Path 847" d="M292.333,259.007a1.055,1.055,0,1,1-1.045-1.187A1.076,1.076,0,0,1,292.333,259.007Z" transform="translate(-275.097 -254.693)" fill="#008472"/>
    <path id="Path_848" data-name="Path 848" d="M289.149,265.41a1.264,1.264,0,0,1-1.937,0,1.977,1.977,0,0,0-1.312,2.062h4.572A1.989,1.989,0,0,0,289.149,265.41Z" transform="translate(-271.99 -260.128)" fill="#008472"/>
    <ellipse id="Ellipse_47" data-name="Ellipse 47" cx="0.611" cy="0.693" rx="0.611" ry="0.693" transform="translate(12.564 4.831)" fill="#008472"/>
    <ellipse id="Ellipse_48" data-name="Ellipse 48" cx="0.611" cy="0.693" rx="0.611" ry="0.693" transform="translate(18.596 4.831)" fill="#008472"/>
    <path id="Path_849" data-name="Path 849" d="M302.263,269.641h1.877a1.161,1.161,0,0,0-.761-1.2.736.736,0,0,1-1.136,0,1.086,1.086,0,0,0-.193.088A2.84,2.84,0,0,1,302.263,269.641Z" transform="translate(-283.553 -262.297)" fill="#008472"/>
    <path id="Path_850" data-name="Path 850" d="M280.3,269.641a2.788,2.788,0,0,1,.21-1.113,1.113,1.113,0,0,0-.2-.088.733.733,0,0,1-1.136,0,1.141,1.141,0,0,0-.764,1.2Z" transform="translate(-266.627 -262.297)" fill="#008472"/>
    <path id="Path_851" data-name="Path 851" d="M292.333,259.007a1.055,1.055,0,1,1-1.045-1.187A1.076,1.076,0,0,1,292.333,259.007Z" transform="translate(-275.097 -254.693)" fill="#fff" opacity="0.8"/>
    <path id="Path_852" data-name="Path 852" d="M289.149,265.41a1.264,1.264,0,0,1-1.937,0,1.977,1.977,0,0,0-1.312,2.062h4.572A1.989,1.989,0,0,0,289.149,265.41Z" transform="translate(-271.99 -260.128)" fill="#fff" opacity="0.8"/>
    <ellipse id="Ellipse_49" data-name="Ellipse 49" cx="0.611" cy="0.693" rx="0.611" ry="0.693" transform="translate(12.564 4.831)" fill="#fff" opacity="0.8"/>
    <ellipse id="Ellipse_50" data-name="Ellipse 50" cx="0.611" cy="0.693" rx="0.611" ry="0.693" transform="translate(18.596 4.831)" fill="#fff" opacity="0.8"/>
    <path id="Path_853" data-name="Path 853" d="M302.263,269.641h1.877a1.161,1.161,0,0,0-.761-1.2.736.736,0,0,1-1.136,0,1.086,1.086,0,0,0-.193.088A2.84,2.84,0,0,1,302.263,269.641Z" transform="translate(-283.553 -262.297)" fill="#fff" opacity="0.8"/>
    <path id="Path_854" data-name="Path 854" d="M280.3,269.641a2.788,2.788,0,0,1,.21-1.113,1.113,1.113,0,0,0-.2-.088.733.733,0,0,1-1.136,0,1.141,1.141,0,0,0-.764,1.2Z" transform="translate(-266.627 -262.297)" fill="#fff" opacity="0.8"/>
  </g>
  <g id="freepik--Chart--inject-23" transform="translate(33.063 24.681)">
    <path id="Path_855" data-name="Path 855" d="M162.793,160.481l-2.681-5.447H152.72v-.284h7.571l2.758,5.606Z" transform="translate(-142.411 -148.704)" fill="#008472"/>
    <circle id="Ellipse_51" data-name="Ellipse 51" cx="0.906" cy="0.906" r="0.906" transform="translate(19.397 10.633)" fill="#263238"/>
    <rect id="Rectangle_146" data-name="Rectangle 146" width="11.053" height="11.053" rx="5.01" fill="#008472"/>
    <rect id="Rectangle_147" data-name="Rectangle 147" width="11.053" height="11.053" rx="5.01" opacity="0.4"/>
    <path id="Path_856" data-name="Path 856" d="M122.615,148.738l1.426,1.426,1.372-2.244,1.414,2.315,1.67-2.868.037.346.4-.04-.128-1.233-1.11.517.17.361.275-.131-1.318,2.269-1.409-2.3-1.448,2.371-1.394-1.4-1.25,1.7.321.236Z" transform="translate(-119.928 -142.754)" fill="#008472"/>
    <path id="Path_857" data-name="Path 857" d="M129.292,146.44v4.07H121.32v.3h8.27V146.44Z" transform="translate(-119.928 -142.754)" fill="#008472"/>
    <g id="Group_62" data-name="Group 62" transform="translate(1.392 3.686)" opacity="0.8">
      <path id="Path_858" data-name="Path 858" d="M122.615,148.738l1.426,1.426,1.372-2.244,1.414,2.315,1.67-2.868.037.346.4-.04-.128-1.233-1.11.517.17.361.275-.131-1.318,2.269-1.409-2.3-1.448,2.371-1.394-1.4-1.25,1.7.321.236Z" transform="translate(-121.32 -146.44)" fill="#fff"/>
      <path id="Path_859" data-name="Path 859" d="M129.292,146.44v4.07H121.32v.3h8.27V146.44Z" transform="translate(-121.32 -146.44)" fill="#fff"/>
    </g>
  </g>
  <g id="freepik--Setting--inject-23" transform="translate(33.077 43.197)">
    <path id="Path_860" data-name="Path 860" d="M162.793,218.211l-2.681-5.447H152.72v-.284h7.571l2.758,5.606Z" transform="translate(-142.425 -206.769)" fill="#008472"/>
    <circle id="Ellipse_52" data-name="Ellipse 52" cx="0.906" cy="0.906" r="0.906" transform="translate(19.383 10.298)" fill="#263238"/>
    <rect id="Rectangle_148" data-name="Rectangle 148" width="11.053" height="11.053" rx="5.01" fill="#008472"/>
    <rect id="Rectangle_149" data-name="Rectangle 149" width="11.053" height="11.053" rx="5.01" opacity="0.4"/>
    <path id="Path_861" data-name="Path 861" d="M127.324,203.122a1.844,1.844,0,0,0,0-.219l.7-.531a2.774,2.774,0,0,0-.284-.656l-.875.122a2.145,2.145,0,0,0-.31-.312l.122-.872a2.962,2.962,0,0,0-.656-.284l-.523.716a1.9,1.9,0,0,0-.222,0,1.847,1.847,0,0,0-.219,0l-.531-.7a2.905,2.905,0,0,0-.656.284l.122.872a2.32,2.32,0,0,0-.312.312l-.872-.122a2.905,2.905,0,0,0-.284.656l.7.531a2.139,2.139,0,0,0,0,.44l-.7.531a2.963,2.963,0,0,0,.284.656l.872-.122a2.144,2.144,0,0,0,.312.31l-.122.875a2.775,2.775,0,0,0,.656.284l.531-.7h.44l.531.7a2.824,2.824,0,0,0,.656-.284l-.122-.875a1.989,1.989,0,0,0,.31-.31l.875.122a2.823,2.823,0,0,0,.284-.656l-.7-.531A1.853,1.853,0,0,0,127.324,203.122Zm-2.05.653a.653.653,0,1,1,.653-.653A.653.653,0,0,1,125.273,203.775Z" transform="translate(-120.809 -198.098)" fill="#008472"/>
    <path id="Path_862" data-name="Path 862" d="M142.038,215.719v-.111l.352-.264a1.323,1.323,0,0,0-.136-.327l-.437.06a1.133,1.133,0,0,0-.153-.156l.06-.435a1.324,1.324,0,0,0-.327-.136l-.267.352a.685.685,0,0,0-.111,0,.671.671,0,0,0-.108,0l-.267-.352a1.324,1.324,0,0,0-.327.136l.06.435a1.35,1.35,0,0,0-.156.156l-.435-.06a1.323,1.323,0,0,0-.136.327l.352.264v.222l-.352.267a1.371,1.371,0,0,0,.136.327l.435-.062a1.013,1.013,0,0,0,.156.156l-.06.437a1.441,1.441,0,0,0,.327.136l.267-.352h.219l.267.352a1.442,1.442,0,0,0,.327-.136l-.06-.437a.889.889,0,0,0,.153-.156l.437.062a1.37,1.37,0,0,0,.136-.327l-.352-.267C142.036,215.793,142.038,215.756,142.038,215.719Zm-1.025.707a.707.707,0,1,1,.707-.707A.707.707,0,0,1,141.013,216.426Z" transform="translate(-133.067 -208.108)" fill="#008472"/>
    <g id="Group_63" data-name="Group 63" transform="translate(1.721 2.272)" opacity="0.8">
      <path id="Path_863" data-name="Path 863" d="M127.324,203.122a1.844,1.844,0,0,0,0-.219l.7-.531a2.774,2.774,0,0,0-.284-.656l-.875.122a2.145,2.145,0,0,0-.31-.312l.122-.872a2.962,2.962,0,0,0-.656-.284l-.523.716a1.9,1.9,0,0,0-.222,0,1.847,1.847,0,0,0-.219,0l-.531-.7a2.905,2.905,0,0,0-.656.284l.122.872a2.32,2.32,0,0,0-.312.312l-.872-.122a2.905,2.905,0,0,0-.284.656l.7.531a2.139,2.139,0,0,0,0,.44l-.7.531a2.963,2.963,0,0,0,.284.656l.872-.122a2.144,2.144,0,0,0,.312.31l-.122.875a2.775,2.775,0,0,0,.656.284l.531-.7h.44l.531.7a2.824,2.824,0,0,0,.656-.284l-.122-.875a1.989,1.989,0,0,0,.31-.31l.875.122a2.823,2.823,0,0,0,.284-.656l-.7-.531A1.853,1.853,0,0,0,127.324,203.122Zm-2.05.653a.653.653,0,1,1,.653-.653A.653.653,0,0,1,125.273,203.775Z" transform="translate(-122.53 -200.37)" fill="#fff"/>
      <path id="Path_864" data-name="Path 864" d="M142.038,215.719v-.111l.352-.264a1.323,1.323,0,0,0-.136-.327l-.437.06a1.133,1.133,0,0,0-.153-.156l.06-.435a1.324,1.324,0,0,0-.327-.136l-.267.352a.685.685,0,0,0-.111,0,.671.671,0,0,0-.108,0l-.267-.352a1.324,1.324,0,0,0-.327.136l.06.435a1.35,1.35,0,0,0-.156.156l-.435-.06a1.323,1.323,0,0,0-.136.327l.352.264v.222l-.352.267a1.371,1.371,0,0,0,.136.327l.435-.062a1.013,1.013,0,0,0,.156.156l-.06.437a1.441,1.441,0,0,0,.327.136l.267-.352h.219l.267.352a1.442,1.442,0,0,0,.327-.136l-.06-.437a.889.889,0,0,0,.153-.156l.437.062a1.37,1.37,0,0,0,.136-.327l-.352-.267C142.036,215.793,142.038,215.756,142.038,215.719Zm-1.025.707a.707.707,0,1,1,.707-.707A.707.707,0,0,1,141.013,216.426Z" transform="translate(-134.788 -210.38)" fill="#fff"/>
    </g>
  </g>
  <g id="freepik--Idea--inject-23" transform="translate(67.285 9.136)">
    <path id="Path_865" data-name="Path 865" d="M239.186,111.861l-.256-.125,2.758-5.606h7.571v.284h-7.393Z" transform="translate(-238.359 -100.745)" fill="#008472"/>
    <circle id="Ellipse_53" data-name="Ellipse 53" cx="0.906" cy="0.906" r="0.906" transform="translate(0 9.971)" fill="#263238"/>
    <rect id="Rectangle_150" data-name="Rectangle 150" width="11.053" height="11.053" rx="5.01" transform="translate(10.664)" fill="#008472"/>
    <rect id="Rectangle_151" data-name="Rectangle 151" width="11.053" height="11.053" rx="5.01" transform="translate(10.664)" opacity="0.4"/>
    <path id="Path_866" data-name="Path 866" d="M287.186,93a2.636,2.636,0,0,0-1.551,4.712,2.36,2.36,0,0,1,.866,1.352l.028.136H288l.028-.133a2.394,2.394,0,0,1,.88-1.366,2.638,2.638,0,0,0-1.724-4.7Zm.92,4.439-.355-.062.284-1.667-.466.338-.253-.716-.247.758-.537-.284.284,1.568-.355.062-.443-2.494.872.551.395-1.289.469,1.329.775-.5Z" transform="translate(-271.075 -91.341)" fill="#008472"/>
    <rect id="Rectangle_152" data-name="Rectangle 152" width="1.46" height="0.616" transform="translate(15.461 8.066)" fill="#008472"/>
    <path id="Path_867" data-name="Path 867" d="M292.077,118.841h.04a.912.912,0,0,0,.713-.341h-1.46A.912.912,0,0,0,292.077,118.841Z" transform="translate(-275.906 -109.602)" fill="#008472"/>
    <g id="Group_64" data-name="Group 64" transform="translate(15.461 8.066)" opacity="0.8">
      <rect id="Rectangle_153" data-name="Rectangle 153" width="1.46" height="0.616" fill="#fff"/>
      <path id="Path_868" data-name="Path 868" d="M292.077,118.841h.04a.912.912,0,0,0,.713-.341h-1.46A.912.912,0,0,0,292.077,118.841Z" transform="translate(-291.367 -117.668)" fill="#fff"/>
    </g>
    <path id="Path_869" data-name="Path 869" d="M287.186,93a2.636,2.636,0,0,0-1.551,4.712,2.36,2.36,0,0,1,.866,1.352l.028.136H288l.028-.133a2.394,2.394,0,0,1,.88-1.366,2.638,2.638,0,0,0-1.724-4.7Zm.92,4.439-.355-.062.284-1.667-.466.338-.253-.716-.247.758-.537-.284.284,1.568-.355.062-.443-2.494.872.551.395-1.289.469,1.329.775-.5Z" transform="translate(-271.075 -91.341)" fill="#fff" opacity="0.9"/>
  </g>
</svg>
