<svg xmlns="http://www.w3.org/2000/svg" width="110.646" height="98.935" viewBox="0 0 110.646 98.935">
  <g id="Conference_speaker-pana_1_" data-name="Conference speaker-pana (1)" transform="translate(-15.99 -41.49)">
    <g id="freepik--background-complete--inject-3" transform="translate(18.51 41.49)">
      <rect id="Rectangle_183" data-name="Rectangle 183" width="23.397" height="33.915" transform="translate(44.544 0)" fill="#e0e0e0"/>
      <rect id="Rectangle_184" data-name="Rectangle 184" width="23.397" height="33.915" transform="translate(43.37 0)" fill="#f5f5f5"/>
      <rect id="Rectangle_185" data-name="Rectangle 185" width="17.584" height="26.568" transform="translate(46.278 3.674)" fill="#fff"/>
      <path id="Path_1293" data-name="Path 1293" d="M240.861,83.387V81.423c0-1.273,0-3.129-.016-5.474,0-4.684-.016-11.317-.028-19.13l.059.059H223.293l.064-.064V83.383l-.052-.052,12.8.026,3.529.014h.019l-3.529.014-12.83.026h-.052v-.049c0-7.3,0-16.547-.012-26.568V56.73h17.707v.059c-.012,7.826-.024,14.474-.031,19.17,0,2.338-.012,4.187-.014,5.458v1.816A.435.435,0,0,1,240.861,83.387Z" transform="translate(-176.999 -53.145)" fill="#e0e0e0"/>
      <path id="Path_1294" data-name="Path 1294" d="M300.425,41.49A3.724,3.724,0,0,1,300,42.1c-.271.365-.656.859-1.1,1.393s-.852,1.009-1.155,1.346a4.156,4.156,0,0,1-.515.525,4.3,4.3,0,0,1,.447-.583l1.146-1.367,1.124-1.369A4.627,4.627,0,0,1,300.425,41.49Z" transform="translate(-233.591 -41.49)" fill="#e0e0e0"/>
      <path id="Path_1295" data-name="Path 1295" d="M298.56,169.68a21.619,21.619,0,0,0,3.058,3.837" transform="translate(-234.608 -139.525)" fill="#fff"/>
      <path id="Path_1296" data-name="Path 1296" d="M301.628,173.542a3.468,3.468,0,0,1-.536-.487c-.313-.318-.732-.774-1.157-1.306a17.242,17.242,0,0,1-1.019-1.411,3.379,3.379,0,0,1-.355-.628,5,5,0,0,1,.43.579c.259.362.621.856,1.044,1.386s.826.993,1.122,1.324A5.087,5.087,0,0,1,301.628,173.542Z" transform="translate(-234.608 -139.547)" fill="#e0e0e0"/>
      <path id="Path_1297" data-name="Path 1297" d="M211.06,173.253l3.058-3.783" transform="translate(-167.692 -139.364)" fill="#fff"/>
      <path id="Path_1298" data-name="Path 1298" d="M214.125,169.47a23.523,23.523,0,0,1-1.484,1.931,24.237,24.237,0,0,1-1.581,1.851,22.533,22.533,0,0,1,1.482-1.931A23.326,23.326,0,0,1,214.125,169.47Z" transform="translate(-167.692 -139.364)" fill="#e0e0e0"/>
      <path id="Path_1299" data-name="Path 1299" d="M211.07,41.49a21.592,21.592,0,0,1,1.489,1.778,22.049,22.049,0,0,1,1.388,1.858,21.119,21.119,0,0,1-1.482-1.778,21.6,21.6,0,0,1-1.395-1.858Z" transform="translate(-167.7 -41.49)" fill="#e0e0e0"/>
      <rect id="Rectangle_186" data-name="Rectangle 186" width="5.888" height="16.716" transform="translate(52.495 9.069)" fill="#e0e0e0"/>
      <path id="Path_1300" data-name="Path 1300" d="M376.866,57.33V75.265H351.109l-.929-17.808Z" transform="translate(-274.085 -53.604)" fill="#e0e0e0"/>
      <rect id="Rectangle_187" data-name="Rectangle 187" width="17.77" height="25.759" transform="translate(76.095 21.623) rotate(-90)" fill="#fff"/>
      <path id="Path_1301" data-name="Path 1301" d="M375.663,75.365h-26V57.35h26ZM349.9,75.129h25.514V57.595H349.9Z" transform="translate(-273.688 -53.619)" fill="#e0e0e0"/>
      <rect id="Rectangle_188" data-name="Rectangle 188" width="20.179" height="13.355" transform="translate(78.885 6.06)" fill="#fff"/>
      <path id="Path_1302" data-name="Path 1302" d="M381.982,67.059h-1.494l-4.159.016-14.535.042.059-.059V80.413h0l-.063-.064h20.179l-.052.052c0-4.065.021-7.4.028-9.718V68c0,.619,0,1.522.012,2.675,0,2.329.016,5.672.028,9.751v.049h-.052l-20.139.007h-.063v-.071h0V67h.063l14.564.028,4.145.014h1.379Z" transform="translate(-282.918 -60.999)" fill="#e0e0e0"/>
      <path id="Path_1303" data-name="Path 1303" d="M350.18,57.66a2.119,2.119,0,0,1,.442.287c.263.188.623.459,1.012.769s.727.6.967.823a2.118,2.118,0,0,1,.369.376,17.735,17.735,0,0,1-1.411-1.1,14.5,14.5,0,0,1-1.379-1.155Z" transform="translate(-274.085 -53.856)" fill="#e0e0e0"/>
      <path id="Path_1304" data-name="Path 1304" d="M450.61,57.87a12.92,12.92,0,0,1-1.355,1.153,12.594,12.594,0,0,1-1.435,1.054,12.911,12.911,0,0,1,1.355-1.153A12.6,12.6,0,0,1,450.61,57.87Z" transform="translate(-348.756 -54.017)" fill="#e0e0e0"/>
      <path id="Path_1305" data-name="Path 1305" d="M450.252,125.857l-2.872-2.327" transform="translate(-348.42 -104.231)" fill="#fff"/>
      <path id="Path_1306" data-name="Path 1306" d="M447.38,123.53a13.021,13.021,0,0,1,1.477,1.113,13.673,13.673,0,0,1,1.4,1.214,13.248,13.248,0,0,1-1.475-1.115A14.012,14.012,0,0,1,447.38,123.53Z" transform="translate(-348.42 -104.231)" fill="#e0e0e0"/>
      <path id="Path_1307" data-name="Path 1307" d="M350.18,126.313a12.194,12.194,0,0,1,1.341-1.141,11.935,11.935,0,0,1,1.411-1.042,12.5,12.5,0,0,1-1.341,1.141A11.939,11.939,0,0,1,350.18,126.313Z" transform="translate(-274.085 -104.69)" fill="#e0e0e0"/>
      <rect id="Rectangle_189" data-name="Rectangle 189" width="4.472" height="12.696" transform="translate(82.982 14.693) rotate(-90)" fill="#e0e0e0"/>
      <path id="Path_1308" data-name="Path 1308" d="M66.018,57.32V75.252H40.259L39.33,57.445Z" transform="translate(-36.36 -53.596)" fill="#e0e0e0"/>
      <rect id="Rectangle_190" data-name="Rectangle 190" width="17.77" height="25.759" transform="translate(2.97 21.619) rotate(-90)" fill="#fff"/>
      <path id="Path_1309" data-name="Path 1309" d="M64.813,75.345h-26V57.33h26Zm-25.759-.235H64.569V57.575H39.055Z" transform="translate(-35.962 -53.604)" fill="#e0e0e0"/>
      <rect id="Rectangle_191" data-name="Rectangle 191" width="20.179" height="13.355" transform="translate(5.76 6.057)" fill="#fff"/>
      <path id="Path_1310" data-name="Path 1310" d="M71.192,67.056H69.7l-4.159.016L51.014,67.1l.059-.056V80.4h0l-.064-.064,20.179.012-.049.052c0-4.065.019-7.4.026-9.718V70.67c0,2.327.016,5.669.028,9.748v.049h0l-20.179.014H50.95v-.073h0V67h.059l14.564.028,4.145.016H71.1Z" transform="translate(-45.246 -60.999)" fill="#e0e0e0"/>
      <path id="Path_1311" data-name="Path 1311" d="M39.33,57.64a2.094,2.094,0,0,1,.445.287c.263.191.621.47,1.009.769s.727.6.967.823a1.988,1.988,0,0,1,.369.379c-.024.026-.642-.485-1.411-1.1A14.5,14.5,0,0,1,39.33,57.64Z" transform="translate(-36.36 -53.841)" fill="#e0e0e0"/>
      <path id="Path_1312" data-name="Path 1312" d="M139.76,57.85A12.594,12.594,0,0,1,138.4,59a12.813,12.813,0,0,1-1.435,1.056,12.448,12.448,0,0,1,1.355-1.155A12.6,12.6,0,0,1,139.76,57.85Z" transform="translate(-111.031 -54.001)" fill="#e0e0e0"/>
      <path id="Path_1313" data-name="Path 1313" d="M139.41,125.837l-2.87-2.327" transform="translate(-110.702 -104.216)" fill="#fff"/>
      <path id="Path_1314" data-name="Path 1314" d="M136.54,123.51a13.239,13.239,0,0,1,1.475,1.115,13.5,13.5,0,0,1,1.395,1.211,26.5,26.5,0,0,1-2.87-2.327Z" transform="translate(-110.702 -104.216)" fill="#e0e0e0"/>
      <path id="Path_1315" data-name="Path 1315" d="M39.33,126.293a12.492,12.492,0,0,1,1.341-1.141,12.5,12.5,0,0,1,1.411-1.042,12.184,12.184,0,0,1-1.341,1.141A11.717,11.717,0,0,1,39.33,126.293Z" transform="translate(-36.36 -104.674)" fill="#e0e0e0"/>
      <rect id="Rectangle_192" data-name="Rectangle 192" width="4.472" height="12.696" transform="translate(9.858 14.688) rotate(-90)" fill="#e0e0e0"/>
      <path id="Path_1316" data-name="Path 1316" d="M341.995,375.732s-7.928,4.418-7.979,6.234c-.019.586-.235,10.367-.235,13.223h9.113l.153-9.727.882,9.727h9.428l.174-9.424s5.309-.927,7-2-.687-8.678-.687-8.678Z" transform="translate(-261.543 -296.614)" fill="#e0e0e0"/>
      <path id="Path_1317" data-name="Path 1317" d="M335.135,290.41c-.252,0-2.011,3.188-3.293,5.585a4.6,4.6,0,0,1-4.373,2.407h0a4.6,4.6,0,0,1-4.234-3.905l-1.085-12.4L326.495,281l1.771,9.713,1.089-3.086Z" transform="translate(-252.649 -224.657)" fill="#f5f5f5"/>
      <path id="Path_1318" data-name="Path 1318" d="M321.251,258.127l-.143-2.176s-.614-4.886-.614-5.364c0-.55-.266-.684-.47-.67-.315.021-.541.412-.555.884,0,.162.014,2.745.014,2.745a6,6,0,0,0-.5-.706,2.822,2.822,0,0,0-2.2-.732c-.92.028-1.176.12-1.176.47a.471.471,0,0,0,.181.348.913.913,0,0,0,.607.209c1.475-.028,1.87.76,1.87.76l.019.285a2.062,2.062,0,0,0-1.609-.369.875.875,0,0,0-.285.176,1.155,1.155,0,0,0-1,1.72.482.482,0,0,0,.47.289.607.607,0,0,0,.261-.16,1.115,1.115,0,0,1,.132-.1l.165.79s.47,1.757.581,2.543" transform="translate(-247.367 -200.886)" fill="#f5f5f5"/>
      <path id="Path_1319" data-name="Path 1319" d="M330.076,273.158a.673.673,0,0,1-.706-.365c-.146-.235-.207-.52-.334-.769-.383-.746-1.313-1.1-1.661-1.865-.049-.108-.075-.254.019-.325s.209-.012.3.04l2.43,1.346" transform="translate(-256.611 -216.094)" fill="#f5f5f5"/>
      <path id="Path_1320" data-name="Path 1320" d="M329.909,271a1.029,1.029,0,0,0-.247-.172c-.165-.1-.4-.235-.706-.419l-1.054-.6-.306-.172a.551.551,0,0,0-.4-.115.235.235,0,0,0-.16.209.469.469,0,0,0,.04.223,1.84,1.84,0,0,0,.209.353,11.073,11.073,0,0,0,1.085,1.03,2.12,2.12,0,0,1,.386.494c.092.172.148.353.219.515a.985.985,0,0,0,.565.607.36.36,0,0,0,.306-.012.873.873,0,0,1-.285-.047.941.941,0,0,1-.47-.59c-.064-.158-.115-.343-.209-.534a2.16,2.16,0,0,0-.4-.534,12.329,12.329,0,0,1-1.061-1.026,1.575,1.575,0,0,1-.191-.318c-.047-.1-.04-.212.021-.223a.556.556,0,0,1,.28.1l.308.167,1.07.574c.308.162.555.289.729.376A1.14,1.14,0,0,0,329.909,271Z" transform="translate(-256.385 -215.875)" fill="#e0e0e0"/>
      <path id="Path_1321" data-name="Path 1321" d="M319.393,262.391a1.159,1.159,0,0,0-.169-.5.882.882,0,0,0-.449-.327,2.355,2.355,0,0,0-.706-.1,3.435,3.435,0,0,1-.729-.063,1.132,1.132,0,0,1-.541-.271.452.452,0,0,1-.146-.381c.014-.1.045-.143.049-.141a1.167,1.167,0,0,1,0,.143.426.426,0,0,0,.155.327,1.127,1.127,0,0,0,.513.235,3.905,3.905,0,0,0,.706.054,2.133,2.133,0,0,1,.727.115.925.925,0,0,1,.471.374.831.831,0,0,1,.125.388A.292.292,0,0,1,319.393,262.391Z" transform="translate(-248.443 -209.064)" fill="#e0e0e0"/>
      <path id="Path_1322" data-name="Path 1322" d="M332.842,252.9a2.6,2.6,0,0,1,0,.515c0,.351,0,.772-.014,1.235s0,.882,0,1.235a2.663,2.663,0,0,1-.012.513,2.45,2.45,0,0,1-.061-.51c-.021-.315-.035-.755-.035-1.237s.021-.922.045-1.24A2.559,2.559,0,0,1,332.842,252.9Z" transform="translate(-260.733 -203.168)" fill="#e0e0e0"/>
      <path id="Path_1323" data-name="Path 1323" d="M320.214,268.486a.66.66,0,0,1-.148-.059.482.482,0,0,0-.4-.019.257.257,0,0,0-.134.214,1.414,1.414,0,0,0,.026.334.588.588,0,0,1-.063.4.487.487,0,0,1-.393.2.553.553,0,0,1-.4-.176.685.685,0,0,1-.191-.358,2.259,2.259,0,0,1,0-.661,1.32,1.32,0,0,1,.132-.426.31.31,0,0,1,.1-.125,1.515,1.515,0,0,0-.068.143,1.557,1.557,0,0,0-.1.416,2.41,2.41,0,0,0,.012.633.548.548,0,0,0,.5.449.391.391,0,0,0,.313-.158.482.482,0,0,0,.052-.336,1.307,1.307,0,0,1-.014-.358.325.325,0,0,1,.186-.266.5.5,0,0,1,.445.047C320.174,268.443,320.219,268.481,320.214,268.486Z" transform="translate(-249.848 -214.578)" fill="#e0e0e0"/>
      <path id="Path_1324" data-name="Path 1324" d="M315.9,268.975a.236.236,0,0,1-.014.146.449.449,0,0,1-.3.266.6.6,0,0,1-.565-.176.964.964,0,0,1-.252-.677,1.176,1.176,0,0,1,.221-.689,1.115,1.115,0,0,1,.47-.369,1.1,1.1,0,0,1,.386-.092.332.332,0,0,1,.144.014,1.939,1.939,0,0,0-.5.143,1.115,1.115,0,0,0-.414.358,1.129,1.129,0,0,0-.2.635.91.91,0,0,0,.219.614.527.527,0,0,0,.47.169.425.425,0,0,0,.28-.212C315.891,269.026,315.891,268.975,315.9,268.975Z" transform="translate(-247.004 -214.241)" fill="#e0e0e0"/>
      <path id="Path_1325" data-name="Path 1325" d="M327.13,278.059a.421.421,0,0,1,.247,0,.981.981,0,0,1,.536.325l-.087.026a2.845,2.845,0,0,1,.059-.343,2.2,2.2,0,0,1,.532-1.066,5.546,5.546,0,0,0-.433,1.1c-.026.115-.045.235-.059.332l-.016.115-.071-.089a1.022,1.022,0,0,0-.471-.329C327.219,278.075,327.13,278.07,327.13,278.059Z" transform="translate(-256.458 -221.598)" fill="#e0e0e0"/>
      <path id="Path_1326" data-name="Path 1326" d="M324.574,262.815c.024.012-.075.2-.3.294a.457.457,0,0,1-.421.019c0-.028.186-.024.381-.113S324.551,262.8,324.574,262.815Z" transform="translate(-253.949 -210.749)" fill="#e0e0e0"/>
      <path id="Path_1327" data-name="Path 1327" d="M369.746,273.5l7.6-1.87s-.482-1.176-1.823-5.152a16.589,16.589,0,0,0-2.31-4.94s-3.884-2.143-6.163-3.383l-1.6-1.687v.169l-1.484.661-2.352,1.033-2.258-.828-.941-.348-.332.659-4.03,1.108s-2.875,1.047-4.726,5.272a45.1,45.1,0,0,0-2.442,6.116l5.952,3.456-.986,11.63,18.217.012-.36-8.911Z" transform="translate(-271.569 -205.898)" fill="#e0e0e0"/>
      <path id="Path_1328" data-name="Path 1328" d="M439.59,281.072a.926.926,0,0,1,.021-.188,2.592,2.592,0,0,1,.143-.494,3.14,3.14,0,0,1,1.038-1.324,3.651,3.651,0,0,1,1.557-.649,3.334,3.334,0,0,1,.51-.052.915.915,0,0,1,.188,0c0,.014-.268.014-.689.1a3.854,3.854,0,0,0-1.522.656,3.237,3.237,0,0,0-1.033,1.287,5.377,5.377,0,0,0-.214.666Z" transform="translate(-342.462 -222.638)" fill="#ebebeb"/>
      <path id="Path_1329" data-name="Path 1329" d="M446.651,301.442l-.04.014-.115.031-.452.118-1.663.409-5.5,1.329h-.071v-.04c-.367-2.167-.706-4.126-.941-5.552l-.275-1.682c-.031-.2-.054-.348-.073-.459l-.016-.118v-.042a.336.336,0,0,1,0,.04.851.851,0,0,0,.026.118c.019.111.049.263.085.456.071.4.174.974.3,1.677.247,1.426.588,3.383.962,5.549l-.045-.031h.033l5.5-1.306,1.668-.388.454-.1.12-.023Z" transform="translate(-340.872 -235.708)" fill="#ebebeb"/>
      <path id="Path_1330" data-name="Path 1330" d="M394.439,262.19a.715.715,0,0,1,.026.118c.016.087.035.2.056.329h0a11.8,11.8,0,0,0,1.663,1.661l.223.179c.071.056.153.111.212.08s.094-.129.139-.2l.129-.235c.172-.292.336-.548.47-.757a5.484,5.484,0,0,1,.355-.489q.068-.085.106-.127l.042-.04a1.626,1.626,0,0,1-.125.183c-.082.118-.2.287-.334.5s-.3.471-.471.765l-.127.224-.064.118a.273.273,0,0,1-.106.115.191.191,0,0,1-.165,0,.668.668,0,0,1-.125-.082l-.235-.179a10.015,10.015,0,0,1-1.647-1.7h0c-.014-.134-.028-.235-.038-.332A.422.422,0,0,1,394.439,262.19Z" transform="translate(-307.923 -210.272)" fill="#ebebeb"/>
      <path id="Path_1331" data-name="Path 1331" d="M414.922,263.24s-.019.014-.059.04l-.179.1-.654.374c-.553.315-1.31.762-2.117,1.284-.353.235-.687.447-.993.652l-.031.021-.019-.033c-.339-.593-.616-1.106-.8-1.477-.092-.186-.16-.334-.2-.438a.987.987,0,0,1-.059-.165,1.193,1.193,0,0,1,.08.155c.049.1.125.235.221.428.193.362.471.873.821,1.461h-.049c.3-.207.635-.431.988-.656.821-.522,1.583-.964,2.143-1.268.28-.153.508-.271.668-.353l.183-.089Z" transform="translate(-319.688 -211.075)" fill="#ebebeb"/>
      <path id="Path_1332" data-name="Path 1332" d="M392.428,209.158l.019-9.621a5.147,5.147,0,0,0-5.269-5.161H387.1a5.389,5.389,0,0,0-4.94,5.387c0,2.456.047,5.121.172,6.424a3.338,3.338,0,0,0,3.07,2.969v.506l3.2,1.176Z" transform="translate(-298.542 -158.409)" fill="#f5f5f5"/>
      <path id="Path_1333" data-name="Path 1333" d="M395.89,252.764a6.469,6.469,0,0,0,3.529-1.324,3.425,3.425,0,0,1-3.474,2.042Z" transform="translate(-309.043 -202.051)" fill="#ebebeb"/>
      <path id="Path_1334" data-name="Path 1334" d="M386.779,222.439a.4.4,0,0,0,.414.367.379.379,0,0,0,.379-.39.4.4,0,0,0-.414-.367.379.379,0,0,0-.379.39Z" transform="translate(-302.075 -179.573)" fill="#e0e0e0"/>
      <path id="Path_1335" data-name="Path 1335" d="M385.134,220.419c.054.047.334-.2.76-.235s.755.153.8.1-.038-.113-.181-.2a1.087,1.087,0,0,0-.642-.143,1.051,1.051,0,0,0-.6.252C385.143,220.306,385.108,220.4,385.134,220.419Z" transform="translate(-300.811 -177.955)" fill="#e0e0e0"/>
      <path id="Path_1336" data-name="Path 1336" d="M404.39,221.729a.4.4,0,0,0,.416.367.377.377,0,0,0,.376-.391.4.4,0,0,0-.414-.367.381.381,0,0,0-.379.39Z" transform="translate(-315.543 -179.03)" fill="#e0e0e0"/>
      <path id="Path_1337" data-name="Path 1337" d="M402.965,219.307c.052.047.334-.2.76-.235s.755.153.8.1-.035-.115-.181-.2a1.089,1.089,0,0,0-.645-.141,1.051,1.051,0,0,0-.6.249C402.965,219.19,402.934,219.286,402.965,219.307Z" transform="translate(-314.445 -177.105)" fill="#e0e0e0"/>
      <path id="Path_1338" data-name="Path 1338" d="M393.935,223.271a2.9,2.9,0,0,0-.706-.066c-.111,0-.214-.016-.235-.089a.546.546,0,0,1,.047-.327c.08-.273.165-.558.252-.856a14.068,14.068,0,0,0,.543-2.223,14.267,14.267,0,0,0-.72,2.176c-.085.3-.165.583-.235.859a.635.635,0,0,0-.021.43.27.27,0,0,0,.193.143.748.748,0,0,0,.186,0A2.732,2.732,0,0,0,393.935,223.271Z" transform="translate(-306.704 -177.785)" fill="#e0e0e0"/>
      <path id="Path_1339" data-name="Path 1339" d="M398.893,235.66c-.071,0-.033.471-.4.826s-.866.351-.863.416c0,.028.118.08.325.068a1.143,1.143,0,0,0,.722-.32,1,1,0,0,0,.308-.689C398.973,235.765,398.912,235.655,398.893,235.66Z" transform="translate(-310.373 -189.983)" fill="#e0e0e0"/>
      <path id="Path_1340" data-name="Path 1340" d="M401.91,212.551c.052.113.47.024.976.042s.92.12.978.012c.026-.052-.054-.155-.235-.254a1.691,1.691,0,0,0-1.489-.04C401.973,212.4,401.888,212.5,401.91,212.551Z" transform="translate(-313.644 -172.01)" fill="#e0e0e0"/>
      <path id="Path_1341" data-name="Path 1341" d="M385.342,215.05c.082.089.367-.035.72-.068s.656.012.717-.1c.026-.052-.028-.143-.167-.235a1,1,0,0,0-.6-.108.991.991,0,0,0-.558.235C385.337,214.9,385.3,215.006,385.342,215.05Z" transform="translate(-300.964 -173.827)" fill="#e0e0e0"/>
      <path id="Path_1342" data-name="Path 1342" d="M412,198.461h.016a2.2,2.2,0,0,1,.927,1.343.372.372,0,0,0,.012.054c.174.783.221,1.588.4,2.367s.148,1.376.927,1.553a1.045,1.045,0,0,0,1.089-.442.681.681,0,0,0,.068-.369c-.012-1.922.376-2.668.207-4.663a1.687,1.687,0,0,0-.812-1.31c-.442-.266-.979-.534-1.423-.275a7.892,7.892,0,0,0-1.306,1.574" transform="translate(-321.363 -160.122)" fill="#e0e0e0"/>
      <path id="Path_1343" data-name="Path 1343" d="M422.36,221.532c.047-.024,1.858-.72,1.955,1.176a1.432,1.432,0,0,1-1.837,1.55C422.471,224.2,422.36,221.532,422.36,221.532Z" transform="translate(-329.286 -179.069)" fill="#f5f5f5"/>
      <path id="Path_1344" data-name="Path 1344" d="M425.165,225.488a.612.612,0,0,0,.092.042.322.322,0,0,0,.247,0,.811.811,0,0,0,.341-.753,1.059,1.059,0,0,0-.115-.471.384.384,0,0,0-.261-.235.165.165,0,0,0-.191.1c-.024.054,0,.092-.019.094s-.042-.028-.033-.108a.207.207,0,0,1,.071-.122.249.249,0,0,1,.179-.059.471.471,0,0,1,.362.278,1.137,1.137,0,0,1,.141.525.875.875,0,0,1-.442.844.355.355,0,0,1-.3-.035C425.172,225.533,425.158,225.491,425.165,225.488Z" transform="translate(-331.429 -181.049)" fill="#ebebeb"/>
      <path id="Path_1345" data-name="Path 1345" d="M382.925,191.677c.4-.8-.965-1.778-1.924-1.995a5.611,5.611,0,0,0-3.058.725,5.375,5.375,0,0,1-1.755.59,4.234,4.234,0,0,1-1.226-.207,3.058,3.058,0,0,0-1.23-.139,1.143,1.143,0,0,0-.941.706.719.719,0,0,0,.56.927.941.941,0,1,0-.106,1.743c-.287-.181-.673.191-.612.525a.987.987,0,0,0,.706.663,3.559,3.559,0,0,0,2.524-.249c.793-.343,1.52-.835,2.305-1.2s2.1-1,2.936-.786c.616.162,1.094.849,1.411.661a1.151,1.151,0,0,0,.529-.9,3.347,3.347,0,0,0-.127-1.075" transform="translate(-290.778 -154.784)" fill="#e0e0e0"/>
      <path id="Path_1346" data-name="Path 1346" d="M437.744,321.68l2.693,6.427a4.079,4.079,0,0,1-.235,3.623h0a4.077,4.077,0,0,1-4.063,1.995l-9.41-.915.174-3.721,6.947-1.106-1.931-4.884Z" transform="translate(-332.628 -255.768)" fill="#f5f5f5"/>
      <path id="Path_1347" data-name="Path 1347" d="M399.067,346.631s-1.522-.336-2.174-.47c-.212-.042-.4-.16-.6-.216a7.931,7.931,0,0,1-2.552-1.2c-.492-.482-.854.261-.365.868a3.466,3.466,0,0,0,.866.819l-2.082.546a.438.438,0,0,0-.261.191l-1.607,2.536a.506.506,0,0,0,.059.668.252.252,0,0,0,.341.026l-.207.346a.524.524,0,0,0,.87.581l.014-.019.4.543s.191.532.807.191c.508-.285,2.221-1.543,2.221-1.543s4.83.108,5.069-.6Z" transform="translate(-304.682 -273.29)" fill="#f5f5f5"/>
      <path id="Path_1348" data-name="Path 1348" d="M395.13,362.841a4.537,4.537,0,0,0,.4-.6c.235-.374.609-.887.967-1.465.191-.273.4-.546.574-.758a.518.518,0,0,1,.329-.153l.365-.054a2.949,2.949,0,0,0,.706-.146,3.022,3.022,0,0,0-.732.024l-.367.031a.673.673,0,0,0-.426.181,8.225,8.225,0,0,0-.607.776c-.362.59-.706,1.1-.927,1.5A2.328,2.328,0,0,0,395.13,362.841Z" transform="translate(-308.461 -284.805)" fill="#e0e0e0"/>
      <path id="Path_1349" data-name="Path 1349" d="M392.31,359.483c.056.04.6-.9,1.379-1.964a2.007,2.007,0,0,1,.6-.645,5.042,5.042,0,0,1,.706-.247,2.87,2.87,0,0,1,.5-.1h.186a.343.343,0,0,0-.186-.059,2.051,2.051,0,0,0-.525.042,4.394,4.394,0,0,0-.746.221,2.006,2.006,0,0,0-.68.689,13.84,13.84,0,0,0-.922,1.437A3.145,3.145,0,0,0,392.31,359.483Z" transform="translate(-306.305 -282.374)" fill="#e0e0e0"/>
      <path id="Path_1350" data-name="Path 1350" d="M400.4,364.649a2.466,2.466,0,0,0-.644.012l-.322.028a1,1,0,0,0-.388.082.941.941,0,0,0-.332.282l-.294.332a14.025,14.025,0,0,0-1.376,1.708,14.562,14.562,0,0,0,1.505-1.588l.289-.334a.878.878,0,0,1,.278-.256,1.039,1.039,0,0,1,.334-.082l.32-.047A2.35,2.35,0,0,0,400.4,364.649Z" transform="translate(-309.925 -288.617)" fill="#e0e0e0"/>
      <path id="Path_1351" data-name="Path 1351" d="M406.951,351.819a3.6,3.6,0,0,0-1.477-.019,4.3,4.3,0,0,0-1.444.313,10.906,10.906,0,0,0,1.463-.136l1.03-.1A2.189,2.189,0,0,0,406.951,351.819Z" transform="translate(-315.267 -278.763)" fill="#e0e0e0"/>
      <path id="Path_1352" data-name="Path 1352" d="M273.055,212.65a1.27,1.27,0,0,1,.51-1.534,1.962,1.962,0,0,1,1.7-.132,2.766,2.766,0,0,1,1.8,2.352,2.007,2.007,0,0,1,1.077.725,2.687,2.687,0,0,1-.2,3.4,3,3,0,0,1-3.427.553,3.416,3.416,0,0,1-1.809-3.03" transform="translate(-214.832 -171.01)" fill="#e0e0e0"/>
      <path id="Path_1353" data-name="Path 1353" d="M236.769,193.835a1.534,1.534,0,0,0-1.1-1.3,8.451,8.451,0,0,1-1.694-.654,8.135,8.135,0,0,1-1.12-1.155,3.736,3.736,0,0,0-6.3,1.687,2.45,2.45,0,0,0,.6,2.463,3.511,3.511,0,0,0,2.976.325,3.877,3.877,0,0,1,3.006.2,4.312,4.312,0,0,1,1.108,1.489,2.662,2.662,0,0,0,1.287,1.3c.581.207,1.39-.141,1.411-.765" transform="translate(-179.47 -154.755)" fill="#e0e0e0"/>
      <path id="Path_1354" data-name="Path 1354" d="M230.435,200.022a1.7,1.7,0,0,0,.661,1.327,2.33,2.33,0,0,1,.84,1.254c.073.593-.365,1.176-.235,1.764a4.292,4.292,0,0,0,.539,1,2.118,2.118,0,0,1,.1,1.56,6.988,6.988,0,0,1-.757,2.051,8.233,8.233,0,0,1-4,2.364,15.409,15.409,0,0,1-4.413.221c-1.207-.08-2.588-.031-3.592-1.7a12.481,12.481,0,0,1-1.044-2.976,4.594,4.594,0,0,1-.184-2.555c.146-.47.44-.91.583-1.395a10.79,10.79,0,0,0,.193-1.882,4.307,4.307,0,0,1,6.144-3.373" transform="translate(-173.179 -160.616)" fill="#e0e0e0"/>
      <path id="Path_1355" data-name="Path 1355" d="M223.987,205.775c.12-1.734,1.284-3.851,3.009-3.656l5.382,1.4a1.016,1.016,0,0,1,.9,1.037l-.666,13h.038s-1.244,3.663-4.8,2.526a2.089,2.089,0,0,1-1.16-1.8h-.038v-.271a8.485,8.485,0,0,1-.012-1.785h0v-1.47a3.586,3.586,0,0,1-2.651-3.275A30.274,30.274,0,0,1,223.987,205.775Z" transform="translate(-177.474 -164.323)" fill="#f5f5f5"/>
      <path id="Path_1356" data-name="Path 1356" d="M228.09,223.768a.372.372,0,0,0,.355.376.358.358,0,0,0,.386-.332.372.372,0,0,0-.355-.376.358.358,0,0,0-.386.332Z" transform="translate(-180.716 -180.634)" fill="#e0e0e0"/>
      <path id="Path_1357" data-name="Path 1357" d="M226.55,221.666c.045.049.327-.158.725-.153s.689.2.734.155-.026-.108-.153-.2a1.035,1.035,0,0,0-.586-.186.993.993,0,0,0-.579.183C226.569,221.558,226.526,221.645,226.55,221.666Z" transform="translate(-179.533 -178.986)" fill="#e0e0e0"/>
      <path id="Path_1358" data-name="Path 1358" d="M244.63,224.057a.369.369,0,0,0,.353.376.358.358,0,0,0,.386-.332.372.372,0,0,0-.355-.376.353.353,0,0,0-.383.332Z" transform="translate(-193.365 -180.855)" fill="#e0e0e0"/>
      <path id="Path_1359" data-name="Path 1359" d="M243.2,222.1c.045.049.327-.158.727-.153s.689.2.732.155-.024-.108-.151-.2a1.042,1.042,0,0,0-.586-.186.981.981,0,0,0-.579.184C243.219,221.987,243.176,222.075,243.2,222.1Z" transform="translate(-192.266 -179.315)" fill="#e0e0e0"/>
      <path id="Path_1360" data-name="Path 1360" d="M233.724,225.078a2.757,2.757,0,0,0-.645-.12c-.1-.012-.2-.033-.216-.1a.522.522,0,0,1,.071-.3c.1-.247.2-.5.306-.774a13.226,13.226,0,0,0,.689-2.023,13.453,13.453,0,0,0-.849,1.962c-.1.273-.2.532-.294.779a.6.6,0,0,0-.056.4.254.254,0,0,0,.167.148.624.624,0,0,0,.172.026,2.57,2.57,0,0,0,.656,0Z" transform="translate(-184.254 -179.352)" fill="#e0e0e0"/>
      <path id="Path_1361" data-name="Path 1361" d="M235.68,252.647a7.337,7.337,0,0,0,3.874-1.007,3.665,3.665,0,0,1-3.841,1.689Z" transform="translate(-186.52 -202.204)" fill="#ebebeb"/>
      <path id="Path_1362" data-name="Path 1362" d="M237.536,239.134a.722.722,0,0,1,.647-.261.659.659,0,0,1,.452.235.416.416,0,0,1,.028.47.487.487,0,0,1-.525.129,1.513,1.513,0,0,1-.508-.308.486.486,0,0,1-.113-.118.134.134,0,0,1,0-.148" transform="translate(-187.908 -192.436)" fill="#ebebeb"/>
      <path id="Path_1363" data-name="Path 1363" d="M237.847,237.08c-.064,0-.068.428-.44.734s-.833.252-.837.313.1.085.3.092a1.082,1.082,0,0,0,.706-.235.927.927,0,0,0,.341-.614C237.915,237.186,237.868,237.078,237.847,237.08Z" transform="translate(-187.201 -191.069)" fill="#e0e0e0"/>
      <path id="Path_1364" data-name="Path 1364" d="M242.474,219.427c.038.108.435.059.9.12s.844.188.908.092c.028-.047-.038-.148-.191-.254a1.586,1.586,0,0,0-1.379-.162C242.544,219.29,242.457,219.375,242.474,219.427Z" transform="translate(-191.714 -177.344)" fill="#e0e0e0"/>
      <path id="Path_1365" data-name="Path 1365" d="M227.188,216.682c.071.092.346,0,.675,0s.609.064.675-.031c.028-.045-.016-.136-.136-.223a.941.941,0,0,0-.548-.151.922.922,0,0,0-.539.176C227.2,216.551,227.157,216.642,227.188,216.682Z" transform="translate(-180.018 -175.16)" fill="#e0e0e0"/>
      <path id="Path_1366" data-name="Path 1366" d="M242.446,211.021a2.566,2.566,0,0,1-3.039-2.851c.094-.706.47-1.428.235-2.1-.32-.889-1.564-1.176-1.882-2.056-.191-.515-.014-1.117-.235-1.623a1.887,1.887,0,0,0-1.176-.927,5.15,5.15,0,0,1-1.411-.621,1.11,1.11,0,0,1-.393-1.362,27.362,27.362,0,0,1,6.3,1.562,2.452,2.452,0,0,1,1.242.812,2.646,2.646,0,0,1,.249,1.55q-.2,3.888-.4,7.779" transform="translate(-185.568 -162.314)" fill="#e0e0e0"/>
      <path id="Path_1367" data-name="Path 1367" d="M241.566,207.27l.045-.031.129-.1c.113-.087.278-.216.471-.4a5.145,5.145,0,0,0,.685-.706,2.661,2.661,0,0,0,.543-1.188,1.8,1.8,0,0,0-.365-1.52,5.667,5.667,0,0,0-.67-.579,1.574,1.574,0,0,1-.522-.717,9.381,9.381,0,0,1-.191-1.969,3.938,3.938,0,0,0-.809-1.993,2.733,2.733,0,0,0-.854-.706,5.34,5.34,0,0,0-1.009-.346,2.317,2.317,0,0,1-.885-.44,3.469,3.469,0,0,1-.642-.706c-.36-.518-.626-1.068-.969-1.527a3.253,3.253,0,0,0-.567-.607,2.139,2.139,0,0,0-.673-.372A1.437,1.437,0,0,0,234,193.5a1.176,1.176,0,0,0-.47.863.868.868,0,0,0,.172.6.5.5,0,0,0,.118.113c.028.024.045.033.045.031a.26.26,0,0,0-.038-.04.7.7,0,0,1-.1-.118.851.851,0,0,1-.143-.579,1.136,1.136,0,0,1,.452-.807,1.369,1.369,0,0,1,1.214-.1,2.117,2.117,0,0,1,.64.362,3.215,3.215,0,0,1,.543.593c.334.452.593,1,.96,1.531a3.618,3.618,0,0,0,.659.741,2.463,2.463,0,0,0,.927.47,5.3,5.3,0,0,1,.986.339,2.567,2.567,0,0,1,.814.673,3.811,3.811,0,0,1,.783,1.929,9.107,9.107,0,0,0,.207,1.992,1.664,1.664,0,0,0,.56.765,5.925,5.925,0,0,1,.663.56,1.724,1.724,0,0,1,.355,1.437,2.618,2.618,0,0,1-.515,1.16,5.218,5.218,0,0,1-.659.706c-.2.181-.355.318-.47.409A1.12,1.12,0,0,0,241.566,207.27Z" transform="translate(-184.874 -157.571)" fill="#f5f5f5"/>
      <path id="Path_1368" data-name="Path 1368" d="M285.057,230a.3.3,0,0,1,.071.04,1.082,1.082,0,0,1,.169.16,1.352,1.352,0,0,1,.3.8,2.185,2.185,0,0,1-.358,1.207,2.823,2.823,0,0,1-1.12,1.059,2.254,2.254,0,0,1-1.527.193,1.926,1.926,0,0,1-.626-.266,1.9,1.9,0,0,1-.433-.407,1.717,1.717,0,0,1-.339-.779,1.308,1.308,0,0,1-.014-.235v-.08a1.586,1.586,0,0,0,.042.306,1.738,1.738,0,0,0,.353.743,1.868,1.868,0,0,0,.423.383,1.933,1.933,0,0,0,.6.247,2.193,2.193,0,0,0,1.461-.193,2.771,2.771,0,0,0,1.089-1.019,2.161,2.161,0,0,0,.365-1.16,1.338,1.338,0,0,0-.256-.774A2.151,2.151,0,0,0,285.057,230Z" transform="translate(-221.315 -185.655)" fill="#e0e0e0"/>
      <path id="Path_1369" data-name="Path 1369" d="M225.313,263.924l1.7-1.287,6.389-.407.256.856-2.077,12.969,1.386,10.873H224.05Z" transform="translate(-177.626 -210.303)" fill="#e0e0e0"/>
      <path id="Path_1370" data-name="Path 1370" d="M234.5,260.671l-.2-1.856a.588.588,0,0,1,.532-.647l5.881-.532a.275.275,0,0,1,.3.268l.068,2.207-1.7,2.891-1.753.557H235.49l-1.23-1.315Z" transform="translate(-185.434 -206.789)" fill="#e0e0e0"/>
      <path id="Path_1371" data-name="Path 1371" d="M240.539,264.859a1.729,1.729,0,0,1-.235-.024,4.4,4.4,0,0,0-.64-.012,6.433,6.433,0,0,0-.941.136c-.353.073-.734.176-1.139.275a7.432,7.432,0,0,1-1.157.207,3.024,3.024,0,0,1-.962-.066,2.01,2.01,0,0,1-.6-.249,1.11,1.11,0,0,1-.143-.1c-.031-.026-.047-.04-.045-.042s.071.047.2.122a2.233,2.233,0,0,0,.6.224,3.093,3.093,0,0,0,.941.047,8.051,8.051,0,0,0,1.148-.209c.4-.1.786-.2,1.141-.271a5.782,5.782,0,0,1,.953-.122,3.484,3.484,0,0,1,.647.035c.075.012.134.024.172.033A.212.212,0,0,1,240.539,264.859Z" transform="translate(-185.755 -212.245)" fill="#ebebeb"/>
      <path id="Path_1372" data-name="Path 1372" d="M239.492,259.642a.53.53,0,0,0-.2.191,1.435,1.435,0,0,0-.08.677c.014.548.106.988.085.993a.992.992,0,0,1-.08-.285,4.283,4.283,0,0,1-.078-.706,3.069,3.069,0,0,1,0-.393.675.675,0,0,1,.1-.313.407.407,0,0,1,.167-.148C239.462,259.637,239.492,259.637,239.492,259.642Z" transform="translate(-189.161 -208.322)" fill="#ebebeb"/>
      <path id="Path_1373" data-name="Path 1373" d="M246.452,260.741a8.538,8.538,0,0,0-.042-.9,7.863,7.863,0,0,0-.209-.873.705.705,0,0,1,.12.235,2.845,2.845,0,0,1,.162.626,2.8,2.8,0,0,1,.019.645A.727.727,0,0,1,246.452,260.741Z" transform="translate(-194.566 -207.81)" fill="#ebebeb"/>
      <path id="Path_1374" data-name="Path 1374" d="M254.976,258.31a.546.546,0,0,1,.113.219,1.506,1.506,0,0,1-.078,1.16.565.565,0,0,1-.141.2,2.462,2.462,0,0,0,.221-.781A2.368,2.368,0,0,0,254.976,258.31Z" transform="translate(-201.196 -207.305)" fill="#ebebeb"/>
      <path id="Path_1375" data-name="Path 1375" d="M196.608,288.826s.793-10.165,1.207-12.073a6.625,6.625,0,0,1,2.531-3.764l.821,18.8-1.6,2.371-1.936.743a2.011,2.011,0,0,1-1.388.021l-1.863-.649-.158-3.547,1.574-.456Z" transform="translate(-154.813 -218.532)" fill="#e0e0e0"/>
      <path id="Path_1376" data-name="Path 1376" d="M217.153,289.4l.216-14.081.4-9.076.96-.835-3.4,1.778-.8,2.637-.715,7.643,1.346,8.958-.927,2.95" transform="translate(-169.795 -212.735)" fill="#e0e0e0"/>
      <path id="Path_1377" data-name="Path 1377" d="M214.086,302.128a.517.517,0,0,1-.033-.111c-.021-.078-.047-.186-.08-.32s-.078-.311-.115-.51-.092-.426-.132-.68-.092-.529-.129-.83-.078-.619-.113-.957c-.061-.675-.1-1.411-.1-2.207s.047-1.529.111-2.207c.038-.336.071-.659.118-.955s.087-.579.132-.83.094-.47.134-.68.082-.372.118-.511.061-.235.08-.32a.367.367,0,0,1,.033-.111.383.383,0,0,1-.019.115c-.016.08-.038.188-.066.322s-.068.31-.106.513-.085.426-.122.68-.087.529-.125.828-.073.619-.108.955c-.061.675-.1,1.411-.106,2.2s.04,1.527.1,2.2c.035.336.063.656.106.955s.08.576.122.828.082.482.12.682.071.372.1.513l.068.322A.846.846,0,0,1,214.086,302.128Z" transform="translate(-169.466 -232.229)" fill="#ebebeb"/>
      <path id="Path_1378" data-name="Path 1378" d="M256.944,271.3a4.669,4.669,0,0,1,2.865,3.329c1.113,4.9,3.016,11.421,3.044,13.524.038,2.682-1.134,4.514-2.663,4.853-.875.193-6.822.1-10.057.028a2.4,2.4,0,0,1-2.336-2.117h0a2.407,2.407,0,0,1,2.037-2.682l6.547-.964-1.216-6.794,1.2-9.41Z" transform="translate(-195.773 -217.063)" fill="#e0e0e0"/>
      <path id="Path_1379" data-name="Path 1379" d="M256.565,269.467l1.23-6.417a2.541,2.541,0,0,0-.256-1.785l.014-.334,2.538,1.393,2.456,1,.059,7.462-1.48,15.126-5.2.019v-6.751A39.232,39.232,0,0,1,256.565,269.467Z" transform="translate(-201.95 -209.309)" fill="#e0e0e0"/>
      <path id="Path_1380" data-name="Path 1380" d="M278.879,308.2a.3.3,0,0,1,.019.075c.012.056.026.129.042.216.038.2.087.47.148.8.12.689.282,1.621.47,2.654s.329,1.967.442,2.653c.052.334.1.607.127.807.012.089.021.162.031.219a.039.039,0,1,1-.019,0c-.012-.059-.026-.132-.045-.219-.038-.2-.087-.47-.148-.8-.125-.677-.287-1.616-.47-2.651s-.332-1.976-.44-2.656c-.052-.332-.092-.6-.125-.807l-.028-.219A.382.382,0,0,1,278.879,308.2Z" transform="translate(-219.557 -245.459)" fill="#ebebeb"/>
      <path id="Path_1381" data-name="Path 1381" d="M280.125,276.57a1.519,1.519,0,0,1-.2.073,4.651,4.651,0,0,0-.532.235,4.155,4.155,0,0,0-1.442,1.228,3.2,3.2,0,0,0-.282.47,2.821,2.821,0,0,0-.172.47,4.975,4.975,0,0,0-.144.847c-.019.235-.024.445-.026.581a1.52,1.52,0,0,1,0,.214.938.938,0,0,1-.024-.214,5.387,5.387,0,0,1,0-.586,4.589,4.589,0,0,1,.129-.859,3.037,3.037,0,0,1,.172-.489,2.991,2.991,0,0,1,.289-.47,3.968,3.968,0,0,1,1.477-1.233,3.622,3.622,0,0,1,.546-.209A.979.979,0,0,1,280.125,276.57Z" transform="translate(-218.347 -221.27)" fill="#ebebeb"/>
      <path id="Path_1382" data-name="Path 1382" d="M255.89,340.784a.443.443,0,0,0,.092,0l.261-.033.955-.134,3.152-.471,2.291-.355h0a1.647,1.647,0,0,1,.8.353,1.73,1.73,0,0,1,.433.518,1.983,1.983,0,0,1,.2.562s0-.014,0-.04a.36.36,0,0,0-.016-.118,1.49,1.49,0,0,0-.146-.421,1.7,1.7,0,0,0-.435-.541,1.646,1.646,0,0,0-.819-.374h0l-2.294.343-3.148.489-.953.155-.259.047Z" transform="translate(-201.976 -269.572)" fill="#ebebeb"/>
      <path id="Path_1383" data-name="Path 1383" d="M215.728,338.16a.278.278,0,0,0,0,.073l.035.2c.035.174.08.423.134.734a15.132,15.132,0,0,1,.223,2.444,11.424,11.424,0,0,1-.082,1.348,10.885,10.885,0,0,1-.2,1.084c-.033.153-.075.289-.108.409s-.061.235-.089.308a1.629,1.629,0,0,0-.056.2.377.377,0,0,0-.016.068.359.359,0,0,0,.031-.064l.071-.191c.031-.082.066-.186.1-.306s.082-.256.118-.409a9.789,9.789,0,0,0,.216-1.089,10.973,10.973,0,0,0,.087-1.355,13.466,13.466,0,0,0-.247-2.454c-.059-.308-.113-.558-.155-.729-.019-.08-.035-.143-.049-.2a.313.313,0,0,0-.014-.068Z" transform="translate(-171.141 -268.371)" fill="#ebebeb"/>
      <path id="Path_1384" data-name="Path 1384" d="M173.576,361.55c-.035,0-.223.111-.073.4s1.252,1.282,1.59.953-.16-.748-.16-.748Z" transform="translate(-138.926 -286.259)" fill="#e0e0e0"/>
      <path id="Path_1385" data-name="Path 1385" d="M173.783,352.071a12.447,12.447,0,0,1,1.882.409,1.976,1.976,0,0,0,1.729-.212,4.975,4.975,0,0,0,.75-.583h1.731a2.077,2.077,0,0,0,.383-2.138,2.366,2.366,0,0,0-.383-.685,1.832,1.832,0,0,0-1.08-.522l-2.068.4a17.96,17.96,0,0,0-3.764-.04s-.722.409-.941.581a1.1,1.1,0,0,0,.155,1.3s-.459.35-.221.677l.115.143s-.313.388-.16.562,1.5,1,1.99.821.1-.64-.115-.727" transform="translate(-137.722 -276.156)" fill="#f5f5f5"/>
      <path id="Path_1386" data-name="Path 1386" d="M173.409,355a1.228,1.228,0,0,1,.169.064c.106.045.261.106.454.172l.322.1c.115.033.235.061.372.106a.821.821,0,0,1,.369.235.471.471,0,0,1,.089.471.348.348,0,0,1-.172.176.608.608,0,0,1-.235.059,1.819,1.819,0,0,1-.431-.033,3.787,3.787,0,0,1-.706-.2c-.193-.073-.346-.141-.449-.188a1.275,1.275,0,0,1-.162-.08,1,1,0,0,1,.169.059c.108.042.263.1.456.172a4.131,4.131,0,0,0,.694.186,2.049,2.049,0,0,0,.419.028.614.614,0,0,0,.207-.054.3.3,0,0,0,.146-.15.407.407,0,0,0-.08-.4.777.777,0,0,0-.343-.219c-.127-.045-.254-.075-.369-.111s-.224-.073-.32-.108c-.2-.073-.348-.139-.452-.188A.851.851,0,0,1,173.409,355Z" transform="translate(-138.608 -281.25)" fill="#e0e0e0"/>
      <path id="Path_1387" data-name="Path 1387" d="M174.179,350.81a1.144,1.144,0,0,1,.167.064c.106.045.259.106.452.176s.426.143.687.212a.941.941,0,0,1,.4.172.336.336,0,0,1,.113.209.431.431,0,0,1-.04.235.588.588,0,0,1-.362.294.941.941,0,0,1-.433.026,4.1,4.1,0,0,1-.692-.216l-.456-.169a1.178,1.178,0,0,1-.165-.071,1.2,1.2,0,0,1,.172.049l.471.153a4.537,4.537,0,0,0,.685.2.9.9,0,0,0,.409-.026.527.527,0,0,0,.327-.266.322.322,0,0,0-.059-.388.94.94,0,0,0-.376-.162c-.261-.071-.494-.151-.687-.223s-.343-.143-.447-.193A.94.94,0,0,1,174.179,350.81Z" transform="translate(-139.235 -278.045)" fill="#e0e0e0"/>
      <path id="Path_1388" data-name="Path 1388" d="M177.61,350.286a1.564,1.564,0,0,1-.056-.273,1.648,1.648,0,0,1-.064-.273A.687.687,0,0,1,177.61,350.286Z" transform="translate(-142.019 -277.227)" fill="#e0e0e0"/>
      <path id="Path_1389" data-name="Path 1389" d="M182.768,345.995l-1.2-.492s-3.326-1.647-3.385-1.555-.235.07-.209.482,1.971,1.277,2.03,1.411a1.764,1.764,0,0,0,.654,1.386,2.5,2.5,0,0,0,1.235.553" transform="translate(-142.385 -272.795)" fill="#f5f5f5"/>
      <path id="Path_1390" data-name="Path 1390" d="M181.8,347.756h-.113a1.785,1.785,0,0,1-.313-.082,2.968,2.968,0,0,1-.47-.214,2.822,2.822,0,0,1-.548-.4,1.458,1.458,0,0,1-.4-.717,3.158,3.158,0,0,1-.061-.452.311.311,0,0,0,0-.054.178.178,0,0,0-.031-.033c-.031-.023-.064-.045-.1-.066l-.212-.122c-.287-.16-.6-.325-.9-.51-.155-.094-.311-.193-.47-.3a1.8,1.8,0,0,1-.214-.188.637.637,0,0,1-.092-.118.38.38,0,0,1-.026-.078v-.073a.529.529,0,0,1,.056-.292.336.336,0,0,1,.111-.106.273.273,0,0,0,.047-.038l.012-.012h.085q.26.092.51.209c.329.146.645.294.941.435.6.285,1.132.548,1.581.769.113.054.219.111.32.158l.294.122.47.2.294.127.078.033.026.014h-.028l-.078-.031-.3-.118-.47-.188-.294-.118c-.106-.047-.209-.1-.322-.155L179.6,344.6c-.3-.139-.614-.287-.941-.433-.165-.071-.334-.148-.506-.2h-.042v-.014h0c.038.028,0,0,.016.017h0a.3.3,0,0,1-.061.052.278.278,0,0,0-.092.089.471.471,0,0,0-.049.259.235.235,0,0,0,.026.125.586.586,0,0,0,.08.108,1.9,1.9,0,0,0,.207.181c.148.108.3.207.456.3.308.186.612.351.9.513.073.04.143.082.212.125a.706.706,0,0,1,.1.071.12.12,0,0,1,.047.054.312.312,0,0,1,.014.064,3.345,3.345,0,0,0,.056.449,1.444,1.444,0,0,0,.381.706,2.807,2.807,0,0,0,.536.4,3.034,3.034,0,0,0,.456.221,2.285,2.285,0,0,0,.308.092l.082.016C181.79,347.753,181.8,347.753,181.8,347.756Z" transform="translate(-142.295 -272.761)" fill="#e0e0e0"/>
      <path id="Path_1391" data-name="Path 1391" d="M174.335,360.63a.47.47,0,0,1,.127.04,1.243,1.243,0,0,1,.313.191,1.1,1.1,0,0,1,.181.181.377.377,0,0,1,.089.285.311.311,0,0,1-.235.235.614.614,0,0,1-.35-.019,6.35,6.35,0,0,1-1.106-.47c-.134-.075-.235-.144-.311-.193a.521.521,0,0,1-.1-.082.889.889,0,0,1,.115.063c.075.045.181.106.318.177a8.112,8.112,0,0,0,1.1.452.557.557,0,0,0,.32.019.259.259,0,0,0,.2-.193.339.339,0,0,0-.08-.247,1.02,1.02,0,0,0-.167-.179A1.946,1.946,0,0,0,174.335,360.63Z" transform="translate(-138.539 -285.555)" fill="#e0e0e0"/>
      <path id="Path_1392" data-name="Path 1392" d="M229.608,343.278l-2.136.045a18.911,18.911,0,0,0-3.86-1.047,18.328,18.328,0,0,0-3.19,1.828.28.28,0,0,0-.1.129h0a.47.47,0,0,0,.259.593l.045.019-.019.063a.8.8,0,0,0-.033.261.313.313,0,0,0,.583.134l-.082.146a.372.372,0,0,0-.047.193v.134a.35.35,0,0,0,.235.318h0a.35.35,0,0,0,.372-.1,3.3,3.3,0,0,1,1.273-.979,9.841,9.841,0,0,1,1.315-.066.449.449,0,0,1,.414.285h0a22.842,22.842,0,0,0-2.491,1.2.621.621,0,0,0-.343.471c-.021.183.071.379.435.292a15.865,15.865,0,0,0,2.223-.828,1.607,1.607,0,0,1,1.2.125c.663.47.967.64,1.534.452a4.941,4.941,0,0,0,.988-.459l1.929.188A2.7,2.7,0,0,0,229.608,343.278Z" transform="translate(-174.751 -271.513)" fill="#f5f5f5"/>
      <path id="Path_1393" data-name="Path 1393" d="M227.347,348.573a5.793,5.793,0,0,0-.6-.085,3.177,3.177,0,0,0-1.426.235,3.135,3.135,0,0,0-1.162.863c-.235.287-.346.5-.358.492a.785.785,0,0,1,.073-.148,2.356,2.356,0,0,1,.252-.372,3,3,0,0,1,2.625-1.12,2.557,2.557,0,0,1,.442.075A.589.589,0,0,1,227.347,348.573Z" transform="translate(-177.435 -276.222)" fill="#e0e0e0"/>
      <path id="Path_1394" data-name="Path 1394" d="M225.4,345.24a2.694,2.694,0,0,0-.626-.111,2.729,2.729,0,0,0-1.458.414,5.879,5.879,0,0,0-1.176.993l-.32.341a.839.839,0,0,1-.125.122,1.075,1.075,0,0,1,.106-.136c.071-.087.174-.209.308-.355a5.276,5.276,0,0,1,1.176-1.016,2.672,2.672,0,0,1,1.489-.4,1.841,1.841,0,0,1,.47.085c.054.016.092.038.12.047Z" transform="translate(-175.821 -273.668)" fill="#e0e0e0"/>
      <path id="Path_1395" data-name="Path 1395" d="M182.679,367.185s-9.68,4.27-10,6.7.085,15.222.085,15.222h7.363l.779-11.292.75,11.292h7.236V378.123s7.528-1.235,9.217-2.305-.687-8.678-.687-8.678Z" transform="translate(-138.243 -290.534)" fill="#e0e0e0"/>
      <path id="Path_1396" data-name="Path 1396" d="M53.62,242.325a2.131,2.131,0,0,0-1.795,1.915c-.038.609.186,1.259-.073,1.811s-.856.776-1.35,1.1a2.1,2.1,0,0,0-1.07,1.978,9.034,9.034,0,0,0,.348.993,7.181,7.181,0,0,1,.078,2,3.764,3.764,0,0,0,.579,2.056,2.505,2.505,0,0,0,1.767,1.134,9.553,9.553,0,0,1,1.1.061,6.4,6.4,0,0,1,.9.36,3.241,3.241,0,0,0,3.491-.894,3.973,3.973,0,0,0,.8-3.594,16.019,16.019,0,0,0-1.15-2.588c-.4-.863-.061-2.341-.235-3.143-1.494-.609-2.181-1.767-2.926-3.195" transform="translate(-43.992 -195.077)" fill="#e0e0e0"/>
      <path id="Path_1397" data-name="Path 1397" d="M83.119,193.843c.021-.607-.539-1.077-1.1-1.3a8.45,8.45,0,0,1-1.694-.654,8.136,8.136,0,0,1-1.12-1.155,3.738,3.738,0,0,0-6.3,1.687,2.45,2.45,0,0,0,.6,2.463,3.512,3.512,0,0,0,2.976.325,3.878,3.878,0,0,1,3.006.2,4.311,4.311,0,0,1,1.108,1.489,2.662,2.662,0,0,0,1.287,1.3c.581.207,1.393-.141,1.411-.765" transform="translate(-61.965 -154.762)" fill="#e0e0e0"/>
      <path id="Path_1398" data-name="Path 1398" d="M76.787,200.022a1.7,1.7,0,0,0,.661,1.327,2.331,2.331,0,0,1,.84,1.254c.073.593-.365,1.176-.235,1.764a4.385,4.385,0,0,0,.539,1,2.1,2.1,0,0,1,.1,1.56,6.922,6.922,0,0,1-.757,2.051,8.234,8.234,0,0,1-4,2.364,15.4,15.4,0,0,1-4.411.221c-1.207-.08-2.588-.031-3.594-1.7a12.374,12.374,0,0,1-1.042-2.976,4.6,4.6,0,0,1-.186-2.555c.146-.471.44-.91.583-1.4a10.791,10.791,0,0,0,.193-1.882,4.31,4.31,0,0,1,6.147-3.373" transform="translate(-55.675 -160.617)" fill="#e0e0e0"/>
      <path id="Path_1399" data-name="Path 1399" d="M70.337,205.775c.122-1.734,1.284-3.851,3.009-3.656l5.382,1.4a1.016,1.016,0,0,1,.9,1.037l-.666,13H79s-1.244,3.663-4.8,2.526a2.091,2.091,0,0,1-1.162-1.8H73v-.271a8.4,8.4,0,0,1-.014-1.785h0v-1.47a3.585,3.585,0,0,1-2.651-3.275A30.275,30.275,0,0,1,70.337,205.775Z" transform="translate(-59.969 -164.323)" fill="#f5f5f5"/>
      <path id="Path_1400" data-name="Path 1400" d="M74.87,224.058a.369.369,0,0,0,.355.376.355.355,0,0,0,.381-.332.372.372,0,0,0-.355-.376.353.353,0,0,0-.381.332Z" transform="translate(-63.539 -180.856)" fill="#e0e0e0"/>
      <path id="Path_1401" data-name="Path 1401" d="M72.9,221.666c.045.049.327-.158.725-.153s.689.2.734.155-.026-.108-.151-.2a1.042,1.042,0,0,0-.588-.186.992.992,0,0,0-.579.183C72.919,221.558,72.876,221.645,72.9,221.666Z" transform="translate(-62.028 -178.986)" fill="#e0e0e0"/>
      <path id="Path_1402" data-name="Path 1402" d="M91.61,224.058a.372.372,0,0,0,.355.376.353.353,0,0,0,.383-.332.369.369,0,0,0-.353-.376.358.358,0,0,0-.386.332Z" transform="translate(-76.341 -180.856)" fill="#e0e0e0"/>
      <path id="Path_1403" data-name="Path 1403" d="M89.553,222.1c.045.049.327-.158.727-.153s.689.2.732.155-.024-.108-.151-.2a1.042,1.042,0,0,0-.586-.186.981.981,0,0,0-.579.184C89.574,221.987,89.532,222.075,89.553,222.1Z" transform="translate(-74.764 -179.315)" fill="#e0e0e0"/>
      <path id="Path_1404" data-name="Path 1404" d="M80.057,225.078a2.82,2.82,0,0,0-.647-.12c-.1-.012-.2-.033-.216-.1a.522.522,0,0,1,.071-.3c.1-.247.2-.5.306-.774a13.409,13.409,0,0,0,.692-2.023,13.3,13.3,0,0,0-.852,1.962l-.294.779a.6.6,0,0,0-.056.4.254.254,0,0,0,.167.148.622.622,0,0,0,.174.026,2.588,2.588,0,0,0,.656,0Z" transform="translate(-66.734 -179.352)" fill="#e0e0e0"/>
      <path id="Path_1405" data-name="Path 1405" d="M82,252.647a7.337,7.337,0,0,0,3.874-1.007,3.649,3.649,0,0,1-3.841,1.689Z" transform="translate(-68.992 -202.204)" fill="#ebebeb"/>
      <path id="Path_1406" data-name="Path 1406" d="M83.866,239.134a.722.722,0,0,1,.647-.261.659.659,0,0,1,.452.235.416.416,0,0,1,.028.47.487.487,0,0,1-.525.129,1.48,1.48,0,0,1-.506-.308.456.456,0,0,1-.115-.118.134.134,0,0,1,0-.148" transform="translate(-70.388 -192.436)" fill="#ebebeb"/>
      <path id="Path_1407" data-name="Path 1407" d="M84.157,237.08c-.064,0-.068.428-.44.734s-.833.252-.837.313.1.085.3.092a1.08,1.08,0,0,0,.706-.235.941.941,0,0,0,.343-.614C84.234,237.186,84.187,237.078,84.157,237.08Z" transform="translate(-69.665 -191.069)" fill="#e0e0e0"/>
      <path id="Path_1408" data-name="Path 1408" d="M88.824,219.427c.038.108.438.059.9.12s.845.188.908.092c.028-.047-.038-.148-.188-.254a1.593,1.593,0,0,0-1.381-.162C88.894,219.291,88.807,219.376,88.824,219.427Z" transform="translate(-74.209 -177.345)" fill="#e0e0e0"/>
      <path id="Path_1409" data-name="Path 1409" d="M73.538,216.684c.071.092.346,0,.675,0s.609.063.675-.031c.028-.045-.014-.136-.136-.223a.986.986,0,0,0-1.087.026C73.547,216.552,73.507,216.644,73.538,216.684Z" transform="translate(-62.513 -175.162)" fill="#e0e0e0"/>
      <path id="Path_1410" data-name="Path 1410" d="M88.8,211.021a2.566,2.566,0,0,1-3.039-2.851c.094-.706.47-1.428.235-2.1-.322-.889-1.564-1.176-1.882-2.056-.191-.515-.014-1.117-.235-1.623a1.887,1.887,0,0,0-1.176-.927,5.15,5.15,0,0,1-1.411-.621,1.11,1.11,0,0,1-.393-1.362,27.335,27.335,0,0,1,6.3,1.562,2.452,2.452,0,0,1,1.242.812,2.645,2.645,0,0,1,.249,1.55q-.2,3.888-.4,7.779" transform="translate(-68.062 -162.314)" fill="#e0e0e0"/>
      <path id="Path_1411" data-name="Path 1411" d="M71.663,263.924l1.7-1.287,6.389-.407.256.856-2.077,12.969,1.386,10.873H70.4Z" transform="translate(-60.121 -210.303)" fill="#ebebeb"/>
      <path id="Path_1412" data-name="Path 1412" d="M80.9,260.671l-.2-1.856a.59.59,0,0,1,.532-.647l5.881-.532a.278.278,0,0,1,.3.268l.066,2.207L85.779,263l-1.738.558H81.9l-1.23-1.315Z" transform="translate(-67.975 -206.789)" fill="#ebebeb"/>
      <path id="Path_1413" data-name="Path 1413" d="M86.942,264.858a2.294,2.294,0,0,1-.235-.024,4.441,4.441,0,0,0-.642-.012,6.425,6.425,0,0,0-.941.136c-.353.073-.734.176-1.139.275a7.425,7.425,0,0,1-1.157.207,3,3,0,0,1-.96-.066,2.027,2.027,0,0,1-.6-.249,1.11,1.11,0,0,1-.144-.1.252.252,0,0,1-.045-.042s.071.047.2.122a2.22,2.22,0,0,0,.6.223,3.076,3.076,0,0,0,.941.047,8.05,8.05,0,0,0,1.148-.209c.4-.1.786-.2,1.141-.27a5.842,5.842,0,0,1,.941-.122,3.463,3.463,0,0,1,.647.035c.075.012.134.024.174.033A.211.211,0,0,1,86.942,264.858Z" transform="translate(-68.289 -212.244)" fill="#ebebeb"/>
      <path id="Path_1414" data-name="Path 1414" d="M85.825,259.642a.508.508,0,0,0-.2.191,1.466,1.466,0,0,0-.08.677c.014.548.106.988.085.993a.993.993,0,0,1-.08-.285,4.292,4.292,0,0,1-.078-.706,3.074,3.074,0,0,1,0-.393.675.675,0,0,1,.1-.313.407.407,0,0,1,.167-.148C85.8,259.637,85.825,259.637,85.825,259.642Z" transform="translate(-71.641 -208.322)" fill="#ebebeb"/>
      <path id="Path_1415" data-name="Path 1415" d="M92.809,260.741a7.842,7.842,0,0,0-.042-.9,8.967,8.967,0,0,0-.207-.873.822.822,0,0,1,.12.235,3,3,0,0,1,.16.626,2.8,2.8,0,0,1,.019.645A.727.727,0,0,1,92.809,260.741Z" transform="translate(-77.068 -207.81)" fill="#ebebeb"/>
      <path id="Path_1416" data-name="Path 1416" d="M101.333,258.31a.546.546,0,0,1,.113.219,1.505,1.505,0,0,1-.078,1.16.58.58,0,0,1-.139.2,2.534,2.534,0,0,0,.221-.781A2.4,2.4,0,0,0,101.333,258.31Z" transform="translate(-83.699 -207.305)" fill="#ebebeb"/>
      <path id="Path_1417" data-name="Path 1417" d="M50.26,296.782l1.447-6.561s-.546-11.527-.132-13.428a6.625,6.625,0,0,1,2.531-3.764l.821,18.789-.814,4.39" transform="translate(-44.719 -218.562)" fill="#e0e0e0"/>
      <path id="Path_1418" data-name="Path 1418" d="M63.5,289.4l.219-14.081.4-9.076.96-.835-3.4,1.778-.8,2.637-.715,7.643,1.348,8.958-.929,2.95" transform="translate(-52.29 -212.735)" fill="#e0e0e0"/>
      <path id="Path_1419" data-name="Path 1419" d="M60.436,302.128a.512.512,0,0,1-.033-.111c-.021-.078-.047-.186-.08-.32s-.075-.311-.115-.51-.092-.426-.132-.68-.092-.529-.129-.83-.078-.619-.113-.957c-.061-.675-.1-1.411-.1-2.207s.047-1.529.111-2.207c.038-.336.071-.659.118-.955s.087-.579.132-.83.094-.47.134-.68.082-.372.118-.511.061-.235.082-.32a.676.676,0,0,1,.033-.111.779.779,0,0,1-.019.115c-.019.08-.04.188-.068.322s-.068.31-.106.513-.085.426-.122.68-.087.529-.125.828-.073.619-.108.955c-.059.675-.1,1.411-.106,2.2s.04,1.527.1,2.2c.035.336.064.656.106.955s.08.576.122.828.085.482.12.682.071.372.1.513.049.235.066.322A.844.844,0,0,1,60.436,302.128Z" transform="translate(-51.961 -232.229)" fill="#ebebeb"/>
      <path id="Path_1420" data-name="Path 1420" d="M100.27,291.485l7.158-4.161-1.214-6.794,1.2-9.41,1.96.757a1.9,1.9,0,0,1,1.176,1.39c1.021,4.971,3.315,12.616,3.347,14.926.04,2.682-1.134,4.514-2.663,4.853a97.392,97.392,0,0,1-9.774,1.691" transform="translate(-82.964 -217.102)" fill="#e0e0e0"/>
      <path id="Path_1421" data-name="Path 1421" d="M102.944,269.467l1.23-6.417a2.552,2.552,0,0,0-.254-1.785l.014-.334,2.536,1.393,2.456,1,.059,7.462-1.48,15.126-5.2.019.012-6.751A39.23,39.23,0,0,1,102.944,269.467Z" transform="translate(-84.474 -209.309)" fill="#e0e0e0"/>
      <path id="Path_1422" data-name="Path 1422" d="M125.224,308.2a.3.3,0,0,1,.019.075,1.313,1.313,0,0,0,.045.216c.035.2.085.47.146.8.12.689.282,1.621.47,2.654s.329,1.967.445,2.654l.125.807c.012.089.024.162.031.219a.326.326,0,0,1,0,.078.214.214,0,0,0-.021-.073,1.668,1.668,0,0,1-.045-.219c-.038-.2-.087-.47-.148-.8-.122-.677-.287-1.616-.47-2.651s-.334-1.976-.442-2.656c-.049-.332-.092-.6-.122-.807a1.393,1.393,0,0,0-.031-.219A.386.386,0,0,1,125.224,308.2Z" transform="translate(-102.046 -245.459)" fill="#ebebeb"/>
      <path id="Path_1423" data-name="Path 1423" d="M126.475,276.57a1.924,1.924,0,0,1-.2.073,4.638,4.638,0,0,0-.532.235,4.154,4.154,0,0,0-1.442,1.228,3.189,3.189,0,0,0-.282.47,2.82,2.82,0,0,0-.172.471,4.729,4.729,0,0,0-.141.847c-.021.235-.026.445-.028.581a1.51,1.51,0,0,1,0,.214.941.941,0,0,1-.024-.214,4.962,4.962,0,0,1,0-.586,4.237,4.237,0,0,1,.129-.859,2.819,2.819,0,0,1,.169-.489,3,3,0,0,1,.289-.47,3.985,3.985,0,0,1,1.477-1.233,3.622,3.622,0,0,1,.546-.209A.953.953,0,0,1,126.475,276.57Z" transform="translate(-100.839 -221.27)" fill="#ebebeb"/>
      <path id="Path_1424" data-name="Path 1424" d="M62.085,338.16a.278.278,0,0,0,0,.073l.035.2c.035.174.08.423.134.734a15.134,15.134,0,0,1,.235,2.444,10.292,10.292,0,0,1-.28,2.432c-.033.153-.075.289-.106.409s-.064.235-.089.308l-.068.186a.381.381,0,0,0-.016.068.361.361,0,0,0,.031-.064l.071-.191c.031-.082.066-.186.1-.306s.082-.256.118-.409a9.782,9.782,0,0,0,.216-1.089,10.526,10.526,0,0,0,.087-1.355,13.7,13.7,0,0,0-.235-2.453c-.061-.308-.115-.558-.158-.729-.019-.08-.035-.143-.049-.2A.31.31,0,0,0,62.085,338.16Z" transform="translate(-53.643 -268.371)" fill="#ebebeb"/>
      <path id="Path_1425" data-name="Path 1425" d="M34.923,367.162s-7.857,3.385-8.177,5.817,1.322,16.467,1.322,16.467l16.406-.661-1.122-10.99s5.3-.929,7-2.007-.685-8.678-.685-8.678Z" transform="translate(-26.704 -290.511)" fill="#e0e0e0"/>
      <path id="Path_1426" data-name="Path 1426" d="M72.783,357.69l-2.077.5a18.9,18.9,0,0,0-4-.2,18.527,18.527,0,0,0-2.726,2.468.275.275,0,0,0-.073.151h0a.471.471,0,0,0,.381.522h.047v.066a.762.762,0,0,0,.024.261.313.313,0,0,0,.6,0l-.049.16a.341.341,0,0,0,0,.2l.035.127a.353.353,0,0,0,.306.259h0a.353.353,0,0,0,.343-.174c.2-.355.656-1.075,1.035-1.228a9.471,9.471,0,0,1,1.27-.344.445.445,0,0,1,.47.188h0a21.943,21.943,0,0,0-2.181,1.7.635.635,0,0,0-.235.536c.019.186.151.353.489.193a16.121,16.121,0,0,0,1.955-1.263,1.615,1.615,0,0,1,1.2-.134c.746.315,1.077.416,1.593.113a4.821,4.821,0,0,0,.868-.661l1.934-.235A2.678,2.678,0,0,0,72.783,357.69Z" transform="translate(-55.153 -283.307)" fill="#f5f5f5"/>
      <path id="Path_1427" data-name="Path 1427" d="M71.463,364.574c0,.012-.235,0-.607.047a3.1,3.1,0,0,0-2.291,1.632,3.035,3.035,0,0,0-.235.555,1,1,0,0,1,.04-.16,2.69,2.69,0,0,1,.165-.416,3.013,3.013,0,0,1,2.327-1.647,2.692,2.692,0,0,1,.447-.021A.667.667,0,0,1,71.463,364.574Z" transform="translate(-58.538 -288.563)" fill="#e0e0e0"/>
      <path id="Path_1428" data-name="Path 1428" d="M69,361.55a2.485,2.485,0,0,0-.635.026,2.739,2.739,0,0,0-1.334.706,5.782,5.782,0,0,0-.941,1.221c-.1.162-.179.3-.235.4a1.409,1.409,0,0,1-.094.146.723.723,0,0,1,.073-.158c.052-.1.127-.235.235-.412a5.331,5.331,0,0,1,.941-1.244,2.689,2.689,0,0,1,1.369-.706,1.884,1.884,0,0,1,.47-.016.641.641,0,0,1,.127.021C69.006,361.541,69,361.548,69,361.55Z" transform="translate(-56.573 -286.226)" fill="#e0e0e0"/>
    </g>
    <g id="freepik--Lectern--inject-3" transform="translate(55.553 93.58)">
      <path id="Path_1429" data-name="Path 1429" d="M306.047,372.363V345.31H260.881s-1.052,27.053,0,27.053Z" transform="translate(-242.478 -325.929)" fill="#455a64"/>
      <path id="Path_1430" data-name="Path 1430" d="M247.9,344.729l-19.459,17.989H184.38l18.168-18.168Z" transform="translate(-184.331 -325.348)" fill="#455a64"/>
      <rect id="Rectangle_193" data-name="Rectangle 193" width="44.061" height="9.064" transform="translate(0.049 37.369)" fill="#455a64"/>
      <path id="Path_1431" data-name="Path 1431" d="M260.38,362.718l.289-18.168,45.352.179-19.459,17.989Z" transform="translate(-242.452 -325.348)" fill="#455a64"/>
      <path id="Path_1432" data-name="Path 1432" d="M403.93,293.547l-.235-.049a23.68,23.68,0,0,0,.059-7.888c-.652-3.818-2.719-8.814-8.864-10.936l.075-.224c6.257,2.162,8.36,7.245,9.021,11.127A23.991,23.991,0,0,1,403.93,293.547Z" transform="translate(-345.32 -271.739)" fill="#263238"/>
      <rect id="Rectangle_194" data-name="Rectangle 194" width="2.282" height="4.385" rx="1.141" transform="matrix(0.443, -0.896, 0.896, 0.443, 45.672, 2.046)" fill="#263238"/>
      <path id="Path_1433" data-name="Path 1433" d="M371.558,372.355V371.7c0-.43,0-1.054-.016-1.842,0-1.593-.012-3.858-.021-6.568v-.023l.016-.014,6.4-5.926,9.224-8.523,2.823-2.574.769-.694.2-.179a.612.612,0,0,1,.071-.059.566.566,0,0,1-.064.068l-.193.188-.753.706-2.785,2.6-9.221,8.549-6.415,5.93.016-.04c0,2.71-.016,4.975-.021,6.568,0,.788-.012,1.411-.014,1.842v.612C371.574,372.357,371.558,372.355,371.558,372.355Z" transform="translate(-327.448 -325.922)" fill="#263238"/>
      <path id="Path_1434" data-name="Path 1434" d="M227.925,421.794c0,.033-9.793.061-21.877.061s-21.877-.028-21.877-.061,9.793-.064,21.877-.064S227.925,421.753,227.925,421.794Z" transform="translate(-184.17 -384.372)" fill="#263238"/>
      <path id="Path_1435" data-name="Path 1435" d="M231.807,365.7s.026-.031.082-.085l.254-.235.993-.941,3.764-3.543,13.341-12.508.038.094H209.214l.038-.016-12.571,12.48-3.55,3.51-.941.924-.235.235c-.054.054-.085.08-.085.08s.026-.031.08-.085l.235-.235.941-.941,3.529-3.529,12.538-12.51.016-.014h41.226l-.1.094L236.97,360.942l-3.785,3.517-1,.929-.259.235Z" transform="translate(-190.059 -328.277)" fill="#263238"/>
      <path id="Path_1436" data-name="Path 1436" d="M261.421,368.64c-.033,0-.061-3.7-.061-8.264s.028-8.266.061-8.266.061,3.7.061,8.266S261.456,368.64,261.421,368.64Z" transform="translate(-243.202 -331.13)" fill="#263238"/>
      <g id="Group_83" data-name="Group 83" transform="translate(0.165 42.344)" opacity="0.4">
        <path id="Path_1437" data-name="Path 1437" d="M228.185,446.218l-.285-.358c-.1-.115-.223-.252-.374-.412a5,5,0,0,0-.562-.508,8.018,8.018,0,0,0-1.762-1.089,9.88,9.88,0,0,0-2.632-.769,12.52,12.52,0,0,0-3.326-.026,22.474,22.474,0,0,0-3.743.8c-1.294.376-2.63.852-4.025,1.315a32.18,32.18,0,0,1-4.392,1.176,18.193,18.193,0,0,1-4.538.221c-1.468-.1-2.872-.311-4.206-.52s-2.6-.419-3.794-.557a26.762,26.762,0,0,0-3.331-.184,13.9,13.9,0,0,0-4.738.821c-.266.1-.5.2-.706.294q-.255.105-.5.235l-.4.219.4-.235c.129-.078.3-.155.5-.249s.433-.2.706-.3a13.816,13.816,0,0,1,4.749-.8,26.716,26.716,0,0,1,3.336.176c1.2.139,2.463.343,3.8.553s2.736.419,4.2.518a18.224,18.224,0,0,0,4.528-.221,32.228,32.228,0,0,0,4.383-1.188c1.395-.47,2.731-.941,4.03-1.313a22.966,22.966,0,0,1,3.75-.8,12.675,12.675,0,0,1,3.336.033,9.989,9.989,0,0,1,2.639.779,8,8,0,0,1,1.762,1.1,6.422,6.422,0,0,1,.562.513,4.25,4.25,0,0,1,.369.416Z" transform="translate(-184.87 -442.929)" fill="#fff"/>
      </g>
      <g id="Group_84" data-name="Group 84" transform="translate(0.289 38.701)" opacity="0.4">
        <path id="Path_1438" data-name="Path 1438" d="M206.517,428.178l-.51.292c-.339.188-.847.449-1.522.743a18.615,18.615,0,0,1-6.032,1.454,18.284,18.284,0,0,1-4.293-.2.788.788,0,0,1-.525-.261.322.322,0,0,1-.028-.3.522.522,0,0,1,.2-.235,2.729,2.729,0,0,1,.555-.249l.574-.221c.776-.275,1.586-.532,2.428-.75a35.57,35.57,0,0,1,11.24-.906,2.873,2.873,0,0,1,1.423.445,1.648,1.648,0,0,1,.5.553,1.176,1.176,0,0,1,.144.725,1.682,1.682,0,0,1-.821,1.176,4.627,4.627,0,0,1-1.346.5,40.426,40.426,0,0,1-5.375.941,64.155,64.155,0,0,1-9.231.266c-2.63-.1-4.752-.259-6.22-.369s-2.277-.183-2.277-.183l2.279.165c1.466.1,3.59.261,6.217.355a64.938,64.938,0,0,0,9.226-.278,40.333,40.333,0,0,0,5.368-.941,4.657,4.657,0,0,0,1.327-.494,1.647,1.647,0,0,0,.8-1.136,1.334,1.334,0,0,0-.623-1.23,2.835,2.835,0,0,0-1.4-.438,35.4,35.4,0,0,0-11.223.9c-.842.216-1.647.47-2.425.748l-.574.216a2.918,2.918,0,0,0-.543.235.508.508,0,0,0-.188.212.282.282,0,0,0,.026.264.751.751,0,0,0,.5.235,18.353,18.353,0,0,0,4.284.209,18.61,18.61,0,0,0,6.027-1.437c.675-.289,1.176-.548,1.524-.734Z" transform="translate(-185.4 -427.439)" fill="#fff"/>
      </g>
      <g id="Group_85" data-name="Group 85" transform="translate(29.781 37.821)" opacity="0.4">
        <path id="Path_1439" data-name="Path 1439" d="M324.11,425.182s-.748.129-1.974.216c-.612.045-1.343.068-2.155.061s-1.7-.061-2.635-.162-1.811-.256-2.607-.421-1.5-.353-2.089-.534c-1.176-.353-1.882-.642-1.882-.642l.129.04.374.129c.162.059.36.127.593.2s.494.162.79.235c.588.176,1.3.353,2.089.522s1.673.31,2.6.416,1.821.151,2.63.167a21.093,21.093,0,0,0,2.152-.052c.306-.012.583-.042.826-.061s.452-.042.621-.063l.393-.045Z" transform="translate(-310.77 -423.7)" fill="#fff"/>
      </g>
      <g id="Group_86" data-name="Group 86" transform="translate(45.352 39.126)" opacity="0.4">
        <path id="Path_1440" data-name="Path 1440" d="M391.568,435.816s.042-.071.132-.2.216-.327.376-.581a8.959,8.959,0,0,0,.522-.962,4.438,4.438,0,0,0,.4-1.381,2.722,2.722,0,0,0-.36-1.68,3.4,3.4,0,0,0-1.489-1.3,5,5,0,0,0-2.162-.412,10.517,10.517,0,0,0-2.352.336c-.4.089-.783.221-1.162.341a8.42,8.42,0,0,0-1.094.438,15.788,15.788,0,0,0-1.967,1.044,21.546,21.546,0,0,0-3,2.277c-.8.72-1.411,1.348-1.814,1.785l-.47.513-.165.176s.214-.254.616-.706a25.234,25.234,0,0,1,1.8-1.8,21.417,21.417,0,0,1,3-2.287,15.862,15.862,0,0,1,1.969-1.047c.351-.169.725-.3,1.1-.44a8.112,8.112,0,0,1,1.176-.343,10.325,10.325,0,0,1,2.371-.336,5.032,5.032,0,0,1,2.183.419,3.441,3.441,0,0,1,1.506,1.32,2.766,2.766,0,0,1,.36,1.7,4.521,4.521,0,0,1-.409,1.39,8.97,8.97,0,0,1-.532.96C391.768,435.541,391.568,435.816,391.568,435.816Z" transform="translate(-376.96 -429.248)" fill="#fff"/>
      </g>
      <g id="Group_87" data-name="Group 87" transform="translate(47.262 41.246)" opacity="0.4">
        <path id="Path_1441" data-name="Path 1441" d="M395.506,443.815s-.031-.052-.078-.155a1.9,1.9,0,0,1-.127-.471,2.873,2.873,0,0,1,.016-.783,8.9,8.9,0,0,1,.223-1.014,5.486,5.486,0,0,0,.214-1.23,1.807,1.807,0,0,0-.419-1.322,1.865,1.865,0,0,0-1.433-.527,5.531,5.531,0,0,0-1.665.327,17.394,17.394,0,0,0-5.3,2.757,17.624,17.624,0,0,0-1.383,1.176c-.158.146-.273.266-.355.343s-.125.12-.125.12.16-.176.47-.47a17,17,0,0,1,1.376-1.19,17.171,17.171,0,0,1,5.3-2.783,5.51,5.51,0,0,1,1.68-.327,1.9,1.9,0,0,1,1.466.543,1.837,1.837,0,0,1,.426,1.355,5.5,5.5,0,0,1-.221,1.237,9.052,9.052,0,0,0-.235,1.009,2.952,2.952,0,0,0-.023.776,2.023,2.023,0,0,0,.118.471Z" transform="translate(-385.08 -438.261)" fill="#fff"/>
      </g>
      <g id="Group_88" data-name="Group 88" transform="translate(51.588 45.34)" opacity="0.4">
        <path id="Path_1442" data-name="Path 1442" d="M406.354,456.468a2.714,2.714,0,0,0-.341-.358,1.8,1.8,0,0,0-1.1-.4,1.776,1.776,0,0,0-1.1.388,2.569,2.569,0,0,0-.348.353,1.316,1.316,0,0,1,.325-.379,1.715,1.715,0,0,1,2.24.014A1.332,1.332,0,0,1,406.354,456.468Z" transform="translate(-403.47 -455.661)" fill="#fff"/>
      </g>
      <g id="Group_89" data-name="Group 89" transform="translate(44.444 30.307)" opacity="0.4">
        <path id="Path_1443" data-name="Path 1443" d="M392.423,391.76l-.212.094a5.139,5.139,0,0,0-.586.318,7.293,7.293,0,0,0-1.778,1.67c-.652.807-1.268,1.882-2.094,2.978a9.412,9.412,0,0,1-1.484,1.557,10.164,10.164,0,0,1-1.936,1.261,13.085,13.085,0,0,1-4.26,1.273,19.724,19.724,0,0,1-3.639.1c-1.037-.061-1.87-.167-2.444-.247s-.889-.136-.889-.136a1.48,1.48,0,0,1,.235.028l.661.089c.574.075,1.411.174,2.444.235a19.909,19.909,0,0,0,3.63-.115,13.156,13.156,0,0,0,4.246-1.27,10.362,10.362,0,0,0,1.927-1.254,9.612,9.612,0,0,0,1.48-1.548c.826-1.091,1.444-2.169,2.1-2.973a7.175,7.175,0,0,1,1.795-1.665,4.538,4.538,0,0,1,.59-.311Z" transform="translate(-373.1 -391.76)" fill="#fff"/>
      </g>
      <g id="Group_90" data-name="Group 90" transform="translate(51.427 26.257)" opacity="0.4">
        <path id="Path_1444" data-name="Path 1444" d="M410.332,377.356s-.056.071-.167.2-.275.315-.506.541a3.543,3.543,0,0,1-.941.689,1.981,1.981,0,0,1-1.534.085,1.313,1.313,0,0,1-.694-.581,1.456,1.456,0,0,1-.132-.976,2.1,2.1,0,0,1,.47-.955,4.613,4.613,0,0,1,.847-.76,5.329,5.329,0,0,1,2.218-1.009,3.383,3.383,0,0,1,1.3.035,2.686,2.686,0,0,1,1.2.609h.012v.014a9.226,9.226,0,0,1-.47,1.524,9.457,9.457,0,0,1-3.566,4.3,8.957,8.957,0,0,1-2.235,1.047,3.065,3.065,0,0,1-2.117-.016,2.136,2.136,0,0,1-1.148-1.3,2.032,2.032,0,0,1,.047-1.322,2.07,2.07,0,0,1,.447-.717,1.446,1.446,0,0,1,.221-.2l-.057.049a1.741,1.741,0,0,0-.158.153,2.1,2.1,0,0,0-.435.717,2.014,2.014,0,0,0-.04,1.308,2.118,2.118,0,0,0,1.113,1.289,2.965,2.965,0,0,0,2.094,0,8.832,8.832,0,0,0,2.221-1.047,9.41,9.41,0,0,0,3.555-4.27,9.13,9.13,0,0,0,.47-1.517v.024a2.962,2.962,0,0,0-2.458-.638,5.23,5.23,0,0,0-2.2,1,4.617,4.617,0,0,0-.84.75,2.052,2.052,0,0,0-.471.941,1.429,1.429,0,0,0,.125.941,1.278,1.278,0,0,0,.675.567,1.946,1.946,0,0,0,1.51-.078,3.61,3.61,0,0,0,.941-.677c.235-.235.4-.412.51-.536Z" transform="translate(-402.785 -374.54)" fill="#fff"/>
      </g>
      <path id="Path_1445" data-name="Path 1445" d="M208.56,417.706h36.178V416.36h-34.83A1.348,1.348,0,0,0,208.56,417.706Z" transform="translate(-202.822 -380.266)" fill="#263238"/>
      <rect id="Rectangle_195" data-name="Rectangle 195" width="27.716" height="20.962" rx="3.34" transform="translate(41.915 37.153) rotate(180)" fill="#263238"/>
      <rect id="Rectangle_196" data-name="Rectangle 196" width="25.401" height="18.669" transform="translate(15.357 17.188)" fill="#fafafa"/>
      <path id="Path_1446" data-name="Path 1446" d="M249.289,354.406v-5.128c0-3.26,0-7.923.016-13.54l-.031.026h25.406l-.035-.031V354.4l.033-.028-18.375.014h18.415V335.66H249.24v.08c0,5.625.014,10.294.016,13.559v4.771A1.307,1.307,0,0,0,249.289,354.406Z" transform="translate(-233.933 -318.55)" fill="#263238"/>
      <path id="Path_1447" data-name="Path 1447" d="M265.61,357.1h5.02l12.524.012-.031-.031v8.64l.031-.031H270.717l12.437.012h.031v-8.68H265.7Z" transform="translate(-246.452 -334.885)" fill="#e0e0e0"/>
      <path id="Path_1448" data-name="Path 1448" d="M265.61,363.413c0,.016,3.926.031,8.772.031s8.772-.014,8.772-.031-3.926-.033-8.772-.033S265.61,363.394,265.61,363.413Z" transform="translate(-246.452 -339.749)" fill="#e0e0e0"/>
      <path id="Path_1449" data-name="Path 1449" d="M266.15,368.331c0,.016,3.929.031,8.772.031s8.772-.014,8.772-.031-3.926-.031-8.772-.031S266.15,368.314,266.15,368.331Z" transform="translate(-246.865 -343.511)" fill="#e0e0e0"/>
      <path id="Path_1450" data-name="Path 1450" d="M265.61,373.511c0,.016,3.926.031,8.772.031s8.772-.014,8.772-.031-3.926-.031-8.772-.031S265.61,373.494,265.61,373.511Z" transform="translate(-246.452 -347.473)" fill="#e0e0e0"/>
      <path id="Path_1451" data-name="Path 1451" d="M265.61,378.553c0,.016,3.926.031,8.772.031s8.772-.014,8.772-.031-3.926-.033-8.772-.033S265.61,378.534,265.61,378.553Z" transform="translate(-246.452 -351.327)" fill="#e0e0e0"/>
      <path id="Path_1452" data-name="Path 1452" d="M265.61,383.6c0,.019,3.926.033,8.772.033s8.772-.014,8.772-.033-3.926-.031-8.772-.031S265.61,383.584,265.61,383.6Z" transform="translate(-246.452 -355.189)" fill="#e0e0e0"/>
      <path id="Path_1453" data-name="Path 1453" d="M283.154,388.651c0-.016-3.929-.031-8.772-.031s-8.772.014-8.772.031,3.926.031,8.772.031S283.154,388.667,283.154,388.651Z" transform="translate(-246.452 -359.051)" fill="#e0e0e0"/>
      <path id="Path_1454" data-name="Path 1454" d="M325.321,366.1c.016,0,.031-1.957.031-4.373s-.014-4.376-.031-4.376-.031,1.957-.031,4.376S325.3,366.1,325.321,366.1Z" transform="translate(-292.093 -335.137)" fill="#e0e0e0"/>
      <path id="Path_1455" data-name="Path 1455" d="M310.363,366.1c.016,0,.031-1.957.031-4.373s-.014-4.376-.031-4.376-.033,1.957-.033,4.376S310.344,366.1,310.363,366.1Z" transform="translate(-280.652 -335.137)" fill="#e0e0e0"/>
      <path id="Path_1456" data-name="Path 1456" d="M295.411,366.1c.019,0,.033-1.957.033-4.373s-.014-4.376-.033-4.376-.031,1.957-.031,4.376S295.394,366.1,295.411,366.1Z" transform="translate(-269.219 -335.137)" fill="#e0e0e0"/>
      <path id="Path_1457" data-name="Path 1457" d="M280.461,366.1c.016,0,.031-1.957.031-4.373s-.014-4.376-.031-4.376-.031,1.957-.031,4.376S280.444,366.1,280.461,366.1Z" transform="translate(-257.786 -335.137)" fill="#e0e0e0"/>
      <path id="Path_1458" data-name="Path 1458" d="M265.5,366.1c.016,0,.031-1.957.031-4.373s-.014-4.376-.031-4.376-.033,1.957-.033,4.376S265.484,366.1,265.5,366.1Z" transform="translate(-246.345 -335.137)" fill="#e0e0e0"/>
      <path id="Path_1459" data-name="Path 1459" d="M265.61,363.52a.939.939,0,0,0,.132.1l.393.28,1.473,1.016c1.254.859,3.009,2.054,5,3.4l.023.016h.031l1.494-.5,2.023-.684h-.054l3.529,2.364h0l2.545.88.706.235.183.056.064.016-.059-.031-.179-.071-.692-.256-2.529-.92h.012l-3.512-2.385-.024-.016h-.031l-2.023.682-1.494.5h.054c-2-1.346-3.764-2.526-5.025-3.369l-1.482-.969-.407-.261A.814.814,0,0,0,265.61,363.52Z" transform="translate(-246.452 -339.856)" fill="#eb9a28"/>
      <path id="Path_1460" data-name="Path 1460" d="M324.51,388.054a.214.214,0,1,0,.214-.214A.214.214,0,0,0,324.51,388.054Z" transform="translate(-291.496 -358.455)" fill="#eb9a28"/>
      <path id="Path_1461" data-name="Path 1461" d="M309.56,377.964a.214.214,0,1,0,.214-.214A.214.214,0,0,0,309.56,377.964Z" transform="translate(-280.063 -350.738)" fill="#eb9a28"/>
      <path id="Path_1462" data-name="Path 1462" d="M294.6,382.924a.214.214,0,1,0,.214-.214A.214.214,0,0,0,294.6,382.924Z" transform="translate(-268.622 -354.531)" fill="#eb9a28"/>
      <path id="Path_1463" data-name="Path 1463" d="M279.5,372.954a.214.214,0,1,0,.214-.214A.214.214,0,0,0,279.5,372.954Z" transform="translate(-257.074 -346.907)" fill="#eb9a28"/>
      <path id="Path_1464" data-name="Path 1464" d="M265.609,372.889a.284.284,0,0,0,.066-.035l.188-.118.706-.47,2.588-1.7h-.052c1,.675,2.2,1.48,3.51,2.352l.047.033.035-.047c.581-.781,1.2-1.623,1.849-2.494l1.668-2.254h-.092l3.529,3.552h0l2.613.849.706.224.186.056a.217.217,0,0,0,.066.014l-.061-.028-.184-.066-.706-.249-2.6-.887.019.012c-.969-.99-2.171-2.211-3.507-3.573l-.049-.049-.042.056c-.534.706-1.094,1.475-1.67,2.254l-1.847,2.5.082-.014-3.529-2.352-.026-.019-.026.019-2.531,1.793-.706.482-.179.129C265.628,372.87,265.607,372.887,265.609,372.889Z" transform="translate(-246.451 -343.289)" fill="#455a64"/>
      <path id="Path_1465" data-name="Path 1465" d="M309.56,367.864a.214.214,0,1,0,.214-.214A.214.214,0,0,0,309.56,367.864Z" transform="translate(-280.063 -343.014)" fill="#455a64"/>
      <path id="Path_1466" data-name="Path 1466" d="M324.51,383a.214.214,0,1,0,.214-.214A.214.214,0,0,0,324.51,383Z" transform="translate(-291.496 -354.593)" fill="#455a64"/>
      <path id="Path_1467" data-name="Path 1467" d="M294.6,388.054a.214.214,0,1,0,.214-.214A.214.214,0,0,0,294.6,388.054Z" transform="translate(-268.622 -358.455)" fill="#455a64"/>
      <path id="Path_1468" data-name="Path 1468" d="M279.65,378.874a.214.214,0,1,0,.214-.214A.214.214,0,0,0,279.65,378.874Z" transform="translate(-257.189 -351.434)" fill="#455a64"/>
      <path id="Path_1469" data-name="Path 1469" d="M331.66,398.049a.889.889,0,0,0,.339.033.879.879,0,0,0,.339-.033.972.972,0,0,0-.339-.031A.984.984,0,0,0,331.66,398.049Z" transform="translate(-296.964 -366.236)" fill="#e0e0e0"/>
      <path id="Path_1470" data-name="Path 1470" d="M316.38,398.049a.889.889,0,0,0,.339.033.879.879,0,0,0,.339-.033.972.972,0,0,0-.339-.031A.984.984,0,0,0,316.38,398.049Z" transform="translate(-285.279 -366.236)" fill="#e0e0e0"/>
      <path id="Path_1471" data-name="Path 1471" d="M301.1,398.049a.88.88,0,0,0,.339.033.89.89,0,0,0,.339-.033.984.984,0,0,0-.339-.031A.973.973,0,0,0,301.1,398.049Z" transform="translate(-273.593 -366.236)" fill="#e0e0e0"/>
      <path id="Path_1472" data-name="Path 1472" d="M285.81,398.049a.889.889,0,0,0,.339.033.879.879,0,0,0,.339-.033.973.973,0,0,0-.339-.031A.984.984,0,0,0,285.81,398.049Z" transform="translate(-261.9 -366.236)" fill="#e0e0e0"/>
      <path id="Path_1473" data-name="Path 1473" d="M270.53,398.03a.879.879,0,0,0,.339.033.889.889,0,0,0,.339-.033.982.982,0,0,0-.332-.038A.971.971,0,0,0,270.53,398.03Z" transform="translate(-250.215 -366.217)" fill="#e0e0e0"/>
      <path id="Path_1474" data-name="Path 1474" d="M342.3,393.68a1.146,1.146,0,0,0,.546,0A1.234,1.234,0,0,0,342.3,393.68Z" transform="translate(-305.101 -362.898)" fill="#e0e0e0"/>
      <path id="Path_1475" data-name="Path 1475" d="M342.3,387.811a1.147,1.147,0,0,0,.546,0A1.23,1.23,0,0,0,342.3,387.811Z" transform="translate(-305.101 -358.409)" fill="#e0e0e0"/>
      <path id="Path_1476" data-name="Path 1476" d="M342.3,381.9a1.147,1.147,0,0,0,.546,0A1.234,1.234,0,0,0,342.3,381.9Z" transform="translate(-305.101 -353.889)" fill="#e0e0e0"/>
      <path id="Path_1477" data-name="Path 1477" d="M342.3,376.071a1.147,1.147,0,0,0,.546,0A1.232,1.232,0,0,0,342.3,376.071Z" transform="translate(-305.101 -349.43)" fill="#e0e0e0"/>
      <path id="Path_1478" data-name="Path 1478" d="M342.3,370.2a1.147,1.147,0,0,0,.546,0A1.231,1.231,0,0,0,342.3,370.2Z" transform="translate(-305.101 -344.941)" fill="#e0e0e0"/>
      <path id="Path_1479" data-name="Path 1479" d="M342.3,364.331a1.147,1.147,0,0,0,.546,0A1.234,1.234,0,0,0,342.3,364.331Z" transform="translate(-305.101 -340.452)" fill="#e0e0e0"/>
      <path id="Path_1480" data-name="Path 1480" d="M342.3,358.461a1.147,1.147,0,0,0,.546,0A1.234,1.234,0,0,0,342.3,358.461Z" transform="translate(-305.101 -335.963)" fill="#e0e0e0"/>
      <rect id="Rectangle_197" data-name="Rectangle 197" width="5.041" height="0.358" transform="translate(36.794 19.585) rotate(180)" fill="#eb9a28"/>
      <path id="Path_1481" data-name="Path 1481" d="M280.88,349.021c0,.019,3.152.031,7.038.031s7.038-.012,7.038-.031-3.15-.021-7.038-.021S280.88,349,280.88,349.021Z" transform="translate(-258.13 -328.751)" fill="#263238"/>
      <path id="Path_1482" data-name="Path 1482" d="M302.75,405.391c0,.016,1.922.031,4.293.031s4.291-.014,4.291-.031-1.922-.031-4.291-.031S302.75,405.374,302.75,405.391Z" transform="translate(-274.855 -371.853)" fill="#263238"/>
      <path id="Path_1483" data-name="Path 1483" d="M330.48,408.143a13.743,13.743,0,0,0,1.833,0,12.769,12.769,0,0,0-1.832,0Z" transform="translate(-296.062 -373.956)" fill="#263238"/>
      <path id="Path_1484" data-name="Path 1484" d="M269.67,404.9c0,.019,1.367.033,3.058.033s3.058-.014,3.058-.033-1.367-.031-3.058-.031S269.67,404.884,269.67,404.9Z" transform="translate(-249.557 -371.478)" fill="#263238"/>
      <path id="Path_1485" data-name="Path 1485" d="M283.78,406.683a14.883,14.883,0,0,0,1.908,0A13.849,13.849,0,0,0,283.78,406.683Z" transform="translate(-260.348 -372.84)" fill="#263238"/>
    </g>
    <g id="freepik--Character--inject-3" transform="translate(18.172 53.518)">
      <rect id="Rectangle_198" data-name="Rectangle 198" width="25.18" height="9.548" transform="translate(15.16 76.829)" fill="#263238"/>
      <path id="Path_1486" data-name="Path 1486" d="M257.291,236.978a4.673,4.673,0,0,1-1.176-1.748,4.277,4.277,0,0,0-1.244-1.828c-.155-.118-.776-.816-.776-.816s-.078-.706.816-.623a3.7,3.7,0,0,1,2.371,1.129c.621.661.971.271,1.4.038s1.71-.661,1.943-1.437a32.977,32.977,0,0,1,1.477-3.15s1.282-2.176,1.673-2.1.612.336.456.882-1.35,3.665-1.117,4.056.47.311.661.115,3.479-4.065,4.18-4.02.68.638.329,1.106-3.187,3.964-3.187,3.964l1.788-1.244s1.868-1.713,2.282-1.647c.612.111.35,1-.183,1.6-.5.558-1.825,2.021-1.825,2.021l-1.284,1.673s3.079-1.331,3.272-1.021.235.779,0,.972-2.922,1.682-2.922,1.682L263,240.111Z" transform="translate(-200.263 -194.961)" fill="#ffbe9d"/>
      <path id="Path_1487" data-name="Path 1487" d="M96.254,135.1l11.252-.146.348-9.612s.769-.165.821-4.335.235-11.263.235-11.263h0a14.5,14.5,0,0,0-14.571,1.833l-.619.47,2.526,14.114Z" transform="translate(-77.616 -104.814)" fill="#ffbe9d"/>
      <path id="Path_1488" data-name="Path 1488" d="M90.279,144.772c-.071-.031-2.868-.849-2.776,2a2.141,2.141,0,0,0,2.938,2.091C90.441,148.776,90.279,144.772,90.279,144.772Z" transform="translate(-72.86 -132.403)" fill="#ffbe9d"/>
      <path id="Path_1489" data-name="Path 1489" d="M154.914,142.363a1.888,1.888,0,0,1,2.524,2.138,2.148,2.148,0,0,1-2.938,2.089C154.5,146.508,154.914,142.363,154.914,142.363Z" transform="translate(-124.098 -130.592)" fill="#ffbe9d"/>
      <path id="Path_1490" data-name="Path 1490" d="M108.974,96.151a1.543,1.543,0,0,0-.567-1.376,1.094,1.094,0,0,0-1.411.106,1.275,1.275,0,0,0-1.1-1.546c-.68-.042-1.261.47-1.92.652a2.989,2.989,0,0,1-1.948-.235c-.619-.259-1.2-.572-1.825-.807a5.335,5.335,0,0,0-6.822,3.133,2.375,2.375,0,0,0-2.512.941,3.874,3.874,0,0,0-.6,2.738,8.827,8.827,0,0,0,.47,1.882v.16c.045,2.294,1.24,9.544,2.218,9.56,1.708.026.365-7.746.365-7.746,2.094-.807,1.313-3.945,1.837-4.42s1.618-1.583,6,.659a8.492,8.492,0,0,0,5.2.562l.111-.024h.026l.035-.014a3.942,3.942,0,0,0,1.124-.47,2.223,2.223,0,0,0,.927-1.03,1.221,1.221,0,0,0-.235-1.306A2.67,2.67,0,0,0,108.974,96.151Z" transform="translate(-74.957 -92.621)" fill="#263238"/>
      <path id="Path_1491" data-name="Path 1491" d="M95.38,115.666c.426,2.39.341,3.646.736,5.244a8.407,8.407,0,0,0,4.154,5.726,6.561,6.561,0,0,0,7.311-.47,6.788,6.788,0,0,0,2.529-4.345c.212-1.8.4-4.973.414-6.777.024-3.258.235-6.373.235-6.373L101.452,107l-5.3,3.138Z" transform="translate(-78.886 -103.617)" fill="#263238"/>
      <path id="Path_1492" data-name="Path 1492" d="M125.807,195.414a2.978,2.978,0,0,1-1.63.146,3.077,3.077,0,0,1-1.56-.5c.028-.061.706.143,1.588.235A15.607,15.607,0,0,1,125.807,195.414Z" transform="translate(-99.715 -170.956)" fill="#263238"/>
      <path id="Path_1493" data-name="Path 1493" d="M116.981,97.86a1.37,1.37,0,0,1-.442.08,2.588,2.588,0,0,1-1.193-.278,8.556,8.556,0,0,1-1.506-1.012,4.089,4.089,0,0,0-1.967-.906,3.43,3.43,0,0,0-3.411,1.578,4.037,4.037,0,0,0-.553,1.55,2.159,2.159,0,0,1,.047-.447,3.529,3.529,0,0,1,1.753-2.395,3.585,3.585,0,0,1,2.178-.391,4.107,4.107,0,0,1,2.009.941,9.069,9.069,0,0,0,1.482,1.021,2.656,2.656,0,0,0,1.157.3A3.727,3.727,0,0,0,116.981,97.86Z" transform="translate(-88.468 -94.906)" fill="#fff"/>
      <path id="Path_1494" data-name="Path 1494" d="M97.455,108.859a3.95,3.95,0,0,0-.668-.249,2.138,2.138,0,0,0-2.609,1.621,4.048,4.048,0,0,0-.073.706.682.682,0,0,1-.033-.193,1.882,1.882,0,0,1,.035-.534,2.148,2.148,0,0,1,2.7-1.673,2,2,0,0,1,.494.207A.619.619,0,0,1,97.455,108.859Z" transform="translate(-77.881 -104.73)" fill="#455a64"/>
      <path id="Path_1495" data-name="Path 1495" d="M102.967,143.567a10.52,10.52,0,0,1-1.322-3.03,5.37,5.37,0,0,1,.779,1.463A5.427,5.427,0,0,1,102.967,143.567Z" transform="translate(-83.669 -129.265)" fill="#455a64"/>
      <path id="Path_1496" data-name="Path 1496" d="M111.139,150.461a3.4,3.4,0,0,1-1.317-1.315,3.514,3.514,0,0,1-.675-1.736c.066-.012.341.757.894,1.593S111.191,150.4,111.139,150.461Z" transform="translate(-89.404 -134.521)" fill="#455a64"/>
      <path id="Path_1497" data-name="Path 1497" d="M121.547,157.095a2.506,2.506,0,0,1-1.113-.685c-.546-.478-.887-.967-.833-1.011a5.118,5.118,0,0,1,1,.814C121.135,156.674,121.587,157.034,121.547,157.095Z" transform="translate(-97.405 -140.628)" fill="#455a64"/>
      <path id="Path_1498" data-name="Path 1498" d="M142.474,146.19a2.375,2.375,0,0,1-.252,1.411,2.429,2.429,0,0,1-.828,1.176c-.049-.052.3-.572.586-1.282A8.342,8.342,0,0,1,142.474,146.19Z" transform="translate(-114.072 -133.588)" fill="#455a64"/>
      <path id="Path_1499" data-name="Path 1499" d="M148.713,136.61a3.128,3.128,0,0,1-.162,1.748,3.226,3.226,0,0,1-.866,1.529c-.052-.042.339-.706.616-1.607S148.638,136.608,148.713,136.61Z" transform="translate(-118.883 -126.262)" fill="#455a64"/>
      <path id="Path_1500" data-name="Path 1500" d="M121.262,106.269a1.713,1.713,0,0,1-.372.287,2.861,2.861,0,0,1-1.226.379,4.3,4.3,0,0,1-1.882-.289,15.343,15.343,0,0,1-2.084-1.04,8.807,8.807,0,0,0-2.117-.913,3.465,3.465,0,0,0-1.854,0,2.555,2.555,0,0,0-1.087.621c-.212.214-.292.362-.3.355a1.509,1.509,0,0,1,.273-.383,2.479,2.479,0,0,1,1.094-.663,3.529,3.529,0,0,1,1.9-.033,8.743,8.743,0,0,1,2.143.915,15.956,15.956,0,0,0,2.07,1.042,4.294,4.294,0,0,0,1.84.3A2.877,2.877,0,0,0,121.262,106.269Z" transform="translate(-90.327 -101.686)" fill="#455a64"/>
      <path id="Path_1501" data-name="Path 1501" d="M145.851,117.845a.643.643,0,0,1-.151.1,3.566,3.566,0,0,1-.445.219,5.291,5.291,0,0,1-1.581.4,5.364,5.364,0,0,1-1.628-.1,4.248,4.248,0,0,1-.47-.134.572.572,0,0,1-.167-.073c0-.016.252.061.656.134a6.259,6.259,0,0,0,1.6.071,6.16,6.16,0,0,0,1.564-.36C145.616,117.949,145.844,117.829,145.851,117.845Z" transform="translate(-114.088 -111.91)" fill="#455a64"/>
      <path id="Path_1502" data-name="Path 1502" d="M47.33,215.214s2.456,11.419,4,16.149c2.181,6.723,4.585,12.849,4.585,12.849s-1.647,14.964-2.545,20.426l-.84,4.684h7.808l1.868-7.805.981,7.805,22.736-.061-2.9-25.825L82.4,232.669l1.364-17.455-10.96-4.26-13.2-.423Z" transform="translate(-42.139 -182.793)" fill="#eb9a28"/>
      <path id="Path_1503" data-name="Path 1503" d="M26.677,262.372a10.976,10.976,0,0,1-1.341-6.641c.489-3.717,3.413-18.459,3.413-18.459l1.705-6.822,6.587,14.987-1.1,12.795,3.192,1.647L38.1,267.564S27.371,263.847,26.677,262.372Z" transform="translate(-25.264 -198.027)" fill="#eb9a28"/>
      <path id="Path_1504" data-name="Path 1504" d="M175.762,243.427c.256.355,11.576,16.269,14.766,18.045,2.882,1.6,5.686,1.193,6.54-.026s6.083-17.269,6.083-17.269-1.941-4.6-6.081-4.11l-4.023,8.233s-4.759-7.128-5.368-8.8-5.7-9.325-5.85-9.106C181.226,231.254,174.3,241.4,175.762,243.427Z" transform="translate(-140.204 -197.981)" fill="#eb9a28"/>
      <path id="Path_1505" data-name="Path 1505" d="M99.51,202.842l1.056-2.722s11.341.315,11.527.379l.8,2.566-7.826.974Z" transform="translate(-82.044 -174.832)" fill="#eb9a28"/>
      <path id="Path_1506" data-name="Path 1506" d="M103.99,198.453l.118-.513,11.322.513.092.379Z" transform="translate(-85.471 -173.165)" fill="#f5f5f5"/>
      <g id="Group_91" data-name="Group 91" transform="translate(5.244 37.697)" opacity="0.3">
        <path id="Path_1507" data-name="Path 1507" d="M53.485,269.588c-2.691-4.924-4.47-11.266-5.794-16.718-.318,5.124-.144,11.023,1.428,15.909.534,1.658,2.338,4.27,4.034,4.672.078.056.186-2.545.332-3.863" transform="translate(-47.559 -252.87)"/>
      </g>
      <path id="Path_1508" data-name="Path 1508" d="M54.449,284.234a.148.148,0,0,1,0-.052l.014-.155c0-.141.031-.341.056-.6.054-.529.132-1.289.235-2.249.2-1.934.5-4.667.842-7.89v.024c-.774-2.181-1.7-4.6-2.679-7.144-.924-2.4-1.807-4.691-2.559-6.789s-1.393-4-1.882-5.62c-.983-3.23-1.376-5.283-1.376-5.283a.612.612,0,0,1,.028.094c.016.066.04.158.071.273.064.247.153.6.266,1.052s.273,1.011.447,1.658.393,1.376.647,2.181c.494,1.611,1.136,3.512,1.9,5.608s1.647,4.38,2.569,6.782c.979,2.545,1.9,4.966,2.67,7.151v.024c-.362,3.223-.67,5.954-.887,7.885-.111.957-.2,1.717-.261,2.244-.033.256-.056.454-.075.6l-.021.153A.406.406,0,0,1,54.449,284.234Z" transform="translate(-41.963 -211.816)" fill="#263238"/>
      <path id="Path_1509" data-name="Path 1509" d="M184.154,251.389a.3.3,0,0,1-.035-.038l-.1-.125c-.085-.108-.219-.266-.372-.482a18.489,18.489,0,0,1-1.219-1.882,16.913,16.913,0,0,1-1.355-3.035,14.468,14.468,0,0,1-.743-4,12.378,12.378,0,0,1,.539-4.032,11.008,11.008,0,0,1,1.435-3,9.5,9.5,0,0,1,1.466-1.694c.191-.183.362-.3.47-.39l.125-.1c.031-.021.045-.033.047-.031a.186.186,0,0,1-.038.04l-.118.106c-.1.1-.268.219-.452.407a10.039,10.039,0,0,0-1.428,1.708,11.269,11.269,0,0,0-1.4,2.98,12.429,12.429,0,0,0-.525,4,14.635,14.635,0,0,0,.734,3.964,17.561,17.561,0,0,0,1.324,3.028,20.549,20.549,0,0,0,1.176,1.9c.146.219.273.381.351.5l.092.129A.187.187,0,0,1,184.154,251.389Z" transform="translate(-143.847 -199.663)" fill="#263238"/>
      <g id="Group_92" data-name="Group 92" transform="translate(36.586 42.597)" opacity="0.3">
        <path id="Path_1510" data-name="Path 1510" d="M180.79,273.7a63.067,63.067,0,0,0,4.3,17.862l-.56-8.445A27.434,27.434,0,0,1,180.79,273.7Z" transform="translate(-180.79 -273.7)"/>
      </g>
      <g id="Group_93" data-name="Group 93" transform="translate(16.169 55.009)" opacity="0.3">
        <path id="Path_1511" data-name="Path 1511" d="M94,326.46a43.214,43.214,0,0,0,15.067,14.154" transform="translate(-94 -326.46)"/>
      </g>
      <path id="Path_1512" data-name="Path 1512" d="M56.523,346.617c0,.024-.263-.071-.706-.122a3.928,3.928,0,0,0-.76-.021,4.508,4.508,0,0,0-.915.165,4.688,4.688,0,0,0-.849.36,4.283,4.283,0,0,0-.626.433c-.315.28-.492.487-.51.487s.031-.061.1-.162a1.4,1.4,0,0,1,.146-.172,1.964,1.964,0,0,1,.209-.214,3.662,3.662,0,0,1,.626-.47,4.214,4.214,0,0,1,.877-.381,4.167,4.167,0,0,1,.941-.16,3.758,3.758,0,0,1,.779.047,2.386,2.386,0,0,1,.292.064,1.314,1.314,0,0,1,.216.068A.559.559,0,0,1,56.523,346.617Z" transform="translate(-45.828 -286.666)" fill="#263238"/>
      <path id="Path_1513" data-name="Path 1513" d="M252.181,310.461a6.8,6.8,0,0,1-.209-.79c-.122-.489-.3-1.162-.543-1.882s-.489-1.381-.68-1.847a7.186,7.186,0,0,1-.3-.762.812.812,0,0,1,.115.188c.066.125.158.308.263.539a18.134,18.134,0,0,1,.717,1.844,17.745,17.745,0,0,1,.51,1.91c.049.249.087.452.106.59A.781.781,0,0,1,252.181,310.461Z" transform="translate(-197.477 -255.177)" fill="#263238"/>
      <path id="Path_1514" data-name="Path 1514" d="M250.42,314.434a1.722,1.722,0,0,1-.092-.3c-.052-.2-.118-.47-.191-.828a25.567,25.567,0,0,1-.416-2.776,26.078,26.078,0,0,1-.118-2.8c0-.36.019-.649.033-.849a1.314,1.314,0,0,1,.033-.311,1.805,1.805,0,0,1,.014.311v.849c.012.706.049,1.7.153,2.792s.254,2.063.379,2.769l.153.833A1.356,1.356,0,0,1,250.42,314.434Z" transform="translate(-196.829 -256.24)" fill="#263238"/>
      <path id="Path_1515" data-name="Path 1515" d="M109.967,339.48l-.059-.014-.172-.056c-.151-.052-.376-.115-.656-.235a19.646,19.646,0,0,1-2.331-1.044,24.467,24.467,0,0,1-3.209-2,32.349,32.349,0,0,1-3.514-3.027,59.215,59.215,0,0,1-5.455-6.415c-.647-.863-1.162-1.567-1.513-2.056l-.4-.565-.1-.148c-.024-.035-.035-.052-.033-.054a.253.253,0,0,1,.042.045l.113.143.428.551,1.543,2.03a63.149,63.149,0,0,0,5.474,6.382,33.238,33.238,0,0,0,3.5,3.025,25.612,25.612,0,0,0,3.18,2.032,22.038,22.038,0,0,0,2.308,1.075c.278.118.5.188.647.249l.169.066C109.95,339.468,109.969,339.478,109.967,339.48Z" transform="translate(-76.698 -269.463)" fill="#263238"/>
      <g id="Group_94" data-name="Group 94" transform="translate(5.89 59.809)" opacity="0.3">
        <path id="Path_1516" data-name="Path 1516" d="M55.107,347.041a4.39,4.39,0,0,0-4.136,1.023,2.2,2.2,0,0,0-.588.833,1.155,1.155,0,0,0,.073.993,1.191,1.191,0,0,0,1.383.383,2.562,2.562,0,0,0,1.162-.99,13.605,13.605,0,0,1,.9-1.261,1.847,1.847,0,0,1,1.339-.68l-.151-.08Z" transform="translate(-50.304 -346.868)"/>
      </g>
      <g id="Group_95" data-name="Group 95" transform="translate(12.104 61.146)" opacity="0.3">
        <path id="Path_1517" data-name="Path 1517" d="M77.11,352.55l-.39,8.139.727.256.823-7.794Z" transform="translate(-76.72 -352.55)"/>
      </g>
      <g id="Group_96" data-name="Group 96" transform="translate(52.78 50.327)" opacity="0.3">
        <path id="Path_1518" data-name="Path 1518" d="M249.717,306.56a32.821,32.821,0,0,0,.889,8.469c.089.374.348.845.706.732s.332-.588.249-.941q-.4-1.71-.8-3.423l-1.129-4.811" transform="translate(-249.63 -306.56)"/>
      </g>
      <path id="Path_1519" data-name="Path 1519" d="M267,268.6l.311-.687s2.67-.8,4.378.687a5.08,5.08,0,0,1,1.882,2.743l-.616,1.1S271.086,268.545,267,268.6Z" transform="translate(-210.134 -226.515)" fill="#fafafa"/>
      <path id="Path_1520" data-name="Path 1520" d="M111.953,210.811a.554.554,0,0,1-.132.028l-.381.052c-.332.045-.812.1-1.411.146a42.266,42.266,0,0,1-9.316-.266c-.59-.085-1.068-.165-1.395-.235l-.379-.073a.535.535,0,0,1-.129-.035.573.573,0,0,1,.134,0l.381.052c.329.049.807.115,1.411.188,1.176.148,2.823.3,4.641.355s3.465,0,4.655-.087c.6-.04,1.075-.078,1.411-.108l.383-.031A.86.86,0,0,1,111.953,210.811Z" transform="translate(-81.509 -182.711)" fill="#263238"/>
      <path id="Path_1521" data-name="Path 1521" d="M106.854,410.22c.033,0,.47,2.637.981,5.9s.894,5.912.861,5.916-.47-2.635-.981-5.9S106.821,410.227,106.854,410.22Z" transform="translate(-87.659 -335.508)" fill="#263238"/>
    </g>
    <g id="freepik--Dresk--inject-3" transform="translate(15.99 140.004)">
      <path id="Path_1522" data-name="Path 1522" d="M125.158,460.331c0,.033-24.444.061-54.576.061s-54.592-.028-54.592-.061,24.437-.061,54.592-.061S125.158,460.3,125.158,460.331Z" transform="translate(-15.99 -460.27)" fill="#263238"/>
    </g>
    <g id="freepik--speech-bubble--inject-3" transform="translate(56.051 50.524)">
      <path id="Path_1523" data-name="Path 1523" d="M186.3,101.681l2.43-4.279a11.47,11.47,0,1,1,2.748,3.058h0Z" transform="translate(-186.298 -79.913)" fill="#fff"/>
      <path id="Path_1524" data-name="Path 1524" d="M186.292,101.662l5.175-1.249-.016.049h0l-.141-.184.183.141a11.728,11.728,0,0,0,2.352,1.4,11.367,11.367,0,0,0,3.122.877,10.255,10.255,0,0,0,1.8.087c.311-.019.626-.028.941-.056l.96-.146a11.47,11.47,0,0,0,7.078-4.564,11.314,11.314,0,0,0,1.91-4.378,11.6,11.6,0,0,0-.139-5.039,11.14,11.14,0,0,0-2.428-4.655l-.47-.508c-.153-.172-.334-.313-.5-.47a4.626,4.626,0,0,0-.513-.447l-.543-.407a4.942,4.942,0,0,0-.562-.372l-.574-.351-.6-.294a5.811,5.811,0,0,0-.607-.271,11.6,11.6,0,0,0-5.076-.783,11.2,11.2,0,0,0-4.662,1.374,11.527,11.527,0,0,0-5.4,6.613,12.314,12.314,0,0,0-.5,3.693,11.306,11.306,0,0,0,.543,3.195,11.665,11.665,0,0,0,1.127,2.454V97.4c-1.574,2.736-2.352,4.084-2.456,4.265.1-.181.863-1.541,2.4-4.293V97.4a11.528,11.528,0,0,1-1.146-2.463,11.333,11.333,0,0,1-.56-3.213,12.352,12.352,0,0,1,.5-3.724,11.626,11.626,0,0,1,5.434-6.683,11.291,11.291,0,0,1,4.7-1.393,11.661,11.661,0,0,1,5.128.79,5.085,5.085,0,0,1,.614.273l.607.294.581.353a4.765,4.765,0,0,1,.569.376l.548.409c.188.134.346.3.52.454a5.616,5.616,0,0,1,.5.47l.47.515a11.291,11.291,0,0,1,2.451,4.7,11.662,11.662,0,0,1,.136,5.093,11.418,11.418,0,0,1-1.934,4.42,11.553,11.553,0,0,1-7.151,4.592l-.967.146c-.32.028-.637.035-.941.052a10.412,10.412,0,0,1-1.811-.089,11.4,11.4,0,0,1-5.493-2.315l.042-.042h0l.031.038h-.047Z" transform="translate(-186.29 -79.894)" fill="#263238"/>
      <path id="Path_1525" data-name="Path 1525" d="M218.582,124.941a.941.941,0,1,1-.941-.941A.941.941,0,0,1,218.582,124.941Z" transform="translate(-209.546 -113.624)" fill="#263238"/>
      <path id="Path_1526" data-name="Path 1526" d="M234.682,124.941a.941.941,0,1,1-.941-.941A.941.941,0,0,1,234.682,124.941Z" transform="translate(-221.859 -113.624)" fill="#263238"/>
      <path id="Path_1527" data-name="Path 1527" d="M251.152,124.455a.941.941,0,1,1-.575-.443A.941.941,0,0,1,251.152,124.455Z" transform="translate(-234.549 -113.609)" fill="#263238"/>
    </g>
  </g>
</svg>
