<svg id="Group_229" data-name="Group 229" xmlns="http://www.w3.org/2000/svg" width="332" height="361" viewBox="0 0 332 361">
  <path id="Path_2259" data-name="Path 2259" d="M195.8,145.923a.562.562,0,1,1,.563.562A.563.563,0,0,1,195.8,145.923Z" transform="translate(-129.007 -25.19)" fill="#f0c96e"/>
  <path id="Path_2260" data-name="Path 2260" d="M170.189,187.759a.562.562,0,1,1,.563.563A.563.563,0,0,1,170.189,187.759Z" transform="translate(-152.553 4.448)" fill="#f0c96e"/>
  <path id="Path_2261" data-name="Path 2261" d="M162.6,109.506a.562.562,0,1,1,.562.562A.562.562,0,0,1,162.6,109.506Z" transform="translate(-155.896 -60.081)" fill="#f0c96e"/>
  <path id="Path_2262" data-name="Path 2262" d="M207.92,245.873a.562.562,0,1,1,.563.562A.563.563,0,0,1,207.92,245.873Z" transform="translate(-119.739 56.435)" fill="#f0c96e"/>
  <path id="Path_2263" data-name="Path 2263" d="M183.947,169.845a.562.562,0,1,1,.562.562A.562.562,0,0,1,183.947,169.845Z" transform="translate(-146.495 -8.242)" fill="#f0c96e"/>
  <path id="Path_2264" data-name="Path 2264" d="M224.338,189.251a.562.562,0,1,1,.562.562A.562.562,0,0,1,224.338,189.251Z" transform="translate(-107.187 5.505)" fill="#f0c96e"/>
  <path id="Path_2265" data-name="Path 2265" d="M240.519,274.974a.562.562,0,1,1,.562.562A.561.561,0,0,1,240.519,274.974Z" transform="translate(-94.817 69.25)" fill="#f0c96e"/>
  <path id="Path_2266" data-name="Path 2266" d="M212.674,87.7a.562.562,0,1,1,.563.563A.563.563,0,0,1,212.674,87.7Z" transform="translate(-116.104 -69.682)" fill="#f0c96e"/>
  <path id="Path_2267" data-name="Path 2267" d="M328.347,84.126a.562.562,0,1,1,.562.563A.562.562,0,0,1,328.347,84.126Z" transform="translate(-22.123 -71.258)" fill="#f0c96e"/>
  <path id="Path_2268" data-name="Path 2268" d="M290.078,228.369a.562.562,0,1,1,.562.562A.562.562,0,0,1,290.078,228.369Z" transform="translate(-56.928 33.217)" fill="#f0c96e"/>
  <path id="Path_2269" data-name="Path 2269" d="M284.29,82.011a.562.562,0,1,1,.563.562A.562.562,0,0,1,284.29,82.011Z" transform="translate(-61.353 -72.189)" fill="#f0c96e"/>
  <path id="Path_2270" data-name="Path 2270" d="M293.881,140.9a.562.562,0,1,1,.562.562A.561.561,0,0,1,293.881,140.9Z" transform="translate(-54.021 -28.75)" fill="#f0c96e"/>
  <path id="Path_2271" data-name="Path 2271" d="M295.935,148.775a.562.562,0,1,1,.563.562A.563.563,0,0,1,295.935,148.775Z" transform="translate(-52.45 -23.169)" fill="#fff"/>
  <path id="Path_2272" data-name="Path 2272" d="M204.932,158.707a.562.562,0,1,1,.562.563A.562.562,0,0,1,204.932,158.707Z" transform="translate(-122.023 -16.133)" fill="#fff"/>
  <path id="Path_2273" data-name="Path 2273" d="M157.945,137.066a.562.562,0,1,1,.562.562A.562.562,0,0,1,157.945,137.066Z" transform="translate(-157.945 -31.464)" fill="#fff"/>
  <path id="Path_2274" data-name="Path 2274" d="M291.742,267.486a.562.562,0,1,1,.562.562A.562.562,0,0,1,291.742,267.486Z" transform="translate(-55.656 65.953)" fill="#fff"/>
  <path id="Path_2275" data-name="Path 2275" d="M319.959,217.5a.562.562,0,1,1,.562.562A.563.563,0,0,1,319.959,217.5Z" transform="translate(-25.817 25.519)" fill="#fff"/>
  <path id="Path_2276" data-name="Path 2276" d="M318.683,97.727a.562.562,0,1,1,.562.562A.562.562,0,0,1,318.683,97.727Z" transform="translate(-26.379 -65.268)" fill="#fff"/>
  <path id="Path_2277" data-name="Path 2277" d="M186.969,78.042a.562.562,0,1,1,.562.562A.563.563,0,0,1,186.969,78.042Z" transform="translate(-145.164 -73.937)" fill="#fff"/>
  <path id="Path_2278" data-name="Path 2278" d="M202.216,217.656a.562.562,0,1,1,.562.562A.562.562,0,0,1,202.216,217.656Z" transform="translate(-124.1 25.627)" fill="#f47a63"/>
  <path id="Path_2279" data-name="Path 2279" d="M238.464,263.683a.562.562,0,1,1,.562.562A.562.562,0,0,1,238.464,263.683Z" transform="translate(-96.388 64.278)" fill="#f47a63"/>
  <path id="Path_2280" data-name="Path 2280" d="M280.3,275.364a.562.562,0,1,1,.562.562A.562.562,0,0,1,280.3,275.364Z" transform="translate(-64.405 69.422)" fill="#f47a63"/>
  <path id="Path_2281" data-name="Path 2281" d="M197.6,254.022a.562.562,0,1,1,.562.563A.561.561,0,0,1,197.6,254.022Z" transform="translate(-127.63 60.024)" fill="#f47a63"/>
  <path id="Path_2282" data-name="Path 2282" d="M296.632,160.727a.562.562,0,1,1,.562.563A.562.562,0,0,1,296.632,160.727Z" transform="translate(-51.918 -14.702)" fill="#f47a63"/>
  <path id="Path_2283" data-name="Path 2283" d="M176.681,147.026a.562.562,0,1,1,.562.562A.562.562,0,0,1,176.681,147.026Z" transform="translate(-149.694 -24.408)" fill="#f47a63"/>
  <path id="Path_2284" data-name="Path 2284" d="M171.588,195.195a.562.562,0,1,1,.563.562A.562.562,0,0,1,171.588,195.195Z" transform="translate(-151.937 9.716)" fill="#f47a63"/>
  <path id="Path_2285" data-name="Path 2285" d="M343.705,129.907a.562.562,0,1,1,.562.563A.562.562,0,0,1,343.705,129.907Z" transform="translate(-15.36 -36.535)" fill="#f47a63"/>
  <path id="Path_2286" data-name="Path 2286" d="M310.028,115.981a.562.562,0,1,1,.562.562A.562.562,0,0,1,310.028,115.981Z" transform="translate(-30.19 -57.23)" fill="#f47a63"/>
  <path id="Path_2287" data-name="Path 2287" d="M342.306,171.816a.562.562,0,1,1,.562.562A.562.562,0,0,1,342.306,171.816Z" transform="translate(-15.976 -6.846)" fill="#f47a63"/>
  <path id="Path_2288" data-name="Path 2288" d="M204.117,120.1a.562.562,0,1,1,.563.563A.563.563,0,0,1,204.117,120.1Z" transform="translate(-122.646 -43.484)" fill="#fff"/>
  <path id="Path_2289" data-name="Path 2289" d="M286.438,94.18a.562.562,0,1,1,.562.563A.562.562,0,0,1,286.438,94.18Z" transform="translate(-59.711 -66.83)" fill="#fff"/>
  <path id="Path_2290" data-name="Path 2290" d="M345.462,144.972a.562.562,0,1,1,.562.563A.562.562,0,0,1,345.462,144.972Z" transform="translate(-14.587 -25.863)" fill="#fff"/>
  <path id="Path_2291" data-name="Path 2291" d="M217.581,286.23a.562.562,0,1,1,.562.563A.562.562,0,0,1,217.581,286.23Z" transform="translate(-112.353 74.207)" fill="#fff"/>
  <path id="Path_2292" data-name="Path 2292" d="M302.88,207.723a.562.562,0,1,1,.562.562A.562.562,0,0,1,302.88,207.723Z" transform="translate(-47.141 18.591)" fill="#f0c96e"/>
  <path id="Path_2293" data-name="Path 2293" d="M210.981,143.417h-.3a.865.865,0,0,1-.864-.864v-.565a.565.565,0,0,0-.565-.565h0a.566.566,0,0,0-.565.565v.565a.864.864,0,0,1-.864.864h-.3a.565.565,0,0,0-.565.565h0a.565.565,0,0,0,.565.565h.3a.863.863,0,0,1,.864.864v.565a.566.566,0,0,0,.565.565h0a.565.565,0,0,0,.565-.565v-.565a.864.864,0,0,1,.864-.864h.3a.565.565,0,0,0,.565-.565h0A.565.565,0,0,0,210.981,143.417Z" transform="translate(-120.266 -27.741)" fill="#fff"/>
  <path id="Path_2294" data-name="Path 2294" d="M200.82,231.4h-.3a.865.865,0,0,1-.864-.866v-.563a.564.564,0,0,0-.565-.565h0a.565.565,0,0,0-.565.565v.563a.864.864,0,0,1-.864.866h-.3a.563.563,0,0,0-.565.563h0a.564.564,0,0,0,.565.565h.3a.864.864,0,0,1,.864.864v.565a.565.565,0,0,0,.565.565h0a.564.564,0,0,0,.565-.565v-.565a.865.865,0,0,1,.864-.864h.3a.563.563,0,0,0,.563-.565h0A.563.563,0,0,0,200.82,231.4Z" transform="translate(-128.079 34.899)" fill="#fff"/>
  <path id="Path_2295" data-name="Path 2295" d="M285.6,253.285h-.3a.864.864,0,0,1-.866-.864v-.565a.563.563,0,0,0-.563-.563h0a.563.563,0,0,0-.565.563v.565a.864.864,0,0,1-.864.864h-.3a.566.566,0,0,0-.565.565h0a.565.565,0,0,0,.565.565h.3a.865.865,0,0,1,.864.864v.565a.565.565,0,0,0,.565.565h0a.564.564,0,0,0,.563-.565v-.565a.865.865,0,0,1,.866-.864h.3a.565.565,0,0,0,.565-.565h0A.566.566,0,0,0,285.6,253.285Z" transform="translate(-62.904 59.07)" fill="#fff"/>
  <path id="Path_2296" data-name="Path 2296" d="M284.788,193.763h-.3a.866.866,0,0,1-.866-.866v-.563a.563.563,0,0,0-.563-.565h0a.564.564,0,0,0-.565.565v.563a.865.865,0,0,1-.864.866h-.3a.564.564,0,0,0-.565.563h0a.565.565,0,0,0,.565.565h.3a.865.865,0,0,1,.864.864v.565a.565.565,0,0,0,.565.565h0a.564.564,0,0,0,.563-.565v-.565a.865.865,0,0,1,.866-.864h.3a.565.565,0,0,0,.565-.565h0A.564.564,0,0,0,284.788,193.763Z" transform="translate(-63.531 8.105)" fill="#fff"/>
  <path id="Path_2297" data-name="Path 2297" d="M238.308,82.706h-.3a.865.865,0,0,1-.864-.864v-.565a.565.565,0,0,0-.565-.565h0a.566.566,0,0,0-.565.565v.565a.864.864,0,0,1-.864.864h-.3a.564.564,0,0,0-.565.565h0a.565.565,0,0,0,.565.565h.3a.863.863,0,0,1,.864.864v.565a.564.564,0,0,0,.565.563h0a.563.563,0,0,0,.565-.563V84.7a.864.864,0,0,1,.864-.864h.3a.564.564,0,0,0,.563-.565h0A.563.563,0,0,0,238.308,82.706Z" transform="translate(-99.261 -72.513)" fill="#fff"/>
  <path id="Path_2298" data-name="Path 2298" d="M179.95,88.485h-.3a.864.864,0,0,1-.864-.864v-.565a.566.566,0,0,0-.565-.565h0a.565.565,0,0,0-.565.565v.565a.865.865,0,0,1-.864.864h-.3a.563.563,0,0,0-.563.565h0a.564.564,0,0,0,.563.565h.3a.864.864,0,0,1,.864.864v.565a.563.563,0,0,0,.565.563h0a.564.564,0,0,0,.565-.563v-.565a.863.863,0,0,1,.864-.864h.3a.565.565,0,0,0,.565-.565h0A.564.564,0,0,0,179.95,88.485Z" transform="translate(-150.026 -69.968)" fill="#fff"/>
  <path id="Path_2299" data-name="Path 2299" d="M331.506,197.812h-.3a.865.865,0,0,1-.864-.864v-.565a.564.564,0,0,0-.565-.565h0a.565.565,0,0,0-.565.565v.565a.864.864,0,0,1-.864.864h-.3a.564.564,0,0,0-.565.565h0a.563.563,0,0,0,.565.563h.3a.864.864,0,0,1,.864.866v.563a.565.565,0,0,0,.565.565h0a.564.564,0,0,0,.565-.565v-.563a.865.865,0,0,1,.864-.866h.3a.563.563,0,0,0,.563-.563h0A.563.563,0,0,0,331.506,197.812Z" transform="translate(-22.504 10.988)" fill="#fff"/>
  <path id="Path_2300" data-name="Path 2300" d="M310.768,96.617h-.3a.865.865,0,0,1-.864-.864v-.565a.565.565,0,0,0-.565-.565h0a.566.566,0,0,0-.565.565v.565a.864.864,0,0,1-.864.864h-.3a.564.564,0,0,0-.565.565h0a.563.563,0,0,0,.565.563h.3a.864.864,0,0,1,.864.866v.563a.565.565,0,0,0,.565.565h0a.564.564,0,0,0,.565-.565v-.563a.865.865,0,0,1,.864-.866h.3a.563.563,0,0,0,.563-.563h0A.563.563,0,0,0,310.768,96.617Z" transform="translate(-43.56 -66.387)" fill="#fff"/>
  <path id="Path_2301" data-name="Path 2301" d="M164.7,165.047h-.3a.865.865,0,0,1-.866-.864v-.565a.564.564,0,0,0-.563-.565h0a.565.565,0,0,0-.565.565v.565a.865.865,0,0,1-.864.864h-.3a.565.565,0,0,0-.565.565h0a.564.564,0,0,0,.565.563h.3a.865.865,0,0,1,.864.866v.563a.564.564,0,0,0,.565.565h0a.563.563,0,0,0,.563-.565v-.563a.866.866,0,0,1,.866-.866h.3a.564.564,0,0,0,.565-.563h0A.565.565,0,0,0,164.7,165.047Z" transform="translate(-156.741 -12.341)" fill="#fff"/>
  <path id="Path_2302" data-name="Path 2302" d="M344.5,156.863h-.3a.865.865,0,0,1-.864-.864v-.565a.564.564,0,0,0-.565-.565h0a.565.565,0,0,0-.565.565V156a.864.864,0,0,1-.864.864h-.3a.564.564,0,0,0-.565.565h0a.563.563,0,0,0,.565.563h.3a.864.864,0,0,1,.864.864v.565a.565.565,0,0,0,.565.565h0a.564.564,0,0,0,.565-.565v-.565a.865.865,0,0,1,.864-.864h.3a.563.563,0,0,0,.563-.563h0A.563.563,0,0,0,344.5,156.863Z" transform="translate(-16.78 -18.167)" fill="#fff"/>
  <path id="Path_2303" data-name="Path 2303" d="M299.083,77.013h-.3a.865.865,0,0,1-.864-.864v-.565a.565.565,0,0,0-.565-.565h0a.564.564,0,0,0-.563.565v.565a.865.865,0,0,1-.866.864h-.3a.565.565,0,0,0-.565.565h0a.566.566,0,0,0,.565.565h.3a.864.864,0,0,1,.866.864v.565a.563.563,0,0,0,.563.563h0a.563.563,0,0,0,.565-.563v-.565a.864.864,0,0,1,.864-.864h.3a.566.566,0,0,0,.565-.565h0A.565.565,0,0,0,299.083,77.013Z" transform="translate(-52.542 -75.02)" fill="#fff"/>
  <path id="Path_2304" data-name="Path 2304" d="M217.708,208.432h-.3a.864.864,0,0,1-.864-.866V207a.565.565,0,0,0-.565-.565h0a.565.565,0,0,0-.565.565v.563a.865.865,0,0,1-.864.866h-.3a.564.564,0,0,0-.565.565h0a.563.563,0,0,0,.565.563h.3a.865.865,0,0,1,.864.866v.563a.565.565,0,0,0,.565.565h0a.565.565,0,0,0,.565-.565v-.563a.864.864,0,0,1,.864-.866h.3a.563.563,0,0,0,.565-.563h0A.564.564,0,0,0,217.708,208.432Z" transform="translate(-115.095 18.549)" fill="#fff"/>
  <path id="Path_2305" data-name="Path 2305" d="M235.095,276.616h-.3a.865.865,0,0,1-.866-.864v-.565a.564.564,0,0,0-.563-.565h0a.565.565,0,0,0-.565.565v.565a.865.865,0,0,1-.864.864h-.3a.566.566,0,0,0-.565.565h0a.566.566,0,0,0,.565.565h.3a.864.864,0,0,1,.864.864v.565a.563.563,0,0,0,.565.563h0a.563.563,0,0,0,.563-.563v-.565a.864.864,0,0,1,.866-.864h.3a.566.566,0,0,0,.565-.565h0A.566.566,0,0,0,235.095,276.616Z" transform="translate(-101.731 69.343)" fill="#fff"/>
  <path id="Path_2306" data-name="Path 2306" d="M184.271,134.328h-.3a.865.865,0,0,1-.864-.864V132.9a.565.565,0,0,0-.565-.565h0a.564.564,0,0,0-.563.565v.565a.865.865,0,0,1-.866.864h-.3a.565.565,0,0,0-.565.565h0a.564.564,0,0,0,.565.563h.3a.866.866,0,0,1,.866.866v.563a.563.563,0,0,0,.563.565h0a.564.564,0,0,0,.565-.565v-.563a.865.865,0,0,1,.864-.866h.3a.564.564,0,0,0,.565-.563h0A.565.565,0,0,0,184.271,134.328Z" transform="translate(-148.124 -34.212)" fill="#fff"/>
</svg>
