<?xml version="1.0" encoding="UTF-8"?><svg xmlns="http://www.w3.org/2000/svg" xmlns:xlink="http://www.w3.org/1999/xlink" contentScriptType="text/ecmascript" width="3000pt" zoomAndPan="magnify" contentStyleType="text/css" viewBox="0 0 3000 2999.999989" height="2999.999989pt" preserveAspectRatio="xMidYMid meet" version="1.2"><defs><g/><clipPath xml:id="clip1" id="clip1"><path d="M 1407 175 L 2959.941406 175 L 2959.941406 1011 L 1407 1011 Z M 1407 175 "/></clipPath><clipPath xml:id="clip2" id="clip2"><path d="M 2653 910 L 2792 910 L 2792 1128.097656 L 2653 1128.097656 Z M 2653 910 "/></clipPath><clipPath xml:id="clip3" id="clip3"><path d="M 1389.617188 148.597656 L 1894 148.597656 L 1894 387 L 1389.617188 387 Z M 1389.617188 148.597656 "/></clipPath></defs><g xml:id="surface1" id="surface1"><path style=" stroke:none;fill-rule:nonzero;fill:rgb(0%,19.999695%,25.099182%);fill-opacity:1;" d="M 673.707031 1821.800781 L 791.683594 1821.800781 L 791.683594 2036.464844 L 673.707031 2036.464844 Z M 673.707031 1821.800781 "/><path style=" stroke:none;fill-rule:nonzero;fill:rgb(0%,19.999695%,25.099182%);fill-opacity:1;" d="M 582.496094 2534.476562 C 561.835938 2532.050781 547.054688 2513.339844 549.484375 2492.679688 L 603.574219 2032.078125 C 605.996094 2011.421875 624.667969 1996.621094 645.375 1999.0625 C 666.035156 2001.488281 680.816406 2020.199219 678.386719 2040.863281 L 624.292969 2501.464844 C 621.859375 2522.207031 603.058594 2536.90625 582.496094 2534.476562 Z M 582.496094 2534.476562 "/><path style=" stroke:none;fill-rule:nonzero;fill:rgb(0%,19.999695%,25.099182%);fill-opacity:1;" d="M 898.847656 2521.804688 L 828.789062 2041.90625 C 825.78125 2021.324219 840.035156 2002.195312 860.621094 1999.195312 C 881.183594 1996.1875 900.324219 2010.441406 903.332031 2031.027344 L 973.386719 2510.925781 C 976.386719 2531.507812 962.140625 2550.628906 941.550781 2553.640625 C 920.851562 2556.636719 901.832031 2542.289062 898.847656 2521.804688 Z M 898.847656 2521.804688 "/><path style=" stroke:none;fill-rule:nonzero;fill:rgb(63.529968%,74.899292%,86.268616%);fill-opacity:1;" d="M 645.273438 2326.820312 L 651.65625 2746.09375 L 420.921875 2737.230469 L 522.335938 2326.171875 C 527.644531 2304.597656 538.792969 2284.496094 552.800781 2277.476562 C 567.945312 2269.882812 589.835938 2271.316406 605.726562 2275.902344 C 623.535156 2281.03125 645.273438 2307.644531 645.273438 2326.820312 Z M 645.273438 2326.820312 "/><path style=" stroke:none;fill-rule:nonzero;fill:rgb(63.919067%,71.759033%,74.899292%);fill-opacity:0.4588;" d="M 645.273438 2326.820312 C 645.273438 2322.328125 644.082031 2317.421875 642.023438 2312.484375 C 623.851562 2473.558594 571.5 2717.746094 420.921875 2737.230469 L 651.65625 2746.09375 Z M 645.273438 2326.820312 "/><path style=" stroke:none;fill-rule:nonzero;fill:rgb(28.239441%,56.469727%,75.289917%);fill-opacity:1;" d="M 536.570312 2741.671875 L 548.757812 2599.359375 L 649.585938 2610 L 649.484375 2603.3125 L 549.324219 2592.742188 L 576.78125 2272.152344 C 574.539062 2272.214844 572.316406 2272.367188 570.125 2272.621094 L 549.839844 2509.433594 L 477.121094 2509.433594 L 476.40625 2512.320312 C 476.101562 2513.574219 475.789062 2514.828125 475.484375 2516.078125 L 549.273438 2516.078125 L 529.976562 2741.417969 Z M 536.570312 2741.671875 "/><path style=" stroke:none;fill-rule:nonzero;fill:rgb(28.239441%,56.469727%,75.289917%);fill-opacity:1;" d="M 557.203125 2583.648438 C 557.203125 2585.253906 558.5 2586.5625 560.089844 2586.5625 C 561.683594 2586.5625 562.976562 2585.253906 562.976562 2583.648438 C 562.976562 2582.042969 561.683594 2580.746094 560.089844 2580.746094 C 558.492188 2580.738281 557.203125 2582.042969 557.203125 2583.648438 Z M 557.203125 2583.648438 "/><path style=" stroke:none;fill-rule:nonzero;fill:rgb(28.239441%,56.469727%,75.289917%);fill-opacity:1;" d="M 541.542969 2499.742188 C 541.542969 2501.65625 543.082031 2503.203125 544.980469 2503.203125 C 546.878906 2503.203125 548.414062 2501.65625 548.414062 2499.742188 C 548.414062 2497.824219 546.878906 2496.277344 544.980469 2496.277344 C 543.082031 2496.277344 541.542969 2497.824219 541.542969 2499.742188 Z M 541.542969 2499.742188 "/><path style=" stroke:none;fill-rule:nonzero;fill:rgb(74.899292%,85.488892%,90.589905%);fill-opacity:1;" d="M 668.136719 2802.585938 C 668.136719 2802.585938 389.058594 2805.910156 368.183594 2795.941406 C 347.304688 2785.96875 423.03125 2721.476562 462.679688 2709.546875 C 536.296875 2687.394531 642.871094 2715.085938 660.449219 2756.070312 C 678.027344 2797.046875 668.136719 2802.585938 668.136719 2802.585938 Z M 668.136719 2802.585938 "/><path style=" stroke:none;fill-rule:nonzero;fill:rgb(0%,19.999695%,25.099182%);fill-opacity:1;" d="M 641.914062 2780.433594 C 641.914062 2780.433594 651.800781 2774.890625 634.222656 2733.910156 C 633.257812 2731.65625 632.019531 2729.4375 630.53125 2727.265625 C 645.136719 2735.515625 655.839844 2745.335938 660.441406 2756.0625 C 678.019531 2797.046875 668.132812 2802.585938 668.132812 2802.585938 C 668.132812 2802.585938 389.054688 2805.910156 368.175781 2795.941406 C 362.453125 2793.207031 363.992188 2786.375 370.054688 2777.648438 C 445.78125 2782.765625 641.914062 2780.433594 641.914062 2780.433594 Z M 641.914062 2780.433594 "/><path style=" stroke:none;fill-rule:nonzero;fill:rgb(63.529968%,74.899292%,86.268616%);fill-opacity:1;" d="M 861.320312 2311.25 L 854.878906 2730.9375 L 1087.722656 2722.066406 L 985.382812 2310.601562 C 980.027344 2289.007812 968.773438 2268.882812 954.636719 2261.855469 C 939.359375 2254.253906 917.265625 2255.6875 901.226562 2260.273438 C 883.261719 2265.410156 861.320312 2292.046875 861.320312 2311.25 Z M 861.320312 2311.25 "/><path style=" stroke:none;fill-rule:nonzero;fill:rgb(63.919067%,71.759033%,74.899292%);fill-opacity:0.4588;" d="M 861.320312 2311.25 C 861.320312 2306.75 862.523438 2301.847656 864.601562 2296.902344 C 882.9375 2458.140625 935.765625 2702.570312 1087.722656 2722.066406 L 854.878906 2730.9375 Z M 861.320312 2311.25 "/><path style=" stroke:none;fill-rule:nonzero;fill:rgb(28.239441%,56.469727%,75.289917%);fill-opacity:1;" d="M 958.199219 2500.699219 L 1032.664062 2500.699219 C 1032.160156 2498.667969 1031.65625 2496.640625 1031.152344 2494.613281 L 1031.011719 2494.042969 L 957.632812 2494.042969 L 937.160156 2256.992188 C 934.949219 2256.738281 932.707031 2256.585938 930.445312 2256.523438 L 958.152344 2577.433594 L 857.078125 2588.015625 L 857.070312 2588.371094 C 857.066406 2588.601562 857.066406 2588.835938 857.058594 2589.070312 L 856.976562 2594.71875 L 958.726562 2584.058594 L 971.03125 2726.507812 L 973.316406 2726.417969 L 977.679688 2726.253906 Z M 958.199219 2500.699219 "/><path style=" stroke:none;fill-rule:nonzero;fill:rgb(28.239441%,56.469727%,75.289917%);fill-opacity:1;" d="M 950.195312 2568.335938 C 950.195312 2569.941406 948.890625 2571.238281 947.285156 2571.238281 C 945.679688 2571.238281 944.375 2569.941406 944.375 2568.335938 C 944.375 2566.722656 945.679688 2565.421875 947.285156 2565.421875 C 948.898438 2565.421875 950.195312 2566.722656 950.195312 2568.335938 Z M 950.195312 2568.335938 "/><path style=" stroke:none;fill-rule:nonzero;fill:rgb(28.239441%,56.469727%,75.289917%);fill-opacity:1;" d="M 965.996094 2484.34375 C 965.996094 2486.257812 964.449219 2487.804688 962.53125 2487.804688 C 960.621094 2487.804688 959.066406 2486.257812 959.066406 2484.34375 C 959.066406 2482.425781 960.613281 2480.878906 962.53125 2480.878906 C 964.449219 2480.878906 965.996094 2482.425781 965.996094 2484.34375 Z M 965.996094 2484.34375 "/><path style=" stroke:none;fill-rule:nonzero;fill:rgb(74.899292%,85.488892%,90.589905%);fill-opacity:1;" d="M 838.25 2787.484375 C 838.25 2787.484375 1119.875 2790.8125 1140.945312 2780.835938 C 1162.015625 2770.851562 1085.601562 2706.292969 1045.589844 2694.347656 C 971.304688 2672.167969 863.753906 2699.890625 846.011719 2740.914062 C 828.273438 2781.941406 838.25 2787.484375 838.25 2787.484375 Z M 838.25 2787.484375 "/><path style=" stroke:none;fill-rule:nonzero;fill:rgb(0%,19.999695%,25.099182%);fill-opacity:1;" d="M 864.710938 2765.308594 C 864.710938 2765.308594 854.734375 2759.765625 872.46875 2718.742188 C 873.445312 2716.488281 874.691406 2714.261719 876.195312 2712.097656 C 861.453125 2720.355469 850.648438 2730.175781 846.011719 2740.917969 C 828.273438 2781.941406 838.25 2787.484375 838.25 2787.484375 C 838.25 2787.484375 1119.875 2790.8125 1140.945312 2780.835938 C 1146.722656 2778.101562 1145.167969 2771.257812 1139.046875 2762.523438 C 1062.640625 2767.644531 864.710938 2765.308594 864.710938 2765.308594 Z M 864.710938 2765.308594 "/><path style=" stroke:none;fill-rule:nonzero;fill:rgb(63.529968%,74.899292%,86.268616%);fill-opacity:1;" d="M 567.597656 1978.878906 C 478.171875 1978.878906 626.292969 2207.496094 749.484375 2207.496094 C 851.820312 2207.496094 1010.757812 1980.425781 921.328125 1980.425781 Z M 567.597656 1978.878906 "/><path style=" stroke:none;fill-rule:nonzero;fill:rgb(63.919067%,71.759033%,74.899292%);fill-opacity:0.4588;" d="M 921.335938 1980.425781 L 881.21875 1980.253906 C 846.902344 2046.578125 761.746094 2133.785156 698.328125 2133.785156 C 648.226562 2133.785156 594.011719 2095.972656 553.320312 2051.101562 C 585.664062 2118.09375 672.449219 2207.496094 749.488281 2207.496094 C 851.820312 2207.496094 1010.757812 1980.425781 921.335938 1980.425781 Z M 921.335938 1980.425781 "/><path style=" stroke:none;fill-rule:nonzero;fill:rgb(0%,19.999695%,25.099182%);fill-opacity:1;" d="M 959.046875 2043.429688 L 530.222656 2043.429688 C 526.007812 2043.429688 522.585938 2040.007812 522.585938 2035.792969 L 522.585938 1968.421875 C 522.585938 1964.207031 526.007812 1960.785156 530.222656 1960.785156 L 959.050781 1960.785156 C 963.269531 1960.785156 966.691406 1964.207031 966.691406 1968.421875 L 966.691406 2035.792969 C 966.683594 2040.007812 963.261719 2043.429688 959.046875 2043.429688 Z M 959.046875 2043.429688 "/><path style=" stroke:none;fill-rule:nonzero;fill:rgb(63.529968%,74.899292%,86.268616%);fill-opacity:1;" d="M 561.269531 1905.164062 L 889.550781 1905.164062 C 947.738281 1843.507812 1015.078125 1766.246094 1025.726562 1688.90625 C 1030.976562 1649.132812 1035.605469 1594.460938 1022.171875 1561.347656 C 994.871094 1494.0625 905.019531 1454.949219 870.15625 1450.816406 C 779.183594 1440.027344 687.332031 1437.351562 595.691406 1442.902344 C 584.542969 1443.578125 574.535156 1448.621094 564.199219 1452.871094 C 509.898438 1475.214844 452.65625 1521.386719 433.222656 1567.097656 C 418.195312 1602.457031 428.941406 1661.46875 434.148438 1700.902344 C 444.789062 1778.242188 503.089844 1843.511719 561.269531 1905.164062 Z M 561.269531 1905.164062 "/><path style=" stroke:none;fill-rule:nonzero;fill:rgb(1.959229%,14.898682%,18.818665%);fill-opacity:1;" d="M 847.054688 1480.644531 C 847.054688 1481.308594 847.007812 1481.972656 846.914062 1482.632812 C 846.820312 1483.296875 846.679688 1483.957031 846.488281 1484.617188 C 846.300781 1485.277344 846.066406 1485.9375 845.785156 1486.59375 C 845.503906 1487.25 845.175781 1487.902344 844.800781 1488.554688 C 844.425781 1489.207031 844.003906 1489.851562 843.539062 1490.496094 C 843.070312 1491.140625 842.558594 1491.78125 842 1492.414062 C 841.441406 1493.050781 840.839844 1493.679688 840.191406 1494.304688 C 839.546875 1494.929688 838.855469 1495.550781 838.117188 1496.164062 C 837.382812 1496.777344 836.605469 1497.382812 835.785156 1497.980469 C 834.960938 1498.582031 834.097656 1499.175781 833.191406 1499.761719 C 832.289062 1500.34375 831.339844 1500.921875 830.351562 1501.492188 C 829.363281 1502.0625 828.335938 1502.621094 827.269531 1503.171875 C 826.203125 1503.726562 825.097656 1504.265625 823.953125 1504.800781 C 822.808594 1505.332031 821.625 1505.855469 820.40625 1506.371094 C 819.1875 1506.882812 817.933594 1507.386719 816.644531 1507.875 C 815.351562 1508.367188 814.027344 1508.847656 812.671875 1509.316406 C 811.3125 1509.789062 809.921875 1510.246094 808.496094 1510.691406 C 807.074219 1511.136719 805.617188 1511.570312 804.132812 1511.992188 C 802.648438 1512.410156 801.132812 1512.820312 799.589844 1513.214844 C 798.046875 1513.609375 796.476562 1513.992188 794.878906 1514.363281 C 793.28125 1514.730469 791.660156 1515.085938 790.011719 1515.425781 C 788.363281 1515.765625 786.691406 1516.09375 784.996094 1516.40625 C 783.304688 1516.71875 781.585938 1517.019531 779.851562 1517.300781 C 778.113281 1517.585938 776.359375 1517.855469 774.582031 1518.109375 C 772.808594 1518.363281 771.015625 1518.601562 769.207031 1518.824219 C 767.398438 1519.046875 765.574219 1519.257812 763.734375 1519.449219 C 761.898438 1519.640625 760.046875 1519.820312 758.183594 1519.980469 C 756.316406 1520.140625 754.445312 1520.285156 752.558594 1520.417969 C 750.675781 1520.546875 748.78125 1520.660156 746.882812 1520.757812 C 744.980469 1520.855469 743.074219 1520.933594 741.164062 1521 C 739.25 1521.066406 737.335938 1521.113281 735.417969 1521.148438 C 733.496094 1521.179688 731.578125 1521.195312 729.65625 1521.195312 C 727.734375 1521.195312 725.816406 1521.179688 723.894531 1521.148438 C 721.976562 1521.113281 720.0625 1521.066406 718.148438 1521 C 716.238281 1520.933594 714.332031 1520.855469 712.429688 1520.757812 C 710.53125 1520.660156 708.636719 1520.546875 706.753906 1520.417969 C 704.867188 1520.285156 702.996094 1520.140625 701.128906 1519.980469 C 699.265625 1519.820312 697.414062 1519.640625 695.578125 1519.449219 C 693.738281 1519.257812 691.914062 1519.046875 690.105469 1518.824219 C 688.296875 1518.601562 686.503906 1518.363281 684.730469 1518.109375 C 682.953125 1517.855469 681.199219 1517.585938 679.460938 1517.300781 C 677.722656 1517.019531 676.007812 1516.71875 674.316406 1516.40625 C 672.621094 1516.09375 670.949219 1515.765625 669.300781 1515.425781 C 667.652344 1515.085938 666.03125 1514.730469 664.433594 1514.363281 C 662.835938 1513.992188 661.265625 1513.609375 659.722656 1513.214844 C 658.179688 1512.820312 656.664062 1512.410156 655.179688 1511.992188 C 653.695312 1511.570312 652.238281 1511.136719 650.816406 1510.691406 C 649.390625 1510.246094 648 1509.789062 646.640625 1509.316406 C 645.285156 1508.847656 643.960938 1508.367188 642.667969 1507.875 C 641.378906 1507.386719 640.125 1506.882812 638.90625 1506.371094 C 637.6875 1505.855469 636.503906 1505.332031 635.359375 1504.800781 C 634.214844 1504.265625 633.109375 1503.726562 632.042969 1503.171875 C 630.976562 1502.621094 629.949219 1502.0625 628.960938 1501.492188 C 627.972656 1500.921875 627.023438 1500.34375 626.121094 1499.757812 C 625.214844 1499.175781 624.351562 1498.582031 623.527344 1497.980469 C 622.707031 1497.382812 621.929688 1496.777344 621.195312 1496.164062 C 620.457031 1495.550781 619.765625 1494.929688 619.121094 1494.304688 C 618.472656 1493.679688 617.871094 1493.050781 617.3125 1492.414062 C 616.753906 1491.78125 616.242188 1491.140625 615.773438 1490.496094 C 615.308594 1489.851562 614.886719 1489.207031 614.511719 1488.554688 C 614.136719 1487.902344 613.808594 1487.25 613.527344 1486.59375 C 613.246094 1485.9375 613.011719 1485.277344 612.824219 1484.617188 C 612.632812 1483.957031 612.492188 1483.296875 612.398438 1482.632812 C 612.304688 1481.972656 612.257812 1481.308594 612.257812 1480.644531 C 612.257812 1479.980469 612.304688 1479.316406 612.398438 1478.652344 C 612.492188 1477.992188 612.632812 1477.328125 612.824219 1476.667969 C 613.011719 1476.007812 613.246094 1475.351562 613.527344 1474.695312 C 613.808594 1474.035156 614.136719 1473.382812 614.511719 1472.734375 C 614.886719 1472.082031 615.308594 1471.433594 615.773438 1470.789062 C 616.242188 1470.148438 616.753906 1469.507812 617.3125 1468.871094 C 617.871094 1468.238281 618.472656 1467.605469 619.121094 1466.980469 C 619.765625 1466.359375 620.457031 1465.738281 621.195312 1465.125 C 621.929688 1464.511719 622.707031 1463.90625 623.527344 1463.304688 C 624.351562 1462.707031 625.214844 1462.113281 626.121094 1461.527344 C 627.023438 1460.941406 627.972656 1460.363281 628.960938 1459.796875 C 629.949219 1459.226562 630.976562 1458.667969 632.042969 1458.113281 C 633.109375 1457.5625 634.214844 1457.019531 635.359375 1456.488281 C 636.503906 1455.953125 637.6875 1455.429688 638.90625 1454.917969 C 640.125 1454.40625 641.378906 1453.902344 642.667969 1453.410156 C 643.960938 1452.917969 645.285156 1452.4375 646.640625 1451.96875 C 648 1451.5 649.390625 1451.042969 650.816406 1450.597656 C 652.238281 1450.152344 653.695312 1449.71875 655.179688 1449.296875 C 656.664062 1448.875 658.179688 1448.46875 659.722656 1448.074219 C 661.265625 1447.675781 662.835938 1447.296875 664.433594 1446.925781 C 666.03125 1446.558594 667.652344 1446.203125 669.300781 1445.863281 C 670.949219 1445.519531 672.621094 1445.191406 674.316406 1444.878906 C 676.007812 1444.566406 677.722656 1444.269531 679.460938 1443.984375 C 681.199219 1443.703125 682.953125 1443.433594 684.730469 1443.179688 C 686.503906 1442.925781 688.296875 1442.6875 690.105469 1442.460938 C 691.914062 1442.238281 693.738281 1442.03125 695.578125 1441.839844 C 697.414062 1441.644531 699.265625 1441.46875 701.128906 1441.308594 C 702.996094 1441.144531 704.867188 1441 706.753906 1440.871094 C 708.636719 1440.742188 710.53125 1440.628906 712.429688 1440.53125 C 714.332031 1440.433594 716.238281 1440.351562 718.148438 1440.289062 C 720.0625 1440.222656 721.976562 1440.171875 723.894531 1440.140625 C 725.816406 1440.109375 727.734375 1440.09375 729.65625 1440.09375 C 731.578125 1440.09375 733.496094 1440.109375 735.417969 1440.140625 C 737.335938 1440.171875 739.25 1440.222656 741.164062 1440.289062 C 743.074219 1440.351562 744.980469 1440.433594 746.882812 1440.53125 C 748.78125 1440.628906 750.675781 1440.742188 752.558594 1440.871094 C 754.445312 1441 756.316406 1441.144531 758.183594 1441.308594 C 760.046875 1441.46875 761.898438 1441.644531 763.734375 1441.839844 C 765.574219 1442.03125 767.398438 1442.238281 769.207031 1442.460938 C 771.015625 1442.6875 772.808594 1442.925781 774.582031 1443.179688 C 776.359375 1443.433594 778.113281 1443.703125 779.851562 1443.984375 C 781.585938 1444.269531 783.304688 1444.566406 784.996094 1444.878906 C 786.691406 1445.191406 788.363281 1445.519531 790.011719 1445.863281 C 791.660156 1446.203125 793.28125 1446.558594 794.878906 1446.925781 C 796.476562 1447.292969 798.046875 1447.675781 799.589844 1448.074219 C 801.132812 1448.46875 802.648438 1448.875 804.132812 1449.296875 C 805.617188 1449.71875 807.074219 1450.152344 808.496094 1450.597656 C 809.921875 1451.042969 811.3125 1451.5 812.671875 1451.96875 C 814.027344 1452.4375 815.351562 1452.917969 816.644531 1453.410156 C 817.933594 1453.902344 819.1875 1454.40625 820.40625 1454.917969 C 821.625 1455.429688 822.808594 1455.953125 823.953125 1456.488281 C 825.097656 1457.019531 826.203125 1457.5625 827.269531 1458.113281 C 828.335938 1458.667969 829.363281 1459.226562 830.351562 1459.796875 C 831.339844 1460.367188 832.289062 1460.941406 833.191406 1461.527344 C 834.097656 1462.113281 834.960938 1462.707031 835.785156 1463.304688 C 836.605469 1463.90625 837.382812 1464.511719 838.117188 1465.125 C 838.855469 1465.738281 839.546875 1466.359375 840.191406 1466.984375 C 840.839844 1467.605469 841.441406 1468.238281 842 1468.871094 C 842.558594 1469.507812 843.070312 1470.148438 843.539062 1470.789062 C 844.003906 1471.433594 844.425781 1472.082031 844.800781 1472.734375 C 845.175781 1473.382812 845.503906 1474.039062 845.785156 1474.695312 C 846.066406 1475.351562 846.300781 1476.007812 846.488281 1476.667969 C 846.679688 1477.328125 846.820312 1477.992188 846.914062 1478.652344 C 847.007812 1479.316406 847.054688 1479.980469 847.054688 1480.644531 Z M 847.054688 1480.644531 "/><path style=" stroke:none;fill-rule:nonzero;fill:rgb(63.919067%,71.759033%,74.899292%);fill-opacity:1;" d="M 729.65625 1440.09375 C 726.636719 1440.09375 723.640625 1440.128906 720.679688 1440.207031 C 781.320312 1441.792969 829.09375 1459.289062 829.09375 1480.636719 C 829.09375 1501.988281 781.320312 1519.480469 720.679688 1521.066406 C 723.640625 1521.144531 726.636719 1521.1875 729.65625 1521.1875 C 794.496094 1521.1875 847.054688 1503.03125 847.054688 1480.636719 C 847.054688 1458.242188 794.496094 1440.09375 729.65625 1440.09375 Z M 729.65625 1440.09375 "/><path style=" stroke:none;fill-rule:nonzero;fill:rgb(28.239441%,56.469727%,75.289917%);fill-opacity:1;" d="M 791.714844 1905.164062 C 806.097656 1752.214844 831.695312 1592.128906 930.21875 1471.800781 C 921.136719 1467.144531 912.257812 1463.21875 903.972656 1460.058594 C 864.117188 1510.410156 836.035156 1567.054688 815.734375 1627.03125 C 758.199219 1622.003906 700.796875 1626.757812 643.4375 1632.339844 C 626.382812 1568.894531 602.039062 1508.199219 562.347656 1453.648438 C 553.941406 1457.1875 545.480469 1461.28125 537.117188 1465.855469 C 631.859375 1590.882812 638.230469 1755.6875 666.085938 1905.164062 L 694.285156 1905.164062 C 678.65625 1824.222656 669.308594 1740.066406 650.28125 1659.480469 C 702.507812 1654.472656 754.769531 1650.445312 807.140625 1654.160156 C 783.160156 1735.050781 771.871094 1821.035156 763.925781 1905.164062 Z M 791.714844 1905.164062 "/><path style=" stroke:none;fill-rule:nonzero;fill:rgb(0%,19.999695%,25.099182%);fill-opacity:1;" d="M 791.449219 1345.558594 C 788.691406 1479.421875 797.890625 1491.59375 782.320312 1516.882812 C 766.46875 1519.667969 748.585938 1521.195312 729.675781 1521.195312 C 710.722656 1521.195312 692.839844 1519.667969 676.988281 1516.882812 C 671.195312 1507.472656 667.855469 1496.445312 667.855469 1484.582031 L 667.855469 1345.558594 Z M 791.449219 1345.558594 "/><path style=" stroke:none;fill-rule:nonzero;fill:rgb(36.468506%,50.979614%,58.039856%);fill-opacity:1;" d="M 791.4375 1446.152344 L 791.449219 1450.878906 C 867.558594 1475.226562 820.808594 1518.449219 720.679688 1521.066406 C 723.640625 1521.144531 726.636719 1521.1875 729.65625 1521.1875 C 846.203125 1521.1875 892.558594 1467.8125 791.4375 1446.152344 Z M 791.4375 1446.152344 "/><path style=" stroke:none;fill-rule:nonzero;fill:rgb(1.959229%,14.898682%,18.818665%);fill-opacity:1;" d="M 1009.433594 1551.765625 C 987.351562 1548.054688 960.746094 1596.890625 950.019531 1660.828125 C 939.289062 1724.769531 948.488281 1779.613281 970.578125 1783.320312 C 992.664062 1787.027344 1019.265625 1738.191406 1030 1674.253906 C 1040.722656 1610.3125 1031.523438 1555.476562 1009.433594 1551.765625 Z M 1009.433594 1551.765625 "/><path style=" stroke:none;fill-rule:nonzero;fill:rgb(36.468506%,50.979614%,58.039856%);fill-opacity:1;" d="M 1029.992188 1674.253906 C 1029.496094 1677.234375 1028.960938 1680.179688 1028.394531 1683.089844 C 1036.867188 1623.023438 1027.523438 1573.011719 1006.464844 1569.476562 C 985.410156 1565.941406 960.242188 1610.160156 948.640625 1669.703125 C 949.054688 1666.765625 949.515625 1663.8125 950.019531 1660.828125 C 960.753906 1596.890625 987.351562 1548.054688 1009.433594 1551.765625 C 1031.523438 1555.476562 1040.722656 1610.3125 1029.992188 1674.253906 Z M 1029.992188 1674.253906 "/><path style=" stroke:none;fill-rule:nonzero;fill:rgb(1.959229%,14.898682%,18.818665%);fill-opacity:1;" d="M 450.578125 1563.632812 C 472.660156 1559.925781 499.265625 1608.757812 510 1672.699219 C 520.738281 1736.640625 511.53125 1791.480469 489.441406 1795.1875 C 467.359375 1798.898438 440.753906 1750.070312 430.019531 1686.121094 C 419.289062 1622.175781 428.496094 1567.335938 450.578125 1563.632812 Z M 450.578125 1563.632812 "/><path style=" stroke:none;fill-rule:nonzero;fill:rgb(36.468506%,50.979614%,58.039856%);fill-opacity:1;" d="M 430.027344 1686.121094 C 430.53125 1689.105469 431.058594 1692.046875 431.625 1694.960938 C 423.152344 1634.894531 432.5 1584.878906 453.554688 1581.34375 C 474.609375 1577.808594 499.777344 1622.03125 511.378906 1681.574219 C 510.964844 1678.644531 510.503906 1675.679688 510.007812 1672.699219 C 499.28125 1608.757812 472.675781 1559.925781 450.585938 1563.632812 C 428.496094 1567.335938 419.289062 1622.175781 430.027344 1686.121094 Z M 430.027344 1686.121094 "/><path style=" stroke:none;fill-rule:nonzero;fill:rgb(0%,19.999695%,25.099182%);fill-opacity:1;" d="M 1147.121094 1758.046875 C 1033.203125 1758.046875 967.046875 1664.488281 963.914062 1659.949219 C 952.082031 1642.839844 956.371094 1619.378906 973.484375 1607.546875 C 990.550781 1595.761719 1013.933594 1599.980469 1025.789062 1616.976562 C 1028.457031 1620.742188 1086.703125 1700.847656 1180.738281 1678.648438 C 1214.53125 1670.679688 1252.121094 1618.226562 1283.886719 1534.742188 C 1291.28125 1515.296875 1313.015625 1505.53125 1332.484375 1512.925781 C 1351.929688 1520.324219 1361.695312 1542.078125 1354.292969 1561.523438 C 1311.695312 1673.488281 1259.128906 1737.5625 1198.035156 1751.972656 C 1180.148438 1756.183594 1163.15625 1758.046875 1147.121094 1758.046875 Z M 1147.121094 1758.046875 "/><path style=" stroke:none;fill-rule:nonzero;fill:rgb(63.529968%,74.899292%,86.268616%);fill-opacity:1;" d="M 1389.957031 1443.441406 C 1389.957031 1443.441406 1355.332031 1675.464844 1308.511719 1719.304688 C 1261.691406 1763.140625 1155.5625 1682.3125 1162.691406 1651.074219 C 1168.546875 1625.414062 1332.160156 1410.640625 1332.160156 1410.640625 Z M 1389.957031 1443.441406 "/><path style=" stroke:none;fill-rule:nonzero;fill:rgb(28.239441%,56.469727%,75.289917%);fill-opacity:1;" d="M 1294.84375 1557.339844 L 1357.34375 1424.933594 L 1349.265625 1420.347656 L 1211.9375 1711.261719 C 1214.5625 1712.894531 1217.246094 1714.472656 1219.964844 1715.972656 L 1290.863281 1565.773438 C 1316.378906 1581.273438 1341.621094 1585.140625 1360.421875 1585.140625 C 1360.957031 1585.140625 1361.484375 1585.136719 1362.015625 1585.128906 C 1362.785156 1581.96875 1363.550781 1578.816406 1364.296875 1575.660156 C 1346.257812 1576.160156 1320.46875 1573.152344 1294.84375 1557.339844 Z M 1294.84375 1557.339844 "/><path style=" stroke:none;fill-rule:nonzero;fill:rgb(0%,19.999695%,25.099182%);fill-opacity:1;" d="M 1280.542969 1304.402344 C 1273.035156 1305.28125 1269.84375 1314.589844 1274.730469 1320.355469 C 1282.21875 1329.191406 1293.347656 1343.703125 1298.132812 1356.90625 C 1305.664062 1377.6875 1312.847656 1423.796875 1335.101562 1434.210938 C 1357.351562 1444.628906 1382.304688 1450.140625 1403.503906 1432.945312 C 1424.707031 1415.742188 1433.515625 1376.71875 1444.40625 1372.777344 C 1455.292969 1368.832031 1492.609375 1324.234375 1483.011719 1313.996094 C 1476.398438 1306.929688 1436.691406 1357.65625 1427.921875 1353.554688 C 1419.15625 1349.453125 1460.695312 1287.925781 1456.746094 1277.042969 C 1452.800781 1266.15625 1442.4375 1264.59375 1436.59375 1277.070312 C 1430.757812 1289.542969 1406.785156 1334.621094 1401.726562 1332.257812 C 1396.667969 1329.886719 1420.203125 1261.160156 1420.117188 1251.6875 C 1420.042969 1242.203125 1406.28125 1238.226562 1402.816406 1245.640625 C 1399.347656 1253.058594 1378.898438 1318.691406 1373.457031 1320.667969 C 1368.011719 1322.636719 1371.257812 1251.261719 1371.609375 1242.945312 C 1371.945312 1234.765625 1357.414062 1228.496094 1350.4375 1235.5 C 1343.457031 1242.507812 1352.3125 1327.203125 1343.488281 1333.757812 C 1334.664062 1340.316406 1326.292969 1345.03125 1320.011719 1333.867188 C 1315.066406 1325.0625 1297.445312 1302.421875 1280.542969 1304.402344 Z M 1280.542969 1304.402344 "/><path style=" stroke:none;fill-rule:nonzero;fill:rgb(0%,19.999695%,25.099182%);fill-opacity:1;" d="M 300.132812 2116.417969 C 266.027344 1905.042969 366.992188 1703.203125 424.972656 1641.714844 C 439.238281 1626.578125 463.078125 1625.867188 478.214844 1640.125 C 493.316406 1654.351562 494.066406 1678.089844 479.925781 1693.238281 C 478.789062 1694.480469 412.539062 1768.0625 378.765625 1922.066406 C 365.890625 1980.789062 364.457031 2042.136719 374.503906 2104.414062 C 377.816406 2124.953125 363.855469 2144.289062 343.316406 2147.601562 C 322.769531 2150.914062 303.445312 2136.945312 300.132812 2116.417969 Z M 300.132812 2116.417969 "/><path style=" stroke:none;fill-rule:nonzero;fill:rgb(63.529968%,74.899292%,86.268616%);fill-opacity:1;" d="M 305.382812 2168.21875 C 305.382812 2168.21875 228.082031 1946.730469 249.125 1886.148438 C 270.175781 1825.554688 401.71875 1847.730469 409.949219 1878.695312 C 416.703125 1904.128906 371.808594 2170.367188 371.808594 2170.367188 Z M 305.382812 2168.21875 "/><path style=" stroke:none;fill-rule:nonzero;fill:rgb(28.239441%,56.469727%,75.289917%);fill-opacity:1;" d="M 336.589844 2023.152344 L 342.863281 2169.429688 L 352.152344 2169.730469 L 338.359375 1848.328125 C 335.277344 1848.105469 332.171875 1847.953125 329.0625 1847.894531 L 336.1875 2013.832031 C 306.390625 2011.984375 282.25 2020.308594 265.601562 2029.058594 C 265.125 2029.304688 264.660156 2029.554688 264.195312 2029.808594 C 264.976562 2032.960938 265.773438 2036.109375 266.578125 2039.25 C 282.320312 2030.414062 306.542969 2021.082031 336.589844 2023.152344 Z M 336.589844 2023.152344 "/><path style=" stroke:none;fill-rule:nonzero;fill:rgb(0%,19.999695%,25.099182%);fill-opacity:1;" d="M 293.5 2174.808594 C 293.5 2174.808594 310.207031 2140.746094 356.492188 2151.203125 C 402.769531 2161.664062 388.691406 2208.027344 401.957031 2229.042969 C 415.21875 2250.054688 429.320312 2279.367188 419.863281 2285.339844 C 410.410156 2291.308594 375.355469 2259.066406 368.0625 2247.507812 C 360.761719 2235.949219 338.714844 2297.628906 334.652344 2315.625 C 330.585938 2333.625 360.792969 2387.300781 349.234375 2394.59375 C 337.679688 2401.898438 289.386719 2326.566406 283.085938 2316.589844 C 276.777344 2306.605469 289.628906 2191.945312 293.5 2174.808594 Z M 293.5 2174.808594 "/><path style=" stroke:none;fill-rule:nonzero;fill:rgb(0%,19.999695%,25.099182%);fill-opacity:1;" d="M 1359.128906 982.5625 C 1359.128906 987.296875 1358.871094 992.027344 1358.351562 996.757812 C 1357.835938 1001.484375 1357.058594 1006.207031 1356.027344 1010.917969 C 1354.992188 1015.628906 1353.703125 1020.324219 1352.15625 1025.007812 C 1350.609375 1029.691406 1348.808594 1034.355469 1346.75 1039 C 1344.695312 1043.640625 1342.386719 1048.257812 1339.824219 1052.851562 C 1337.261719 1057.445312 1334.453125 1062.007812 1331.390625 1066.535156 C 1328.332031 1071.066406 1325.027344 1075.5625 1321.472656 1080.019531 C 1317.921875 1084.476562 1314.128906 1088.890625 1310.097656 1093.265625 C 1306.0625 1097.640625 1301.792969 1101.964844 1297.285156 1106.246094 C 1292.777344 1110.527344 1288.039062 1114.753906 1283.070312 1118.929688 C 1278.101562 1123.105469 1272.90625 1127.222656 1267.484375 1131.285156 C 1262.066406 1135.34375 1256.429688 1139.34375 1250.570312 1143.277344 C 1244.714844 1147.214844 1238.648438 1151.085938 1232.367188 1154.886719 C 1226.085938 1158.691406 1219.601562 1162.421875 1212.914062 1166.082031 C 1206.226562 1169.742188 1199.34375 1173.324219 1192.265625 1176.832031 C 1185.1875 1180.339844 1177.917969 1183.769531 1170.464844 1187.117188 C 1163.011719 1190.464844 1155.378906 1193.726562 1147.566406 1196.90625 C 1139.757812 1200.085938 1131.777344 1203.175781 1123.628906 1206.179688 C 1115.476562 1209.183594 1107.171875 1212.097656 1098.703125 1214.917969 C 1090.234375 1217.738281 1081.621094 1220.460938 1072.855469 1223.09375 C 1064.089844 1225.722656 1055.183594 1228.253906 1046.144531 1230.6875 C 1037.101562 1233.121094 1027.933594 1235.457031 1018.636719 1237.6875 C 1009.339844 1239.917969 999.925781 1242.046875 990.394531 1244.070312 C 980.863281 1246.09375 971.230469 1248.011719 961.492188 1249.824219 C 951.75 1251.636719 941.917969 1253.339844 931.992188 1254.933594 C 922.066406 1256.53125 912.0625 1258.015625 901.972656 1259.390625 C 891.886719 1260.761719 881.730469 1262.027344 871.503906 1263.175781 C 861.277344 1264.328125 850.996094 1265.363281 840.65625 1266.285156 C 830.316406 1267.210938 819.933594 1268.019531 809.503906 1268.714844 C 799.078125 1269.410156 788.617188 1269.988281 778.125 1270.453125 C 767.636719 1270.917969 757.125 1271.265625 746.597656 1271.496094 C 736.066406 1271.730469 725.53125 1271.84375 714.992188 1271.84375 C 704.449219 1271.84375 693.914062 1271.730469 683.382812 1271.496094 C 672.855469 1271.265625 662.34375 1270.917969 651.855469 1270.453125 C 641.363281 1269.988281 630.902344 1269.410156 620.476562 1268.714844 C 610.046875 1268.019531 599.664062 1267.210938 589.324219 1266.285156 C 578.984375 1265.363281 568.703125 1264.328125 558.476562 1263.175781 C 548.25 1262.027344 538.09375 1260.761719 528.007812 1259.390625 C 517.917969 1258.015625 507.914062 1256.53125 497.988281 1254.933594 C 488.0625 1253.339844 478.230469 1251.636719 468.488281 1249.824219 C 458.75 1248.011719 449.117188 1246.09375 439.585938 1244.070312 C 430.054688 1242.046875 420.644531 1239.917969 411.347656 1237.6875 C 402.046875 1235.457031 392.878906 1233.121094 383.835938 1230.6875 C 374.796875 1228.253906 365.890625 1225.722656 357.125 1223.09375 C 348.359375 1220.460938 339.746094 1217.738281 331.277344 1214.917969 C 322.808594 1212.097656 314.503906 1209.183594 306.351562 1206.179688 C 298.203125 1203.175781 290.222656 1200.085938 282.414062 1196.90625 C 274.601562 1193.726562 266.96875 1190.464844 259.515625 1187.117188 C 252.0625 1183.769531 244.792969 1180.339844 237.714844 1176.832031 C 230.636719 1173.324219 223.753906 1169.742188 217.066406 1166.082031 C 210.378906 1162.421875 203.894531 1158.691406 197.613281 1154.886719 C 191.332031 1151.085938 185.265625 1147.214844 179.410156 1143.277344 C 173.550781 1139.34375 167.914062 1135.34375 162.496094 1131.285156 C 157.074219 1127.222656 151.878906 1123.105469 146.910156 1118.929688 C 141.941406 1114.753906 137.203125 1110.527344 132.695312 1106.246094 C 128.1875 1101.964844 123.917969 1097.640625 119.882812 1093.265625 C 115.851562 1088.890625 112.058594 1084.476562 108.503906 1080.019531 C 104.953125 1075.5625 101.648438 1071.066406 98.589844 1066.535156 C 95.527344 1062.007812 92.71875 1057.445312 90.15625 1052.851562 C 87.59375 1048.257812 85.285156 1043.640625 83.230469 1039 C 81.171875 1034.355469 79.371094 1029.691406 77.824219 1025.007812 C 76.277344 1020.324219 74.988281 1015.628906 73.953125 1010.917969 C 72.921875 1006.207031 72.144531 1001.484375 71.628906 996.757812 C 71.109375 992.027344 70.851562 987.296875 70.851562 982.5625 C 70.851562 977.828125 71.109375 973.097656 71.628906 968.367188 C 72.144531 963.640625 72.921875 958.917969 73.953125 954.207031 C 74.988281 949.496094 76.277344 944.796875 77.824219 940.113281 C 79.371094 935.433594 81.171875 930.769531 83.230469 926.125 C 85.285156 921.480469 87.59375 916.863281 90.15625 912.273438 C 92.71875 907.679688 95.527344 903.117188 98.589844 898.585938 C 101.648438 894.058594 104.953125 889.5625 108.503906 885.105469 C 112.058594 880.648438 115.851562 876.230469 119.882812 871.859375 C 123.917969 867.484375 128.1875 863.15625 132.695312 858.878906 C 137.203125 854.597656 141.941406 850.371094 146.910156 846.195312 C 151.878906 842.019531 157.074219 837.902344 162.496094 833.839844 C 167.914062 829.78125 173.550781 825.78125 179.410156 821.84375 C 185.265625 817.90625 191.332031 814.039062 197.613281 810.234375 C 203.894531 806.433594 210.378906 802.703125 217.066406 799.042969 C 223.753906 795.382812 230.636719 791.796875 237.714844 788.289062 C 244.792969 784.78125 252.0625 781.355469 259.515625 778.007812 C 266.96875 774.660156 274.601562 771.394531 282.414062 768.21875 C 290.222656 765.039062 298.203125 761.945312 306.351562 758.941406 C 314.503906 755.9375 322.808594 753.027344 331.277344 750.207031 C 339.746094 747.386719 348.359375 744.660156 357.125 742.03125 C 365.890625 739.402344 374.796875 736.867188 383.835938 734.433594 C 392.878906 732 402.046875 729.667969 411.34375 727.4375 C 420.644531 725.203125 430.054688 723.078125 439.585938 721.050781 C 449.117188 719.027344 458.75 717.109375 468.488281 715.296875 C 478.230469 713.488281 488.0625 711.785156 497.988281 710.1875 C 507.914062 708.59375 517.917969 707.109375 528.007812 705.734375 C 538.09375 704.359375 548.25 703.097656 558.476562 701.949219 C 568.703125 700.796875 578.984375 699.761719 589.324219 698.835938 C 599.664062 697.914062 610.046875 697.105469 620.476562 696.410156 C 630.902344 695.714844 641.363281 695.136719 651.855469 694.671875 C 662.34375 694.207031 672.855469 693.859375 683.382812 693.625 C 693.914062 693.394531 704.449219 693.277344 714.992188 693.277344 C 725.53125 693.277344 736.066406 693.394531 746.597656 693.625 C 757.125 693.859375 767.636719 694.207031 778.125 694.671875 C 788.617188 695.136719 799.078125 695.714844 809.503906 696.410156 C 819.933594 697.105469 830.316406 697.914062 840.65625 698.835938 C 850.996094 699.761719 861.277344 700.796875 871.503906 701.949219 C 881.730469 703.097656 891.886719 704.359375 901.972656 705.734375 C 912.0625 707.109375 922.066406 708.59375 931.992188 710.1875 C 941.917969 711.785156 951.75 713.488281 961.492188 715.296875 C 971.230469 717.109375 980.863281 719.027344 990.394531 721.050781 C 999.925781 723.078125 1009.339844 725.203125 1018.636719 727.4375 C 1027.933594 729.667969 1037.101562 732 1046.144531 734.433594 C 1055.183594 736.867188 1064.089844 739.402344 1072.855469 742.03125 C 1081.621094 744.660156 1090.234375 747.386719 1098.703125 750.207031 C 1107.171875 753.027344 1115.476562 755.9375 1123.628906 758.941406 C 1131.777344 761.945312 1139.757812 765.039062 1147.566406 768.21875 C 1155.378906 771.394531 1163.011719 774.660156 1170.464844 778.007812 C 1177.917969 781.355469 1185.1875 784.78125 1192.265625 788.289062 C 1199.34375 791.796875 1206.226562 795.382812 1212.914062 799.042969 C 1219.601562 802.703125 1226.085938 806.433594 1232.367188 810.234375 C 1238.648438 814.039062 1244.714844 817.90625 1250.570312 821.84375 C 1256.429688 825.78125 1262.066406 829.78125 1267.484375 833.839844 C 1272.90625 837.902344 1278.101562 842.019531 1283.070312 846.195312 C 1288.039062 850.371094 1292.777344 854.597656 1297.285156 858.878906 C 1301.792969 863.15625 1306.0625 867.484375 1310.097656 871.859375 C 1314.128906 876.230469 1317.921875 880.648438 1321.472656 885.105469 C 1325.027344 889.5625 1328.332031 894.058594 1331.390625 898.585938 C 1334.453125 903.117188 1337.261719 907.679688 1339.824219 912.273438 C 1342.386719 916.863281 1344.695312 921.480469 1346.75 926.125 C 1348.808594 930.769531 1350.609375 935.433594 1352.15625 940.113281 C 1353.703125 944.796875 1354.992188 949.496094 1356.027344 954.207031 C 1357.058594 958.917969 1357.835938 963.640625 1358.351562 968.367188 C 1358.871094 973.097656 1359.128906 977.828125 1359.128906 982.5625 Z M 1359.128906 982.5625 "/><path style=" stroke:none;fill-rule:nonzero;fill:rgb(63.529968%,74.899292%,86.268616%);fill-opacity:1;" d="M 146.050781 1118.324219 C 157.472656 1127.960938 170.082031 1137.269531 183.777344 1146.222656 C 150.40625 1050.230469 135.953125 943.652344 139.449219 852.523438 C 128.925781 861.902344 119.5 871.566406 111.265625 881.492188 C 111.550781 956.625 122.949219 1039.601562 146.050781 1118.324219 Z M 146.050781 1118.324219 "/><path style=" stroke:none;fill-rule:nonzero;fill:rgb(63.529968%,74.899292%,86.268616%);fill-opacity:1;" d="M 1318.542969 881.28125 C 1310.261719 871.328125 1300.796875 861.640625 1290.226562 852.25 C 1295.632812 944.238281 1277.191406 1052.65625 1240.417969 1149.949219 C 1254.679688 1140.933594 1267.820312 1131.535156 1279.75 1121.800781 C 1305.507812 1041.5625 1318.933594 957.171875 1318.542969 881.28125 Z M 1318.542969 881.28125 "/><path style=" stroke:none;fill-rule:nonzero;fill:rgb(63.529968%,74.899292%,86.268616%);fill-opacity:1;" d="M 890.058594 1392.328125 C 770.757812 1375.777344 649.707031 1373.234375 529.421875 1384.925781 C 252.769531 1411.804688 154.320312 997.433594 193.769531 788.882812 C 213.882812 682.535156 332.402344 606.332031 432.472656 582.664062 C 613.832031 539.769531 807.582031 537.066406 989.875 575.332031 C 1087.691406 596.164062 1184.445312 662.519531 1222.53125 757.886719 C 1302.09375 957.121094 1160.300781 1429.820312 890.058594 1392.328125 Z M 890.058594 1392.328125 "/><path style=" stroke:none;fill-rule:nonzero;fill:rgb(63.919067%,71.759033%,74.899292%);fill-opacity:0.4588;" d="M 1222.539062 757.875 C 1203.714844 710.734375 1170.550781 670.6875 1130.011719 639.71875 C 1143.628906 657.855469 1154.980469 677.597656 1163.441406 698.777344 C 1242.996094 898.019531 1101.203125 1370.722656 830.960938 1333.230469 C 711.65625 1316.679688 590.609375 1314.128906 470.324219 1325.820312 C 404.695312 1332.199219 349.09375 1313.742188 302.980469 1279.089844 C 357.855469 1349.832031 432.757812 1394.308594 529.425781 1384.925781 C 649.710938 1373.234375 770.761719 1375.777344 890.066406 1392.328125 C 1160.300781 1429.820312 1302.09375 957.121094 1222.539062 757.875 Z M 1222.539062 757.875 "/><path style=" stroke:none;fill-rule:nonzero;fill:rgb(0%,19.999695%,25.099182%);fill-opacity:1;" d="M 979.292969 1197.96875 C 933.199219 1215.875 883.847656 1226.859375 838.390625 1233.085938 C 693.671875 1252.910156 519.890625 1242.53125 393.0625 1163.953125 C 336.105469 1128.664062 291.863281 1075.953125 281.152344 1008.339844 C 280.292969 1002.898438 279.425781 997.457031 278.566406 992.023438 C 258.101562 862.8125 352.507812 744.226562 482.929688 734.089844 C 640.226562 721.863281 798.234375 721.863281 955.523438 734.089844 C 1085.949219 744.226562 1180.355469 862.816406 1159.894531 992.023438 C 1159.078125 997.144531 1158.269531 1002.273438 1157.460938 1007.402344 C 1141.925781 1105.484375 1066.429688 1164.105469 979.292969 1197.96875 Z M 979.292969 1197.96875 "/><path style=" stroke:none;fill-rule:nonzero;fill:rgb(16.468811%,77.249146%,43.919373%);fill-opacity:1;" d="M 841.265625 1103.835938 C 841.265625 1128.777344 789.390625 1172.207031 725.414062 1172.207031 C 661.429688 1172.207031 609.5625 1128.785156 609.5625 1103.835938 C 609.5625 1078.890625 661.429688 1081.84375 725.414062 1081.84375 C 789.398438 1081.84375 841.265625 1078.890625 841.265625 1103.835938 Z M 841.265625 1103.835938 "/><path style=" stroke:none;fill-rule:nonzero;fill:rgb(16.468811%,77.249146%,43.919373%);fill-opacity:1;" d="M 558.585938 946.101562 C 558.585938 966.679688 541.90625 983.359375 521.328125 983.359375 C 500.75 983.359375 484.070312 966.679688 484.070312 946.101562 C 484.070312 925.523438 500.75 908.84375 521.328125 908.84375 C 541.90625 908.84375 558.585938 925.523438 558.585938 946.101562 Z M 558.585938 946.101562 "/><path style=" stroke:none;fill-rule:nonzero;fill:rgb(16.468811%,77.249146%,43.919373%);fill-opacity:1;" d="M 945.53125 934.179688 C 945.53125 954.757812 928.851562 971.4375 908.273438 971.4375 C 887.695312 971.4375 871.015625 954.757812 871.015625 934.179688 C 871.015625 913.601562 887.695312 896.921875 908.273438 896.921875 C 928.851562 896.921875 945.53125 913.601562 945.53125 934.179688 Z M 945.53125 934.179688 "/><path style=" stroke:none;fill-rule:nonzero;fill:rgb(0.389099%,0.389099%,0.389099%);fill-opacity:1;" d="M 702.265625 581.515625 L 715.226562 581.765625 L 716.390625 521.980469 L 775.566406 503.582031 L 692.488281 478.191406 L 717.507812 464.996094 L 718.75 401.441406 L 705.789062 401.191406 L 704.699219 457.105469 L 658.644531 481.394531 L 731.585938 503.6875 L 703.617188 512.386719 Z M 702.265625 581.515625 "/><path style=" stroke:none;fill-rule:nonzero;fill:rgb(0.389099%,0.389099%,0.389099%);fill-opacity:1;" d="M 684.753906 372.699219 C 684.453125 388.199219 696.769531 401.011719 712.277344 401.320312 C 727.777344 401.625 740.589844 389.304688 740.886719 373.800781 C 741.195312 358.300781 728.871094 345.488281 713.371094 345.191406 C 697.863281 344.878906 685.050781 357.199219 684.753906 372.699219 Z M 684.753906 372.699219 "/><path style=" stroke:none;fill-rule:nonzero;fill:rgb(11.759949%,9.799194%,10.5896%);fill-opacity:1;" d="M 643.875 599.34375 C 643.511719 617.902344 675.054688 633.570312 714.332031 634.332031 C 753.605469 635.097656 785.742188 620.679688 786.105469 602.121094 C 786.46875 583.5625 754.925781 567.894531 715.644531 567.132812 C 676.375 566.367188 644.238281 580.792969 643.875 599.34375 Z M 643.875 599.34375 "/><g clip-rule="nonzero" clip-path="url(#clip1)"><path style=" stroke:none;fill-rule:nonzero;fill:rgb(0.389099%,25.099182%,31.369019%);fill-opacity:1;" d="M 2958.117188 831.816406 C 2958.117188 672.4375 2969.507812 490.304688 2927.761719 338.527344 C 2912.578125 277.816406 2882.210938 251.246094 2821.484375 232.273438 C 2624.113281 171.566406 2419.164062 175.359375 2214.222656 175.359375 C 2047.207031 175.359375 1872.628906 182.957031 1709.414062 213.304688 C 1565.199219 239.871094 1439.945312 251.246094 1417.183594 422 C 1401.984375 524.457031 1409.582031 634.484375 1409.582031 736.949219 C 1409.582031 782.464844 1401.984375 835.613281 1417.183594 877.332031 C 1447.546875 994.988281 1550 991.191406 1652.488281 994.988281 C 1823.300781 998.753906 1990.28125 1006.351562 2161.0625 1006.351562 C 2343.273438 1010.152344 2525.417969 1017.746094 2711.398438 991.191406 C 2829.078125 975.996094 2920.15625 979.792969 2954.316406 862.171875 L 2958.109375 831.816406 "/></g><path style=" stroke:none;fill-rule:nonzero;fill:rgb(0.389099%,25.099182%,31.369019%);fill-opacity:1;" d="M 2783.53125 953.238281 C 2783.53125 953.238281 2753.175781 1082.226562 2662.082031 1120.210938 C 2673.460938 1044.304688 2662.082031 919.082031 2662.082031 919.082031 L 2783.53125 953.238281 "/><g clip-rule="nonzero" clip-path="url(#clip2)"><path style=" stroke:none;fill-rule:nonzero;fill:rgb(0.389099%,25.099182%,31.369019%);fill-opacity:1;" d="M 2791.359375 955.378906 C 2775.121094 1023.558594 2732.625 1098.359375 2666.183594 1127.191406 C 2659.292969 1130.175781 2653.191406 1125.40625 2654.246094 1118.035156 C 2663.59375 1052.875 2659.851562 984.46875 2653.964844 919.082031 C 2653.484375 913.757812 2659.496094 909.925781 2664.238281 911.257812 C 2704.71875 922.621094 2745.210938 934.015625 2785.6875 945.414062 C 2795.757812 948.238281 2791.472656 963.886719 2781.375 961.0625 C 2740.886719 949.667969 2700.40625 938.304688 2659.914062 926.90625 C 2663.339844 924.308594 2666.78125 921.679688 2670.203125 919.082031 C 2676.242188 986.09375 2679.488281 1055.601562 2669.910156 1122.351562 C 2665.929688 1119.300781 2661.957031 1116.25 2657.988281 1113.199219 C 2720.855469 1085.894531 2760.332031 1015.570312 2775.707031 951.0625 C 2778.128906 940.898438 2793.792969 945.21875 2791.359375 955.378906 "/></g><path style=" stroke:none;fill-rule:nonzero;fill:rgb(0.389099%,25.099182%,31.369019%);fill-opacity:1;" d="M 2636.84375 1039.109375 C 2636.84375 1039.109375 2632.039062 1039.238281 2623.628906 1039.433594 C 2619.4375 1039.566406 2614.375 1039.726562 2608.558594 1039.890625 C 2602.714844 1040.019531 2596.15625 1040.179688 2589.011719 1040.507812 C 2581.867188 1040.667969 2574.105469 1040.894531 2565.921875 1041.089844 C 2557.738281 1041.316406 2549.101562 1041.707031 2540.171875 1041.804688 C 2531.238281 1042.066406 2522.015625 1042.097656 2512.664062 1042.488281 C 2503.28125 1042.972656 2493.765625 1042.84375 2484.25 1042.972656 C 2474.734375 1043.167969 2465.21875 1043.394531 2455.835938 1043.621094 C 2446.449219 1043.6875 2437.226562 1043.71875 2428.328125 1043.785156 C 2419.398438 1043.785156 2410.761719 1044.011719 2402.546875 1044.207031 C 2394.363281 1044.46875 2386.601562 1044.304688 2379.457031 1044.371094 C 2365.136719 1044.335938 2353.183594 1044.597656 2344.773438 1044.890625 C 2336.394531 1045.148438 2331.589844 1045.441406 2331.589844 1045.441406 C 2331.589844 1045.441406 2336.300781 1046.285156 2344.613281 1047.453125 C 2352.925781 1048.65625 2364.8125 1050.246094 2379.132812 1051.804688 C 2386.277344 1052.582031 2394.039062 1053.589844 2402.253906 1053.882812 C 2410.5 1054.371094 2419.171875 1054.921875 2428.136719 1055.214844 C 2432.648438 1055.40625 2437.226562 1055.601562 2441.839844 1055.796875 C 2446.449219 1055.960938 2451.160156 1056.285156 2455.867188 1056.15625 C 2465.316406 1056.089844 2474.898438 1055.992188 2484.476562 1055.925781 C 2494.089844 1055.667969 2503.667969 1055.636719 2513.085938 1054.984375 C 2522.535156 1054.5625 2531.824219 1053.785156 2540.789062 1053.199219 C 2549.75 1052.777344 2558.386719 1051.578125 2566.605469 1050.734375 C 2574.789062 1049.824219 2582.515625 1048.980469 2589.660156 1047.910156 C 2596.773438 1046.871094 2603.300781 1045.765625 2609.046875 1044.824219 C 2614.828125 1043.949219 2619.828125 1042.8125 2623.953125 1042 C 2632.203125 1040.375 2636.84375 1039.109375 2636.84375 1039.109375 "/><g clip-rule="nonzero" clip-path="url(#clip3)"><path style=" stroke:none;fill-rule:nonzero;fill:rgb(0.389099%,25.099182%,31.369019%);fill-opacity:1;" d="M 1893.191406 152.632812 C 1893.191406 152.632812 1890.820312 152.378906 1886.371094 151.910156 C 1881.921875 151.492188 1875.429688 150.832031 1867.117188 150.324219 C 1850.488281 149.257812 1826.652344 148.21875 1798.074219 148.714844 C 1783.753906 148.941406 1768.265625 149.449219 1751.898438 150.589844 C 1735.53125 151.71875 1718.289062 153.230469 1700.492188 155.585938 C 1682.730469 157.933594 1664.378906 160.75 1645.9375 164.667969 C 1627.457031 168.546875 1608.816406 173.152344 1590.46875 178.808594 C 1572.121094 184.578125 1554.035156 191.25 1536.726562 199.035156 C 1519.386719 206.796875 1502.984375 215.941406 1487.820312 225.90625 C 1472.6875 235.890625 1459.082031 247.1875 1447.359375 259.023438 C 1435.570312 270.816406 1425.828125 283.347656 1418.195312 295.699219 C 1410.5 308.015625 1405.011719 320.1875 1400.984375 331.195312 C 1400.042969 333.960938 1399.101562 336.636719 1398.226562 339.222656 C 1397.476562 341.859375 1396.796875 344.398438 1396.113281 346.84375 C 1395.757812 348.0625 1395.464844 349.253906 1395.105469 350.421875 C 1394.878906 351.601562 1394.621094 352.769531 1394.394531 353.894531 C 1393.90625 356.167969 1393.449219 358.324219 1393.027344 360.367188 C 1391.535156 368.609375 1390.722656 375.113281 1390.429688 379.578125 C 1390.042969 384.015625 1389.847656 386.386719 1389.847656 386.386719 C 1389.847656 386.386719 1390.300781 384.054688 1391.113281 379.679688 C 1391.828125 375.277344 1393.417969 368.9375 1395.53125 360.960938 C 1396.113281 358.984375 1396.761719 356.902344 1397.414062 354.71875 C 1397.738281 353.628906 1398.09375 352.515625 1398.417969 351.371094 C 1398.839844 350.253906 1399.265625 349.117188 1399.6875 347.949219 C 1400.5625 345.617188 1401.441406 343.195312 1402.347656 340.679688 C 1403.386719 338.21875 1404.492188 335.671875 1405.597656 333.046875 C 1410.304688 322.625 1416.441406 311.269531 1424.429688 299.792969 C 1432.453125 288.355469 1442.421875 276.890625 1454.078125 265.96875 C 1465.804688 255.089844 1479.28125 244.855469 1494.054688 235.511719 C 1508.832031 226.175781 1525.035156 218.007812 1541.824219 210.5 C 1558.679688 203.066406 1576.375 196.726562 1594.300781 191.199219 C 1612.195312 185.542969 1630.445312 180.875 1648.566406 176.917969 C 1666.6875 173.011719 1684.613281 169.523438 1702.117188 166.886719 C 1719.617188 164.25 1736.570312 161.953125 1752.742188 160.214844 C 1768.914062 158.542969 1784.210938 157.160156 1798.402344 156.132812 C 1826.71875 154.117188 1850.425781 153.277344 1867.050781 152.898438 C 1883.675781 152.519531 1893.191406 152.632812 1893.191406 152.632812 "/></g><g style="fill:rgb(94.509888%,100%,96.859741%);fill-opacity:1;"><g transform="translate(2032.701711, 483.976981)"><path style="stroke:none;" d="M 24.84375 -34.375 L 24.84375 0 L 9.109375 0 L 9.109375 -78.40625 L 24.84375 -78.40625 L 24.84375 -46.71875 L 56.265625 -46.71875 L 56.265625 -78.40625 L 72 -78.40625 L 72 0 L 56.265625 0 L 56.265625 -34.375 Z M 24.84375 -34.375 "/></g></g><g style="fill:rgb(94.509888%,100%,96.859741%);fill-opacity:1;"><g transform="translate(2113.793272, 483.976981)"><path style="stroke:none;" d="M 34.375 1.375 C 28.019531 1.375 22.566406 0.195312 18.015625 -2.15625 C 13.460938 -4.519531 10 -7.945312 7.625 -12.4375 C 5.25 -16.9375 4.0625 -22.332031 4.0625 -28.625 C 4.0625 -34.21875 5.046875 -39.328125 7.015625 -43.953125 C 8.992188 -48.578125 11.992188 -52.269531 16.015625 -55.03125 C 20.035156 -57.789062 24.988281 -59.171875 30.875 -59.171875 C 40.488281 -59.171875 47.476562 -56.269531 51.84375 -50.46875 C 56.207031 -44.675781 58.390625 -35.929688 58.390625 -24.234375 L 18.421875 -24.234375 C 18.753906 -19.660156 20.390625 -16.085938 23.328125 -13.515625 C 26.273438 -10.941406 30.175781 -9.65625 35.03125 -9.65625 C 38.363281 -9.65625 41.570312 -10.175781 44.65625 -11.21875 C 47.75 -12.257812 50.90625 -13.691406 54.125 -15.515625 L 54.125 -3.234375 C 51.34375 -1.703125 48.332031 -0.550781 45.09375 0.21875 C 41.863281 0.988281 38.289062 1.375 34.375 1.375 Z M 31.6875 -48.203125 C 27.882812 -48.203125 24.8125 -47.007812 22.46875 -44.625 C 20.132812 -42.25 18.785156 -38.90625 18.421875 -34.59375 L 44.03125 -34.59375 C 43.738281 -38.875 42.554688 -42.210938 40.484375 -44.609375 C 38.421875 -47.003906 35.488281 -48.203125 31.6875 -48.203125 Z M 31.6875 -48.203125 "/></g></g><g style="fill:rgb(94.509888%,100%,96.859741%);fill-opacity:1;"><g transform="translate(2176.243095, 483.976981)"><path style="stroke:none;" d="M 23.140625 -84.21875 L 23.140625 0 L 8.0625 0 L 8.0625 -84.21875 Z M 23.140625 -84.21875 "/></g></g><g style="fill:rgb(94.509888%,100%,96.859741%);fill-opacity:1;"><g transform="translate(2207.440591, 483.976981)"><path style="stroke:none;" d="M 23.140625 -84.21875 L 23.140625 0 L 8.0625 0 L 8.0625 -84.21875 Z M 23.140625 -84.21875 "/></g></g><g style="fill:rgb(94.509888%,100%,96.859741%);fill-opacity:1;"><g transform="translate(2238.638088, 483.976981)"><path style="stroke:none;" d="M 34.265625 1.375 C 28.203125 1.375 22.882812 0.0859375 18.3125 -2.484375 C 13.738281 -5.066406 10.21875 -8.625 7.75 -13.15625 C 5.289062 -17.6875 4.0625 -22.804688 4.0625 -28.515625 C 4.0625 -34.578125 5.335938 -39.929688 7.890625 -44.578125 C 10.453125 -49.222656 14.023438 -52.816406 18.609375 -55.359375 C 23.203125 -57.898438 28.421875 -59.171875 34.265625 -59.171875 C 40.117188 -59.171875 45.335938 -57.90625 49.921875 -55.375 C 54.515625 -52.851562 58.109375 -49.269531 60.703125 -44.625 C 63.296875 -39.988281 64.59375 -34.617188 64.59375 -28.515625 C 64.59375 -22.804688 63.347656 -17.6875 60.859375 -13.15625 C 58.378906 -8.625 54.851562 -5.066406 50.28125 -2.484375 C 45.707031 0.0859375 40.367188 1.375 34.265625 1.375 Z M 48.859375 -30.328125 C 48.859375 -33.460938 48.300781 -36.335938 47.1875 -38.953125 C 46.070312 -41.566406 44.414062 -43.640625 42.21875 -45.171875 C 40.03125 -46.710938 37.378906 -47.484375 34.265625 -47.484375 C 31.234375 -47.484375 28.617188 -46.707031 26.421875 -45.15625 C 24.234375 -43.601562 22.570312 -41.519531 21.4375 -38.90625 C 20.300781 -36.289062 19.734375 -33.429688 19.734375 -30.328125 C 19.734375 -24.035156 20.957031 -19.125 23.40625 -15.59375 C 25.863281 -12.070312 29.484375 -10.3125 34.265625 -10.3125 C 39.054688 -10.3125 42.6875 -12.066406 45.15625 -15.578125 C 47.625 -19.085938 48.859375 -24.003906 48.859375 -30.328125 Z M 48.859375 -30.328125 "/></g></g><g style="fill:rgb(94.509888%,100%,96.859741%);fill-opacity:1;"><g transform="translate(2307.228707, 483.976981)"><path style="stroke:none;" d="M 28.734375 -15.734375 L 18.53125 12.34375 L 5.265625 12.34375 L 12.453125 -15.734375 Z M 28.734375 -15.734375 "/></g></g><g style="fill:rgb(94.509888%,100%,96.859741%);fill-opacity:1;"><g transform="translate(2343.799357, 483.976981)"><path style="stroke:none;" d=""/></g></g><g style="fill:rgb(94.509888%,100%,96.859741%);fill-opacity:1;"><g transform="translate(1545.635327, 640.726974)"><path style="stroke:none;" d="M 23.46875 -78.40625 L 23.46875 0 L 7.734375 0 L 7.734375 -78.40625 Z M 23.46875 -78.40625 "/></g></g><g style="fill:rgb(94.509888%,100%,96.859741%);fill-opacity:1;"><g transform="translate(1576.832824, 640.726974)"><path style="stroke:none;" d="M 22.484375 -78.40625 L 22.484375 -50.34375 L 8.765625 -50.34375 L 8.765625 -78.40625 Z M 22.484375 -78.40625 "/></g></g><g style="fill:rgb(94.509888%,100%,96.859741%);fill-opacity:1;"><g transform="translate(1608.03032, 640.726974)"><path style="stroke:none;" d="M 68.703125 -47.484375 C 64.972656 -47.484375 62.175781 -45.828125 60.3125 -42.515625 C 58.445312 -39.210938 57.515625 -34.472656 57.515625 -28.296875 L 57.515625 0 L 42.4375 0 L 42.4375 -36.03125 C 42.4375 -40.125 41.722656 -43.054688 40.296875 -44.828125 C 38.867188 -46.597656 36.695312 -47.484375 33.78125 -47.484375 C 29.976562 -47.484375 27.160156 -45.816406 25.328125 -42.484375 C 23.503906 -39.160156 22.59375 -34.46875 22.59375 -28.40625 L 22.59375 0 L 7.515625 0 L 7.515625 -57.84375 L 21.546875 -57.84375 L 21.546875 -49.734375 L 21.765625 -49.734375 C 23.773438 -52.734375 26.269531 -55.054688 29.25 -56.703125 C 32.226562 -58.347656 35.507812 -59.171875 39.09375 -59.171875 C 43.15625 -59.171875 46.601562 -58.347656 49.4375 -56.703125 C 52.269531 -55.054688 54.46875 -52.476562 56.03125 -48.96875 C 57.570312 -52.144531 60.039062 -54.640625 63.4375 -56.453125 C 66.84375 -58.265625 70.445312 -59.171875 74.25 -59.171875 C 80.351562 -59.171875 84.910156 -57.3125 87.921875 -53.59375 C 90.941406 -49.882812 92.453125 -44.265625 92.453125 -36.734375 L 92.453125 0 L 77.375 0 L 77.375 -36.03125 C 77.375 -40.195312 76.640625 -43.144531 75.171875 -44.875 C 73.710938 -46.613281 71.554688 -47.484375 68.703125 -47.484375 Z M 68.703125 -47.484375 "/></g></g><g style="fill:rgb(94.509888%,100%,96.859741%);fill-opacity:1;"><g transform="translate(1707.873276, 640.726974)"><path style="stroke:none;" d=""/></g></g><g style="fill:rgb(94.509888%,100%,96.859741%);fill-opacity:1;"><g transform="translate(1739.070773, 640.726974)"><path style="stroke:none;" d="M 23.46875 -78.40625 L 23.46875 0 L 7.734375 0 L 7.734375 -78.40625 Z M 23.46875 -78.40625 "/></g></g><g style="fill:rgb(94.509888%,100%,96.859741%);fill-opacity:1;"><g transform="translate(1770.268281, 640.726974)"><path style="stroke:none;" d="M 55.375 -78.40625 L 55.375 -66.015625 L 24.84375 -66.015625 L 24.84375 -46.71875 L 52.796875 -46.71875 L 52.796875 -34.375 L 24.84375 -34.375 L 24.84375 -12.34375 L 55.59375 -12.34375 L 55.59375 0 L 9.109375 0 L 9.109375 -78.40625 Z M 55.375 -78.40625 "/></g></g><g style="fill:rgb(94.509888%,100%,96.859741%);fill-opacity:1;"><g transform="translate(1832.718092, 640.726974)"><path style="stroke:none;" d="M 55.375 -78.40625 L 55.375 -66.015625 L 24.84375 -66.015625 L 24.84375 -46.71875 L 52.796875 -46.71875 L 52.796875 -34.375 L 24.84375 -34.375 L 24.84375 -12.34375 L 55.59375 -12.34375 L 55.59375 0 L 9.109375 0 L 9.109375 -78.40625 Z M 55.375 -78.40625 "/></g></g><g style="fill:rgb(94.509888%,100%,96.859741%);fill-opacity:1;"><g transform="translate(1895.167903, 640.726974)"><path style="stroke:none;" d="M 55.375 -78.40625 L 55.375 -66.015625 L 24.84375 -66.015625 L 24.84375 -46.71875 L 52.796875 -46.71875 L 52.796875 -34.375 L 24.84375 -34.375 L 24.84375 -12.34375 L 55.59375 -12.34375 L 55.59375 0 L 9.109375 0 L 9.109375 -78.40625 Z M 55.375 -78.40625 "/></g></g><g style="fill:rgb(94.509888%,100%,96.859741%);fill-opacity:1;"><g transform="translate(1957.617713, 640.726974)"><path style="stroke:none;" d="M 23.359375 -58.609375 L 23.359375 0 L 8.328125 0 L 8.328125 -78.40625 L 27.640625 -78.40625 L 57.515625 -19.734375 L 57.734375 -19.734375 L 57.734375 -78.40625 L 72.765625 -78.40625 L 72.765625 0 L 53.578125 0 L 23.578125 -58.609375 Z M 23.359375 -58.609375 "/></g></g><g style="fill:rgb(94.509888%,100%,96.859741%);fill-opacity:1;"><g transform="translate(2038.709262, 640.726974)"><path style="stroke:none;" d="M 72.546875 -27.96875 C 72.546875 -18.28125 69.882812 -10.96875 64.5625 -6.03125 C 59.25 -1.09375 51.234375 1.375 40.515625 1.375 C 19.203125 1.375 8.546875 -8.441406 8.546875 -28.078125 L 8.546875 -78.40625 L 24.234375 -78.40625 L 24.234375 -32.796875 C 24.234375 -18.273438 29.660156 -11.015625 40.515625 -11.015625 C 51.378906 -11.015625 56.8125 -18.273438 56.8125 -32.796875 L 56.8125 -78.40625 L 72.546875 -78.40625 Z M 72.546875 -27.96875 "/></g></g><g style="fill:rgb(94.509888%,100%,96.859741%);fill-opacity:1;"><g transform="translate(2119.800811, 640.726974)"><path style="stroke:none;" d=""/></g></g><g style="fill:rgb(94.509888%,100%,96.859741%);fill-opacity:1;"><g transform="translate(2150.998319, 640.726974)"><path style="stroke:none;" d="M 24.125 -17.984375 L 17.265625 0 L 0.984375 0 L 31.53125 -78.40625 L 49.296875 -78.40625 L 80.0625 0 L 62.671875 0 L 55.921875 -17.984375 Z M 28.625 -30.328125 L 51.546875 -30.328125 L 40.1875 -62.671875 L 39.96875 -62.671875 Z M 28.625 -30.328125 "/></g></g><g style="fill:rgb(94.509888%,100%,96.859741%);fill-opacity:1;"><g transform="translate(2232.089868, 640.726974)"><path style="stroke:none;" d="M 20.34375 -9.65625 C 22.832031 -9.65625 25.097656 -10.210938 27.140625 -11.328125 C 29.191406 -12.441406 30.21875 -14.238281 30.21875 -16.71875 C 30.21875 -18.257812 29.769531 -19.515625 28.875 -20.484375 C 27.976562 -21.453125 26.804688 -22.226562 25.359375 -22.8125 C 23.910156 -23.394531 21.925781 -24.035156 19.40625 -24.734375 C 15.894531 -25.679688 13.023438 -26.820312 10.796875 -28.15625 C 8.566406 -29.488281 6.882812 -31.207031 5.75 -33.3125 C 4.625 -35.414062 4.0625 -38.054688 4.0625 -41.234375 C 4.0625 -45.035156 5.035156 -48.28125 6.984375 -50.96875 C 8.941406 -53.65625 11.640625 -55.691406 15.078125 -57.078125 C 18.515625 -58.472656 22.425781 -59.171875 26.8125 -59.171875 C 29.257812 -59.171875 31.734375 -59.015625 34.234375 -58.703125 C 36.742188 -58.390625 39.695312 -57.832031 43.09375 -57.03125 L 42.109375 -45.734375 C 39.472656 -46.640625 37.160156 -47.273438 35.171875 -47.640625 C 33.179688 -48.015625 31.035156 -48.203125 28.734375 -48.203125 C 26.023438 -48.203125 23.847656 -47.648438 22.203125 -46.546875 C 20.554688 -45.453125 19.734375 -43.863281 19.734375 -41.78125 C 19.734375 -40.207031 20.492188 -38.945312 22.015625 -38 C 23.535156 -37.050781 26.125 -36.0625 29.78125 -35.03125 C 35.40625 -33.5 39.503906 -31.367188 42.078125 -28.640625 C 44.660156 -25.921875 45.953125 -22.203125 45.953125 -17.484375 C 45.953125 -13.390625 44.878906 -9.925781 42.734375 -7.09375 C 40.597656 -4.257812 37.679688 -2.140625 33.984375 -0.734375 C 30.296875 0.671875 26.148438 1.375 21.546875 1.375 C 16.578125 1.375 10.929688 0.550781 4.609375 -1.09375 L 5.484375 -13.484375 C 10.597656 -10.929688 15.550781 -9.65625 20.34375 -9.65625 Z M 20.34375 -9.65625 "/></g></g><g style="fill:rgb(94.509888%,100%,96.859741%);fill-opacity:1;"><g transform="translate(2281.929115, 640.726974)"><path style="stroke:none;" d="M 20.34375 -9.65625 C 22.832031 -9.65625 25.097656 -10.210938 27.140625 -11.328125 C 29.191406 -12.441406 30.21875 -14.238281 30.21875 -16.71875 C 30.21875 -18.257812 29.769531 -19.515625 28.875 -20.484375 C 27.976562 -21.453125 26.804688 -22.226562 25.359375 -22.8125 C 23.910156 -23.394531 21.925781 -24.035156 19.40625 -24.734375 C 15.894531 -25.679688 13.023438 -26.820312 10.796875 -28.15625 C 8.566406 -29.488281 6.882812 -31.207031 5.75 -33.3125 C 4.625 -35.414062 4.0625 -38.054688 4.0625 -41.234375 C 4.0625 -45.035156 5.035156 -48.28125 6.984375 -50.96875 C 8.941406 -53.65625 11.640625 -55.691406 15.078125 -57.078125 C 18.515625 -58.472656 22.425781 -59.171875 26.8125 -59.171875 C 29.257812 -59.171875 31.734375 -59.015625 34.234375 -58.703125 C 36.742188 -58.390625 39.695312 -57.832031 43.09375 -57.03125 L 42.109375 -45.734375 C 39.472656 -46.640625 37.160156 -47.273438 35.171875 -47.640625 C 33.179688 -48.015625 31.035156 -48.203125 28.734375 -48.203125 C 26.023438 -48.203125 23.847656 -47.648438 22.203125 -46.546875 C 20.554688 -45.453125 19.734375 -43.863281 19.734375 -41.78125 C 19.734375 -40.207031 20.492188 -38.945312 22.015625 -38 C 23.535156 -37.050781 26.125 -36.0625 29.78125 -35.03125 C 35.40625 -33.5 39.503906 -31.367188 42.078125 -28.640625 C 44.660156 -25.921875 45.953125 -22.203125 45.953125 -17.484375 C 45.953125 -13.390625 44.878906 -9.925781 42.734375 -7.09375 C 40.597656 -4.257812 37.679688 -2.140625 33.984375 -0.734375 C 30.296875 0.671875 26.148438 1.375 21.546875 1.375 C 16.578125 1.375 10.929688 0.550781 4.609375 -1.09375 L 5.484375 -13.484375 C 10.597656 -10.929688 15.550781 -9.65625 20.34375 -9.65625 Z M 20.34375 -9.65625 "/></g></g><g style="fill:rgb(94.509888%,100%,96.859741%);fill-opacity:1;"><g transform="translate(2331.768316, 640.726974)"><path style="stroke:none;" d="M 23.140625 -82.734375 L 23.140625 -68.375 L 8.0625 -68.375 L 8.0625 -82.734375 Z M 23.140625 -57.84375 L 23.140625 0 L 8.0625 0 L 8.0625 -57.84375 Z M 23.140625 -57.84375 "/></g></g><g style="fill:rgb(94.509888%,100%,96.859741%);fill-opacity:1;"><g transform="translate(2362.965825, 640.726974)"><path style="stroke:none;" d="M 20.34375 -9.65625 C 22.832031 -9.65625 25.097656 -10.210938 27.140625 -11.328125 C 29.191406 -12.441406 30.21875 -14.238281 30.21875 -16.71875 C 30.21875 -18.257812 29.769531 -19.515625 28.875 -20.484375 C 27.976562 -21.453125 26.804688 -22.226562 25.359375 -22.8125 C 23.910156 -23.394531 21.925781 -24.035156 19.40625 -24.734375 C 15.894531 -25.679688 13.023438 -26.820312 10.796875 -28.15625 C 8.566406 -29.488281 6.882812 -31.207031 5.75 -33.3125 C 4.625 -35.414062 4.0625 -38.054688 4.0625 -41.234375 C 4.0625 -45.035156 5.035156 -48.28125 6.984375 -50.96875 C 8.941406 -53.65625 11.640625 -55.691406 15.078125 -57.078125 C 18.515625 -58.472656 22.425781 -59.171875 26.8125 -59.171875 C 29.257812 -59.171875 31.734375 -59.015625 34.234375 -58.703125 C 36.742188 -58.390625 39.695312 -57.832031 43.09375 -57.03125 L 42.109375 -45.734375 C 39.472656 -46.640625 37.160156 -47.273438 35.171875 -47.640625 C 33.179688 -48.015625 31.035156 -48.203125 28.734375 -48.203125 C 26.023438 -48.203125 23.847656 -47.648438 22.203125 -46.546875 C 20.554688 -45.453125 19.734375 -43.863281 19.734375 -41.78125 C 19.734375 -40.207031 20.492188 -38.945312 22.015625 -38 C 23.535156 -37.050781 26.125 -36.0625 29.78125 -35.03125 C 35.40625 -33.5 39.503906 -31.367188 42.078125 -28.640625 C 44.660156 -25.921875 45.953125 -22.203125 45.953125 -17.484375 C 45.953125 -13.390625 44.878906 -9.925781 42.734375 -7.09375 C 40.597656 -4.257812 37.679688 -2.140625 33.984375 -0.734375 C 30.296875 0.671875 26.148438 1.375 21.546875 1.375 C 16.578125 1.375 10.929688 0.550781 4.609375 -1.09375 L 5.484375 -13.484375 C 10.597656 -10.929688 15.550781 -9.65625 20.34375 -9.65625 Z M 20.34375 -9.65625 "/></g></g><g style="fill:rgb(94.509888%,100%,96.859741%);fill-opacity:1;"><g transform="translate(2412.805026, 640.726974)"><path style="stroke:none;" d="M 31.09375 1.375 C 27.101562 1.375 23.726562 0.585938 20.96875 -0.984375 C 18.207031 -2.554688 16.132812 -4.75 14.75 -7.5625 C 13.363281 -10.375 12.671875 -13.644531 12.671875 -17.375 L 12.671875 -46.828125 L 1.59375 -46.828125 L 1.59375 -57.84375 L 12.671875 -57.84375 L 12.671875 -69.421875 L 27.75 -74.25 L 27.75 -57.84375 L 41.125 -57.84375 L 41.125 -46.828125 L 27.75 -46.828125 L 27.75 -20.015625 C 27.75 -16.835938 28.3125 -14.425781 29.4375 -12.78125 C 30.570312 -11.132812 32.398438 -10.3125 34.921875 -10.3125 C 36.203125 -10.3125 37.445312 -10.457031 38.65625 -10.75 C 39.863281 -11.039062 40.867188 -11.425781 41.671875 -11.90625 L 42.109375 0 C 38.859375 0.914062 35.1875 1.375 31.09375 1.375 Z M 31.09375 1.375 "/></g></g><g style="fill:rgb(94.509888%,100%,96.859741%);fill-opacity:1;"><g transform="translate(2456.503418, 640.726974)"><path style="stroke:none;" d="M 42.328125 -8.65625 L 42.109375 -8.65625 C 40.460938 -5.625 37.984375 -3.191406 34.671875 -1.359375 C 31.367188 0.460938 27.890625 1.375 24.234375 1.375 C 20.691406 1.375 17.375 0.679688 14.28125 -0.703125 C 11.195312 -2.097656 8.722656 -4.101562 6.859375 -6.71875 C 4.992188 -9.332031 4.0625 -12.410156 4.0625 -15.953125 C 4.0625 -22.347656 6.378906 -27.238281 11.015625 -30.625 C 15.660156 -34.007812 22.769531 -35.703125 32.34375 -35.703125 L 41.671875 -35.703125 L 41.671875 -35.921875 C 41.671875 -40.484375 40.582031 -43.671875 38.40625 -45.484375 C 36.226562 -47.296875 32.96875 -48.203125 28.625 -48.203125 C 25.519531 -48.203125 22.421875 -47.644531 19.328125 -46.53125 C 16.234375 -45.414062 13.390625 -43.867188 10.796875 -41.890625 L 10.3125 -54.78125 C 13.15625 -56.0625 16.378906 -57.113281 19.984375 -57.9375 C 23.585938 -58.757812 27.070312 -59.171875 30.4375 -59.171875 C 36.25 -59.171875 40.976562 -58.347656 44.625 -56.703125 C 48.28125 -55.054688 50.984375 -52.445312 52.734375 -48.875 C 54.492188 -45.3125 55.375 -40.625 55.375 -34.8125 L 55.375 -22.921875 C 55.375 -20.546875 55.445312 -16.972656 55.59375 -12.203125 C 55.738281 -7.429688 55.960938 -3.363281 56.265625 0 L 42.984375 0 C 42.734375 -1.238281 42.5625 -2.910156 42.46875 -5.015625 C 42.375 -7.117188 42.328125 -8.332031 42.328125 -8.65625 Z M 18.421875 -16.71875 C 18.421875 -14.457031 19.25 -12.710938 20.90625 -11.484375 C 22.570312 -10.265625 24.925781 -9.65625 27.96875 -9.65625 C 30.375 -9.65625 32.609375 -10.226562 34.671875 -11.375 C 36.742188 -12.53125 38.425781 -14.332031 39.71875 -16.78125 C 41.019531 -19.226562 41.671875 -22.316406 41.671875 -26.046875 L 41.671875 -26.703125 L 35.03125 -26.703125 C 23.957031 -26.703125 18.421875 -23.375 18.421875 -16.71875 Z M 18.421875 -16.71875 "/></g></g><g style="fill:rgb(94.509888%,100%,96.859741%);fill-opacity:1;"><g transform="translate(2518.953275, 640.726974)"><path style="stroke:none;" d="M 36.03125 -47.484375 C 31.5625 -47.484375 28.238281 -45.644531 26.0625 -41.96875 C 23.894531 -38.300781 22.8125 -33.671875 22.8125 -28.078125 L 22.8125 0 L 7.734375 0 L 7.734375 -57.84375 L 21.984375 -57.84375 L 21.984375 -49.953125 L 22.265625 -49.953125 C 24.492188 -53.128906 27.175781 -55.457031 30.3125 -56.9375 C 33.457031 -58.425781 37.097656 -59.171875 41.234375 -59.171875 C 47.671875 -59.171875 52.550781 -57.140625 55.875 -53.078125 C 59.195312 -49.015625 60.859375 -43.492188 60.859375 -36.515625 L 60.859375 0 L 45.84375 0 L 45.84375 -32.453125 C 45.84375 -37.285156 45.140625 -41 43.734375 -43.59375 C 42.328125 -46.1875 39.757812 -47.484375 36.03125 -47.484375 Z M 36.03125 -47.484375 "/></g></g><g style="fill:rgb(94.509888%,100%,96.859741%);fill-opacity:1;"><g transform="translate(2587.543939, 640.726974)"><path style="stroke:none;" d="M 31.09375 1.375 C 27.101562 1.375 23.726562 0.585938 20.96875 -0.984375 C 18.207031 -2.554688 16.132812 -4.75 14.75 -7.5625 C 13.363281 -10.375 12.671875 -13.644531 12.671875 -17.375 L 12.671875 -46.828125 L 1.59375 -46.828125 L 1.59375 -57.84375 L 12.671875 -57.84375 L 12.671875 -69.421875 L 27.75 -74.25 L 27.75 -57.84375 L 41.125 -57.84375 L 41.125 -46.828125 L 27.75 -46.828125 L 27.75 -20.015625 C 27.75 -16.835938 28.3125 -14.425781 29.4375 -12.78125 C 30.570312 -11.132812 32.398438 -10.3125 34.921875 -10.3125 C 36.203125 -10.3125 37.445312 -10.457031 38.65625 -10.75 C 39.863281 -11.039062 40.867188 -11.425781 41.671875 -11.90625 L 42.109375 0 C 38.859375 0.914062 35.1875 1.375 31.09375 1.375 Z M 31.09375 1.375 "/></g></g><g style="fill:rgb(94.509888%,100%,96.859741%);fill-opacity:1;"><g transform="translate(2631.242332, 640.726974)"><path style="stroke:none;" d=""/></g></g><g style="fill:rgb(94.509888%,100%,96.859741%);fill-opacity:1;"><g transform="translate(2662.439841, 640.726974)"><path style="stroke:none;" d="M 42.328125 -8.65625 L 42.109375 -8.65625 C 40.460938 -5.625 37.984375 -3.191406 34.671875 -1.359375 C 31.367188 0.460938 27.890625 1.375 24.234375 1.375 C 20.691406 1.375 17.375 0.679688 14.28125 -0.703125 C 11.195312 -2.097656 8.722656 -4.101562 6.859375 -6.71875 C 4.992188 -9.332031 4.0625 -12.410156 4.0625 -15.953125 C 4.0625 -22.347656 6.378906 -27.238281 11.015625 -30.625 C 15.660156 -34.007812 22.769531 -35.703125 32.34375 -35.703125 L 41.671875 -35.703125 L 41.671875 -35.921875 C 41.671875 -40.484375 40.582031 -43.671875 38.40625 -45.484375 C 36.226562 -47.296875 32.96875 -48.203125 28.625 -48.203125 C 25.519531 -48.203125 22.421875 -47.644531 19.328125 -46.53125 C 16.234375 -45.414062 13.390625 -43.867188 10.796875 -41.890625 L 10.3125 -54.78125 C 13.15625 -56.0625 16.378906 -57.113281 19.984375 -57.9375 C 23.585938 -58.757812 27.070312 -59.171875 30.4375 -59.171875 C 36.25 -59.171875 40.976562 -58.347656 44.625 -56.703125 C 48.28125 -55.054688 50.984375 -52.445312 52.734375 -48.875 C 54.492188 -45.3125 55.375 -40.625 55.375 -34.8125 L 55.375 -22.921875 C 55.375 -20.546875 55.445312 -16.972656 55.59375 -12.203125 C 55.738281 -7.429688 55.960938 -3.363281 56.265625 0 L 42.984375 0 C 42.734375 -1.238281 42.5625 -2.910156 42.46875 -5.015625 C 42.375 -7.117188 42.328125 -8.332031 42.328125 -8.65625 Z M 18.421875 -16.71875 C 18.421875 -14.457031 19.25 -12.710938 20.90625 -11.484375 C 22.570312 -10.265625 24.925781 -9.65625 27.96875 -9.65625 C 30.375 -9.65625 32.609375 -10.226562 34.671875 -11.375 C 36.742188 -12.53125 38.425781 -14.332031 39.71875 -16.78125 C 41.019531 -19.226562 41.671875 -22.316406 41.671875 -26.046875 L 41.671875 -26.703125 L 35.03125 -26.703125 C 23.957031 -26.703125 18.421875 -23.375 18.421875 -16.71875 Z M 18.421875 -16.71875 "/></g></g><g style="fill:rgb(94.509888%,100%,96.859741%);fill-opacity:1;"><g transform="translate(2724.889697, 640.726974)"><path style="stroke:none;" d="M 36.03125 -47.484375 C 31.5625 -47.484375 28.238281 -45.644531 26.0625 -41.96875 C 23.894531 -38.300781 22.8125 -33.671875 22.8125 -28.078125 L 22.8125 0 L 7.734375 0 L 7.734375 -57.84375 L 21.984375 -57.84375 L 21.984375 -49.953125 L 22.265625 -49.953125 C 24.492188 -53.128906 27.175781 -55.457031 30.3125 -56.9375 C 33.457031 -58.425781 37.097656 -59.171875 41.234375 -59.171875 C 47.671875 -59.171875 52.550781 -57.140625 55.875 -53.078125 C 59.195312 -49.015625 60.859375 -43.492188 60.859375 -36.515625 L 60.859375 0 L 45.84375 0 L 45.84375 -32.453125 C 45.84375 -37.285156 45.140625 -41 43.734375 -43.59375 C 42.328125 -46.1875 39.757812 -47.484375 36.03125 -47.484375 Z M 36.03125 -47.484375 "/></g></g><g style="fill:rgb(94.509888%,100%,96.859741%);fill-opacity:1;"><g transform="translate(2793.480362, 640.726974)"><path style="stroke:none;" d="M 46.0625 -6.53125 C 41.851562 -1.257812 35.929688 1.375 28.296875 1.375 C 22.703125 1.375 18.09375 0.00390625 14.46875 -2.734375 C 10.851562 -5.484375 8.210938 -9.148438 6.546875 -13.734375 C 4.890625 -18.316406 4.0625 -23.425781 4.0625 -29.0625 C 4.0625 -35.050781 4.945312 -40.300781 6.71875 -44.8125 C 8.488281 -49.332031 11.179688 -52.851562 14.796875 -55.375 C 18.421875 -57.90625 22.921875 -59.171875 28.296875 -59.171875 C 32.023438 -59.171875 35.273438 -58.519531 38.046875 -57.21875 C 40.828125 -55.914062 43.332031 -53.878906 45.5625 -51.109375 L 45.84375 -51.109375 L 45.84375 -84.21875 L 60.859375 -84.21875 L 60.859375 0 L 46.28125 0 L 46.28125 -6.53125 Z M 45.734375 -29.0625 C 45.734375 -31.988281 45.253906 -34.867188 44.296875 -37.703125 C 43.347656 -40.535156 41.859375 -42.875 39.828125 -44.71875 C 37.804688 -46.5625 35.273438 -47.484375 32.234375 -47.484375 C 29.347656 -47.484375 26.972656 -46.601562 25.109375 -44.84375 C 23.242188 -43.09375 21.878906 -40.828125 21.015625 -38.046875 C 20.160156 -35.273438 19.734375 -32.28125 19.734375 -29.0625 C 19.734375 -26.03125 20.144531 -23.085938 20.96875 -20.234375 C 21.789062 -17.378906 23.148438 -15.007812 25.046875 -13.125 C 26.953125 -11.25 29.421875 -10.3125 32.453125 -10.3125 C 35.566406 -10.3125 38.109375 -11.242188 40.078125 -13.109375 C 42.054688 -14.972656 43.492188 -17.328125 44.390625 -20.171875 C 45.285156 -23.023438 45.734375 -25.988281 45.734375 -29.0625 Z M 45.734375 -29.0625 "/></g></g><g style="fill:rgb(94.509888%,100%,96.859741%);fill-opacity:1;"><g transform="translate(1670.3697, 797.476967)"><path style="stroke:none;" d="M 23.46875 -78.40625 L 23.46875 0 L 7.734375 0 L 7.734375 -78.40625 Z M 23.46875 -78.40625 "/></g></g><g style="fill:rgb(94.509888%,100%,96.859741%);fill-opacity:1;"><g transform="translate(1701.567197, 797.476967)"><path style="stroke:none;" d="M 22.484375 -78.40625 L 22.484375 -50.34375 L 8.765625 -50.34375 L 8.765625 -78.40625 Z M 22.484375 -78.40625 "/></g></g><g style="fill:rgb(94.509888%,100%,96.859741%);fill-opacity:1;"><g transform="translate(1732.764693, 797.476967)"><path style="stroke:none;" d="M 68.703125 -47.484375 C 64.972656 -47.484375 62.175781 -45.828125 60.3125 -42.515625 C 58.445312 -39.210938 57.515625 -34.472656 57.515625 -28.296875 L 57.515625 0 L 42.4375 0 L 42.4375 -36.03125 C 42.4375 -40.125 41.722656 -43.054688 40.296875 -44.828125 C 38.867188 -46.597656 36.695312 -47.484375 33.78125 -47.484375 C 29.976562 -47.484375 27.160156 -45.816406 25.328125 -42.484375 C 23.503906 -39.160156 22.59375 -34.46875 22.59375 -28.40625 L 22.59375 0 L 7.515625 0 L 7.515625 -57.84375 L 21.546875 -57.84375 L 21.546875 -49.734375 L 21.765625 -49.734375 C 23.773438 -52.734375 26.269531 -55.054688 29.25 -56.703125 C 32.226562 -58.347656 35.507812 -59.171875 39.09375 -59.171875 C 43.15625 -59.171875 46.601562 -58.347656 49.4375 -56.703125 C 52.269531 -55.054688 54.46875 -52.476562 56.03125 -48.96875 C 57.570312 -52.144531 60.039062 -54.640625 63.4375 -56.453125 C 66.84375 -58.265625 70.445312 -59.171875 74.25 -59.171875 C 80.351562 -59.171875 84.910156 -57.3125 87.921875 -53.59375 C 90.941406 -49.882812 92.453125 -44.265625 92.453125 -36.734375 L 92.453125 0 L 77.375 0 L 77.375 -36.03125 C 77.375 -40.195312 76.640625 -43.144531 75.171875 -44.875 C 73.710938 -46.613281 71.554688 -47.484375 68.703125 -47.484375 Z M 68.703125 -47.484375 "/></g></g><g style="fill:rgb(94.509888%,100%,96.859741%);fill-opacity:1;"><g transform="translate(1832.607649, 797.476967)"><path style="stroke:none;" d=""/></g></g><g style="fill:rgb(94.509888%,100%,96.859741%);fill-opacity:1;"><g transform="translate(1863.805146, 797.476967)"><path style="stroke:none;" d="M 36.03125 -47.484375 C 31.75 -47.484375 28.472656 -45.707031 26.203125 -42.15625 C 23.941406 -38.613281 22.8125 -33.882812 22.8125 -27.96875 L 22.8125 0 L 7.734375 0 L 7.734375 -84.21875 L 22.8125 -84.21875 L 22.8125 -49.953125 L 23.03125 -49.953125 C 24.925781 -52.804688 27.453125 -55.054688 30.609375 -56.703125 C 33.773438 -58.347656 37.316406 -59.171875 41.234375 -59.171875 C 45.546875 -59.171875 49.171875 -58.226562 52.109375 -56.34375 C 55.054688 -54.457031 57.25 -51.820312 58.6875 -48.4375 C 60.132812 -45.0625 60.859375 -41.125 60.859375 -36.625 L 60.859375 0 L 45.84375 0 L 45.84375 -32.6875 C 45.84375 -37.875 45.046875 -41.632812 43.453125 -43.96875 C 41.859375 -46.3125 39.382812 -47.484375 36.03125 -47.484375 Z M 36.03125 -47.484375 "/></g></g><g style="fill:rgb(94.509888%,100%,96.859741%);fill-opacity:1;"><g transform="translate(1932.395765, 797.476967)"><path style="stroke:none;" d="M 34.375 1.375 C 28.019531 1.375 22.566406 0.195312 18.015625 -2.15625 C 13.460938 -4.519531 10 -7.945312 7.625 -12.4375 C 5.25 -16.9375 4.0625 -22.332031 4.0625 -28.625 C 4.0625 -34.21875 5.046875 -39.328125 7.015625 -43.953125 C 8.992188 -48.578125 11.992188 -52.269531 16.015625 -55.03125 C 20.035156 -57.789062 24.988281 -59.171875 30.875 -59.171875 C 40.488281 -59.171875 47.476562 -56.269531 51.84375 -50.46875 C 56.207031 -44.675781 58.390625 -35.929688 58.390625 -24.234375 L 18.421875 -24.234375 C 18.753906 -19.660156 20.390625 -16.085938 23.328125 -13.515625 C 26.273438 -10.941406 30.175781 -9.65625 35.03125 -9.65625 C 38.363281 -9.65625 41.570312 -10.175781 44.65625 -11.21875 C 47.75 -12.257812 50.90625 -13.691406 54.125 -15.515625 L 54.125 -3.234375 C 51.34375 -1.703125 48.332031 -0.550781 45.09375 0.21875 C 41.863281 0.988281 38.289062 1.375 34.375 1.375 Z M 31.6875 -48.203125 C 27.882812 -48.203125 24.8125 -47.007812 22.46875 -44.625 C 20.132812 -42.25 18.785156 -38.90625 18.421875 -34.59375 L 44.03125 -34.59375 C 43.738281 -38.875 42.554688 -42.210938 40.484375 -44.609375 C 38.421875 -47.003906 35.488281 -48.203125 31.6875 -48.203125 Z M 31.6875 -48.203125 "/></g></g><g style="fill:rgb(94.509888%,100%,96.859741%);fill-opacity:1;"><g transform="translate(1994.845576, 797.476967)"><path style="stroke:none;" d="M 21.4375 -57.84375 L 21.4375 -44.6875 L 21.65625 -44.6875 C 21.988281 -46.8125 22.882812 -49.003906 24.34375 -51.265625 C 25.800781 -53.535156 27.691406 -55.421875 30.015625 -56.921875 C 32.335938 -58.421875 34.867188 -59.171875 37.609375 -59.171875 C 39.441406 -59.171875 40.941406 -59.019531 42.109375 -58.71875 L 42.109375 -43.59375 C 41.453125 -43.957031 40.507812 -44.25 39.28125 -44.46875 C 38.0625 -44.6875 36.753906 -44.796875 35.359375 -44.796875 C 31.492188 -44.796875 28.488281 -43.140625 26.34375 -39.828125 C 24.207031 -36.523438 23.140625 -31.179688 23.140625 -23.796875 L 23.140625 0 L 8.0625 0 L 8.0625 -57.84375 Z M 21.4375 -57.84375 "/></g></g><g style="fill:rgb(94.509888%,100%,96.859741%);fill-opacity:1;"><g transform="translate(2038.544014, 797.476967)"><path style="stroke:none;" d="M 34.375 1.375 C 28.019531 1.375 22.566406 0.195312 18.015625 -2.15625 C 13.460938 -4.519531 10 -7.945312 7.625 -12.4375 C 5.25 -16.9375 4.0625 -22.332031 4.0625 -28.625 C 4.0625 -34.21875 5.046875 -39.328125 7.015625 -43.953125 C 8.992188 -48.578125 11.992188 -52.269531 16.015625 -55.03125 C 20.035156 -57.789062 24.988281 -59.171875 30.875 -59.171875 C 40.488281 -59.171875 47.476562 -56.269531 51.84375 -50.46875 C 56.207031 -44.675781 58.390625 -35.929688 58.390625 -24.234375 L 18.421875 -24.234375 C 18.753906 -19.660156 20.390625 -16.085938 23.328125 -13.515625 C 26.273438 -10.941406 30.175781 -9.65625 35.03125 -9.65625 C 38.363281 -9.65625 41.570312 -10.175781 44.65625 -11.21875 C 47.75 -12.257812 50.90625 -13.691406 54.125 -15.515625 L 54.125 -3.234375 C 51.34375 -1.703125 48.332031 -0.550781 45.09375 0.21875 C 41.863281 0.988281 38.289062 1.375 34.375 1.375 Z M 31.6875 -48.203125 C 27.882812 -48.203125 24.8125 -47.007812 22.46875 -44.625 C 20.132812 -42.25 18.785156 -38.90625 18.421875 -34.59375 L 44.03125 -34.59375 C 43.738281 -38.875 42.554688 -42.210938 40.484375 -44.609375 C 38.421875 -47.003906 35.488281 -48.203125 31.6875 -48.203125 Z M 31.6875 -48.203125 "/></g></g><g style="fill:rgb(94.509888%,100%,96.859741%);fill-opacity:1;"><g transform="translate(2100.993825, 797.476967)"><path style="stroke:none;" d=""/></g></g><g style="fill:rgb(94.509888%,100%,96.859741%);fill-opacity:1;"><g transform="translate(2132.191333, 797.476967)"><path style="stroke:none;" d="M 31.09375 1.375 C 27.101562 1.375 23.726562 0.585938 20.96875 -0.984375 C 18.207031 -2.554688 16.132812 -4.75 14.75 -7.5625 C 13.363281 -10.375 12.671875 -13.644531 12.671875 -17.375 L 12.671875 -46.828125 L 1.59375 -46.828125 L 1.59375 -57.84375 L 12.671875 -57.84375 L 12.671875 -69.421875 L 27.75 -74.25 L 27.75 -57.84375 L 41.125 -57.84375 L 41.125 -46.828125 L 27.75 -46.828125 L 27.75 -20.015625 C 27.75 -16.835938 28.3125 -14.425781 29.4375 -12.78125 C 30.570312 -11.132812 32.398438 -10.3125 34.921875 -10.3125 C 36.203125 -10.3125 37.445312 -10.457031 38.65625 -10.75 C 39.863281 -11.039062 40.867188 -11.425781 41.671875 -11.90625 L 42.109375 0 C 38.859375 0.914062 35.1875 1.375 31.09375 1.375 Z M 31.09375 1.375 "/></g></g><g style="fill:rgb(94.509888%,100%,96.859741%);fill-opacity:1;"><g transform="translate(2175.889771, 797.476967)"><path style="stroke:none;" d="M 34.265625 1.375 C 28.203125 1.375 22.882812 0.0859375 18.3125 -2.484375 C 13.738281 -5.066406 10.21875 -8.625 7.75 -13.15625 C 5.289062 -17.6875 4.0625 -22.804688 4.0625 -28.515625 C 4.0625 -34.578125 5.335938 -39.929688 7.890625 -44.578125 C 10.453125 -49.222656 14.023438 -52.816406 18.609375 -55.359375 C 23.203125 -57.898438 28.421875 -59.171875 34.265625 -59.171875 C 40.117188 -59.171875 45.335938 -57.90625 49.921875 -55.375 C 54.515625 -52.851562 58.109375 -49.269531 60.703125 -44.625 C 63.296875 -39.988281 64.59375 -34.617188 64.59375 -28.515625 C 64.59375 -22.804688 63.347656 -17.6875 60.859375 -13.15625 C 58.378906 -8.625 54.851562 -5.066406 50.28125 -2.484375 C 45.707031 0.0859375 40.367188 1.375 34.265625 1.375 Z M 48.859375 -30.328125 C 48.859375 -33.460938 48.300781 -36.335938 47.1875 -38.953125 C 46.070312 -41.566406 44.414062 -43.640625 42.21875 -45.171875 C 40.03125 -46.710938 37.378906 -47.484375 34.265625 -47.484375 C 31.234375 -47.484375 28.617188 -46.707031 26.421875 -45.15625 C 24.234375 -43.601562 22.570312 -41.519531 21.4375 -38.90625 C 20.300781 -36.289062 19.734375 -33.429688 19.734375 -30.328125 C 19.734375 -24.035156 20.957031 -19.125 23.40625 -15.59375 C 25.863281 -12.070312 29.484375 -10.3125 34.265625 -10.3125 C 39.054688 -10.3125 42.6875 -12.066406 45.15625 -15.578125 C 47.625 -19.085938 48.859375 -24.003906 48.859375 -30.328125 Z M 48.859375 -30.328125 "/></g></g><g style="fill:rgb(94.509888%,100%,96.859741%);fill-opacity:1;"><g transform="translate(2244.480391, 797.476967)"><path style="stroke:none;" d=""/></g></g><g style="fill:rgb(94.509888%,100%,96.859741%);fill-opacity:1;"><g transform="translate(2275.677899, 797.476967)"><path style="stroke:none;" d="M 36.03125 -47.484375 C 31.75 -47.484375 28.472656 -45.707031 26.203125 -42.15625 C 23.941406 -38.613281 22.8125 -33.882812 22.8125 -27.96875 L 22.8125 0 L 7.734375 0 L 7.734375 -84.21875 L 22.8125 -84.21875 L 22.8125 -49.953125 L 23.03125 -49.953125 C 24.925781 -52.804688 27.453125 -55.054688 30.609375 -56.703125 C 33.773438 -58.347656 37.316406 -59.171875 41.234375 -59.171875 C 45.546875 -59.171875 49.171875 -58.226562 52.109375 -56.34375 C 55.054688 -54.457031 57.25 -51.820312 58.6875 -48.4375 C 60.132812 -45.0625 60.859375 -41.125 60.859375 -36.625 L 60.859375 0 L 45.84375 0 L 45.84375 -32.6875 C 45.84375 -37.875 45.046875 -41.632812 43.453125 -43.96875 C 41.859375 -46.3125 39.382812 -47.484375 36.03125 -47.484375 Z M 36.03125 -47.484375 "/></g></g><g style="fill:rgb(94.509888%,100%,96.859741%);fill-opacity:1;"><g transform="translate(2344.268518, 797.476967)"><path style="stroke:none;" d="M 34.375 1.375 C 28.019531 1.375 22.566406 0.195312 18.015625 -2.15625 C 13.460938 -4.519531 10 -7.945312 7.625 -12.4375 C 5.25 -16.9375 4.0625 -22.332031 4.0625 -28.625 C 4.0625 -34.21875 5.046875 -39.328125 7.015625 -43.953125 C 8.992188 -48.578125 11.992188 -52.269531 16.015625 -55.03125 C 20.035156 -57.789062 24.988281 -59.171875 30.875 -59.171875 C 40.488281 -59.171875 47.476562 -56.269531 51.84375 -50.46875 C 56.207031 -44.675781 58.390625 -35.929688 58.390625 -24.234375 L 18.421875 -24.234375 C 18.753906 -19.660156 20.390625 -16.085938 23.328125 -13.515625 C 26.273438 -10.941406 30.175781 -9.65625 35.03125 -9.65625 C 38.363281 -9.65625 41.570312 -10.175781 44.65625 -11.21875 C 47.75 -12.257812 50.90625 -13.691406 54.125 -15.515625 L 54.125 -3.234375 C 51.34375 -1.703125 48.332031 -0.550781 45.09375 0.21875 C 41.863281 0.988281 38.289062 1.375 34.375 1.375 Z M 31.6875 -48.203125 C 27.882812 -48.203125 24.8125 -47.007812 22.46875 -44.625 C 20.132812 -42.25 18.785156 -38.90625 18.421875 -34.59375 L 44.03125 -34.59375 C 43.738281 -38.875 42.554688 -42.210938 40.484375 -44.609375 C 38.421875 -47.003906 35.488281 -48.203125 31.6875 -48.203125 Z M 31.6875 -48.203125 "/></g></g><g style="fill:rgb(94.509888%,100%,96.859741%);fill-opacity:1;"><g transform="translate(2406.718329, 797.476967)"><path style="stroke:none;" d="M 23.140625 -84.21875 L 23.140625 0 L 8.0625 0 L 8.0625 -84.21875 Z M 23.140625 -84.21875 "/></g></g><g style="fill:rgb(94.509888%,100%,96.859741%);fill-opacity:1;"><g transform="translate(2437.915837, 797.476967)"><path style="stroke:none;" d="M 22.09375 -57.84375 L 22.09375 -49.625 L 22.375 -49.625 C 24.269531 -52.769531 26.722656 -55.144531 29.734375 -56.75 C 32.753906 -58.363281 36.273438 -59.171875 40.296875 -59.171875 C 45.742188 -59.171875 50.273438 -57.890625 53.890625 -55.328125 C 57.515625 -52.765625 60.203125 -49.222656 61.953125 -44.703125 C 63.710938 -40.191406 64.59375 -34.976562 64.59375 -29.0625 C 64.59375 -23.207031 63.710938 -17.992188 61.953125 -13.421875 C 60.203125 -8.859375 57.488281 -5.25 53.8125 -2.59375 C 50.144531 0.0507812 45.53125 1.375 39.96875 1.375 C 36.164062 1.375 32.972656 0.753906 30.390625 -0.484375 C 27.816406 -1.734375 25.363281 -3.785156 23.03125 -6.640625 L 22.8125 -6.640625 L 22.8125 23.578125 L 7.734375 23.578125 L 7.734375 -57.84375 Z M 48.859375 -29.0625 C 48.859375 -32.0625 48.460938 -34.957031 47.671875 -37.75 C 46.890625 -40.550781 45.566406 -42.875 43.703125 -44.71875 C 41.835938 -46.5625 39.40625 -47.484375 36.40625 -47.484375 C 33.332031 -47.484375 30.78125 -46.550781 28.75 -44.6875 C 26.726562 -42.820312 25.25 -40.484375 24.3125 -37.671875 C 23.382812 -34.859375 22.921875 -31.988281 22.921875 -29.0625 C 22.921875 -25.957031 23.367188 -22.976562 24.265625 -20.125 C 25.160156 -17.269531 26.59375 -14.921875 28.5625 -13.078125 C 30.539062 -11.234375 33.066406 -10.3125 36.140625 -10.3125 C 39.203125 -10.3125 41.679688 -11.25 43.578125 -13.125 C 45.484375 -15.007812 46.835938 -17.367188 47.640625 -20.203125 C 48.453125 -23.035156 48.859375 -25.988281 48.859375 -29.0625 Z M 48.859375 -29.0625 "/></g></g><g style="fill:rgb(94.509888%,100%,96.859741%);fill-opacity:1;"><g transform="translate(2506.506502, 797.476967)"><path style="stroke:none;" d=""/></g></g><g style="fill:rgb(94.509888%,100%,96.859741%);fill-opacity:1;"><g transform="translate(2537.704011, 797.476967)"><path style="stroke:none;" d="M 13.484375 13.265625 C 16.597656 13.265625 19.019531 12.304688 20.75 10.390625 C 22.488281 8.472656 23.359375 5.976562 23.359375 2.90625 L 1.265625 -57.84375 L 17.875 -57.84375 L 31.796875 -15.625 L 32.015625 -15.625 L 45.953125 -57.84375 L 61.1875 -57.84375 L 36.953125 6.421875 C 35.347656 10.617188 33.65625 14.03125 31.875 16.65625 C 30.101562 19.289062 27.894531 21.332031 25.25 22.78125 C 22.601562 24.226562 19.285156 24.953125 15.296875 24.953125 C 12.078125 24.953125 8.585938 24.421875 4.828125 23.359375 L 5.8125 12.234375 C 6.875 12.628906 8.003906 12.898438 9.203125 13.046875 C 10.410156 13.191406 11.835938 13.265625 13.484375 13.265625 Z M 13.484375 13.265625 "/></g></g><g style="fill:rgb(94.509888%,100%,96.859741%);fill-opacity:1;"><g transform="translate(2600.153867, 797.476967)"><path style="stroke:none;" d="M 34.265625 1.375 C 28.203125 1.375 22.882812 0.0859375 18.3125 -2.484375 C 13.738281 -5.066406 10.21875 -8.625 7.75 -13.15625 C 5.289062 -17.6875 4.0625 -22.804688 4.0625 -28.515625 C 4.0625 -34.578125 5.335938 -39.929688 7.890625 -44.578125 C 10.453125 -49.222656 14.023438 -52.816406 18.609375 -55.359375 C 23.203125 -57.898438 28.421875 -59.171875 34.265625 -59.171875 C 40.117188 -59.171875 45.335938 -57.90625 49.921875 -55.375 C 54.515625 -52.851562 58.109375 -49.269531 60.703125 -44.625 C 63.296875 -39.988281 64.59375 -34.617188 64.59375 -28.515625 C 64.59375 -22.804688 63.347656 -17.6875 60.859375 -13.15625 C 58.378906 -8.625 54.851562 -5.066406 50.28125 -2.484375 C 45.707031 0.0859375 40.367188 1.375 34.265625 1.375 Z M 48.859375 -30.328125 C 48.859375 -33.460938 48.300781 -36.335938 47.1875 -38.953125 C 46.070312 -41.566406 44.414062 -43.640625 42.21875 -45.171875 C 40.03125 -46.710938 37.378906 -47.484375 34.265625 -47.484375 C 31.234375 -47.484375 28.617188 -46.707031 26.421875 -45.15625 C 24.234375 -43.601562 22.570312 -41.519531 21.4375 -38.90625 C 20.300781 -36.289062 19.734375 -33.429688 19.734375 -30.328125 C 19.734375 -24.035156 20.957031 -19.125 23.40625 -15.59375 C 25.863281 -12.070312 29.484375 -10.3125 34.265625 -10.3125 C 39.054688 -10.3125 42.6875 -12.066406 45.15625 -15.578125 C 47.625 -19.085938 48.859375 -24.003906 48.859375 -30.328125 Z M 48.859375 -30.328125 "/></g></g><g style="fill:rgb(94.509888%,100%,96.859741%);fill-opacity:1;"><g transform="translate(2668.744532, 797.476967)"><path style="stroke:none;" d="M 46.390625 -7.84375 C 43.898438 -4.84375 41.046875 -2.554688 37.828125 -0.984375 C 34.617188 0.585938 31.148438 1.375 27.421875 1.375 C 21.054688 1.375 16.179688 -0.625 12.796875 -4.625 C 9.421875 -8.632812 7.734375 -14.203125 7.734375 -21.328125 L 7.734375 -57.84375 L 22.8125 -57.84375 L 22.8125 -24.84375 C 22.8125 -19.46875 23.671875 -15.703125 25.390625 -13.546875 C 27.109375 -11.390625 29.503906 -10.3125 32.578125 -10.3125 C 36.960938 -10.3125 40.269531 -12.109375 42.5 -15.703125 C 44.726562 -19.304688 45.84375 -24.035156 45.84375 -29.890625 L 45.84375 -57.84375 L 60.859375 -57.84375 L 60.859375 0 L 46.609375 0 L 46.609375 -7.84375 Z M 46.390625 -7.84375 "/></g></g></g></svg>